<?xml version="1.0" encoding="UTF-8" standalone="no"?>
<!DOCTYPE svg PUBLIC "-//W3C//DTD SVG 1.1//EN"
 "http://www.w3.org/Graphics/SVG/1.1/DTD/svg11.dtd">
<!-- Generated by graphviz version 2.38.0 (20140413.2041)
 -->
<!-- Title: TD Pages: 1 -->
<svg width="243pt" height="67pt"
 viewBox="0.00 0.00 243.00 67.00" xmlns="http://www.w3.org/2000/svg" xmlns:xlink="http://www.w3.org/1999/xlink">
<g id="graph0" class="graph" transform="scale(1 1) rotate(0) translate(4 63)">
<title>TD</title>
<polygon fill="white" stroke="none" points="-4,4 -4,-63 239,-63 239,4 -4,4"/>
<text text-anchor="middle" x="117.5" y="-7.8" font-family="Times New Roman,serif" font-size="14.00">A_model_graph</text>
<!-- A -->
<g id="node1" class="node"><title>A</title>
<g id="a_node1"><a xlink:title="A&#10;Exogen">
<polygon fill="yellow" stroke="black" points="54,-59 0,-59 0,-23 54,-23 54,-59"/>
<text text-anchor="start" x="21" y="-36.8" font-family="Times New Roman,serif" font-size="14.00" fill="blue">A:</text>
</a>
</g>
</g>
<!-- X -->
<g id="node2" class="node"><title>X</title>
<g id="a_node2"><a xlink:title="X&#10;FRML &lt;&gt; X = X(&#45;1) + A &#36;">
<polygon fill="#63b8ff" stroke="black" points="144,-59 90,-59 90,-23 144,-23 144,-59"/>
<text text-anchor="start" x="111" y="-36.8" font-family="Times New Roman,serif" font-size="14.00" fill="blue">X:</text>
</a>
</g>
</g>
<!-- A&#45;&gt;X -->
<g id="edge1" class="edge"><title>A&#45;&gt;X</title>
<g id="a_edge1"><a xlink:href="bogus" xlink:title=" A &#45;&gt; X Min. att. 0% &#160;max: 0%">
<path fill="none" stroke="black" d="M54.4029,-41C62.3932,-41 71.3106,-41 79.8241,-41"/>
<polygon fill="black" stroke="black" points="79.919,-44.5001 89.919,-41 79.919,-37.5001 79.919,-44.5001"/>
</a>
</g>
</g>
<!-- X(&#45;1) -->
<g id="node3" class="node"><title>X(&#45;1)</title>
<g id="a_node3"><a xlink:title="X&#10;FRML &lt;&gt; X = X(&#45;1) + A &#36;">
<polygon fill="springgreen" stroke="black" points="235,-59 180,-59 180,-23 235,-23 235,-59"/>
<text text-anchor="start" x="186.5" y="-36.8" font-family="Times New Roman,serif" font-size="14.00" fill="blue">X(&#45;1):X</text>
</a>
</g>
</g>
<!-- X&#45;&gt;X(&#45;1) -->
<g id="edge2" class="edge"><title>X&#45;&gt;X(&#45;1)</title>
<g id="a_edge2"><a xlink:href="bogus" xlink:title=" X &#45;&gt; X(&#45;1) Min. att. 0% &#160;max: 0%">
<path fill="none" stroke="black" d="M144.074,-34.7839C152.121,-34.2841 161.139,-34.1352 169.765,-34.3373"/>
<polygon fill="black" stroke="black" points="169.864,-37.8442 180,-34.7578 170.152,-30.8501 169.864,-37.8442"/>
</a>
</g>
</g>
<!-- X(&#45;1)&#45;&gt;X -->
<g id="edge3" class="edge"><title>X(&#45;1)&#45;&gt;X</title>
<g id="a_edge3"><a xlink:href="bogus" xlink:title="NA">
<path fill="none" stroke="black" stroke-width="0.5" d="M180,-47.2422C171.919,-47.7297 162.891,-47.8662 154.28,-47.6517"/>
<polygon fill="black" stroke="black" stroke-width="0.5" points="154.214,-44.1458 144.074,-47.2161 153.916,-51.1395 154.214,-44.1458"/>
</a>
</g>
</g>
</g>
</svg>
