<?xml version="1.0" encoding="UTF-8" standalone="no"?>
<!DOCTYPE svg PUBLIC "-//W3C//DTD SVG 1.1//EN"
 "http://www.w3.org/Graphics/SVG/1.1/DTD/svg11.dtd">
<!-- Generated by graphviz version 2.38.0 (20140413.2041)
 -->
<!-- Title: TD Pages: 1 -->
<svg width="432pt" height="140pt"
 viewBox="0.00 0.00 432.00 139.74" xmlns="http://www.w3.org/2000/svg" xmlns:xlink="http://www.w3.org/1999/xlink">
<g id="graph0" class="graph" transform="scale(0.473684 0.473684) rotate(0) translate(4 291)">
<title>TD</title>
<polygon fill="white" stroke="none" points="-4,4 -4,-291 908,-291 908,4 -4,4"/>
<text text-anchor="middle" x="452" y="-7.8" font-family="Times New Roman,serif" font-size="14.00">BONDS explained</text>
<!-- BONDS -->
<g id="node1" class="node"><title>BONDS</title>
<polygon fill="red" stroke="black" points="657,-250.5 446,-250.5 446,-58.5 657,-58.5 657,-250.5"/>
<g id="a_node1_0"><a xlink:href="bogus" xlink:title="BONDS
FRML &lt;&gt; BONDS &#160;&#160;&#160;&#160;= BONDS(&#45;1) + NEW_BONDS $">
<polygon fill="none" stroke="black" points="451.5,-224.5 451.5,-245.5 652.5,-245.5 652.5,-224.5 451.5,-224.5"/>
<text text-anchor="start" x="528" y="-231.3" font-family="Times New Roman,serif" font-size="14.00" fill="blue">BONDS</text>
</a>
</g>
<polygon fill="none" stroke="black" points="451.5,-201.5 451.5,-222.5 544.5,-222.5 544.5,-201.5 451.5,-201.5"/>
<text text-anchor="start" x="454.5" y="-208.3" font-family="Times New Roman,serif" font-size="14.00" fill="blue">Per</text>
<polygon fill="none" stroke="black" points="546.5,-201.5 546.5,-222.5 580.5,-222.5 580.5,-201.5 546.5,-201.5"/>
<text text-anchor="start" x="549.5" y="-208.3" font-family="Times New Roman,serif" font-size="14.00" fill="blue">2019</text>
<polygon fill="none" stroke="black" points="582.5,-201.5 582.5,-222.5 616.5,-222.5 616.5,-201.5 582.5,-201.5"/>
<text text-anchor="start" x="585.5" y="-208.3" font-family="Times New Roman,serif" font-size="14.00" fill="blue">2020</text>
<polygon fill="none" stroke="black" points="618.5,-201.5 618.5,-222.5 652.5,-222.5 652.5,-201.5 618.5,-201.5"/>
<text text-anchor="start" x="621.5" y="-208.3" font-family="Times New Roman,serif" font-size="14.00" fill="blue">2021</text>
<g id="a_node1_1"><a xlink:href="bogus" xlink:title="Base
Exogen">
<polygon fill="none" stroke="black" points="451.5,-178.5 451.5,-199.5 544.5,-199.5 544.5,-178.5 451.5,-178.5"/>
<text text-anchor="start" x="454.5" y="-185.3" font-family="Times New Roman,serif" font-size="14.00" fill="blue">Base</text>
</a>
</g>
<polygon fill="none" stroke="black" points="546.5,-178.5 546.5,-199.5 580.5,-199.5 580.5,-178.5 546.5,-178.5"/>
<text text-anchor="start" x="563.5" y="-185.3" font-family="Times New Roman,serif" font-size="14.00" fill="blue">21</text>
<polygon fill="none" stroke="black" points="582.5,-178.5 582.5,-199.5 616.5,-199.5 616.5,-178.5 582.5,-178.5"/>
<text text-anchor="start" x="599.5" y="-185.3" font-family="Times New Roman,serif" font-size="14.00" fill="blue">51</text>
<polygon fill="none" stroke="black" points="618.5,-178.5 618.5,-199.5 652.5,-199.5 652.5,-178.5 618.5,-178.5"/>
<text text-anchor="start" x="635.5" y="-185.3" font-family="Times New Roman,serif" font-size="14.00" fill="blue">91</text>
<g id="a_node1_2"><a xlink:href="bogus" xlink:title="Last
Exogen">
<polygon fill="none" stroke="black" points="451.5,-155.5 451.5,-176.5 544.5,-176.5 544.5,-155.5 451.5,-155.5"/>
<text text-anchor="start" x="454.5" y="-162.3" font-family="Times New Roman,serif" font-size="14.00" fill="blue">Last</text>
</a>
</g>
<polygon fill="none" stroke="black" points="546.5,-155.5 546.5,-176.5 580.5,-176.5 580.5,-155.5 546.5,-155.5"/>
<text text-anchor="start" x="563.5" y="-162.3" font-family="Times New Roman,serif" font-size="14.00" fill="blue">11</text>
<polygon fill="none" stroke="black" points="582.5,-155.5 582.5,-176.5 616.5,-176.5 616.5,-155.5 582.5,-155.5"/>
<text text-anchor="start" x="599.5" y="-162.3" font-family="Times New Roman,serif" font-size="14.00" fill="blue">36</text>
<polygon fill="none" stroke="black" points="618.5,-155.5 618.5,-176.5 652.5,-176.5 652.5,-155.5 618.5,-155.5"/>
<text text-anchor="start" x="635.5" y="-162.3" font-family="Times New Roman,serif" font-size="14.00" fill="blue">66</text>
<g id="a_node1_3"><a xlink:href="bogus" xlink:title="Diff
Exogen">
<polygon fill="none" stroke="black" points="451.5,-132.5 451.5,-153.5 544.5,-153.5 544.5,-132.5 451.5,-132.5"/>
<text text-anchor="start" x="454.5" y="-139.3" font-family="Times New Roman,serif" font-size="14.00" fill="blue">Diff</text>
</a>
</g>
<polygon fill="none" stroke="black" points="546.5,-132.5 546.5,-153.5 580.5,-153.5 580.5,-132.5 546.5,-132.5"/>
<text text-anchor="start" x="558.5" y="-139.3" font-family="Times New Roman,serif" font-size="14.00" fill="blue">&#45;10</text>
<polygon fill="none" stroke="black" points="582.5,-132.5 582.5,-153.5 616.5,-153.5 616.5,-132.5 582.5,-132.5"/>
<text text-anchor="start" x="594.5" y="-139.3" font-family="Times New Roman,serif" font-size="14.00" fill="blue">&#45;15</text>
<polygon fill="none" stroke="black" points="618.5,-132.5 618.5,-153.5 652.5,-153.5 652.5,-132.5 618.5,-132.5"/>
<text text-anchor="start" x="630.5" y="-139.3" font-family="Times New Roman,serif" font-size="14.00" fill="blue">&#45;25</text>
<polygon fill="none" stroke="black" points="451.5,-109.5 451.5,-130.5 652.5,-130.5 652.5,-109.5 451.5,-109.5"/>
<text text-anchor="start" x="505.5" y="-116.3" font-family="Times New Roman,serif" font-size="14.00" fill="blue"> % Explained by</text>
<g id="a_node1_4"><a xlink:href="bogus" xlink:title="BONDS
FRML &lt;&gt; BONDS &#160;&#160;&#160;&#160;= BONDS(&#45;1) + NEW_BONDS $">
<polygon fill="none" stroke="black" points="451.5,-86.5 451.5,-107.5 544.5,-107.5 544.5,-86.5 451.5,-86.5"/>
<text text-anchor="start" x="454.5" y="-93.3" font-family="Times New Roman,serif" font-size="14.00" fill="blue">BONDS</text>
</a>
</g>
<polygon fill="none" stroke="black" points="546.5,-86.5 546.5,-107.5 580.5,-107.5 580.5,-86.5 546.5,-86.5"/>
<text text-anchor="start" x="570.5" y="-93.3" font-family="Times New Roman,serif" font-size="14.00" fill="blue">0</text>
<polygon fill="none" stroke="black" points="582.5,-86.5 582.5,-107.5 616.5,-107.5 616.5,-86.5 582.5,-86.5"/>
<text text-anchor="start" x="599.5" y="-93.3" font-family="Times New Roman,serif" font-size="14.00" fill="blue">67</text>
<polygon fill="none" stroke="black" points="618.5,-86.5 618.5,-107.5 652.5,-107.5 652.5,-86.5 618.5,-86.5"/>
<text text-anchor="start" x="635.5" y="-93.3" font-family="Times New Roman,serif" font-size="14.00" fill="blue">60</text>
<g id="a_node1_5"><a xlink:href="bogus" xlink:title="NEW_BONDS
FRML &lt;&gt; NEW_BONDS = &#160;(NEW_LOAN &#45; NEW_DEPOSIT) &#160;$">
<polygon fill="none" stroke="black" points="451.5,-63.5 451.5,-84.5 544.5,-84.5 544.5,-63.5 451.5,-63.5"/>
<text text-anchor="start" x="454.5" y="-70.3" font-family="Times New Roman,serif" font-size="14.00" fill="blue">NEW_BONDS</text>
</a>
</g>
<polygon fill="none" stroke="black" points="546.5,-63.5 546.5,-84.5 580.5,-84.5 580.5,-63.5 546.5,-63.5"/>
<text text-anchor="start" x="556.5" y="-70.3" font-family="Times New Roman,serif" font-size="14.00" fill="blue">100</text>
<polygon fill="none" stroke="black" points="582.5,-63.5 582.5,-84.5 616.5,-84.5 616.5,-63.5 582.5,-63.5"/>
<text text-anchor="start" x="599.5" y="-70.3" font-family="Times New Roman,serif" font-size="14.00" fill="blue">33</text>
<polygon fill="none" stroke="black" points="618.5,-63.5 618.5,-84.5 652.5,-84.5 652.5,-63.5 618.5,-63.5"/>
<text text-anchor="start" x="635.5" y="-70.3" font-family="Times New Roman,serif" font-size="14.00" fill="blue">40</text>
<polygon fill="none" stroke="black" points="448,-60.5 448,-248.5 655,-248.5 655,-60.5 448,-60.5"/>
</g>
<!-- BONDS(&#45;1) -->
<g id="node2" class="node"><title>BONDS(&#45;1)</title>
<polygon fill="springgreen" stroke="black" points="904,-250.5 693,-250.5 693,-58.5 904,-58.5 904,-250.5"/>
<g id="a_node2_6"><a xlink:href="bogus" xlink:title="BONDS
FRML &lt;&gt; BONDS &#160;&#160;&#160;&#160;= BONDS(&#45;1) + NEW_BONDS $">
<polygon fill="none" stroke="black" points="698.5,-224.5 698.5,-245.5 899.5,-245.5 899.5,-224.5 698.5,-224.5"/>
<text text-anchor="start" x="765" y="-231.3" font-family="Times New Roman,serif" font-size="14.00" fill="blue">BONDS(&#45;1)</text>
</a>
</g>
<polygon fill="none" stroke="black" points="698.5,-201.5 698.5,-222.5 791.5,-222.5 791.5,-201.5 698.5,-201.5"/>
<text text-anchor="start" x="701.5" y="-208.3" font-family="Times New Roman,serif" font-size="14.00" fill="blue">Per</text>
<polygon fill="none" stroke="black" points="793.5,-201.5 793.5,-222.5 827.5,-222.5 827.5,-201.5 793.5,-201.5"/>
<text text-anchor="start" x="796.5" y="-208.3" font-family="Times New Roman,serif" font-size="14.00" fill="blue">2019</text>
<polygon fill="none" stroke="black" points="829.5,-201.5 829.5,-222.5 863.5,-222.5 863.5,-201.5 829.5,-201.5"/>
<text text-anchor="start" x="832.5" y="-208.3" font-family="Times New Roman,serif" font-size="14.00" fill="blue">2020</text>
<polygon fill="none" stroke="black" points="865.5,-201.5 865.5,-222.5 899.5,-222.5 899.5,-201.5 865.5,-201.5"/>
<text text-anchor="start" x="868.5" y="-208.3" font-family="Times New Roman,serif" font-size="14.00" fill="blue">2021</text>
<g id="a_node2_7"><a xlink:href="bogus" xlink:title="Base
Exogen">
<polygon fill="none" stroke="black" points="698.5,-178.5 698.5,-199.5 791.5,-199.5 791.5,-178.5 698.5,-178.5"/>
<text text-anchor="start" x="701.5" y="-185.3" font-family="Times New Roman,serif" font-size="14.00" fill="blue">Base</text>
</a>
</g>
<polygon fill="none" stroke="black" points="793.5,-178.5 793.5,-199.5 827.5,-199.5 827.5,-178.5 793.5,-178.5"/>
<text text-anchor="start" x="817.5" y="-185.3" font-family="Times New Roman,serif" font-size="14.00" fill="blue">1</text>
<polygon fill="none" stroke="black" points="829.5,-178.5 829.5,-199.5 863.5,-199.5 863.5,-178.5 829.5,-178.5"/>
<text text-anchor="start" x="846.5" y="-185.3" font-family="Times New Roman,serif" font-size="14.00" fill="blue">21</text>
<polygon fill="none" stroke="black" points="865.5,-178.5 865.5,-199.5 899.5,-199.5 899.5,-178.5 865.5,-178.5"/>
<text text-anchor="start" x="882.5" y="-185.3" font-family="Times New Roman,serif" font-size="14.00" fill="blue">51</text>
<g id="a_node2_8"><a xlink:href="bogus" xlink:title="Last
Exogen">
<polygon fill="none" stroke="black" points="698.5,-155.5 698.5,-176.5 791.5,-176.5 791.5,-155.5 698.5,-155.5"/>
<text text-anchor="start" x="701.5" y="-162.3" font-family="Times New Roman,serif" font-size="14.00" fill="blue">Last</text>
</a>
</g>
<polygon fill="none" stroke="black" points="793.5,-155.5 793.5,-176.5 827.5,-176.5 827.5,-155.5 793.5,-155.5"/>
<text text-anchor="start" x="817.5" y="-162.3" font-family="Times New Roman,serif" font-size="14.00" fill="blue">1</text>
<polygon fill="none" stroke="black" points="829.5,-155.5 829.5,-176.5 863.5,-176.5 863.5,-155.5 829.5,-155.5"/>
<text text-anchor="start" x="846.5" y="-162.3" font-family="Times New Roman,serif" font-size="14.00" fill="blue">11</text>
<polygon fill="none" stroke="black" points="865.5,-155.5 865.5,-176.5 899.5,-176.5 899.5,-155.5 865.5,-155.5"/>
<text text-anchor="start" x="882.5" y="-162.3" font-family="Times New Roman,serif" font-size="14.00" fill="blue">36</text>
<g id="a_node2_9"><a xlink:href="bogus" xlink:title="Diff
Exogen">
<polygon fill="none" stroke="black" points="698.5,-132.5 698.5,-153.5 791.5,-153.5 791.5,-132.5 698.5,-132.5"/>
<text text-anchor="start" x="701.5" y="-139.3" font-family="Times New Roman,serif" font-size="14.00" fill="blue">Diff</text>
</a>
</g>
<polygon fill="none" stroke="black" points="793.5,-132.5 793.5,-153.5 827.5,-153.5 827.5,-132.5 793.5,-132.5"/>
<text text-anchor="start" x="817.5" y="-139.3" font-family="Times New Roman,serif" font-size="14.00" fill="blue">0</text>
<polygon fill="none" stroke="black" points="829.5,-132.5 829.5,-153.5 863.5,-153.5 863.5,-132.5 829.5,-132.5"/>
<text text-anchor="start" x="841.5" y="-139.3" font-family="Times New Roman,serif" font-size="14.00" fill="blue">&#45;10</text>
<polygon fill="none" stroke="black" points="865.5,-132.5 865.5,-153.5 899.5,-153.5 899.5,-132.5 865.5,-132.5"/>
<text text-anchor="start" x="877.5" y="-139.3" font-family="Times New Roman,serif" font-size="14.00" fill="blue">&#45;15</text>
<polygon fill="none" stroke="black" points="698.5,-109.5 698.5,-130.5 899.5,-130.5 899.5,-109.5 698.5,-109.5"/>
<text text-anchor="start" x="752.5" y="-116.3" font-family="Times New Roman,serif" font-size="14.00" fill="blue"> % Explained by</text>
<g id="a_node2_10"><a xlink:href="bogus" xlink:title="BONDS
FRML &lt;&gt; BONDS &#160;&#160;&#160;&#160;= BONDS(&#45;1) + NEW_BONDS $">
<polygon fill="none" stroke="black" points="698.5,-86.5 698.5,-107.5 791.5,-107.5 791.5,-86.5 698.5,-86.5"/>
<text text-anchor="start" x="701.5" y="-93.3" font-family="Times New Roman,serif" font-size="14.00" fill="blue">BONDS</text>
</a>
</g>
<polygon fill="none" stroke="black" points="793.5,-86.5 793.5,-107.5 827.5,-107.5 827.5,-86.5 793.5,-86.5"/>
<text text-anchor="start" x="817.5" y="-93.3" font-family="Times New Roman,serif" font-size="14.00" fill="blue">0</text>
<polygon fill="none" stroke="black" points="829.5,-86.5 829.5,-107.5 863.5,-107.5 863.5,-86.5 829.5,-86.5"/>
<text text-anchor="start" x="846.5" y="-93.3" font-family="Times New Roman,serif" font-size="14.00" fill="blue">67</text>
<polygon fill="none" stroke="black" points="865.5,-86.5 865.5,-107.5 899.5,-107.5 899.5,-86.5 865.5,-86.5"/>
<text text-anchor="start" x="882.5" y="-93.3" font-family="Times New Roman,serif" font-size="14.00" fill="blue">60</text>
<g id="a_node2_11"><a xlink:href="bogus" xlink:title="NEW_BONDS
FRML &lt;&gt; NEW_BONDS = &#160;(NEW_LOAN &#45; NEW_DEPOSIT) &#160;$">
<polygon fill="none" stroke="black" points="698.5,-63.5 698.5,-84.5 791.5,-84.5 791.5,-63.5 698.5,-63.5"/>
<text text-anchor="start" x="701.5" y="-70.3" font-family="Times New Roman,serif" font-size="14.00" fill="blue">NEW_BONDS</text>
</a>
</g>
<polygon fill="none" stroke="black" points="793.5,-63.5 793.5,-84.5 827.5,-84.5 827.5,-63.5 793.5,-63.5"/>
<text text-anchor="start" x="803.5" y="-70.3" font-family="Times New Roman,serif" font-size="14.00" fill="blue">100</text>
<polygon fill="none" stroke="black" points="829.5,-63.5 829.5,-84.5 863.5,-84.5 863.5,-63.5 829.5,-63.5"/>
<text text-anchor="start" x="846.5" y="-70.3" font-family="Times New Roman,serif" font-size="14.00" fill="blue">33</text>
<polygon fill="none" stroke="black" points="865.5,-63.5 865.5,-84.5 899.5,-84.5 899.5,-63.5 865.5,-63.5"/>
<text text-anchor="start" x="882.5" y="-70.3" font-family="Times New Roman,serif" font-size="14.00" fill="blue">40</text>
<polygon fill="none" stroke="black" points="695,-60.5 695,-248.5 902,-248.5 902,-60.5 695,-60.5"/>
</g>
<!-- BONDS&#45;&gt;BONDS(&#45;1) -->
<g id="edge2" class="edge"><title>BONDS&#45;&gt;BONDS(&#45;1)</title>
<path fill="none" stroke="black" stroke-width="0.5" d="M657.113,-147.814C665.619,-147.753 674.244,-147.735 682.817,-147.762"/>
<polygon fill="black" stroke="black" stroke-width="0.5" points="682.829,-151.262 692.847,-147.814 682.865,-144.262 682.829,-151.262"/>
</g>
<!-- BONDS(&#45;1)&#45;&gt;BONDS -->
<g id="edge1" class="edge"><title>BONDS(&#45;1)&#45;&gt;BONDS</title>
<path fill="none" stroke="black" stroke-width="3" d="M692.847,-161.186C684.34,-161.247 675.716,-161.265 667.143,-161.238"/>
<polygon fill="black" stroke="black" stroke-width="3" points="667.131,-157.738 657.113,-161.186 667.094,-164.738 667.131,-157.738"/>
</g>
<!-- NEW_BONDS -->
<g id="node3" class="node"><title>NEW_BONDS</title>
<polygon fill="#63b8ff" stroke="black" points="410,-250.5 188,-250.5 188,-58.5 410,-58.5 410,-250.5"/>
<g id="a_node3_12"><a xlink:href="bogus" xlink:title="NEW_BONDS
FRML &lt;&gt; NEW_BONDS = &#160;(NEW_LOAN &#45; NEW_DEPOSIT) &#160;$">
<polygon fill="none" stroke="black" points="193,-224.5 193,-245.5 405,-245.5 405,-224.5 193,-224.5"/>
<text text-anchor="start" x="255.5" y="-231.3" font-family="Times New Roman,serif" font-size="14.00" fill="blue">NEW_BONDS</text>
</a>
</g>
<polygon fill="none" stroke="black" points="193,-201.5 193,-222.5 297,-222.5 297,-201.5 193,-201.5"/>
<text text-anchor="start" x="196" y="-208.3" font-family="Times New Roman,serif" font-size="14.00" fill="blue">Per</text>
<polygon fill="none" stroke="black" points="299,-201.5 299,-222.5 333,-222.5 333,-201.5 299,-201.5"/>
<text text-anchor="start" x="302" y="-208.3" font-family="Times New Roman,serif" font-size="14.00" fill="blue">2019</text>
<polygon fill="none" stroke="black" points="335,-201.5 335,-222.5 369,-222.5 369,-201.5 335,-201.5"/>
<text text-anchor="start" x="338" y="-208.3" font-family="Times New Roman,serif" font-size="14.00" fill="blue">2020</text>
<polygon fill="none" stroke="black" points="371,-201.5 371,-222.5 405,-222.5 405,-201.5 371,-201.5"/>
<text text-anchor="start" x="374" y="-208.3" font-family="Times New Roman,serif" font-size="14.00" fill="blue">2021</text>
<g id="a_node3_13"><a xlink:href="bogus" xlink:title="Base
Exogen">
<polygon fill="none" stroke="black" points="193,-178.5 193,-199.5 297,-199.5 297,-178.5 193,-178.5"/>
<text text-anchor="start" x="196" y="-185.3" font-family="Times New Roman,serif" font-size="14.00" fill="blue">Base</text>
</a>
</g>
<polygon fill="none" stroke="black" points="299,-178.5 299,-199.5 333,-199.5 333,-178.5 299,-178.5"/>
<text text-anchor="start" x="316" y="-185.3" font-family="Times New Roman,serif" font-size="14.00" fill="blue">20</text>
<polygon fill="none" stroke="black" points="335,-178.5 335,-199.5 369,-199.5 369,-178.5 335,-178.5"/>
<text text-anchor="start" x="352" y="-185.3" font-family="Times New Roman,serif" font-size="14.00" fill="blue">30</text>
<polygon fill="none" stroke="black" points="371,-178.5 371,-199.5 405,-199.5 405,-178.5 371,-178.5"/>
<text text-anchor="start" x="388" y="-185.3" font-family="Times New Roman,serif" font-size="14.00" fill="blue">40</text>
<g id="a_node3_14"><a xlink:href="bogus" xlink:title="Last
Exogen">
<polygon fill="none" stroke="black" points="193,-155.5 193,-176.5 297,-176.5 297,-155.5 193,-155.5"/>
<text text-anchor="start" x="196" y="-162.3" font-family="Times New Roman,serif" font-size="14.00" fill="blue">Last</text>
</a>
</g>
<polygon fill="none" stroke="black" points="299,-155.5 299,-176.5 333,-176.5 333,-155.5 299,-155.5"/>
<text text-anchor="start" x="316" y="-162.3" font-family="Times New Roman,serif" font-size="14.00" fill="blue">10</text>
<polygon fill="none" stroke="black" points="335,-155.5 335,-176.5 369,-176.5 369,-155.5 335,-155.5"/>
<text text-anchor="start" x="352" y="-162.3" font-family="Times New Roman,serif" font-size="14.00" fill="blue">25</text>
<polygon fill="none" stroke="black" points="371,-155.5 371,-176.5 405,-176.5 405,-155.5 371,-155.5"/>
<text text-anchor="start" x="388" y="-162.3" font-family="Times New Roman,serif" font-size="14.00" fill="blue">30</text>
<g id="a_node3_15"><a xlink:href="bogus" xlink:title="Diff
Exogen">
<polygon fill="none" stroke="black" points="193,-132.5 193,-153.5 297,-153.5 297,-132.5 193,-132.5"/>
<text text-anchor="start" x="196" y="-139.3" font-family="Times New Roman,serif" font-size="14.00" fill="blue">Diff</text>
</a>
</g>
<polygon fill="none" stroke="black" points="299,-132.5 299,-153.5 333,-153.5 333,-132.5 299,-132.5"/>
<text text-anchor="start" x="311" y="-139.3" font-family="Times New Roman,serif" font-size="14.00" fill="blue">&#45;10</text>
<polygon fill="none" stroke="black" points="335,-132.5 335,-153.5 369,-153.5 369,-132.5 335,-132.5"/>
<text text-anchor="start" x="354" y="-139.3" font-family="Times New Roman,serif" font-size="14.00" fill="blue">&#45;5</text>
<polygon fill="none" stroke="black" points="371,-132.5 371,-153.5 405,-153.5 405,-132.5 371,-132.5"/>
<text text-anchor="start" x="383" y="-139.3" font-family="Times New Roman,serif" font-size="14.00" fill="blue">&#45;10</text>
<polygon fill="none" stroke="black" points="193,-109.5 193,-130.5 405,-130.5 405,-109.5 193,-109.5"/>
<text text-anchor="start" x="252.5" y="-116.3" font-family="Times New Roman,serif" font-size="14.00" fill="blue"> % Explained by</text>
<g id="a_node3_16"><a xlink:href="bogus" xlink:title="NEW_DEPOSIT
Exogen">
<polygon fill="none" stroke="black" points="193,-86.5 193,-107.5 297,-107.5 297,-86.5 193,-86.5"/>
<text text-anchor="start" x="196" y="-93.3" font-family="Times New Roman,serif" font-size="14.00" fill="blue">NEW_DEPOSIT</text>
</a>
</g>
<polygon fill="none" stroke="black" points="299,-86.5 299,-107.5 333,-107.5 333,-86.5 299,-86.5"/>
<text text-anchor="start" x="309" y="-93.3" font-family="Times New Roman,serif" font-size="14.00" fill="blue">300</text>
<polygon fill="none" stroke="black" points="335,-86.5 335,-107.5 369,-107.5 369,-86.5 335,-86.5"/>
<text text-anchor="start" x="345" y="-93.3" font-family="Times New Roman,serif" font-size="14.00" fill="blue">500</text>
<polygon fill="none" stroke="black" points="371,-86.5 371,-107.5 405,-107.5 405,-86.5 371,-86.5"/>
<text text-anchor="start" x="381" y="-93.3" font-family="Times New Roman,serif" font-size="14.00" fill="blue">500</text>
<g id="a_node3_17"><a xlink:href="bogus" xlink:title="NEW_LOAN
Exogen">
<polygon fill="none" stroke="black" points="193,-63.5 193,-84.5 297,-84.5 297,-63.5 193,-63.5"/>
<text text-anchor="start" x="196" y="-70.3" font-family="Times New Roman,serif" font-size="14.00" fill="blue">NEW_LOAN</text>
</a>
</g>
<polygon fill="none" stroke="black" points="299,-63.5 299,-84.5 333,-84.5 333,-63.5 299,-63.5"/>
<text text-anchor="start" x="305" y="-70.3" font-family="Times New Roman,serif" font-size="14.00" fill="blue">&#45;200</text>
<polygon fill="none" stroke="black" points="335,-63.5 335,-84.5 369,-84.5 369,-63.5 335,-63.5"/>
<text text-anchor="start" x="341" y="-70.3" font-family="Times New Roman,serif" font-size="14.00" fill="blue">&#45;400</text>
<polygon fill="none" stroke="black" points="371,-63.5 371,-84.5 405,-84.5 405,-63.5 371,-63.5"/>
<text text-anchor="start" x="377" y="-70.3" font-family="Times New Roman,serif" font-size="14.00" fill="blue">&#45;400</text>
<polygon fill="none" stroke="black" points="190,-60.5 190,-248.5 408,-248.5 408,-60.5 190,-60.5"/>
</g>
<!-- NEW_BONDS&#45;&gt;BONDS -->
<g id="edge3" class="edge"><title>NEW_BONDS&#45;&gt;BONDS</title>
<path fill="none" stroke="black" stroke-width="2" d="M410.237,-154.5C418.636,-154.5 427.126,-154.5 435.554,-154.5"/>
<polygon fill="black" stroke="black" stroke-width="2" points="435.792,-158 445.792,-154.5 435.792,-151 435.792,-158"/>
</g>
<!-- NEW_LOAN -->
<g id="node4" class="node"><title>NEW_LOAN</title>
<polygon fill="yellow" stroke="black" points="152,-287 0,-287 0,-164 152,-164 152,-287"/>
<g id="a_node4_18"><a xlink:href="bogus" xlink:title="NEW_LOAN
Exogen">
<polygon fill="none" stroke="black" points="5,-260.5 5,-281.5 147,-281.5 147,-260.5 5,-260.5"/>
<text text-anchor="start" x="37" y="-267.3" font-family="Times New Roman,serif" font-size="14.00" fill="blue">NEW_LOAN</text>
</a>
</g>
<polygon fill="none" stroke="black" points="5,-237.5 5,-258.5 39,-258.5 39,-237.5 5,-237.5"/>
<text text-anchor="start" x="8" y="-244.3" font-family="Times New Roman,serif" font-size="14.00" fill="blue">Per</text>
<polygon fill="none" stroke="black" points="41,-237.5 41,-258.5 75,-258.5 75,-237.5 41,-237.5"/>
<text text-anchor="start" x="44" y="-244.3" font-family="Times New Roman,serif" font-size="14.00" fill="blue">2019</text>
<polygon fill="none" stroke="black" points="77,-237.5 77,-258.5 111,-258.5 111,-237.5 77,-237.5"/>
<text text-anchor="start" x="80" y="-244.3" font-family="Times New Roman,serif" font-size="14.00" fill="blue">2020</text>
<polygon fill="none" stroke="black" points="113,-237.5 113,-258.5 147,-258.5 147,-237.5 113,-237.5"/>
<text text-anchor="start" x="116" y="-244.3" font-family="Times New Roman,serif" font-size="14.00" fill="blue">2021</text>
<g id="a_node4_19"><a xlink:href="bogus" xlink:title="Base
Exogen">
<polygon fill="none" stroke="black" points="5,-214.5 5,-235.5 39,-235.5 39,-214.5 5,-214.5"/>
<text text-anchor="start" x="8" y="-221.3" font-family="Times New Roman,serif" font-size="14.00" fill="blue">Base</text>
</a>
</g>
<polygon fill="none" stroke="black" points="41,-214.5 41,-235.5 75,-235.5 75,-214.5 41,-214.5"/>
<text text-anchor="start" x="58" y="-221.3" font-family="Times New Roman,serif" font-size="14.00" fill="blue">20</text>
<polygon fill="none" stroke="black" points="77,-214.5 77,-235.5 111,-235.5 111,-214.5 77,-214.5"/>
<text text-anchor="start" x="94" y="-221.3" font-family="Times New Roman,serif" font-size="14.00" fill="blue">30</text>
<polygon fill="none" stroke="black" points="113,-214.5 113,-235.5 147,-235.5 147,-214.5 113,-214.5"/>
<text text-anchor="start" x="130" y="-221.3" font-family="Times New Roman,serif" font-size="14.00" fill="blue">40</text>
<g id="a_node4_20"><a xlink:href="bogus" xlink:title="Last
Exogen">
<polygon fill="none" stroke="black" points="5,-191.5 5,-212.5 39,-212.5 39,-191.5 5,-191.5"/>
<text text-anchor="start" x="8" y="-198.3" font-family="Times New Roman,serif" font-size="14.00" fill="blue">Last</text>
</a>
</g>
<polygon fill="none" stroke="black" points="41,-191.5 41,-212.5 75,-212.5 75,-191.5 41,-191.5"/>
<text text-anchor="start" x="58" y="-198.3" font-family="Times New Roman,serif" font-size="14.00" fill="blue">40</text>
<polygon fill="none" stroke="black" points="77,-191.5 77,-212.5 111,-212.5 111,-191.5 77,-191.5"/>
<text text-anchor="start" x="94" y="-198.3" font-family="Times New Roman,serif" font-size="14.00" fill="blue">50</text>
<polygon fill="none" stroke="black" points="113,-191.5 113,-212.5 147,-212.5 147,-191.5 113,-191.5"/>
<text text-anchor="start" x="130" y="-198.3" font-family="Times New Roman,serif" font-size="14.00" fill="blue">80</text>
<g id="a_node4_21"><a xlink:href="bogus" xlink:title="Diff
Exogen">
<polygon fill="none" stroke="black" points="5,-168.5 5,-189.5 39,-189.5 39,-168.5 5,-168.5"/>
<text text-anchor="start" x="8" y="-175.3" font-family="Times New Roman,serif" font-size="14.00" fill="blue">Diff</text>
</a>
</g>
<polygon fill="none" stroke="black" points="41,-168.5 41,-189.5 75,-189.5 75,-168.5 41,-168.5"/>
<text text-anchor="start" x="58" y="-175.3" font-family="Times New Roman,serif" font-size="14.00" fill="blue">20</text>
<polygon fill="none" stroke="black" points="77,-168.5 77,-189.5 111,-189.5 111,-168.5 77,-168.5"/>
<text text-anchor="start" x="94" y="-175.3" font-family="Times New Roman,serif" font-size="14.00" fill="blue">20</text>
<polygon fill="none" stroke="black" points="113,-168.5 113,-189.5 147,-189.5 147,-168.5 113,-168.5"/>
<text text-anchor="start" x="130" y="-175.3" font-family="Times New Roman,serif" font-size="14.00" fill="blue">40</text>
<polygon fill="none" stroke="black" points="2,-166 2,-285 150,-285 150,-166 2,-166"/>
</g>
<!-- NEW_LOAN&#45;&gt;NEW_BONDS -->
<g id="edge4" class="edge"><title>NEW_LOAN&#45;&gt;NEW_BONDS</title>
<path fill="none" stroke="black" stroke-width="5" d="M152.129,-201.364C160.583,-198.647 169.346,-195.832 178.19,-192.991"/>
<polygon fill="black" stroke="black" stroke-width="5" points="179.623,-197.126 187.806,-189.902 176.947,-188.795 179.623,-197.126"/>
</g>
<!-- NEW_DEPOSIT -->
<g id="node5" class="node"><title>NEW_DEPOSIT</title>
<polygon fill="yellow" stroke="black" points="152,-146 0,-146 0,-23 152,-23 152,-146"/>
<g id="a_node5_22"><a xlink:href="bogus" xlink:title="NEW_DEPOSIT
Exogen">
<polygon fill="none" stroke="black" points="5,-119.5 5,-140.5 147,-140.5 147,-119.5 5,-119.5"/>
<text text-anchor="start" x="27" y="-126.3" font-family="Times New Roman,serif" font-size="14.00" fill="blue">NEW_DEPOSIT</text>
</a>
</g>
<polygon fill="none" stroke="black" points="5,-96.5 5,-117.5 39,-117.5 39,-96.5 5,-96.5"/>
<text text-anchor="start" x="8" y="-103.3" font-family="Times New Roman,serif" font-size="14.00" fill="blue">Per</text>
<polygon fill="none" stroke="black" points="41,-96.5 41,-117.5 75,-117.5 75,-96.5 41,-96.5"/>
<text text-anchor="start" x="44" y="-103.3" font-family="Times New Roman,serif" font-size="14.00" fill="blue">2019</text>
<polygon fill="none" stroke="black" points="77,-96.5 77,-117.5 111,-117.5 111,-96.5 77,-96.5"/>
<text text-anchor="start" x="80" y="-103.3" font-family="Times New Roman,serif" font-size="14.00" fill="blue">2020</text>
<polygon fill="none" stroke="black" points="113,-96.5 113,-117.5 147,-117.5 147,-96.5 113,-96.5"/>
<text text-anchor="start" x="116" y="-103.3" font-family="Times New Roman,serif" font-size="14.00" fill="blue">2021</text>
<g id="a_node5_23"><a xlink:href="bogus" xlink:title="Base
Exogen">
<polygon fill="none" stroke="black" points="5,-73.5 5,-94.5 39,-94.5 39,-73.5 5,-73.5"/>
<text text-anchor="start" x="8" y="-80.3" font-family="Times New Roman,serif" font-size="14.00" fill="blue">Base</text>
</a>
</g>
<polygon fill="none" stroke="black" points="41,-73.5 41,-94.5 75,-94.5 75,-73.5 41,-73.5"/>
<text text-anchor="start" x="65" y="-80.3" font-family="Times New Roman,serif" font-size="14.00" fill="blue">0</text>
<polygon fill="none" stroke="black" points="77,-73.5 77,-94.5 111,-94.5 111,-73.5 77,-73.5"/>
<text text-anchor="start" x="101" y="-80.3" font-family="Times New Roman,serif" font-size="14.00" fill="blue">0</text>
<polygon fill="none" stroke="black" points="113,-73.5 113,-94.5 147,-94.5 147,-73.5 113,-73.5"/>
<text text-anchor="start" x="137" y="-80.3" font-family="Times New Roman,serif" font-size="14.00" fill="blue">0</text>
<g id="a_node5_24"><a xlink:href="bogus" xlink:title="Last
Exogen">
<polygon fill="none" stroke="black" points="5,-50.5 5,-71.5 39,-71.5 39,-50.5 5,-50.5"/>
<text text-anchor="start" x="8" y="-57.3" font-family="Times New Roman,serif" font-size="14.00" fill="blue">Last</text>
</a>
</g>
<polygon fill="none" stroke="black" points="41,-50.5 41,-71.5 75,-71.5 75,-50.5 41,-50.5"/>
<text text-anchor="start" x="58" y="-57.3" font-family="Times New Roman,serif" font-size="14.00" fill="blue">30</text>
<polygon fill="none" stroke="black" points="77,-50.5 77,-71.5 111,-71.5 111,-50.5 77,-50.5"/>
<text text-anchor="start" x="94" y="-57.3" font-family="Times New Roman,serif" font-size="14.00" fill="blue">25</text>
<polygon fill="none" stroke="black" points="113,-50.5 113,-71.5 147,-71.5 147,-50.5 113,-50.5"/>
<text text-anchor="start" x="130" y="-57.3" font-family="Times New Roman,serif" font-size="14.00" fill="blue">50</text>
<g id="a_node5_25"><a xlink:href="bogus" xlink:title="Diff
Exogen">
<polygon fill="none" stroke="black" points="5,-27.5 5,-48.5 39,-48.5 39,-27.5 5,-27.5"/>
<text text-anchor="start" x="8" y="-34.3" font-family="Times New Roman,serif" font-size="14.00" fill="blue">Diff</text>
</a>
</g>
<polygon fill="none" stroke="black" points="41,-27.5 41,-48.5 75,-48.5 75,-27.5 41,-27.5"/>
<text text-anchor="start" x="58" y="-34.3" font-family="Times New Roman,serif" font-size="14.00" fill="blue">30</text>
<polygon fill="none" stroke="black" points="77,-27.5 77,-48.5 111,-48.5 111,-27.5 77,-27.5"/>
<text text-anchor="start" x="94" y="-34.3" font-family="Times New Roman,serif" font-size="14.00" fill="blue">25</text>
<polygon fill="none" stroke="black" points="113,-27.5 113,-48.5 147,-48.5 147,-27.5 113,-27.5"/>
<text text-anchor="start" x="130" y="-34.3" font-family="Times New Roman,serif" font-size="14.00" fill="blue">50</text>
<polygon fill="none" stroke="black" points="2,-25 2,-144 150,-144 150,-25 2,-25"/>
</g>
<!-- NEW_DEPOSIT&#45;&gt;NEW_BONDS -->
<g id="edge5" class="edge"><title>NEW_DEPOSIT&#45;&gt;NEW_BONDS</title>
<path fill="none" stroke="black" stroke-width="5" d="M152.129,-108.296C160.583,-110.974 169.346,-113.75 178.19,-116.551"/>
<polygon fill="black" stroke="black" stroke-width="5" points="176.952,-120.748 187.806,-119.597 179.594,-112.407 176.952,-120.748"/>
</g>
</g>
</svg>
