<?xml version="1.0" encoding="UTF-8" standalone="no"?>
<!DOCTYPE svg PUBLIC "-//W3C//DTD SVG 1.1//EN"
 "http://www.w3.org/Graphics/SVG/1.1/DTD/svg11.dtd">
<!-- Generated by graphviz version 2.38.0 (20140413.2041)
 -->
<!-- Title: TD Pages: 1 -->
<svg width="232pt" height="241pt"
 viewBox="0.00 0.00 232.00 241.00" xmlns="http://www.w3.org/2000/svg" xmlns:xlink="http://www.w3.org/1999/xlink">
<g id="graph0" class="graph" transform="scale(1 1) rotate(0) translate(4 237)">
<title>TD</title>
<polygon fill="white" stroke="none" points="-4,4 -4,-237 228,-237 228,4 -4,4"/>
<text text-anchor="middle" x="112" y="-7.8" font-family="Times New Roman,serif" font-size="14.00">X explained</text>
<!-- X -->
<g id="node1" class="node"><title>X</title>
<polygon fill="red" stroke="black" points="224,-215 1.42109e-014,-215 1.42109e-014,-23 224,-23 224,-215"/>
<g id="a_node1_0"><a xlink:href="bogus" xlink:title="X
FRML &lt;&gt; X = X(&#45;1) + A $">
<polygon fill="none" stroke="black" points="5,-189 5,-210 219,-210 219,-189 5,-189"/>
<text text-anchor="start" x="107" y="-195.8" font-family="Times New Roman,serif" font-size="14.00" fill="blue">X</text>
</a>
</g>
<polygon fill="none" stroke="black" points="5,-166 5,-187 39,-187 39,-166 5,-166"/>
<text text-anchor="start" x="8" y="-172.8" font-family="Times New Roman,serif" font-size="14.00" fill="blue">Per</text>
<polygon fill="none" stroke="black" points="41,-166 41,-187 75,-187 75,-166 41,-166"/>
<text text-anchor="start" x="44" y="-172.8" font-family="Times New Roman,serif" font-size="14.00" fill="blue">2021</text>
<polygon fill="none" stroke="black" points="77,-166 77,-187 111,-187 111,-166 77,-166"/>
<text text-anchor="start" x="80" y="-172.8" font-family="Times New Roman,serif" font-size="14.00" fill="blue">2022</text>
<polygon fill="none" stroke="black" points="113,-166 113,-187 147,-187 147,-166 113,-166"/>
<text text-anchor="start" x="116" y="-172.8" font-family="Times New Roman,serif" font-size="14.00" fill="blue">2023</text>
<polygon fill="none" stroke="black" points="149,-166 149,-187 183,-187 183,-166 149,-166"/>
<text text-anchor="start" x="152" y="-172.8" font-family="Times New Roman,serif" font-size="14.00" fill="blue">2024</text>
<polygon fill="none" stroke="black" points="185,-166 185,-187 219,-187 219,-166 185,-166"/>
<text text-anchor="start" x="188" y="-172.8" font-family="Times New Roman,serif" font-size="14.00" fill="blue">2025</text>
<g id="a_node1_1"><a xlink:href="bogus" xlink:title="Base
Exogen">
<polygon fill="none" stroke="black" points="5,-143 5,-164 39,-164 39,-143 5,-143"/>
<text text-anchor="start" x="8" y="-149.8" font-family="Times New Roman,serif" font-size="14.00" fill="blue">Base</text>
</a>
</g>
<polygon fill="none" stroke="black" points="41,-143 41,-164 75,-164 75,-143 41,-143"/>
<text text-anchor="start" x="52" y="-149.8" font-family="Times New Roman,serif" font-size="14.00" fill="blue">nan</text>
<polygon fill="none" stroke="black" points="77,-143 77,-164 111,-164 111,-143 77,-143"/>
<text text-anchor="start" x="88" y="-149.8" font-family="Times New Roman,serif" font-size="14.00" fill="blue">nan</text>
<polygon fill="none" stroke="black" points="113,-143 113,-164 147,-164 147,-143 113,-143"/>
<text text-anchor="start" x="124" y="-149.8" font-family="Times New Roman,serif" font-size="14.00" fill="blue">nan</text>
<polygon fill="none" stroke="black" points="149,-143 149,-164 183,-164 183,-143 149,-143"/>
<text text-anchor="start" x="160" y="-149.8" font-family="Times New Roman,serif" font-size="14.00" fill="blue">nan</text>
<polygon fill="none" stroke="black" points="185,-143 185,-164 219,-164 219,-143 185,-143"/>
<text text-anchor="start" x="196" y="-149.8" font-family="Times New Roman,serif" font-size="14.00" fill="blue">nan</text>
<g id="a_node1_2"><a xlink:href="bogus" xlink:title="Last
Exogen">
<polygon fill="none" stroke="black" points="5,-120 5,-141 39,-141 39,-120 5,-120"/>
<text text-anchor="start" x="8" y="-126.8" font-family="Times New Roman,serif" font-size="14.00" fill="blue">Last</text>
</a>
</g>
<polygon fill="none" stroke="black" points="41,-120 41,-141 75,-141 75,-120 41,-120"/>
<text text-anchor="start" x="52" y="-126.8" font-family="Times New Roman,serif" font-size="14.00" fill="blue">nan</text>
<polygon fill="none" stroke="black" points="77,-120 77,-141 111,-141 111,-120 77,-120"/>
<text text-anchor="start" x="88" y="-126.8" font-family="Times New Roman,serif" font-size="14.00" fill="blue">nan</text>
<polygon fill="none" stroke="black" points="113,-120 113,-141 147,-141 147,-120 113,-120"/>
<text text-anchor="start" x="124" y="-126.8" font-family="Times New Roman,serif" font-size="14.00" fill="blue">nan</text>
<polygon fill="none" stroke="black" points="149,-120 149,-141 183,-141 183,-120 149,-120"/>
<text text-anchor="start" x="160" y="-126.8" font-family="Times New Roman,serif" font-size="14.00" fill="blue">nan</text>
<polygon fill="none" stroke="black" points="185,-120 185,-141 219,-141 219,-120 185,-120"/>
<text text-anchor="start" x="196" y="-126.8" font-family="Times New Roman,serif" font-size="14.00" fill="blue">nan</text>
<g id="a_node1_3"><a xlink:href="bogus" xlink:title="Diff
Exogen">
<polygon fill="none" stroke="black" points="5,-97 5,-118 39,-118 39,-97 5,-97"/>
<text text-anchor="start" x="8" y="-103.8" font-family="Times New Roman,serif" font-size="14.00" fill="blue">Diff</text>
</a>
</g>
<polygon fill="none" stroke="black" points="41,-97 41,-118 75,-118 75,-97 41,-97"/>
<text text-anchor="start" x="52" y="-103.8" font-family="Times New Roman,serif" font-size="14.00" fill="blue">nan</text>
<polygon fill="none" stroke="black" points="77,-97 77,-118 111,-118 111,-97 77,-97"/>
<text text-anchor="start" x="88" y="-103.8" font-family="Times New Roman,serif" font-size="14.00" fill="blue">nan</text>
<polygon fill="none" stroke="black" points="113,-97 113,-118 147,-118 147,-97 113,-97"/>
<text text-anchor="start" x="124" y="-103.8" font-family="Times New Roman,serif" font-size="14.00" fill="blue">nan</text>
<polygon fill="none" stroke="black" points="149,-97 149,-118 183,-118 183,-97 149,-97"/>
<text text-anchor="start" x="160" y="-103.8" font-family="Times New Roman,serif" font-size="14.00" fill="blue">nan</text>
<polygon fill="none" stroke="black" points="185,-97 185,-118 219,-118 219,-97 185,-97"/>
<text text-anchor="start" x="196" y="-103.8" font-family="Times New Roman,serif" font-size="14.00" fill="blue">nan</text>
<polygon fill="none" stroke="black" points="5,-74 5,-95 219,-95 219,-74 5,-74"/>
<text text-anchor="start" x="65.5" y="-80.8" font-family="Times New Roman,serif" font-size="14.00" fill="blue"> % Explained by</text>
<g id="a_node1_4"><a xlink:href="bogus" xlink:title="A
Exogen">
<polygon fill="none" stroke="black" points="5,-51 5,-72 39,-72 39,-51 5,-51"/>
<text text-anchor="start" x="8" y="-57.8" font-family="Times New Roman,serif" font-size="14.00" fill="blue">A</text>
</a>
</g>
<polygon fill="none" stroke="black" points="41,-51 41,-72 75,-72 75,-51 41,-51"/>
<text text-anchor="start" x="65" y="-57.8" font-family="Times New Roman,serif" font-size="14.00" fill="blue">0</text>
<polygon fill="none" stroke="black" points="77,-51 77,-72 111,-72 111,-51 77,-51"/>
<text text-anchor="start" x="101" y="-57.8" font-family="Times New Roman,serif" font-size="14.00" fill="blue">0</text>
<polygon fill="none" stroke="black" points="113,-51 113,-72 147,-72 147,-51 113,-51"/>
<text text-anchor="start" x="137" y="-57.8" font-family="Times New Roman,serif" font-size="14.00" fill="blue">0</text>
<polygon fill="none" stroke="black" points="149,-51 149,-72 183,-72 183,-51 149,-51"/>
<text text-anchor="start" x="173" y="-57.8" font-family="Times New Roman,serif" font-size="14.00" fill="blue">0</text>
<polygon fill="none" stroke="black" points="185,-51 185,-72 219,-72 219,-51 185,-51"/>
<text text-anchor="start" x="209" y="-57.8" font-family="Times New Roman,serif" font-size="14.00" fill="blue">0</text>
<g id="a_node1_5"><a xlink:href="bogus" xlink:title="X
FRML &lt;&gt; X = X(&#45;1) + A $">
<polygon fill="none" stroke="black" points="5,-28 5,-49 39,-49 39,-28 5,-28"/>
<text text-anchor="start" x="8" y="-34.8" font-family="Times New Roman,serif" font-size="14.00" fill="blue">X</text>
</a>
</g>
<polygon fill="none" stroke="black" points="41,-28 41,-49 75,-49 75,-28 41,-28"/>
<text text-anchor="start" x="65" y="-34.8" font-family="Times New Roman,serif" font-size="14.00" fill="blue">0</text>
<polygon fill="none" stroke="black" points="77,-28 77,-49 111,-49 111,-28 77,-28"/>
<text text-anchor="start" x="101" y="-34.8" font-family="Times New Roman,serif" font-size="14.00" fill="blue">0</text>
<polygon fill="none" stroke="black" points="113,-28 113,-49 147,-49 147,-28 113,-28"/>
<text text-anchor="start" x="137" y="-34.8" font-family="Times New Roman,serif" font-size="14.00" fill="blue">0</text>
<polygon fill="none" stroke="black" points="149,-28 149,-49 183,-49 183,-28 149,-28"/>
<text text-anchor="start" x="173" y="-34.8" font-family="Times New Roman,serif" font-size="14.00" fill="blue">0</text>
<polygon fill="none" stroke="black" points="185,-28 185,-49 219,-49 219,-28 185,-28"/>
<text text-anchor="start" x="209" y="-34.8" font-family="Times New Roman,serif" font-size="14.00" fill="blue">0</text>
<polygon fill="none" stroke="black" points="2,-25 2,-213 222,-213 222,-25 2,-25"/>
</g>
<!-- X&#45;&gt;X -->
<g id="edge1" class="edge"><title>X&#45;&gt;X</title>
<path fill="none" stroke="black" stroke-width="0.5" d="M76.4087,-215.058C83.0737,-225.945 94.9375,-233 112,-233 124.53,-233 134.257,-229.195 141.18,-222.862"/>
<polygon fill="black" stroke="black" stroke-width="0.5" points="143.947,-225.007 147.591,-215.058 138.539,-220.563 143.947,-225.007"/>
</g>
</g>
</svg>
