<svg xmlns="http://www.w3.org/2000/svg" xmlns:xlink="http://www.w3.org/1999/xlink" width="432pt" height="189pt" viewBox="0.00 0.00 432.00 189.16">
<g id="graph0" class="graph" transform="scale(0.167767 0.167767) rotate(0) translate(4 1123.51)">
<title>TD</title>
<polygon fill="white" stroke="none" points="-4,4 -4,-1123.51 2571,-1123.51 2571,4 -4,4"/>
<text text-anchor="middle" x="1283.5" y="-7.8" font-family="Times New Roman,serif" font-size="14.00">PAKNECONPRVTKN</text>
<!-- PAKSMSRVHSNGKN -->
<g id="node1" class="node">
<title>PAKSMSRVHSNGKN</title>
<g id="a_node1"><a xlink:title="PAKSMSRVHSNGKN
FRML  &lt;&gt; PAKSMSRVHSNGKN = ((1+0.782809577554843)*(0.0647364660896117*PAKNECONPRVTKN+0*PAKNECONGOVTKN+0.00605333595533851*PAKNEGDIFTOTKN+0.03048358523237*PAKNEEXPGNFSKN+0*PAKNEGDISTKBKN)-0.0244768173208691*PAKNEIMPGNFSKN-0.0684093628903126*PAKNYTAXNINDKN-0)/(1+0.150771193398883) $">
<polygon fill="#63b8ff" stroke="black" points="1519,-977 1374,-977 1374,-941 1519,-941 1519,-977"/>
<text text-anchor="start" x="1380.5" y="-954.8" font-family="Times New Roman,serif" font-size="14.00" fill="blue">PAKSMSRVHSNGKN:</text>
</a>
</g>
</g>
<!-- PAKNEGDETTOTKN -->
<g id="node2" class="node">
<title>PAKNEGDETTOTKN</title>
<g id="a_node2"><a xlink:title="GDE
FRML  &lt;&gt; PAKNEGDETTOTKN = (PAKNECONPRVTKN+PAKNECONGOVTKN+PAKNEGDIFTOTKN+PAKNEGDISTKBKN+PAKNYGDPDISCKN) $">
<polygon fill="#63b8ff" stroke="black" points="1531.5,-923 1361.5,-923 1361.5,-887 1531.5,-887 1531.5,-923"/>
<text text-anchor="start" x="1367.5" y="-900.8" font-family="Times New Roman,serif" font-size="14.00" fill="blue">PAKNEGDETTOTKN:GDE</text>
</a>
</g>
</g>
<!-- PAKNYWRTFORMCN -->
<g id="node3" class="node">
<title>PAKNYWRTFORMCN</title>
<g id="a_node3"><a xlink:title="Formal wage
FRML &lt;Z,EXO&gt; PAKNYWRTFORMCN = (PAKNYWRTFORMCN(-1)*EXP(-PAKNYWRTFORMCN_A+ (-0.120164450250183-0.3*(LOG(PAKNYWRTFORMCN(-1))-LOG(PAKNYGDPFCSTXN(-1))-LOG(PAKNYGDPPOTLKN(-1)/PAKLMEMPSTRLCN(-1)))+0.2*((LOG(PAKNYWRTFORMCN(-1)))-(LOG(PAKNYWRTFORMCN(-2))))+(1-0.2)*(0.5*((LOG(PAKNYGDPFCSTXN(-1)))-(LOG(PAKNYGDPFCSTXN(-2))))+0.5*(PAKINFLEXPT/100)+((LOG(PAKNYGDPMKTPKN/PAKLMEMPSTRLCN))-(LOG(PAKNYGDPMKTPKN(-1)/PAKLMEMPSTRLCN(-1)))))-0.2*(PAKLMUNRTOTLCN-PAKLMUNRSTRLCN)/100+0.15233813938029*DURING_2000-0.183411483907703*DURING_2001) )) * (1-PAKNYWRTFORMCN_D)+ PAKNYWRTFORMCN_X*PAKNYWRTFORMCN_D  $">
<polygon fill="#63b8ff" stroke="black" points="1557.5,-113 1335.5,-113 1335.5,-77 1557.5,-77 1557.5,-113"/>
<text text-anchor="start" x="1341.5" y="-90.8" font-family="Times New Roman,serif" font-size="14.00" fill="blue">PAKNYWRTFORMCN:Formal wage</text>
</a>
</g>
</g>
<!-- PAKNYWRTTOTLCN -->
<g id="node24" class="node">
<title>PAKNYWRTTOTLCN</title>
<g id="a_node24"><a xlink:title="Wages
FRML  &lt;&gt; PAKNYWRTTOTLCN = (PAKNYWBINFMSH**PAKINFCES*(PAKNYWRTINFMCN)**(1-PAKINFCES)+PAKNYWBFORMSH**PAKINFCES*(PAKNYWRTFORMCN*(1+PAKGGREVDRCTXN/100))**(1-PAKINFCES))**(1/(1-PAKINFCES)) $">
<polygon fill="#63b8ff" stroke="black" points="1929,-117 1748,-117 1748,-81 1929,-81 1929,-117"/>
<text text-anchor="start" x="1754.5" y="-94.8" font-family="Times New Roman,serif" font-size="14.00" fill="blue">PAKNYWRTTOTLCN:Wages</text>
</a>
</g>
</g>
<!-- PAKNYWRTFORMCN&#45;&gt;PAKNYWRTTOTLCN -->
<g id="edge13" class="edge">
<title>PAKNYWRTFORMCN-&gt;PAKNYWRTTOTLCN</title>
<g id="a_edge13"><a xlink:href="bogus" xlink:title=" PAKNYWRTFORMCN -&gt; PAKNYWRTTOTLCN Min. att. 21%  max: 21%">
<path fill="none" stroke="black" stroke-width="2.13" d="M1557.69,-96.13C1614.31,-96.71 1682.78,-97.41 1737.81,-97.98"/>
<polygon fill="black" stroke="black" stroke-width="2.13" points="1737.89,-101.48 1747.92,-98.08 1737.96,-94.48 1737.89,-101.48"/>
</a>
</g>
</g>
<!-- PAKNEIMPGNFSXN -->
<g id="node4" class="node">
<title>PAKNEIMPGNFSXN</title>
<g id="a_node4"><a xlink:title="Imports (G&amp;S)
FRML  &lt;&gt; PAKNEIMPGNFSXN = ((PAKNEIMPENGYSH**PAKCESENGYIMPT)*PAKNVENGNIMPXN**(1-PAKCESENGYIMPT)+(PAKNEIMPOTHRSH**PAKCESENGYIMPT)*PAKNEIMPGSNEXN**(1-PAKCESENGYIMPT))**(1/(1-PAKCESENGYIMPT)) $">
<polygon fill="#63b8ff" stroke="black" points="254.5,-849 31.5,-849 31.5,-813 254.5,-813 254.5,-849"/>
<text text-anchor="start" x="38" y="-826.8" font-family="Times New Roman,serif" font-size="14.00" fill="blue">PAKNEIMPGNFSXN:Imports (G&amp;S)</text>
</a>
</g>
</g>
<!-- PAKNECONOTHRXN -->
<g id="node15" class="node">
<title>PAKNECONOTHRXN</title>
<g id="a_node15"><a xlink:title="Non-Energy Consumption
FRML &lt;Z,EXO&gt; PAKNECONOTHRXN = (PAKNECONOTHRXN(-1)*EXP(-PAKNECONOTHRXN_A+ (0.598859116610832*((LOG(PAKNYGDPFCSTXN))-(LOG(PAKNYGDPFCSTXN(-1))))+((PAKGGREVGNFSXN/100)-(PAKGGREVGNFSXN(-1)/100))+(1-0.598859116610832)*((LOG(PAKNEIMPGNFSXN))-(LOG(PAKNEIMPGNFSXN(-1))))+0.2*PAKNYGDPGAP_/100) )) * (1-PAKNECONOTHRXN_D)+ PAKNECONOTHRXN_X*PAKNECONOTHRXN_D  $">
<polygon fill="#63b8ff" stroke="black" points="611,-849 322,-849 322,-813 611,-813 611,-849"/>
<text text-anchor="start" x="328.5" y="-826.8" font-family="Times New Roman,serif" font-size="14.00" fill="blue">PAKNECONOTHRXN:Non-Energy Consumption</text>
</a>
</g>
</g>
<!-- PAKNEIMPGNFSXN&#45;&gt;PAKNECONOTHRXN -->
<g id="edge29" class="edge">
<title>PAKNEIMPGNFSXN-&gt;PAKNECONOTHRXN</title>
<g id="a_edge29"><a xlink:href="bogus" xlink:title=" PAKNEIMPGNFSXN -&gt; PAKNECONOTHRXN Min. att. -10%  max: 114%">
<path fill="none" stroke="black" stroke-width="8" d="M254.64,-831C273.05,-831 292.43,-831 311.68,-831"/>
<polygon fill="black" stroke="black" stroke-width="8" points="311.72,-838 321.72,-831 311.72,-824 311.72,-838"/>
</a>
</g>
</g>
<!-- PAKSMAGRFSNGKN -->
<g id="node5" class="node">
<title>PAKSMAGRFSNGKN</title>
<g id="a_node5"><a xlink:title="PAKSMAGRFSNGKN
FRML  &lt;&gt; PAKSMAGRFSNGKN = ((1+1.92407325889309)*(0.00246195499563977*PAKNECONPRVTKN+0*PAKNECONGOVTKN+0*PAKNEGDIFTOTKN+0.00130433854799597*PAKNEEXPGNFSKN+0.00497657560072267*PAKNEGDISTKBKN)-1.14989260682794E-05*PAKNEIMPGNFSKN-2.46467171367829E-07*PAKNYTAXNINDKN-26993)/(1+0.506095544048804) $">
<polygon fill="#63b8ff" stroke="black" points="1519,-869 1374,-869 1374,-833 1519,-833 1519,-869"/>
<text text-anchor="start" x="1380.5" y="-846.8" font-family="Times New Roman,serif" font-size="14.00" fill="blue">PAKSMAGRFSNGKN:</text>
</a>
</g>
</g>
<!-- PAKNECONOTHRKN -->
<g id="node6" class="node">
<title>PAKNECONOTHRKN</title>
<g id="a_node6"><a xlink:title="Other Consumption
FRML  &lt;&gt; PAKNECONOTHRKN = PAKNECONOTHRSH**(PAKCESENGYCON)*(PAKNECONPRVTKN*(PAKNECONPRVTXN/PAKNECONOTHRXN)**(PAKCESENGYCON)) $">
<polygon fill="#63b8ff" stroke="black" points="1573,-815 1320,-815 1320,-779 1573,-779 1573,-815"/>
<text text-anchor="start" x="1326.5" y="-792.8" font-family="Times New Roman,serif" font-size="14.00" fill="blue">PAKNECONOTHRKN:Other Consumption</text>
</a>
</g>
</g>
<!-- PAKSMAGRCRPSKN -->
<g id="node7" class="node">
<title>PAKSMAGRCRPSKN</title>
<g id="a_node7"><a xlink:title="PAKSMAGRCRPSKN
FRML  &lt;&gt; PAKSMAGRCRPSKN = ((1+2.09928590574241)*(0.144287620838506*PAKNECONPRVTKN+0*PAKNECONGOVTKN+0*PAKNEGDIFTOTKN+0.0572678299039023*PAKNEEXPGNFSKN+0.267381669083985*PAKNEGDISTKBKN)-0.0736247088197363*PAKNEIMPGNFSKN-0.0407034395686347*PAKNYTAXNINDKN-906311)/(1+0.396041694659877) $">
<polygon fill="#63b8ff" stroke="black" points="1518.5,-761 1374.5,-761 1374.5,-725 1518.5,-725 1518.5,-761"/>
<text text-anchor="start" x="1380.5" y="-738.8" font-family="Times New Roman,serif" font-size="14.00" fill="blue">PAKSMAGRCRPSKN:</text>
</a>
</g>
</g>
<!-- PAKNECONPRVTKN_FITTED -->
<g id="node8" class="node">
<title>PAKNECONPRVTKN_FITTED</title>
<g id="a_node8"><a xlink:title="Fitted  value:Household Consumption
FRML &lt;FIT&gt; PAKNECONPRVTKN_FITTED = PAKNECONPRVTKN(-1)*EXP( (-0.2*(LOG(PAKNECONPRVTKN(-1))-LOG((PAKNYYWBTOTLCN(-1)*(1-PAKGGREVDRCTXN(-1)/100))/PAKNECONPRVTXN(-1)))+1*((LOG((PAKNYYWBTOTLCN*(1-PAKGGREVDRCTXN/100))/PAKNECONPRVTXN))-(LOG((PAKNYYWBTOTLCN(-1)*(1-PAKGGREVDRCTXN(-1)/100))/PAKNECONPRVTXN(-1))))+0.0303228629698929+0.0163839011059956*DURING_2010-0.3*(PAKFMLBLPOLYXN/100-((LOG(PAKNECONPRVTXN))-(LOG(PAKNECONPRVTXN(-1)))))) ) $">
<polygon fill="#63b8ff" stroke="black" points="1648,-707 1245,-707 1245,-671 1648,-671 1648,-707"/>
<text text-anchor="start" x="1251.5" y="-684.8" font-family="Times New Roman,serif" font-size="14.00" fill="blue">PAKNECONPRVTKN_FITTED:Fitted  value:Household Consumption</text>
</a>
</g>
</g>
<!-- PAKSMINDMNGSKN -->
<g id="node9" class="node">
<title>PAKSMINDMNGSKN</title>
<g id="a_node9"><a xlink:title="PAKSMINDMNGSKN
FRML  &lt;&gt; PAKSMINDMNGSKN = ((1+6.96158341862144)*(0.0132800565666619*PAKNECONPRVTKN+0*PAKNECONGOVTKN+0*PAKNEGDIFTOTKN+0.00704674623894759*PAKNEEXPGNFSKN+0.024122890632682*PAKNEGDISTKBKN)-0.134221966110302*PAKNEIMPGNFSKN-0.500981557895139*PAKNYTAXNINDKN-123652.869264758)/(1+0.200800622280983) $">
<polygon fill="#63b8ff" stroke="black" points="1519.5,-653 1373.5,-653 1373.5,-617 1519.5,-617 1519.5,-653"/>
<text text-anchor="start" x="1379.5" y="-630.8" font-family="Times New Roman,serif" font-size="14.00" fill="blue">PAKSMINDMNGSKN:</text>
</a>
</g>
</g>
<!-- PAKSMENGTOTLKN -->
<g id="node10" class="node">
<title>PAKSMENGTOTLKN</title>
<g id="a_node10"><a xlink:title="PAKSMENGTOTLKN
FRML  &lt;&gt; PAKSMENGTOTLKN = ((1+1.65868473220397)*(0.0775261497897936*PAKNECONPRVTKN+0*PAKNECONGOVTKN+0*PAKNEGDIFTOTKN+0.0217448978257548*PAKNEEXPGNFSKN+0.0458991644104248*PAKNEGDISTKBKN)-0.11894699850705*PAKNEIMPGNFSKN--0.50579180838529*PAKNYTAXNINDKN-0)/(1+5.65663938581514) $">
<polygon fill="#63b8ff" stroke="black" points="1519,-599 1374,-599 1374,-563 1519,-563 1519,-599"/>
<text text-anchor="start" x="1380.5" y="-576.8" font-family="Times New Roman,serif" font-size="14.00" fill="blue">PAKSMENGTOTLKN:</text>
</a>
</g>
</g>
<!-- PAKNYYWBTOTLCN -->
<g id="node11" class="node">
<title>PAKNYYWBTOTLCN</title>
<g id="a_node11"><a xlink:title="Economy-wide wage bill
FRML  &lt;&gt; PAKNYYWBTOTLCN = PAKNYWRTTOTLCN*PAKLMEMPTOTLCN $">
<polygon fill="#63b8ff" stroke="black" points="2567,-200 2282,-200 2282,-164 2567,-164 2567,-200"/>
<text text-anchor="start" x="2288.5" y="-177.8" font-family="Times New Roman,serif" font-size="14.00" fill="blue">PAKNYYWBTOTLCN:Economy-wide wage bill</text>
</a>
</g>
</g>
<!-- PAKNECONPRVTKN -->
<g id="node16" class="node">
<title>PAKNECONPRVTKN</title>
<g id="a_node16"><a xlink:title="Household Consumption
FRML &lt;Z,EXO&gt; PAKNECONPRVTKN = (PAKNECONPRVTKN(-1)*EXP(-PAKNECONPRVTKN_A+ (-0.2*(LOG(PAKNECONPRVTKN(-1))-LOG((PAKNYYWBTOTLCN(-1)*(1-PAKGGREVDRCTXN(-1)/100))/PAKNECONPRVTXN(-1)))+1*((LOG((PAKNYYWBTOTLCN*(1-PAKGGREVDRCTXN/100))/PAKNECONPRVTXN))-(LOG((PAKNYYWBTOTLCN(-1)*(1-PAKGGREVDRCTXN(-1)/100))/PAKNECONPRVTXN(-1))))+0.0303228629698929+0.0163839011059956*DURING_2010-0.3*(PAKFMLBLPOLYXN/100-((LOG(PAKNECONPRVTXN))-(LOG(PAKNECONPRVTXN(-1)))))) )) * (1-PAKNECONPRVTKN_D)+ PAKNECONPRVTKN_X*PAKNECONPRVTKN_D  $">
<polygon fill="red" stroke="black" points="1209,-680 931,-680 931,-644 1209,-644 1209,-680"/>
<text text-anchor="start" x="937" y="-657.8" font-family="Times New Roman,serif" font-size="14.00" fill="blue">PAKNECONPRVTKN:Household Consumption</text>
</a>
</g>
</g>
<!-- PAKNYYWBTOTLCN&#45;&gt;PAKNECONPRVTKN -->
<g id="edge2" class="edge">
<title>PAKNYYWBTOTLCN-&gt;PAKNECONPRVTKN</title>
<g id="a_edge2"><a xlink:href="bogus" xlink:title=" PAKNYYWBTOTLCN -&gt; PAKNECONPRVTKN Min. att. -594%  max: 5821%">
<path fill="none" stroke="black" stroke-width="8" d="M2422.64,-200.3C2416.93,-313.3 2380.44,-914.95 2246,-1024 2073.23,-1164.14 1427.13,-1140.74 1245,-1013 1208.37,-987.31 1227.62,-959.68 1209,-919 1169.56,-832.84 1114.05,-735.34 1087.03,-689.1"/>
<polygon fill="black" stroke="black" stroke-width="8" points="1092.97,-685.38 1081.87,-680.29 1080.89,-692.46 1092.97,-685.38"/>
</a>
</g>
</g>
<!-- PAKNYGDPFCSTXN -->
<g id="node12" class="node">
<title>PAKNYGDPFCSTXN</title>
<g id="a_node12"><a xlink:title="GDP at factor cost
FRML &lt;Z,EXO&gt; PAKNYGDPFCSTXN = (PAKNYGDPFCSTXN(-1)*EXP(-PAKNYGDPFCSTXN_A+ (0.6*((LOG(PAKNYGDPFCSTXN(-1)))-(LOG(PAKNYGDPFCSTXN(-2))))+(1-0.6)*(0.7*PAKINFLEXPT/100+(1-0.7)*((LOG(PAKPSTAR(-1)))-(LOG(PAKPSTAR(-2)))))+0.25*PAKNYGDPGAP_/100+0.262461811660072*DURING_2000-0.205776950553378*DURING_2001) )) * (1-PAKNYGDPFCSTXN_D)+ PAKNYGDPFCSTXN_X*PAKNYGDPFCSTXN_D  $">
<polygon fill="#63b8ff" stroke="black" points="1959.5,-213 1717.5,-213 1717.5,-177 1959.5,-177 1959.5,-213"/>
<text text-anchor="start" x="1723.5" y="-190.8" font-family="Times New Roman,serif" font-size="14.00" fill="blue">PAKNYGDPFCSTXN:GDP at factor cost</text>
</a>
</g>
</g>
<!-- PAKLMEMPTOTLCN -->
<g id="node29" class="node">
<title>PAKLMEMPTOTLCN</title>
<g id="a_node29"><a xlink:title="Employment
FRML &lt;Z,EXO&gt; PAKLMEMPTOTLCN = (PAKLMEMPTOTLCN(-1)*EXP(-PAKLMEMPTOTLCN_A+ (-0.345624644563667*(LOG(PAKLMEMPTOTLCN(-1))-LOG(PAKLMEMPSTRLCN(-1)))-0.1*(((LOG(PAKNYWRTTOTLCN/PAKNYGDPFCSTXN))-(LOG(PAKNYWRTTOTLCN(-1)/PAKNYGDPFCSTXN(-1))))-((LOG(PAKNYGDPPOTLKN/PAKLMEMPSTRLCN))-(LOG(PAKNYGDPPOTLKN(-1)/PAKLMEMPSTRLCN(-1)))))-0.0011790007645121+((LOG(PAKLMEMPSTRLCN))-(LOG(PAKLMEMPSTRLCN(-1))))+0.175412878170024*PAKNYGDPGAP_/100+0.0369790799942338*DURING_2010) )) * (1-PAKLMEMPTOTLCN_D)+ PAKLMEMPTOTLCN_X*PAKLMEMPTOTLCN_D  $">
<polygon fill="#63b8ff" stroke="black" points="2246,-200 2029,-200 2029,-164 2246,-164 2246,-200"/>
<text text-anchor="start" x="2035.5" y="-177.8" font-family="Times New Roman,serif" font-size="14.00" fill="blue">PAKLMEMPTOTLCN:Employment</text>
</a>
</g>
</g>
<!-- PAKNYGDPFCSTXN&#45;&gt;PAKLMEMPTOTLCN -->
<g id="edge32" class="edge">
<title>PAKNYGDPFCSTXN-&gt;PAKLMEMPTOTLCN</title>
<g id="a_edge32"><a xlink:href="bogus" xlink:title=" PAKNYGDPFCSTXN -&gt; PAKLMEMPTOTLCN Min. att. -128%  max: 59%">
<path fill="none" stroke="black" stroke-width="8" d="M1959.87,-189.73C1979.32,-188.88 1999.43,-188 2018.81,-187.15"/>
<polygon fill="black" stroke="black" stroke-width="8" points="2019.18,-194.14 2028.87,-186.71 2018.57,-180.16 2019.18,-194.14"/>
</a>
</g>
</g>
<!-- PAKFMLBLPOLYXN -->
<g id="node13" class="node">
<title>PAKFMLBLPOLYXN</title>
<g id="a_node13"><a xlink:title="Policy Rate
FRML &lt;Z,EXO&gt; PAKFMLBLPOLYXN = (-100*PAKFMLBLPOLYXN_A+100* (0.905129162122953*PAKFMLBLPOLYXN(-1)/100+(1-0.905129162122953)*(PAKMPPOLNATRXN/100+1.2*(((LOG(PAKNECONPRVTXN))-(LOG(PAKNECONPRVTXN(-1))))-PAKINFLEXPT/100)+0.5*PAKNYGDPGAP_/100)) ) * (1-PAKFMLBLPOLYXN_D)+ PAKFMLBLPOLYXN_X*PAKFMLBLPOLYXN_D  $">
<polygon fill="#63b8ff" stroke="black" points="2240,-1015 2035,-1015 2035,-979 2240,-979 2240,-1015"/>
<text text-anchor="start" x="2041.5" y="-992.8" font-family="Times New Roman,serif" font-size="14.00" fill="blue">PAKFMLBLPOLYXN:Policy Rate</text>
</a>
</g>
</g>
<!-- PAKFMLBLPOLYXN&#45;&gt;PAKNECONPRVTKN -->
<g id="edge1" class="edge">
<title>PAKFMLBLPOLYXN-&gt;PAKNECONPRVTKN</title>
<g id="a_edge1"><a xlink:href="bogus" xlink:title=" PAKFMLBLPOLYXN -&gt; PAKNECONPRVTKN Min. att. -160%  max: 20%">
<path fill="none" stroke="black" stroke-width="8" d="M2034.63,-1001.5C1814.92,-1010.37 1310.97,-1026.01 1245,-986 1134.85,-919.2 1090.24,-756.43 1076.29,-690.47"/>
<polygon fill="black" stroke="black" stroke-width="8" points="1083.09,-688.79 1074.24,-680.38 1069.37,-691.58 1083.09,-688.79"/>
</a>
</g>
</g>
<!-- PAKNECONENGYXN -->
<g id="node14" class="node">
<title>PAKNECONENGYXN</title>
<g id="a_node14"><a xlink:title="Energy Consumption
FRML &lt;Z,EXO&gt; PAKNECONENGYXN = (PAKNECONENGYXN(-1)*EXP(-PAKNECONENGYXN_A+ (((LOG(PAKNECONENGYGN))-(LOG(PAKNECONENGYGN(-1))))+0.0550557534575806*DUMH) )) * (1-PAKNECONENGYXN_D)+ PAKNECONENGYXN_X*PAKNECONENGYXN_D  $">
<polygon fill="#63b8ff" stroke="black" points="597.5,-903 335.5,-903 335.5,-867 597.5,-867 597.5,-903"/>
<text text-anchor="start" x="341.5" y="-880.8" font-family="Times New Roman,serif" font-size="14.00" fill="blue">PAKNECONENGYXN:Energy Consumption</text>
</a>
</g>
</g>
<!-- PAKNECONPRVTXN -->
<g id="node30" class="node">
<title>PAKNECONPRVTXN</title>
<g id="a_node30"><a xlink:title="Household demand
FRML  &lt;&gt; PAKNECONPRVTXN = ((PAKNECONENGYSH**PAKCESENGYCON)*PAKNECONENGYXN**(1-PAKCESENGYCON)+(PAKNECONOTHRSH**PAKCESENGYCON)*PAKNECONOTHRXN**(1-PAKCESENGYCON))**(1/(1-PAKCESENGYCON)) $">
<polygon fill="#63b8ff" stroke="black" points="895,-876 647,-876 647,-840 895,-840 895,-876"/>
<text text-anchor="start" x="653" y="-853.8" font-family="Times New Roman,serif" font-size="14.00" fill="blue">PAKNECONPRVTXN:Household demand</text>
</a>
</g>
</g>
<!-- PAKNECONENGYXN&#45;&gt;PAKNECONPRVTXN -->
<g id="edge5" class="edge">
<title>PAKNECONENGYXN-&gt;PAKNECONPRVTXN</title>
<g id="a_edge5"><a xlink:href="bogus" xlink:title=" PAKNECONENGYXN -&gt; PAKNECONPRVTXN Min. att. 1%  max: 29%">
<path fill="none" stroke="black" stroke-width="2.91" d="M597.54,-873.39C610.43,-872.24 623.53,-871.07 636.45,-869.92"/>
<polygon fill="black" stroke="black" stroke-width="2.91" points="637.12,-873.37 646.77,-869 636.5,-866.4 637.12,-873.37"/>
</a>
</g>
</g>
<!-- PAKNECONOTHRXN&#45;&gt;PAKNECONPRVTXN -->
<g id="edge24" class="edge">
<title>PAKNECONOTHRXN-&gt;PAKNECONPRVTXN</title>
<g id="a_edge24"><a xlink:href="bogus" xlink:title=" PAKNECONOTHRXN -&gt; PAKNECONPRVTXN Min. att. 71%  max: 99%">
<path fill="none" stroke="black" stroke-width="8" d="M611.22,-843.83C619.67,-844.58 628.16,-845.34 636.57,-846.09"/>
<polygon fill="black" stroke="black" stroke-width="8" points="636.2,-853.09 646.78,-847 637.44,-839.14 636.2,-853.09"/>
</a>
</g>
</g>
<!-- PAKNECONPRVTKN&#45;&gt;PAKSMSRVHSNGKN -->
<g id="edge23" class="edge">
<title>PAKNECONPRVTKN-&gt;PAKSMSRVHSNGKN</title>
<g id="a_edge23"><a xlink:href="bogus" xlink:title=" PAKNECONPRVTKN -&gt; PAKSMSRVHSNGKN Min. att. 34%  max: 147%">
<path fill="none" stroke="black" stroke-width="8" d="M1076.73,-680.36C1093.42,-730.43 1147.1,-869.79 1245,-932 1279.83,-954.13 1324.93,-961.64 1363.53,-963.28"/>
<polygon fill="black" stroke="black" stroke-width="8" points="1363.5,-970.28 1373.71,-963.58 1363.92,-956.29 1363.5,-970.28"/>
</a>
</g>
</g>
<!-- PAKNECONPRVTKN&#45;&gt;PAKNEGDETTOTKN -->
<g id="edge15" class="edge">
<title>PAKNECONPRVTKN-&gt;PAKNEGDETTOTKN</title>
<g id="a_edge15"><a xlink:href="bogus" xlink:title=" PAKNECONPRVTKN -&gt; PAKNEGDETTOTKN Min. att. -2284%  max: 2484%">
<path fill="none" stroke="black" stroke-width="8" d="M1079.49,-680.08C1100.62,-722.83 1160.05,-830.12 1245,-878 1276.75,-895.89 1315.7,-903.72 1350.79,-906.7"/>
<polygon fill="black" stroke="black" stroke-width="8" points="1350.58,-913.7 1361.06,-907.44 1351.6,-899.74 1350.58,-913.7"/>
</a>
</g>
</g>
<!-- PAKNECONPRVTKN&#45;&gt;PAKSMAGRFSNGKN -->
<g id="edge8" class="edge">
<title>PAKNECONPRVTKN-&gt;PAKSMAGRFSNGKN</title>
<g id="a_edge8"><a xlink:href="bogus" xlink:title=" PAKNECONPRVTKN -&gt; PAKSMAGRFSNGKN Min. att. -29%  max: 170%">
<path fill="none" stroke="black" stroke-width="8" d="M1084.14,-680.15C1110.34,-714.77 1172.8,-789.85 1245,-824 1281.57,-841.3 1325.81,-848.49 1363.43,-851.18"/>
<polygon fill="black" stroke="black" stroke-width="8" points="1363.44,-858.19 1373.85,-851.82 1364.3,-844.22 1363.44,-858.19"/>
</a>
</g>
</g>
<!-- PAKNECONPRVTKN&#45;&gt;PAKNECONOTHRKN -->
<g id="edge6" class="edge">
<title>PAKNECONPRVTKN-&gt;PAKNECONOTHRKN</title>
<g id="a_edge6"><a xlink:href="bogus" xlink:title=" PAKNECONPRVTKN -&gt; PAKNECONOTHRKN Min. att. -12063%  max: 323%">
<path fill="none" stroke="black" stroke-width="8" d="M1093.03,-680.01C1124.58,-704.76 1185.44,-748.62 1245,-770 1265.43,-777.33 1287.67,-782.7 1309.67,-786.62"/>
<polygon fill="black" stroke="black" stroke-width="8" points="1308.72,-793.56 1319.75,-788.32 1311.05,-779.76 1308.72,-793.56"/>
</a>
</g>
</g>
<!-- PAKNECONPRVTKN&#45;&gt;PAKSMAGRCRPSKN -->
<g id="edge3" class="edge">
<title>PAKNECONPRVTKN-&gt;PAKSMAGRCRPSKN</title>
<g id="a_edge3"><a xlink:href="bogus" xlink:title=" PAKNECONPRVTKN -&gt; PAKSMAGRCRPSKN Min. att. -25%  max: 208%">
<path fill="none" stroke="black" stroke-width="8" d="M1121.41,-680.1C1155.83,-691.85 1202.69,-706.65 1245,-716 1283.87,-724.59 1327.63,-730.86 1364.32,-735.19"/>
<polygon fill="black" stroke="black" stroke-width="8" points="1363.74,-742.17 1374.47,-736.36 1365.34,-728.26 1363.74,-742.17"/>
</a>
</g>
</g>
<!-- PAKNECONPRVTKN&#45;&gt;PAKNECONPRVTKN_FITTED -->
<g id="edge22" class="edge">
<title>PAKNECONPRVTKN-&gt;PAKNECONPRVTKN_FITTED</title>
<g id="a_edge22"><a xlink:href="bogus" xlink:title=" PAKNECONPRVTKN -&gt; PAKNECONPRVTKN_FITTED Min. att. -786%  max: 175%">
<path fill="none" stroke="black" stroke-width="8" d="M1209.12,-671.96C1217.51,-672.56 1226.04,-673.18 1234.64,-673.8"/>
<polygon fill="black" stroke="black" stroke-width="8" points="1234.29,-680.79 1244.76,-674.53 1235.29,-666.83 1234.29,-680.79"/>
</a>
</g>
</g>
<!-- PAKNECONPRVTKN&#45;&gt;PAKSMINDMNGSKN -->
<g id="edge4" class="edge">
<title>PAKNECONPRVTKN-&gt;PAKSMINDMNGSKN</title>
<g id="a_edge4"><a xlink:href="bogus" xlink:title=" PAKNECONPRVTKN -&gt; PAKSMINDMNGSKN Min. att. -1229%  max: 1716%">
<path fill="none" stroke="black" stroke-width="8" d="M1209.12,-652.04C1260.96,-648.3 1318.21,-644.18 1363.38,-640.92"/>
<polygon fill="black" stroke="black" stroke-width="8" points="1363.95,-647.9 1373.42,-640.2 1362.94,-633.93 1363.95,-647.9"/>
</a>
</g>
</g>
<!-- PAKNECONPRVTKN&#45;&gt;PAKSMENGTOTLKN -->
<g id="edge14" class="edge">
<title>PAKNECONPRVTKN-&gt;PAKSMENGTOTLKN</title>
<g id="a_edge14"><a xlink:href="bogus" xlink:title=" PAKNECONPRVTKN -&gt; PAKSMENGTOTLKN Min. att. -14%  max: 2186%">
<path fill="none" stroke="black" stroke-width="8" d="M1121.41,-643.9C1155.83,-632.15 1202.69,-617.35 1245,-608 1283.56,-599.48 1326.92,-593.24 1363.43,-588.91"/>
<polygon fill="black" stroke="black" stroke-width="8" points="1364.41,-595.85 1373.54,-587.75 1362.8,-581.94 1364.41,-595.85"/>
</a>
</g>
</g>
<!-- PAKSMSRVFINSKN -->
<g id="node17" class="node">
<title>PAKSMSRVFINSKN</title>
<g id="a_node17"><a xlink:title="PAKSMSRVFINSKN
FRML  &lt;&gt; PAKSMSRVFINSKN = ((1+1.04148314760779)*(0.0520379651885469*PAKNECONPRVTKN+0*PAKNECONGOVTKN+0*PAKNEGDIFTOTKN+0.00879145012359898*PAKNEEXPGNFSKN+0*PAKNEGDISTKBKN)-0.00594416979264236*PAKNEIMPGNFSKN-0.000103762679145856*PAKNYTAXNINDKN-0)/(1+0.24687745523084) $">
<polygon fill="#63b8ff" stroke="black" points="1515,-545 1378,-545 1378,-509 1515,-509 1515,-545"/>
<text text-anchor="start" x="1384.5" y="-522.8" font-family="Times New Roman,serif" font-size="14.00" fill="blue">PAKSMSRVFINSKN:</text>
</a>
</g>
</g>
<!-- PAKNECONPRVTKN&#45;&gt;PAKSMSRVFINSKN -->
<g id="edge31" class="edge">
<title>PAKNECONPRVTKN-&gt;PAKSMSRVFINSKN</title>
<g id="a_edge31"><a xlink:href="bogus" xlink:title=" PAKNECONPRVTKN -&gt; PAKSMSRVFINSKN Min. att. -104%  max: 125%">
<path fill="none" stroke="black" stroke-width="8" d="M1093.03,-643.99C1124.58,-619.24 1185.44,-575.38 1245,-554 1284.15,-539.95 1329.98,-533.12 1367.93,-529.84"/>
<polygon fill="black" stroke="black" stroke-width="8" points="1368.5,-536.81 1377.91,-529.04 1367.38,-522.86 1368.5,-536.81"/>
</a>
</g>
</g>
<!-- PAKNECONENGYKN -->
<g id="node19" class="node">
<title>PAKNECONENGYKN</title>
<g id="a_node19"><a xlink:title="Energy Consumption
FRML  &lt;&gt; PAKNECONENGYKN = PAKNECONENGYSH**(PAKCESENGYCON)*(PAKNECONPRVTKN*(PAKNECONPRVTXN/PAKNECONENGYXN)**(PAKCESENGYCON)) $">
<polygon fill="#63b8ff" stroke="black" points="1577.5,-491 1315.5,-491 1315.5,-455 1577.5,-455 1577.5,-491"/>
<text text-anchor="start" x="1321.5" y="-468.8" font-family="Times New Roman,serif" font-size="14.00" fill="blue">PAKNECONENGYKN:Energy Consumption</text>
</a>
</g>
</g>
<!-- PAKNECONPRVTKN&#45;&gt;PAKNECONENGYKN -->
<g id="edge16" class="edge">
<title>PAKNECONPRVTKN-&gt;PAKNECONENGYKN</title>
<g id="a_edge16"><a xlink:href="bogus" xlink:title=" PAKNECONPRVTKN -&gt; PAKNECONENGYKN Min. att. -699%  max: 3890%">
<path fill="none" stroke="black" stroke-width="8" d="M1084.14,-643.85C1110.34,-609.23 1172.8,-534.15 1245,-500 1263.78,-491.12 1284.58,-484.9 1305.46,-480.59"/>
<polygon fill="black" stroke="black" stroke-width="8" points="1306.89,-487.44 1315.39,-478.68 1304.24,-473.7 1306.89,-487.44"/>
</a>
</g>
</g>
<!-- PAKSMAGRFSTYKN -->
<g id="node21" class="node">
<title>PAKSMAGRFSTYKN</title>
<g id="a_node21"><a xlink:title="PAKSMAGRFSTYKN
FRML  &lt;&gt; PAKSMAGRFSTYKN = ((1+0.195965019358753)*(0.010131919293849*PAKNECONPRVTKN+0*PAKNECONGOVTKN+0*PAKNEGDIFTOTKN+0.000136733767007103*PAKNEEXPGNFSKN+0.0199955288980741*PAKNEGDISTKBKN)-0.00076829563200478*PAKNEIMPGNFSKN-0.00172030587371022*PAKNYTAXNINDKN-65421)/(1+0.319587584852584) $">
<polygon fill="#63b8ff" stroke="black" points="1518.5,-437 1374.5,-437 1374.5,-401 1518.5,-401 1518.5,-437"/>
<text text-anchor="start" x="1380.5" y="-414.8" font-family="Times New Roman,serif" font-size="14.00" fill="blue">PAKSMAGRFSTYKN:</text>
</a>
</g>
</g>
<!-- PAKNECONPRVTKN&#45;&gt;PAKSMAGRFSTYKN -->
<g id="edge25" class="edge">
<title>PAKNECONPRVTKN-&gt;PAKSMAGRFSTYKN</title>
<g id="a_edge25"><a xlink:href="bogus" xlink:title=" PAKNECONPRVTKN -&gt; PAKSMAGRFSTYKN Min. att. 96%  max: 371%">
<path fill="none" stroke="black" stroke-width="8" d="M1079.49,-643.92C1100.62,-601.17 1160.05,-493.88 1245,-446 1280.81,-425.81 1325.79,-418.44 1364.06,-416.39"/>
<polygon fill="black" stroke="black" stroke-width="8" points="1364.46,-423.38 1374.15,-415.96 1363.86,-409.39 1364.46,-423.38"/>
</a>
</g>
</g>
<!-- PAKNYGDPMKTPKN -->
<g id="node22" class="node">
<title>PAKNYGDPMKTPKN</title>
<g id="a_node22"><a xlink:title="GDP Expenditure side at market prices
FRML  &lt;&gt; PAKNYGDPMKTPKN = PAKNECONPRVTKN+PAKNECONGOVTKN+PAKNEGDIFTOTKN+PAKNEGDISTKBKN+PAKNEEXPGNFSKN-PAKNEIMPGNFSKN+PAKNYGDPDISCKN+PAKADAP*PAKDISPREPKN $">
<polygon fill="#63b8ff" stroke="black" points="1627,-383 1266,-383 1266,-347 1627,-347 1627,-383"/>
<text text-anchor="start" x="1272.5" y="-360.8" font-family="Times New Roman,serif" font-size="14.00" fill="blue">PAKNYGDPMKTPKN:GDP Expenditure side at market prices</text>
</a>
</g>
</g>
<!-- PAKNECONPRVTKN&#45;&gt;PAKNYGDPMKTPKN -->
<g id="edge34" class="edge">
<title>PAKNECONPRVTKN-&gt;PAKNYGDPMKTPKN</title>
<g id="a_edge34"><a xlink:href="bogus" xlink:title=" PAKNECONPRVTKN -&gt; PAKNYGDPMKTPKN Min. att. -1557%  max: 290%">
<path fill="none" stroke="black" stroke-width="8" d="M1076.73,-643.64C1093.42,-593.57 1147.1,-454.21 1245,-392 1248.67,-389.67 1252.45,-387.5 1256.33,-385.48"/>
<polygon fill="black" stroke="black" stroke-width="8" points="1259.56,-391.69 1265.53,-381.05 1253.49,-379.08 1259.56,-391.69"/>
</a>
</g>
</g>
<!-- PAKNECONPRVTCN -->
<g id="node23" class="node">
<title>PAKNECONPRVTCN</title>
<g id="a_node23"><a xlink:title="Household demand
FRML  &lt;&gt; PAKNECONPRVTCN = PAKNECONPRVTKN*PAKNECONPRVTXN $">
<polygon fill="#63b8ff" stroke="black" points="1570,-329 1323,-329 1323,-293 1570,-293 1570,-329"/>
<text text-anchor="start" x="1329.5" y="-306.8" font-family="Times New Roman,serif" font-size="14.00" fill="blue">PAKNECONPRVTCN:Household demand</text>
</a>
</g>
</g>
<!-- PAKNECONPRVTKN&#45;&gt;PAKNECONPRVTCN -->
<g id="edge12" class="edge">
<title>PAKNECONPRVTKN-&gt;PAKNECONPRVTCN</title>
<g id="a_edge12"><a xlink:href="bogus" xlink:title=" PAKNECONPRVTKN -&gt; PAKNECONPRVTCN Min. att. -720%  max: 6450%">
<path fill="none" stroke="black" stroke-width="8" d="M1074.7,-643.81C1087.21,-587.51 1133.48,-415.27 1245,-338 1264.98,-324.16 1288.82,-315.82 1312.96,-311.03"/>
<polygon fill="black" stroke="black" stroke-width="8" points="1314.33,-317.9 1322.94,-309.25 1311.87,-304.12 1314.33,-317.9"/>
</a>
</g>
</g>
<!-- PAKSMINDOTHRTKN -->
<g id="node25" class="node">
<title>PAKSMINDOTHRTKN</title>
<g id="a_node25"><a xlink:title="PAKSMINDOTHRTKN
FRML  &lt;&gt; PAKSMINDOTHRTKN = ((1+0.483473985412524)*(0.40172973397176*PAKNECONPRVTKN+0*PAKNECONGOVTKN+0.560459287907094*PAKNEGDIFTOTKN+0.719299486591763*PAKNEEXPGNFSKN+0.620970563578771*PAKNEGDISTKBKN)-0.606734386430279*PAKNEIMPGNFSKN-0.866045585295928*PAKNYTAXNINDKN-2983275.63714814)/(1+2.46379868577176) $">
<polygon fill="#63b8ff" stroke="black" points="1522,-275 1371,-275 1371,-239 1522,-239 1522,-275"/>
<text text-anchor="start" x="1377.5" y="-252.8" font-family="Times New Roman,serif" font-size="14.00" fill="blue">PAKSMINDOTHRTKN:</text>
</a>
</g>
</g>
<!-- PAKNECONPRVTKN&#45;&gt;PAKSMINDOTHRTKN -->
<g id="edge18" class="edge">
<title>PAKNECONPRVTKN-&gt;PAKSMINDOTHRTKN</title>
<g id="a_edge18"><a xlink:href="bogus" xlink:title=" PAKNECONPRVTKN -&gt; PAKSMINDOTHRTKN Min. att. -11779%  max: 971%">
<path fill="none" stroke="black" stroke-width="8" d="M1073.23,-643.99C1081.92,-582.09 1119.52,-376.77 1245,-284 1277.8,-259.75 1322.09,-251.95 1360.71,-250.66"/>
<polygon fill="black" stroke="black" stroke-width="8" points="1361.05,-257.65 1370.91,-250.46 1360.78,-243.65 1361.05,-257.65"/>
</a>
</g>
</g>
<!-- PAKSMSRVTRNSKN -->
<g id="node26" class="node">
<title>PAKSMSRVTRNSKN</title>
<g id="a_node26"><a xlink:title="PAKSMSRVTRNSKN
FRML  &lt;&gt; PAKSMSRVTRNSKN = ((1+0.301074862860981)*(0.204687752761289*PAKNECONPRVTKN+0*PAKNECONGOVTKN+0*PAKNEGDIFTOTKN+0.0551862611209703*PAKNEEXPGNFSKN+0*PAKNEGDISTKBKN)--0.0392641863572605*PAKNEIMPGNFSKN-0.0174996684619017*PAKNYTAXNINDKN-0)/(1+1.11680986862739) $">
<polygon fill="#63b8ff" stroke="black" points="1517.5,-221 1375.5,-221 1375.5,-185 1517.5,-185 1517.5,-221"/>
<text text-anchor="start" x="1381.5" y="-198.8" font-family="Times New Roman,serif" font-size="14.00" fill="blue">PAKSMSRVTRNSKN:</text>
</a>
</g>
</g>
<!-- PAKNECONPRVTKN&#45;&gt;PAKSMSRVTRNSKN -->
<g id="edge21" class="edge">
<title>PAKNECONPRVTKN-&gt;PAKSMSRVTRNSKN</title>
<g id="a_edge21"><a xlink:href="bogus" xlink:title=" PAKNECONPRVTKN -&gt; PAKSMSRVTRNSKN Min. att. 87%  max: 592%">
<path fill="none" stroke="black" stroke-width="8" d="M1072.13,-643.89C1077.38,-576.48 1105.53,-338.44 1245,-230 1278.54,-203.92 1325.16,-196.46 1365,-195.84"/>
<polygon fill="black" stroke="black" stroke-width="8" points="1365.24,-202.84 1375.23,-195.83 1365.22,-188.84 1365.24,-202.84"/>
</a>
</g>
</g>
<!-- PAKNYWRTINFMCN -->
<g id="node18" class="node">
<title>PAKNYWRTINFMCN</title>
<g id="a_node18"><a xlink:title="Informal wage
FRML &lt;Z,EXO&gt; PAKNYWRTINFMCN = (PAKNYWRTINFMCN(-1)*EXP(-PAKNYWRTINFMCN_A+ (-0.122614247140616-0.3*(LOG(PAKNYWRTINFMCN(-1))-LOG(PAKNYGDPFCSTXN(-1))-LOG(PAKNYGDPPOTLKN(-1)/PAKLMEMPSTRLCN(-1)))+0.2*((LOG(PAKNYWRTINFMCN(-1)))-(LOG(PAKNYWRTINFMCN(-2))))+(1-0.2)*(0.5*((LOG(PAKNYGDPFCSTXN(-1)))-(LOG(PAKNYGDPFCSTXN(-2))))+0.5*(PAKINFLEXPT/100)+((LOG(PAKNYGDPMKTPKN/PAKLMEMPSTRLCN))-(LOG(PAKNYGDPMKTPKN(-1)/PAKLMEMPSTRLCN(-1)))))-0.2*(PAKLMUNRTOTLCN-PAKLMUNRSTRLCN)/100+0.15347529018182*DURING_2000-0.183372342445734*DURING_2001) )) * (1-PAKNYWRTINFMCN_D)+ PAKNYWRTINFMCN_X*PAKNYWRTINFMCN_D  $">
<polygon fill="#63b8ff" stroke="black" points="1559.5,-59 1333.5,-59 1333.5,-23 1559.5,-23 1559.5,-59"/>
<text text-anchor="start" x="1339.5" y="-36.8" font-family="Times New Roman,serif" font-size="14.00" fill="blue">PAKNYWRTINFMCN:Informal wage</text>
</a>
</g>
</g>
<!-- PAKNYWRTINFMCN&#45;&gt;PAKNYWRTTOTLCN -->
<g id="edge7" class="edge">
<title>PAKNYWRTINFMCN-&gt;PAKNYWRTTOTLCN</title>
<g id="a_edge7"><a xlink:href="bogus" xlink:title=" PAKNYWRTINFMCN -&gt; PAKNYWRTTOTLCN Min. att. 79%  max: 80%">
<path fill="none" stroke="black" stroke-width="7.95" d="M1559.72,-55.54C1588.52,-59.43 1619.43,-63.74 1648,-68 1677.2,-72.35 1708.87,-77.4 1737.82,-82.15"/>
<polygon fill="black" stroke="black" stroke-width="7.95" points="1736.94,-89.06 1747.93,-83.81 1739.19,-75.32 1736.94,-89.06"/>
</a>
</g>
</g>
<!-- PAKNYGDPGAP_ -->
<g id="node20" class="node">
<title>PAKNYGDPGAP_</title>
<g id="a_node20"><a xlink:title="Output Gap (% of Potential GDP)
FRML  &lt;&gt; PAKNYGDPGAP_ = ((PAKNYGDPMKTPKN/PAKNYGDPPOTLKN-1)*100) $">
<polygon fill="#63b8ff" stroke="black" points="1993,-325 1684,-325 1684,-289 1993,-289 1993,-325"/>
<text text-anchor="start" x="1690.5" y="-302.8" font-family="Times New Roman,serif" font-size="14.00" fill="blue">PAKNYGDPGAP_:Output Gap (% of Potential GDP)</text>
</a>
</g>
</g>
<!-- PAKNYGDPGAP_&#45;&gt;PAKFMLBLPOLYXN -->
<g id="edge20" class="edge">
<title>PAKNYGDPGAP_-&gt;PAKFMLBLPOLYXN</title>
<g id="a_edge20"><a xlink:href="bogus" xlink:title=" PAKNYGDPGAP_ -&gt; PAKFMLBLPOLYXN Min. att. -15%  max: 83%">
<path fill="none" stroke="black" stroke-width="8" d="M1847.29,-325.1C1887.89,-419.43 2075.25,-854.69 2124.57,-969.29"/>
<polygon fill="black" stroke="black" stroke-width="8" points="2118.27,-972.35 2128.65,-978.77 2131.13,-966.82 2118.27,-972.35"/>
</a>
</g>
</g>
<!-- PAKNYGDPGAP_&#45;&gt;PAKLMEMPTOTLCN -->
<g id="edge26" class="edge">
<title>PAKNYGDPGAP_-&gt;PAKLMEMPTOTLCN</title>
<g id="a_edge26"><a xlink:href="bogus" xlink:title=" PAKNYGDPGAP_ -&gt; PAKLMEMPTOTLCN Min. att. -362%  max: 147%">
<path fill="none" stroke="black" stroke-width="8" d="M1882.37,-288.96C1935.78,-266.48 2026.99,-228.09 2084.39,-203.93"/>
<polygon fill="black" stroke="black" stroke-width="8" points="2087.14,-210.37 2093.64,-200.04 2081.71,-197.46 2087.14,-210.37"/>
</a>
</g>
</g>
<!-- PAKNYGDPMKTPKN&#45;&gt;PAKNYGDPGAP_ -->
<g id="edge10" class="edge">
<title>PAKNYGDPMKTPKN-&gt;PAKNYGDPGAP_</title>
<g id="a_edge10"><a xlink:href="bogus" xlink:title=" PAKNYGDPMKTPKN -&gt; PAKNYGDPGAP_ Min. att. -78553%  max: 128142%">
<path fill="none" stroke="black" stroke-width="8" d="M1585.09,-347C1606.17,-344.09 1627.68,-341.03 1648,-338 1671.37,-334.52 1696.32,-330.58 1720.19,-326.72"/>
<polygon fill="black" stroke="black" stroke-width="8" points="1721.6,-333.58 1730.35,-325.07 1719.36,-319.77 1721.6,-333.58"/>
</a>
</g>
</g>
<!-- PAKNYWRTTOTLCN&#45;&gt;PAKNYYWBTOTLCN -->
<g id="edge28" class="edge">
<title>PAKNYWRTTOTLCN-&gt;PAKNYYWBTOTLCN</title>
<g id="a_edge28"><a xlink:href="bogus" xlink:title=" PAKNYWRTTOTLCN -&gt; PAKNYYWBTOTLCN Min. att. 16%  max: 106%">
<path fill="none" stroke="black" stroke-width="8" d="M1929.16,-110.98C2011.56,-122.08 2137.07,-139.21 2246,-155 2262.37,-157.37 2279.59,-159.92 2296.59,-162.47"/>
<polygon fill="black" stroke="black" stroke-width="8" points="2295.64,-169.41 2306.57,-163.98 2297.73,-155.57 2295.64,-169.41"/>
</a>
</g>
</g>
<!-- PAKNYWRTTOTLCN&#45;&gt;PAKLMEMPTOTLCN -->
<g id="edge30" class="edge">
<title>PAKNYWRTTOTLCN-&gt;PAKLMEMPTOTLCN</title>
<g id="a_edge30"><a xlink:href="bogus" xlink:title=" PAKNYWRTTOTLCN -&gt; PAKLMEMPTOTLCN Min. att. -1554%  max: 236%">
<path fill="none" stroke="black" stroke-width="8" d="M1922.29,-117.04C1945.29,-122.42 1970.2,-128.61 1993,-135 2020.31,-142.66 2050.16,-152.24 2075.53,-160.75"/>
<polygon fill="black" stroke="black" stroke-width="8" points="2073.31,-167.38 2085.02,-163.95 2077.78,-154.12 2073.31,-167.38"/>
</a>
</g>
</g>
<!-- PAKNYGDPPOTLKN -->
<g id="node27" class="node">
<title>PAKNYGDPPOTLKN</title>
<g id="a_node27"><a xlink:title="Potential GDP
FRML  &lt;&gt; PAKNYGDPPOTLKN = PAKNYGDPTFP*(PAKLMEMPSTRLCN**PAKNYYWBTOTLCN_)*(PAKNEGDIKSTKKN(-1)**(1-PAKNYYWBTOTLCN_)) $">
<polygon fill="#63b8ff" stroke="black" points="1557,-167 1336,-167 1336,-131 1557,-131 1557,-167"/>
<text text-anchor="start" x="1342.5" y="-144.8" font-family="Times New Roman,serif" font-size="14.00" fill="blue">PAKNYGDPPOTLKN:Potential GDP</text>
</a>
</g>
</g>
<!-- PAKNYGDPPOTLKN&#45;&gt;PAKNYGDPGAP_ -->
<g id="edge33" class="edge">
<title>PAKNYGDPPOTLKN-&gt;PAKNYGDPGAP_</title>
<g id="a_edge33"><a xlink:href="bogus" xlink:title=" PAKNYGDPPOTLKN -&gt; PAKNYGDPGAP_ Min. att. -129220%  max: 79383%">
<path fill="none" stroke="black" stroke-width="8" d="M1557,-148.58C1588.01,-152.37 1620.72,-160.37 1648,-176 1670.53,-188.91 1664.25,-205.15 1684,-222 1714.35,-247.89 1753.82,-269.53 1785.13,-284.5"/>
<polygon fill="black" stroke="black" stroke-width="8" points="1782.54,-291.02 1794.57,-288.93 1788.49,-278.34 1782.54,-291.02"/>
</a>
</g>
</g>
<!-- PAKNYGDPPOTLKN&#45;&gt;PAKLMEMPTOTLCN -->
<g id="edge9" class="edge">
<title>PAKNYGDPPOTLKN-&gt;PAKLMEMPTOTLCN</title>
<g id="a_edge9"><a xlink:href="bogus" xlink:title=" PAKNYGDPPOTLKN -&gt; PAKLMEMPTOTLCN Min. att. -92%  max: 605%">
<path fill="none" stroke="black" stroke-width="8" d="M1557.05,-150.81C1667.27,-153.1 1842.07,-158.02 1993,-168 2001.35,-168.55 2009.96,-169.2 2018.63,-169.91"/>
<polygon fill="black" stroke="black" stroke-width="8" points="2018.27,-176.9 2028.82,-170.76 2019.44,-162.95 2018.27,-176.9"/>
</a>
</g>
</g>
<!-- PAKNECONENGYGN -->
<g id="node28" class="node">
<title>PAKNECONENGYGN</title>
<g id="a_node28"><a xlink:title="Net consumption deflator
FRML  &lt;&gt; PAKNECONENGYGN = (PAKNVCOLPRODSH**(PAKCESENGYPROD)*(PAKNVCOLPRODGN)**(1-PAKCESENGYPROD)+PAKNVGASPRODSH**(PAKCESENGYPROD)*(PAKNVGASPRODGN)**(1-PAKCESENGYPROD)+PAKNVOILPRODSH**(PAKCESENGYPROD)*(PAKNVOILPRODGN)**(1-PAKCESENGYPROD)+PAKNVRENPRODSH**(PAKCESENGYPROD)*(PAKNVRENPRODXN)**(1-PAKCESENGYPROD))**(1/(1-PAKCESENGYPROD)) $">
<polygon fill="#63b8ff" stroke="black" points="286,-903 0,-903 0,-867 286,-867 286,-903"/>
<text text-anchor="start" x="6" y="-880.8" font-family="Times New Roman,serif" font-size="14.00" fill="blue">PAKNECONENGYGN:Net consumption deflator</text>
</a>
</g>
</g>
<!-- PAKNECONENGYGN&#45;&gt;PAKNECONENGYXN -->
<g id="edge17" class="edge">
<title>PAKNECONENGYGN-&gt;PAKNECONENGYXN</title>
<g id="a_edge17"><a xlink:href="bogus" xlink:title=" PAKNECONENGYGN -&gt; PAKNECONENGYXN Min. att. -39%  max: 100%">
<path fill="none" stroke="black" stroke-width="8" d="M286.42,-885C299.27,-885 312.29,-885 325.13,-885"/>
<polygon fill="black" stroke="black" stroke-width="8" points="325.38,-892 335.38,-885 325.38,-878 325.38,-892"/>
</a>
</g>
</g>
<!-- PAKLMEMPTOTLCN&#45;&gt;PAKNYYWBTOTLCN -->
<g id="edge19" class="edge">
<title>PAKLMEMPTOTLCN-&gt;PAKNYYWBTOTLCN</title>
<g id="a_edge19"><a xlink:href="bogus" xlink:title=" PAKLMEMPTOTLCN -&gt; PAKNYYWBTOTLCN Min. att. -6%  max: 84%">
<path fill="none" stroke="black" stroke-width="8" d="M2246.25,-182C2254.63,-182 2263.19,-182 2271.79,-182"/>
<polygon fill="black" stroke="black" stroke-width="8" points="2271.89,-189 2281.89,-182 2271.89,-175 2271.89,-189"/>
</a>
</g>
</g>
<!-- PAKNECONPRVTXN&#45;&gt;PAKFMLBLPOLYXN -->
<g id="edge11" class="edge">
<title>PAKNECONPRVTXN-&gt;PAKFMLBLPOLYXN</title>
<g id="a_edge11"><a xlink:href="bogus" xlink:title=" PAKNECONPRVTXN -&gt; PAKFMLBLPOLYXN Min. att. -94%  max: 1462%">
<path fill="none" stroke="black" stroke-width="8" d="M813.02,-876.09C893.78,-910.65 1079.91,-985.1 1245,-1013 1572.81,-1068.41 1661.68,-1048.52 1993,-1021 2005.74,-1019.94 2019.05,-1018.36 2032.2,-1016.51"/>
<polygon fill="black" stroke="black" stroke-width="8" points="2033.34,-1023.42 2042.22,-1015.05 2031.32,-1009.57 2033.34,-1023.42"/>
</a>
</g>
</g>
<!-- PAKNECONPRVTXN&#45;&gt;PAKNECONPRVTKN -->
<g id="edge27" class="edge">
<title>PAKNECONPRVTXN-&gt;PAKNECONPRVTKN</title>
<g id="a_edge27"><a xlink:href="bogus" xlink:title=" PAKNECONPRVTXN -&gt; PAKNECONPRVTKN Min. att. -5706%  max: 593%">
<path fill="none" stroke="black" stroke-width="8" d="M799.41,-839.91C853.34,-804.32 973.19,-725.23 1033.25,-685.6"/>
<polygon fill="black" stroke="black" stroke-width="8" points="1037.17,-691.39 1041.66,-680.04 1029.46,-679.71 1037.17,-691.39"/>
</a>
</g>
</g>
</g>
</svg>