<?xml version="1.0" encoding="utf-8" standalone="no"?>
<!DOCTYPE svg PUBLIC "-//W3C//DTD SVG 1.1//EN"
  "http://www.w3.org/Graphics/SVG/1.1/DTD/svg11.dtd">
<svg xmlns:xlink="http://www.w3.org/1999/xlink" width="720pt" height="432pt" viewBox="0 0 720 432" xmlns="http://www.w3.org/2000/svg" version="1.1">
 <metadata>
  <rdf:RDF xmlns:dc="http://purl.org/dc/elements/1.1/" xmlns:cc="http://creativecommons.org/ns#" xmlns:rdf="http://www.w3.org/1999/02/22-rdf-syntax-ns#">
   <cc:Work>
    <dc:type rdf:resource="http://purl.org/dc/dcmitype/StillImage"/>
    <dc:date>2023-01-10T16:31:43.219067</dc:date>
    <dc:format>image/svg+xml</dc:format>
    <dc:creator>
     <cc:Agent>
      <dc:title>Matplotlib v3.6.2, https://matplotlib.org/</dc:title>
     </cc:Agent>
    </dc:creator>
   </cc:Work>
  </rdf:RDF>
 </metadata>
 <defs>
  <style type="text/css">*{stroke-linejoin: round; stroke-linecap: butt}</style>
 </defs>
 <g id="figure_1">
  <g id="patch_1">
   <path d="M 0 432 
L 720 432 
L 720 0 
L 0 0 
z
" style="fill: #ffffff"/>
  </g>
  <g id="axes_1">
   <g id="patch_2">
    <path d="M 90 384.48 
L 648 384.48 
L 648 51.84 
L 90 51.84 
z
" style="fill: #ffffff"/>
   </g>
   <g id="matplotlib.axis_1">
    <g id="xtick_1">
     <g id="line2d_1">
      <defs>
       <path id="m07c3ad4434" d="M 0 0 
L 0 3.5 
" style="stroke: #000000; stroke-width: 0.8"/>
      </defs>
      <g>
       <use xlink:href="#m07c3ad4434" x="171.727273" y="384.48" style="stroke: #000000; stroke-width: 0.8"/>
      </g>
     </g>
     <g id="text_1">
      <!-- 2020 -->
      <g transform="translate(159.002273 399.078438) scale(0.1 -0.1)">
       <defs>
        <path id="DejaVuSans-32" d="M 1228 531 
L 3431 531 
L 3431 0 
L 469 0 
L 469 531 
Q 828 903 1448 1529 
Q 2069 2156 2228 2338 
Q 2531 2678 2651 2914 
Q 2772 3150 2772 3378 
Q 2772 3750 2511 3984 
Q 2250 4219 1831 4219 
Q 1534 4219 1204 4116 
Q 875 4013 500 3803 
L 500 4441 
Q 881 4594 1212 4672 
Q 1544 4750 1819 4750 
Q 2544 4750 2975 4387 
Q 3406 4025 3406 3419 
Q 3406 3131 3298 2873 
Q 3191 2616 2906 2266 
Q 2828 2175 2409 1742 
Q 1991 1309 1228 531 
z
" transform="scale(0.015625)"/>
        <path id="DejaVuSans-30" d="M 2034 4250 
Q 1547 4250 1301 3770 
Q 1056 3291 1056 2328 
Q 1056 1369 1301 889 
Q 1547 409 2034 409 
Q 2525 409 2770 889 
Q 3016 1369 3016 2328 
Q 3016 3291 2770 3770 
Q 2525 4250 2034 4250 
z
M 2034 4750 
Q 2819 4750 3233 4129 
Q 3647 3509 3647 2328 
Q 3647 1150 3233 529 
Q 2819 -91 2034 -91 
Q 1250 -91 836 529 
Q 422 1150 422 2328 
Q 422 3509 836 4129 
Q 1250 4750 2034 4750 
z
" transform="scale(0.015625)"/>
       </defs>
       <use xlink:href="#DejaVuSans-32"/>
       <use xlink:href="#DejaVuSans-30" x="63.623047"/>
       <use xlink:href="#DejaVuSans-32" x="127.246094"/>
       <use xlink:href="#DejaVuSans-30" x="190.869141"/>
      </g>
     </g>
    </g>
    <g id="xtick_2">
     <g id="line2d_2">
      <g>
       <use xlink:href="#m07c3ad4434" x="284.454545" y="384.48" style="stroke: #000000; stroke-width: 0.8"/>
      </g>
     </g>
     <g id="text_2">
      <!-- 2040 -->
      <g transform="translate(271.729545 399.078438) scale(0.1 -0.1)">
       <defs>
        <path id="DejaVuSans-34" d="M 2419 4116 
L 825 1625 
L 2419 1625 
L 2419 4116 
z
M 2253 4666 
L 3047 4666 
L 3047 1625 
L 3713 1625 
L 3713 1100 
L 3047 1100 
L 3047 0 
L 2419 0 
L 2419 1100 
L 313 1100 
L 313 1709 
L 2253 4666 
z
" transform="scale(0.015625)"/>
       </defs>
       <use xlink:href="#DejaVuSans-32"/>
       <use xlink:href="#DejaVuSans-30" x="63.623047"/>
       <use xlink:href="#DejaVuSans-34" x="127.246094"/>
       <use xlink:href="#DejaVuSans-30" x="190.869141"/>
      </g>
     </g>
    </g>
    <g id="xtick_3">
     <g id="line2d_3">
      <g>
       <use xlink:href="#m07c3ad4434" x="397.181818" y="384.48" style="stroke: #000000; stroke-width: 0.8"/>
      </g>
     </g>
     <g id="text_3">
      <!-- 2060 -->
      <g transform="translate(384.456818 399.078438) scale(0.1 -0.1)">
       <defs>
        <path id="DejaVuSans-36" d="M 2113 2584 
Q 1688 2584 1439 2293 
Q 1191 2003 1191 1497 
Q 1191 994 1439 701 
Q 1688 409 2113 409 
Q 2538 409 2786 701 
Q 3034 994 3034 1497 
Q 3034 2003 2786 2293 
Q 2538 2584 2113 2584 
z
M 3366 4563 
L 3366 3988 
Q 3128 4100 2886 4159 
Q 2644 4219 2406 4219 
Q 1781 4219 1451 3797 
Q 1122 3375 1075 2522 
Q 1259 2794 1537 2939 
Q 1816 3084 2150 3084 
Q 2853 3084 3261 2657 
Q 3669 2231 3669 1497 
Q 3669 778 3244 343 
Q 2819 -91 2113 -91 
Q 1303 -91 875 529 
Q 447 1150 447 2328 
Q 447 3434 972 4092 
Q 1497 4750 2381 4750 
Q 2619 4750 2861 4703 
Q 3103 4656 3366 4563 
z
" transform="scale(0.015625)"/>
       </defs>
       <use xlink:href="#DejaVuSans-32"/>
       <use xlink:href="#DejaVuSans-30" x="63.623047"/>
       <use xlink:href="#DejaVuSans-36" x="127.246094"/>
       <use xlink:href="#DejaVuSans-30" x="190.869141"/>
      </g>
     </g>
    </g>
    <g id="xtick_4">
     <g id="line2d_4">
      <g>
       <use xlink:href="#m07c3ad4434" x="509.909091" y="384.48" style="stroke: #000000; stroke-width: 0.8"/>
      </g>
     </g>
     <g id="text_4">
      <!-- 2080 -->
      <g transform="translate(497.184091 399.078438) scale(0.1 -0.1)">
       <defs>
        <path id="DejaVuSans-38" d="M 2034 2216 
Q 1584 2216 1326 1975 
Q 1069 1734 1069 1313 
Q 1069 891 1326 650 
Q 1584 409 2034 409 
Q 2484 409 2743 651 
Q 3003 894 3003 1313 
Q 3003 1734 2745 1975 
Q 2488 2216 2034 2216 
z
M 1403 2484 
Q 997 2584 770 2862 
Q 544 3141 544 3541 
Q 544 4100 942 4425 
Q 1341 4750 2034 4750 
Q 2731 4750 3128 4425 
Q 3525 4100 3525 3541 
Q 3525 3141 3298 2862 
Q 3072 2584 2669 2484 
Q 3125 2378 3379 2068 
Q 3634 1759 3634 1313 
Q 3634 634 3220 271 
Q 2806 -91 2034 -91 
Q 1263 -91 848 271 
Q 434 634 434 1313 
Q 434 1759 690 2068 
Q 947 2378 1403 2484 
z
M 1172 3481 
Q 1172 3119 1398 2916 
Q 1625 2713 2034 2713 
Q 2441 2713 2670 2916 
Q 2900 3119 2900 3481 
Q 2900 3844 2670 4047 
Q 2441 4250 2034 4250 
Q 1625 4250 1398 4047 
Q 1172 3844 1172 3481 
z
" transform="scale(0.015625)"/>
       </defs>
       <use xlink:href="#DejaVuSans-32"/>
       <use xlink:href="#DejaVuSans-30" x="63.623047"/>
       <use xlink:href="#DejaVuSans-38" x="127.246094"/>
       <use xlink:href="#DejaVuSans-30" x="190.869141"/>
      </g>
     </g>
    </g>
    <g id="xtick_5">
     <g id="line2d_5">
      <g>
       <use xlink:href="#m07c3ad4434" x="622.636364" y="384.48" style="stroke: #000000; stroke-width: 0.8"/>
      </g>
     </g>
     <g id="text_5">
      <!-- 2100 -->
      <g transform="translate(609.911364 399.078438) scale(0.1 -0.1)">
       <defs>
        <path id="DejaVuSans-31" d="M 794 531 
L 1825 531 
L 1825 4091 
L 703 3866 
L 703 4441 
L 1819 4666 
L 2450 4666 
L 2450 531 
L 3481 531 
L 3481 0 
L 794 0 
L 794 531 
z
" transform="scale(0.015625)"/>
       </defs>
       <use xlink:href="#DejaVuSans-32"/>
       <use xlink:href="#DejaVuSans-31" x="63.623047"/>
       <use xlink:href="#DejaVuSans-30" x="127.246094"/>
       <use xlink:href="#DejaVuSans-30" x="190.869141"/>
      </g>
     </g>
    </g>
   </g>
   <g id="matplotlib.axis_2">
    <g id="ytick_1">
     <g id="line2d_6">
      <defs>
       <path id="mf1112eb506" d="M 0 0 
L -3.5 0 
" style="stroke: #000000; stroke-width: 0.8"/>
      </defs>
      <g>
       <use xlink:href="#mf1112eb506" x="90" y="337.412332" style="stroke: #000000; stroke-width: 0.8"/>
      </g>
     </g>
     <g id="text_6">
      <!-- 200,000,000  -->
      <g transform="translate(16.203125 341.21155) scale(0.1 -0.1)">
       <defs>
        <path id="DejaVuSans-2c" d="M 750 794 
L 1409 794 
L 1409 256 
L 897 -744 
L 494 -744 
L 750 256 
L 750 794 
z
" transform="scale(0.015625)"/>
        <path id="DejaVuSans-20" transform="scale(0.015625)"/>
       </defs>
       <use xlink:href="#DejaVuSans-32"/>
       <use xlink:href="#DejaVuSans-30" x="63.623047"/>
       <use xlink:href="#DejaVuSans-30" x="127.246094"/>
       <use xlink:href="#DejaVuSans-2c" x="190.869141"/>
       <use xlink:href="#DejaVuSans-30" x="222.65625"/>
       <use xlink:href="#DejaVuSans-30" x="286.279297"/>
       <use xlink:href="#DejaVuSans-30" x="349.902344"/>
       <use xlink:href="#DejaVuSans-2c" x="413.525391"/>
       <use xlink:href="#DejaVuSans-30" x="445.3125"/>
       <use xlink:href="#DejaVuSans-30" x="508.935547"/>
       <use xlink:href="#DejaVuSans-30" x="572.558594"/>
       <use xlink:href="#DejaVuSans-20" x="636.181641"/>
      </g>
     </g>
    </g>
    <g id="ytick_2">
     <g id="line2d_7">
      <g>
       <use xlink:href="#mf1112eb506" x="90" y="281.412843" style="stroke: #000000; stroke-width: 0.8"/>
      </g>
     </g>
     <g id="text_7">
      <!-- 300,000,000  -->
      <g transform="translate(16.203125 285.212062) scale(0.1 -0.1)">
       <defs>
        <path id="DejaVuSans-33" d="M 2597 2516 
Q 3050 2419 3304 2112 
Q 3559 1806 3559 1356 
Q 3559 666 3084 287 
Q 2609 -91 1734 -91 
Q 1441 -91 1130 -33 
Q 819 25 488 141 
L 488 750 
Q 750 597 1062 519 
Q 1375 441 1716 441 
Q 2309 441 2620 675 
Q 2931 909 2931 1356 
Q 2931 1769 2642 2001 
Q 2353 2234 1838 2234 
L 1294 2234 
L 1294 2753 
L 1863 2753 
Q 2328 2753 2575 2939 
Q 2822 3125 2822 3475 
Q 2822 3834 2567 4026 
Q 2313 4219 1838 4219 
Q 1578 4219 1281 4162 
Q 984 4106 628 3988 
L 628 4550 
Q 988 4650 1302 4700 
Q 1616 4750 1894 4750 
Q 2613 4750 3031 4423 
Q 3450 4097 3450 3541 
Q 3450 3153 3228 2886 
Q 3006 2619 2597 2516 
z
" transform="scale(0.015625)"/>
       </defs>
       <use xlink:href="#DejaVuSans-33"/>
       <use xlink:href="#DejaVuSans-30" x="63.623047"/>
       <use xlink:href="#DejaVuSans-30" x="127.246094"/>
       <use xlink:href="#DejaVuSans-2c" x="190.869141"/>
       <use xlink:href="#DejaVuSans-30" x="222.65625"/>
       <use xlink:href="#DejaVuSans-30" x="286.279297"/>
       <use xlink:href="#DejaVuSans-30" x="349.902344"/>
       <use xlink:href="#DejaVuSans-2c" x="413.525391"/>
       <use xlink:href="#DejaVuSans-30" x="445.3125"/>
       <use xlink:href="#DejaVuSans-30" x="508.935547"/>
       <use xlink:href="#DejaVuSans-30" x="572.558594"/>
       <use xlink:href="#DejaVuSans-20" x="636.181641"/>
      </g>
     </g>
    </g>
    <g id="ytick_3">
     <g id="line2d_8">
      <g>
       <use xlink:href="#mf1112eb506" x="90" y="225.413355" style="stroke: #000000; stroke-width: 0.8"/>
      </g>
     </g>
     <g id="text_8">
      <!-- 400,000,000  -->
      <g transform="translate(16.203125 229.212573) scale(0.1 -0.1)">
       <use xlink:href="#DejaVuSans-34"/>
       <use xlink:href="#DejaVuSans-30" x="63.623047"/>
       <use xlink:href="#DejaVuSans-30" x="127.246094"/>
       <use xlink:href="#DejaVuSans-2c" x="190.869141"/>
       <use xlink:href="#DejaVuSans-30" x="222.65625"/>
       <use xlink:href="#DejaVuSans-30" x="286.279297"/>
       <use xlink:href="#DejaVuSans-30" x="349.902344"/>
       <use xlink:href="#DejaVuSans-2c" x="413.525391"/>
       <use xlink:href="#DejaVuSans-30" x="445.3125"/>
       <use xlink:href="#DejaVuSans-30" x="508.935547"/>
       <use xlink:href="#DejaVuSans-30" x="572.558594"/>
       <use xlink:href="#DejaVuSans-20" x="636.181641"/>
      </g>
     </g>
    </g>
    <g id="ytick_4">
     <g id="line2d_9">
      <g>
       <use xlink:href="#mf1112eb506" x="90" y="169.413866" style="stroke: #000000; stroke-width: 0.8"/>
      </g>
     </g>
     <g id="text_9">
      <!-- 500,000,000  -->
      <g transform="translate(16.203125 173.213085) scale(0.1 -0.1)">
       <defs>
        <path id="DejaVuSans-35" d="M 691 4666 
L 3169 4666 
L 3169 4134 
L 1269 4134 
L 1269 2991 
Q 1406 3038 1543 3061 
Q 1681 3084 1819 3084 
Q 2600 3084 3056 2656 
Q 3513 2228 3513 1497 
Q 3513 744 3044 326 
Q 2575 -91 1722 -91 
Q 1428 -91 1123 -41 
Q 819 9 494 109 
L 494 744 
Q 775 591 1075 516 
Q 1375 441 1709 441 
Q 2250 441 2565 725 
Q 2881 1009 2881 1497 
Q 2881 1984 2565 2268 
Q 2250 2553 1709 2553 
Q 1456 2553 1204 2497 
Q 953 2441 691 2322 
L 691 4666 
z
" transform="scale(0.015625)"/>
       </defs>
       <use xlink:href="#DejaVuSans-35"/>
       <use xlink:href="#DejaVuSans-30" x="63.623047"/>
       <use xlink:href="#DejaVuSans-30" x="127.246094"/>
       <use xlink:href="#DejaVuSans-2c" x="190.869141"/>
       <use xlink:href="#DejaVuSans-30" x="222.65625"/>
       <use xlink:href="#DejaVuSans-30" x="286.279297"/>
       <use xlink:href="#DejaVuSans-30" x="349.902344"/>
       <use xlink:href="#DejaVuSans-2c" x="413.525391"/>
       <use xlink:href="#DejaVuSans-30" x="445.3125"/>
       <use xlink:href="#DejaVuSans-30" x="508.935547"/>
       <use xlink:href="#DejaVuSans-30" x="572.558594"/>
       <use xlink:href="#DejaVuSans-20" x="636.181641"/>
      </g>
     </g>
    </g>
    <g id="ytick_5">
     <g id="line2d_10">
      <g>
       <use xlink:href="#mf1112eb506" x="90" y="113.414378" style="stroke: #000000; stroke-width: 0.8"/>
      </g>
     </g>
     <g id="text_10">
      <!-- 600,000,000  -->
      <g transform="translate(16.203125 117.213596) scale(0.1 -0.1)">
       <use xlink:href="#DejaVuSans-36"/>
       <use xlink:href="#DejaVuSans-30" x="63.623047"/>
       <use xlink:href="#DejaVuSans-30" x="127.246094"/>
       <use xlink:href="#DejaVuSans-2c" x="190.869141"/>
       <use xlink:href="#DejaVuSans-30" x="222.65625"/>
       <use xlink:href="#DejaVuSans-30" x="286.279297"/>
       <use xlink:href="#DejaVuSans-30" x="349.902344"/>
       <use xlink:href="#DejaVuSans-2c" x="413.525391"/>
       <use xlink:href="#DejaVuSans-30" x="445.3125"/>
       <use xlink:href="#DejaVuSans-30" x="508.935547"/>
       <use xlink:href="#DejaVuSans-30" x="572.558594"/>
       <use xlink:href="#DejaVuSans-20" x="636.181641"/>
      </g>
     </g>
    </g>
    <g id="ytick_6">
     <g id="line2d_11">
      <g>
       <use xlink:href="#mf1112eb506" x="90" y="57.414889" style="stroke: #000000; stroke-width: 0.8"/>
      </g>
     </g>
     <g id="text_11">
      <!-- 700,000,000  -->
      <g transform="translate(16.203125 61.214108) scale(0.1 -0.1)">
       <defs>
        <path id="DejaVuSans-37" d="M 525 4666 
L 3525 4666 
L 3525 4397 
L 1831 0 
L 1172 0 
L 2766 4134 
L 525 4134 
L 525 4666 
z
" transform="scale(0.015625)"/>
       </defs>
       <use xlink:href="#DejaVuSans-37"/>
       <use xlink:href="#DejaVuSans-30" x="63.623047"/>
       <use xlink:href="#DejaVuSans-30" x="127.246094"/>
       <use xlink:href="#DejaVuSans-2c" x="190.869141"/>
       <use xlink:href="#DejaVuSans-30" x="222.65625"/>
       <use xlink:href="#DejaVuSans-30" x="286.279297"/>
       <use xlink:href="#DejaVuSans-30" x="349.902344"/>
       <use xlink:href="#DejaVuSans-2c" x="413.525391"/>
       <use xlink:href="#DejaVuSans-30" x="445.3125"/>
       <use xlink:href="#DejaVuSans-30" x="508.935547"/>
       <use xlink:href="#DejaVuSans-30" x="572.558594"/>
       <use xlink:href="#DejaVuSans-20" x="636.181641"/>
      </g>
     </g>
    </g>
   </g>
   <g id="line2d_12">
    <path d="M 115.363636 367.981544 
L 121 369.36 
L 126.636364 368.410382 
L 132.272727 366.472398 
L 137.909091 359.596595 
L 143.545455 357.513509 
L 149.181818 351.911293 
L 154.818182 342.167751 
L 160.454545 337.197954 
L 166.090909 331.992246 
L 171.727273 328.421181 
L 177.363636 324.755519 
L 183 320.584749 
L 188.636364 316.074736 
L 194.272727 311.581378 
L 199.909091 307.36331 
L 205.545455 303.546436 
L 211.181818 300.17101 
L 216.818182 297.237601 
L 222.454545 294.729755 
L 228.090909 292.620886 
L 233.727273 290.875632 
L 239.363636 289.450886 
L 245 288.297774 
L 250.636364 287.364247 
L 256.272727 286.597857 
L 261.909091 285.948373 
L 267.545455 285.36994 
L 273.181818 284.822618 
L 278.818182 284.27317 
L 284.454545 283.695147 
L 290.090909 283.068439 
L 295.727273 282.378468 
L 301.363636 281.61524 
L 307 280.77239 
L 312.636364 279.846306 
L 318.272727 278.835384 
L 323.909091 277.73941 
L 329.545455 276.559074 
L 335.181818 275.295581 
L 340.818182 273.950355 
L 346.454545 272.524821 
L 352.090909 271.020244 
L 357.727273 269.437622 
L 363.363636 267.777616 
L 369 266.040519 
L 374.636364 264.226236 
L 380.272727 262.334298 
L 385.909091 260.363871 
L 391.545455 258.313789 
L 397.181818 256.182575 
L 402.818182 253.968475 
L 408.454545 251.669486 
L 414.090909 249.283379 
L 419.727273 246.807729 
L 425.363636 244.239935 
L 431 241.577237 
L 436.636364 238.816738 
L 442.272727 235.955407 
L 447.909091 232.990099 
L 453.545455 229.91756 
L 459.181818 226.734427 
L 464.818182 223.437238 
L 470.454545 220.022435 
L 476.090909 216.486362 
L 481.727273 212.825261 
L 487.363636 209.03528 
L 493 205.112461 
L 498.636364 201.052743 
L 504.272727 196.851957 
L 509.909091 192.505825 
L 515.545455 188.009953 
L 521.181818 183.359825 
L 526.818182 178.550804 
L 532.454545 173.578128 
L 538.090909 168.436899 
L 543.727273 163.122085 
L 549.363636 157.628512 
L 555 151.950862 
L 560.636364 146.083663 
L 566.272727 140.021291 
L 571.909091 133.757965 
L 577.545455 127.28773 
L 583.181818 120.604471 
L 588.818182 113.701892 
L 594.454545 106.573523 
L 600.090909 99.212704 
L 605.727273 91.612587 
L 611.363636 83.766126 
L 617 75.666075 
L 622.636364 67.304978 
" clip-path="url(#p1dd17a6c02)" style="fill: none; stroke: #1f77b4; stroke-width: 3; stroke-linecap: square"/>
   </g>
   <g id="line2d_13">
    <path d="M 115.363636 367.981544 
L 121 369.36 
L 126.636364 368.410382 
L 132.272727 366.472398 
L 137.909091 359.596595 
L 143.545455 357.513509 
L 149.181818 351.911293 
L 154.818182 342.167751 
L 160.454545 337.197954 
L 166.090909 331.992246 
L 171.727273 347.234407 
L 177.363636 343.092443 
L 183 338.575977 
L 188.636364 333.788424 
L 194.272727 328.926935 
L 199.909091 324.196511 
L 205.545455 319.741959 
L 211.181818 315.645552 
L 216.818182 311.942384 
L 222.454545 308.637601 
L 228.090909 305.718661 
L 233.727273 303.162029 
L 239.363636 300.936098 
L 245 299.002594 
L 250.636364 297.31808 
L 256.272727 295.836125 
L 261.909091 294.509996 
L 267.545455 293.295284 
L 273.181818 292.15201 
L 278.818182 291.045917 
L 284.454545 289.948942 
L 290.090909 288.839015 
L 295.727273 287.699433 
L 301.363636 286.518017 
L 307 285.286239 
L 312.636364 283.998395 
L 318.272727 282.650901 
L 323.909091 281.241696 
L 329.545455 279.769763 
L 335.181818 278.234742 
L 340.818182 276.636634 
L 346.454545 274.975567 
L 352.090909 273.251621 
L 357.727273 271.464714 
L 363.363636 269.614513 
L 369 267.700396 
L 374.636364 265.721424 
L 380.272727 263.676343 
L 385.909091 261.56359 
L 391.545455 259.381316 
L 397.181818 257.127409 
L 402.818182 254.799518 
L 408.454545 252.395077 
L 414.090909 249.911334 
L 419.727273 247.345368 
L 425.363636 244.694113 
L 431 241.954372 
L 436.636364 239.122832 
L 442.272727 236.196077 
L 447.909091 233.170597 
L 453.545455 230.042793 
L 459.181818 226.80898 
L 464.818182 223.465391 
L 470.454545 220.008182 
L 476.090909 216.433431 
L 481.727273 212.737126 
L 487.363636 208.915176 
L 493 204.963405 
L 498.636364 200.877541 
L 504.272727 196.65322 
L 509.909091 192.285979 
L 515.545455 187.771255 
L 521.181818 183.104366 
L 526.818182 178.280526 
L 532.454545 173.294831 
L 538.090909 168.14225 
L 543.727273 162.817626 
L 549.363636 157.315671 
L 555 151.630953 
L 560.636364 145.757901 
L 566.272727 139.690798 
L 571.909091 133.423769 
L 577.545455 126.950781 
L 583.181818 120.265634 
L 588.818182 113.361965 
L 594.454545 106.233236 
L 600.090909 98.87272 
L 605.727273 91.273512 
L 611.363636 83.428514 
L 617 75.330423 
L 622.636364 66.97174 
" clip-path="url(#p1dd17a6c02)" style="fill: none; stroke: #ff7f0e; stroke-width: 3; stroke-linecap: square"/>
   </g>
   <g id="line2d_14">
    <path d="M 115.363636 367.981544 
L 121 369.36 
L 126.636364 368.410382 
L 132.272727 366.472398 
L 137.909091 359.596595 
L 143.545455 357.513509 
L 149.181818 351.911293 
L 154.818182 342.167751 
L 160.454545 337.197954 
L 166.090909 331.992246 
L 171.727273 351.395555 
L 177.363636 347.286667 
L 183 342.792751 
L 188.636364 338.035287 
L 194.272727 333.185517 
L 199.909091 328.42937 
L 205.545455 323.908651 
L 211.181818 319.71184 
L 216.818182 315.881948 
L 222.454545 312.430679 
L 228.090909 309.350576 
L 233.727273 306.62249 
L 239.363636 304.218916 
L 245 302.105401 
L 250.636364 300.241814 
L 256.272727 298.58438 
L 261.909091 297.08832 
L 267.545455 295.710554 
L 273.181818 294.41192 
L 278.818182 293.158582 
L 284.454545 291.922602 
L 290.090909 290.681827 
L 295.727273 289.419324 
L 301.363636 288.122592 
L 307 286.78272 
L 312.636364 285.393598 
L 318.272727 283.951225 
L 323.909091 282.453135 
L 329.545455 280.897924 
L 335.181818 279.284872 
L 340.818182 277.613641 
L 346.454545 275.884048 
L 352.090909 274.095888 
L 357.727273 272.248813 
L 363.363636 270.342248 
L 369 268.375345 
L 374.636364 266.346955 
L 380.272727 264.255627 
L 385.909091 262.099617 
L 391.545455 259.876901 
L 397.181818 257.585207 
L 402.818182 255.222028 
L 408.454545 252.784655 
L 414.090909 250.270197 
L 419.727273 247.675603 
L 425.363636 244.997683 
L 431 242.233121 
L 436.636364 239.378493 
L 442.272727 236.430278 
L 447.909091 233.384862 
L 453.545455 230.238554 
L 459.181818 226.987574 
L 464.818182 223.628073 
L 470.454545 220.156127 
L 476.090909 216.567732 
L 481.727273 212.858807 
L 487.363636 209.025195 
L 493 205.062652 
L 498.636364 200.966847 
L 504.272727 196.733358 
L 509.909091 192.357671 
L 515.545455 187.835168 
L 521.181818 183.161124 
L 526.818182 178.33071 
L 532.454545 173.338975 
L 538.090909 168.180854 
L 543.727273 162.851153 
L 549.363636 157.344546 
L 555 151.655573 
L 560.636364 145.778636 
L 566.272727 139.707983 
L 571.909091 133.437719 
L 577.545455 126.961782 
L 583.181818 120.273955 
L 588.818182 113.367853 
L 594.454545 106.236912 
L 600.090909 98.874395 
L 605.727273 91.273378 
L 611.363636 83.426743 
L 617 75.327179 
L 622.636364 66.967168 
" clip-path="url(#p1dd17a6c02)" style="fill: none; stroke: #2ca02c; stroke-width: 3; stroke-linecap: square"/>
   </g>
   <g id="line2d_15">
    <path d="M 115.363636 367.981544 
L 121 369.36 
L 126.636364 368.410382 
L 132.272727 366.472398 
L 137.909091 359.596595 
L 143.545455 357.513509 
L 149.181818 351.911293 
L 154.818182 342.167751 
L 160.454545 337.197954 
L 166.090909 331.992246 
L 171.727273 355.038756 
L 177.363636 350.980624 
L 183 346.52656 
L 188.636364 341.815789 
L 194.272727 336.997348 
L 199.909091 332.239602 
L 205.545455 327.680646 
L 211.181818 323.413589 
L 216.818182 319.48798 
L 222.454545 315.921099 
L 228.090909 312.709921 
L 233.727273 309.839204 
L 239.363636 307.285188 
L 245 305.016963 
L 250.636364 302.997555 
L 256.272727 301.18578 
L 261.909091 299.53885 
L 267.545455 298.015105 
L 273.181818 296.576328 
L 278.818182 295.189253 
L 284.454545 293.826227 
L 290.090909 292.465169 
L 295.727273 291.089062 
L 301.363636 289.685217 
L 307 288.244463 
L 312.636364 286.760394 
L 318.272727 285.228696 
L 323.909091 283.646583 
L 329.545455 282.012345 
L 335.181818 280.324965 
L 340.818182 278.583831 
L 346.454545 276.788503 
L 352.090909 274.938537 
L 357.727273 273.033363 
L 363.363636 271.072202 
L 369 269.054011 
L 374.636364 266.977463 
L 380.272727 264.84094 
L 385.909091 262.642535 
L 391.545455 260.380075 
L 397.181818 258.051145 
L 402.818182 255.653103 
L 408.454545 253.18311 
L 414.090909 250.63815 
L 419.727273 248.015057 
L 425.363636 245.310525 
L 431 242.521131 
L 436.636364 239.643349 
L 442.272727 236.673561 
L 447.909091 233.608056 
L 453.545455 230.443055 
L 459.181818 227.174694 
L 464.818182 223.799044 
L 470.454545 220.312101 
L 476.090909 216.70979 
L 481.727273 212.987963 
L 487.363636 209.142396 
L 493 205.168782 
L 498.636364 201.062733 
L 504.272727 196.819775 
L 509.909091 192.435336 
L 515.545455 187.904754 
L 521.181818 183.223259 
L 526.818182 178.385973 
L 532.454545 173.387909 
L 538.090909 168.223964 
L 543.727273 162.888906 
L 549.363636 157.377378 
L 555 151.683888 
L 560.636364 145.802805 
L 566.272727 139.728356 
L 571.909091 133.454615 
L 577.545455 126.975499 
L 583.181818 120.284769 
L 588.818182 113.376015 
L 594.454545 106.24266 
L 600.090909 98.877943 
L 605.727273 91.274924 
L 611.363636 83.426473 
L 617 75.32526 
L 622.636364 66.963755 
" clip-path="url(#p1dd17a6c02)" style="fill: none; stroke: #d62728; stroke-width: 3; stroke-linecap: square"/>
   </g>
   <g id="line2d_16">
    <path d="M 115.363636 367.981544 
L 121 369.36 
L 126.636364 368.410382 
L 132.272727 366.472398 
L 137.909091 359.596595 
L 143.545455 357.513509 
L 149.181818 351.911293 
L 154.818182 342.167751 
L 160.454545 337.197954 
L 166.090909 331.992246 
L 171.727273 358.278834 
L 177.363636 354.280801 
L 183 349.876243 
L 188.636364 345.221516 
L 194.272727 340.446392 
L 199.909091 335.703039 
L 205.545455 331.125411 
L 211.181818 326.810057 
L 216.818182 322.811929 
L 222.454545 319.153057 
L 228.090909 315.834272 
L 233.727273 312.843794 
L 239.363636 310.161247 
L 245 307.758987 
L 250.636364 305.603 
L 256.272727 303.654595 
L 261.909091 301.872942 
L 267.545455 300.217833 
L 273.181818 298.652071 
L 278.818182 297.143054 
L 284.454545 295.663519 
L 290.090909 294.191563 
L 295.727273 292.710197 
L 301.363636 291.206643 
L 307 289.671571 
L 312.636364 288.098362 
L 318.272727 286.482467 
L 323.909091 284.820854 
L 329.545455 283.111569 
L 335.181818 281.353358 
L 340.818182 279.545384 
L 346.454545 277.686995 
L 352.090909 275.77755 
L 357.727273 273.816294 
L 363.363636 271.802275 
L 369 269.734288 
L 374.636364 267.610851 
L 380.272727 265.430202 
L 385.909091 263.190298 
L 391.545455 260.888834 
L 397.181818 258.523269 
L 402.818182 256.090843 
L 408.454545 253.5886 
L 414.090909 251.013414 
L 419.727273 248.362011 
L 425.363636 245.630985 
L 431 242.816816 
L 436.636364 239.915881 
L 442.272727 236.92447 
L 447.909091 233.838788 
L 453.545455 230.654973 
L 459.181818 227.36908 
L 464.818182 223.977102 
L 470.454545 220.474966 
L 476.090909 216.858529 
L 481.727273 213.123574 
L 487.363636 209.265814 
L 493 205.280887 
L 498.636364 201.164346 
L 504.272727 196.911663 
L 509.909091 192.518221 
L 515.545455 187.979306 
L 521.181818 183.290103 
L 526.818182 178.445696 
L 532.454545 173.441056 
L 538.090909 168.271041 
L 543.727273 162.930389 
L 549.363636 157.413704 
L 555 151.715467 
L 560.636364 145.83002 
L 566.272727 139.751556 
L 571.909091 133.474131 
L 577.545455 126.991633 
L 583.181818 120.297802 
L 588.818182 113.386211 
L 594.454545 106.250257 
L 600.090909 98.883166 
L 605.727273 91.277981 
L 611.363636 83.427552 
L 617 75.324539 
L 622.636364 66.961395 
" clip-path="url(#p1dd17a6c02)" style="fill: none; stroke: #9467bd; stroke-width: 3; stroke-linecap: square"/>
   </g>
   <g id="line2d_17">
    <path d="M 115.363636 367.981544 
L 121 369.36 
L 126.636364 368.410382 
L 132.272727 366.472398 
L 137.909091 359.596595 
L 143.545455 357.513509 
L 149.181818 351.911293 
L 154.818182 342.167751 
L 160.454545 337.197954 
L 166.090909 331.992246 
L 171.727273 361.196002 
L 177.363636 357.262762 
L 183 352.912976 
L 188.636364 348.319388 
L 194.272727 343.594908 
L 199.909091 338.876744 
L 205.545455 334.294472 
L 211.181818 329.94715 
L 216.818182 325.89423 
L 222.454545 322.161793 
L 228.090909 318.754027 
L 233.727273 315.66222 
L 239.363636 312.869044 
L 245 310.349853 
L 250.636364 308.073391 
L 256.272727 306.003332 
L 261.909091 304.100748 
L 267.545455 302.326881 
L 273.181818 300.645579 
L 278.818182 299.024966 
L 284.454545 297.438238 
L 290.090909 295.86375 
L 295.727273 294.284617 
L 301.363636 292.688053 
L 307 291.064637 
L 312.636364 289.40761 
L 318.272727 287.71225 
L 323.909091 285.975339 
L 329.545455 284.194727 
L 335.181818 282.368975 
L 340.818182 280.497061 
L 346.454545 278.578162 
L 352.090909 276.611474 
L 357.727273 274.596087 
L 363.363636 272.530906 
L 369 270.414588 
L 374.636364 268.245523 
L 380.272727 266.021826 
L 385.909091 263.741332 
L 391.545455 261.401628 
L 397.181818 259.000059 
L 402.818182 256.533762 
L 408.454545 253.999679 
L 414.090909 251.394586 
L 419.727273 248.715113 
L 425.363636 245.957761 
L 431 243.11892 
L 436.636364 240.194882 
L 442.272727 237.181852 
L 447.909091 234.075957 
L 453.545455 230.873253 
L 459.181818 227.569725 
L 464.818182 224.161295 
L 470.454545 220.643818 
L 476.090909 217.013086 
L 481.727273 213.264822 
L 487.363636 209.394679 
L 493 205.398237 
L 498.636364 201.270997 
L 504.272727 197.008379 
L 509.909091 192.605717 
L 515.545455 188.058252 
L 521.181818 183.361126 
L 526.818182 178.509381 
L 532.454545 173.49795 
L 538.090909 168.321656 
L 543.727273 162.975198 
L 549.363636 157.453154 
L 555 151.749971 
L 560.636364 145.859962 
L 566.272727 139.777296 
L 571.909091 133.496 
L 577.545455 127.009943 
L 583.181818 120.31284 
L 588.818182 113.398242 
L 594.454545 106.25953 
L 600.090909 98.889912 
L 605.727273 91.28241 
L 611.363636 83.429863 
L 617 75.324912 
L 622.636364 66.96 
" clip-path="url(#p1dd17a6c02)" style="fill: none; stroke: #8c564b; stroke-width: 3; stroke-linecap: square"/>
   </g>
   <g id="patch_3">
    <path d="M 90 384.48 
L 90 51.84 
" style="fill: none; stroke: #000000; stroke-width: 0.8; stroke-linejoin: miter; stroke-linecap: square"/>
   </g>
   <g id="patch_4">
    <path d="M 648 384.48 
L 648 51.84 
" style="fill: none; stroke: #000000; stroke-width: 0.8; stroke-linejoin: miter; stroke-linecap: square"/>
   </g>
   <g id="patch_5">
    <path d="M 90 384.48 
L 648 384.48 
" style="fill: none; stroke: #000000; stroke-width: 0.8; stroke-linejoin: miter; stroke-linecap: square"/>
   </g>
   <g id="text_12">
    <!-- Level: PAKCCEMISCO2TKN -->
    <g transform="translate(277.46625 45.84) scale(0.14 -0.14)">
     <defs>
      <path id="DejaVuSans-4c" d="M 628 4666 
L 1259 4666 
L 1259 531 
L 3531 531 
L 3531 0 
L 628 0 
L 628 4666 
z
" transform="scale(0.015625)"/>
      <path id="DejaVuSans-65" d="M 3597 1894 
L 3597 1613 
L 953 1613 
Q 991 1019 1311 708 
Q 1631 397 2203 397 
Q 2534 397 2845 478 
Q 3156 559 3463 722 
L 3463 178 
Q 3153 47 2828 -22 
Q 2503 -91 2169 -91 
Q 1331 -91 842 396 
Q 353 884 353 1716 
Q 353 2575 817 3079 
Q 1281 3584 2069 3584 
Q 2775 3584 3186 3129 
Q 3597 2675 3597 1894 
z
M 3022 2063 
Q 3016 2534 2758 2815 
Q 2500 3097 2075 3097 
Q 1594 3097 1305 2825 
Q 1016 2553 972 2059 
L 3022 2063 
z
" transform="scale(0.015625)"/>
      <path id="DejaVuSans-76" d="M 191 3500 
L 800 3500 
L 1894 563 
L 2988 3500 
L 3597 3500 
L 2284 0 
L 1503 0 
L 191 3500 
z
" transform="scale(0.015625)"/>
      <path id="DejaVuSans-6c" d="M 603 4863 
L 1178 4863 
L 1178 0 
L 603 0 
L 603 4863 
z
" transform="scale(0.015625)"/>
      <path id="DejaVuSans-3a" d="M 750 794 
L 1409 794 
L 1409 0 
L 750 0 
L 750 794 
z
M 750 3309 
L 1409 3309 
L 1409 2516 
L 750 2516 
L 750 3309 
z
" transform="scale(0.015625)"/>
      <path id="DejaVuSans-50" d="M 1259 4147 
L 1259 2394 
L 2053 2394 
Q 2494 2394 2734 2622 
Q 2975 2850 2975 3272 
Q 2975 3691 2734 3919 
Q 2494 4147 2053 4147 
L 1259 4147 
z
M 628 4666 
L 2053 4666 
Q 2838 4666 3239 4311 
Q 3641 3956 3641 3272 
Q 3641 2581 3239 2228 
Q 2838 1875 2053 1875 
L 1259 1875 
L 1259 0 
L 628 0 
L 628 4666 
z
" transform="scale(0.015625)"/>
      <path id="DejaVuSans-41" d="M 2188 4044 
L 1331 1722 
L 3047 1722 
L 2188 4044 
z
M 1831 4666 
L 2547 4666 
L 4325 0 
L 3669 0 
L 3244 1197 
L 1141 1197 
L 716 0 
L 50 0 
L 1831 4666 
z
" transform="scale(0.015625)"/>
      <path id="DejaVuSans-4b" d="M 628 4666 
L 1259 4666 
L 1259 2694 
L 3353 4666 
L 4166 4666 
L 1850 2491 
L 4331 0 
L 3500 0 
L 1259 2247 
L 1259 0 
L 628 0 
L 628 4666 
z
" transform="scale(0.015625)"/>
      <path id="DejaVuSans-43" d="M 4122 4306 
L 4122 3641 
Q 3803 3938 3442 4084 
Q 3081 4231 2675 4231 
Q 1875 4231 1450 3742 
Q 1025 3253 1025 2328 
Q 1025 1406 1450 917 
Q 1875 428 2675 428 
Q 3081 428 3442 575 
Q 3803 722 4122 1019 
L 4122 359 
Q 3791 134 3420 21 
Q 3050 -91 2638 -91 
Q 1578 -91 968 557 
Q 359 1206 359 2328 
Q 359 3453 968 4101 
Q 1578 4750 2638 4750 
Q 3056 4750 3426 4639 
Q 3797 4528 4122 4306 
z
" transform="scale(0.015625)"/>
      <path id="DejaVuSans-45" d="M 628 4666 
L 3578 4666 
L 3578 4134 
L 1259 4134 
L 1259 2753 
L 3481 2753 
L 3481 2222 
L 1259 2222 
L 1259 531 
L 3634 531 
L 3634 0 
L 628 0 
L 628 4666 
z
" transform="scale(0.015625)"/>
      <path id="DejaVuSans-4d" d="M 628 4666 
L 1569 4666 
L 2759 1491 
L 3956 4666 
L 4897 4666 
L 4897 0 
L 4281 0 
L 4281 4097 
L 3078 897 
L 2444 897 
L 1241 4097 
L 1241 0 
L 628 0 
L 628 4666 
z
" transform="scale(0.015625)"/>
      <path id="DejaVuSans-49" d="M 628 4666 
L 1259 4666 
L 1259 0 
L 628 0 
L 628 4666 
z
" transform="scale(0.015625)"/>
      <path id="DejaVuSans-53" d="M 3425 4513 
L 3425 3897 
Q 3066 4069 2747 4153 
Q 2428 4238 2131 4238 
Q 1616 4238 1336 4038 
Q 1056 3838 1056 3469 
Q 1056 3159 1242 3001 
Q 1428 2844 1947 2747 
L 2328 2669 
Q 3034 2534 3370 2195 
Q 3706 1856 3706 1288 
Q 3706 609 3251 259 
Q 2797 -91 1919 -91 
Q 1588 -91 1214 -16 
Q 841 59 441 206 
L 441 856 
Q 825 641 1194 531 
Q 1563 422 1919 422 
Q 2459 422 2753 634 
Q 3047 847 3047 1241 
Q 3047 1584 2836 1778 
Q 2625 1972 2144 2069 
L 1759 2144 
Q 1053 2284 737 2584 
Q 422 2884 422 3419 
Q 422 4038 858 4394 
Q 1294 4750 2059 4750 
Q 2388 4750 2728 4690 
Q 3069 4631 3425 4513 
z
" transform="scale(0.015625)"/>
      <path id="DejaVuSans-4f" d="M 2522 4238 
Q 1834 4238 1429 3725 
Q 1025 3213 1025 2328 
Q 1025 1447 1429 934 
Q 1834 422 2522 422 
Q 3209 422 3611 934 
Q 4013 1447 4013 2328 
Q 4013 3213 3611 3725 
Q 3209 4238 2522 4238 
z
M 2522 4750 
Q 3503 4750 4090 4092 
Q 4678 3434 4678 2328 
Q 4678 1225 4090 567 
Q 3503 -91 2522 -91 
Q 1538 -91 948 565 
Q 359 1222 359 2328 
Q 359 3434 948 4092 
Q 1538 4750 2522 4750 
z
" transform="scale(0.015625)"/>
      <path id="DejaVuSans-54" d="M -19 4666 
L 3928 4666 
L 3928 4134 
L 2272 4134 
L 2272 0 
L 1638 0 
L 1638 4134 
L -19 4134 
L -19 4666 
z
" transform="scale(0.015625)"/>
      <path id="DejaVuSans-4e" d="M 628 4666 
L 1478 4666 
L 3547 763 
L 3547 4666 
L 4159 4666 
L 4159 0 
L 3309 0 
L 1241 3903 
L 1241 0 
L 628 0 
L 628 4666 
z
" transform="scale(0.015625)"/>
     </defs>
     <use xlink:href="#DejaVuSans-4c"/>
     <use xlink:href="#DejaVuSans-65" x="53.962891"/>
     <use xlink:href="#DejaVuSans-76" x="115.486328"/>
     <use xlink:href="#DejaVuSans-65" x="174.666016"/>
     <use xlink:href="#DejaVuSans-6c" x="236.189453"/>
     <use xlink:href="#DejaVuSans-3a" x="263.972656"/>
     <use xlink:href="#DejaVuSans-20" x="297.664062"/>
     <use xlink:href="#DejaVuSans-50" x="329.451172"/>
     <use xlink:href="#DejaVuSans-41" x="383.378906"/>
     <use xlink:href="#DejaVuSans-4b" x="451.787109"/>
     <use xlink:href="#DejaVuSans-43" x="511.863281"/>
     <use xlink:href="#DejaVuSans-43" x="581.6875"/>
     <use xlink:href="#DejaVuSans-45" x="651.511719"/>
     <use xlink:href="#DejaVuSans-4d" x="714.695312"/>
     <use xlink:href="#DejaVuSans-49" x="800.974609"/>
     <use xlink:href="#DejaVuSans-53" x="830.466797"/>
     <use xlink:href="#DejaVuSans-43" x="893.943359"/>
     <use xlink:href="#DejaVuSans-4f" x="963.767578"/>
     <use xlink:href="#DejaVuSans-32" x="1042.478516"/>
     <use xlink:href="#DejaVuSans-54" x="1106.101562"/>
     <use xlink:href="#DejaVuSans-4b" x="1167.185547"/>
     <use xlink:href="#DejaVuSans-4e" x="1232.761719"/>
    </g>
   </g>
   <g id="legend_1">
    <g id="patch_6">
     <path d="M 97 147.90875 
L 296.8625 147.90875 
Q 298.8625 147.90875 298.8625 145.90875 
L 298.8625 58.84 
Q 298.8625 56.84 296.8625 56.84 
L 97 56.84 
Q 95 56.84 95 58.84 
L 95 145.90875 
Q 95 147.90875 97 147.90875 
z
" style="fill: #ffffff; opacity: 0.8; stroke: #cccccc; stroke-linejoin: miter"/>
    </g>
    <g id="line2d_18">
     <path d="M 99 64.938437 
L 109 64.938437 
L 119 64.938437 
" style="fill: none; stroke: #1f77b4; stroke-width: 3; stroke-linecap: square"/>
    </g>
    <g id="text_13">
     <!-- Baseline -->
     <g transform="translate(127 68.438437) scale(0.1 -0.1)">
      <defs>
       <path id="DejaVuSans-42" d="M 1259 2228 
L 1259 519 
L 2272 519 
Q 2781 519 3026 730 
Q 3272 941 3272 1375 
Q 3272 1813 3026 2020 
Q 2781 2228 2272 2228 
L 1259 2228 
z
M 1259 4147 
L 1259 2741 
L 2194 2741 
Q 2656 2741 2882 2914 
Q 3109 3088 3109 3444 
Q 3109 3797 2882 3972 
Q 2656 4147 2194 4147 
L 1259 4147 
z
M 628 4666 
L 2241 4666 
Q 2963 4666 3353 4366 
Q 3744 4066 3744 3513 
Q 3744 3084 3544 2831 
Q 3344 2578 2956 2516 
Q 3422 2416 3680 2098 
Q 3938 1781 3938 1306 
Q 3938 681 3513 340 
Q 3088 0 2303 0 
L 628 0 
L 628 4666 
z
" transform="scale(0.015625)"/>
       <path id="DejaVuSans-61" d="M 2194 1759 
Q 1497 1759 1228 1600 
Q 959 1441 959 1056 
Q 959 750 1161 570 
Q 1363 391 1709 391 
Q 2188 391 2477 730 
Q 2766 1069 2766 1631 
L 2766 1759 
L 2194 1759 
z
M 3341 1997 
L 3341 0 
L 2766 0 
L 2766 531 
Q 2569 213 2275 61 
Q 1981 -91 1556 -91 
Q 1019 -91 701 211 
Q 384 513 384 1019 
Q 384 1609 779 1909 
Q 1175 2209 1959 2209 
L 2766 2209 
L 2766 2266 
Q 2766 2663 2505 2880 
Q 2244 3097 1772 3097 
Q 1472 3097 1187 3025 
Q 903 2953 641 2809 
L 641 3341 
Q 956 3463 1253 3523 
Q 1550 3584 1831 3584 
Q 2591 3584 2966 3190 
Q 3341 2797 3341 1997 
z
" transform="scale(0.015625)"/>
       <path id="DejaVuSans-73" d="M 2834 3397 
L 2834 2853 
Q 2591 2978 2328 3040 
Q 2066 3103 1784 3103 
Q 1356 3103 1142 2972 
Q 928 2841 928 2578 
Q 928 2378 1081 2264 
Q 1234 2150 1697 2047 
L 1894 2003 
Q 2506 1872 2764 1633 
Q 3022 1394 3022 966 
Q 3022 478 2636 193 
Q 2250 -91 1575 -91 
Q 1294 -91 989 -36 
Q 684 19 347 128 
L 347 722 
Q 666 556 975 473 
Q 1284 391 1588 391 
Q 1994 391 2212 530 
Q 2431 669 2431 922 
Q 2431 1156 2273 1281 
Q 2116 1406 1581 1522 
L 1381 1569 
Q 847 1681 609 1914 
Q 372 2147 372 2553 
Q 372 3047 722 3315 
Q 1072 3584 1716 3584 
Q 2034 3584 2315 3537 
Q 2597 3491 2834 3397 
z
" transform="scale(0.015625)"/>
       <path id="DejaVuSans-69" d="M 603 3500 
L 1178 3500 
L 1178 0 
L 603 0 
L 603 3500 
z
M 603 4863 
L 1178 4863 
L 1178 4134 
L 603 4134 
L 603 4863 
z
" transform="scale(0.015625)"/>
       <path id="DejaVuSans-6e" d="M 3513 2113 
L 3513 0 
L 2938 0 
L 2938 2094 
Q 2938 2591 2744 2837 
Q 2550 3084 2163 3084 
Q 1697 3084 1428 2787 
Q 1159 2491 1159 1978 
L 1159 0 
L 581 0 
L 581 3500 
L 1159 3500 
L 1159 2956 
Q 1366 3272 1645 3428 
Q 1925 3584 2291 3584 
Q 2894 3584 3203 3211 
Q 3513 2838 3513 2113 
z
" transform="scale(0.015625)"/>
      </defs>
      <use xlink:href="#DejaVuSans-42"/>
      <use xlink:href="#DejaVuSans-61" x="68.603516"/>
      <use xlink:href="#DejaVuSans-73" x="129.882812"/>
      <use xlink:href="#DejaVuSans-65" x="181.982422"/>
      <use xlink:href="#DejaVuSans-6c" x="243.505859"/>
      <use xlink:href="#DejaVuSans-69" x="271.289062"/>
      <use xlink:href="#DejaVuSans-6e" x="299.072266"/>
      <use xlink:href="#DejaVuSans-65" x="362.451172"/>
     </g>
    </g>
    <g id="line2d_19">
     <path d="M 99 79.616562 
L 109 79.616562 
L 119 79.616562 
" style="fill: none; stroke: #ff7f0e; stroke-width: 3; stroke-linecap: square"/>
    </g>
    <g id="text_14">
     <!-- Coal, Oil and Gastax : 5 nominal -->
     <g transform="translate(127 83.116562) scale(0.1 -0.1)">
      <defs>
       <path id="DejaVuSans-6f" d="M 1959 3097 
Q 1497 3097 1228 2736 
Q 959 2375 959 1747 
Q 959 1119 1226 758 
Q 1494 397 1959 397 
Q 2419 397 2687 759 
Q 2956 1122 2956 1747 
Q 2956 2369 2687 2733 
Q 2419 3097 1959 3097 
z
M 1959 3584 
Q 2709 3584 3137 3096 
Q 3566 2609 3566 1747 
Q 3566 888 3137 398 
Q 2709 -91 1959 -91 
Q 1206 -91 779 398 
Q 353 888 353 1747 
Q 353 2609 779 3096 
Q 1206 3584 1959 3584 
z
" transform="scale(0.015625)"/>
       <path id="DejaVuSans-64" d="M 2906 2969 
L 2906 4863 
L 3481 4863 
L 3481 0 
L 2906 0 
L 2906 525 
Q 2725 213 2448 61 
Q 2172 -91 1784 -91 
Q 1150 -91 751 415 
Q 353 922 353 1747 
Q 353 2572 751 3078 
Q 1150 3584 1784 3584 
Q 2172 3584 2448 3432 
Q 2725 3281 2906 2969 
z
M 947 1747 
Q 947 1113 1208 752 
Q 1469 391 1925 391 
Q 2381 391 2643 752 
Q 2906 1113 2906 1747 
Q 2906 2381 2643 2742 
Q 2381 3103 1925 3103 
Q 1469 3103 1208 2742 
Q 947 2381 947 1747 
z
" transform="scale(0.015625)"/>
       <path id="DejaVuSans-47" d="M 3809 666 
L 3809 1919 
L 2778 1919 
L 2778 2438 
L 4434 2438 
L 4434 434 
Q 4069 175 3628 42 
Q 3188 -91 2688 -91 
Q 1594 -91 976 548 
Q 359 1188 359 2328 
Q 359 3472 976 4111 
Q 1594 4750 2688 4750 
Q 3144 4750 3555 4637 
Q 3966 4525 4313 4306 
L 4313 3634 
Q 3963 3931 3569 4081 
Q 3175 4231 2741 4231 
Q 1884 4231 1454 3753 
Q 1025 3275 1025 2328 
Q 1025 1384 1454 906 
Q 1884 428 2741 428 
Q 3075 428 3337 486 
Q 3600 544 3809 666 
z
" transform="scale(0.015625)"/>
       <path id="DejaVuSans-74" d="M 1172 4494 
L 1172 3500 
L 2356 3500 
L 2356 3053 
L 1172 3053 
L 1172 1153 
Q 1172 725 1289 603 
Q 1406 481 1766 481 
L 2356 481 
L 2356 0 
L 1766 0 
Q 1100 0 847 248 
Q 594 497 594 1153 
L 594 3053 
L 172 3053 
L 172 3500 
L 594 3500 
L 594 4494 
L 1172 4494 
z
" transform="scale(0.015625)"/>
       <path id="DejaVuSans-78" d="M 3513 3500 
L 2247 1797 
L 3578 0 
L 2900 0 
L 1881 1375 
L 863 0 
L 184 0 
L 1544 1831 
L 300 3500 
L 978 3500 
L 1906 2253 
L 2834 3500 
L 3513 3500 
z
" transform="scale(0.015625)"/>
       <path id="DejaVuSans-6d" d="M 3328 2828 
Q 3544 3216 3844 3400 
Q 4144 3584 4550 3584 
Q 5097 3584 5394 3201 
Q 5691 2819 5691 2113 
L 5691 0 
L 5113 0 
L 5113 2094 
Q 5113 2597 4934 2840 
Q 4756 3084 4391 3084 
Q 3944 3084 3684 2787 
Q 3425 2491 3425 1978 
L 3425 0 
L 2847 0 
L 2847 2094 
Q 2847 2600 2669 2842 
Q 2491 3084 2119 3084 
Q 1678 3084 1418 2786 
Q 1159 2488 1159 1978 
L 1159 0 
L 581 0 
L 581 3500 
L 1159 3500 
L 1159 2956 
Q 1356 3278 1631 3431 
Q 1906 3584 2284 3584 
Q 2666 3584 2933 3390 
Q 3200 3197 3328 2828 
z
" transform="scale(0.015625)"/>
      </defs>
      <use xlink:href="#DejaVuSans-43"/>
      <use xlink:href="#DejaVuSans-6f" x="69.824219"/>
      <use xlink:href="#DejaVuSans-61" x="131.005859"/>
      <use xlink:href="#DejaVuSans-6c" x="192.285156"/>
      <use xlink:href="#DejaVuSans-2c" x="220.068359"/>
      <use xlink:href="#DejaVuSans-20" x="251.855469"/>
      <use xlink:href="#DejaVuSans-4f" x="283.642578"/>
      <use xlink:href="#DejaVuSans-69" x="362.353516"/>
      <use xlink:href="#DejaVuSans-6c" x="390.136719"/>
      <use xlink:href="#DejaVuSans-20" x="417.919922"/>
      <use xlink:href="#DejaVuSans-61" x="449.707031"/>
      <use xlink:href="#DejaVuSans-6e" x="510.986328"/>
      <use xlink:href="#DejaVuSans-64" x="574.365234"/>
      <use xlink:href="#DejaVuSans-20" x="637.841797"/>
      <use xlink:href="#DejaVuSans-47" x="669.628906"/>
      <use xlink:href="#DejaVuSans-61" x="747.119141"/>
      <use xlink:href="#DejaVuSans-73" x="808.398438"/>
      <use xlink:href="#DejaVuSans-74" x="860.498047"/>
      <use xlink:href="#DejaVuSans-61" x="899.707031"/>
      <use xlink:href="#DejaVuSans-78" x="960.986328"/>
      <use xlink:href="#DejaVuSans-20" x="1020.166016"/>
      <use xlink:href="#DejaVuSans-3a" x="1051.953125"/>
      <use xlink:href="#DejaVuSans-20" x="1085.644531"/>
      <use xlink:href="#DejaVuSans-35" x="1117.431641"/>
      <use xlink:href="#DejaVuSans-20" x="1181.054688"/>
      <use xlink:href="#DejaVuSans-6e" x="1212.841797"/>
      <use xlink:href="#DejaVuSans-6f" x="1276.220703"/>
      <use xlink:href="#DejaVuSans-6d" x="1337.402344"/>
      <use xlink:href="#DejaVuSans-69" x="1434.814453"/>
      <use xlink:href="#DejaVuSans-6e" x="1462.597656"/>
      <use xlink:href="#DejaVuSans-61" x="1525.976562"/>
      <use xlink:href="#DejaVuSans-6c" x="1587.255859"/>
     </g>
    </g>
    <g id="line2d_20">
     <path d="M 99 94.294687 
L 109 94.294687 
L 119 94.294687 
" style="fill: none; stroke: #2ca02c; stroke-width: 3; stroke-linecap: square"/>
    </g>
    <g id="text_15">
     <!-- Coal, Oil and Gastax : 10 nominal -->
     <g transform="translate(127 97.794687) scale(0.1 -0.1)">
      <use xlink:href="#DejaVuSans-43"/>
      <use xlink:href="#DejaVuSans-6f" x="69.824219"/>
      <use xlink:href="#DejaVuSans-61" x="131.005859"/>
      <use xlink:href="#DejaVuSans-6c" x="192.285156"/>
      <use xlink:href="#DejaVuSans-2c" x="220.068359"/>
      <use xlink:href="#DejaVuSans-20" x="251.855469"/>
      <use xlink:href="#DejaVuSans-4f" x="283.642578"/>
      <use xlink:href="#DejaVuSans-69" x="362.353516"/>
      <use xlink:href="#DejaVuSans-6c" x="390.136719"/>
      <use xlink:href="#DejaVuSans-20" x="417.919922"/>
      <use xlink:href="#DejaVuSans-61" x="449.707031"/>
      <use xlink:href="#DejaVuSans-6e" x="510.986328"/>
      <use xlink:href="#DejaVuSans-64" x="574.365234"/>
      <use xlink:href="#DejaVuSans-20" x="637.841797"/>
      <use xlink:href="#DejaVuSans-47" x="669.628906"/>
      <use xlink:href="#DejaVuSans-61" x="747.119141"/>
      <use xlink:href="#DejaVuSans-73" x="808.398438"/>
      <use xlink:href="#DejaVuSans-74" x="860.498047"/>
      <use xlink:href="#DejaVuSans-61" x="899.707031"/>
      <use xlink:href="#DejaVuSans-78" x="960.986328"/>
      <use xlink:href="#DejaVuSans-20" x="1020.166016"/>
      <use xlink:href="#DejaVuSans-3a" x="1051.953125"/>
      <use xlink:href="#DejaVuSans-20" x="1085.644531"/>
      <use xlink:href="#DejaVuSans-31" x="1117.431641"/>
      <use xlink:href="#DejaVuSans-30" x="1181.054688"/>
      <use xlink:href="#DejaVuSans-20" x="1244.677734"/>
      <use xlink:href="#DejaVuSans-6e" x="1276.464844"/>
      <use xlink:href="#DejaVuSans-6f" x="1339.84375"/>
      <use xlink:href="#DejaVuSans-6d" x="1401.025391"/>
      <use xlink:href="#DejaVuSans-69" x="1498.4375"/>
      <use xlink:href="#DejaVuSans-6e" x="1526.220703"/>
      <use xlink:href="#DejaVuSans-61" x="1589.599609"/>
      <use xlink:href="#DejaVuSans-6c" x="1650.878906"/>
     </g>
    </g>
    <g id="line2d_21">
     <path d="M 99 108.972812 
L 109 108.972812 
L 119 108.972812 
" style="fill: none; stroke: #d62728; stroke-width: 3; stroke-linecap: square"/>
    </g>
    <g id="text_16">
     <!-- Coal, Oil and Gastax : 15 nominal -->
     <g transform="translate(127 112.472812) scale(0.1 -0.1)">
      <use xlink:href="#DejaVuSans-43"/>
      <use xlink:href="#DejaVuSans-6f" x="69.824219"/>
      <use xlink:href="#DejaVuSans-61" x="131.005859"/>
      <use xlink:href="#DejaVuSans-6c" x="192.285156"/>
      <use xlink:href="#DejaVuSans-2c" x="220.068359"/>
      <use xlink:href="#DejaVuSans-20" x="251.855469"/>
      <use xlink:href="#DejaVuSans-4f" x="283.642578"/>
      <use xlink:href="#DejaVuSans-69" x="362.353516"/>
      <use xlink:href="#DejaVuSans-6c" x="390.136719"/>
      <use xlink:href="#DejaVuSans-20" x="417.919922"/>
      <use xlink:href="#DejaVuSans-61" x="449.707031"/>
      <use xlink:href="#DejaVuSans-6e" x="510.986328"/>
      <use xlink:href="#DejaVuSans-64" x="574.365234"/>
      <use xlink:href="#DejaVuSans-20" x="637.841797"/>
      <use xlink:href="#DejaVuSans-47" x="669.628906"/>
      <use xlink:href="#DejaVuSans-61" x="747.119141"/>
      <use xlink:href="#DejaVuSans-73" x="808.398438"/>
      <use xlink:href="#DejaVuSans-74" x="860.498047"/>
      <use xlink:href="#DejaVuSans-61" x="899.707031"/>
      <use xlink:href="#DejaVuSans-78" x="960.986328"/>
      <use xlink:href="#DejaVuSans-20" x="1020.166016"/>
      <use xlink:href="#DejaVuSans-3a" x="1051.953125"/>
      <use xlink:href="#DejaVuSans-20" x="1085.644531"/>
      <use xlink:href="#DejaVuSans-31" x="1117.431641"/>
      <use xlink:href="#DejaVuSans-35" x="1181.054688"/>
      <use xlink:href="#DejaVuSans-20" x="1244.677734"/>
      <use xlink:href="#DejaVuSans-6e" x="1276.464844"/>
      <use xlink:href="#DejaVuSans-6f" x="1339.84375"/>
      <use xlink:href="#DejaVuSans-6d" x="1401.025391"/>
      <use xlink:href="#DejaVuSans-69" x="1498.4375"/>
      <use xlink:href="#DejaVuSans-6e" x="1526.220703"/>
      <use xlink:href="#DejaVuSans-61" x="1589.599609"/>
      <use xlink:href="#DejaVuSans-6c" x="1650.878906"/>
     </g>
    </g>
    <g id="line2d_22">
     <path d="M 99 123.650937 
L 109 123.650937 
L 119 123.650937 
" style="fill: none; stroke: #9467bd; stroke-width: 3; stroke-linecap: square"/>
    </g>
    <g id="text_17">
     <!-- Coal, Oil and Gastax : 20 nominal -->
     <g transform="translate(127 127.150937) scale(0.1 -0.1)">
      <use xlink:href="#DejaVuSans-43"/>
      <use xlink:href="#DejaVuSans-6f" x="69.824219"/>
      <use xlink:href="#DejaVuSans-61" x="131.005859"/>
      <use xlink:href="#DejaVuSans-6c" x="192.285156"/>
      <use xlink:href="#DejaVuSans-2c" x="220.068359"/>
      <use xlink:href="#DejaVuSans-20" x="251.855469"/>
      <use xlink:href="#DejaVuSans-4f" x="283.642578"/>
      <use xlink:href="#DejaVuSans-69" x="362.353516"/>
      <use xlink:href="#DejaVuSans-6c" x="390.136719"/>
      <use xlink:href="#DejaVuSans-20" x="417.919922"/>
      <use xlink:href="#DejaVuSans-61" x="449.707031"/>
      <use xlink:href="#DejaVuSans-6e" x="510.986328"/>
      <use xlink:href="#DejaVuSans-64" x="574.365234"/>
      <use xlink:href="#DejaVuSans-20" x="637.841797"/>
      <use xlink:href="#DejaVuSans-47" x="669.628906"/>
      <use xlink:href="#DejaVuSans-61" x="747.119141"/>
      <use xlink:href="#DejaVuSans-73" x="808.398438"/>
      <use xlink:href="#DejaVuSans-74" x="860.498047"/>
      <use xlink:href="#DejaVuSans-61" x="899.707031"/>
      <use xlink:href="#DejaVuSans-78" x="960.986328"/>
      <use xlink:href="#DejaVuSans-20" x="1020.166016"/>
      <use xlink:href="#DejaVuSans-3a" x="1051.953125"/>
      <use xlink:href="#DejaVuSans-20" x="1085.644531"/>
      <use xlink:href="#DejaVuSans-32" x="1117.431641"/>
      <use xlink:href="#DejaVuSans-30" x="1181.054688"/>
      <use xlink:href="#DejaVuSans-20" x="1244.677734"/>
      <use xlink:href="#DejaVuSans-6e" x="1276.464844"/>
      <use xlink:href="#DejaVuSans-6f" x="1339.84375"/>
      <use xlink:href="#DejaVuSans-6d" x="1401.025391"/>
      <use xlink:href="#DejaVuSans-69" x="1498.4375"/>
      <use xlink:href="#DejaVuSans-6e" x="1526.220703"/>
      <use xlink:href="#DejaVuSans-61" x="1589.599609"/>
      <use xlink:href="#DejaVuSans-6c" x="1650.878906"/>
     </g>
    </g>
    <g id="line2d_23">
     <path d="M 99 138.329062 
L 109 138.329062 
L 119 138.329062 
" style="fill: none; stroke: #8c564b; stroke-width: 3; stroke-linecap: square"/>
    </g>
    <g id="text_18">
     <!-- Coal, Oil and Gastax : 25 nominal -->
     <g transform="translate(127 141.829062) scale(0.1 -0.1)">
      <use xlink:href="#DejaVuSans-43"/>
      <use xlink:href="#DejaVuSans-6f" x="69.824219"/>
      <use xlink:href="#DejaVuSans-61" x="131.005859"/>
      <use xlink:href="#DejaVuSans-6c" x="192.285156"/>
      <use xlink:href="#DejaVuSans-2c" x="220.068359"/>
      <use xlink:href="#DejaVuSans-20" x="251.855469"/>
      <use xlink:href="#DejaVuSans-4f" x="283.642578"/>
      <use xlink:href="#DejaVuSans-69" x="362.353516"/>
      <use xlink:href="#DejaVuSans-6c" x="390.136719"/>
      <use xlink:href="#DejaVuSans-20" x="417.919922"/>
      <use xlink:href="#DejaVuSans-61" x="449.707031"/>
      <use xlink:href="#DejaVuSans-6e" x="510.986328"/>
      <use xlink:href="#DejaVuSans-64" x="574.365234"/>
      <use xlink:href="#DejaVuSans-20" x="637.841797"/>
      <use xlink:href="#DejaVuSans-47" x="669.628906"/>
      <use xlink:href="#DejaVuSans-61" x="747.119141"/>
      <use xlink:href="#DejaVuSans-73" x="808.398438"/>
      <use xlink:href="#DejaVuSans-74" x="860.498047"/>
      <use xlink:href="#DejaVuSans-61" x="899.707031"/>
      <use xlink:href="#DejaVuSans-78" x="960.986328"/>
      <use xlink:href="#DejaVuSans-20" x="1020.166016"/>
      <use xlink:href="#DejaVuSans-3a" x="1051.953125"/>
      <use xlink:href="#DejaVuSans-20" x="1085.644531"/>
      <use xlink:href="#DejaVuSans-32" x="1117.431641"/>
      <use xlink:href="#DejaVuSans-35" x="1181.054688"/>
      <use xlink:href="#DejaVuSans-20" x="1244.677734"/>
      <use xlink:href="#DejaVuSans-6e" x="1276.464844"/>
      <use xlink:href="#DejaVuSans-6f" x="1339.84375"/>
      <use xlink:href="#DejaVuSans-6d" x="1401.025391"/>
      <use xlink:href="#DejaVuSans-69" x="1498.4375"/>
      <use xlink:href="#DejaVuSans-6e" x="1526.220703"/>
      <use xlink:href="#DejaVuSans-61" x="1589.599609"/>
      <use xlink:href="#DejaVuSans-6c" x="1650.878906"/>
     </g>
    </g>
   </g>
  </g>
 </g>
 <defs>
  <clipPath id="p1dd17a6c02">
   <rect x="90" y="51.84" width="558" height="332.64"/>
  </clipPath>
 </defs>
</svg>
