<svg xmlns="http://www.w3.org/2000/svg" xmlns:xlink="http://www.w3.org/1999/xlink" width="432pt" height="107pt" viewBox="0.00 0.00 432.00 107.11">
<g id="graph0" class="graph" transform="scale(0.885246 0.885246) rotate(0) translate(4 117)">
<title>TD</title>
<polygon fill="white" stroke="none" points="-4,4 -4,-117 484,-117 484,4 -4,4"/>
<text text-anchor="middle" x="240" y="-7.8" font-family="Times New Roman,serif" font-size="14.00">XGDP</text>
<!-- XFS -->
<g id="node1" class="node">
<title>XFS</title>
<g id="a_node1"><a xlink:title="Final sales of gross domestic product, cw 2012$
FRML &lt;Z&gt; XFS = EXP(XFS_A+XFS_AERR+ (LOG(XFS(-1))+0.6849*LOG(ECNIA/ECNIA(-1))+0.0386*LOG(EH/EH(-1))+0.1324*LOG(EBFI/EBFI(-1))+0.0429*LOG(EGFE/EGFE(-1))+0.0223*LOG(EGFL/EGFL(-1))+0.0395*LOG(EGSE/EGSE(-1))+0.0691*LOG(EGSL/EGSL(-1))+0.1203*LOG(EX/EX(-1))+-0.1399*LOG(EMO/EMO(-1))+-0.0101*LOG(EMP/EMP(-1))) ) $">
<polygon fill="#63b8ff" stroke="black" points="305,-113 0,-113 0,-77 305,-77 305,-113"/>
<text text-anchor="start" x="6.5" y="-90.8" font-family="Times New Roman,serif" font-size="14.00" fill="blue">XFS:Final sales of gross domestic product, cw 2012$</text>
</a>
</g>
</g>
<!-- XGDP -->
<g id="node2" class="node">
<title>XGDP</title>
<g id="a_node2"><a xlink:title="GDP, cw 2012$
FRML &lt;Z&gt; XGDP = EXP(XGDP_A+XGDP_AERR+ (LOG(XGDP(-1))+0.9985*LOG(XFS/XFS(-1))+0.6264*(LOG(KI)-LOG(KI(-1)))+-0.6249*(LOG(KI(-1))-LOG(KI(-2)))) ) $">
<polygon fill="red" stroke="black" points="480,-86 341,-86 341,-50 480,-50 480,-86"/>
<text text-anchor="start" x="347.5" y="-63.8" font-family="Times New Roman,serif" font-size="14.00" fill="blue">XGDP:GDP, cw 2012$</text>
</a>
</g>
</g>
<!-- XFS&#45;&gt;XGDP -->
<g id="edge1" class="edge">
<title>XFS-&gt;XGDP</title>
<g id="a_edge1"><a xlink:href="bogus" xlink:title=" XFS -&gt; XGDP Min. att. -195%  max: 589%">
<path fill="none" stroke="black" stroke-width="8" d="M305.38,-78.98C311.65,-78.32 317.84,-77.67 323.89,-77.03"/>
<polygon fill="black" stroke="black" stroke-width="8" points="324.37,-84.02 333.58,-76.01 322.9,-70.09 324.37,-84.02"/>
</a>
</g>
</g>
<!-- KI -->
<g id="node3" class="node">
<title>KI</title>
<g id="a_node3"><a xlink:title="Stock of private inventories, cw 2012$
FRML &lt;Z&gt; KI = KI(-1)*EXP(KI_A+KI_AERR+ (-0.00120624751419073+0.01469206254903638*(LOG(QKIR)-LOG(KI(-1)/XFS(-1)))+0.4567399290262596*(((LOG(KI(-1)))-(LOG(KI(-2))))--0.00120624751419073)+0.236031927797704*((LOG(XFS(-1)))-(LOG(XFS(-2))))+0.3072281431760363*((LOG(XFS(-2)))-(LOG(XFS(-3))))) ) $">
<polygon fill="#63b8ff" stroke="black" points="273.5,-59 31.5,-59 31.5,-23 273.5,-23 273.5,-59"/>
<text text-anchor="start" x="37.5" y="-36.8" font-family="Times New Roman,serif" font-size="14.00" fill="blue">KI:Stock of private inventories, cw 2012$</text>
</a>
</g>
</g>
<!-- KI&#45;&gt;XGDP -->
<g id="edge2" class="edge">
<title>KI-&gt;XGDP</title>
<g id="a_edge2"><a xlink:href="bogus" xlink:title=" KI -&gt; XGDP Min. att. -88%  max: 189%">
<path fill="none" stroke="black" stroke-width="8" d="M273.63,-53.67C290.61,-55.46 307.77,-57.27 323.91,-58.97"/>
<polygon fill="black" stroke="black" stroke-width="8" points="323.03,-65.92 333.71,-60.01 324.5,-52 323.03,-65.92"/>
</a>
</g>
</g>
</g>
</svg>