<svg xmlns="http://www.w3.org/2000/svg" xmlns:xlink="http://www.w3.org/1999/xlink" width="1124pt" height="769pt" viewBox="0.00 0.00 1124.00 769.00">
<g id="graph0" class="graph" transform="scale(1 1) rotate(0) translate(4 765)">
<title>TD</title>
<polygon fill="white" stroke="none" points="-4,4 -4,-765 1120,-765 1120,4 -4,4"/>
<text text-anchor="middle" x="558" y="-7.8" font-family="Times New Roman,serif" font-size="14.00">XGDP</text>
<!-- HGEMP -->
<g id="node1" class="node">
<title>HGEMP</title>
<g id="a_node1"><a xlink:title="Petroleum imports, cw 2012$, trend growth rate
FRML &lt;Z&gt; HGEMP = HGEMP_A+HGEMP_AERR+ (.9*HGEMP(-1)+.1*400*LOG(EMP/EMP(-1)))  $">
<polygon fill="#63b8ff" stroke="black" points="1039.5,-707 711.5,-707 711.5,-671 1039.5,-671 1039.5,-707"/>
<text text-anchor="start" x="717.5" y="-684.8" font-family="Times New Roman,serif" font-size="14.00" fill="blue">HGEMP:Petroleum imports, cw 2012$, trend growth rate</text>
</a>
</g>
</g>
<!-- EM -->
<g id="node2" class="node">
<title>EM</title>
<g id="a_node2"><a xlink:title="Imports of goods and services, cw 2012$
FRML  &lt;&gt; EM = EXP(EM_A+EM_AERR+ (LOG(EM(-1))+.5*(EMON/EMN+EMON(-1)/EMN(-1))*((LOG(EMO))-(LOG(EMO(-1))))+.5*(EMPN/EMN+EMPN(-1)/EMN(-1))*((LOG(EMP))-(LOG(EMP(-1))))) ) $">
<polygon fill="#63b8ff" stroke="black" points="1006.5,-653 744.5,-653 744.5,-617 1006.5,-617 1006.5,-653"/>
<text text-anchor="start" x="750.5" y="-630.8" font-family="Times New Roman,serif" font-size="14.00" fill="blue">EM:Imports of goods and services, cw 2012$</text>
</a>
</g>
</g>
<!-- PXB -->
<g id="node3" class="node">
<title>PXB</title>
<g id="a_node3"><a xlink:title="Price index for business output
FRML  &lt;&gt; PXB = PXB_A+PXB_AERR+ (UPXB*PGDP)  $">
<polygon fill="#63b8ff" stroke="black" points="981,-329 770,-329 770,-293 981,-293 981,-329"/>
<text text-anchor="start" x="776.5" y="-306.8" font-family="Times New Roman,serif" font-size="14.00" fill="blue">PXB:Price index for business output</text>
</a>
</g>
</g>
<!-- FNIN -->
<g id="node4" class="node">
<title>FNIN</title>
<g id="a_node4"><a xlink:title="Net stock of claims of US residents on the rest of the world, current $
FRML  &lt;&gt; FNIN = FNIN_A+FNIN_AERR+ (.25*FCBN+.54*(((LOG(FPC))-(LOG(FPC(-1))))*FNICN(-1))-.32*(((LOG(PGDP))-(LOG(PGDP(-1))))*FNILN(-1))-.67*(((LOG(FPX))-(LOG(FPX(-1))))*FNICN(-1))+.06*(((LOG(FPX))-(LOG(FPX(-1))))*FNILN(-1))+FNIRN) +FNIN(-1) $">
<polygon fill="#63b8ff" stroke="black" points="1090.5,-275 660.5,-275 660.5,-239 1090.5,-239 1090.5,-275"/>
<text text-anchor="start" x="666.5" y="-252.8" font-family="Times New Roman,serif" font-size="14.00" fill="blue">FNIN:Net stock of claims of US residents on the rest of the world, current $</text>
</a>
</g>
</g>
<!-- YHSHR -->
<g id="node5" class="node">
<title>YHSHR</title>
<g id="a_node5"><a xlink:title="Income, household, total, ratio to XGDP (real after-tax)
FRML  &lt;&gt; YHSHR = YHSHR_A+YHSHR_AERR+ (YH/XGDP)  $">
<polygon fill="#63b8ff" stroke="black" points="570.5,-734 203.5,-734 203.5,-698 570.5,-698 570.5,-734"/>
<text text-anchor="start" x="210" y="-711.8" font-family="Times New Roman,serif" font-size="14.00" fill="blue">YHSHR:Income, household, total, ratio to XGDP (real after-tax)</text>
</a>
</g>
</g>
<!-- YHGAP -->
<g id="node18" class="node">
<title>YHGAP</title>
<g id="a_node18"><a xlink:title="Income, household, total, ratio to XGDP, cyclical component (real after-tax)
FRML  &lt;&gt; YHGAP = YHGAP_A+YHGAP_AERR+ (100*LOG(YHSHR/ZYHST))  $">
<polygon fill="#63b8ff" stroke="black" points="1116,-761 635,-761 635,-725 1116,-725 1116,-761"/>
<text text-anchor="start" x="641.5" y="-738.8" font-family="Times New Roman,serif" font-size="14.00" fill="blue">YHGAP:Income, household, total, ratio to XGDP, cyclical component (real after-tax)</text>
</a>
</g>
</g>
<!-- YHSHR&#45;&gt;YHGAP -->
<g id="edge5" class="edge">
<title>YHSHR-&gt;YHGAP</title>
<g id="a_edge5"><a xlink:href="bogus" xlink:title=" YHSHR -&gt; YHGAP Min. att. -2287%  max: 2200%">
<path fill="none" stroke="black" stroke-width="8" d="M570.89,-726.15C586.3,-727.01 602.07,-727.88 617.91,-728.76"/>
<polygon fill="black" stroke="black" stroke-width="8" points="617.43,-735.74 627.81,-729.31 618.21,-721.77 617.43,-735.74"/>
</a>
</g>
</g>
<!-- XGDP -->
<g id="node6" class="node">
<title>XGDP</title>
<g id="a_node6"><a xlink:title="GDP, cw 2012$
FRML &lt;Z&gt; XGDP = EXP(XGDP_A+XGDP_AERR+ (LOG(XGDP(-1))+0.9985*LOG(XFS/XFS(-1))+0.6264*(LOG(KI)-LOG(KI(-1)))+-0.6249*(LOG(KI(-1))-LOG(KI(-2)))) ) $">
<polygon fill="red" stroke="black" points="139,-599 0,-599 0,-563 139,-563 139,-599"/>
<text text-anchor="start" x="6.5" y="-576.8" font-family="Times New Roman,serif" font-size="14.00" fill="blue">XGDP:GDP, cw 2012$</text>
</a>
</g>
</g>
<!-- XGDP&#45;&gt;YHSHR -->
<g id="edge1" class="edge">
<title>XGDP-&gt;YHSHR</title>
<g id="a_edge1"><a xlink:href="bogus" xlink:title=" XGDP -&gt; YHSHR Min. att. -825%  max: 268%">
<path fill="none" stroke="black" stroke-width="8" d="M89.28,-599.48C109.03,-617.91 141.8,-645.76 175,-662 202.23,-675.32 233.09,-685.59 262.64,-693.42"/>
<polygon fill="black" stroke="black" stroke-width="8" points="260.72,-700.15 272.13,-695.81 264.15,-686.58 260.72,-700.15"/>
</a>
</g>
</g>
<!-- HGGDP -->
<g id="node8" class="node">
<title>HGGDP</title>
<g id="a_node8"><a xlink:title="Growth rate of GDP, cw 2012$ (annual rate)
FRML  &lt;&gt; HGGDP = HGGDP_A+HGGDP_AERR+ (400*((LOG(XGDP))-(LOG(XGDP(-1)))))  $">
<polygon fill="#63b8ff" stroke="black" points="540,-653 234,-653 234,-617 540,-617 540,-653"/>
<text text-anchor="start" x="240" y="-630.8" font-family="Times New Roman,serif" font-size="14.00" fill="blue">HGGDP:Growth rate of GDP, cw 2012$ (annual rate)</text>
</a>
</g>
</g>
<!-- XGDP&#45;&gt;HGGDP -->
<g id="edge16" class="edge">
<title>XGDP-&gt;HGGDP</title>
<g id="a_edge16"><a xlink:href="bogus" xlink:title=" XGDP -&gt; HGGDP Min. att. 100%  max: 100%">
<path fill="none" stroke="black" stroke-width="8" d="M136.83,-599.47C149.44,-602.6 162.58,-605.61 175,-608 188.55,-610.61 202.65,-613.03 216.84,-615.26"/>
<polygon fill="black" stroke="black" stroke-width="8" points="215.67,-622.17 226.61,-616.75 217.78,-608.33 215.67,-622.17"/>
</a>
</g>
</g>
<!-- EMP -->
<g id="node12" class="node">
<title>EMP</title>
<g id="a_node12"><a xlink:title="Petroleum imports, cw 2012$
FRML &lt;Z&gt; EMP = XGDP*EXP(EMP_A+EMP_AERR+ (LOG(EMPTRT)+0.048026*((LOG(PMP/PXB))-(LOG(PMP(-1)/PXB(-1))))+0.022115*XGAP2(-1)) ) $">
<polygon fill="#63b8ff" stroke="black" points="491,-599 283,-599 283,-563 491,-563 491,-599"/>
<text text-anchor="start" x="289" y="-576.8" font-family="Times New Roman,serif" font-size="14.00" fill="blue">EMP:Petroleum imports, cw 2012$</text>
</a>
</g>
</g>
<!-- XGDP&#45;&gt;EMP -->
<g id="edge12" class="edge">
<title>XGDP-&gt;EMP</title>
<g id="a_edge12"><a xlink:href="bogus" xlink:title=" XGDP -&gt; EMP Min. att. -47%  max: 216%">
<path fill="none" stroke="black" stroke-width="8" d="M139.35,-581C176.32,-581 222.97,-581 265.73,-581"/>
<polygon fill="black" stroke="black" stroke-width="8" points="265.54,-588 275.54,-581 265.54,-574 265.54,-588"/>
</a>
</g>
</g>
<!-- XGDO -->
<g id="node14" class="node">
<title>XGDO</title>
<g id="a_node14"><a xlink:title="Gross domestic product, adjusted for measurement error, cw 2012$
FRML  &lt;&gt; XGDO = XGDO_A+XGDO_AERR+ (XGDP/MEP)  $">
<polygon fill="#63b8ff" stroke="black" points="599,-464 175,-464 175,-428 599,-428 599,-464"/>
<text text-anchor="start" x="181" y="-441.8" font-family="Times New Roman,serif" font-size="14.00" fill="blue">XGDO:Gross domestic product, adjusted for measurement error, cw 2012$</text>
</a>
</g>
</g>
<!-- XGDP&#45;&gt;XGDO -->
<g id="edge15" class="edge">
<title>XGDP-&gt;XGDO</title>
<g id="a_edge15"><a xlink:href="bogus" xlink:title=" XGDP -&gt; XGDO Min. att. -9175%  max: 1573%">
<path fill="none" stroke="black" stroke-width="8" d="M113.71,-562.51C169.13,-538.8 265.48,-497.57 327.46,-471.05"/>
<polygon fill="black" stroke="black" stroke-width="8" points="329.96,-477.59 336.4,-467.22 324.45,-464.72 329.96,-477.59"/>
</a>
</g>
</g>
<!-- PGDP -->
<g id="node15" class="node">
<title>PGDP</title>
<g id="a_node15"><a xlink:title="Price index for GDP, cw
FRML  &lt;&gt; PGDP = PGDP_A+PGDP_AERR+ (100*XGDPN/XGDP)  $">
<polygon fill="#63b8ff" stroke="black" points="479,-248 295,-248 295,-212 479,-212 479,-248"/>
<text text-anchor="start" x="301" y="-225.8" font-family="Times New Roman,serif" font-size="14.00" fill="blue">PGDP:Price index for GDP, cw</text>
</a>
</g>
</g>
<!-- XGDP&#45;&gt;PGDP -->
<g id="edge18" class="edge">
<title>XGDP-&gt;PGDP</title>
<g id="a_edge18"><a xlink:href="bogus" xlink:title=" XGDP -&gt; PGDP Min. att. -2763%  max: 15152%">
<path fill="none" stroke="black" stroke-width="8" d="M80.19,-562.66C97.14,-531.45 134.26,-466.73 175,-419 229.02,-355.72 303.8,-293.53 348.3,-258.63"/>
<polygon fill="black" stroke="black" stroke-width="8" points="352.5,-264.23 356.11,-252.57 343.92,-253.17 352.5,-264.23"/>
</a>
</g>
</g>
<!-- PIGDP -->
<g id="node7" class="node">
<title>PIGDP</title>
<g id="a_node7"><a xlink:title="Inflation rate, GDP, cw
FRML  &lt;&gt; PIGDP = PIGDP_A+PIGDP_AERR+ (400*((LOG(PGDP))-(LOG(PGDP(-1)))))  $">
<polygon fill="#63b8ff" stroke="black" points="966.5,-221 784.5,-221 784.5,-185 966.5,-185 966.5,-221"/>
<text text-anchor="start" x="790.5" y="-198.8" font-family="Times New Roman,serif" font-size="14.00" fill="blue">PIGDP:Inflation rate, GDP, cw</text>
</a>
</g>
</g>
<!-- XGAP2 -->
<g id="node9" class="node">
<title>XGAP2</title>
<g id="a_node9"><a xlink:title="Output gap for GDP (100*(actual/potential -1)
FRML  &lt;&gt; XGAP2 = XGAP2_A+XGAP2_AERR+ (100*(XGDO/XGDPT-1))  $">
<polygon fill="#63b8ff" stroke="black" points="1032,-491 719,-491 719,-455 1032,-455 1032,-491"/>
<text text-anchor="start" x="725.5" y="-468.8" font-family="Times New Roman,serif" font-size="14.00" fill="blue">XGAP2:Output gap for GDP (100*(actual/potential -1)</text>
</a>
</g>
</g>
<!-- XGDI -->
<g id="node10" class="node">
<title>XGDI</title>
<g id="a_node10"><a xlink:title="Gross domestic income, cw 2012$
FRML  &lt;&gt; XGDI = XGDI_A+XGDI_AERR+ (XGDO*MEI)  $">
<polygon fill="#63b8ff" stroke="black" points="995.5,-437 755.5,-437 755.5,-401 995.5,-401 995.5,-437"/>
<text text-anchor="start" x="761.5" y="-414.8" font-family="Times New Roman,serif" font-size="14.00" fill="blue">XGDI:Gross domestic income, cw 2012$</text>
</a>
</g>
</g>
<!-- XFS -->
<g id="node11" class="node">
<title>XFS</title>
<g id="a_node11"><a xlink:title="Final sales of gross domestic product, cw 2012$
FRML &lt;Z&gt; XFS = EXP(XFS_A+XFS_AERR+ (LOG(XFS(-1))+0.6849*LOG(ECNIA/ECNIA(-1))+0.0386*LOG(EH/EH(-1))+0.1324*LOG(EBFI/EBFI(-1))+0.0429*LOG(EGFE/EGFE(-1))+0.0223*LOG(EGFL/EGFL(-1))+0.0395*LOG(EGSE/EGSE(-1))+0.0691*LOG(EGSL/EGSL(-1))+0.1203*LOG(EX/EX(-1))+-0.1399*LOG(EMO/EMO(-1))+-0.0101*LOG(EMP/EMP(-1))) ) $">
<polygon fill="#63b8ff" stroke="black" points="1028,-599 723,-599 723,-563 1028,-563 1028,-599"/>
<text text-anchor="start" x="729.5" y="-576.8" font-family="Times New Roman,serif" font-size="14.00" fill="blue">XFS:Final sales of gross domestic product, cw 2012$</text>
</a>
</g>
</g>
<!-- EMP&#45;&gt;HGEMP -->
<g id="edge11" class="edge">
<title>EMP-&gt;HGEMP</title>
<g id="a_edge11"><a xlink:href="bogus" xlink:title=" EMP -&gt; HGEMP Min. att. -665%  max: 313%">
<path fill="none" stroke="black" stroke-width="8" d="M491.25,-577.07C527.57,-579.95 567.22,-588.3 599,-608 623.51,-623.2 610.37,-646.98 635,-662 653.13,-673.05 673.49,-680.79 694.47,-686.08"/>
<polygon fill="black" stroke="black" stroke-width="8" points="692.92,-692.91 704.2,-688.24 695.95,-679.24 692.92,-692.91"/>
</a>
</g>
</g>
<!-- EMP&#45;&gt;EM -->
<g id="edge4" class="edge">
<title>EMP-&gt;EM</title>
<g id="a_edge4"><a xlink:href="bogus" xlink:title=" EMP -&gt; EM Min. att. -78%  max: 24%">
<path fill="none" stroke="black" stroke-width="7.78" d="M491.47,-592.49C560.22,-600.12 651.52,-610.25 727.73,-618.71"/>
<polygon fill="black" stroke="black" stroke-width="7.78" points="726.69,-625.44 737.38,-619.78 728.19,-611.91 726.69,-625.44"/>
</a>
</g>
</g>
<!-- EMP&#45;&gt;XFS -->
<g id="edge13" class="edge">
<title>EMP-&gt;XFS</title>
<g id="a_edge13"><a xlink:href="bogus" xlink:title=" EMP -&gt; XFS Min. att. -108%  max: 5%">
<path fill="none" stroke="black" stroke-width="8" d="M491.47,-581C553.72,-581 634.45,-581 705.74,-581"/>
<polygon fill="black" stroke="black" stroke-width="8" points="705.71,-588 715.71,-581 705.71,-574 705.71,-588"/>
</a>
</g>
</g>
<!-- EMPN -->
<g id="node20" class="node">
<title>EMPN</title>
<g id="a_node20"><a xlink:title="Petroleum imports, current $
FRML  &lt;&gt; EMPN = EMPN_A+EMPN_AERR+ (.01*PMP*EMP)  $">
<polygon fill="#63b8ff" stroke="black" points="982,-545 769,-545 769,-509 982,-509 982,-545"/>
<text text-anchor="start" x="775.5" y="-522.8" font-family="Times New Roman,serif" font-size="14.00" fill="blue">EMPN:Petroleum imports, current $</text>
</a>
</g>
</g>
<!-- EMP&#45;&gt;EMPN -->
<g id="edge17" class="edge">
<title>EMP-&gt;EMPN</title>
<g id="a_edge17"><a xlink:href="bogus" xlink:title=" EMP -&gt; EMPN Min. att. -3490%  max: 237%">
<path fill="none" stroke="black" stroke-width="8" d="M491.47,-569.51C567.66,-561.06 671.53,-549.53 751.89,-540.61"/>
<polygon fill="black" stroke="black" stroke-width="8" points="752.56,-547.58 761.73,-539.52 751.02,-533.66 752.56,-547.58"/>
</a>
</g>
</g>
<!-- XGDIN -->
<g id="node13" class="node">
<title>XGDIN</title>
<g id="a_node13"><a xlink:title="Gross domestic income, current $
FRML  &lt;&gt; XGDIN = XGDIN_A+XGDIN_AERR+ (XGDI*(PGDP/100))  $">
<polygon fill="#63b8ff" stroke="black" points="998,-167 753,-167 753,-131 998,-131 998,-167"/>
<text text-anchor="start" x="759.5" y="-144.8" font-family="Times New Roman,serif" font-size="14.00" fill="blue">XGDIN:Gross domestic income, current $</text>
</a>
</g>
</g>
<!-- XGDO&#45;&gt;XGAP2 -->
<g id="edge8" class="edge">
<title>XGDO-&gt;XGAP2</title>
<g id="a_edge8"><a xlink:href="bogus" xlink:title=" XGDO -&gt; XGAP2 Min. att. -732%  max: 596%">
<path fill="none" stroke="black" stroke-width="8" d="M599.26,-457.72C633.59,-459.63 668.79,-461.58 702.05,-463.43"/>
<polygon fill="black" stroke="black" stroke-width="8" points="701.39,-470.4 711.77,-463.97 702.17,-456.43 701.39,-470.4"/>
</a>
</g>
</g>
<!-- XGDO&#45;&gt;XGDI -->
<g id="edge2" class="edge">
<title>XGDO-&gt;XGDI</title>
<g id="a_edge2"><a xlink:href="bogus" xlink:title=" XGDO -&gt; XGDI Min. att. -1633%  max: 465%">
<path fill="none" stroke="black" stroke-width="8" d="M599.26,-434.28C646.35,-431.66 695.06,-428.96 738.18,-426.57"/>
<polygon fill="black" stroke="black" stroke-width="8" points="738.48,-433.56 748.08,-426.02 737.7,-419.58 738.48,-433.56"/>
</a>
</g>
</g>
<!-- XBN -->
<g id="node17" class="node">
<title>XBN</title>
<g id="a_node17"><a xlink:title="Business output (BEA definition), current $
FRML  &lt;&gt; XBN = XBN_A+XBN_AERR+ (PXB/100*XBO+XGDPN-XGDO*PGDP/100)  $">
<polygon fill="#63b8ff" stroke="black" points="1017,-383 734,-383 734,-347 1017,-347 1017,-383"/>
<text text-anchor="start" x="740.5" y="-360.8" font-family="Times New Roman,serif" font-size="14.00" fill="blue">XBN:Business output (BEA definition), current $</text>
</a>
</g>
</g>
<!-- XGDO&#45;&gt;XBN -->
<g id="edge9" class="edge">
<title>XGDO-&gt;XBN</title>
<g id="a_edge9"><a xlink:href="bogus" xlink:title=" XGDO -&gt; XBN Min. att. -412%  max: 993%">
<path fill="none" stroke="black" stroke-width="8" d="M462.74,-427.56C511.53,-416.04 576.75,-401.62 635,-392 661.45,-387.63 689.66,-383.76 717.09,-380.4"/>
<polygon fill="black" stroke="black" stroke-width="8" points="717.56,-387.4 726.67,-379.26 715.91,-373.5 717.56,-387.4"/>
</a>
</g>
</g>
<!-- PGDP&#45;&gt;PXB -->
<g id="edge7" class="edge">
<title>PGDP-&gt;PXB</title>
<g id="a_edge7"><a xlink:href="bogus" xlink:title=" PGDP -&gt; PXB Min. att. 100%  max: 100%">
<path fill="none" stroke="black" stroke-width="8" d="M462.74,-248.44C511.53,-259.96 576.75,-274.38 635,-284 673.12,-290.3 714.91,-295.57 752.75,-299.73"/>
<polygon fill="black" stroke="black" stroke-width="8" points="751.92,-306.68 762.61,-300.79 753.42,-292.76 751.92,-306.68"/>
</a>
</g>
</g>
<!-- PGDP&#45;&gt;FNIN -->
<g id="edge3" class="edge">
<title>PGDP-&gt;FNIN</title>
<g id="a_edge3"><a xlink:href="bogus" xlink:title=" PGDP -&gt; FNIN Min. att. -16%  max: 13%">
<path fill="none" stroke="black" stroke-width="1.58" d="M479.22,-235.06C527.1,-237.72 588.09,-241.1 647.75,-244.42"/>
<polygon fill="black" stroke="black" stroke-width="1.58" points="647.49,-247.91 657.67,-244.97 647.88,-240.92 647.49,-247.91"/>
</a>
</g>
</g>
<!-- PGDP&#45;&gt;PIGDP -->
<g id="edge14" class="edge">
<title>PGDP-&gt;PIGDP</title>
<g id="a_edge14"><a xlink:href="bogus" xlink:title=" PGDP -&gt; PIGDP Min. att. 100%  max: 100%">
<path fill="none" stroke="black" stroke-width="8" d="M479.22,-224.94C560.99,-220.4 681.01,-213.74 767.33,-208.95"/>
<polygon fill="black" stroke="black" stroke-width="8" points="767.56,-215.95 777.15,-208.4 766.78,-201.97 767.56,-215.95"/>
</a>
</g>
</g>
<!-- PGDP&#45;&gt;XGDIN -->
<g id="edge20" class="edge">
<title>PGDP-&gt;XGDIN</title>
<g id="a_edge20"><a xlink:href="bogus" xlink:title=" PGDP -&gt; XGDIN Min. att. -198%  max: 196%">
<path fill="none" stroke="black" stroke-width="8" d="M462.74,-211.56C511.53,-200.04 576.75,-185.62 635,-176 667.58,-170.62 702.83,-165.99 736.01,-162.16"/>
<polygon fill="black" stroke="black" stroke-width="8" points="736.55,-169.14 745.7,-161.07 734.98,-155.23 736.55,-169.14"/>
</a>
</g>
</g>
<!-- XGDPTN -->
<g id="node16" class="node">
<title>XGDPTN</title>
<g id="a_node16"><a xlink:title="Potential GDP, current $
FRML  &lt;&gt; XGDPTN = XGDPTN_A+XGDPTN_AERR+ (.01*PGDP*XGDPT)  $">
<polygon fill="#63b8ff" stroke="black" points="978,-113 773,-113 773,-77 978,-77 978,-113"/>
<text text-anchor="start" x="779.5" y="-90.8" font-family="Times New Roman,serif" font-size="14.00" fill="blue">XGDPTN:Potential GDP, current $</text>
</a>
</g>
</g>
<!-- PGDP&#45;&gt;XGDPTN -->
<g id="edge10" class="edge">
<title>PGDP-&gt;XGDPTN</title>
<g id="a_edge10"><a xlink:href="bogus" xlink:title=" PGDP -&gt; XGDPTN Min. att. -10595%  max: 1487%">
<path fill="none" stroke="black" stroke-width="8" d="M421.19,-211.63C467.54,-186.88 554.99,-143.47 635,-122 673.72,-111.61 717.01,-105.21 756.02,-101.28"/>
<polygon fill="black" stroke="black" stroke-width="8" points="756.49,-108.26 765.79,-100.36 755.19,-94.32 756.49,-108.26"/>
</a>
</g>
</g>
<!-- PGDP&#45;&gt;XBN -->
<g id="edge19" class="edge">
<title>PGDP-&gt;XBN</title>
<g id="a_edge19"><a xlink:href="bogus" xlink:title=" PGDP -&gt; XBN Min. att. -681%  max: 183%">
<path fill="none" stroke="black" stroke-width="8" d="M421.19,-248.37C467.54,-273.12 554.99,-316.53 635,-338 661.14,-345.02 689.37,-350.21 716.95,-354.06"/>
<polygon fill="black" stroke="black" stroke-width="8" points="715.82,-360.97 726.64,-355.32 717.63,-347.09 715.82,-360.97"/>
</a>
</g>
</g>
<!-- GTN -->
<g id="node19" class="node">
<title>GTN</title>
<g id="a_node19"><a xlink:title="Federal government net transfer payments, current $
FRML &lt;Z&gt; GTN = GTN_A+GTN_AERR+ (.01*PGDP*GTR)  $">
<polygon fill="#63b8ff" stroke="black" points="1041,-59 710,-59 710,-23 1041,-23 1041,-59"/>
<text text-anchor="start" x="716.5" y="-36.8" font-family="Times New Roman,serif" font-size="14.00" fill="blue">GTN:Federal government net transfer payments, current $</text>
</a>
</g>
</g>
<!-- PGDP&#45;&gt;GTN -->
<g id="edge6" class="edge">
<title>PGDP-&gt;GTN</title>
<g id="a_edge6"><a xlink:href="bogus" xlink:title=" PGDP -&gt; GTN Min. att. -7725%  max: 2555%">
<path fill="none" stroke="black" stroke-width="8" d="M408.6,-211.5C448.79,-176.61 541.9,-101.6 635,-68 653.37,-61.37 673.01,-56.26 692.83,-52.33"/>
<polygon fill="black" stroke="black" stroke-width="8" points="694.06,-59.23 702.65,-50.55 691.56,-45.45 694.06,-59.23"/>
</a>
</g>
</g>
</g>
</svg>