<svg xmlns="http://www.w3.org/2000/svg" xmlns:xlink="http://www.w3.org/1999/xlink" width="432pt" height="115pt" viewBox="0.00 0.00 432.00 114.51">
<g id="graph0" class="graph" transform="scale(0.188646 0.188646) rotate(0) translate(4 603)">
<title>TD</title>
<polygon fill="white" stroke="none" points="-4,4 -4,-603 2286,-603 2286,4 -4,4"/>
<text text-anchor="middle" x="1141" y="-7.8" font-family="Times New Roman,serif" font-size="14.00">PAKNYGDPMKTPKN</text>
<!-- PAKNEIMPGNFSKN -->
<g id="node1" class="node">
<title>PAKNEIMPGNFSKN</title>
<g id="a_node1"><a xlink:title="Imports (G&amp;S)
FRML &lt;Z,EXO&gt; PAKNEIMPGNFSKN = (PAKNEIMPGNFSKN(-1)*EXP(-PAKNEIMPGNFSKN_A+ (-0.324143718656754*(LOG(PAKNEIMPGNFSKN(-1))-LOG(PAKNEGDETTOTKN(-1))+0.8*LOG(PAKNEIMPGNFSXN(-1)/PAKNYGDPFCSTXN(-1)))-0.583459272245018+1*((LOG(PAKNEGDETTOTKN))-(LOG(PAKNEGDETTOTKN(-1))))-0.0921874580409631*((LOG(PAKNEIMPGNFSXN/PAKNYGDPFCSTXN))-(LOG(PAKNEIMPGNFSXN(-1)/PAKNYGDPFCSTXN(-1))))-0.0361746331863615*DURING_2012) )) * (1-PAKNEIMPGNFSKN_D)+ PAKNEIMPGNFSKN_X*PAKNEIMPGNFSKN_D  $">
<polygon fill="#63b8ff" stroke="black" points="1885,-171 1662,-171 1662,-135 1885,-135 1885,-171"/>
<text text-anchor="start" x="1668.5" y="-148.8" font-family="Times New Roman,serif" font-size="14.00" fill="blue">PAKNEIMPGNFSKN:Imports (G&amp;S)</text>
</a>
</g>
</g>
<!-- PAKNYGDPMKTPKN -->
<g id="node9" class="node">
<title>PAKNYGDPMKTPKN</title>
<g id="a_node9"><a xlink:title="GDP Expenditure side at market prices
FRML  &lt;&gt; PAKNYGDPMKTPKN = PAKNECONPRVTKN+PAKNECONGOVTKN+PAKNEGDIFTOTKN+PAKNEGDISTKBKN+PAKNEEXPGNFSKN-PAKNEIMPGNFSKN+PAKNYGDPDISCKN+PAKADAP*PAKDISPREPKN $">
<polygon fill="red" stroke="black" points="2282,-263 1921,-263 1921,-227 2282,-227 2282,-263"/>
<text text-anchor="start" x="1927.5" y="-240.8" font-family="Times New Roman,serif" font-size="14.00" fill="blue">PAKNYGDPMKTPKN:GDP Expenditure side at market prices</text>
</a>
</g>
</g>
<!-- PAKNEIMPGNFSKN&#45;&gt;PAKNYGDPMKTPKN -->
<g id="edge17" class="edge">
<title>PAKNEIMPGNFSKN-&gt;PAKNYGDPMKTPKN</title>
<g id="a_edge17"><a xlink:href="bogus" xlink:title=" PAKNEIMPGNFSKN -&gt; PAKNYGDPMKTPKN Min. att. -46%  max: 456%">
<path fill="none" stroke="black" stroke-width="8" d="M1838.52,-171.07C1892.57,-186.32 1969.99,-208.17 2026.66,-224.16"/>
<polygon fill="black" stroke="black" stroke-width="8" points="2025.1,-231 2036.63,-226.97 2028.91,-217.52 2025.1,-231"/>
</a>
</g>
</g>
<!-- PAKNYGDPGAP_ -->
<g id="node2" class="node">
<title>PAKNYGDPGAP_</title>
<g id="a_node2"><a xlink:title="Output Gap (% of Potential GDP)
FRML  &lt;&gt; PAKNYGDPGAP_ = ((PAKNYGDPMKTPKN/PAKNYGDPPOTLKN-1)*100) $">
<polygon fill="#63b8ff" stroke="black" points="647.5,-167 338.5,-167 338.5,-131 647.5,-131 647.5,-167"/>
<text text-anchor="start" x="345" y="-144.8" font-family="Times New Roman,serif" font-size="14.00" fill="blue">PAKNYGDPGAP_:Output Gap (% of Potential GDP)</text>
</a>
</g>
</g>
<!-- PAKNYGDPFCSTXN -->
<g id="node5" class="node">
<title>PAKNYGDPFCSTXN</title>
<g id="a_node5"><a xlink:title="GDP at factor cost
FRML &lt;Z,EXO&gt; PAKNYGDPFCSTXN = (PAKNYGDPFCSTXN(-1)*EXP(-PAKNYGDPFCSTXN_A+ (0.6*((LOG(PAKNYGDPFCSTXN(-1)))-(LOG(PAKNYGDPFCSTXN(-2))))+(1-0.6)*(0.7*PAKINFLEXPT/100+(1-0.7)*((LOG(PAKPSTAR(-1)))-(LOG(PAKPSTAR(-2)))))+0.25*PAKNYGDPGAP_/100+0.262461811660072*DURING_2000-0.205776950553378*DURING_2001) )) * (1-PAKNYGDPFCSTXN_D)+ PAKNYGDPFCSTXN_X*PAKNYGDPFCSTXN_D  $">
<polygon fill="#63b8ff" stroke="black" points="983,-59 741,-59 741,-23 983,-23 983,-59"/>
<text text-anchor="start" x="747" y="-36.8" font-family="Times New Roman,serif" font-size="14.00" fill="blue">PAKNYGDPFCSTXN:GDP at factor cost</text>
</a>
</g>
</g>
<!-- PAKNYGDPGAP_&#45;&gt;PAKNYGDPFCSTXN -->
<g id="edge27" class="edge">
<title>PAKNYGDPGAP_-&gt;PAKNYGDPFCSTXN</title>
<g id="a_edge27"><a xlink:href="bogus" xlink:title=" PAKNYGDPGAP_ -&gt; PAKNYGDPFCSTXN Min. att. -56%  max: 7987%">
<path fill="none" stroke="black" stroke-width="8" d="M644.7,-130.95C650.35,-128.31 655.81,-125.34 661,-122 685.26,-106.4 672.76,-83.64 697,-68 707.43,-61.27 718.98,-56.04 730.98,-52"/>
<polygon fill="black" stroke="black" stroke-width="8" points="733.2,-58.64 740.69,-49 729.08,-45.26 733.2,-58.64"/>
</a>
</g>
</g>
<!-- PAKFMLBLPOLYXN -->
<g id="node16" class="node">
<title>PAKFMLBLPOLYXN</title>
<g id="a_node16"><a xlink:title="Policy Rate
FRML &lt;Z,EXO&gt; PAKFMLBLPOLYXN = (-100*PAKFMLBLPOLYXN_A+100* (0.905129162122953*PAKFMLBLPOLYXN(-1)/100+(1-0.905129162122953)*(PAKMPPOLNATRXN/100+1.2*(((LOG(PAKNECONPRVTXN))-(LOG(PAKNECONPRVTXN(-1))))-PAKINFLEXPT/100)+0.5*PAKNYGDPGAP_/100)) ) * (1-PAKFMLBLPOLYXN_D)+ PAKFMLBLPOLYXN_X*PAKFMLBLPOLYXN_D  $">
<polygon fill="#63b8ff" stroke="black" points="964.5,-167 759.5,-167 759.5,-131 964.5,-131 964.5,-167"/>
<text text-anchor="start" x="766" y="-144.8" font-family="Times New Roman,serif" font-size="14.00" fill="blue">PAKFMLBLPOLYXN:Policy Rate</text>
</a>
</g>
</g>
<!-- PAKNYGDPGAP_&#45;&gt;PAKFMLBLPOLYXN -->
<g id="edge20" class="edge">
<title>PAKNYGDPGAP_-&gt;PAKFMLBLPOLYXN</title>
<g id="a_edge20"><a xlink:href="bogus" xlink:title=" PAKNYGDPGAP_ -&gt; PAKFMLBLPOLYXN Min. att. -15%  max: 83%">
<path fill="none" stroke="black" stroke-width="8" d="M647.51,-149C681.54,-149 716.99,-149 748.99,-149"/>
<polygon fill="black" stroke="black" stroke-width="8" points="749.26,-156 759.26,-149 749.26,-142 749.26,-156"/>
</a>
</g>
</g>
<!-- PAKNEGDIKSTKKN -->
<g id="node3" class="node">
<title>PAKNEGDIKSTKKN</title>
<g id="a_node3"><a xlink:title="Domestic Capital
FRML  &lt;&gt; PAKNEGDIKSTKKN = (PAKNEGDIKSTKKN(-1)*(1-PAKDEPR))+PAKNEGDIFTOTKN2-2*PAKHURDAMKN $">
<polygon fill="#63b8ff" stroke="black" points="610.5,-383 375.5,-383 375.5,-347 610.5,-347 610.5,-383"/>
<text text-anchor="start" x="382" y="-360.8" font-family="Times New Roman,serif" font-size="14.00" fill="blue">PAKNEGDIKSTKKN:Domestic Capital</text>
</a>
</g>
</g>
<!-- PAKNEGDIFPRVKN -->
<g id="node7" class="node">
<title>PAKNEGDIFPRVKN</title>
<g id="a_node7"><a xlink:title="Private Investment
FRML &lt;Z,EXO&gt; PAKNEGDIFPRVKN = (-PAKNEGDIFPRVKN_A*PAKNEGDIKSTKKN(-1)+ (-0.00526826150713402+0.826734606421746*(PAKNEGDIFPRVKN(-1)/PAKNEGDIKSTKKN(-2))+(1-0.826734606421746)*(((LOG(PAKNYGDPPOTLKN))-(LOG(PAKNYGDPPOTLKN(-1))))+PAKDEPR)-0.00378813564556318*((LOG(PAKNEKRTTOTLCN/PAKNYGDPFCSTXN))-(LOG(PAKNEKRTTOTLCN(-1)/PAKNYGDPFCSTXN(-1))))) *PAKNEGDIKSTKKN(-1)) * (1-PAKNEGDIFPRVKN_D)+ PAKNEGDIFPRVKN_X*PAKNEGDIFPRVKN_D  $">
<polygon fill="#63b8ff" stroke="black" points="982,-426 742,-426 742,-390 982,-390 982,-426"/>
<text text-anchor="start" x="748" y="-403.8" font-family="Times New Roman,serif" font-size="14.00" fill="blue">PAKNEGDIFPRVKN:Private Investment</text>
</a>
</g>
</g>
<!-- PAKNEGDIKSTKKN&#45;&gt;PAKNEGDIFPRVKN -->
<g id="edge24" class="edge">
<title>PAKNEGDIKSTKKN-&gt;PAKNEGDIFPRVKN</title>
<g id="a_edge24"><a xlink:href="bogus" xlink:title=" PAKNEGDIKSTKKN -&gt; PAKNEGDIFPRVKN Min. att. 0%  max: 76%">
<path fill="none" stroke="black" stroke-width="7.57" d="M610.63,-378.66C649.23,-383.19 692.4,-388.25 731.88,-392.87"/>
<polygon fill="black" stroke="black" stroke-width="7.57" points="731.14,-399.45 741.84,-394.04 732.68,-386.3 731.14,-399.45"/>
</a>
</g>
</g>
<!-- PAKNEGDETTOTKN -->
<g id="node4" class="node">
<title>PAKNEGDETTOTKN</title>
<g id="a_node4"><a xlink:title="GDE
FRML  &lt;&gt; PAKNEGDETTOTKN = (PAKNECONPRVTKN+PAKNECONGOVTKN+PAKNEGDIFTOTKN+PAKNEGDISTKBKN+PAKNYGDPDISCKN) $">
<polygon fill="#63b8ff" stroke="black" points="1599.5,-263 1429.5,-263 1429.5,-227 1599.5,-227 1599.5,-263"/>
<text text-anchor="start" x="1435.5" y="-240.8" font-family="Times New Roman,serif" font-size="14.00" fill="blue">PAKNEGDETTOTKN:GDE</text>
</a>
</g>
</g>
<!-- PAKNEGDETTOTKN&#45;&gt;PAKNEIMPGNFSKN -->
<g id="edge18" class="edge">
<title>PAKNEGDETTOTKN-&gt;PAKNEIMPGNFSKN</title>
<g id="a_edge18"><a xlink:href="bogus" xlink:title=" PAKNEGDETTOTKN -&gt; PAKNEIMPGNFSKN Min. att. -755%  max: 207%">
<path fill="none" stroke="black" stroke-width="8" d="M1565.97,-226.93C1608.05,-211.87 1668.1,-190.37 1712.61,-174.44"/>
<polygon fill="black" stroke="black" stroke-width="8" points="1715.09,-180.99 1722.15,-171.03 1710.37,-167.81 1715.09,-180.99"/>
</a>
</g>
</g>
<!-- PAKNYGDPFCSTXN&#45;&gt;PAKNEIMPGNFSKN -->
<g id="edge34" class="edge">
<title>PAKNYGDPFCSTXN-&gt;PAKNEIMPGNFSKN</title>
<g id="a_edge34"><a xlink:href="bogus" xlink:title=" PAKNYGDPFCSTXN -&gt; PAKNEIMPGNFSKN Min. att. -1112%  max: 296%">
<path fill="none" stroke="black" stroke-width="8" d="M983.19,-47.68C998.84,-52.21 1013.94,-58.73 1027,-68 1054.25,-87.34 1034.5,-116.56 1063,-134 1111.76,-163.83 1462.58,-160.4 1651.97,-156.25"/>
<polygon fill="black" stroke="black" stroke-width="8" points="1652.14,-163.25 1661.98,-156.03 1651.82,-149.25 1652.14,-163.25"/>
</a>
</g>
</g>
<!-- PAKNEGDIFGOVKN -->
<g id="node6" class="node">
<title>PAKNEGDIFGOVKN</title>
<g id="a_node6"><a xlink:title="Government Investment
FRML  &lt;&gt; PAKNEGDIFGOVKN = PAKNEGDIFGOVCN/PAKNEGDIFGOVXN $">
<polygon fill="#63b8ff" stroke="black" points="999,-545 725,-545 725,-509 999,-509 999,-545"/>
<text text-anchor="start" x="731" y="-522.8" font-family="Times New Roman,serif" font-size="14.00" fill="blue">PAKNEGDIFGOVKN:Government Investment</text>
</a>
</g>
</g>
<!-- PAKNEGDIFTOTKN -->
<g id="node10" class="node">
<title>PAKNEGDIFTOTKN</title>
<g id="a_node10"><a xlink:title="Total Gross Capital Formation
FRML  &lt;&gt; PAKNEGDIFTOTKN = PAKNEGDIFGOVKN+PAKNEGDIFPRVKN $">
<polygon fill="#63b8ff" stroke="black" points="1367,-414 1063,-414 1063,-378 1367,-378 1367,-414"/>
<text text-anchor="start" x="1069" y="-391.8" font-family="Times New Roman,serif" font-size="14.00" fill="blue">PAKNEGDIFTOTKN:Total Gross Capital Formation</text>
</a>
</g>
</g>
<!-- PAKNEGDIFGOVKN&#45;&gt;PAKNEGDIFTOTKN -->
<g id="edge12" class="edge">
<title>PAKNEGDIFGOVKN-&gt;PAKNEGDIFTOTKN</title>
<g id="a_edge12"><a xlink:href="bogus" xlink:title=" PAKNEGDIFGOVKN -&gt; PAKNEGDIFTOTKN Min. att. 6%  max: 105%">
<path fill="none" stroke="black" stroke-width="8" d="M911.44,-508.92C975.25,-485.11 1087.37,-443.26 1155.74,-417.74"/>
<polygon fill="black" stroke="black" stroke-width="8" points="1158.58,-424.16 1165.5,-414.1 1153.68,-411.04 1158.58,-424.16"/>
</a>
</g>
</g>
<!-- PAKNEGDIFPRVKN&#45;&gt;PAKNEGDIFTOTKN -->
<g id="edge22" class="edge">
<title>PAKNEGDIFPRVKN-&gt;PAKNEGDIFTOTKN</title>
<g id="a_edge22"><a xlink:href="bogus" xlink:title=" PAKNEGDIFPRVKN -&gt; PAKNEGDIFTOTKN Min. att. -5%  max: 94%">
<path fill="none" stroke="black" stroke-width="8" d="M982.32,-403.92C1004.93,-403.15 1028.93,-402.33 1052.58,-401.52"/>
<polygon fill="black" stroke="black" stroke-width="8" points="1052.94,-408.51 1062.69,-401.17 1052.46,-394.52 1052.94,-408.51"/>
</a>
</g>
</g>
<!-- PAKNECONGOVTCN -->
<g id="node8" class="node">
<title>PAKNECONGOVTCN</title>
<g id="a_node8"><a xlink:title="Government consumption (G&amp;S)
FRML &lt;Z,EXO&gt; PAKNECONGOVTCN = (-PAKNECONGOVTCN_A*PAKNECONGOVTCN(-1)/100+ ((100 * ( (PAKGGEXPGNFSCN) / (PAKGGEXPGNFSCN(-1)) -1)) +0.764199817873939*DUMH) *PAKNECONGOVTCN(-1)/100+PAKNECONGOVTCN(-1)) * (1-PAKNECONGOVTCN_D)+ PAKNECONGOVTCN_X*PAKNECONGOVTCN_D  $">
<polygon fill="#63b8ff" stroke="black" points="1026.5,-113 697.5,-113 697.5,-77 1026.5,-77 1026.5,-113"/>
<text text-anchor="start" x="704" y="-90.8" font-family="Times New Roman,serif" font-size="14.00" fill="blue">PAKNECONGOVTCN:Government consumption (G&amp;S)</text>
</a>
</g>
</g>
<!-- PAKNECONGOVTKN -->
<g id="node20" class="node">
<title>PAKNECONGOVTKN</title>
<g id="a_node20"><a xlink:title="Government Consumption
FRML  &lt;&gt; PAKNECONGOVTKN = PAKNECONGOVTCN/PAKNECONGOVTXN $">
<polygon fill="#63b8ff" stroke="black" points="1361,-217 1069,-217 1069,-181 1361,-181 1361,-217"/>
<text text-anchor="start" x="1075" y="-194.8" font-family="Times New Roman,serif" font-size="14.00" fill="blue">PAKNECONGOVTKN:Government Consumption</text>
</a>
</g>
</g>
<!-- PAKNECONGOVTCN&#45;&gt;PAKNECONGOVTKN -->
<g id="edge32" class="edge">
<title>PAKNECONGOVTCN-&gt;PAKNECONGOVTKN</title>
<g id="a_edge32"><a xlink:href="bogus" xlink:title=" PAKNECONGOVTCN -&gt; PAKNECONGOVTKN Min. att. 117%  max: 963%">
<path fill="none" stroke="black" stroke-width="8" d="M1009.03,-113.05C1015.25,-115.68 1021.27,-118.65 1027,-122 1049.1,-134.94 1041.2,-153.56 1063,-167 1069.19,-170.82 1075.77,-174.19 1082.59,-177.16"/>
<polygon fill="black" stroke="black" stroke-width="8" points="1080.11,-183.71 1092.01,-180.97 1085.36,-170.73 1080.11,-183.71"/>
</a>
</g>
</g>
<!-- PAKNEGDIFTOTKN&#45;&gt;PAKNEGDETTOTKN -->
<g id="edge2" class="edge">
<title>PAKNEGDIFTOTKN-&gt;PAKNEGDETTOTKN</title>
<g id="a_edge2"><a xlink:href="bogus" xlink:title=" PAKNEGDIFTOTKN -&gt; PAKNEGDETTOTKN Min. att. -1115%  max: 1147%">
<path fill="none" stroke="black" stroke-width="8" d="M1251.59,-377.94C1305.9,-350.37 1409.41,-297.83 1468.74,-267.72"/>
<polygon fill="black" stroke="black" stroke-width="8" points="1472.12,-273.85 1477.87,-263.08 1465.78,-261.37 1472.12,-273.85"/>
</a>
</g>
</g>
<!-- PAKNEGDIFTOTKN&#45;&gt;PAKNYGDPMKTPKN -->
<g id="edge16" class="edge">
<title>PAKNEGDIFTOTKN-&gt;PAKNYGDPMKTPKN</title>
<g id="a_edge16"><a xlink:href="bogus" xlink:title=" PAKNEGDIFTOTKN -&gt; PAKNYGDPMKTPKN Min. att. -36%  max: 366%">
<path fill="none" stroke="black" stroke-width="8" d="M1322.03,-377.97C1453.95,-355.54 1686.12,-316.02 1885,-282 1917.64,-276.42 1953.05,-270.34 1985.56,-264.76"/>
<polygon fill="black" stroke="black" stroke-width="8" points="1986.88,-271.64 1995.55,-263.05 1984.51,-257.84 1986.88,-271.64"/>
</a>
</g>
</g>
<!-- PAKNECONGOVTXN -->
<g id="node11" class="node">
<title>PAKNECONGOVTXN</title>
<g id="a_node11"><a xlink:title="Government consumption (G&amp;S)
FRML &lt;Z,EXO&gt; PAKNECONGOVTXN = (PAKNECONGOVTXN(-1)*EXP(-PAKNECONGOVTXN_A+ (-0.3*(LOG(PAKNECONGOVTXN(-1))-LOG(PAKNECONPRVTXN(-1)))+0.0752362082122748+0.5*((LOG(PAKNECONGOVTXN(-1)))-(LOG(PAKNECONGOVTXN(-2))))+(1-0.5)*((LOG(PAKNECONPRVTXN))-(LOG(PAKNECONPRVTXN(-1))))) )) * (1-PAKNECONGOVTXN_D)+ PAKNECONGOVTXN_X*PAKNECONGOVTXN_D  $">
<polygon fill="#63b8ff" stroke="black" points="1027,-221 697,-221 697,-185 1027,-185 1027,-221"/>
<text text-anchor="start" x="703" y="-198.8" font-family="Times New Roman,serif" font-size="14.00" fill="blue">PAKNECONGOVTXN:Government consumption (G&amp;S)</text>
</a>
</g>
</g>
<!-- PAKNECONGOVTXN&#45;&gt;PAKNECONGOVTKN -->
<g id="edge23" class="edge">
<title>PAKNECONGOVTXN-&gt;PAKNECONGOVTKN</title>
<g id="a_edge23"><a xlink:href="bogus" xlink:title=" PAKNECONGOVTXN -&gt; PAKNECONGOVTKN Min. att. -867%  max: -19%">
<path fill="none" stroke="black" stroke-width="8" d="M1027.2,-201.13C1037.74,-201.01 1048.34,-200.89 1058.85,-200.77"/>
<polygon fill="black" stroke="black" stroke-width="8" points="1058.96,-207.77 1068.88,-200.65 1058.8,-193.77 1058.96,-207.77"/>
</a>
</g>
</g>
<!-- PAKNECONPRVTKN -->
<g id="node12" class="node">
<title>PAKNECONPRVTKN</title>
<g id="a_node12"><a xlink:title="Household Consumption
FRML &lt;Z,EXO&gt; PAKNECONPRVTKN = (PAKNECONPRVTKN(-1)*EXP(-PAKNECONPRVTKN_A+ (-0.2*(LOG(PAKNECONPRVTKN(-1))-LOG((PAKNYYWBTOTLCN(-1)*(1-PAKGGREVDRCTXN(-1)/100))/PAKNECONPRVTXN(-1)))+1*((LOG((PAKNYYWBTOTLCN*(1-PAKGGREVDRCTXN/100))/PAKNECONPRVTXN))-(LOG((PAKNYYWBTOTLCN(-1)*(1-PAKGGREVDRCTXN(-1)/100))/PAKNECONPRVTXN(-1))))+0.0303228629698929+0.0163839011059956*DURING_2010-0.3*(PAKFMLBLPOLYXN/100-((LOG(PAKNECONPRVTXN))-(LOG(PAKNECONPRVTXN(-1)))))) )) * (1-PAKNECONPRVTKN_D)+ PAKNECONPRVTKN_X*PAKNECONPRVTKN_D  $">
<polygon fill="#63b8ff" stroke="black" points="1354,-271 1076,-271 1076,-235 1354,-235 1354,-271"/>
<text text-anchor="start" x="1082" y="-248.8" font-family="Times New Roman,serif" font-size="14.00" fill="blue">PAKNECONPRVTKN:Household Consumption</text>
</a>
</g>
</g>
<!-- PAKNECONPRVTKN&#45;&gt;PAKNEGDETTOTKN -->
<g id="edge21" class="edge">
<title>PAKNECONPRVTKN-&gt;PAKNEGDETTOTKN</title>
<g id="a_edge21"><a xlink:href="bogus" xlink:title=" PAKNECONPRVTKN -&gt; PAKNEGDETTOTKN Min. att. -2284%  max: 2484%">
<path fill="none" stroke="black" stroke-width="8" d="M1354.3,-249.28C1376.34,-248.69 1398.68,-248.09 1419.39,-247.53"/>
<polygon fill="black" stroke="black" stroke-width="8" points="1419.6,-254.53 1429.41,-247.26 1419.23,-240.53 1419.6,-254.53"/>
</a>
</g>
</g>
<!-- PAKNECONPRVTKN&#45;&gt;PAKNYGDPMKTPKN -->
<g id="edge3" class="edge">
<title>PAKNECONPRVTKN-&gt;PAKNYGDPMKTPKN</title>
<g id="a_edge3"><a xlink:href="bogus" xlink:title=" PAKNECONPRVTKN -&gt; PAKNYGDPMKTPKN Min. att. -1557%  max: 290%">
<path fill="none" stroke="black" stroke-width="8" d="M1354.25,-268.63C1370.66,-270.02 1387.19,-271.2 1403,-272 1574.82,-280.71 1770.58,-271.45 1910.89,-261.48"/>
<polygon fill="black" stroke="black" stroke-width="8" points="1911.42,-268.46 1920.89,-260.76 1910.41,-254.5 1911.42,-268.46"/>
</a>
</g>
</g>
<!-- PAKNYGDPPOTLKN -->
<g id="node13" class="node">
<title>PAKNYGDPPOTLKN</title>
<g id="a_node13"><a xlink:title="Potential GDP
FRML  &lt;&gt; PAKNYGDPPOTLKN = PAKNYGDPTFP*(PAKLMEMPSTRLCN**PAKNYYWBTOTLCN_)*(PAKNEGDIKSTKKN(-1)**(1-PAKNYYWBTOTLCN_)) $">
<polygon fill="#63b8ff" stroke="black" points="603.5,-491 382.5,-491 382.5,-455 603.5,-455 603.5,-491"/>
<text text-anchor="start" x="389" y="-468.8" font-family="Times New Roman,serif" font-size="14.00" fill="blue">PAKNYGDPPOTLKN:Potential GDP</text>
</a>
</g>
</g>
<!-- PAKNYGDPPOTLKN&#45;&gt;PAKNEGDIFPRVKN -->
<g id="edge26" class="edge">
<title>PAKNYGDPPOTLKN-&gt;PAKNEGDIFPRVKN</title>
<g id="a_edge26"><a xlink:href="bogus" xlink:title=" PAKNYGDPPOTLKN -&gt; PAKNEGDIFPRVKN Min. att. -8%  max: 66%">
<path fill="none" stroke="black" stroke-width="6.61" d="M603.67,-455.71C622.79,-452.57 642.49,-449.25 661,-446 692.88,-440.4 727.55,-433.94 758.93,-427.95"/>
<polygon fill="black" stroke="black" stroke-width="6.61" points="760.26,-433.59 769,-426.03 758.09,-422.22 760.26,-433.59"/>
</a>
</g>
</g>
<!-- PAKNECONOTHRXN -->
<g id="node14" class="node">
<title>PAKNECONOTHRXN</title>
<g id="a_node14"><a xlink:title="Non-Energy Consumption
FRML &lt;Z,EXO&gt; PAKNECONOTHRXN = (PAKNECONOTHRXN(-1)*EXP(-PAKNECONOTHRXN_A+ (0.598859116610832*((LOG(PAKNYGDPFCSTXN))-(LOG(PAKNYGDPFCSTXN(-1))))+((PAKGGREVGNFSXN/100)-(PAKGGREVGNFSXN(-1)/100))+(1-0.598859116610832)*((LOG(PAKNEIMPGNFSXN))-(LOG(PAKNEIMPGNFSXN(-1))))+0.2*PAKNYGDPGAP_/100) )) * (1-PAKNECONOTHRXN_D)+ PAKNECONOTHRXN_X*PAKNECONOTHRXN_D  $">
<polygon fill="#63b8ff" stroke="black" points="289,-248 0,-248 0,-212 289,-212 289,-248"/>
<text text-anchor="start" x="6.5" y="-225.8" font-family="Times New Roman,serif" font-size="14.00" fill="blue">PAKNECONOTHRXN:Non-Energy Consumption</text>
</a>
</g>
</g>
<!-- PAKNECONPRVTXN -->
<g id="node29" class="node">
<title>PAKNECONPRVTXN</title>
<g id="a_node29"><a xlink:title="Household demand
FRML  &lt;&gt; PAKNECONPRVTXN = ((PAKNECONENGYSH**PAKCESENGYCON)*PAKNECONENGYXN**(1-PAKCESENGYCON)+(PAKNECONOTHRSH**PAKCESENGYCON)*PAKNECONOTHRXN**(1-PAKCESENGYCON))**(1/(1-PAKCESENGYCON)) $">
<polygon fill="#63b8ff" stroke="black" points="617,-221 369,-221 369,-185 617,-185 617,-221"/>
<text text-anchor="start" x="375" y="-198.8" font-family="Times New Roman,serif" font-size="14.00" fill="blue">PAKNECONPRVTXN:Household demand</text>
</a>
</g>
</g>
<!-- PAKNECONOTHRXN&#45;&gt;PAKNECONPRVTXN -->
<g id="edge4" class="edge">
<title>PAKNECONOTHRXN-&gt;PAKNECONPRVTXN</title>
<g id="a_edge4"><a xlink:href="bogus" xlink:title=" PAKNECONOTHRXN -&gt; PAKNECONPRVTXN Min. att. 71%  max: 99%">
<path fill="none" stroke="black" stroke-width="8" d="M289.19,-218.8C312.28,-217 336.1,-215.15 358.93,-213.37"/>
<polygon fill="black" stroke="black" stroke-width="8" points="359.57,-220.34 369,-212.58 358.49,-206.38 359.57,-220.34"/>
</a>
</g>
</g>
<!-- PAKNEKRTTOTLCN -->
<g id="node15" class="node">
<title>PAKNEKRTTOTLCN</title>
<g id="a_node15"><a xlink:title="PAKNEKRTTOTLCN
FRML &lt;Z,EXO&gt; PAKNEKRTTOTLCN = (-PAKNEKRTTOTLCN_A+ (((PAKUCK)-(PAKUCK(-1)))+7.05881784375082E-05*DUMH) +PAKNEKRTTOTLCN(-1)) * (1-PAKNEKRTTOTLCN_D)+ PAKNEKRTTOTLCN_X*PAKNEKRTTOTLCN_D  $">
<polygon fill="#63b8ff" stroke="black" points="563,-437 423,-437 423,-401 563,-401 563,-437"/>
<text text-anchor="start" x="429" y="-414.8" font-family="Times New Roman,serif" font-size="14.00" fill="blue">PAKNEKRTTOTLCN:</text>
</a>
</g>
</g>
<!-- PAKNEKRTTOTLCN&#45;&gt;PAKNEGDIFPRVKN -->
<g id="edge15" class="edge">
<title>PAKNEKRTTOTLCN-&gt;PAKNEGDIFPRVKN</title>
<g id="a_edge15"><a xlink:href="bogus" xlink:title=" PAKNEKRTTOTLCN -&gt; PAKNEGDIFPRVKN Min. att. -0%  max: 90%">
<path fill="none" stroke="black" stroke-width="8" d="M563.03,-416.93C610.43,-415.51 674.8,-413.58 731.59,-411.88"/>
<polygon fill="black" stroke="black" stroke-width="8" points="731.94,-418.87 741.73,-411.57 731.52,-404.88 731.94,-418.87"/>
</a>
</g>
</g>
<!-- PAKFMLBLPOLYXN&#45;&gt;PAKNECONPRVTKN -->
<g id="edge6" class="edge">
<title>PAKFMLBLPOLYXN-&gt;PAKNECONPRVTKN</title>
<g id="a_edge6"><a xlink:href="bogus" xlink:title=" PAKFMLBLPOLYXN -&gt; PAKNECONPRVTKN Min. att. -160%  max: 20%">
<path fill="none" stroke="black" stroke-width="8" d="M964.58,-153.14C986.34,-157.37 1008.36,-164.44 1027,-176 1050.27,-190.43 1039.83,-211.41 1063,-226 1065.48,-227.56 1068.03,-229.04 1070.64,-230.44"/>
<polygon fill="black" stroke="black" stroke-width="8" points="1067.63,-236.76 1079.69,-234.89 1073.8,-224.2 1067.63,-236.76"/>
</a>
</g>
</g>
<!-- PAKNEGDIFGOVXN -->
<g id="node17" class="node">
<title>PAKNEGDIFGOVXN</title>
<g id="a_node17"><a xlink:title="Government Investment
FRML &lt;Z,EXO&gt; PAKNEGDIFGOVXN = (PAKNEGDIFGOVXN(-1)*EXP(-PAKNEGDIFGOVXN_A+ (-0.480254922468272*(LOG(PAKNEGDIFGOVXN(-1))-LOG(PAKNECONPRVTXN(-1)))+0.00720714576835064+0.0731599680348391*((LOG(PAKNEGDIFGOVXN(-1)))-(LOG(PAKNEGDIFGOVXN(-2))))+(1-0.0731599680348391)*((LOG(PAKNECONPRVTXN))-(LOG(PAKNECONPRVTXN(-1))))) )) * (1-PAKNEGDIFGOVXN_D)+ PAKNEGDIFGOVXN_X*PAKNEGDIFGOVXN_D  $">
<polygon fill="#63b8ff" stroke="black" points="630,-545 356,-545 356,-509 630,-509 630,-545"/>
<text text-anchor="start" x="362" y="-522.8" font-family="Times New Roman,serif" font-size="14.00" fill="blue">PAKNEGDIFGOVXN:Government Investment</text>
</a>
</g>
</g>
<!-- PAKNEGDIFGOVXN&#45;&gt;PAKNEGDIFGOVKN -->
<g id="edge7" class="edge">
<title>PAKNEGDIFGOVXN-&gt;PAKNEGDIFGOVKN</title>
<g id="a_edge7"><a xlink:href="bogus" xlink:title=" PAKNEGDIFGOVXN -&gt; PAKNEGDIFGOVKN Min. att. -892%  max: -32%">
<path fill="none" stroke="black" stroke-width="8" d="M630.14,-527C657.66,-527 686.71,-527 714.57,-527"/>
<polygon fill="black" stroke="black" stroke-width="8" points="714.78,-534 724.78,-527 714.78,-520 714.78,-534"/>
</a>
</g>
</g>
<!-- PAKNEIMPGNFSXN -->
<g id="node18" class="node">
<title>PAKNEIMPGNFSXN</title>
<g id="a_node18"><a xlink:title="Imports (G&amp;S)
FRML  &lt;&gt; PAKNEIMPGNFSXN = ((PAKNEIMPENGYSH**PAKCESENGYIMPT)*PAKNVENGNIMPXN**(1-PAKCESENGYIMPT)+(PAKNEIMPOTHRSH**PAKCESENGYIMPT)*PAKNEIMPGSNEXN**(1-PAKCESENGYIMPT))**(1/(1-PAKCESENGYIMPT)) $">
<polygon fill="#63b8ff" stroke="black" points="1626,-125 1403,-125 1403,-89 1626,-89 1626,-125"/>
<text text-anchor="start" x="1409.5" y="-102.8" font-family="Times New Roman,serif" font-size="14.00" fill="blue">PAKNEIMPGNFSXN:Imports (G&amp;S)</text>
</a>
</g>
</g>
<!-- PAKNEIMPGNFSXN&#45;&gt;PAKNEIMPGNFSKN -->
<g id="edge11" class="edge">
<title>PAKNEIMPGNFSXN-&gt;PAKNEIMPGNFSKN</title>
<g id="a_edge11"><a xlink:href="bogus" xlink:title=" PAKNEIMPGNFSXN -&gt; PAKNEIMPGNFSKN Min. att. -390%  max: 1559%">
<path fill="none" stroke="black" stroke-width="8" d="M1616.34,-125.05C1631.22,-127.71 1646.62,-130.47 1661.69,-133.17"/>
<polygon fill="black" stroke="black" stroke-width="8" points="1660.46,-140.06 1671.53,-134.93 1662.92,-126.28 1660.46,-140.06"/>
</a>
</g>
</g>
<!-- PAKNEIMPGSNEXN -->
<g id="node19" class="node">
<title>PAKNEIMPGSNEXN</title>
<g id="a_node19"><a xlink:title="Imports (Non-energy)
FRML &lt;Z,EXO&gt; PAKNEIMPGSNEXN = (PAKNEIMPGSNEXN(-1)*EXP(-PAKNEIMPGSNEXN_A+ (-0.278529319815428*(LOG(PAKNEIMPGSNEXN(-1))-0.3*LOG(PAKNYGDPFCSTXN(-1))-(1-0.3)*LOG(PAKPMKEY(-1)*PAKPANUSATLS(-1)))+0.4*((LOG(PAKNYGDPFCSTXN))-(LOG(PAKNYGDPFCSTXN(-1))))+(1-0.4)*((LOG(PAKPMKEY*PAKPANUSATLS))-(LOG(PAKPMKEY(-1)*PAKPANUSATLS(-1))))-0.888813883474775+0.135666902654654*DURING_2012+0.216228696118762*DURING_2008) )) * (1-PAKNEIMPGSNEXN_D)+ PAKNEIMPGSNEXN_X*PAKNEIMPGSNEXN_D  $">
<polygon fill="#63b8ff" stroke="black" points="1345,-125 1085,-125 1085,-89 1345,-89 1345,-125"/>
<text text-anchor="start" x="1091" y="-102.8" font-family="Times New Roman,serif" font-size="14.00" fill="blue">PAKNEIMPGSNEXN:Imports (Non-energy)</text>
</a>
</g>
</g>
<!-- PAKNEIMPGSNEXN&#45;&gt;PAKNEIMPGNFSXN -->
<g id="edge1" class="edge">
<title>PAKNEIMPGSNEXN-&gt;PAKNEIMPGNFSXN</title>
<g id="a_edge1"><a xlink:href="bogus" xlink:title=" PAKNEIMPGSNEXN -&gt; PAKNEIMPGNFSXN Min. att. -4%  max: 63%">
<path fill="none" stroke="black" stroke-width="6.33" d="M1345.19,-107C1360.88,-107 1376.87,-107 1392.44,-107"/>
<polygon fill="black" stroke="black" stroke-width="6.33" points="1392.6,-112.54 1402.6,-107 1392.6,-101.46 1392.6,-112.54"/>
</a>
</g>
</g>
<!-- PAKNECONGOVTKN&#45;&gt;PAKNEGDETTOTKN -->
<g id="edge28" class="edge">
<title>PAKNECONGOVTKN-&gt;PAKNEGDETTOTKN</title>
<g id="a_edge28"><a xlink:href="bogus" xlink:title=" PAKNECONGOVTKN -&gt; PAKNEGDETTOTKN Min. att. -1269%  max: 1236%">
<path fill="none" stroke="black" stroke-width="8" d="M1332.73,-217.05C1361.43,-221.49 1391.81,-226.18 1419.3,-230.43"/>
<polygon fill="black" stroke="black" stroke-width="8" points="1418.34,-237.37 1429.29,-231.98 1420.48,-223.53 1418.34,-237.37"/>
</a>
</g>
</g>
<!-- PAKNECONGOVTKN&#45;&gt;PAKNYGDPMKTPKN -->
<g id="edge13" class="edge">
<title>PAKNECONGOVTKN-&gt;PAKNYGDPMKTPKN</title>
<g id="a_edge13"><a xlink:href="bogus" xlink:title=" PAKNECONGOVTKN -&gt; PAKNYGDPMKTPKN Min. att. -108%  max: 835%">
<path fill="none" stroke="black" stroke-width="8" d="M1361.18,-205.35C1439.61,-208.88 1538.11,-213.46 1626,-218 1719.73,-222.84 1823.84,-228.71 1910.61,-233.74"/>
<polygon fill="black" stroke="black" stroke-width="8" points="1910.44,-240.74 1920.83,-234.33 1911.25,-226.76 1910.44,-240.74"/>
</a>
</g>
</g>
<!-- PAKNYWRTTOTLCN -->
<g id="node21" class="node">
<title>PAKNYWRTTOTLCN</title>
<g id="a_node21"><a xlink:title="Wages
FRML  &lt;&gt; PAKNYWRTTOTLCN = (PAKNYWBINFMSH**PAKINFCES*(PAKNYWRTINFMCN)**(1-PAKINFCES)+PAKNYWBFORMSH**PAKINFCES*(PAKNYWRTFORMCN*(1+PAKGGREVDRCTXN/100))**(1-PAKINFCES))**(1/(1-PAKINFCES)) $">
<polygon fill="#63b8ff" stroke="black" points="583.5,-275 402.5,-275 402.5,-239 583.5,-239 583.5,-275"/>
<text text-anchor="start" x="409" y="-252.8" font-family="Times New Roman,serif" font-size="14.00" fill="blue">PAKNYWRTTOTLCN:Wages</text>
</a>
</g>
</g>
<!-- PAKNYYWBTOTLCN -->
<g id="node23" class="node">
<title>PAKNYYWBTOTLCN</title>
<g id="a_node23"><a xlink:title="Economy-wide wage bill
FRML  &lt;&gt; PAKNYYWBTOTLCN = PAKNYWRTTOTLCN*PAKLMEMPTOTLCN $">
<polygon fill="#63b8ff" stroke="black" points="1004.5,-313 719.5,-313 719.5,-277 1004.5,-277 1004.5,-313"/>
<text text-anchor="start" x="726" y="-290.8" font-family="Times New Roman,serif" font-size="14.00" fill="blue">PAKNYYWBTOTLCN:Economy-wide wage bill</text>
</a>
</g>
</g>
<!-- PAKNYWRTTOTLCN&#45;&gt;PAKNYYWBTOTLCN -->
<g id="edge14" class="edge">
<title>PAKNYWRTTOTLCN-&gt;PAKNYYWBTOTLCN</title>
<g id="a_edge14"><a xlink:href="bogus" xlink:title=" PAKNYWRTTOTLCN -&gt; PAKNYYWBTOTLCN Min. att. 16%  max: 106%">
<path fill="none" stroke="black" stroke-width="8" d="M583.78,-266.3C621.5,-270.2 666.44,-274.85 709.04,-279.27"/>
<polygon fill="black" stroke="black" stroke-width="8" points="708.57,-286.25 719.24,-280.32 710.01,-272.33 708.57,-286.25"/>
</a>
</g>
</g>
<!-- PAKNEGDIFGOVCN -->
<g id="node22" class="node">
<title>PAKNEGDIFGOVCN</title>
<g id="a_node22"><a xlink:title="Government Investment
FRML &lt;Z,EXO&gt; PAKNEGDIFGOVCN = (PAKNEGDIFGOVCN(-1)*EXP(-PAKNEGDIFGOVCN_A+ (((LOG(PAKGGEXPCAPTCN))-(LOG(PAKGGEXPCAPTCN(-1))))-0.00510713331489238*DUMH) )) * (1-PAKNEGDIFGOVCN_D)+ PAKNEGDIFGOVCN_X*PAKNEGDIFGOVCN_D  $">
<polygon fill="#63b8ff" stroke="black" points="629.5,-599 356.5,-599 356.5,-563 629.5,-563 629.5,-599"/>
<text text-anchor="start" x="363" y="-576.8" font-family="Times New Roman,serif" font-size="14.00" fill="blue">PAKNEGDIFGOVCN:Government Investment</text>
</a>
</g>
</g>
<!-- PAKNEGDIFGOVCN&#45;&gt;PAKNEGDIFGOVKN -->
<g id="edge10" class="edge">
<title>PAKNEGDIFGOVCN-&gt;PAKNEGDIFGOVKN</title>
<g id="a_edge10"><a xlink:href="bogus" xlink:title=" PAKNEGDIFGOVCN -&gt; PAKNEGDIFGOVKN Min. att. 129%  max: 988%">
<path fill="none" stroke="black" stroke-width="8" d="M616.46,-562.98C652.38,-557.7 691.81,-551.89 728.33,-546.52"/>
<polygon fill="black" stroke="black" stroke-width="8" points="729.68,-553.4 738.55,-545.02 727.64,-539.55 729.68,-553.4"/>
</a>
</g>
</g>
<!-- PAKNYYWBTOTLCN&#45;&gt;PAKNECONPRVTKN -->
<g id="edge30" class="edge">
<title>PAKNYYWBTOTLCN-&gt;PAKNECONPRVTKN</title>
<g id="a_edge30"><a xlink:href="bogus" xlink:title=" PAKNYYWBTOTLCN -&gt; PAKNECONPRVTKN Min. att. -594%  max: 5823%">
<path fill="none" stroke="black" stroke-width="8" d="M1004.5,-278.07C1024.71,-275.65 1045.54,-273.16 1065.87,-270.73"/>
<polygon fill="black" stroke="black" stroke-width="8" points="1066.7,-277.68 1075.8,-269.54 1065.04,-263.77 1066.7,-277.68"/>
</a>
</g>
</g>
<!-- PAKGGEXPGNFSCN -->
<g id="node24" class="node">
<title>PAKGGEXPGNFSCN</title>
<g id="a_node24"><a xlink:title="Expenditure on Goods and Services
FRML &lt;Z,EXO&gt; PAKGGEXPGNFSCN = (0.3*PAKGGEXPGNFSCN(-1)+(1-0.3)*(0.80*(PAKGGREVTOTLCN-PAKGGEXPINTPCN(-0)))+505277.259999999*DURING_2012 + PAKGGEXPGNFSCN_A)* (1-PAKGGEXPGNFSCN_D)+ PAKGGEXPGNFSCN_X*PAKGGEXPGNFSCN_D  $">
<polygon fill="#63b8ff" stroke="black" points="661,-113 325,-113 325,-77 661,-77 661,-113"/>
<text text-anchor="start" x="331" y="-90.8" font-family="Times New Roman,serif" font-size="14.00" fill="blue">PAKGGEXPGNFSCN:Expenditure on Goods and Services</text>
</a>
</g>
</g>
<!-- PAKGGEXPGNFSCN&#45;&gt;PAKNECONGOVTCN -->
<g id="edge5" class="edge">
<title>PAKGGEXPGNFSCN-&gt;PAKNECONGOVTCN</title>
<g id="a_edge5"><a xlink:href="bogus" xlink:title=" PAKGGEXPGNFSCN -&gt; PAKNECONGOVTCN Min. att. -18%  max: 100%">
<path fill="none" stroke="black" stroke-width="8" d="M661.12,-95C669.76,-95 678.44,-95 687.1,-95"/>
<polygon fill="black" stroke="black" stroke-width="8" points="687.24,-102 697.24,-95 687.24,-88 687.24,-102"/>
</a>
</g>
</g>
<!-- PAKNECONENGYXN -->
<g id="node25" class="node">
<title>PAKNECONENGYXN</title>
<g id="a_node25"><a xlink:title="Energy Consumption
FRML &lt;Z,EXO&gt; PAKNECONENGYXN = (PAKNECONENGYXN(-1)*EXP(-PAKNECONENGYXN_A+ (((LOG(PAKNECONENGYGN))-(LOG(PAKNECONENGYGN(-1))))+0.0550557534575806*DUMH) )) * (1-PAKNECONENGYXN_D)+ PAKNECONENGYXN_X*PAKNECONENGYXN_D  $">
<polygon fill="#63b8ff" stroke="black" points="275.5,-194 13.5,-194 13.5,-158 275.5,-158 275.5,-194"/>
<text text-anchor="start" x="19.5" y="-171.8" font-family="Times New Roman,serif" font-size="14.00" fill="blue">PAKNECONENGYXN:Energy Consumption</text>
</a>
</g>
</g>
<!-- PAKNECONENGYXN&#45;&gt;PAKNECONPRVTXN -->
<g id="edge19" class="edge">
<title>PAKNECONENGYXN-&gt;PAKNECONPRVTXN</title>
<g id="a_edge19"><a xlink:href="bogus" xlink:title=" PAKNECONENGYXN -&gt; PAKNECONPRVTXN Min. att. 1%  max: 29%">
<path fill="none" stroke="black" stroke-width="2.91" d="M275.51,-186.13C302.7,-188.25 331.42,-190.49 358.73,-192.61"/>
<polygon fill="black" stroke="black" stroke-width="2.91" points="358.48,-196.11 368.72,-193.39 359.02,-189.13 358.48,-196.11"/>
</a>
</g>
</g>
<!-- PAKNVENGNIMPXN -->
<g id="node26" class="node">
<title>PAKNVENGNIMPXN</title>
<g id="a_node26"><a xlink:title="Energy Imports
FRML  &lt;&gt; PAKNVENGNIMPXN = ((PAKNVCOLNIMPSH**PAKCESENGYIMP)*PAKNVCOLPRODXN**(1-PAKCESENGYIMP)+(PAKNVOILNIMPSH**PAKCESENGYIMP)*PAKNVOILPRODXN**(1-PAKCESENGYIMP)+(PAKNVGASNIMPSH**PAKCESENGYIMP)*PAKNVGASPRODXN**(1-PAKCESENGYIMP)+(PAKNVRENNIMPSH**PAKCESENGYIMP)*PAKNVRENPRODXN**(1-PAKCESENGYIMP))**(1/(1-PAKCESENGYIMP)) $">
<polygon fill="#63b8ff" stroke="black" points="1329.5,-71 1100.5,-71 1100.5,-35 1329.5,-35 1329.5,-71"/>
<text text-anchor="start" x="1107" y="-48.8" font-family="Times New Roman,serif" font-size="14.00" fill="blue">PAKNVENGNIMPXN:Energy Imports</text>
</a>
</g>
</g>
<!-- PAKNVENGNIMPXN&#45;&gt;PAKNEIMPGNFSXN -->
<g id="edge25" class="edge">
<title>PAKNVENGNIMPXN-&gt;PAKNEIMPGNFSXN</title>
<g id="a_edge25"><a xlink:href="bogus" xlink:title=" PAKNVENGNIMPXN -&gt; PAKNEIMPGNFSXN Min. att. 37%  max: 104%">
<path fill="none" stroke="black" stroke-width="8" d="M1317.14,-71.01C1333.8,-74 1350.89,-77.07 1367,-80 1379.67,-82.3 1392.96,-84.73 1406.14,-87.15"/>
<polygon fill="black" stroke="black" stroke-width="8" points="1405.09,-94.07 1416.19,-88.99 1407.62,-80.3 1405.09,-94.07"/>
</a>
</g>
</g>
<!-- PAKLMEMPTOTLCN -->
<g id="node27" class="node">
<title>PAKLMEMPTOTLCN</title>
<g id="a_node27"><a xlink:title="Employment
FRML &lt;Z,EXO&gt; PAKLMEMPTOTLCN = (PAKLMEMPTOTLCN(-1)*EXP(-PAKLMEMPTOTLCN_A+ (-0.345624644563667*(LOG(PAKLMEMPTOTLCN(-1))-LOG(PAKLMEMPSTRLCN(-1)))-0.1*(((LOG(PAKNYWRTTOTLCN/PAKNYGDPFCSTXN))-(LOG(PAKNYWRTTOTLCN(-1)/PAKNYGDPFCSTXN(-1))))-((LOG(PAKNYGDPPOTLKN/PAKLMEMPSTRLCN))-(LOG(PAKNYGDPPOTLKN(-1)/PAKLMEMPSTRLCN(-1)))))-0.0011790007645121+((LOG(PAKLMEMPSTRLCN))-(LOG(PAKLMEMPSTRLCN(-1))))+0.175412878170024*PAKNYGDPGAP_/100+0.0369790799942338*DURING_2010) )) * (1-PAKLMEMPTOTLCN_D)+ PAKLMEMPTOTLCN_X*PAKLMEMPTOTLCN_D  $">
<polygon fill="#63b8ff" stroke="black" points="601.5,-329 384.5,-329 384.5,-293 601.5,-293 601.5,-329"/>
<text text-anchor="start" x="391" y="-306.8" font-family="Times New Roman,serif" font-size="14.00" fill="blue">PAKLMEMPTOTLCN:Employment</text>
</a>
</g>
</g>
<!-- PAKLMEMPTOTLCN&#45;&gt;PAKNYYWBTOTLCN -->
<g id="edge31" class="edge">
<title>PAKLMEMPTOTLCN-&gt;PAKNYYWBTOTLCN</title>
<g id="a_edge31"><a xlink:href="bogus" xlink:title=" PAKLMEMPTOTLCN -&gt; PAKNYYWBTOTLCN Min. att. -6%  max: 84%">
<path fill="none" stroke="black" stroke-width="8" d="M601.63,-306.31C635.27,-304.84 673.04,-303.19 709.13,-301.62"/>
<polygon fill="black" stroke="black" stroke-width="8" points="709.57,-308.61 719.25,-301.18 708.96,-294.62 709.57,-308.61"/>
</a>
</g>
</g>
<!-- PAKPSTAR -->
<g id="node28" class="node">
<title>PAKPSTAR</title>
<g id="a_node28"><a xlink:title="Nominal marginal cost
FRML  &lt;&gt; PAKPSTAR = (1/PAKNYGDPTFP)*((PAKNEKRTTOTLCN/(1-PAKNYYWBTOTLCN_))**(1-PAKNYYWBTOTLCN_))*((PAKNYWRTTOTLCN/PAKNYYWBTOTLCN_)**PAKNYYWBTOTLCN_) $">
<polygon fill="#63b8ff" stroke="black" points="598,-59 388,-59 388,-23 598,-23 598,-59"/>
<text text-anchor="start" x="394" y="-36.8" font-family="Times New Roman,serif" font-size="14.00" fill="blue">PAKPSTAR:Nominal marginal cost</text>
</a>
</g>
</g>
<!-- PAKPSTAR&#45;&gt;PAKNYGDPFCSTXN -->
<g id="edge33" class="edge">
<title>PAKPSTAR-&gt;PAKNYGDPFCSTXN</title>
<g id="a_edge33"><a xlink:href="bogus" xlink:title=" PAKPSTAR -&gt; PAKNYGDPFCSTXN Min. att. -20%  max: 2191%">
<path fill="none" stroke="black" stroke-width="8" d="M598.19,-41C639.37,-41 687.16,-41 730.61,-41"/>
<polygon fill="black" stroke="black" stroke-width="8" points="730.68,-48 740.68,-41 730.68,-34 730.68,-48"/>
</a>
</g>
</g>
<!-- PAKNECONPRVTXN&#45;&gt;PAKNECONGOVTXN -->
<g id="edge8" class="edge">
<title>PAKNECONPRVTXN-&gt;PAKNECONGOVTXN</title>
<g id="a_edge8"><a xlink:href="bogus" xlink:title=" PAKNECONPRVTXN -&gt; PAKNECONGOVTXN Min. att. 26%  max: 100%">
<path fill="none" stroke="black" stroke-width="8" d="M617.23,-203C639.55,-203 663.21,-203 686.66,-203"/>
<polygon fill="black" stroke="black" stroke-width="8" points="686.7,-210 696.7,-203 686.7,-196 686.7,-210"/>
</a>
</g>
</g>
<!-- PAKNECONPRVTXN&#45;&gt;PAKNECONPRVTKN -->
<g id="edge29" class="edge">
<title>PAKNECONPRVTXN-&gt;PAKNECONPRVTKN</title>
<g id="a_edge29"><a xlink:href="bogus" xlink:title=" PAKNECONPRVTXN -&gt; PAKNECONPRVTKN Min. att. -5708%  max: 593%">
<path fill="none" stroke="black" stroke-width="8" d="M616.18,-221.02C642.77,-224.44 670.79,-227.68 697,-230 820.96,-240.98 962.13,-246.81 1065.6,-249.85"/>
<polygon fill="black" stroke="black" stroke-width="8" points="1065.61,-256.85 1075.81,-250.15 1066.02,-242.86 1065.61,-256.85"/>
</a>
</g>
</g>
<!-- PAKNECONPRVTXN&#45;&gt;PAKFMLBLPOLYXN -->
<g id="edge9" class="edge">
<title>PAKNECONPRVTXN-&gt;PAKFMLBLPOLYXN</title>
<g id="a_edge9"><a xlink:href="bogus" xlink:title=" PAKNECONPRVTXN -&gt; PAKFMLBLPOLYXN Min. att. -94%  max: 1459%">
<path fill="none" stroke="black" stroke-width="8" d="M616.46,-184.98C659.4,-178.66 707.37,-171.61 749.37,-165.43"/>
<polygon fill="black" stroke="black" stroke-width="8" points="750.48,-172.34 759.35,-163.96 748.44,-158.49 750.48,-172.34"/>
</a>
</g>
</g>
</g>
</svg>