<?xml version="1.0" encoding="UTF-8" standalone="no"?>
<!DOCTYPE svg PUBLIC "-//W3C//DTD SVG 1.1//EN"
 "http://www.w3.org/Graphics/SVG/1.1/DTD/svg11.dtd">
<!-- Generated by graphviz version 6.0.1 (0)
 -->
<!-- Title: TD Pages: 1 -->
<svg width="389pt" height="432pt"
 viewBox="0.00 0.00 389.48 432.00" xmlns="http://www.w3.org/2000/svg" xmlns:xlink="http://www.w3.org/1999/xlink">
<g id="graph0" class="graph" transform="scale(0.524909 0.524909) rotate(0) translate(4 819)">
<title>TD</title>
<polygon fill="white" stroke="none" points="-4,4 -4,-819 738,-819 738,4 -4,4"/>
<text text-anchor="middle" x="367" y="-7.8" font-family="Times New Roman,serif" font-size="14.00">A_model_graph</text>
<!-- EQUITY -->
<g id="node1" class="node">
<title>EQUITY</title>
<g id="a_node1"><a xlink:title="EQUITY&#10;Exogen">
<polygon fill="yellow" stroke="black" points="329,-545 263,-545 263,-509 329,-509 329,-545"/>
<text text-anchor="start" x="269" y="-522.8" font-family="Times New Roman,serif" font-size="14.00" fill="blue">EQUITY:</text>
</a>
</g>
</g>
<!-- POSITIONS -->
<g id="node9" class="node">
<title>POSITIONS</title>
<g id="a_node9"><a xlink:title="POSITIONS&#10;FRML &lt;MATRIX&gt; POSITIONS &#160;&#160;&#160;&#160;&#160;&#160;&#160;&#160;&#160;= &#160;MV_OPT(MSIGMA,VRETURN,RISKAVERSION, TOTAL,&#10; &#160;&#160;&#160;&#160;&#160;&#160;&#160;&#160;&#160;&#160;&#160;&#160;&#160;&#160;&#160;&#160;&#160;&#160;&#160;&#160;&#160;[[RISK_WEIGHTS] , [&#45;LCR_WEIGHTS] , [LEVERAGE_WEIGHTS]],&#10; &#160;&#160;&#160;&#160;&#160;&#160;&#160;&#160;&#160;&#160;&#160;&#160;&#160;&#160;&#160;&#160;&#160;&#160;&#160;&#160;&#160;&#160;&#160;&#160;&#160;&#160;&#160;&#160;&#160;&#160;&#160;&#160;&#160;&#160;&#160;&#160;&#160;&#160;[CAPITAL, &#45;LCR , EQUITY] ,MIN_W,MAX_W) $">
<polygon fill="#63b8ff" stroke="black" points="495,-302 410,-302 410,-266 495,-266 495,-302"/>
<text text-anchor="start" x="416.5" y="-279.8" font-family="Times New Roman,serif" font-size="14.00" fill="blue">POSITIONS:</text>
</a>
</g>
</g>
<!-- EQUITY&#45;&gt;POSITIONS -->
<g id="edge12" class="edge">
<title>EQUITY&#45;&gt;POSITIONS</title>
<g id="a_edge12"><a xlink:href="bogus" xlink:title="NA">
<path fill="none" stroke="black" stroke-width="0.5" d="M329.28,-522.28C344.56,-518.55 362.04,-511.88 374,-500 426.48,-447.9 443.6,-357.79 449.05,-312.19"/>
<polygon fill="black" stroke="black" stroke-width="0.5" points="452.54,-312.44 450.14,-302.12 445.58,-311.68 452.54,-312.44"/>
</a>
</g>
</g>
<!-- RISK_WEIGHT_USD -->
<g id="node2" class="node">
<title>RISK_WEIGHT_USD</title>
<g id="a_node2"><a xlink:title="RISK_WEIGHT_USD&#10;Exogen">
<polygon fill="yellow" stroke="black" points="162,-167 20,-167 20,-131 162,-131 162,-167"/>
<text text-anchor="start" x="26" y="-144.8" font-family="Times New Roman,serif" font-size="14.00" fill="blue">RISK_WEIGHT_USD:</text>
</a>
</g>
</g>
<!-- RISK_WEIGHTS -->
<g id="node25" class="node">
<title>RISK_WEIGHTS</title>
<g id="a_node25"><a xlink:title="RISK_WEIGHTS&#10;FRML &lt;MATRIX&gt; RISK_WEIGHTS &#160;&#160;&#160;&#160;&#160;= MATRIX(&#10;[RISK_WEIGHT_USD,RISK_WEIGHT_JPY,RISK_WEIGHT_EUR]) $">
<polygon fill="#63b8ff" stroke="black" points="353.5,-167 238.5,-167 238.5,-131 353.5,-131 353.5,-167"/>
<text text-anchor="start" x="245" y="-144.8" font-family="Times New Roman,serif" font-size="14.00" fill="blue">RISK_WEIGHTS:</text>
</a>
</g>
</g>
<!-- RISK_WEIGHT_USD&#45;&gt;RISK_WEIGHTS -->
<g id="edge25" class="edge">
<title>RISK_WEIGHT_USD&#45;&gt;RISK_WEIGHTS</title>
<g id="a_edge25"><a xlink:href="bogus" xlink:title="NA">
<path fill="none" stroke="black" stroke-width="0.5" d="M162.15,-149C183.52,-149 206.94,-149 228.1,-149"/>
<polygon fill="black" stroke="black" stroke-width="0.5" points="228.28,-152.5 238.28,-149 228.28,-145.5 228.28,-152.5"/>
</a>
</g>
</g>
<!-- RETURN -->
<g id="node3" class="node">
<title>RETURN</title>
<g id="a_node3"><a xlink:title="RETURN&#10;FRML XX &#160;&#160;&#160;&#160;&#160;RETURN &#160;&#160;&#160;&#160;&#160;&#160;&#160;&#160;&#160;&#160;&#160;&#160;= &#160;(POSITIONS.TRANS() * VRETURN &#160;&#160;&#160;&#160;&#160;&#160;&#160;)[0,0] $">
<polygon fill="#63b8ff" stroke="black" points="667.5,-113 597.5,-113 597.5,-77 667.5,-77 667.5,-113"/>
<text text-anchor="start" x="603.5" y="-90.8" font-family="Times New Roman,serif" font-size="14.00" fill="blue">RETURN:</text>
</a>
</g>
</g>
<!-- POSITION_USD -->
<g id="node4" class="node">
<title>POSITION_USD</title>
<g id="a_node4"><a xlink:title="POSITION_USD&#10;FRML XX &#160;&#160;&#160;&#160;&#160;POSITION_USD,POSITION_JPY,POSITION_EUR = POSITIONS $">
<polygon fill="#63b8ff" stroke="black" points="688.5,-275 576.5,-275 576.5,-239 688.5,-239 688.5,-275"/>
<text text-anchor="start" x="582.5" y="-252.8" font-family="Times New Roman,serif" font-size="14.00" fill="blue">POSITION_USD:</text>
</a>
</g>
</g>
<!-- RISK_WEIGHT_EUR -->
<g id="node5" class="node">
<title>RISK_WEIGHT_EUR</title>
<g id="a_node5"><a xlink:title="RISK_WEIGHT_EUR&#10;Exogen">
<polygon fill="yellow" stroke="black" points="162,-113 20,-113 20,-77 162,-77 162,-113"/>
<text text-anchor="start" x="26" y="-90.8" font-family="Times New Roman,serif" font-size="14.00" fill="blue">RISK_WEIGHT_EUR:</text>
</a>
</g>
</g>
<!-- RISK_WEIGHT_EUR&#45;&gt;RISK_WEIGHTS -->
<g id="edge2" class="edge">
<title>RISK_WEIGHT_EUR&#45;&gt;RISK_WEIGHTS</title>
<g id="a_edge2"><a xlink:href="bogus" xlink:title="NA">
<path fill="none" stroke="black" stroke-width="0.5" d="M159.88,-113.06C181.97,-118.93 206.45,-125.45 228.44,-131.3"/>
<polygon fill="black" stroke="black" stroke-width="0.5" points="227.79,-134.74 238.36,-133.93 229.59,-127.98 227.79,-134.74"/>
</a>
</g>
</g>
<!-- LCR_WEIGHTS -->
<g id="node6" class="node">
<title>LCR_WEIGHTS</title>
<g id="a_node6"><a xlink:title="LCR_WEIGHTS&#10;FRML &lt;MATRIX&gt; LCR_WEIGHTS &#160;&#160;&#160;&#160;&#160;&#160;= MATRIX(&#10;[LCR_WEIGHT_USD,LCR_WEIGHT_JPY,LCR_WEIGHT_EUR]) $">
<polygon fill="#63b8ff" stroke="black" points="351.5,-707 240.5,-707 240.5,-671 351.5,-671 351.5,-707"/>
<text text-anchor="start" x="247" y="-684.8" font-family="Times New Roman,serif" font-size="14.00" fill="blue">LCR_WEIGHTS:</text>
</a>
</g>
</g>
<!-- LCR_WEIGHTS&#45;&gt;POSITIONS -->
<g id="edge32" class="edge">
<title>LCR_WEIGHTS&#45;&gt;POSITIONS</title>
<g id="a_edge32"><a xlink:href="bogus" xlink:title="NA">
<path fill="none" stroke="black" stroke-width="0.5" d="M319.95,-670.78C337.34,-655.74 360.48,-632.89 374,-608 428.19,-508.2 444.84,-370.9 449.66,-312.32"/>
<polygon fill="black" stroke="black" stroke-width="0.5" points="453.18,-312.25 450.46,-302.01 446.2,-311.71 453.18,-312.25"/>
</a>
</g>
</g>
<!-- LCR_WEIGHTED_SUM -->
<g id="node29" class="node">
<title>LCR_WEIGHTED_SUM</title>
<g id="a_node29"><a xlink:title="LCR_WEIGHTED_SUM&#10;FRML XX &#160;&#160;&#160;&#160;&#160;LCR_WEIGHTED_SUM &#160;&#160;&#160;&#160;&#160;= (LCR_WEIGHTS.TRANS() * POSITIONS)[0,0] $">
<polygon fill="#63b8ff" stroke="black" points="711.5,-572 553.5,-572 553.5,-536 711.5,-536 711.5,-572"/>
<text text-anchor="start" x="559.5" y="-549.8" font-family="Times New Roman,serif" font-size="14.00" fill="blue">LCR_WEIGHTED_SUM:</text>
</a>
</g>
</g>
<!-- LCR_WEIGHTS&#45;&gt;LCR_WEIGHTED_SUM -->
<g id="edge17" class="edge">
<title>LCR_WEIGHTS&#45;&gt;LCR_WEIGHTED_SUM</title>
<g id="a_edge17"><a xlink:href="bogus" xlink:title="NA">
<path fill="none" stroke="black" stroke-width="0.5" d="M341.77,-670.93C402.76,-646.31 511.88,-602.28 577.39,-575.84"/>
<polygon fill="black" stroke="black" stroke-width="0.5" points="578.77,-579.06 586.73,-572.07 576.15,-572.56 578.77,-579.06"/>
</a>
</g>
</g>
<!-- POSITION_JPY -->
<g id="node7" class="node">
<title>POSITION_JPY</title>
<g id="a_node7"><a xlink:title="POSITION_JPY&#10;FRML XX &#160;&#160;&#160;&#160;&#160;POSITION_USD,POSITION_JPY,POSITION_EUR = POSITIONS $">
<polygon fill="#63b8ff" stroke="black" points="685.5,-383 579.5,-383 579.5,-347 685.5,-347 685.5,-383"/>
<text text-anchor="start" x="585.5" y="-360.8" font-family="Times New Roman,serif" font-size="14.00" fill="blue">POSITION_JPY:</text>
</a>
</g>
</g>
<!-- MIN_JPY -->
<g id="node8" class="node">
<title>MIN_JPY</title>
<g id="a_node8"><a xlink:title="MIN_JPY&#10;Exogen">
<polygon fill="yellow" stroke="black" points="127,-491 55,-491 55,-455 127,-455 127,-491"/>
<text text-anchor="start" x="61" y="-468.8" font-family="Times New Roman,serif" font-size="14.00" fill="blue">MIN_JPY:</text>
</a>
</g>
</g>
<!-- MIN_W -->
<g id="node12" class="node">
<title>MIN_W</title>
<g id="a_node12"><a xlink:title="MIN_W&#10;FRML &lt;MATRIX&gt; MIN_W &#160;&#160;&#160;&#160;&#160;&#160;&#160;&#160;&#160;&#160;&#160;&#160;= MATRIX(&#10;[MIN_USD,MIN_JPY,MIN_EUR]) &#160;&#160;&#160;&#160;&#160;&#160;$">
<polygon fill="#63b8ff" stroke="black" points="327.5,-437 264.5,-437 264.5,-401 327.5,-401 327.5,-437"/>
<text text-anchor="start" x="271" y="-414.8" font-family="Times New Roman,serif" font-size="14.00" fill="blue">MIN_W:</text>
</a>
</g>
</g>
<!-- MIN_JPY&#45;&gt;MIN_W -->
<g id="edge37" class="edge">
<title>MIN_JPY&#45;&gt;MIN_W</title>
<g id="a_edge37"><a xlink:href="bogus" xlink:title="NA">
<path fill="none" stroke="black" stroke-width="0.5" d="M127.36,-463.59C162.77,-454.18 217.19,-439.7 254.36,-429.81"/>
<polygon fill="black" stroke="black" stroke-width="0.5" points="255.59,-433.11 264.35,-427.15 253.79,-426.34 255.59,-433.11"/>
</a>
</g>
</g>
<!-- POSITIONS&#45;&gt;RETURN -->
<g id="edge39" class="edge">
<title>POSITIONS&#45;&gt;RETURN</title>
<g id="a_edge39"><a xlink:href="bogus" xlink:title="NA">
<path fill="none" stroke="black" stroke-width="0.5" d="M456.98,-265.86C464.39,-232.26 484.97,-160.27 531,-122 546.78,-108.88 568.34,-102.09 587.45,-98.59"/>
<polygon fill="black" stroke="black" stroke-width="0.5" points="588.13,-102.03 597.46,-97.01 587.04,-95.11 588.13,-102.03"/>
</a>
</g>
</g>
<!-- POSITIONS&#45;&gt;POSITION_USD -->
<g id="edge35" class="edge">
<title>POSITIONS&#45;&gt;POSITION_USD</title>
<g id="a_edge35"><a xlink:href="bogus" xlink:title="NA">
<path fill="none" stroke="black" stroke-width="0.5" d="M495.23,-277.67C516.36,-274.46 542.5,-270.5 566.21,-266.9"/>
<polygon fill="black" stroke="black" stroke-width="0.5" points="566.84,-270.35 576.21,-265.39 565.79,-263.43 566.84,-270.35"/>
</a>
</g>
</g>
<!-- POSITIONS&#45;&gt;POSITION_JPY -->
<g id="edge11" class="edge">
<title>POSITIONS&#45;&gt;POSITION_JPY</title>
<g id="a_edge11"><a xlink:href="bogus" xlink:title="NA">
<path fill="none" stroke="black" stroke-width="0.5" d="M474.97,-302.01C489.87,-313.72 510.63,-328.52 531,-338 543.07,-343.62 556.53,-348.24 569.56,-351.97"/>
<polygon fill="black" stroke="black" stroke-width="0.5" points="568.85,-355.41 579.42,-354.66 570.69,-348.65 568.85,-355.41"/>
</a>
</g>
</g>
<!-- POSITION_EUR -->
<g id="node13" class="node">
<title>POSITION_EUR</title>
<g id="a_node13"><a xlink:title="POSITION_EUR&#10;FRML XX &#160;&#160;&#160;&#160;&#160;POSITION_USD,POSITION_JPY,POSITION_EUR = POSITIONS $">
<polygon fill="#63b8ff" stroke="black" points="688.5,-329 576.5,-329 576.5,-293 688.5,-293 688.5,-329"/>
<text text-anchor="start" x="582.5" y="-306.8" font-family="Times New Roman,serif" font-size="14.00" fill="blue">POSITION_EUR:</text>
</a>
</g>
</g>
<!-- POSITIONS&#45;&gt;POSITION_EUR -->
<g id="edge26" class="edge">
<title>POSITIONS&#45;&gt;POSITION_EUR</title>
<g id="a_edge26"><a xlink:href="bogus" xlink:title="NA">
<path fill="none" stroke="black" stroke-width="0.5" d="M495.23,-290.33C516.36,-293.54 542.5,-297.5 566.21,-301.1"/>
<polygon fill="black" stroke="black" stroke-width="0.5" points="565.79,-304.57 576.21,-302.61 566.84,-297.65 565.79,-304.57"/>
</a>
</g>
</g>
<!-- RISK_WEIGHTED_SUM -->
<g id="node18" class="node">
<title>RISK_WEIGHTED_SUM</title>
<g id="a_node18"><a xlink:title="RISK_WEIGHTED_SUM&#10;FRML XX &#160;&#160;&#160;&#160;&#160;RISK_WEIGHTED_SUM &#160;&#160;&#160;&#160;= (RISK_WEIGHTS.TRANS() * POSITIONS)[0,0] $">
<polygon fill="#63b8ff" stroke="black" points="714,-167 551,-167 551,-131 714,-131 714,-167"/>
<text text-anchor="start" x="557.5" y="-144.8" font-family="Times New Roman,serif" font-size="14.00" fill="blue">RISK_WEIGHTED_SUM:</text>
</a>
</g>
</g>
<!-- POSITIONS&#45;&gt;RISK_WEIGHTED_SUM -->
<g id="edge8" class="edge">
<title>POSITIONS&#45;&gt;RISK_WEIGHTED_SUM</title>
<g id="a_edge8"><a xlink:href="bogus" xlink:title="NA">
<path fill="none" stroke="black" stroke-width="0.5" d="M461.69,-265.72C473.5,-241.49 497.6,-199.12 531,-176 534.33,-173.69 537.85,-171.59 541.5,-169.66"/>
<polygon fill="black" stroke="black" stroke-width="0.5" points="543.28,-172.69 550.8,-165.22 540.26,-166.37 543.28,-172.69"/>
</a>
</g>
</g>
<!-- LEVERAGE_WEIGHTED_SUM -->
<g id="node28" class="node">
<title>LEVERAGE_WEIGHTED_SUM</title>
<g id="a_node28"><a xlink:title="LEVERAGE_WEIGHTED_SUM&#10;FRML XX &#160;&#160;&#160;&#160;&#160;LEVERAGE_WEIGHTED_SUM = (LEVERAGE_WEIGHTS.TRANS() * POSITIONS)[0,0] $">
<polygon fill="#63b8ff" stroke="black" points="734,-221 531,-221 531,-185 734,-185 734,-221"/>
<text text-anchor="start" x="537.5" y="-198.8" font-family="Times New Roman,serif" font-size="14.00" fill="blue">LEVERAGE_WEIGHTED_SUM:</text>
</a>
</g>
</g>
<!-- POSITIONS&#45;&gt;LEVERAGE_WEIGHTED_SUM -->
<g id="edge28" class="edge">
<title>POSITIONS&#45;&gt;LEVERAGE_WEIGHTED_SUM</title>
<g id="a_edge28"><a xlink:href="bogus" xlink:title="NA">
<path fill="none" stroke="black" stroke-width="0.5" d="M474.97,-265.99C489.87,-254.28 510.63,-239.48 531,-230 535.12,-228.08 539.4,-226.28 543.77,-224.59"/>
<polygon fill="black" stroke="black" stroke-width="0.5" points="545.25,-227.78 553.45,-221.07 542.85,-221.2 545.25,-227.78"/>
</a>
</g>
</g>
<!-- POSITIONS&#45;&gt;LCR_WEIGHTED_SUM -->
<g id="edge1" class="edge">
<title>POSITIONS&#45;&gt;LCR_WEIGHTED_SUM</title>
<g id="a_edge1"><a xlink:href="bogus" xlink:title="NA">
<path fill="none" stroke="black" stroke-width="0.5" d="M465.46,-302.13C496.17,-348.73 577.97,-472.8 614.02,-527.48"/>
<polygon fill="black" stroke="black" stroke-width="0.5" points="611.17,-529.52 619.6,-535.94 617.01,-525.67 611.17,-529.52"/>
</a>
</g>
</g>
<!-- RISK -->
<g id="node35" class="node">
<title>RISK</title>
<g id="a_node35"><a xlink:title="RISK&#10;FRML XX &#160;&#160;&#160;&#160;&#160;RISK &#160;&#160;&#160;&#160;&#160;&#160;&#160;&#160;&#160;&#160;&#160;&#160;&#160;&#160;= &#160;(POSITIONS.TRANS() * MSIGMA * POSITIONS)[0,0]$">
<polygon fill="#63b8ff" stroke="black" points="659.5,-59 605.5,-59 605.5,-23 659.5,-23 659.5,-59"/>
<text text-anchor="start" x="615.5" y="-36.8" font-family="Times New Roman,serif" font-size="14.00" fill="blue">RISK:</text>
</a>
</g>
</g>
<!-- POSITIONS&#45;&gt;RISK -->
<g id="edge6" class="edge">
<title>POSITIONS&#45;&gt;RISK</title>
<g id="a_edge6"><a xlink:href="bogus" xlink:title="NA">
<path fill="none" stroke="black" stroke-width="0.5" d="M454.54,-265.89C457.92,-224.47 472.1,-122.26 531,-68 548.28,-52.08 573.93,-45.37 595,-42.62"/>
<polygon fill="black" stroke="black" stroke-width="0.5" points="595.64,-46.07 605.22,-41.54 594.9,-39.11 595.64,-46.07"/>
</a>
</g>
</g>
<!-- TOTAL -->
<g id="node10" class="node">
<title>TOTAL</title>
<g id="a_node10"><a xlink:title="TOTAL&#10;Exogen">
<polygon fill="yellow" stroke="black" points="326,-491 266,-491 266,-455 326,-455 326,-491"/>
<text text-anchor="start" x="272" y="-468.8" font-family="Times New Roman,serif" font-size="14.00" fill="blue">TOTAL:</text>
</a>
</g>
</g>
<!-- TOTAL&#45;&gt;POSITIONS -->
<g id="edge20" class="edge">
<title>TOTAL&#45;&gt;POSITIONS</title>
<g id="a_edge20"><a xlink:href="bogus" xlink:title="NA">
<path fill="none" stroke="black" stroke-width="0.5" d="M326.12,-468.4C341.85,-464.64 360.71,-457.92 374,-446 414.46,-409.72 435.75,-347.75 445.22,-311.89"/>
<polygon fill="black" stroke="black" stroke-width="0.5" points="448.64,-312.63 447.69,-302.08 441.85,-310.92 448.64,-312.63"/>
</a>
</g>
</g>
<!-- LEVERAGE_WEIGHT_EUR -->
<g id="node11" class="node">
<title>LEVERAGE_WEIGHT_EUR</title>
<g id="a_node11"><a xlink:title="LEVERAGE_WEIGHT_EUR&#10;Exogen">
<polygon fill="yellow" stroke="black" points="182,-329 0,-329 0,-293 182,-293 182,-329"/>
<text text-anchor="start" x="6" y="-306.8" font-family="Times New Roman,serif" font-size="14.00" fill="blue">LEVERAGE_WEIGHT_EUR:</text>
</a>
</g>
</g>
<!-- LEVERAGE_WEIGHTS -->
<g id="node24" class="node">
<title>LEVERAGE_WEIGHTS</title>
<g id="a_node24"><a xlink:title="LEVERAGE_WEIGHTS&#10;FRML &lt;MATRIX&gt; LEVERAGE_WEIGHTS &#160;= MATRIX(&#10;[LEVERAGE_WEIGHT_USD,LEVERAGE_WEIGHT_JPY,LEVERAGE_WEIGHT_EUR]) $">
<polygon fill="#63b8ff" stroke="black" points="374,-221 218,-221 218,-185 374,-185 374,-221"/>
<text text-anchor="start" x="224" y="-198.8" font-family="Times New Roman,serif" font-size="14.00" fill="blue">LEVERAGE_WEIGHTS:</text>
</a>
</g>
</g>
<!-- LEVERAGE_WEIGHT_EUR&#45;&gt;LEVERAGE_WEIGHTS -->
<g id="edge29" class="edge">
<title>LEVERAGE_WEIGHT_EUR&#45;&gt;LEVERAGE_WEIGHTS</title>
<g id="a_edge29"><a xlink:href="bogus" xlink:title="NA">
<path fill="none" stroke="black" stroke-width="0.5" d="M167.15,-292.97C172.39,-290.37 177.41,-287.4 182,-284 205.19,-266.84 195.21,-247.69 218,-230 219.77,-228.62 221.62,-227.31 223.53,-226.07"/>
<polygon fill="black" stroke="black" stroke-width="0.5" points="225.34,-229.06 232.22,-221.01 221.82,-223.01 225.34,-229.06"/>
</a>
</g>
</g>
<!-- MIN_W&#45;&gt;POSITIONS -->
<g id="edge15" class="edge">
<title>MIN_W&#45;&gt;POSITIONS</title>
<g id="a_edge15"><a xlink:href="bogus" xlink:title="NA">
<path fill="none" stroke="black" stroke-width="0.5" d="M327.58,-412.86C342.62,-408.76 360.39,-402.19 374,-392 402.54,-370.63 424.86,-335.72 438.07,-311.39"/>
<polygon fill="black" stroke="black" stroke-width="0.5" points="441.28,-312.8 442.84,-302.32 435.09,-309.54 441.28,-312.8"/>
</a>
</g>
</g>
<!-- MAX_EUR -->
<g id="node14" class="node">
<title>MAX_EUR</title>
<g id="a_node14"><a xlink:title="MAX_EUR&#10;Exogen">
<polygon fill="yellow" stroke="black" points="132,-653 50,-653 50,-617 132,-617 132,-653"/>
<text text-anchor="start" x="56" y="-630.8" font-family="Times New Roman,serif" font-size="14.00" fill="blue">MAX_EUR:</text>
</a>
</g>
</g>
<!-- MAX_W -->
<g id="node31" class="node">
<title>MAX_W</title>
<g id="a_node31"><a xlink:title="MAX_W&#10;FRML &lt;MATRIX&gt; MAX_W &#160;&#160;&#160;&#160;&#160;&#160;&#160;&#160;&#160;&#160;&#160;&#160;= MATRIX(&#10;[MAX_USD,MAX_JPY,MAX_EUR]) &#160;&#160;&#160;&#160;&#160;$">
<polygon fill="#63b8ff" stroke="black" points="330,-599 262,-599 262,-563 330,-563 330,-599"/>
<text text-anchor="start" x="268" y="-576.8" font-family="Times New Roman,serif" font-size="14.00" fill="blue">MAX_W:</text>
</a>
</g>
</g>
<!-- MAX_EUR&#45;&gt;MAX_W -->
<g id="edge23" class="edge">
<title>MAX_EUR&#45;&gt;MAX_W</title>
<g id="a_edge23"><a xlink:href="bogus" xlink:title="NA">
<path fill="none" stroke="black" stroke-width="0.5" d="M132.11,-624.33C166.6,-615.16 216.25,-601.95 251.65,-592.53"/>
<polygon fill="black" stroke="black" stroke-width="0.5" points="252.93,-595.81 261.69,-589.86 251.13,-589.05 252.93,-595.81"/>
</a>
</g>
</g>
<!-- MIN_EUR -->
<g id="node15" class="node">
<title>MIN_EUR</title>
<g id="a_node15"><a xlink:title="MIN_EUR&#10;Exogen">
<polygon fill="yellow" stroke="black" points="129.5,-437 52.5,-437 52.5,-401 129.5,-401 129.5,-437"/>
<text text-anchor="start" x="59" y="-414.8" font-family="Times New Roman,serif" font-size="14.00" fill="blue">MIN_EUR:</text>
</a>
</g>
</g>
<!-- MIN_EUR&#45;&gt;MIN_W -->
<g id="edge3" class="edge">
<title>MIN_EUR&#45;&gt;MIN_W</title>
<g id="a_edge3"><a xlink:href="bogus" xlink:title="NA">
<path fill="none" stroke="black" stroke-width="0.5" d="M129.71,-419C165.08,-419 217.85,-419 254.2,-419"/>
<polygon fill="black" stroke="black" stroke-width="0.5" points="254.45,-422.5 264.45,-419 254.45,-415.5 254.45,-422.5"/>
</a>
</g>
</g>
<!-- RISK_WEIGHT_JPY -->
<g id="node16" class="node">
<title>RISK_WEIGHT_JPY</title>
<g id="a_node16"><a xlink:title="RISK_WEIGHT_JPY&#10;Exogen">
<polygon fill="yellow" stroke="black" points="159,-59 23,-59 23,-23 159,-23 159,-59"/>
<text text-anchor="start" x="29" y="-36.8" font-family="Times New Roman,serif" font-size="14.00" fill="blue">RISK_WEIGHT_JPY:</text>
</a>
</g>
</g>
<!-- RISK_WEIGHT_JPY&#45;&gt;RISK_WEIGHTS -->
<g id="edge4" class="edge">
<title>RISK_WEIGHT_JPY&#45;&gt;RISK_WEIGHTS</title>
<g id="a_edge4"><a xlink:href="bogus" xlink:title="NA">
<path fill="none" stroke="black" stroke-width="0.5" d="M159.38,-55.5C167.42,-58.84 175.18,-62.95 182,-68 205.19,-85.16 195.21,-104.31 218,-122 221.4,-124.64 225.08,-127.03 228.92,-129.2"/>
<polygon fill="black" stroke="black" stroke-width="0.5" points="227.62,-132.46 238.12,-133.86 230.78,-126.22 227.62,-132.46"/>
</a>
</g>
</g>
<!-- LEVERAGE_WEIGHT_JPY -->
<g id="node17" class="node">
<title>LEVERAGE_WEIGHT_JPY</title>
<g id="a_node17"><a xlink:title="LEVERAGE_WEIGHT_JPY&#10;Exogen">
<polygon fill="yellow" stroke="black" points="179.5,-275 2.5,-275 2.5,-239 179.5,-239 179.5,-275"/>
<text text-anchor="start" x="9" y="-252.8" font-family="Times New Roman,serif" font-size="14.00" fill="blue">LEVERAGE_WEIGHT_JPY:</text>
</a>
</g>
</g>
<!-- LEVERAGE_WEIGHT_JPY&#45;&gt;LEVERAGE_WEIGHTS -->
<g id="edge9" class="edge">
<title>LEVERAGE_WEIGHT_JPY&#45;&gt;LEVERAGE_WEIGHTS</title>
<g id="a_edge9"><a xlink:href="bogus" xlink:title="NA">
<path fill="none" stroke="black" stroke-width="0.5" d="M159.88,-238.94C178.33,-234.04 198.45,-228.68 217.4,-223.64"/>
<polygon fill="black" stroke="black" stroke-width="0.5" points="218.42,-226.99 227.19,-221.04 216.62,-220.23 218.42,-226.99"/>
</a>
</g>
</g>
<!-- RISKAVERSION -->
<g id="node19" class="node">
<title>RISKAVERSION</title>
<g id="a_node19"><a xlink:title="RISKAVERSION&#10;Exogen">
<polygon fill="yellow" stroke="black" points="353,-383 239,-383 239,-347 353,-347 353,-383"/>
<text text-anchor="start" x="245" y="-360.8" font-family="Times New Roman,serif" font-size="14.00" fill="blue">RISKAVERSION:</text>
</a>
</g>
</g>
<!-- RISKAVERSION&#45;&gt;POSITIONS -->
<g id="edge18" class="edge">
<title>RISKAVERSION&#45;&gt;POSITIONS</title>
<g id="a_edge18"><a xlink:href="bogus" xlink:title="NA">
<path fill="none" stroke="black" stroke-width="0.5" d="M353.27,-347.28C360.37,-344.46 367.44,-341.36 374,-338 390.32,-329.65 407.17,-318.29 420.97,-308.15"/>
<polygon fill="black" stroke="black" stroke-width="0.5" points="423.23,-310.83 429.13,-302.03 419.03,-305.23 423.23,-310.83"/>
</a>
</g>
</g>
<!-- MSIGMA -->
<g id="node20" class="node">
<title>MSIGMA</title>
<g id="a_node20"><a xlink:title="MSIGMA&#10;FRML &lt;MATRIX&gt; MSIGMA &#160;= MATRIX( [[0.01573635,0.01436816,	0.01045556],&#10; &#160;&#160;&#160;&#160;&#160;&#160;&#160;&#160;&#160;&#160;&#160;&#160;&#160;&#160;&#160;&#160;&#160;&#160;&#160;&#160;&#160;&#160;&#160;&#160;&#160;&#160;&#160;&#160;&#160;&#160;&#160;&#160;[0.01436816,0.02289016,	0.01172995],&#10; &#160;&#160;&#160;&#160;&#160;&#160;&#160;&#160;&#160;&#160;&#160;&#160;&#160;&#160;&#160;&#160;&#160;&#160;&#160;&#160;&#160;&#160;&#160;&#160;&#160;&#160;&#160;&#160;&#160;&#160;&#160;&#160;[0.01045556,0.01172995,	0.01748076]] &#160;) $">
<polygon fill="#63b8ff" stroke="black" points="332.5,-59 259.5,-59 259.5,-23 332.5,-23 332.5,-59"/>
<text text-anchor="start" x="266" y="-36.8" font-family="Times New Roman,serif" font-size="14.00" fill="blue">MSIGMA:</text>
</a>
</g>
</g>
<!-- MSIGMA&#45;&gt;POSITIONS -->
<g id="edge30" class="edge">
<title>MSIGMA&#45;&gt;POSITIONS</title>
<g id="a_edge30"><a xlink:href="bogus" xlink:title="NA">
<path fill="none" stroke="black" stroke-width="0.5" d="M332.78,-46.62C347.17,-50.49 362.94,-57.02 374,-68 426.48,-120.1 443.6,-210.21 449.05,-255.81"/>
<polygon fill="black" stroke="black" stroke-width="0.5" points="445.58,-256.32 450.14,-265.88 452.54,-255.56 445.58,-256.32"/>
</a>
</g>
</g>
<!-- MSIGMA&#45;&gt;RISK -->
<g id="edge13" class="edge">
<title>MSIGMA&#45;&gt;RISK</title>
<g id="a_edge13"><a xlink:href="bogus" xlink:title="NA">
<path fill="none" stroke="black" stroke-width="0.5" d="M332.8,-41C396.98,-41 530.92,-41 595.35,-41"/>
<polygon fill="black" stroke="black" stroke-width="0.5" points="595.44,-44.5 605.44,-41 595.44,-37.5 595.44,-44.5"/>
</a>
</g>
</g>
<!-- LCR -->
<g id="node21" class="node">
<title>LCR</title>
<g id="a_node21"><a xlink:title="LCR&#10;Exogen">
<polygon fill="yellow" stroke="black" points="323,-329 269,-329 269,-293 323,-293 323,-329"/>
<text text-anchor="start" x="281" y="-306.8" font-family="Times New Roman,serif" font-size="14.00" fill="blue">LCR:</text>
</a>
</g>
</g>
<!-- LCR&#45;&gt;POSITIONS -->
<g id="edge36" class="edge">
<title>LCR&#45;&gt;POSITIONS</title>
<g id="a_edge36"><a xlink:href="bogus" xlink:title="NA">
<path fill="none" stroke="black" stroke-width="0.5" d="M323.21,-306.42C344.11,-302.77 374.03,-297.54 399.73,-293.05"/>
<polygon fill="black" stroke="black" stroke-width="0.5" points="400.45,-296.47 409.7,-291.3 399.25,-289.58 400.45,-296.47"/>
</a>
</g>
</g>
<!-- MAX_JPY -->
<g id="node22" class="node">
<title>MAX_JPY</title>
<g id="a_node22"><a xlink:title="MAX_JPY&#10;Exogen">
<polygon fill="yellow" stroke="black" points="129.5,-599 52.5,-599 52.5,-563 129.5,-563 129.5,-599"/>
<text text-anchor="start" x="59" y="-576.8" font-family="Times New Roman,serif" font-size="14.00" fill="blue">MAX_JPY:</text>
</a>
</g>
</g>
<!-- MAX_JPY&#45;&gt;MAX_W -->
<g id="edge10" class="edge">
<title>MAX_JPY&#45;&gt;MAX_W</title>
<g id="a_edge10"><a xlink:href="bogus" xlink:title="NA">
<path fill="none" stroke="black" stroke-width="0.5" d="M129.71,-581C164.25,-581 215.37,-581 251.6,-581"/>
<polygon fill="black" stroke="black" stroke-width="0.5" points="251.86,-584.5 261.86,-581 251.86,-577.5 251.86,-584.5"/>
</a>
</g>
</g>
<!-- CAPITAL -->
<g id="node23" class="node">
<title>CAPITAL</title>
<g id="a_node23"><a xlink:title="CAPITAL&#10;Exogen">
<polygon fill="yellow" stroke="black" points="332.5,-275 259.5,-275 259.5,-239 332.5,-239 332.5,-275"/>
<text text-anchor="start" x="266" y="-252.8" font-family="Times New Roman,serif" font-size="14.00" fill="blue">CAPITAL:</text>
</a>
</g>
</g>
<!-- CAPITAL&#45;&gt;POSITIONS -->
<g id="edge19" class="edge">
<title>CAPITAL&#45;&gt;POSITIONS</title>
<g id="a_edge19"><a xlink:href="bogus" xlink:title="NA">
<path fill="none" stroke="black" stroke-width="0.5" d="M332.83,-263.26C352.78,-266.75 377.95,-271.15 399.98,-275"/>
<polygon fill="black" stroke="black" stroke-width="0.5" points="399.39,-278.45 409.84,-276.72 400.59,-271.55 399.39,-278.45"/>
</a>
</g>
</g>
<!-- LEVERAGE_WEIGHTS&#45;&gt;POSITIONS -->
<g id="edge24" class="edge">
<title>LEVERAGE_WEIGHTS&#45;&gt;POSITIONS</title>
<g id="a_edge24"><a xlink:href="bogus" xlink:title="NA">
<path fill="none" stroke="black" stroke-width="0.5" d="M354.09,-221.05C360.91,-223.78 367.69,-226.77 374,-230 390.32,-238.35 407.17,-249.71 420.97,-259.85"/>
<polygon fill="black" stroke="black" stroke-width="0.5" points="419.03,-262.77 429.13,-265.97 423.23,-257.17 419.03,-262.77"/>
</a>
</g>
</g>
<!-- LEVERAGE_WEIGHTS&#45;&gt;LEVERAGE_WEIGHTED_SUM -->
<g id="edge27" class="edge">
<title>LEVERAGE_WEIGHTS&#45;&gt;LEVERAGE_WEIGHTED_SUM</title>
<g id="a_edge27"><a xlink:href="bogus" xlink:title="NA">
<path fill="none" stroke="black" stroke-width="0.5" d="M374.16,-203C417.66,-203 472.75,-203 520.79,-203"/>
<polygon fill="black" stroke="black" stroke-width="0.5" points="520.93,-206.5 530.93,-203 520.93,-199.5 520.93,-206.5"/>
</a>
</g>
</g>
<!-- RISK_WEIGHTS&#45;&gt;POSITIONS -->
<g id="edge34" class="edge">
<title>RISK_WEIGHTS&#45;&gt;POSITIONS</title>
<g id="a_edge34"><a xlink:href="bogus" xlink:title="NA">
<path fill="none" stroke="black" stroke-width="0.5" d="M353.73,-164.34C360.91,-167.56 367.88,-171.41 374,-176 402.54,-197.37 424.86,-232.28 438.07,-256.61"/>
<polygon fill="black" stroke="black" stroke-width="0.5" points="435.09,-258.46 442.84,-265.68 441.28,-255.2 435.09,-258.46"/>
</a>
</g>
</g>
<!-- RISK_WEIGHTS&#45;&gt;RISK_WEIGHTED_SUM -->
<g id="edge22" class="edge">
<title>RISK_WEIGHTS&#45;&gt;RISK_WEIGHTED_SUM</title>
<g id="a_edge22"><a xlink:href="bogus" xlink:title="NA">
<path fill="none" stroke="black" stroke-width="0.5" d="M353.74,-149C404.93,-149 481.11,-149 540.75,-149"/>
<polygon fill="black" stroke="black" stroke-width="0.5" points="540.93,-152.5 550.93,-149 540.93,-145.5 540.93,-152.5"/>
</a>
</g>
</g>
<!-- LCR_WEIGHT_EUR -->
<g id="node26" class="node">
<title>LCR_WEIGHT_EUR</title>
<g id="a_node26"><a xlink:title="LCR_WEIGHT_EUR&#10;Exogen">
<polygon fill="yellow" stroke="black" points="159.5,-815 22.5,-815 22.5,-779 159.5,-779 159.5,-815"/>
<text text-anchor="start" x="29" y="-792.8" font-family="Times New Roman,serif" font-size="14.00" fill="blue">LCR_WEIGHT_EUR:</text>
</a>
</g>
</g>
<!-- LCR_WEIGHT_EUR&#45;&gt;LCR_WEIGHTS -->
<g id="edge5" class="edge">
<title>LCR_WEIGHT_EUR&#45;&gt;LCR_WEIGHTS</title>
<g id="a_edge5"><a xlink:href="bogus" xlink:title="NA">
<path fill="none" stroke="black" stroke-width="0.5" d="M159.78,-779.33C167.42,-776.56 174.97,-773.45 182,-770 212.93,-754.8 244.5,-731.37 266.38,-713.61"/>
<polygon fill="black" stroke="black" stroke-width="0.5" points="268.78,-716.16 274.28,-707.11 264.33,-710.76 268.78,-716.16"/>
</a>
</g>
</g>
<!-- MIN_USD -->
<g id="node27" class="node">
<title>MIN_USD</title>
<g id="a_node27"><a xlink:title="MIN_USD&#10;Exogen">
<polygon fill="yellow" stroke="black" points="129.5,-383 52.5,-383 52.5,-347 129.5,-347 129.5,-383"/>
<text text-anchor="start" x="59" y="-360.8" font-family="Times New Roman,serif" font-size="14.00" fill="blue">MIN_USD:</text>
</a>
</g>
</g>
<!-- MIN_USD&#45;&gt;MIN_W -->
<g id="edge33" class="edge">
<title>MIN_USD&#45;&gt;MIN_W</title>
<g id="a_edge33"><a xlink:href="bogus" xlink:title="NA">
<path fill="none" stroke="black" stroke-width="0.5" d="M129.71,-375.03C165.24,-384.48 218.3,-398.6 254.67,-408.27"/>
<polygon fill="black" stroke="black" stroke-width="0.5" points="253.89,-411.69 264.45,-410.87 255.69,-404.92 253.89,-411.69"/>
</a>
</g>
</g>
<!-- MAX_USD -->
<g id="node30" class="node">
<title>MAX_USD</title>
<g id="a_node30"><a xlink:title="MAX_USD&#10;Exogen">
<polygon fill="yellow" stroke="black" points="132,-545 50,-545 50,-509 132,-509 132,-545"/>
<text text-anchor="start" x="56" y="-522.8" font-family="Times New Roman,serif" font-size="14.00" fill="blue">MAX_USD:</text>
</a>
</g>
</g>
<!-- MAX_USD&#45;&gt;MAX_W -->
<g id="edge38" class="edge">
<title>MAX_USD&#45;&gt;MAX_W</title>
<g id="a_edge38"><a xlink:href="bogus" xlink:title="NA">
<path fill="none" stroke="black" stroke-width="0.5" d="M132.11,-537.67C166.6,-546.84 216.25,-560.05 251.65,-569.47"/>
<polygon fill="black" stroke="black" stroke-width="0.5" points="251.13,-572.95 261.69,-572.14 252.93,-566.19 251.13,-572.95"/>
</a>
</g>
</g>
<!-- MAX_W&#45;&gt;POSITIONS -->
<g id="edge14" class="edge">
<title>MAX_W&#45;&gt;POSITIONS</title>
<g id="a_edge14"><a xlink:href="bogus" xlink:title="NA">
<path fill="none" stroke="black" stroke-width="0.5" d="M330.39,-576.42C345.56,-572.73 362.62,-566.05 374,-554 438.67,-485.49 449.87,-366.62 451.47,-312.41"/>
<polygon fill="black" stroke="black" stroke-width="0.5" points="454.98,-312.24 451.68,-302.17 447.98,-312.09 454.98,-312.24"/>
</a>
</g>
</g>
<!-- VRETURN -->
<g id="node32" class="node">
<title>VRETURN</title>
<g id="a_node32"><a xlink:title="VRETURN&#10;FRML &lt;MATRIX&gt; VRETURN &#160;&#160;&#160;&#160;&#160;&#160;&#160;&#160;= MATRIX([0.048,0.040,0.035]) $">
<polygon fill="#63b8ff" stroke="black" points="336,-113 256,-113 256,-77 336,-77 336,-113"/>
<text text-anchor="start" x="262" y="-90.8" font-family="Times New Roman,serif" font-size="14.00" fill="blue">VRETURN:</text>
</a>
</g>
</g>
<!-- VRETURN&#45;&gt;RETURN -->
<g id="edge31" class="edge">
<title>VRETURN&#45;&gt;RETURN</title>
<g id="a_edge31"><a xlink:href="bogus" xlink:title="NA">
<path fill="none" stroke="black" stroke-width="0.5" d="M336.03,-95C398.68,-95 521.33,-95 587.19,-95"/>
<polygon fill="black" stroke="black" stroke-width="0.5" points="587.25,-98.5 597.25,-95 587.25,-91.5 587.25,-98.5"/>
</a>
</g>
</g>
<!-- VRETURN&#45;&gt;POSITIONS -->
<g id="edge16" class="edge">
<title>VRETURN&#45;&gt;POSITIONS</title>
<g id="a_edge16"><a xlink:href="bogus" xlink:title="NA">
<path fill="none" stroke="black" stroke-width="0.5" d="M336.18,-102.32C349.4,-106.35 363.45,-112.54 374,-122 414.46,-158.28 435.75,-220.25 445.22,-256.11"/>
<polygon fill="black" stroke="black" stroke-width="0.5" points="441.85,-257.08 447.69,-265.92 448.64,-255.37 441.85,-257.08"/>
</a>
</g>
</g>
<!-- LEVERAGE_WEIGHT_USD -->
<g id="node33" class="node">
<title>LEVERAGE_WEIGHT_USD</title>
<g id="a_node33"><a xlink:title="LEVERAGE_WEIGHT_USD&#10;Exogen">
<polygon fill="yellow" stroke="black" points="182,-221 0,-221 0,-185 182,-185 182,-221"/>
<text text-anchor="start" x="6" y="-198.8" font-family="Times New Roman,serif" font-size="14.00" fill="blue">LEVERAGE_WEIGHT_USD:</text>
</a>
</g>
</g>
<!-- LEVERAGE_WEIGHT_USD&#45;&gt;LEVERAGE_WEIGHTS -->
<g id="edge7" class="edge">
<title>LEVERAGE_WEIGHT_USD&#45;&gt;LEVERAGE_WEIGHTS</title>
<g id="a_edge7"><a xlink:href="bogus" xlink:title="NA">
<path fill="none" stroke="black" stroke-width="0.5" d="M182.22,-203C190.65,-203 199.19,-203 207.59,-203"/>
<polygon fill="black" stroke="black" stroke-width="0.5" points="207.77,-206.5 217.77,-203 207.77,-199.5 207.77,-206.5"/>
</a>
</g>
</g>
<!-- LCR_WEIGHT_JPY -->
<g id="node34" class="node">
<title>LCR_WEIGHT_JPY</title>
<g id="a_node34"><a xlink:title="LCR_WEIGHT_JPY&#10;Exogen">
<polygon fill="yellow" stroke="black" points="157,-761 25,-761 25,-725 157,-725 157,-761"/>
<text text-anchor="start" x="31" y="-738.8" font-family="Times New Roman,serif" font-size="14.00" fill="blue">LCR_WEIGHT_JPY:</text>
</a>
</g>
</g>
<!-- LCR_WEIGHT_JPY&#45;&gt;LCR_WEIGHTS -->
<g id="edge21" class="edge">
<title>LCR_WEIGHT_JPY&#45;&gt;LCR_WEIGHTS</title>
<g id="a_edge21"><a xlink:href="bogus" xlink:title="NA">
<path fill="none" stroke="black" stroke-width="0.5" d="M157.07,-725.69C180.51,-719.46 206.94,-712.43 230.34,-706.2"/>
<polygon fill="black" stroke="black" stroke-width="0.5" points="231.41,-709.54 240.17,-703.58 229.61,-702.77 231.41,-709.54"/>
</a>
</g>
</g>
<!-- LCR_WEIGHT_USD -->
<g id="node36" class="node">
<title>LCR_WEIGHT_USD</title>
<g id="a_node36"><a xlink:title="LCR_WEIGHT_USD&#10;Exogen">
<polygon fill="yellow" stroke="black" points="159.5,-707 22.5,-707 22.5,-671 159.5,-671 159.5,-707"/>
<text text-anchor="start" x="29" y="-684.8" font-family="Times New Roman,serif" font-size="14.00" fill="blue">LCR_WEIGHT_USD:</text>
</a>
</g>
</g>
<!-- LCR_WEIGHT_USD&#45;&gt;LCR_WEIGHTS -->
<g id="edge40" class="edge">
<title>LCR_WEIGHT_USD&#45;&gt;LCR_WEIGHTS</title>
<g id="a_edge40"><a xlink:href="bogus" xlink:title="NA">
<path fill="none" stroke="black" stroke-width="0.5" d="M159.6,-689C182.3,-689 207.56,-689 230.06,-689"/>
<polygon fill="black" stroke="black" stroke-width="0.5" points="230.18,-692.5 240.18,-689 230.18,-685.5 230.18,-692.5"/>
</a>
</g>
</g>
</g>
</svg>
