<?xml version="1.0" encoding="UTF-8" standalone="no"?>
<!DOCTYPE svg PUBLIC "-//W3C//DTD SVG 1.1//EN"
 "http://www.w3.org/Graphics/SVG/1.1/DTD/svg11.dtd">
<!-- Generated by graphviz version 6.0.1 (0)
 -->
<!-- Title: TD Pages: 1 -->
<svg width="325pt" height="432pt"
 viewBox="0.00 0.00 325.43 432.00" xmlns="http://www.w3.org/2000/svg" xmlns:xlink="http://www.w3.org/1999/xlink">
<g id="graph0" class="graph" transform="scale(0.438579 0.438579) rotate(0) translate(4 981)">
<title>TD</title>
<polygon fill="white" stroke="none" points="-4,4 -4,-981 738,-981 738,4 -4,4"/>
<text text-anchor="middle" x="367" y="-7.8" font-family="Times New Roman,serif" font-size="14.00">A_model_graph</text>
<!-- LCR -->
<g id="node1" class="node">
<title>LCR</title>
<g id="a_node1"><a xlink:title="LCR&#10;Exogen">
<polygon fill="yellow" stroke="black" points="323,-437 269,-437 269,-401 323,-401 323,-437"/>
<text text-anchor="start" x="281" y="-414.8" font-family="Times New Roman,serif" font-size="14.00" fill="blue">LCR:</text>
</a>
</g>
</g>
<!-- POSITIONS -->
<g id="node24" class="node">
<title>POSITIONS</title>
<g id="a_node24"><a xlink:title="POSITIONS&#10;FRML &lt;MATRIX&gt; POSITIONS &#160;&#160;&#160;&#160;&#160;&#160;&#160;&#160;&#160;= &#160;MV_OPT(MSIGMA,VRETURN,RISKAVERSION, TOTAL,&#10; &#160;&#160;&#160;&#160;&#160;&#160;&#160;&#160;&#160;&#160;&#160;&#160;&#160;&#160;&#160;&#160;&#160;&#160;&#160;&#160;&#160;[[RISK_WEIGHTS] , [&#45;LCR_WEIGHTS] , [LEVERAGE_WEIGHTS]],&#10; &#160;&#160;&#160;&#160;&#160;&#160;&#160;&#160;&#160;&#160;&#160;&#160;&#160;&#160;&#160;&#160;&#160;&#160;&#160;&#160;&#160;&#160;&#160;&#160;&#160;&#160;&#160;&#160;&#160;&#160;&#160;&#160;&#160;&#160;&#160;&#160;&#160;&#160;[CAPITAL, &#45;LCR , EQUITY] ,MIN_W,MAX_W) $">
<polygon fill="#63b8ff" stroke="black" points="495,-383 410,-383 410,-347 495,-347 495,-383"/>
<text text-anchor="start" x="416.5" y="-360.8" font-family="Times New Roman,serif" font-size="14.00" fill="blue">POSITIONS:</text>
</a>
</g>
</g>
<!-- LCR&#45;&gt;POSITIONS -->
<g id="edge11" class="edge">
<title>LCR&#45;&gt;POSITIONS</title>
<g id="a_edge11"><a xlink:href="bogus" xlink:title="NA">
<path fill="none" stroke="black" stroke-width="0.5" d="M323.21,-409.84C344.2,-402.5 374.3,-391.98 400.07,-382.98"/>
<polygon fill="black" stroke="black" stroke-width="0.5" points="401.42,-386.21 409.7,-379.61 399.11,-379.6 401.42,-386.21"/>
</a>
</g>
</g>
<!-- LCR_WEIGHT_EUR -->
<g id="node2" class="node">
<title>LCR_WEIGHT_EUR</title>
<g id="a_node2"><a xlink:title="LCR_WEIGHT_EUR&#10;Exogen">
<polygon fill="yellow" stroke="black" points="159.5,-977 22.5,-977 22.5,-941 159.5,-941 159.5,-977"/>
<text text-anchor="start" x="29" y="-954.8" font-family="Times New Roman,serif" font-size="14.00" fill="blue">LCR_WEIGHT_EUR:</text>
</a>
</g>
</g>
<!-- LCR_WEIGHTS -->
<g id="node7" class="node">
<title>LCR_WEIGHTS</title>
<g id="a_node7"><a xlink:title="LCR_WEIGHTS&#10;FRML &lt;MATRIX&gt; LCR_WEIGHTS &#160;&#160;&#160;&#160;&#160;&#160;= MATRIX(&#10;[LCR_WEIGHT_USD,LCR_WEIGHT_JPY,LCR_WEIGHT_EUR]) $">
<polygon fill="#63b8ff" stroke="black" points="351.5,-869 240.5,-869 240.5,-833 351.5,-833 351.5,-869"/>
<text text-anchor="start" x="247" y="-846.8" font-family="Times New Roman,serif" font-size="14.00" fill="blue">LCR_WEIGHTS:</text>
</a>
</g>
</g>
<!-- LCR_WEIGHT_EUR&#45;&gt;LCR_WEIGHTS -->
<g id="edge4" class="edge">
<title>LCR_WEIGHT_EUR&#45;&gt;LCR_WEIGHTS</title>
<g id="a_edge4"><a xlink:href="bogus" xlink:title="NA">
<path fill="none" stroke="black" stroke-width="0.5" d="M159.78,-941.33C167.42,-938.56 174.97,-935.45 182,-932 212.93,-916.8 244.5,-893.37 266.38,-875.61"/>
<polygon fill="black" stroke="black" stroke-width="0.5" points="268.78,-878.16 274.28,-869.11 264.33,-872.76 268.78,-878.16"/>
</a>
</g>
</g>
<!-- POSITION_EUR -->
<g id="node3" class="node">
<title>POSITION_EUR</title>
<g id="a_node3"><a xlink:title="POSITION_EUR&#10;FRML XX &#160;&#160;&#160;&#160;&#160;POSITION_USD,POSITION_JPY,POSITION_EUR = POSITIONS $">
<polygon fill="#63b8ff" stroke="black" points="688.5,-437 576.5,-437 576.5,-401 688.5,-401 688.5,-437"/>
<text text-anchor="start" x="582.5" y="-414.8" font-family="Times New Roman,serif" font-size="14.00" fill="blue">POSITION_EUR:</text>
</a>
</g>
</g>
<!-- MIN_W -->
<g id="node4" class="node">
<title>MIN_W</title>
<g id="a_node4"><a xlink:title="MIN_W&#10;FRML &lt;MATRIX&gt; MIN_W &#160;&#160;&#160;&#160;&#160;&#160;&#160;&#160;&#160;&#160;&#160;&#160;= MATRIX(&#10;[MIN_USD,MIN_JPY,MIN_EUR]) &#160;&#160;&#160;&#160;&#160;&#160;$">
<polygon fill="#63b8ff" stroke="black" points="327.5,-383 264.5,-383 264.5,-347 327.5,-347 327.5,-383"/>
<text text-anchor="start" x="271" y="-360.8" font-family="Times New Roman,serif" font-size="14.00" fill="blue">MIN_W:</text>
</a>
</g>
</g>
<!-- MIN_W&#45;&gt;POSITIONS -->
<g id="edge22" class="edge">
<title>MIN_W&#45;&gt;POSITIONS</title>
<g id="a_edge22"><a xlink:href="bogus" xlink:title="NA">
<path fill="none" stroke="black" stroke-width="0.5" d="M327.52,-365C348.15,-365 375.88,-365 399.9,-365"/>
<polygon fill="black" stroke="black" stroke-width="0.5" points="399.93,-368.5 409.93,-365 399.93,-361.5 399.93,-368.5"/>
</a>
</g>
</g>
<!-- LEVERAGE_WEIGHT_JPY -->
<g id="node5" class="node">
<title>LEVERAGE_WEIGHT_JPY</title>
<g id="a_node5"><a xlink:title="LEVERAGE_WEIGHT_JPY&#10;Exogen">
<polygon fill="yellow" stroke="black" points="179.5,-815 2.5,-815 2.5,-779 179.5,-779 179.5,-815"/>
<text text-anchor="start" x="9" y="-792.8" font-family="Times New Roman,serif" font-size="14.00" fill="blue">LEVERAGE_WEIGHT_JPY:</text>
</a>
</g>
</g>
<!-- LEVERAGE_WEIGHTS -->
<g id="node12" class="node">
<title>LEVERAGE_WEIGHTS</title>
<g id="a_node12"><a xlink:title="LEVERAGE_WEIGHTS&#10;FRML &lt;MATRIX&gt; LEVERAGE_WEIGHTS &#160;= MATRIX(&#10;[LEVERAGE_WEIGHT_USD,LEVERAGE_WEIGHT_JPY,LEVERAGE_WEIGHT_EUR]) $">
<polygon fill="#63b8ff" stroke="black" points="374,-707 218,-707 218,-671 374,-671 374,-707"/>
<text text-anchor="start" x="224" y="-684.8" font-family="Times New Roman,serif" font-size="14.00" fill="blue">LEVERAGE_WEIGHTS:</text>
</a>
</g>
</g>
<!-- LEVERAGE_WEIGHT_JPY&#45;&gt;LEVERAGE_WEIGHTS -->
<g id="edge21" class="edge">
<title>LEVERAGE_WEIGHT_JPY&#45;&gt;LEVERAGE_WEIGHTS</title>
<g id="a_edge21"><a xlink:href="bogus" xlink:title="NA">
<path fill="none" stroke="black" stroke-width="0.5" d="M160.73,-778.98C168.04,-776.3 175.27,-773.31 182,-770 212.93,-754.8 244.5,-731.37 266.38,-713.61"/>
<polygon fill="black" stroke="black" stroke-width="0.5" points="268.78,-716.16 274.28,-707.11 264.33,-710.76 268.78,-716.16"/>
</a>
</g>
</g>
<!-- RISK_WEIGHT_EUR -->
<g id="node6" class="node">
<title>RISK_WEIGHT_EUR</title>
<g id="a_node6"><a xlink:title="RISK_WEIGHT_EUR&#10;Exogen">
<polygon fill="yellow" stroke="black" points="162,-653 20,-653 20,-617 162,-617 162,-653"/>
<text text-anchor="start" x="26" y="-630.8" font-family="Times New Roman,serif" font-size="14.00" fill="blue">RISK_WEIGHT_EUR:</text>
</a>
</g>
</g>
<!-- RISK_WEIGHTS -->
<g id="node25" class="node">
<title>RISK_WEIGHTS</title>
<g id="a_node25"><a xlink:title="RISK_WEIGHTS&#10;FRML &lt;MATRIX&gt; RISK_WEIGHTS &#160;&#160;&#160;&#160;&#160;= MATRIX(&#10;[RISK_WEIGHT_USD,RISK_WEIGHT_JPY,RISK_WEIGHT_EUR]) $">
<polygon fill="#63b8ff" stroke="black" points="353.5,-545 238.5,-545 238.5,-509 353.5,-509 353.5,-545"/>
<text text-anchor="start" x="245" y="-522.8" font-family="Times New Roman,serif" font-size="14.00" fill="blue">RISK_WEIGHTS:</text>
</a>
</g>
</g>
<!-- RISK_WEIGHT_EUR&#45;&gt;RISK_WEIGHTS -->
<g id="edge38" class="edge">
<title>RISK_WEIGHT_EUR&#45;&gt;RISK_WEIGHTS</title>
<g id="a_edge38"><a xlink:href="bogus" xlink:title="NA">
<path fill="none" stroke="black" stroke-width="0.5" d="M160.73,-616.98C168.04,-614.3 175.27,-611.31 182,-608 212.93,-592.8 244.5,-569.37 266.38,-551.61"/>
<polygon fill="black" stroke="black" stroke-width="0.5" points="268.78,-554.16 274.28,-545.11 264.33,-548.76 268.78,-554.16"/>
</a>
</g>
</g>
<!-- LCR_WEIGHTED_SUM -->
<g id="node14" class="node">
<title>LCR_WEIGHTED_SUM</title>
<g id="a_node14"><a xlink:title="LCR_WEIGHTED_SUM&#10;FRML XX &#160;&#160;&#160;&#160;&#160;LCR_WEIGHTED_SUM &#160;&#160;&#160;&#160;&#160;= (LCR_WEIGHTS.TRANS() * POSITIONS)[0,0] $">
<polygon fill="#63b8ff" stroke="black" points="711.5,-618 553.5,-618 553.5,-582 711.5,-582 711.5,-618"/>
<text text-anchor="start" x="559.5" y="-595.8" font-family="Times New Roman,serif" font-size="14.00" fill="blue">LCR_WEIGHTED_SUM:</text>
</a>
</g>
</g>
<!-- LCR_WEIGHTS&#45;&gt;LCR_WEIGHTED_SUM -->
<g id="edge25" class="edge">
<title>LCR_WEIGHTS&#45;&gt;LCR_WEIGHTED_SUM</title>
<g id="a_edge25"><a xlink:href="bogus" xlink:title="NA">
<path fill="none" stroke="black" stroke-width="0.5" d="M321.06,-832.95C380.1,-788.64 532.21,-674.5 599.11,-624.3"/>
<polygon fill="black" stroke="black" stroke-width="0.5" points="601.31,-627.03 607.21,-618.22 597.11,-621.43 601.31,-627.03"/>
</a>
</g>
</g>
<!-- LCR_WEIGHTS&#45;&gt;POSITIONS -->
<g id="edge40" class="edge">
<title>LCR_WEIGHTS&#45;&gt;POSITIONS</title>
<g id="a_edge40"><a xlink:href="bogus" xlink:title="NA">
<path fill="none" stroke="black" stroke-width="0.5" d="M309.86,-832.67C326.93,-807.5 356.92,-760.31 374,-716 418.46,-600.64 440.52,-453.63 448.22,-393.04"/>
<polygon fill="black" stroke="black" stroke-width="0.5" points="451.7,-393.44 449.46,-383.08 444.75,-392.57 451.7,-393.44"/>
</a>
</g>
</g>
<!-- MSIGMA -->
<g id="node8" class="node">
<title>MSIGMA</title>
<g id="a_node8"><a xlink:title="MSIGMA&#10;FRML &lt;MATRIX&gt; MSIGMA &#160;= MATRIX( [[0.01573635,0.01436816,	0.01045556],&#10; &#160;&#160;&#160;&#160;&#160;&#160;&#160;&#160;&#160;&#160;&#160;&#160;&#160;&#160;&#160;&#160;&#160;&#160;&#160;&#160;&#160;&#160;&#160;&#160;&#160;&#160;&#160;&#160;&#160;&#160;&#160;&#160;[0.01436816,0.02289016,	0.01172995],&#10; &#160;&#160;&#160;&#160;&#160;&#160;&#160;&#160;&#160;&#160;&#160;&#160;&#160;&#160;&#160;&#160;&#160;&#160;&#160;&#160;&#160;&#160;&#160;&#160;&#160;&#160;&#160;&#160;&#160;&#160;&#160;&#160;[0.01045556,0.01172995,	0.01748076]] &#160;) $">
<polygon fill="#63b8ff" stroke="black" points="332.5,-59 259.5,-59 259.5,-23 332.5,-23 332.5,-59"/>
<text text-anchor="start" x="266" y="-36.8" font-family="Times New Roman,serif" font-size="14.00" fill="blue">MSIGMA:</text>
</a>
</g>
</g>
<!-- MSIGMA&#45;&gt;POSITIONS -->
<g id="edge30" class="edge">
<title>MSIGMA&#45;&gt;POSITIONS</title>
<g id="a_edge30"><a xlink:href="bogus" xlink:title="NA">
<path fill="none" stroke="black" stroke-width="0.5" d="M332.87,-46.04C347.46,-49.82 363.35,-56.43 374,-68 410.51,-107.63 437.7,-270.01 447.51,-336.45"/>
<polygon fill="black" stroke="black" stroke-width="0.5" points="444.09,-337.23 448.99,-346.62 451.02,-336.22 444.09,-337.23"/>
</a>
</g>
</g>
<!-- RISK -->
<g id="node31" class="node">
<title>RISK</title>
<g id="a_node31"><a xlink:title="RISK&#10;FRML XX &#160;&#160;&#160;&#160;&#160;RISK &#160;&#160;&#160;&#160;&#160;&#160;&#160;&#160;&#160;&#160;&#160;&#160;&#160;&#160;= &#160;(POSITIONS.TRANS() * MSIGMA * POSITIONS)[0,0]$">
<polygon fill="#63b8ff" stroke="black" points="659.5,-144 605.5,-144 605.5,-108 659.5,-108 659.5,-144"/>
<text text-anchor="start" x="615.5" y="-121.8" font-family="Times New Roman,serif" font-size="14.00" fill="blue">RISK:</text>
</a>
</g>
</g>
<!-- MSIGMA&#45;&gt;RISK -->
<g id="edge26" class="edge">
<title>MSIGMA&#45;&gt;RISK</title>
<g id="a_edge26"><a xlink:href="bogus" xlink:title="NA">
<path fill="none" stroke="black" stroke-width="0.5" d="M332.8,-50.1C397.11,-66.44 531.47,-100.58 595.75,-116.92"/>
<polygon fill="black" stroke="black" stroke-width="0.5" points="594.89,-120.31 605.44,-119.38 596.61,-113.52 594.89,-120.31"/>
</a>
</g>
</g>
<!-- MAX_EUR -->
<g id="node9" class="node">
<title>MAX_EUR</title>
<g id="a_node9"><a xlink:title="MAX_EUR&#10;Exogen">
<polygon fill="yellow" stroke="black" points="132,-491 50,-491 50,-455 132,-455 132,-491"/>
<text text-anchor="start" x="56" y="-468.8" font-family="Times New Roman,serif" font-size="14.00" fill="blue">MAX_EUR:</text>
</a>
</g>
</g>
<!-- MAX_W -->
<g id="node30" class="node">
<title>MAX_W</title>
<g id="a_node30"><a xlink:title="MAX_W&#10;FRML &lt;MATRIX&gt; MAX_W &#160;&#160;&#160;&#160;&#160;&#160;&#160;&#160;&#160;&#160;&#160;&#160;= MATRIX(&#10;[MAX_USD,MAX_JPY,MAX_EUR]) &#160;&#160;&#160;&#160;&#160;$">
<polygon fill="#63b8ff" stroke="black" points="330,-491 262,-491 262,-455 330,-455 330,-491"/>
<text text-anchor="start" x="268" y="-468.8" font-family="Times New Roman,serif" font-size="14.00" fill="blue">MAX_W:</text>
</a>
</g>
</g>
<!-- MAX_EUR&#45;&gt;MAX_W -->
<g id="edge39" class="edge">
<title>MAX_EUR&#45;&gt;MAX_W</title>
<g id="a_edge39"><a xlink:href="bogus" xlink:title="NA">
<path fill="none" stroke="black" stroke-width="0.5" d="M132.11,-473C166.6,-473 216.25,-473 251.65,-473"/>
<polygon fill="black" stroke="black" stroke-width="0.5" points="251.69,-476.5 261.69,-473 251.69,-469.5 251.69,-476.5"/>
</a>
</g>
</g>
<!-- POSITION_JPY -->
<g id="node10" class="node">
<title>POSITION_JPY</title>
<g id="a_node10"><a xlink:title="POSITION_JPY&#10;FRML XX &#160;&#160;&#160;&#160;&#160;POSITION_USD,POSITION_JPY,POSITION_EUR = POSITIONS $">
<polygon fill="#63b8ff" stroke="black" points="685.5,-383 579.5,-383 579.5,-347 685.5,-347 685.5,-383"/>
<text text-anchor="start" x="585.5" y="-360.8" font-family="Times New Roman,serif" font-size="14.00" fill="blue">POSITION_JPY:</text>
</a>
</g>
</g>
<!-- MIN_JPY -->
<g id="node11" class="node">
<title>MIN_JPY</title>
<g id="a_node11"><a xlink:title="MIN_JPY&#10;Exogen">
<polygon fill="yellow" stroke="black" points="127,-329 55,-329 55,-293 127,-293 127,-329"/>
<text text-anchor="start" x="61" y="-306.8" font-family="Times New Roman,serif" font-size="14.00" fill="blue">MIN_JPY:</text>
</a>
</g>
</g>
<!-- MIN_JPY&#45;&gt;MIN_W -->
<g id="edge9" class="edge">
<title>MIN_JPY&#45;&gt;MIN_W</title>
<g id="a_edge9"><a xlink:href="bogus" xlink:title="NA">
<path fill="none" stroke="black" stroke-width="0.5" d="M127.36,-320.41C162.77,-329.82 217.19,-344.3 254.36,-354.19"/>
<polygon fill="black" stroke="black" stroke-width="0.5" points="253.79,-357.66 264.35,-356.85 255.59,-350.89 253.79,-357.66"/>
</a>
</g>
</g>
<!-- LEVERAGE_WEIGHTED_SUM -->
<g id="node17" class="node">
<title>LEVERAGE_WEIGHTED_SUM</title>
<g id="a_node17"><a xlink:title="LEVERAGE_WEIGHTED_SUM&#10;FRML XX &#160;&#160;&#160;&#160;&#160;LEVERAGE_WEIGHTED_SUM = (LEVERAGE_WEIGHTS.TRANS() * POSITIONS)[0,0] $">
<polygon fill="#63b8ff" stroke="black" points="734,-561 531,-561 531,-525 734,-525 734,-561"/>
<text text-anchor="start" x="537.5" y="-538.8" font-family="Times New Roman,serif" font-size="14.00" fill="blue">LEVERAGE_WEIGHTED_SUM:</text>
</a>
</g>
</g>
<!-- LEVERAGE_WEIGHTS&#45;&gt;LEVERAGE_WEIGHTED_SUM -->
<g id="edge10" class="edge">
<title>LEVERAGE_WEIGHTS&#45;&gt;LEVERAGE_WEIGHTED_SUM</title>
<g id="a_edge10"><a xlink:href="bogus" xlink:title="NA">
<path fill="none" stroke="black" stroke-width="0.5" d="M315.8,-670.69C337.01,-650.99 373.36,-620.07 410,-602 444.42,-585.02 484.34,-572.47 520.73,-563.41"/>
<polygon fill="black" stroke="black" stroke-width="0.5" points="522,-566.7 530.89,-560.94 520.35,-559.9 522,-566.7"/>
</a>
</g>
</g>
<!-- LEVERAGE_WEIGHTS&#45;&gt;POSITIONS -->
<g id="edge37" class="edge">
<title>LEVERAGE_WEIGHTS&#45;&gt;POSITIONS</title>
<g id="a_edge37"><a xlink:href="bogus" xlink:title="NA">
<path fill="none" stroke="black" stroke-width="0.5" d="M308.49,-670.63C324.27,-645.03 353.07,-596.93 374,-554 401.28,-498.06 427.58,-429.99 441.42,-392.72"/>
<polygon fill="black" stroke="black" stroke-width="0.5" points="444.81,-393.65 444.99,-383.06 438.24,-391.23 444.81,-393.65"/>
</a>
</g>
</g>
<!-- TOTAL -->
<g id="node13" class="node">
<title>TOTAL</title>
<g id="a_node13"><a xlink:title="TOTAL&#10;Exogen">
<polygon fill="yellow" stroke="black" points="326,-329 266,-329 266,-293 326,-293 326,-329"/>
<text text-anchor="start" x="272" y="-306.8" font-family="Times New Roman,serif" font-size="14.00" fill="blue">TOTAL:</text>
</a>
</g>
</g>
<!-- TOTAL&#45;&gt;POSITIONS -->
<g id="edge1" class="edge">
<title>TOTAL&#45;&gt;POSITIONS</title>
<g id="a_edge1"><a xlink:href="bogus" xlink:title="NA">
<path fill="none" stroke="black" stroke-width="0.5" d="M326.06,-321.16C346.9,-328.44 375.52,-338.44 400.16,-347.06"/>
<polygon fill="black" stroke="black" stroke-width="0.5" points="399.14,-350.41 409.74,-350.4 401.45,-343.8 399.14,-350.41"/>
</a>
</g>
</g>
<!-- EQUITY -->
<g id="node15" class="node">
<title>EQUITY</title>
<g id="a_node15"><a xlink:title="EQUITY&#10;Exogen">
<polygon fill="yellow" stroke="black" points="329,-275 263,-275 263,-239 329,-239 329,-275"/>
<text text-anchor="start" x="269" y="-252.8" font-family="Times New Roman,serif" font-size="14.00" fill="blue">EQUITY:</text>
</a>
</g>
</g>
<!-- EQUITY&#45;&gt;POSITIONS -->
<g id="edge16" class="edge">
<title>EQUITY&#45;&gt;POSITIONS</title>
<g id="a_edge16"><a xlink:href="bogus" xlink:title="NA">
<path fill="none" stroke="black" stroke-width="0.5" d="M329.26,-264.63C343.67,-268.94 360.42,-275.25 374,-284 396.64,-298.58 417.44,-321.06 431.78,-338.65"/>
<polygon fill="black" stroke="black" stroke-width="0.5" points="429.32,-341.17 438.29,-346.83 434.8,-336.82 429.32,-341.17"/>
</a>
</g>
</g>
<!-- VRETURN -->
<g id="node16" class="node">
<title>VRETURN</title>
<g id="a_node16"><a xlink:title="VRETURN&#10;FRML &lt;MATRIX&gt; VRETURN &#160;&#160;&#160;&#160;&#160;&#160;&#160;&#160;= MATRIX([0.048,0.040,0.035]) $">
<polygon fill="#63b8ff" stroke="black" points="336,-113 256,-113 256,-77 336,-77 336,-113"/>
<text text-anchor="start" x="262" y="-90.8" font-family="Times New Roman,serif" font-size="14.00" fill="blue">VRETURN:</text>
</a>
</g>
</g>
<!-- VRETURN&#45;&gt;POSITIONS -->
<g id="edge19" class="edge">
<title>VRETURN&#45;&gt;POSITIONS</title>
<g id="a_edge19"><a xlink:href="bogus" xlink:title="NA">
<path fill="none" stroke="black" stroke-width="0.5" d="M336.14,-101.31C349.66,-105.25 363.93,-111.64 374,-122 404.36,-153.24 433.83,-280 445.85,-337"/>
<polygon fill="black" stroke="black" stroke-width="0.5" points="442.42,-337.71 447.88,-346.79 449.27,-336.29 442.42,-337.71"/>
</a>
</g>
</g>
<!-- RETURN -->
<g id="node26" class="node">
<title>RETURN</title>
<g id="a_node26"><a xlink:title="RETURN&#10;FRML XX &#160;&#160;&#160;&#160;&#160;RETURN &#160;&#160;&#160;&#160;&#160;&#160;&#160;&#160;&#160;&#160;&#160;&#160;= &#160;(POSITIONS.TRANS() * VRETURN &#160;&#160;&#160;&#160;&#160;&#160;&#160;)[0,0] $">
<polygon fill="#63b8ff" stroke="black" points="667.5,-198 597.5,-198 597.5,-162 667.5,-162 667.5,-198"/>
<text text-anchor="start" x="603.5" y="-175.8" font-family="Times New Roman,serif" font-size="14.00" fill="blue">RETURN:</text>
</a>
</g>
</g>
<!-- VRETURN&#45;&gt;RETURN -->
<g id="edge3" class="edge">
<title>VRETURN&#45;&gt;RETURN</title>
<g id="a_edge3"><a xlink:href="bogus" xlink:title="NA">
<path fill="none" stroke="black" stroke-width="0.5" d="M336.14,-107.65C348.39,-111.9 361.87,-116.86 374,-122 390.47,-128.97 393.03,-134.35 410,-140 469.68,-159.85 541.88,-170.56 587.26,-175.76"/>
<polygon fill="black" stroke="black" stroke-width="0.5" points="587.03,-179.26 597.36,-176.88 587.8,-172.3 587.03,-179.26"/>
</a>
</g>
</g>
<!-- RISK_WEIGHTED_SUM -->
<g id="node18" class="node">
<title>RISK_WEIGHTED_SUM</title>
<g id="a_node18"><a xlink:title="RISK_WEIGHTED_SUM&#10;FRML XX &#160;&#160;&#160;&#160;&#160;RISK_WEIGHTED_SUM &#160;&#160;&#160;&#160;= (RISK_WEIGHTS.TRANS() * POSITIONS)[0,0] $">
<polygon fill="#63b8ff" stroke="black" points="714,-502 551,-502 551,-466 714,-466 714,-502"/>
<text text-anchor="start" x="557.5" y="-479.8" font-family="Times New Roman,serif" font-size="14.00" fill="blue">RISK_WEIGHTED_SUM:</text>
</a>
</g>
</g>
<!-- MAX_JPY -->
<g id="node19" class="node">
<title>MAX_JPY</title>
<g id="a_node19"><a xlink:title="MAX_JPY&#10;Exogen">
<polygon fill="yellow" stroke="black" points="129.5,-437 52.5,-437 52.5,-401 129.5,-401 129.5,-437"/>
<text text-anchor="start" x="59" y="-414.8" font-family="Times New Roman,serif" font-size="14.00" fill="blue">MAX_JPY:</text>
</a>
</g>
</g>
<!-- MAX_JPY&#45;&gt;MAX_W -->
<g id="edge27" class="edge">
<title>MAX_JPY&#45;&gt;MAX_W</title>
<g id="a_edge27"><a xlink:href="bogus" xlink:title="NA">
<path fill="none" stroke="black" stroke-width="0.5" d="M129.71,-429.03C164.4,-438.26 215.81,-451.93 252.07,-461.58"/>
<polygon fill="black" stroke="black" stroke-width="0.5" points="251.3,-465 261.86,-464.19 253.1,-458.23 251.3,-465"/>
</a>
</g>
</g>
<!-- CAPITAL -->
<g id="node20" class="node">
<title>CAPITAL</title>
<g id="a_node20"><a xlink:title="CAPITAL&#10;Exogen">
<polygon fill="yellow" stroke="black" points="332.5,-221 259.5,-221 259.5,-185 332.5,-185 332.5,-221"/>
<text text-anchor="start" x="266" y="-198.8" font-family="Times New Roman,serif" font-size="14.00" fill="blue">CAPITAL:</text>
</a>
</g>
</g>
<!-- CAPITAL&#45;&gt;POSITIONS -->
<g id="edge15" class="edge">
<title>CAPITAL&#45;&gt;POSITIONS</title>
<g id="a_edge15"><a xlink:href="bogus" xlink:title="NA">
<path fill="none" stroke="black" stroke-width="0.5" d="M332.65,-209.83C346.69,-213.89 362.23,-220.22 374,-230 408.54,-258.71 430.9,-307.05 442.33,-337.42"/>
<polygon fill="black" stroke="black" stroke-width="0.5" points="439.1,-338.77 445.8,-346.98 445.68,-336.39 439.1,-338.77"/>
</a>
</g>
</g>
<!-- LCR_WEIGHT_USD -->
<g id="node21" class="node">
<title>LCR_WEIGHT_USD</title>
<g id="a_node21"><a xlink:title="LCR_WEIGHT_USD&#10;Exogen">
<polygon fill="yellow" stroke="black" points="159.5,-923 22.5,-923 22.5,-887 159.5,-887 159.5,-923"/>
<text text-anchor="start" x="29" y="-900.8" font-family="Times New Roman,serif" font-size="14.00" fill="blue">LCR_WEIGHT_USD:</text>
</a>
</g>
</g>
<!-- LCR_WEIGHT_USD&#45;&gt;LCR_WEIGHTS -->
<g id="edge6" class="edge">
<title>LCR_WEIGHT_USD&#45;&gt;LCR_WEIGHTS</title>
<g id="a_edge6"><a xlink:href="bogus" xlink:title="NA">
<path fill="none" stroke="black" stroke-width="0.5" d="M159.6,-887.02C182.4,-880.95 207.79,-874.2 230.36,-868.19"/>
<polygon fill="black" stroke="black" stroke-width="0.5" points="231.42,-871.54 240.18,-865.58 229.62,-864.77 231.42,-871.54"/>
</a>
</g>
</g>
<!-- RISKAVERSION -->
<g id="node22" class="node">
<title>RISKAVERSION</title>
<g id="a_node22"><a xlink:title="RISKAVERSION&#10;Exogen">
<polygon fill="yellow" stroke="black" points="353,-167 239,-167 239,-131 353,-131 353,-167"/>
<text text-anchor="start" x="245" y="-144.8" font-family="Times New Roman,serif" font-size="14.00" fill="blue">RISKAVERSION:</text>
</a>
</g>
</g>
<!-- RISKAVERSION&#45;&gt;POSITIONS -->
<g id="edge24" class="edge">
<title>RISKAVERSION&#45;&gt;POSITIONS</title>
<g id="a_edge24"><a xlink:href="bogus" xlink:title="NA">
<path fill="none" stroke="black" stroke-width="0.5" d="M353.24,-162.32C360.83,-165.86 368.04,-170.34 374,-176 420.39,-220.05 439.88,-295.86 447.35,-336.8"/>
<polygon fill="black" stroke="black" stroke-width="0.5" points="443.94,-337.62 449.08,-346.89 450.84,-336.45 443.94,-337.62"/>
</a>
</g>
</g>
<!-- RISK_WEIGHT_USD -->
<g id="node23" class="node">
<title>RISK_WEIGHT_USD</title>
<g id="a_node23"><a xlink:title="RISK_WEIGHT_USD&#10;Exogen">
<polygon fill="yellow" stroke="black" points="162,-599 20,-599 20,-563 162,-563 162,-599"/>
<text text-anchor="start" x="26" y="-576.8" font-family="Times New Roman,serif" font-size="14.00" fill="blue">RISK_WEIGHT_USD:</text>
</a>
</g>
</g>
<!-- RISK_WEIGHT_USD&#45;&gt;RISK_WEIGHTS -->
<g id="edge12" class="edge">
<title>RISK_WEIGHT_USD&#45;&gt;RISK_WEIGHTS</title>
<g id="a_edge12"><a xlink:href="bogus" xlink:title="NA">
<path fill="none" stroke="black" stroke-width="0.5" d="M159.88,-562.94C181.97,-557.07 206.45,-550.55 228.44,-544.7"/>
<polygon fill="black" stroke="black" stroke-width="0.5" points="229.59,-548.02 238.36,-542.07 227.79,-541.26 229.59,-548.02"/>
</a>
</g>
</g>
<!-- POSITIONS&#45;&gt;POSITION_EUR -->
<g id="edge36" class="edge">
<title>POSITIONS&#45;&gt;POSITION_EUR</title>
<g id="a_edge36"><a xlink:href="bogus" xlink:title="NA">
<path fill="none" stroke="black" stroke-width="0.5" d="M495.15,-380.13C506.7,-384.16 519.29,-388.39 531,-392 542.4,-395.51 554.6,-399.01 566.44,-402.26"/>
<polygon fill="black" stroke="black" stroke-width="0.5" points="565.7,-405.69 576.26,-404.93 567.53,-398.93 565.7,-405.69"/>
</a>
</g>
</g>
<!-- POSITIONS&#45;&gt;POSITION_JPY -->
<g id="edge32" class="edge">
<title>POSITIONS&#45;&gt;POSITION_JPY</title>
<g id="a_edge32"><a xlink:href="bogus" xlink:title="NA">
<path fill="none" stroke="black" stroke-width="0.5" d="M495.23,-365C517.17,-365 544.51,-365 568.93,-365"/>
<polygon fill="black" stroke="black" stroke-width="0.5" points="569.19,-368.5 579.19,-365 569.19,-361.5 569.19,-368.5"/>
</a>
</g>
</g>
<!-- POSITIONS&#45;&gt;LCR_WEIGHTED_SUM -->
<g id="edge7" class="edge">
<title>POSITIONS&#45;&gt;LCR_WEIGHTED_SUM</title>
<g id="a_edge7"><a xlink:href="bogus" xlink:title="NA">
<path fill="none" stroke="black" stroke-width="0.5" d="M455.07,-383.29C459.49,-423.15 475.58,-518.4 531,-570 535.08,-573.8 539.62,-577.12 544.46,-580.02"/>
<polygon fill="black" stroke="black" stroke-width="0.5" points="542.97,-583.19 553.44,-584.8 546.26,-577.01 542.97,-583.19"/>
</a>
</g>
</g>
<!-- POSITIONS&#45;&gt;LEVERAGE_WEIGHTED_SUM -->
<g id="edge34" class="edge">
<title>POSITIONS&#45;&gt;LEVERAGE_WEIGHTED_SUM</title>
<g id="a_edge34"><a xlink:href="bogus" xlink:title="NA">
<path fill="none" stroke="black" stroke-width="0.5" d="M458.23,-383.11C467.2,-413.9 489.58,-476.43 531,-511 535.07,-514.4 539.5,-517.43 544.17,-520.15"/>
<polygon fill="black" stroke="black" stroke-width="0.5" points="542.9,-523.44 553.38,-524.99 546.16,-517.24 542.9,-523.44"/>
</a>
</g>
</g>
<!-- POSITIONS&#45;&gt;RISK_WEIGHTED_SUM -->
<g id="edge33" class="edge">
<title>POSITIONS&#45;&gt;RISK_WEIGHTED_SUM</title>
<g id="a_edge33"><a xlink:href="bogus" xlink:title="NA">
<path fill="none" stroke="black" stroke-width="0.5" d="M466.8,-383.04C480.95,-401.13 504.87,-428.71 531,-446 540.33,-452.17 550.79,-457.53 561.36,-462.13"/>
<polygon fill="black" stroke="black" stroke-width="0.5" points="560.06,-465.38 570.64,-465.97 562.74,-458.91 560.06,-465.38"/>
</a>
</g>
</g>
<!-- POSITIONS&#45;&gt;RETURN -->
<g id="edge5" class="edge">
<title>POSITIONS&#45;&gt;RETURN</title>
<g id="a_edge5"><a xlink:href="bogus" xlink:title="NA">
<path fill="none" stroke="black" stroke-width="0.5" d="M470.71,-346.96C486.4,-330.53 510.23,-305.6 531,-284 556.88,-257.08 586.62,-226.34 606.99,-205.3"/>
<polygon fill="black" stroke="black" stroke-width="0.5" points="609.6,-207.63 614.04,-198.01 604.57,-202.76 609.6,-207.63"/>
</a>
</g>
</g>
<!-- POSITIONS&#45;&gt;RISK -->
<g id="edge14" class="edge">
<title>POSITIONS&#45;&gt;RISK</title>
<g id="a_edge14"><a xlink:href="bogus" xlink:title="NA">
<path fill="none" stroke="black" stroke-width="0.5" d="M454.68,-346.91C458.33,-306.05 473.05,-206.06 531,-153 548.33,-137.14 573.98,-130.42 595.03,-127.65"/>
<polygon fill="black" stroke="black" stroke-width="0.5" points="595.67,-131.11 605.25,-126.57 594.93,-124.15 595.67,-131.11"/>
</a>
</g>
</g>
<!-- POSITION_USD -->
<g id="node33" class="node">
<title>POSITION_USD</title>
<g id="a_node33"><a xlink:title="POSITION_USD&#10;FRML XX &#160;&#160;&#160;&#160;&#160;POSITION_USD,POSITION_JPY,POSITION_EUR = POSITIONS $">
<polygon fill="#63b8ff" stroke="black" points="688.5,-329 576.5,-329 576.5,-293 688.5,-293 688.5,-329"/>
<text text-anchor="start" x="582.5" y="-306.8" font-family="Times New Roman,serif" font-size="14.00" fill="blue">POSITION_USD:</text>
</a>
</g>
</g>
<!-- POSITIONS&#45;&gt;POSITION_USD -->
<g id="edge17" class="edge">
<title>POSITIONS&#45;&gt;POSITION_USD</title>
<g id="a_edge17"><a xlink:href="bogus" xlink:title="NA">
<path fill="none" stroke="black" stroke-width="0.5" d="M495.15,-349.87C506.7,-345.84 519.29,-341.61 531,-338 542.4,-334.49 554.6,-330.99 566.44,-327.74"/>
<polygon fill="black" stroke="black" stroke-width="0.5" points="567.53,-331.07 576.26,-325.07 565.7,-324.31 567.53,-331.07"/>
</a>
</g>
</g>
<!-- RISK_WEIGHTS&#45;&gt;RISK_WEIGHTED_SUM -->
<g id="edge8" class="edge">
<title>RISK_WEIGHTS&#45;&gt;RISK_WEIGHTED_SUM</title>
<g id="a_edge8"><a xlink:href="bogus" xlink:title="NA">
<path fill="none" stroke="black" stroke-width="0.5" d="M353.74,-519.71C404.93,-513.13 481.11,-503.33 540.75,-495.67"/>
<polygon fill="black" stroke="black" stroke-width="0.5" points="541.46,-499.1 550.93,-494.36 540.56,-492.16 541.46,-499.1"/>
</a>
</g>
</g>
<!-- RISK_WEIGHTS&#45;&gt;POSITIONS -->
<g id="edge31" class="edge">
<title>RISK_WEIGHTS&#45;&gt;POSITIONS</title>
<g id="a_edge31"><a xlink:href="bogus" xlink:title="NA">
<path fill="none" stroke="black" stroke-width="0.5" d="M353.78,-512.41C361.04,-509.07 368.01,-504.98 374,-500 408.54,-471.29 430.9,-422.95 442.33,-392.58"/>
<polygon fill="black" stroke="black" stroke-width="0.5" points="445.68,-393.61 445.8,-383.02 439.1,-391.23 445.68,-393.61"/>
</a>
</g>
</g>
<!-- MIN_EUR -->
<g id="node27" class="node">
<title>MIN_EUR</title>
<g id="a_node27"><a xlink:title="MIN_EUR&#10;Exogen">
<polygon fill="yellow" stroke="black" points="129.5,-275 52.5,-275 52.5,-239 129.5,-239 129.5,-275"/>
<text text-anchor="start" x="59" y="-252.8" font-family="Times New Roman,serif" font-size="14.00" fill="blue">MIN_EUR:</text>
</a>
</g>
</g>
<!-- MIN_EUR&#45;&gt;MIN_W -->
<g id="edge13" class="edge">
<title>MIN_EUR&#45;&gt;MIN_W</title>
<g id="a_edge13"><a xlink:href="bogus" xlink:title="NA">
<path fill="none" stroke="black" stroke-width="0.5" d="M129.66,-262.29C146.88,-266.14 166.79,-272.74 182,-284 205.19,-301.16 195.21,-320.31 218,-338 228.6,-346.22 241.89,-352.06 254.43,-356.15"/>
<polygon fill="black" stroke="black" stroke-width="0.5" points="253.68,-359.57 264.27,-359.06 255.67,-352.86 253.68,-359.57"/>
</a>
</g>
</g>
<!-- LEVERAGE_WEIGHT_EUR -->
<g id="node28" class="node">
<title>LEVERAGE_WEIGHT_EUR</title>
<g id="a_node28"><a xlink:title="LEVERAGE_WEIGHT_EUR&#10;Exogen">
<polygon fill="yellow" stroke="black" points="182,-761 0,-761 0,-725 182,-725 182,-761"/>
<text text-anchor="start" x="6" y="-738.8" font-family="Times New Roman,serif" font-size="14.00" fill="blue">LEVERAGE_WEIGHT_EUR:</text>
</a>
</g>
</g>
<!-- LEVERAGE_WEIGHT_EUR&#45;&gt;LEVERAGE_WEIGHTS -->
<g id="edge2" class="edge">
<title>LEVERAGE_WEIGHT_EUR&#45;&gt;LEVERAGE_WEIGHTS</title>
<g id="a_edge2"><a xlink:href="bogus" xlink:title="NA">
<path fill="none" stroke="black" stroke-width="0.5" d="M159.88,-724.94C178.33,-720.04 198.45,-714.68 217.4,-709.64"/>
<polygon fill="black" stroke="black" stroke-width="0.5" points="218.42,-712.99 227.19,-707.04 216.62,-706.23 218.42,-712.99"/>
</a>
</g>
</g>
<!-- LEVERAGE_WEIGHT_USD -->
<g id="node29" class="node">
<title>LEVERAGE_WEIGHT_USD</title>
<g id="a_node29"><a xlink:title="LEVERAGE_WEIGHT_USD&#10;Exogen">
<polygon fill="yellow" stroke="black" points="182,-707 0,-707 0,-671 182,-671 182,-707"/>
<text text-anchor="start" x="6" y="-684.8" font-family="Times New Roman,serif" font-size="14.00" fill="blue">LEVERAGE_WEIGHT_USD:</text>
</a>
</g>
</g>
<!-- LEVERAGE_WEIGHT_USD&#45;&gt;LEVERAGE_WEIGHTS -->
<g id="edge35" class="edge">
<title>LEVERAGE_WEIGHT_USD&#45;&gt;LEVERAGE_WEIGHTS</title>
<g id="a_edge35"><a xlink:href="bogus" xlink:title="NA">
<path fill="none" stroke="black" stroke-width="0.5" d="M182.22,-689C190.65,-689 199.19,-689 207.59,-689"/>
<polygon fill="black" stroke="black" stroke-width="0.5" points="207.77,-692.5 217.77,-689 207.77,-685.5 207.77,-692.5"/>
</a>
</g>
</g>
<!-- MAX_W&#45;&gt;POSITIONS -->
<g id="edge29" class="edge">
<title>MAX_W&#45;&gt;POSITIONS</title>
<g id="a_edge29"><a xlink:href="bogus" xlink:title="NA">
<path fill="none" stroke="black" stroke-width="0.5" d="M330.02,-465.14C344.26,-460.84 360.66,-454.59 374,-446 396.64,-431.42 417.44,-408.94 431.78,-391.35"/>
<polygon fill="black" stroke="black" stroke-width="0.5" points="434.8,-393.18 438.29,-383.17 429.32,-388.83 434.8,-393.18"/>
</a>
</g>
</g>
<!-- MAX_USD -->
<g id="node32" class="node">
<title>MAX_USD</title>
<g id="a_node32"><a xlink:title="MAX_USD&#10;Exogen">
<polygon fill="yellow" stroke="black" points="132,-383 50,-383 50,-347 132,-347 132,-383"/>
<text text-anchor="start" x="56" y="-360.8" font-family="Times New Roman,serif" font-size="14.00" fill="blue">MAX_USD:</text>
</a>
</g>
</g>
<!-- MAX_USD&#45;&gt;MAX_W -->
<g id="edge23" class="edge">
<title>MAX_USD&#45;&gt;MAX_W</title>
<g id="a_edge23"><a xlink:href="bogus" xlink:title="NA">
<path fill="none" stroke="black" stroke-width="0.5" d="M132.36,-370.91C148.93,-374.84 167.58,-381.33 182,-392 205.19,-409.16 195.21,-428.31 218,-446 227.97,-453.74 240.32,-459.36 252.19,-463.4"/>
<polygon fill="black" stroke="black" stroke-width="0.5" points="251.4,-466.82 261.98,-466.43 253.47,-460.13 251.4,-466.82"/>
</a>
</g>
</g>
<!-- LCR_WEIGHT_JPY -->
<g id="node34" class="node">
<title>LCR_WEIGHT_JPY</title>
<g id="a_node34"><a xlink:title="LCR_WEIGHT_JPY&#10;Exogen">
<polygon fill="yellow" stroke="black" points="157,-869 25,-869 25,-833 157,-833 157,-869"/>
<text text-anchor="start" x="31" y="-846.8" font-family="Times New Roman,serif" font-size="14.00" fill="blue">LCR_WEIGHT_JPY:</text>
</a>
</g>
</g>
<!-- LCR_WEIGHT_JPY&#45;&gt;LCR_WEIGHTS -->
<g id="edge20" class="edge">
<title>LCR_WEIGHT_JPY&#45;&gt;LCR_WEIGHTS</title>
<g id="a_edge20"><a xlink:href="bogus" xlink:title="NA">
<path fill="none" stroke="black" stroke-width="0.5" d="M157.07,-851C180.4,-851 206.7,-851 230.03,-851"/>
<polygon fill="black" stroke="black" stroke-width="0.5" points="230.17,-854.5 240.17,-851 230.17,-847.5 230.17,-854.5"/>
</a>
</g>
</g>
<!-- RISK_WEIGHT_JPY -->
<g id="node35" class="node">
<title>RISK_WEIGHT_JPY</title>
<g id="a_node35"><a xlink:title="RISK_WEIGHT_JPY&#10;Exogen">
<polygon fill="yellow" stroke="black" points="159,-545 23,-545 23,-509 159,-509 159,-545"/>
<text text-anchor="start" x="29" y="-522.8" font-family="Times New Roman,serif" font-size="14.00" fill="blue">RISK_WEIGHT_JPY:</text>
</a>
</g>
</g>
<!-- RISK_WEIGHT_JPY&#45;&gt;RISK_WEIGHTS -->
<g id="edge18" class="edge">
<title>RISK_WEIGHT_JPY&#45;&gt;RISK_WEIGHTS</title>
<g id="a_edge18"><a xlink:href="bogus" xlink:title="NA">
<path fill="none" stroke="black" stroke-width="0.5" d="M159.03,-527C181.27,-527 206,-527 228.22,-527"/>
<polygon fill="black" stroke="black" stroke-width="0.5" points="228.23,-530.5 238.23,-527 228.23,-523.5 228.23,-530.5"/>
</a>
</g>
</g>
<!-- MIN_USD -->
<g id="node36" class="node">
<title>MIN_USD</title>
<g id="a_node36"><a xlink:title="MIN_USD&#10;Exogen">
<polygon fill="yellow" stroke="black" points="129.5,-221 52.5,-221 52.5,-185 129.5,-185 129.5,-221"/>
<text text-anchor="start" x="59" y="-198.8" font-family="Times New Roman,serif" font-size="14.00" fill="blue">MIN_USD:</text>
</a>
</g>
</g>
<!-- MIN_USD&#45;&gt;MIN_W -->
<g id="edge28" class="edge">
<title>MIN_USD&#45;&gt;MIN_W</title>
<g id="a_edge28"><a xlink:href="bogus" xlink:title="NA">
<path fill="none" stroke="black" stroke-width="0.5" d="M129.77,-206.31C147.64,-209.7 168.07,-216.48 182,-230 218.31,-265.23 182.5,-301.95 218,-338 227.74,-347.89 241.31,-354.17 254.35,-358.15"/>
<polygon fill="black" stroke="black" stroke-width="0.5" points="253.58,-361.56 264.14,-360.76 255.39,-354.8 253.58,-361.56"/>
</a>
</g>
</g>
</g>
</svg>
