<?xml version="1.0" encoding="UTF-8" standalone="no"?>
<!DOCTYPE svg PUBLIC "-//W3C//DTD SVG 1.1//EN"
 "http://www.w3.org/Graphics/SVG/1.1/DTD/svg11.dtd">
<!-- Generated by graphviz version 6.0.1 (0)
 -->
<!-- Title: TD Pages: 1 -->
<svg width="389pt" height="432pt"
 viewBox="0.00 0.00 389.48 432.00" xmlns="http://www.w3.org/2000/svg" xmlns:xlink="http://www.w3.org/1999/xlink">
<g id="graph0" class="graph" transform="scale(0.524909 0.524909) rotate(0) translate(4 819)">
<title>TD</title>
<polygon fill="white" stroke="none" points="-4,4 -4,-819 738,-819 738,4 -4,4"/>
<text text-anchor="middle" x="367" y="-7.8" font-family="Times New Roman,serif" font-size="14.00">A_model_graph</text>
<!-- EQUITY -->
<g id="node1" class="node">
<title>EQUITY</title>
<g id="a_node1"><a xlink:title="EQUITY&#10;Exogen">
<polygon fill="yellow" stroke="black" points="329,-599 263,-599 263,-563 329,-563 329,-599"/>
<text text-anchor="start" x="269" y="-576.8" font-family="Times New Roman,serif" font-size="14.00" fill="blue">EQUITY:</text>
</a>
</g>
</g>
<!-- POSITIONS -->
<g id="node28" class="node">
<title>POSITIONS</title>
<g id="a_node28"><a xlink:title="POSITIONS&#10;FRML &lt;MATRIX&gt; POSITIONS &#160;&#160;&#160;&#160;&#160;&#160;&#160;&#160;&#160;= &#160;MV_OPT(MSIGMA,VRETURN,RISKAVERSION, TOTAL,&#10; &#160;&#160;&#160;&#160;&#160;&#160;&#160;&#160;&#160;&#160;&#160;&#160;&#160;&#160;&#160;&#160;&#160;&#160;&#160;&#160;&#160;[[RISK_WEIGHTS] , [&#45;LCR_WEIGHTS] , [LEVERAGE_WEIGHTS]],&#10; &#160;&#160;&#160;&#160;&#160;&#160;&#160;&#160;&#160;&#160;&#160;&#160;&#160;&#160;&#160;&#160;&#160;&#160;&#160;&#160;&#160;&#160;&#160;&#160;&#160;&#160;&#160;&#160;&#160;&#160;&#160;&#160;&#160;&#160;&#160;&#160;&#160;&#160;[CAPITAL, &#45;LCR , EQUITY] ,MIN_W,MAX_W) $">
<polygon fill="#63b8ff" stroke="black" points="495,-437 410,-437 410,-401 495,-401 495,-437"/>
<text text-anchor="start" x="416.5" y="-414.8" font-family="Times New Roman,serif" font-size="14.00" fill="blue">POSITIONS:</text>
</a>
</g>
</g>
<!-- EQUITY&#45;&gt;POSITIONS -->
<g id="edge1" class="edge">
<title>EQUITY&#45;&gt;POSITIONS</title>
<g id="a_edge1"><a xlink:href="bogus" xlink:title="NA">
<path fill="none" stroke="black" stroke-width="0.5" d="M329.18,-575.13C344.07,-571.14 361.25,-564.59 374,-554 408.54,-525.29 430.9,-476.95 442.33,-446.58"/>
<polygon fill="black" stroke="black" stroke-width="0.5" points="445.68,-447.61 445.8,-437.02 439.1,-445.23 445.68,-447.61"/>
</a>
</g>
</g>
<!-- LCR_WEIGHTS -->
<g id="node2" class="node">
<title>LCR_WEIGHTS</title>
<g id="a_node2"><a xlink:title="LCR_WEIGHTS&#10;FRML &lt;MATRIX&gt; LCR_WEIGHTS &#160;&#160;&#160;&#160;&#160;&#160;= MATRIX(&#10;[LCR_WEIGHT_USD,LCR_WEIGHT_JPY,LCR_WEIGHT_EUR]) $">
<polygon fill="#63b8ff" stroke="black" points="351.5,-275 240.5,-275 240.5,-239 351.5,-239 351.5,-275"/>
<text text-anchor="start" x="247" y="-252.8" font-family="Times New Roman,serif" font-size="14.00" fill="blue">LCR_WEIGHTS:</text>
</a>
</g>
</g>
<!-- LCR_WEIGHTED_SUM -->
<g id="node18" class="node">
<title>LCR_WEIGHTED_SUM</title>
<g id="a_node18"><a xlink:title="LCR_WEIGHTED_SUM&#10;FRML XX &#160;&#160;&#160;&#160;&#160;LCR_WEIGHTED_SUM &#160;&#160;&#160;&#160;&#160;= (LCR_WEIGHTS.TRANS() * POSITIONS)[0,0] $">
<polygon fill="#63b8ff" stroke="black" points="711.5,-315 553.5,-315 553.5,-279 711.5,-279 711.5,-315"/>
<text text-anchor="start" x="559.5" y="-292.8" font-family="Times New Roman,serif" font-size="14.00" fill="blue">LCR_WEIGHTED_SUM:</text>
</a>
</g>
</g>
<!-- LCR_WEIGHTS&#45;&gt;LCR_WEIGHTED_SUM -->
<g id="edge28" class="edge">
<title>LCR_WEIGHTS&#45;&gt;LCR_WEIGHTED_SUM</title>
<g id="a_edge28"><a xlink:href="bogus" xlink:title="NA">
<path fill="none" stroke="black" stroke-width="0.5" d="M351.86,-263.56C403.83,-269.77 482.74,-279.21 543.51,-286.48"/>
<polygon fill="black" stroke="black" stroke-width="0.5" points="543.13,-289.96 553.48,-287.67 543.96,-283.01 543.13,-289.96"/>
</a>
</g>
</g>
<!-- LCR_WEIGHTS&#45;&gt;POSITIONS -->
<g id="edge36" class="edge">
<title>LCR_WEIGHTS&#45;&gt;POSITIONS</title>
<g id="a_edge36"><a xlink:href="bogus" xlink:title="NA">
<path fill="none" stroke="black" stroke-width="0.5" d="M351.8,-270.69C359.76,-274.2 367.46,-278.57 374,-284 408.54,-312.71 430.9,-361.05 442.33,-391.42"/>
<polygon fill="black" stroke="black" stroke-width="0.5" points="439.1,-392.77 445.8,-400.98 445.68,-390.39 439.1,-392.77"/>
</a>
</g>
</g>
<!-- RISK -->
<g id="node3" class="node">
<title>RISK</title>
<g id="a_node3"><a xlink:title="RISK&#10;FRML XX &#160;&#160;&#160;&#160;&#160;RISK &#160;&#160;&#160;&#160;&#160;&#160;&#160;&#160;&#160;&#160;&#160;&#160;&#160;&#160;= &#160;(POSITIONS.TRANS() * MSIGMA * POSITIONS)[0,0]$">
<polygon fill="#63b8ff" stroke="black" points="659.5,-708 605.5,-708 605.5,-672 659.5,-672 659.5,-708"/>
<text text-anchor="start" x="615.5" y="-685.8" font-family="Times New Roman,serif" font-size="14.00" fill="blue">RISK:</text>
</a>
</g>
</g>
<!-- MIN_JPY -->
<g id="node4" class="node">
<title>MIN_JPY</title>
<g id="a_node4"><a xlink:title="MIN_JPY&#10;Exogen">
<polygon fill="yellow" stroke="black" points="127,-491 55,-491 55,-455 127,-455 127,-491"/>
<text text-anchor="start" x="61" y="-468.8" font-family="Times New Roman,serif" font-size="14.00" fill="blue">MIN_JPY:</text>
</a>
</g>
</g>
<!-- MIN_W -->
<g id="node17" class="node">
<title>MIN_W</title>
<g id="a_node17"><a xlink:title="MIN_W&#10;FRML &lt;MATRIX&gt; MIN_W &#160;&#160;&#160;&#160;&#160;&#160;&#160;&#160;&#160;&#160;&#160;&#160;= MATRIX(&#10;[MIN_USD,MIN_JPY,MIN_EUR]) &#160;&#160;&#160;&#160;&#160;&#160;$">
<polygon fill="#63b8ff" stroke="black" points="327.5,-383 264.5,-383 264.5,-347 327.5,-347 327.5,-383"/>
<text text-anchor="start" x="271" y="-360.8" font-family="Times New Roman,serif" font-size="14.00" fill="blue">MIN_W:</text>
</a>
</g>
</g>
<!-- MIN_JPY&#45;&gt;MIN_W -->
<g id="edge16" class="edge">
<title>MIN_JPY&#45;&gt;MIN_W</title>
<g id="a_edge16"><a xlink:href="bogus" xlink:title="NA">
<path fill="none" stroke="black" stroke-width="0.5" d="M127.01,-468.28C144.81,-464.53 166,-457.84 182,-446 205.19,-428.84 195.21,-409.69 218,-392 228.6,-383.78 241.89,-377.94 254.43,-373.85"/>
<polygon fill="black" stroke="black" stroke-width="0.5" points="255.67,-377.14 264.27,-370.94 253.68,-370.43 255.67,-377.14"/>
</a>
</g>
</g>
<!-- VRETURN -->
<g id="node5" class="node">
<title>VRETURN</title>
<g id="a_node5"><a xlink:title="VRETURN&#10;FRML &lt;MATRIX&gt; VRETURN &#160;&#160;&#160;&#160;&#160;&#160;&#160;&#160;= MATRIX([0.048,0.040,0.035]) $">
<polygon fill="#63b8ff" stroke="black" points="336,-221 256,-221 256,-185 336,-185 336,-221"/>
<text text-anchor="start" x="262" y="-198.8" font-family="Times New Roman,serif" font-size="14.00" fill="blue">VRETURN:</text>
</a>
</g>
</g>
<!-- RETURN -->
<g id="node27" class="node">
<title>RETURN</title>
<g id="a_node27"><a xlink:title="RETURN&#10;FRML XX &#160;&#160;&#160;&#160;&#160;RETURN &#160;&#160;&#160;&#160;&#160;&#160;&#160;&#160;&#160;&#160;&#160;&#160;= &#160;(POSITIONS.TRANS() * VRETURN &#160;&#160;&#160;&#160;&#160;&#160;&#160;)[0,0] $">
<polygon fill="#63b8ff" stroke="black" points="667.5,-221 597.5,-221 597.5,-185 667.5,-185 667.5,-221"/>
<text text-anchor="start" x="603.5" y="-198.8" font-family="Times New Roman,serif" font-size="14.00" fill="blue">RETURN:</text>
</a>
</g>
</g>
<!-- VRETURN&#45;&gt;RETURN -->
<g id="edge11" class="edge">
<title>VRETURN&#45;&gt;RETURN</title>
<g id="a_edge11"><a xlink:href="bogus" xlink:title="NA">
<path fill="none" stroke="black" stroke-width="0.5" d="M336.03,-203C398.68,-203 521.33,-203 587.19,-203"/>
<polygon fill="black" stroke="black" stroke-width="0.5" points="587.25,-206.5 597.25,-203 587.25,-199.5 587.25,-206.5"/>
</a>
</g>
</g>
<!-- VRETURN&#45;&gt;POSITIONS -->
<g id="edge35" class="edge">
<title>VRETURN&#45;&gt;POSITIONS</title>
<g id="a_edge35"><a xlink:href="bogus" xlink:title="NA">
<path fill="none" stroke="black" stroke-width="0.5" d="M336.09,-209.87C349.45,-213.87 363.62,-220.15 374,-230 420.39,-274.05 439.88,-349.86 447.35,-390.8"/>
<polygon fill="black" stroke="black" stroke-width="0.5" points="443.94,-391.62 449.08,-400.89 450.84,-390.45 443.94,-391.62"/>
</a>
</g>
</g>
<!-- MIN_EUR -->
<g id="node6" class="node">
<title>MIN_EUR</title>
<g id="a_node6"><a xlink:title="MIN_EUR&#10;Exogen">
<polygon fill="yellow" stroke="black" points="129.5,-437 52.5,-437 52.5,-401 129.5,-401 129.5,-437"/>
<text text-anchor="start" x="59" y="-414.8" font-family="Times New Roman,serif" font-size="14.00" fill="blue">MIN_EUR:</text>
</a>
</g>
</g>
<!-- MIN_EUR&#45;&gt;MIN_W -->
<g id="edge10" class="edge">
<title>MIN_EUR&#45;&gt;MIN_W</title>
<g id="a_edge10"><a xlink:href="bogus" xlink:title="NA">
<path fill="none" stroke="black" stroke-width="0.5" d="M129.71,-408.97C165.24,-399.52 218.3,-385.4 254.67,-375.73"/>
<polygon fill="black" stroke="black" stroke-width="0.5" points="255.69,-379.08 264.45,-373.13 253.89,-372.31 255.69,-379.08"/>
</a>
</g>
</g>
<!-- POSITION_JPY -->
<g id="node7" class="node">
<title>POSITION_JPY</title>
<g id="a_node7"><a xlink:title="POSITION_JPY&#10;FRML XX &#160;&#160;&#160;&#160;&#160;POSITION_USD,POSITION_JPY,POSITION_EUR = POSITIONS $">
<polygon fill="#63b8ff" stroke="black" points="685.5,-491 579.5,-491 579.5,-455 685.5,-455 685.5,-491"/>
<text text-anchor="start" x="585.5" y="-468.8" font-family="Times New Roman,serif" font-size="14.00" fill="blue">POSITION_JPY:</text>
</a>
</g>
</g>
<!-- LCR -->
<g id="node8" class="node">
<title>LCR</title>
<g id="a_node8"><a xlink:title="LCR&#10;Exogen">
<polygon fill="yellow" stroke="black" points="323,-545 269,-545 269,-509 323,-509 323,-545"/>
<text text-anchor="start" x="281" y="-522.8" font-family="Times New Roman,serif" font-size="14.00" fill="blue">LCR:</text>
</a>
</g>
</g>
<!-- LCR&#45;&gt;POSITIONS -->
<g id="edge19" class="edge">
<title>LCR&#45;&gt;POSITIONS</title>
<g id="a_edge19"><a xlink:href="bogus" xlink:title="NA">
<path fill="none" stroke="black" stroke-width="0.5" d="M323.35,-521.07C338.9,-516.78 358.52,-509.97 374,-500 396.64,-485.42 417.44,-462.94 431.78,-445.35"/>
<polygon fill="black" stroke="black" stroke-width="0.5" points="434.8,-447.18 438.29,-437.17 429.32,-442.83 434.8,-447.18"/>
</a>
</g>
</g>
<!-- RISK_WEIGHT_USD -->
<g id="node9" class="node">
<title>RISK_WEIGHT_USD</title>
<g id="a_node9"><a xlink:title="RISK_WEIGHT_USD&#10;Exogen">
<polygon fill="yellow" stroke="black" points="162,-167 20,-167 20,-131 162,-131 162,-167"/>
<text text-anchor="start" x="26" y="-144.8" font-family="Times New Roman,serif" font-size="14.00" fill="blue">RISK_WEIGHT_USD:</text>
</a>
</g>
</g>
<!-- RISK_WEIGHTS -->
<g id="node31" class="node">
<title>RISK_WEIGHTS</title>
<g id="a_node31"><a xlink:title="RISK_WEIGHTS&#10;FRML &lt;MATRIX&gt; RISK_WEIGHTS &#160;&#160;&#160;&#160;&#160;= MATRIX(&#10;[RISK_WEIGHT_USD,RISK_WEIGHT_JPY,RISK_WEIGHT_EUR]) $">
<polygon fill="#63b8ff" stroke="black" points="353.5,-167 238.5,-167 238.5,-131 353.5,-131 353.5,-167"/>
<text text-anchor="start" x="245" y="-144.8" font-family="Times New Roman,serif" font-size="14.00" fill="blue">RISK_WEIGHTS:</text>
</a>
</g>
</g>
<!-- RISK_WEIGHT_USD&#45;&gt;RISK_WEIGHTS -->
<g id="edge37" class="edge">
<title>RISK_WEIGHT_USD&#45;&gt;RISK_WEIGHTS</title>
<g id="a_edge37"><a xlink:href="bogus" xlink:title="NA">
<path fill="none" stroke="black" stroke-width="0.5" d="M162.15,-149C183.52,-149 206.94,-149 228.1,-149"/>
<polygon fill="black" stroke="black" stroke-width="0.5" points="228.28,-152.5 238.28,-149 228.28,-145.5 228.28,-152.5"/>
</a>
</g>
</g>
<!-- LCR_WEIGHT_EUR -->
<g id="node10" class="node">
<title>LCR_WEIGHT_EUR</title>
<g id="a_node10"><a xlink:title="LCR_WEIGHT_EUR&#10;Exogen">
<polygon fill="yellow" stroke="black" points="159.5,-329 22.5,-329 22.5,-293 159.5,-293 159.5,-329"/>
<text text-anchor="start" x="29" y="-306.8" font-family="Times New Roman,serif" font-size="14.00" fill="blue">LCR_WEIGHT_EUR:</text>
</a>
</g>
</g>
<!-- LCR_WEIGHT_EUR&#45;&gt;LCR_WEIGHTS -->
<g id="edge7" class="edge">
<title>LCR_WEIGHT_EUR&#45;&gt;LCR_WEIGHTS</title>
<g id="a_edge7"><a xlink:href="bogus" xlink:title="NA">
<path fill="none" stroke="black" stroke-width="0.5" d="M159.6,-293.02C182.4,-286.95 207.79,-280.2 230.36,-274.19"/>
<polygon fill="black" stroke="black" stroke-width="0.5" points="231.42,-277.54 240.18,-271.58 229.62,-270.77 231.42,-277.54"/>
</a>
</g>
</g>
<!-- RISKAVERSION -->
<g id="node11" class="node">
<title>RISKAVERSION</title>
<g id="a_node11"><a xlink:title="RISKAVERSION&#10;Exogen">
<polygon fill="yellow" stroke="black" points="353,-491 239,-491 239,-455 353,-455 353,-491"/>
<text text-anchor="start" x="245" y="-468.8" font-family="Times New Roman,serif" font-size="14.00" fill="blue">RISKAVERSION:</text>
</a>
</g>
</g>
<!-- RISKAVERSION&#45;&gt;POSITIONS -->
<g id="edge3" class="edge">
<title>RISKAVERSION&#45;&gt;POSITIONS</title>
<g id="a_edge3"><a xlink:href="bogus" xlink:title="NA">
<path fill="none" stroke="black" stroke-width="0.5" d="M348.88,-454.87C365.44,-449.08 383.75,-442.68 400.27,-436.91"/>
<polygon fill="black" stroke="black" stroke-width="0.5" points="401.47,-440.19 409.76,-433.59 399.16,-433.59 401.47,-440.19"/>
</a>
</g>
</g>
<!-- POSITION_USD -->
<g id="node12" class="node">
<title>POSITION_USD</title>
<g id="a_node12"><a xlink:title="POSITION_USD&#10;FRML XX &#160;&#160;&#160;&#160;&#160;POSITION_USD,POSITION_JPY,POSITION_EUR = POSITIONS $">
<polygon fill="#63b8ff" stroke="black" points="688.5,-437 576.5,-437 576.5,-401 688.5,-401 688.5,-437"/>
<text text-anchor="start" x="582.5" y="-414.8" font-family="Times New Roman,serif" font-size="14.00" fill="blue">POSITION_USD:</text>
</a>
</g>
</g>
<!-- LEVERAGE_WEIGHTED_SUM -->
<g id="node13" class="node">
<title>LEVERAGE_WEIGHTED_SUM</title>
<g id="a_node13"><a xlink:title="LEVERAGE_WEIGHTED_SUM&#10;FRML XX &#160;&#160;&#160;&#160;&#160;LEVERAGE_WEIGHTED_SUM = (LEVERAGE_WEIGHTS.TRANS() * POSITIONS)[0,0] $">
<polygon fill="#63b8ff" stroke="black" points="734,-618 531,-618 531,-582 734,-582 734,-618"/>
<text text-anchor="start" x="537.5" y="-595.8" font-family="Times New Roman,serif" font-size="14.00" fill="blue">LEVERAGE_WEIGHTED_SUM:</text>
</a>
</g>
</g>
<!-- TOTAL -->
<g id="node14" class="node">
<title>TOTAL</title>
<g id="a_node14"><a xlink:title="TOTAL&#10;Exogen">
<polygon fill="yellow" stroke="black" points="326,-437 266,-437 266,-401 326,-401 326,-437"/>
<text text-anchor="start" x="272" y="-414.8" font-family="Times New Roman,serif" font-size="14.00" fill="blue">TOTAL:</text>
</a>
</g>
</g>
<!-- TOTAL&#45;&gt;POSITIONS -->
<g id="edge34" class="edge">
<title>TOTAL&#45;&gt;POSITIONS</title>
<g id="a_edge34"><a xlink:href="bogus" xlink:title="NA">
<path fill="none" stroke="black" stroke-width="0.5" d="M326.06,-419C346.71,-419 375.01,-419 399.51,-419"/>
<polygon fill="black" stroke="black" stroke-width="0.5" points="399.74,-422.5 409.74,-419 399.74,-415.5 399.74,-422.5"/>
</a>
</g>
</g>
<!-- LCR_WEIGHT_JPY -->
<g id="node15" class="node">
<title>LCR_WEIGHT_JPY</title>
<g id="a_node15"><a xlink:title="LCR_WEIGHT_JPY&#10;Exogen">
<polygon fill="yellow" stroke="black" points="157,-275 25,-275 25,-239 157,-239 157,-275"/>
<text text-anchor="start" x="31" y="-252.8" font-family="Times New Roman,serif" font-size="14.00" fill="blue">LCR_WEIGHT_JPY:</text>
</a>
</g>
</g>
<!-- LCR_WEIGHT_JPY&#45;&gt;LCR_WEIGHTS -->
<g id="edge21" class="edge">
<title>LCR_WEIGHT_JPY&#45;&gt;LCR_WEIGHTS</title>
<g id="a_edge21"><a xlink:href="bogus" xlink:title="NA">
<path fill="none" stroke="black" stroke-width="0.5" d="M157.07,-257C180.4,-257 206.7,-257 230.03,-257"/>
<polygon fill="black" stroke="black" stroke-width="0.5" points="230.17,-260.5 240.17,-257 230.17,-253.5 230.17,-260.5"/>
</a>
</g>
</g>
<!-- LCR_WEIGHT_USD -->
<g id="node16" class="node">
<title>LCR_WEIGHT_USD</title>
<g id="a_node16"><a xlink:title="LCR_WEIGHT_USD&#10;Exogen">
<polygon fill="yellow" stroke="black" points="159.5,-221 22.5,-221 22.5,-185 159.5,-185 159.5,-221"/>
<text text-anchor="start" x="29" y="-198.8" font-family="Times New Roman,serif" font-size="14.00" fill="blue">LCR_WEIGHT_USD:</text>
</a>
</g>
</g>
<!-- LCR_WEIGHT_USD&#45;&gt;LCR_WEIGHTS -->
<g id="edge18" class="edge">
<title>LCR_WEIGHT_USD&#45;&gt;LCR_WEIGHTS</title>
<g id="a_edge18"><a xlink:href="bogus" xlink:title="NA">
<path fill="none" stroke="black" stroke-width="0.5" d="M159.6,-220.98C182.4,-227.05 207.79,-233.8 230.36,-239.81"/>
<polygon fill="black" stroke="black" stroke-width="0.5" points="229.62,-243.23 240.18,-242.42 231.42,-236.46 229.62,-243.23"/>
</a>
</g>
</g>
<!-- MIN_W&#45;&gt;POSITIONS -->
<g id="edge40" class="edge">
<title>MIN_W&#45;&gt;POSITIONS</title>
<g id="a_edge40"><a xlink:href="bogus" xlink:title="NA">
<path fill="none" stroke="black" stroke-width="0.5" d="M327.52,-375.67C348.24,-382.91 376.13,-392.66 400.22,-401.08"/>
<polygon fill="black" stroke="black" stroke-width="0.5" points="399.33,-404.47 409.93,-404.47 401.64,-397.87 399.33,-404.47"/>
</a>
</g>
</g>
<!-- LEVERAGE_WEIGHT_EUR -->
<g id="node19" class="node">
<title>LEVERAGE_WEIGHT_EUR</title>
<g id="a_node19"><a xlink:title="LEVERAGE_WEIGHT_EUR&#10;Exogen">
<polygon fill="yellow" stroke="black" points="182,-815 0,-815 0,-779 182,-779 182,-815"/>
<text text-anchor="start" x="6" y="-792.8" font-family="Times New Roman,serif" font-size="14.00" fill="blue">LEVERAGE_WEIGHT_EUR:</text>
</a>
</g>
</g>
<!-- LEVERAGE_WEIGHTS -->
<g id="node23" class="node">
<title>LEVERAGE_WEIGHTS</title>
<g id="a_node23"><a xlink:title="LEVERAGE_WEIGHTS&#10;FRML &lt;MATRIX&gt; LEVERAGE_WEIGHTS &#160;= MATRIX(&#10;[LEVERAGE_WEIGHT_USD,LEVERAGE_WEIGHT_JPY,LEVERAGE_WEIGHT_EUR]) $">
<polygon fill="#63b8ff" stroke="black" points="374,-707 218,-707 218,-671 374,-671 374,-707"/>
<text text-anchor="start" x="224" y="-684.8" font-family="Times New Roman,serif" font-size="14.00" fill="blue">LEVERAGE_WEIGHTS:</text>
</a>
</g>
</g>
<!-- LEVERAGE_WEIGHT_EUR&#45;&gt;LEVERAGE_WEIGHTS -->
<g id="edge33" class="edge">
<title>LEVERAGE_WEIGHT_EUR&#45;&gt;LEVERAGE_WEIGHTS</title>
<g id="a_edge33"><a xlink:href="bogus" xlink:title="NA">
<path fill="none" stroke="black" stroke-width="0.5" d="M167.15,-778.97C172.39,-776.37 177.41,-773.4 182,-770 205.19,-752.84 195.21,-733.69 218,-716 219.77,-714.62 221.62,-713.31 223.53,-712.07"/>
<polygon fill="black" stroke="black" stroke-width="0.5" points="225.34,-715.06 232.22,-707.01 221.82,-709.01 225.34,-715.06"/>
</a>
</g>
</g>
<!-- MAX_USD -->
<g id="node20" class="node">
<title>MAX_USD</title>
<g id="a_node20"><a xlink:title="MAX_USD&#10;Exogen">
<polygon fill="yellow" stroke="black" points="132,-653 50,-653 50,-617 132,-617 132,-653"/>
<text text-anchor="start" x="56" y="-630.8" font-family="Times New Roman,serif" font-size="14.00" fill="blue">MAX_USD:</text>
</a>
</g>
</g>
<!-- MAX_W -->
<g id="node35" class="node">
<title>MAX_W</title>
<g id="a_node35"><a xlink:title="MAX_W&#10;FRML &lt;MATRIX&gt; MAX_W &#160;&#160;&#160;&#160;&#160;&#160;&#160;&#160;&#160;&#160;&#160;&#160;= MATRIX(&#10;[MAX_USD,MAX_JPY,MAX_EUR]) &#160;&#160;&#160;&#160;&#160;$">
<polygon fill="#63b8ff" stroke="black" points="330,-653 262,-653 262,-617 330,-617 330,-653"/>
<text text-anchor="start" x="268" y="-630.8" font-family="Times New Roman,serif" font-size="14.00" fill="blue">MAX_W:</text>
</a>
</g>
</g>
<!-- MAX_USD&#45;&gt;MAX_W -->
<g id="edge9" class="edge">
<title>MAX_USD&#45;&gt;MAX_W</title>
<g id="a_edge9"><a xlink:href="bogus" xlink:title="NA">
<path fill="none" stroke="black" stroke-width="0.5" d="M132.11,-635C166.6,-635 216.25,-635 251.65,-635"/>
<polygon fill="black" stroke="black" stroke-width="0.5" points="251.69,-638.5 261.69,-635 251.69,-631.5 251.69,-638.5"/>
</a>
</g>
</g>
<!-- LEVERAGE_WEIGHT_JPY -->
<g id="node21" class="node">
<title>LEVERAGE_WEIGHT_JPY</title>
<g id="a_node21"><a xlink:title="LEVERAGE_WEIGHT_JPY&#10;Exogen">
<polygon fill="yellow" stroke="black" points="179.5,-761 2.5,-761 2.5,-725 179.5,-725 179.5,-761"/>
<text text-anchor="start" x="9" y="-738.8" font-family="Times New Roman,serif" font-size="14.00" fill="blue">LEVERAGE_WEIGHT_JPY:</text>
</a>
</g>
</g>
<!-- LEVERAGE_WEIGHT_JPY&#45;&gt;LEVERAGE_WEIGHTS -->
<g id="edge22" class="edge">
<title>LEVERAGE_WEIGHT_JPY&#45;&gt;LEVERAGE_WEIGHTS</title>
<g id="a_edge22"><a xlink:href="bogus" xlink:title="NA">
<path fill="none" stroke="black" stroke-width="0.5" d="M159.88,-724.94C178.33,-720.04 198.45,-714.68 217.4,-709.64"/>
<polygon fill="black" stroke="black" stroke-width="0.5" points="218.42,-712.99 227.19,-707.04 216.62,-706.23 218.42,-712.99"/>
</a>
</g>
</g>
<!-- POSITION_EUR -->
<g id="node22" class="node">
<title>POSITION_EUR</title>
<g id="a_node22"><a xlink:title="POSITION_EUR&#10;FRML XX &#160;&#160;&#160;&#160;&#160;POSITION_USD,POSITION_JPY,POSITION_EUR = POSITIONS $">
<polygon fill="#63b8ff" stroke="black" points="688.5,-383 576.5,-383 576.5,-347 688.5,-347 688.5,-383"/>
<text text-anchor="start" x="582.5" y="-360.8" font-family="Times New Roman,serif" font-size="14.00" fill="blue">POSITION_EUR:</text>
</a>
</g>
</g>
<!-- LEVERAGE_WEIGHTS&#45;&gt;LEVERAGE_WEIGHTED_SUM -->
<g id="edge17" class="edge">
<title>LEVERAGE_WEIGHTS&#45;&gt;LEVERAGE_WEIGHTED_SUM</title>
<g id="a_edge17"><a xlink:href="bogus" xlink:title="NA">
<path fill="none" stroke="black" stroke-width="0.5" d="M364.69,-670.99C419.46,-656.42 496.63,-635.89 553.89,-620.65"/>
<polygon fill="black" stroke="black" stroke-width="0.5" points="554.86,-624.01 563.62,-618.06 553.06,-617.25 554.86,-624.01"/>
</a>
</g>
</g>
<!-- LEVERAGE_WEIGHTS&#45;&gt;POSITIONS -->
<g id="edge5" class="edge">
<title>LEVERAGE_WEIGHTS&#45;&gt;POSITIONS</title>
<g id="a_edge5"><a xlink:href="bogus" xlink:title="NA">
<path fill="none" stroke="black" stroke-width="0.5" d="M363.07,-670.86C367.04,-668.29 370.74,-665.35 374,-662 432.51,-601.8 446.86,-497.49 450.37,-447.42"/>
<polygon fill="black" stroke="black" stroke-width="0.5" points="453.87,-447.51 450.98,-437.31 446.89,-447.09 453.87,-447.51"/>
</a>
</g>
</g>
<!-- MAX_JPY -->
<g id="node24" class="node">
<title>MAX_JPY</title>
<g id="a_node24"><a xlink:title="MAX_JPY&#10;Exogen">
<polygon fill="yellow" stroke="black" points="129.5,-599 52.5,-599 52.5,-563 129.5,-563 129.5,-599"/>
<text text-anchor="start" x="59" y="-576.8" font-family="Times New Roman,serif" font-size="14.00" fill="blue">MAX_JPY:</text>
</a>
</g>
</g>
<!-- MAX_JPY&#45;&gt;MAX_W -->
<g id="edge4" class="edge">
<title>MAX_JPY&#45;&gt;MAX_W</title>
<g id="a_edge4"><a xlink:href="bogus" xlink:title="NA">
<path fill="none" stroke="black" stroke-width="0.5" d="M129.71,-591.03C164.4,-600.26 215.81,-613.93 252.07,-623.58"/>
<polygon fill="black" stroke="black" stroke-width="0.5" points="251.3,-627 261.86,-626.19 253.1,-620.23 251.3,-627"/>
</a>
</g>
</g>
<!-- CAPITAL -->
<g id="node25" class="node">
<title>CAPITAL</title>
<g id="a_node25"><a xlink:title="CAPITAL&#10;Exogen">
<polygon fill="yellow" stroke="black" points="332.5,-329 259.5,-329 259.5,-293 332.5,-293 332.5,-329"/>
<text text-anchor="start" x="266" y="-306.8" font-family="Times New Roman,serif" font-size="14.00" fill="blue">CAPITAL:</text>
</a>
</g>
</g>
<!-- CAPITAL&#45;&gt;POSITIONS -->
<g id="edge6" class="edge">
<title>CAPITAL&#45;&gt;POSITIONS</title>
<g id="a_edge6"><a xlink:href="bogus" xlink:title="NA">
<path fill="none" stroke="black" stroke-width="0.5" d="M332.71,-319.69C346.3,-323.95 361.5,-329.94 374,-338 396.64,-352.58 417.44,-375.06 431.78,-392.65"/>
<polygon fill="black" stroke="black" stroke-width="0.5" points="429.32,-395.17 438.29,-400.83 434.8,-390.82 429.32,-395.17"/>
</a>
</g>
</g>
<!-- RISK_WEIGHT_EUR -->
<g id="node26" class="node">
<title>RISK_WEIGHT_EUR</title>
<g id="a_node26"><a xlink:title="RISK_WEIGHT_EUR&#10;Exogen">
<polygon fill="yellow" stroke="black" points="162,-113 20,-113 20,-77 162,-77 162,-113"/>
<text text-anchor="start" x="26" y="-90.8" font-family="Times New Roman,serif" font-size="14.00" fill="blue">RISK_WEIGHT_EUR:</text>
</a>
</g>
</g>
<!-- RISK_WEIGHT_EUR&#45;&gt;RISK_WEIGHTS -->
<g id="edge20" class="edge">
<title>RISK_WEIGHT_EUR&#45;&gt;RISK_WEIGHTS</title>
<g id="a_edge20"><a xlink:href="bogus" xlink:title="NA">
<path fill="none" stroke="black" stroke-width="0.5" d="M159.88,-113.06C181.97,-118.93 206.45,-125.45 228.44,-131.3"/>
<polygon fill="black" stroke="black" stroke-width="0.5" points="227.79,-134.74 238.36,-133.93 229.59,-127.98 227.79,-134.74"/>
</a>
</g>
</g>
<!-- POSITIONS&#45;&gt;RISK -->
<g id="edge29" class="edge">
<title>POSITIONS&#45;&gt;RISK</title>
<g id="a_edge29"><a xlink:href="bogus" xlink:title="NA">
<path fill="none" stroke="black" stroke-width="0.5" d="M456.21,-437.08C462.8,-475.77 482.8,-567.85 531,-627 548.34,-648.28 574.86,-664.47 596.31,-675.12"/>
<polygon fill="black" stroke="black" stroke-width="0.5" points="594.92,-678.33 605.45,-679.47 597.93,-672.01 594.92,-678.33"/>
</a>
</g>
</g>
<!-- POSITIONS&#45;&gt;POSITION_JPY -->
<g id="edge8" class="edge">
<title>POSITIONS&#45;&gt;POSITION_JPY</title>
<g id="a_edge8"><a xlink:href="bogus" xlink:title="NA">
<path fill="none" stroke="black" stroke-width="0.5" d="M495.15,-434.13C506.7,-438.16 519.29,-442.39 531,-446 543.45,-449.84 556.86,-453.65 569.71,-457.16"/>
<polygon fill="black" stroke="black" stroke-width="0.5" points="568.82,-460.55 579.39,-459.77 570.65,-453.79 568.82,-460.55"/>
</a>
</g>
</g>
<!-- POSITIONS&#45;&gt;POSITION_USD -->
<g id="edge26" class="edge">
<title>POSITIONS&#45;&gt;POSITION_USD</title>
<g id="a_edge26"><a xlink:href="bogus" xlink:title="NA">
<path fill="none" stroke="black" stroke-width="0.5" d="M495.23,-419C516.27,-419 542.27,-419 565.89,-419"/>
<polygon fill="black" stroke="black" stroke-width="0.5" points="566.21,-422.5 576.21,-419 566.21,-415.5 566.21,-422.5"/>
</a>
</g>
</g>
<!-- POSITIONS&#45;&gt;LEVERAGE_WEIGHTED_SUM -->
<g id="edge38" class="edge">
<title>POSITIONS&#45;&gt;LEVERAGE_WEIGHTED_SUM</title>
<g id="a_edge38"><a xlink:href="bogus" xlink:title="NA">
<path fill="none" stroke="black" stroke-width="0.5" d="M470.61,-437.14C486.23,-453.63 510.02,-478.6 531,-500 556.06,-525.56 585.08,-554.35 605.47,-574.45"/>
<polygon fill="black" stroke="black" stroke-width="0.5" points="603.26,-577.18 612.84,-581.7 608.17,-572.19 603.26,-577.18"/>
</a>
</g>
</g>
<!-- POSITIONS&#45;&gt;LCR_WEIGHTED_SUM -->
<g id="edge14" class="edge">
<title>POSITIONS&#45;&gt;LCR_WEIGHTED_SUM</title>
<g id="a_edge14"><a xlink:href="bogus" xlink:title="NA">
<path fill="none" stroke="black" stroke-width="0.5" d="M467.16,-400.76C481.42,-382.78 505.25,-355.52 531,-338 541.74,-330.69 553.98,-324.35 566.14,-318.98"/>
<polygon fill="black" stroke="black" stroke-width="0.5" points="567.55,-322.18 575.39,-315.06 564.82,-315.74 567.55,-322.18"/>
</a>
</g>
</g>
<!-- POSITIONS&#45;&gt;POSITION_EUR -->
<g id="edge31" class="edge">
<title>POSITIONS&#45;&gt;POSITION_EUR</title>
<g id="a_edge31"><a xlink:href="bogus" xlink:title="NA">
<path fill="none" stroke="black" stroke-width="0.5" d="M495.15,-403.87C506.7,-399.84 519.29,-395.61 531,-392 542.4,-388.49 554.6,-384.99 566.44,-381.74"/>
<polygon fill="black" stroke="black" stroke-width="0.5" points="567.53,-385.07 576.26,-379.07 565.7,-378.31 567.53,-385.07"/>
</a>
</g>
</g>
<!-- POSITIONS&#45;&gt;RETURN -->
<g id="edge2" class="edge">
<title>POSITIONS&#45;&gt;RETURN</title>
<g id="a_edge2"><a xlink:href="bogus" xlink:title="NA">
<path fill="none" stroke="black" stroke-width="0.5" d="M459.59,-400.73C470.28,-370.73 494.78,-310.37 531,-270 547.08,-252.08 568.95,-236.75 588.18,-225.3"/>
<polygon fill="black" stroke="black" stroke-width="0.5" points="590.18,-228.19 597.09,-220.16 586.68,-222.13 590.18,-228.19"/>
</a>
</g>
</g>
<!-- RISK_WEIGHTED_SUM -->
<g id="node33" class="node">
<title>RISK_WEIGHTED_SUM</title>
<g id="a_node33"><a xlink:title="RISK_WEIGHTED_SUM&#10;FRML XX &#160;&#160;&#160;&#160;&#160;RISK_WEIGHTED_SUM &#160;&#160;&#160;&#160;= (RISK_WEIGHTS.TRANS() * POSITIONS)[0,0] $">
<polygon fill="#63b8ff" stroke="black" points="714,-167 551,-167 551,-131 714,-131 714,-167"/>
<text text-anchor="start" x="557.5" y="-144.8" font-family="Times New Roman,serif" font-size="14.00" fill="blue">RISK_WEIGHTED_SUM:</text>
</a>
</g>
</g>
<!-- POSITIONS&#45;&gt;RISK_WEIGHTED_SUM -->
<g id="edge25" class="edge">
<title>POSITIONS&#45;&gt;RISK_WEIGHTED_SUM</title>
<g id="a_edge25"><a xlink:href="bogus" xlink:title="NA">
<path fill="none" stroke="black" stroke-width="0.5" d="M453.71,-400.72C455.24,-355.65 465.66,-238.38 531,-176 534.32,-172.83 537.98,-170.02 541.87,-167.53"/>
<polygon fill="black" stroke="black" stroke-width="0.5" points="543.69,-170.52 550.72,-162.59 540.28,-164.41 543.69,-170.52"/>
</a>
</g>
</g>
<!-- MIN_USD -->
<g id="node29" class="node">
<title>MIN_USD</title>
<g id="a_node29"><a xlink:title="MIN_USD&#10;Exogen">
<polygon fill="yellow" stroke="black" points="129.5,-383 52.5,-383 52.5,-347 129.5,-347 129.5,-383"/>
<text text-anchor="start" x="59" y="-360.8" font-family="Times New Roman,serif" font-size="14.00" fill="blue">MIN_USD:</text>
</a>
</g>
</g>
<!-- MIN_USD&#45;&gt;MIN_W -->
<g id="edge39" class="edge">
<title>MIN_USD&#45;&gt;MIN_W</title>
<g id="a_edge39"><a xlink:href="bogus" xlink:title="NA">
<path fill="none" stroke="black" stroke-width="0.5" d="M129.71,-365C165.08,-365 217.85,-365 254.2,-365"/>
<polygon fill="black" stroke="black" stroke-width="0.5" points="254.45,-368.5 264.45,-365 254.45,-361.5 254.45,-368.5"/>
</a>
</g>
</g>
<!-- LEVERAGE_WEIGHT_USD -->
<g id="node30" class="node">
<title>LEVERAGE_WEIGHT_USD</title>
<g id="a_node30"><a xlink:title="LEVERAGE_WEIGHT_USD&#10;Exogen">
<polygon fill="yellow" stroke="black" points="182,-707 0,-707 0,-671 182,-671 182,-707"/>
<text text-anchor="start" x="6" y="-684.8" font-family="Times New Roman,serif" font-size="14.00" fill="blue">LEVERAGE_WEIGHT_USD:</text>
</a>
</g>
</g>
<!-- LEVERAGE_WEIGHT_USD&#45;&gt;LEVERAGE_WEIGHTS -->
<g id="edge27" class="edge">
<title>LEVERAGE_WEIGHT_USD&#45;&gt;LEVERAGE_WEIGHTS</title>
<g id="a_edge27"><a xlink:href="bogus" xlink:title="NA">
<path fill="none" stroke="black" stroke-width="0.5" d="M182.22,-689C190.65,-689 199.19,-689 207.59,-689"/>
<polygon fill="black" stroke="black" stroke-width="0.5" points="207.77,-692.5 217.77,-689 207.77,-685.5 207.77,-692.5"/>
</a>
</g>
</g>
<!-- RISK_WEIGHTS&#45;&gt;POSITIONS -->
<g id="edge24" class="edge">
<title>RISK_WEIGHTS&#45;&gt;POSITIONS</title>
<g id="a_edge24"><a xlink:href="bogus" xlink:title="NA">
<path fill="none" stroke="black" stroke-width="0.5" d="M353.66,-161.9C361.19,-165.5 368.27,-170.11 374,-176 432.51,-236.2 446.86,-340.51 450.37,-390.58"/>
<polygon fill="black" stroke="black" stroke-width="0.5" points="446.89,-390.91 450.98,-400.69 453.87,-390.49 446.89,-390.91"/>
</a>
</g>
</g>
<!-- RISK_WEIGHTS&#45;&gt;RISK_WEIGHTED_SUM -->
<g id="edge23" class="edge">
<title>RISK_WEIGHTS&#45;&gt;RISK_WEIGHTED_SUM</title>
<g id="a_edge23"><a xlink:href="bogus" xlink:title="NA">
<path fill="none" stroke="black" stroke-width="0.5" d="M353.74,-149C404.93,-149 481.11,-149 540.75,-149"/>
<polygon fill="black" stroke="black" stroke-width="0.5" points="540.93,-152.5 550.93,-149 540.93,-145.5 540.93,-152.5"/>
</a>
</g>
</g>
<!-- MSIGMA -->
<g id="node32" class="node">
<title>MSIGMA</title>
<g id="a_node32"><a xlink:title="MSIGMA&#10;FRML &lt;MATRIX&gt; MSIGMA &#160;= MATRIX( [[0.01573635,0.01436816,	0.01045556],&#10; &#160;&#160;&#160;&#160;&#160;&#160;&#160;&#160;&#160;&#160;&#160;&#160;&#160;&#160;&#160;&#160;&#160;&#160;&#160;&#160;&#160;&#160;&#160;&#160;&#160;&#160;&#160;&#160;&#160;&#160;&#160;&#160;[0.01436816,0.02289016,	0.01172995],&#10; &#160;&#160;&#160;&#160;&#160;&#160;&#160;&#160;&#160;&#160;&#160;&#160;&#160;&#160;&#160;&#160;&#160;&#160;&#160;&#160;&#160;&#160;&#160;&#160;&#160;&#160;&#160;&#160;&#160;&#160;&#160;&#160;[0.01045556,0.01172995,	0.01748076]] &#160;) $">
<polygon fill="#63b8ff" stroke="black" points="332.5,-761 259.5,-761 259.5,-725 332.5,-725 332.5,-761"/>
<text text-anchor="start" x="266" y="-738.8" font-family="Times New Roman,serif" font-size="14.00" fill="blue">MSIGMA:</text>
</a>
</g>
</g>
<!-- MSIGMA&#45;&gt;RISK -->
<g id="edge15" class="edge">
<title>MSIGMA&#45;&gt;RISK</title>
<g id="a_edge15"><a xlink:href="bogus" xlink:title="NA">
<path fill="none" stroke="black" stroke-width="0.5" d="M332.8,-737.33C396.98,-727.16 530.92,-705.94 595.35,-695.73"/>
<polygon fill="black" stroke="black" stroke-width="0.5" points="596.11,-699.15 605.44,-694.13 595.02,-692.24 596.11,-699.15"/>
</a>
</g>
</g>
<!-- MSIGMA&#45;&gt;POSITIONS -->
<g id="edge12" class="edge">
<title>MSIGMA&#45;&gt;POSITIONS</title>
<g id="a_edge12"><a xlink:href="bogus" xlink:title="NA">
<path fill="none" stroke="black" stroke-width="0.5" d="M332.87,-737.96C347.46,-734.18 363.35,-727.57 374,-716 444.89,-639.04 452.63,-505.42 452.38,-447.33"/>
<polygon fill="black" stroke="black" stroke-width="0.5" points="455.88,-447.03 452.25,-437.07 448.88,-447.12 455.88,-447.03"/>
</a>
</g>
</g>
<!-- MAX_EUR -->
<g id="node34" class="node">
<title>MAX_EUR</title>
<g id="a_node34"><a xlink:title="MAX_EUR&#10;Exogen">
<polygon fill="yellow" stroke="black" points="132,-545 50,-545 50,-509 132,-509 132,-545"/>
<text text-anchor="start" x="56" y="-522.8" font-family="Times New Roman,serif" font-size="14.00" fill="blue">MAX_EUR:</text>
</a>
</g>
</g>
<!-- MAX_EUR&#45;&gt;MAX_W -->
<g id="edge32" class="edge">
<title>MAX_EUR&#45;&gt;MAX_W</title>
<g id="a_edge32"><a xlink:href="bogus" xlink:title="NA">
<path fill="none" stroke="black" stroke-width="0.5" d="M132.36,-532.91C148.93,-536.84 167.58,-543.33 182,-554 205.19,-571.16 195.21,-590.31 218,-608 227.97,-615.74 240.32,-621.36 252.19,-625.4"/>
<polygon fill="black" stroke="black" stroke-width="0.5" points="251.4,-628.82 261.98,-628.43 253.47,-622.13 251.4,-628.82"/>
</a>
</g>
</g>
<!-- MAX_W&#45;&gt;POSITIONS -->
<g id="edge30" class="edge">
<title>MAX_W&#45;&gt;POSITIONS</title>
<g id="a_edge30"><a xlink:href="bogus" xlink:title="NA">
<path fill="none" stroke="black" stroke-width="0.5" d="M330.21,-629.76C345.16,-625.92 362.08,-619.31 374,-608 420.39,-563.95 439.88,-488.14 447.35,-447.2"/>
<polygon fill="black" stroke="black" stroke-width="0.5" points="450.84,-447.55 449.08,-437.11 443.94,-446.38 450.84,-447.55"/>
</a>
</g>
</g>
<!-- RISK_WEIGHT_JPY -->
<g id="node36" class="node">
<title>RISK_WEIGHT_JPY</title>
<g id="a_node36"><a xlink:title="RISK_WEIGHT_JPY&#10;Exogen">
<polygon fill="yellow" stroke="black" points="159,-59 23,-59 23,-23 159,-23 159,-59"/>
<text text-anchor="start" x="29" y="-36.8" font-family="Times New Roman,serif" font-size="14.00" fill="blue">RISK_WEIGHT_JPY:</text>
</a>
</g>
</g>
<!-- RISK_WEIGHT_JPY&#45;&gt;RISK_WEIGHTS -->
<g id="edge13" class="edge">
<title>RISK_WEIGHT_JPY&#45;&gt;RISK_WEIGHTS</title>
<g id="a_edge13"><a xlink:href="bogus" xlink:title="NA">
<path fill="none" stroke="black" stroke-width="0.5" d="M159.3,-58.5C167.1,-61.31 174.83,-64.48 182,-68 212.93,-83.2 244.5,-106.63 266.38,-124.39"/>
<polygon fill="black" stroke="black" stroke-width="0.5" points="264.33,-127.24 274.28,-130.89 268.78,-121.84 264.33,-127.24"/>
</a>
</g>
</g>
</g>
</svg>
