<?xml version="1.0" encoding="UTF-8" standalone="no"?>
<!DOCTYPE svg PUBLIC "-//W3C//DTD SVG 1.1//EN"
 "http://www.w3.org/Graphics/SVG/1.1/DTD/svg11.dtd">
<!-- Generated by graphviz version 6.0.1 (0)
 -->
<!-- Title: TD Pages: 1 -->
<svg width="389pt" height="432pt"
 viewBox="0.00 0.00 389.48 432.00" xmlns="http://www.w3.org/2000/svg" xmlns:xlink="http://www.w3.org/1999/xlink">
<g id="graph0" class="graph" transform="scale(0.524909 0.524909) rotate(0) translate(4 819)">
<title>TD</title>
<polygon fill="white" stroke="none" points="-4,4 -4,-819 738,-819 738,4 -4,4"/>
<text text-anchor="middle" x="367" y="-7.8" font-family="Times New Roman,serif" font-size="14.00">A_model_graph</text>
<!-- RISKAVERSION -->
<g id="node1" class="node">
<title>RISKAVERSION</title>
<g id="a_node1"><a xlink:title="RISKAVERSION&#10;Exogen">
<polygon fill="yellow" stroke="black" points="353,-491 239,-491 239,-455 353,-455 353,-491"/>
<text text-anchor="start" x="245" y="-468.8" font-family="Times New Roman,serif" font-size="14.00" fill="blue">RISKAVERSION:</text>
</a>
</g>
</g>
<!-- POSITIONS -->
<g id="node13" class="node">
<title>POSITIONS</title>
<g id="a_node13"><a xlink:title="POSITIONS&#10;FRML &lt;MATRIX&gt; POSITIONS &#160;&#160;&#160;&#160;&#160;&#160;&#160;&#160;&#160;= &#160;MV_OPT(MSIGMA,VRETURN,RISKAVERSION, TOTAL,&#10; &#160;&#160;&#160;&#160;&#160;&#160;&#160;&#160;&#160;&#160;&#160;&#160;&#160;&#160;&#160;&#160;&#160;&#160;&#160;&#160;&#160;[[RISK_WEIGHTS] , [&#45;LCR_WEIGHTS] , [LEVERAGE_WEIGHTS]],&#10; &#160;&#160;&#160;&#160;&#160;&#160;&#160;&#160;&#160;&#160;&#160;&#160;&#160;&#160;&#160;&#160;&#160;&#160;&#160;&#160;&#160;&#160;&#160;&#160;&#160;&#160;&#160;&#160;&#160;&#160;&#160;&#160;&#160;&#160;&#160;&#160;&#160;&#160;[CAPITAL, &#45;LCR , EQUITY] ,MIN_W,MAX_W) $">
<polygon fill="#63b8ff" stroke="black" points="495,-518 410,-518 410,-482 495,-482 495,-518"/>
<text text-anchor="start" x="416.5" y="-495.8" font-family="Times New Roman,serif" font-size="14.00" fill="blue">POSITIONS:</text>
</a>
</g>
</g>
<!-- RISKAVERSION&#45;&gt;POSITIONS -->
<g id="edge2" class="edge">
<title>RISKAVERSION&#45;&gt;POSITIONS</title>
<g id="a_edge2"><a xlink:href="bogus" xlink:title="NA">
<path fill="none" stroke="black" stroke-width="0.5" d="M353.22,-482.82C368.36,-485.47 384.67,-488.32 399.56,-490.92"/>
<polygon fill="black" stroke="black" stroke-width="0.5" points="399.17,-494.41 409.62,-492.68 400.37,-487.51 399.17,-494.41"/>
</a>
</g>
</g>
<!-- LEVERAGE_WEIGHT_USD -->
<g id="node2" class="node">
<title>LEVERAGE_WEIGHT_USD</title>
<g id="a_node2"><a xlink:title="LEVERAGE_WEIGHT_USD&#10;Exogen">
<polygon fill="yellow" stroke="black" points="182,-815 0,-815 0,-779 182,-779 182,-815"/>
<text text-anchor="start" x="6" y="-792.8" font-family="Times New Roman,serif" font-size="14.00" fill="blue">LEVERAGE_WEIGHT_USD:</text>
</a>
</g>
</g>
<!-- LEVERAGE_WEIGHTS -->
<g id="node6" class="node">
<title>LEVERAGE_WEIGHTS</title>
<g id="a_node6"><a xlink:title="LEVERAGE_WEIGHTS&#10;FRML &lt;MATRIX&gt; LEVERAGE_WEIGHTS &#160;= MATRIX(&#10;[LEVERAGE_WEIGHT_USD,LEVERAGE_WEIGHT_JPY,LEVERAGE_WEIGHT_EUR]) $">
<polygon fill="#63b8ff" stroke="black" points="374,-653 218,-653 218,-617 374,-617 374,-653"/>
<text text-anchor="start" x="224" y="-630.8" font-family="Times New Roman,serif" font-size="14.00" fill="blue">LEVERAGE_WEIGHTS:</text>
</a>
</g>
</g>
<!-- LEVERAGE_WEIGHT_USD&#45;&gt;LEVERAGE_WEIGHTS -->
<g id="edge6" class="edge">
<title>LEVERAGE_WEIGHT_USD&#45;&gt;LEVERAGE_WEIGHTS</title>
<g id="a_edge6"><a xlink:href="bogus" xlink:title="NA">
<path fill="none" stroke="black" stroke-width="0.5" d="M170.37,-778.99C174.56,-776.39 178.49,-773.41 182,-770 218.31,-734.77 182.5,-698.05 218,-662 218.92,-661.06 219.88,-660.16 220.87,-659.29"/>
<polygon fill="black" stroke="black" stroke-width="0.5" points="223.09,-661.99 228.97,-653.19 218.88,-656.4 223.09,-661.99"/>
</a>
</g>
</g>
<!-- VRETURN -->
<g id="node3" class="node">
<title>VRETURN</title>
<g id="a_node3"><a xlink:title="VRETURN&#10;FRML &lt;MATRIX&gt; VRETURN &#160;&#160;&#160;&#160;&#160;&#160;&#160;&#160;= MATRIX([0.048,0.040,0.035]) $">
<polygon fill="#63b8ff" stroke="black" points="336,-761 256,-761 256,-725 336,-725 336,-761"/>
<text text-anchor="start" x="262" y="-738.8" font-family="Times New Roman,serif" font-size="14.00" fill="blue">VRETURN:</text>
</a>
</g>
</g>
<!-- VRETURN&#45;&gt;POSITIONS -->
<g id="edge21" class="edge">
<title>VRETURN&#45;&gt;POSITIONS</title>
<g id="a_edge21"><a xlink:href="bogus" xlink:title="NA">
<path fill="none" stroke="black" stroke-width="0.5" d="M336.33,-736.38C349.72,-732.41 363.85,-726.08 374,-716 426.48,-663.9 443.6,-573.79 449.05,-528.19"/>
<polygon fill="black" stroke="black" stroke-width="0.5" points="452.54,-528.44 450.14,-518.12 445.58,-527.68 452.54,-528.44"/>
</a>
</g>
</g>
<!-- RETURN -->
<g id="node16" class="node">
<title>RETURN</title>
<g id="a_node16"><a xlink:title="RETURN&#10;FRML XX &#160;&#160;&#160;&#160;&#160;RETURN &#160;&#160;&#160;&#160;&#160;&#160;&#160;&#160;&#160;&#160;&#160;&#160;= &#160;(POSITIONS.TRANS() * VRETURN &#160;&#160;&#160;&#160;&#160;&#160;&#160;)[0,0] $">
<polygon fill="#63b8ff" stroke="black" points="667.5,-761 597.5,-761 597.5,-725 667.5,-725 667.5,-761"/>
<text text-anchor="start" x="603.5" y="-738.8" font-family="Times New Roman,serif" font-size="14.00" fill="blue">RETURN:</text>
</a>
</g>
</g>
<!-- VRETURN&#45;&gt;RETURN -->
<g id="edge13" class="edge">
<title>VRETURN&#45;&gt;RETURN</title>
<g id="a_edge13"><a xlink:href="bogus" xlink:title="NA">
<path fill="none" stroke="black" stroke-width="0.5" d="M336.03,-743C398.68,-743 521.33,-743 587.19,-743"/>
<polygon fill="black" stroke="black" stroke-width="0.5" points="587.25,-746.5 597.25,-743 587.25,-739.5 587.25,-746.5"/>
</a>
</g>
</g>
<!-- LCR_WEIGHT_EUR -->
<g id="node4" class="node">
<title>LCR_WEIGHT_EUR</title>
<g id="a_node4"><a xlink:title="LCR_WEIGHT_EUR&#10;Exogen">
<polygon fill="yellow" stroke="black" points="159.5,-653 22.5,-653 22.5,-617 159.5,-617 159.5,-653"/>
<text text-anchor="start" x="29" y="-630.8" font-family="Times New Roman,serif" font-size="14.00" fill="blue">LCR_WEIGHT_EUR:</text>
</a>
</g>
</g>
<!-- LCR_WEIGHTS -->
<g id="node9" class="node">
<title>LCR_WEIGHTS</title>
<g id="a_node9"><a xlink:title="LCR_WEIGHTS&#10;FRML &lt;MATRIX&gt; LCR_WEIGHTS &#160;&#160;&#160;&#160;&#160;&#160;= MATRIX(&#10;[LCR_WEIGHT_USD,LCR_WEIGHT_JPY,LCR_WEIGHT_EUR]) $">
<polygon fill="#63b8ff" stroke="black" points="351.5,-599 240.5,-599 240.5,-563 351.5,-563 351.5,-599"/>
<text text-anchor="start" x="247" y="-576.8" font-family="Times New Roman,serif" font-size="14.00" fill="blue">LCR_WEIGHTS:</text>
</a>
</g>
</g>
<!-- LCR_WEIGHT_EUR&#45;&gt;LCR_WEIGHTS -->
<g id="edge9" class="edge">
<title>LCR_WEIGHT_EUR&#45;&gt;LCR_WEIGHTS</title>
<g id="a_edge9"><a xlink:href="bogus" xlink:title="NA">
<path fill="none" stroke="black" stroke-width="0.5" d="M159.6,-617.02C182.4,-610.95 207.79,-604.2 230.36,-598.19"/>
<polygon fill="black" stroke="black" stroke-width="0.5" points="231.42,-601.54 240.18,-595.58 229.62,-594.77 231.42,-601.54"/>
</a>
</g>
</g>
<!-- MAX_EUR -->
<g id="node5" class="node">
<title>MAX_EUR</title>
<g id="a_node5"><a xlink:title="MAX_EUR&#10;Exogen">
<polygon fill="yellow" stroke="black" points="132,-329 50,-329 50,-293 132,-293 132,-329"/>
<text text-anchor="start" x="56" y="-306.8" font-family="Times New Roman,serif" font-size="14.00" fill="blue">MAX_EUR:</text>
</a>
</g>
</g>
<!-- MAX_W -->
<g id="node25" class="node">
<title>MAX_W</title>
<g id="a_node25"><a xlink:title="MAX_W&#10;FRML &lt;MATRIX&gt; MAX_W &#160;&#160;&#160;&#160;&#160;&#160;&#160;&#160;&#160;&#160;&#160;&#160;= MATRIX(&#10;[MAX_USD,MAX_JPY,MAX_EUR]) &#160;&#160;&#160;&#160;&#160;$">
<polygon fill="#63b8ff" stroke="black" points="330,-329 262,-329 262,-293 330,-293 330,-329"/>
<text text-anchor="start" x="268" y="-306.8" font-family="Times New Roman,serif" font-size="14.00" fill="blue">MAX_W:</text>
</a>
</g>
</g>
<!-- MAX_EUR&#45;&gt;MAX_W -->
<g id="edge25" class="edge">
<title>MAX_EUR&#45;&gt;MAX_W</title>
<g id="a_edge25"><a xlink:href="bogus" xlink:title="NA">
<path fill="none" stroke="black" stroke-width="0.5" d="M132.11,-311C166.6,-311 216.25,-311 251.65,-311"/>
<polygon fill="black" stroke="black" stroke-width="0.5" points="251.69,-314.5 261.69,-311 251.69,-307.5 251.69,-314.5"/>
</a>
</g>
</g>
<!-- LEVERAGE_WEIGHTS&#45;&gt;POSITIONS -->
<g id="edge40" class="edge">
<title>LEVERAGE_WEIGHTS&#45;&gt;POSITIONS</title>
<g id="a_edge40"><a xlink:href="bogus" xlink:title="NA">
<path fill="none" stroke="black" stroke-width="0.5" d="M359.65,-616.83C364.72,-614.24 369.58,-611.31 374,-608 402.54,-586.63 424.86,-551.72 438.07,-527.39"/>
<polygon fill="black" stroke="black" stroke-width="0.5" points="441.28,-528.8 442.84,-518.32 435.09,-525.54 441.28,-528.8"/>
</a>
</g>
</g>
<!-- LEVERAGE_WEIGHTED_SUM -->
<g id="node31" class="node">
<title>LEVERAGE_WEIGHTED_SUM</title>
<g id="a_node31"><a xlink:title="LEVERAGE_WEIGHTED_SUM&#10;FRML XX &#160;&#160;&#160;&#160;&#160;LEVERAGE_WEIGHTED_SUM = (LEVERAGE_WEIGHTS.TRANS() * POSITIONS)[0,0] $">
<polygon fill="#63b8ff" stroke="black" points="734,-653 531,-653 531,-617 734,-617 734,-653"/>
<text text-anchor="start" x="537.5" y="-630.8" font-family="Times New Roman,serif" font-size="14.00" fill="blue">LEVERAGE_WEIGHTED_SUM:</text>
</a>
</g>
</g>
<!-- LEVERAGE_WEIGHTS&#45;&gt;LEVERAGE_WEIGHTED_SUM -->
<g id="edge1" class="edge">
<title>LEVERAGE_WEIGHTS&#45;&gt;LEVERAGE_WEIGHTED_SUM</title>
<g id="a_edge1"><a xlink:href="bogus" xlink:title="NA">
<path fill="none" stroke="black" stroke-width="0.5" d="M374.16,-635C417.66,-635 472.75,-635 520.79,-635"/>
<polygon fill="black" stroke="black" stroke-width="0.5" points="520.93,-638.5 530.93,-635 520.93,-631.5 520.93,-638.5"/>
</a>
</g>
</g>
<!-- EQUITY -->
<g id="node7" class="node">
<title>EQUITY</title>
<g id="a_node7"><a xlink:title="EQUITY&#10;Exogen">
<polygon fill="yellow" stroke="black" points="329,-437 263,-437 263,-401 329,-401 329,-437"/>
<text text-anchor="start" x="269" y="-414.8" font-family="Times New Roman,serif" font-size="14.00" fill="blue">EQUITY:</text>
</a>
</g>
</g>
<!-- EQUITY&#45;&gt;POSITIONS -->
<g id="edge32" class="edge">
<title>EQUITY&#45;&gt;POSITIONS</title>
<g id="a_edge32"><a xlink:href="bogus" xlink:title="NA">
<path fill="none" stroke="black" stroke-width="0.5" d="M329.27,-428.16C343.37,-432.7 359.88,-438.77 374,-446 390.32,-454.35 407.17,-465.71 420.97,-475.85"/>
<polygon fill="black" stroke="black" stroke-width="0.5" points="419.03,-478.77 429.13,-481.97 423.23,-473.17 419.03,-478.77"/>
</a>
</g>
</g>
<!-- MIN_USD -->
<g id="node8" class="node">
<title>MIN_USD</title>
<g id="a_node8"><a xlink:title="MIN_USD&#10;Exogen">
<polygon fill="yellow" stroke="black" points="129.5,-491 52.5,-491 52.5,-455 129.5,-455 129.5,-491"/>
<text text-anchor="start" x="59" y="-468.8" font-family="Times New Roman,serif" font-size="14.00" fill="blue">MIN_USD:</text>
</a>
</g>
</g>
<!-- MIN_W -->
<g id="node10" class="node">
<title>MIN_W</title>
<g id="a_node10"><a xlink:title="MIN_W&#10;FRML &lt;MATRIX&gt; MIN_W &#160;&#160;&#160;&#160;&#160;&#160;&#160;&#160;&#160;&#160;&#160;&#160;= MATRIX(&#10;[MIN_USD,MIN_JPY,MIN_EUR]) &#160;&#160;&#160;&#160;&#160;&#160;$">
<polygon fill="#63b8ff" stroke="black" points="327.5,-383 264.5,-383 264.5,-347 327.5,-347 327.5,-383"/>
<text text-anchor="start" x="271" y="-360.8" font-family="Times New Roman,serif" font-size="14.00" fill="blue">MIN_W:</text>
</a>
</g>
</g>
<!-- MIN_USD&#45;&gt;MIN_W -->
<g id="edge18" class="edge">
<title>MIN_USD&#45;&gt;MIN_W</title>
<g id="a_edge18"><a xlink:href="bogus" xlink:title="NA">
<path fill="none" stroke="black" stroke-width="0.5" d="M129.66,-467.71C146.88,-463.86 166.79,-457.26 182,-446 205.19,-428.84 195.21,-409.69 218,-392 228.6,-383.78 241.89,-377.94 254.43,-373.85"/>
<polygon fill="black" stroke="black" stroke-width="0.5" points="255.67,-377.14 264.27,-370.94 253.68,-370.43 255.67,-377.14"/>
</a>
</g>
</g>
<!-- LCR_WEIGHTS&#45;&gt;POSITIONS -->
<g id="edge37" class="edge">
<title>LCR_WEIGHTS&#45;&gt;POSITIONS</title>
<g id="a_edge37"><a xlink:href="bogus" xlink:title="NA">
<path fill="none" stroke="black" stroke-width="0.5" d="M351.63,-563.93C359.28,-560.94 366.94,-557.61 374,-554 390.32,-545.65 407.17,-534.29 420.97,-524.15"/>
<polygon fill="black" stroke="black" stroke-width="0.5" points="423.23,-526.83 429.13,-518.03 419.03,-521.23 423.23,-526.83"/>
</a>
</g>
</g>
<!-- LCR_WEIGHTED_SUM -->
<g id="node22" class="node">
<title>LCR_WEIGHTED_SUM</title>
<g id="a_node22"><a xlink:title="LCR_WEIGHTED_SUM&#10;FRML XX &#160;&#160;&#160;&#160;&#160;LCR_WEIGHTED_SUM &#160;&#160;&#160;&#160;&#160;= (LCR_WEIGHTS.TRANS() * POSITIONS)[0,0] $">
<polygon fill="#63b8ff" stroke="black" points="711.5,-599 553.5,-599 553.5,-563 711.5,-563 711.5,-599"/>
<text text-anchor="start" x="559.5" y="-576.8" font-family="Times New Roman,serif" font-size="14.00" fill="blue">LCR_WEIGHTED_SUM:</text>
</a>
</g>
</g>
<!-- LCR_WEIGHTS&#45;&gt;LCR_WEIGHTED_SUM -->
<g id="edge3" class="edge">
<title>LCR_WEIGHTS&#45;&gt;LCR_WEIGHTED_SUM</title>
<g id="a_edge3"><a xlink:href="bogus" xlink:title="NA">
<path fill="none" stroke="black" stroke-width="0.5" d="M351.86,-581C403.72,-581 482.42,-581 543.13,-581"/>
<polygon fill="black" stroke="black" stroke-width="0.5" points="543.48,-584.5 553.48,-581 543.48,-577.5 543.48,-584.5"/>
</a>
</g>
</g>
<!-- MIN_W&#45;&gt;POSITIONS -->
<g id="edge30" class="edge">
<title>MIN_W&#45;&gt;POSITIONS</title>
<g id="a_edge30"><a xlink:href="bogus" xlink:title="NA">
<path fill="none" stroke="black" stroke-width="0.5" d="M327.58,-371.14C342.62,-375.24 360.39,-381.81 374,-392 402.54,-413.37 424.86,-448.28 438.07,-472.61"/>
<polygon fill="black" stroke="black" stroke-width="0.5" points="435.09,-474.46 442.84,-481.68 441.28,-471.2 435.09,-474.46"/>
</a>
</g>
</g>
<!-- MSIGMA -->
<g id="node11" class="node">
<title>MSIGMA</title>
<g id="a_node11"><a xlink:title="MSIGMA&#10;FRML &lt;MATRIX&gt; MSIGMA &#160;= MATRIX( [[0.01573635,0.01436816,	0.01045556],&#10; &#160;&#160;&#160;&#160;&#160;&#160;&#160;&#160;&#160;&#160;&#160;&#160;&#160;&#160;&#160;&#160;&#160;&#160;&#160;&#160;&#160;&#160;&#160;&#160;&#160;&#160;&#160;&#160;&#160;&#160;&#160;&#160;[0.01436816,0.02289016,	0.01172995],&#10; &#160;&#160;&#160;&#160;&#160;&#160;&#160;&#160;&#160;&#160;&#160;&#160;&#160;&#160;&#160;&#160;&#160;&#160;&#160;&#160;&#160;&#160;&#160;&#160;&#160;&#160;&#160;&#160;&#160;&#160;&#160;&#160;[0.01045556,0.01172995,	0.01748076]] &#160;) $">
<polygon fill="#63b8ff" stroke="black" points="332.5,-707 259.5,-707 259.5,-671 332.5,-671 332.5,-707"/>
<text text-anchor="start" x="266" y="-684.8" font-family="Times New Roman,serif" font-size="14.00" fill="blue">MSIGMA:</text>
</a>
</g>
</g>
<!-- MSIGMA&#45;&gt;POSITIONS -->
<g id="edge4" class="edge">
<title>MSIGMA&#45;&gt;POSITIONS</title>
<g id="a_edge4"><a xlink:href="bogus" xlink:title="NA">
<path fill="none" stroke="black" stroke-width="0.5" d="M332.64,-682.71C346.84,-678.73 362.5,-672.31 374,-662 414.46,-625.72 435.75,-563.75 445.22,-527.89"/>
<polygon fill="black" stroke="black" stroke-width="0.5" points="448.64,-528.63 447.69,-518.08 441.85,-526.92 448.64,-528.63"/>
</a>
</g>
</g>
<!-- RISK -->
<g id="node18" class="node">
<title>RISK</title>
<g id="a_node18"><a xlink:title="RISK&#10;FRML XX &#160;&#160;&#160;&#160;&#160;RISK &#160;&#160;&#160;&#160;&#160;&#160;&#160;&#160;&#160;&#160;&#160;&#160;&#160;&#160;= &#160;(POSITIONS.TRANS() * MSIGMA * POSITIONS)[0,0]$">
<polygon fill="#63b8ff" stroke="black" points="659.5,-707 605.5,-707 605.5,-671 659.5,-671 659.5,-707"/>
<text text-anchor="start" x="615.5" y="-684.8" font-family="Times New Roman,serif" font-size="14.00" fill="blue">RISK:</text>
</a>
</g>
</g>
<!-- MSIGMA&#45;&gt;RISK -->
<g id="edge10" class="edge">
<title>MSIGMA&#45;&gt;RISK</title>
<g id="a_edge10"><a xlink:href="bogus" xlink:title="NA">
<path fill="none" stroke="black" stroke-width="0.5" d="M332.8,-689C396.98,-689 530.92,-689 595.35,-689"/>
<polygon fill="black" stroke="black" stroke-width="0.5" points="595.44,-692.5 605.44,-689 595.44,-685.5 595.44,-692.5"/>
</a>
</g>
</g>
<!-- MAX_USD -->
<g id="node12" class="node">
<title>MAX_USD</title>
<g id="a_node12"><a xlink:title="MAX_USD&#10;Exogen">
<polygon fill="yellow" stroke="black" points="132,-275 50,-275 50,-239 132,-239 132,-275"/>
<text text-anchor="start" x="56" y="-252.8" font-family="Times New Roman,serif" font-size="14.00" fill="blue">MAX_USD:</text>
</a>
</g>
</g>
<!-- MAX_USD&#45;&gt;MAX_W -->
<g id="edge36" class="edge">
<title>MAX_USD&#45;&gt;MAX_W</title>
<g id="a_edge36"><a xlink:href="bogus" xlink:title="NA">
<path fill="none" stroke="black" stroke-width="0.5" d="M132.11,-267.67C166.6,-276.84 216.25,-290.05 251.65,-299.47"/>
<polygon fill="black" stroke="black" stroke-width="0.5" points="251.13,-302.95 261.69,-302.14 252.93,-296.19 251.13,-302.95"/>
</a>
</g>
</g>
<!-- POSITIONS&#45;&gt;RETURN -->
<g id="edge11" class="edge">
<title>POSITIONS&#45;&gt;RETURN</title>
<g id="a_edge11"><a xlink:href="bogus" xlink:title="NA">
<path fill="none" stroke="black" stroke-width="0.5" d="M454.54,-518.11C457.92,-559.53 472.1,-661.74 531,-716 546.21,-730.01 567.9,-736.89 587.24,-740.21"/>
<polygon fill="black" stroke="black" stroke-width="0.5" points="586.99,-743.71 597.39,-741.68 588,-736.78 586.99,-743.71"/>
</a>
</g>
</g>
<!-- POSITIONS&#45;&gt;RISK -->
<g id="edge27" class="edge">
<title>POSITIONS&#45;&gt;RISK</title>
<g id="a_edge27"><a xlink:href="bogus" xlink:title="NA">
<path fill="none" stroke="black" stroke-width="0.5" d="M456.98,-518.14C464.39,-551.74 484.97,-623.73 531,-662 548.95,-676.92 574.37,-683.66 595.16,-686.67"/>
<polygon fill="black" stroke="black" stroke-width="0.5" points="594.89,-690.16 605.24,-687.9 595.73,-683.21 594.89,-690.16"/>
</a>
</g>
</g>
<!-- POSITION_EUR -->
<g id="node20" class="node">
<title>POSITION_EUR</title>
<g id="a_node20"><a xlink:title="POSITION_EUR&#10;FRML XX &#160;&#160;&#160;&#160;&#160;POSITION_USD,POSITION_JPY,POSITION_EUR = POSITIONS $">
<polygon fill="#63b8ff" stroke="black" points="688.5,-491 576.5,-491 576.5,-455 688.5,-455 688.5,-491"/>
<text text-anchor="start" x="582.5" y="-468.8" font-family="Times New Roman,serif" font-size="14.00" fill="blue">POSITION_EUR:</text>
</a>
</g>
</g>
<!-- POSITIONS&#45;&gt;POSITION_EUR -->
<g id="edge19" class="edge">
<title>POSITIONS&#45;&gt;POSITION_EUR</title>
<g id="a_edge19"><a xlink:href="bogus" xlink:title="NA">
<path fill="none" stroke="black" stroke-width="0.5" d="M495.23,-493.67C516.36,-490.46 542.5,-486.5 566.21,-482.9"/>
<polygon fill="black" stroke="black" stroke-width="0.5" points="566.84,-486.35 576.21,-481.39 565.79,-479.43 566.84,-486.35"/>
</a>
</g>
</g>
<!-- POSITIONS&#45;&gt;LCR_WEIGHTED_SUM -->
<g id="edge31" class="edge">
<title>POSITIONS&#45;&gt;LCR_WEIGHTED_SUM</title>
<g id="a_edge31"><a xlink:href="bogus" xlink:title="NA">
<path fill="none" stroke="black" stroke-width="0.5" d="M474.97,-518.01C489.87,-529.72 510.63,-544.52 531,-554 535.12,-555.92 539.4,-557.72 543.77,-559.41"/>
<polygon fill="black" stroke="black" stroke-width="0.5" points="542.85,-562.8 553.45,-562.93 545.25,-556.22 542.85,-562.8"/>
</a>
</g>
</g>
<!-- POSITION_USD -->
<g id="node28" class="node">
<title>POSITION_USD</title>
<g id="a_node28"><a xlink:title="POSITION_USD&#10;FRML XX &#160;&#160;&#160;&#160;&#160;POSITION_USD,POSITION_JPY,POSITION_EUR = POSITIONS $">
<polygon fill="#63b8ff" stroke="black" points="688.5,-437 576.5,-437 576.5,-401 688.5,-401 688.5,-437"/>
<text text-anchor="start" x="582.5" y="-414.8" font-family="Times New Roman,serif" font-size="14.00" fill="blue">POSITION_USD:</text>
</a>
</g>
</g>
<!-- POSITIONS&#45;&gt;POSITION_USD -->
<g id="edge14" class="edge">
<title>POSITIONS&#45;&gt;POSITION_USD</title>
<g id="a_edge14"><a xlink:href="bogus" xlink:title="NA">
<path fill="none" stroke="black" stroke-width="0.5" d="M474.97,-481.99C489.87,-470.28 510.63,-455.48 531,-446 542.18,-440.8 554.54,-436.45 566.66,-432.87"/>
<polygon fill="black" stroke="black" stroke-width="0.5" points="567.62,-436.24 576.3,-430.16 565.73,-429.5 567.62,-436.24"/>
</a>
</g>
</g>
<!-- RISK_WEIGHTED_SUM -->
<g id="node30" class="node">
<title>RISK_WEIGHTED_SUM</title>
<g id="a_node30"><a xlink:title="RISK_WEIGHTED_SUM&#10;FRML XX &#160;&#160;&#160;&#160;&#160;RISK_WEIGHTED_SUM &#160;&#160;&#160;&#160;= (RISK_WEIGHTS.TRANS() * POSITIONS)[0,0] $">
<polygon fill="#63b8ff" stroke="black" points="714,-275 551,-275 551,-239 714,-239 714,-275"/>
<text text-anchor="start" x="557.5" y="-252.8" font-family="Times New Roman,serif" font-size="14.00" fill="blue">RISK_WEIGHTED_SUM:</text>
</a>
</g>
</g>
<!-- POSITIONS&#45;&gt;RISK_WEIGHTED_SUM -->
<g id="edge34" class="edge">
<title>POSITIONS&#45;&gt;RISK_WEIGHTED_SUM</title>
<g id="a_edge34"><a xlink:href="bogus" xlink:title="NA">
<path fill="none" stroke="black" stroke-width="0.5" d="M466.29,-481.97C481.58,-460.47 507.98,-423.49 531,-392 558.69,-354.11 591.2,-310.62 611.58,-283.48"/>
<polygon fill="black" stroke="black" stroke-width="0.5" points="614.54,-285.36 617.74,-275.27 608.94,-281.16 614.54,-285.36"/>
</a>
</g>
</g>
<!-- POSITIONS&#45;&gt;LEVERAGE_WEIGHTED_SUM -->
<g id="edge26" class="edge">
<title>POSITIONS&#45;&gt;LEVERAGE_WEIGHTED_SUM</title>
<g id="a_edge26"><a xlink:href="bogus" xlink:title="NA">
<path fill="none" stroke="black" stroke-width="0.5" d="M461.69,-518.28C473.5,-542.51 497.6,-584.88 531,-608 533.14,-609.48 535.37,-610.89 537.65,-612.21"/>
<polygon fill="black" stroke="black" stroke-width="0.5" points="536.25,-615.43 546.74,-616.95 539.49,-609.23 536.25,-615.43"/>
</a>
</g>
</g>
<!-- POSITION_JPY -->
<g id="node35" class="node">
<title>POSITION_JPY</title>
<g id="a_node35"><a xlink:title="POSITION_JPY&#10;FRML XX &#160;&#160;&#160;&#160;&#160;POSITION_USD,POSITION_JPY,POSITION_EUR = POSITIONS $">
<polygon fill="#63b8ff" stroke="black" points="685.5,-545 579.5,-545 579.5,-509 685.5,-509 685.5,-545"/>
<text text-anchor="start" x="585.5" y="-522.8" font-family="Times New Roman,serif" font-size="14.00" fill="blue">POSITION_JPY:</text>
</a>
</g>
</g>
<!-- POSITIONS&#45;&gt;POSITION_JPY -->
<g id="edge8" class="edge">
<title>POSITIONS&#45;&gt;POSITION_JPY</title>
<g id="a_edge8"><a xlink:href="bogus" xlink:title="NA">
<path fill="none" stroke="black" stroke-width="0.5" d="M495.23,-506.33C517.27,-509.67 544.75,-513.84 569.25,-517.56"/>
<polygon fill="black" stroke="black" stroke-width="0.5" points="568.78,-521.03 579.19,-519.07 569.83,-514.1 568.78,-521.03"/>
</a>
</g>
</g>
<!-- MIN_JPY -->
<g id="node14" class="node">
<title>MIN_JPY</title>
<g id="a_node14"><a xlink:title="MIN_JPY&#10;Exogen">
<polygon fill="yellow" stroke="black" points="127,-437 55,-437 55,-401 127,-401 127,-437"/>
<text text-anchor="start" x="61" y="-414.8" font-family="Times New Roman,serif" font-size="14.00" fill="blue">MIN_JPY:</text>
</a>
</g>
</g>
<!-- MIN_JPY&#45;&gt;MIN_W -->
<g id="edge12" class="edge">
<title>MIN_JPY&#45;&gt;MIN_W</title>
<g id="a_edge12"><a xlink:href="bogus" xlink:title="NA">
<path fill="none" stroke="black" stroke-width="0.5" d="M127.36,-409.59C162.77,-400.18 217.19,-385.7 254.36,-375.81"/>
<polygon fill="black" stroke="black" stroke-width="0.5" points="255.59,-379.11 264.35,-373.15 253.79,-372.34 255.59,-379.11"/>
</a>
</g>
</g>
<!-- RISK_WEIGHT_JPY -->
<g id="node15" class="node">
<title>RISK_WEIGHT_JPY</title>
<g id="a_node15"><a xlink:title="RISK_WEIGHT_JPY&#10;Exogen">
<polygon fill="yellow" stroke="black" points="159,-167 23,-167 23,-131 159,-131 159,-167"/>
<text text-anchor="start" x="29" y="-144.8" font-family="Times New Roman,serif" font-size="14.00" fill="blue">RISK_WEIGHT_JPY:</text>
</a>
</g>
</g>
<!-- RISK_WEIGHTS -->
<g id="node23" class="node">
<title>RISK_WEIGHTS</title>
<g id="a_node23"><a xlink:title="RISK_WEIGHTS&#10;FRML &lt;MATRIX&gt; RISK_WEIGHTS &#160;&#160;&#160;&#160;&#160;= MATRIX(&#10;[RISK_WEIGHT_USD,RISK_WEIGHT_JPY,RISK_WEIGHT_EUR]) $">
<polygon fill="#63b8ff" stroke="black" points="353.5,-167 238.5,-167 238.5,-131 353.5,-131 353.5,-167"/>
<text text-anchor="start" x="245" y="-144.8" font-family="Times New Roman,serif" font-size="14.00" fill="blue">RISK_WEIGHTS:</text>
</a>
</g>
</g>
<!-- RISK_WEIGHT_JPY&#45;&gt;RISK_WEIGHTS -->
<g id="edge38" class="edge">
<title>RISK_WEIGHT_JPY&#45;&gt;RISK_WEIGHTS</title>
<g id="a_edge38"><a xlink:href="bogus" xlink:title="NA">
<path fill="none" stroke="black" stroke-width="0.5" d="M159.03,-149C181.27,-149 206,-149 228.22,-149"/>
<polygon fill="black" stroke="black" stroke-width="0.5" points="228.23,-152.5 238.23,-149 228.23,-145.5 228.23,-152.5"/>
</a>
</g>
</g>
<!-- LEVERAGE_WEIGHT_JPY -->
<g id="node17" class="node">
<title>LEVERAGE_WEIGHT_JPY</title>
<g id="a_node17"><a xlink:title="LEVERAGE_WEIGHT_JPY&#10;Exogen">
<polygon fill="yellow" stroke="black" points="179.5,-761 2.5,-761 2.5,-725 179.5,-725 179.5,-761"/>
<text text-anchor="start" x="9" y="-738.8" font-family="Times New Roman,serif" font-size="14.00" fill="blue">LEVERAGE_WEIGHT_JPY:</text>
</a>
</g>
</g>
<!-- LEVERAGE_WEIGHT_JPY&#45;&gt;LEVERAGE_WEIGHTS -->
<g id="edge5" class="edge">
<title>LEVERAGE_WEIGHT_JPY&#45;&gt;LEVERAGE_WEIGHTS</title>
<g id="a_edge5"><a xlink:href="bogus" xlink:title="NA">
<path fill="none" stroke="black" stroke-width="0.5" d="M167.15,-724.97C172.39,-722.37 177.41,-719.4 182,-716 205.19,-698.84 195.21,-679.69 218,-662 219.77,-660.62 221.62,-659.31 223.53,-658.07"/>
<polygon fill="black" stroke="black" stroke-width="0.5" points="225.34,-661.06 232.22,-653.01 221.82,-655.01 225.34,-661.06"/>
</a>
</g>
</g>
<!-- LEVERAGE_WEIGHT_EUR -->
<g id="node19" class="node">
<title>LEVERAGE_WEIGHT_EUR</title>
<g id="a_node19"><a xlink:title="LEVERAGE_WEIGHT_EUR&#10;Exogen">
<polygon fill="yellow" stroke="black" points="182,-707 0,-707 0,-671 182,-671 182,-707"/>
<text text-anchor="start" x="6" y="-684.8" font-family="Times New Roman,serif" font-size="14.00" fill="blue">LEVERAGE_WEIGHT_EUR:</text>
</a>
</g>
</g>
<!-- LEVERAGE_WEIGHT_EUR&#45;&gt;LEVERAGE_WEIGHTS -->
<g id="edge22" class="edge">
<title>LEVERAGE_WEIGHT_EUR&#45;&gt;LEVERAGE_WEIGHTS</title>
<g id="a_edge22"><a xlink:href="bogus" xlink:title="NA">
<path fill="none" stroke="black" stroke-width="0.5" d="M159.88,-670.94C178.33,-666.04 198.45,-660.68 217.4,-655.64"/>
<polygon fill="black" stroke="black" stroke-width="0.5" points="218.42,-658.99 227.19,-653.04 216.62,-652.23 218.42,-658.99"/>
</a>
</g>
</g>
<!-- RISK_WEIGHT_USD -->
<g id="node21" class="node">
<title>RISK_WEIGHT_USD</title>
<g id="a_node21"><a xlink:title="RISK_WEIGHT_USD&#10;Exogen">
<polygon fill="yellow" stroke="black" points="162,-113 20,-113 20,-77 162,-77 162,-113"/>
<text text-anchor="start" x="26" y="-90.8" font-family="Times New Roman,serif" font-size="14.00" fill="blue">RISK_WEIGHT_USD:</text>
</a>
</g>
</g>
<!-- RISK_WEIGHT_USD&#45;&gt;RISK_WEIGHTS -->
<g id="edge20" class="edge">
<title>RISK_WEIGHT_USD&#45;&gt;RISK_WEIGHTS</title>
<g id="a_edge20"><a xlink:href="bogus" xlink:title="NA">
<path fill="none" stroke="black" stroke-width="0.5" d="M159.88,-113.06C181.97,-118.93 206.45,-125.45 228.44,-131.3"/>
<polygon fill="black" stroke="black" stroke-width="0.5" points="227.79,-134.74 238.36,-133.93 229.59,-127.98 227.79,-134.74"/>
</a>
</g>
</g>
<!-- RISK_WEIGHTS&#45;&gt;POSITIONS -->
<g id="edge17" class="edge">
<title>RISK_WEIGHTS&#45;&gt;POSITIONS</title>
<g id="a_edge17"><a xlink:href="bogus" xlink:title="NA">
<path fill="none" stroke="black" stroke-width="0.5" d="M353.67,-161.34C361.29,-165.02 368.4,-169.8 374,-176 413.71,-220.01 439.52,-401.26 448.22,-471.76"/>
<polygon fill="black" stroke="black" stroke-width="0.5" points="444.75,-472.21 449.43,-481.71 451.7,-471.36 444.75,-472.21"/>
</a>
</g>
</g>
<!-- RISK_WEIGHTS&#45;&gt;RISK_WEIGHTED_SUM -->
<g id="edge24" class="edge">
<title>RISK_WEIGHTS&#45;&gt;RISK_WEIGHTED_SUM</title>
<g id="a_edge24"><a xlink:href="bogus" xlink:title="NA">
<path fill="none" stroke="black" stroke-width="0.5" d="M352.99,-167.08C411.69,-186.03 503.85,-215.79 565.92,-235.82"/>
<polygon fill="black" stroke="black" stroke-width="0.5" points="565.02,-239.21 575.61,-238.95 567.17,-232.55 565.02,-239.21"/>
</a>
</g>
</g>
<!-- RISK_WEIGHT_EUR -->
<g id="node24" class="node">
<title>RISK_WEIGHT_EUR</title>
<g id="a_node24"><a xlink:title="RISK_WEIGHT_EUR&#10;Exogen">
<polygon fill="yellow" stroke="black" points="162,-59 20,-59 20,-23 162,-23 162,-59"/>
<text text-anchor="start" x="26" y="-36.8" font-family="Times New Roman,serif" font-size="14.00" fill="blue">RISK_WEIGHT_EUR:</text>
</a>
</g>
</g>
<!-- RISK_WEIGHT_EUR&#45;&gt;RISK_WEIGHTS -->
<g id="edge23" class="edge">
<title>RISK_WEIGHT_EUR&#45;&gt;RISK_WEIGHTS</title>
<g id="a_edge23"><a xlink:href="bogus" xlink:title="NA">
<path fill="none" stroke="black" stroke-width="0.5" d="M160.73,-59.02C168.04,-61.7 175.27,-64.69 182,-68 212.93,-83.2 244.5,-106.63 266.38,-124.39"/>
<polygon fill="black" stroke="black" stroke-width="0.5" points="264.33,-127.24 274.28,-130.89 268.78,-121.84 264.33,-127.24"/>
</a>
</g>
</g>
<!-- MAX_W&#45;&gt;POSITIONS -->
<g id="edge7" class="edge">
<title>MAX_W&#45;&gt;POSITIONS</title>
<g id="a_edge7"><a xlink:href="bogus" xlink:title="NA">
<path fill="none" stroke="black" stroke-width="0.5" d="M330.31,-316.65C345.1,-320.57 361.87,-327.12 374,-338 414.46,-374.28 435.75,-436.25 445.22,-472.11"/>
<polygon fill="black" stroke="black" stroke-width="0.5" points="441.85,-473.08 447.69,-481.92 448.64,-471.37 441.85,-473.08"/>
</a>
</g>
</g>
<!-- LCR -->
<g id="node26" class="node">
<title>LCR</title>
<g id="a_node26"><a xlink:title="LCR&#10;Exogen">
<polygon fill="yellow" stroke="black" points="323,-275 269,-275 269,-239 323,-239 323,-275"/>
<text text-anchor="start" x="281" y="-252.8" font-family="Times New Roman,serif" font-size="14.00" fill="blue">LCR:</text>
</a>
</g>
</g>
<!-- LCR&#45;&gt;POSITIONS -->
<g id="edge16" class="edge">
<title>LCR&#45;&gt;POSITIONS</title>
<g id="a_edge16"><a xlink:href="bogus" xlink:title="NA">
<path fill="none" stroke="black" stroke-width="0.5" d="M323.25,-260.36C339.76,-263.75 360.43,-270.53 374,-284 426.48,-336.1 443.6,-426.21 449.05,-471.81"/>
<polygon fill="black" stroke="black" stroke-width="0.5" points="445.58,-472.32 450.14,-481.88 452.54,-471.56 445.58,-472.32"/>
</a>
</g>
</g>
<!-- CAPITAL -->
<g id="node27" class="node">
<title>CAPITAL</title>
<g id="a_node27"><a xlink:title="CAPITAL&#10;Exogen">
<polygon fill="yellow" stroke="black" points="332.5,-221 259.5,-221 259.5,-185 332.5,-185 332.5,-221"/>
<text text-anchor="start" x="266" y="-198.8" font-family="Times New Roman,serif" font-size="14.00" fill="blue">CAPITAL:</text>
</a>
</g>
</g>
<!-- CAPITAL&#45;&gt;POSITIONS -->
<g id="edge39" class="edge">
<title>CAPITAL&#45;&gt;POSITIONS</title>
<g id="a_edge39"><a xlink:href="bogus" xlink:title="NA">
<path fill="none" stroke="black" stroke-width="0.5" d="M332.74,-208.17C347.3,-211.97 363.21,-218.56 374,-230 438.67,-298.51 449.87,-417.38 451.47,-471.59"/>
<polygon fill="black" stroke="black" stroke-width="0.5" points="447.98,-471.91 451.68,-481.83 454.98,-471.76 447.98,-471.91"/>
</a>
</g>
</g>
<!-- MAX_JPY -->
<g id="node29" class="node">
<title>MAX_JPY</title>
<g id="a_node29"><a xlink:title="MAX_JPY&#10;Exogen">
<polygon fill="yellow" stroke="black" points="129.5,-221 52.5,-221 52.5,-185 129.5,-185 129.5,-221"/>
<text text-anchor="start" x="59" y="-198.8" font-family="Times New Roman,serif" font-size="14.00" fill="blue">MAX_JPY:</text>
</a>
</g>
</g>
<!-- MAX_JPY&#45;&gt;MAX_W -->
<g id="edge29" class="edge">
<title>MAX_JPY&#45;&gt;MAX_W</title>
<g id="a_edge29"><a xlink:href="bogus" xlink:title="NA">
<path fill="none" stroke="black" stroke-width="0.5" d="M129.66,-208.29C146.88,-212.14 166.79,-218.74 182,-230 205.19,-247.16 195.21,-266.31 218,-284 227.97,-291.74 240.32,-297.36 252.19,-301.4"/>
<polygon fill="black" stroke="black" stroke-width="0.5" points="251.4,-304.82 261.98,-304.43 253.47,-298.13 251.4,-304.82"/>
</a>
</g>
</g>
<!-- LCR_WEIGHT_USD -->
<g id="node32" class="node">
<title>LCR_WEIGHT_USD</title>
<g id="a_node32"><a xlink:title="LCR_WEIGHT_USD&#10;Exogen">
<polygon fill="yellow" stroke="black" points="159.5,-599 22.5,-599 22.5,-563 159.5,-563 159.5,-599"/>
<text text-anchor="start" x="29" y="-576.8" font-family="Times New Roman,serif" font-size="14.00" fill="blue">LCR_WEIGHT_USD:</text>
</a>
</g>
</g>
<!-- LCR_WEIGHT_USD&#45;&gt;LCR_WEIGHTS -->
<g id="edge15" class="edge">
<title>LCR_WEIGHT_USD&#45;&gt;LCR_WEIGHTS</title>
<g id="a_edge15"><a xlink:href="bogus" xlink:title="NA">
<path fill="none" stroke="black" stroke-width="0.5" d="M159.6,-581C182.3,-581 207.56,-581 230.06,-581"/>
<polygon fill="black" stroke="black" stroke-width="0.5" points="230.18,-584.5 240.18,-581 230.18,-577.5 230.18,-584.5"/>
</a>
</g>
</g>
<!-- MIN_EUR -->
<g id="node33" class="node">
<title>MIN_EUR</title>
<g id="a_node33"><a xlink:title="MIN_EUR&#10;Exogen">
<polygon fill="yellow" stroke="black" points="129.5,-383 52.5,-383 52.5,-347 129.5,-347 129.5,-383"/>
<text text-anchor="start" x="59" y="-360.8" font-family="Times New Roman,serif" font-size="14.00" fill="blue">MIN_EUR:</text>
</a>
</g>
</g>
<!-- MIN_EUR&#45;&gt;MIN_W -->
<g id="edge28" class="edge">
<title>MIN_EUR&#45;&gt;MIN_W</title>
<g id="a_edge28"><a xlink:href="bogus" xlink:title="NA">
<path fill="none" stroke="black" stroke-width="0.5" d="M129.71,-365C165.08,-365 217.85,-365 254.2,-365"/>
<polygon fill="black" stroke="black" stroke-width="0.5" points="254.45,-368.5 264.45,-365 254.45,-361.5 254.45,-368.5"/>
</a>
</g>
</g>
<!-- LCR_WEIGHT_JPY -->
<g id="node34" class="node">
<title>LCR_WEIGHT_JPY</title>
<g id="a_node34"><a xlink:title="LCR_WEIGHT_JPY&#10;Exogen">
<polygon fill="yellow" stroke="black" points="157,-545 25,-545 25,-509 157,-509 157,-545"/>
<text text-anchor="start" x="31" y="-522.8" font-family="Times New Roman,serif" font-size="14.00" fill="blue">LCR_WEIGHT_JPY:</text>
</a>
</g>
</g>
<!-- LCR_WEIGHT_JPY&#45;&gt;LCR_WEIGHTS -->
<g id="edge35" class="edge">
<title>LCR_WEIGHT_JPY&#45;&gt;LCR_WEIGHTS</title>
<g id="a_edge35"><a xlink:href="bogus" xlink:title="NA">
<path fill="none" stroke="black" stroke-width="0.5" d="M157.07,-544.31C180.51,-550.54 206.94,-557.57 230.34,-563.8"/>
<polygon fill="black" stroke="black" stroke-width="0.5" points="229.61,-567.23 240.17,-566.42 231.41,-560.46 229.61,-567.23"/>
</a>
</g>
</g>
<!-- TOTAL -->
<g id="node36" class="node">
<title>TOTAL</title>
<g id="a_node36"><a xlink:title="TOTAL&#10;Exogen">
<polygon fill="yellow" stroke="black" points="326,-545 266,-545 266,-509 326,-509 326,-545"/>
<text text-anchor="start" x="272" y="-522.8" font-family="Times New Roman,serif" font-size="14.00" fill="blue">TOTAL:</text>
</a>
</g>
</g>
<!-- TOTAL&#45;&gt;POSITIONS -->
<g id="edge33" class="edge">
<title>TOTAL&#45;&gt;POSITIONS</title>
<g id="a_edge33"><a xlink:href="bogus" xlink:title="NA">
<path fill="none" stroke="black" stroke-width="0.5" d="M326.06,-521.92C346.8,-518.3 375.27,-513.32 399.83,-509.03"/>
<polygon fill="black" stroke="black" stroke-width="0.5" points="400.49,-512.47 409.74,-507.3 399.28,-505.57 400.49,-512.47"/>
</a>
</g>
</g>
</g>
</svg>
