<?xml version="1.0" encoding="UTF-8" standalone="no"?>
<!DOCTYPE svg PUBLIC "-//W3C//DTD SVG 1.1//EN"
 "http://www.w3.org/Graphics/SVG/1.1/DTD/svg11.dtd">
<!-- Generated by graphviz version 6.0.1 (0)
 -->
<!-- Title: TD Pages: 1 -->
<svg width="389pt" height="432pt"
 viewBox="0.00 0.00 389.48 432.00" xmlns="http://www.w3.org/2000/svg" xmlns:xlink="http://www.w3.org/1999/xlink">
<g id="graph0" class="graph" transform="scale(0.524909 0.524909) rotate(0) translate(4 819)">
<title>TD</title>
<polygon fill="white" stroke="none" points="-4,4 -4,-819 738,-819 738,4 -4,4"/>
<text text-anchor="middle" x="367" y="-7.8" font-family="Times New Roman,serif" font-size="14.00">A_model_graph</text>
<!-- VRETURN -->
<g id="node1" class="node">
<title>VRETURN</title>
<g id="a_node1"><a xlink:title="VRETURN&#10;FRML &lt;MATRIX&gt; VRETURN &#160;&#160;&#160;&#160;&#160;&#160;&#160;&#160;= MATRIX([0.048,0.040,0.035]) $">
<polygon fill="#63b8ff" stroke="black" points="336,-761 256,-761 256,-725 336,-725 336,-761"/>
<text text-anchor="start" x="262" y="-738.8" font-family="Times New Roman,serif" font-size="14.00" fill="blue">VRETURN:</text>
</a>
</g>
</g>
<!-- RETURN -->
<g id="node4" class="node">
<title>RETURN</title>
<g id="a_node4"><a xlink:title="RETURN&#10;FRML XX &#160;&#160;&#160;&#160;&#160;RETURN &#160;&#160;&#160;&#160;&#160;&#160;&#160;&#160;&#160;&#160;&#160;&#160;= &#160;(POSITIONS.TRANS() * VRETURN &#160;&#160;&#160;&#160;&#160;&#160;&#160;)[0,0] $">
<polygon fill="#63b8ff" stroke="black" points="667.5,-726 597.5,-726 597.5,-690 667.5,-690 667.5,-726"/>
<text text-anchor="start" x="603.5" y="-703.8" font-family="Times New Roman,serif" font-size="14.00" fill="blue">RETURN:</text>
</a>
</g>
</g>
<!-- VRETURN&#45;&gt;RETURN -->
<g id="edge11" class="edge">
<title>VRETURN&#45;&gt;RETURN</title>
<g id="a_edge11"><a xlink:href="bogus" xlink:title="NA">
<path fill="none" stroke="black" stroke-width="0.5" d="M336.03,-738.92C398.68,-732.36 521.33,-719.53 587.19,-712.64"/>
<polygon fill="black" stroke="black" stroke-width="0.5" points="587.67,-716.11 597.25,-711.58 586.94,-709.14 587.67,-716.11"/>
</a>
</g>
</g>
<!-- POSITIONS -->
<g id="node22" class="node">
<title>POSITIONS</title>
<g id="a_node22"><a xlink:title="POSITIONS&#10;FRML &lt;MATRIX&gt; POSITIONS &#160;&#160;&#160;&#160;&#160;&#160;&#160;&#160;&#160;= &#160;MV_OPT(MSIGMA,VRETURN,RISKAVERSION, TOTAL,&#10; &#160;&#160;&#160;&#160;&#160;&#160;&#160;&#160;&#160;&#160;&#160;&#160;&#160;&#160;&#160;&#160;&#160;&#160;&#160;&#160;&#160;[[RISK_WEIGHTS] , [&#45;LCR_WEIGHTS] , [LEVERAGE_WEIGHTS]],&#10; &#160;&#160;&#160;&#160;&#160;&#160;&#160;&#160;&#160;&#160;&#160;&#160;&#160;&#160;&#160;&#160;&#160;&#160;&#160;&#160;&#160;&#160;&#160;&#160;&#160;&#160;&#160;&#160;&#160;&#160;&#160;&#160;&#160;&#160;&#160;&#160;&#160;&#160;[CAPITAL, &#45;LCR , EQUITY] ,MIN_W,MAX_W) $">
<polygon fill="#63b8ff" stroke="black" points="495,-491 410,-491 410,-455 495,-455 495,-491"/>
<text text-anchor="start" x="416.5" y="-468.8" font-family="Times New Roman,serif" font-size="14.00" fill="blue">POSITIONS:</text>
</a>
</g>
</g>
<!-- VRETURN&#45;&gt;POSITIONS -->
<g id="edge21" class="edge">
<title>VRETURN&#45;&gt;POSITIONS</title>
<g id="a_edge21"><a xlink:href="bogus" xlink:title="NA">
<path fill="none" stroke="black" stroke-width="0.5" d="M336.14,-736.69C349.66,-732.75 363.93,-726.36 374,-716 432.51,-655.8 446.86,-551.49 450.37,-501.42"/>
<polygon fill="black" stroke="black" stroke-width="0.5" points="453.87,-501.51 450.98,-491.31 446.89,-501.09 453.87,-501.51"/>
</a>
</g>
</g>
<!-- MIN_EUR -->
<g id="node2" class="node">
<title>MIN_EUR</title>
<g id="a_node2"><a xlink:title="MIN_EUR&#10;Exogen">
<polygon fill="yellow" stroke="black" points="129.5,-491 52.5,-491 52.5,-455 129.5,-455 129.5,-491"/>
<text text-anchor="start" x="59" y="-468.8" font-family="Times New Roman,serif" font-size="14.00" fill="blue">MIN_EUR:</text>
</a>
</g>
</g>
<!-- MIN_W -->
<g id="node25" class="node">
<title>MIN_W</title>
<g id="a_node25"><a xlink:title="MIN_W&#10;FRML &lt;MATRIX&gt; MIN_W &#160;&#160;&#160;&#160;&#160;&#160;&#160;&#160;&#160;&#160;&#160;&#160;= MATRIX(&#10;[MIN_USD,MIN_JPY,MIN_EUR]) &#160;&#160;&#160;&#160;&#160;&#160;$">
<polygon fill="#63b8ff" stroke="black" points="327.5,-329 264.5,-329 264.5,-293 327.5,-293 327.5,-329"/>
<text text-anchor="start" x="271" y="-306.8" font-family="Times New Roman,serif" font-size="14.00" fill="blue">MIN_W:</text>
</a>
</g>
</g>
<!-- MIN_EUR&#45;&gt;MIN_W -->
<g id="edge20" class="edge">
<title>MIN_EUR&#45;&gt;MIN_W</title>
<g id="a_edge20"><a xlink:href="bogus" xlink:title="NA">
<path fill="none" stroke="black" stroke-width="0.5" d="M129.77,-469.69C147.64,-466.3 168.07,-459.52 182,-446 218.31,-410.77 182.5,-374.05 218,-338 227.74,-328.11 241.31,-321.83 254.35,-317.85"/>
<polygon fill="black" stroke="black" stroke-width="0.5" points="255.39,-321.2 264.14,-315.24 253.58,-314.44 255.39,-321.2"/>
</a>
</g>
</g>
<!-- CAPITAL -->
<g id="node3" class="node">
<title>CAPITAL</title>
<g id="a_node3"><a xlink:title="CAPITAL&#10;Exogen">
<polygon fill="yellow" stroke="black" points="332.5,-545 259.5,-545 259.5,-509 332.5,-509 332.5,-545"/>
<text text-anchor="start" x="266" y="-522.8" font-family="Times New Roman,serif" font-size="14.00" fill="blue">CAPITAL:</text>
</a>
</g>
</g>
<!-- CAPITAL&#45;&gt;POSITIONS -->
<g id="edge32" class="edge">
<title>CAPITAL&#45;&gt;POSITIONS</title>
<g id="a_edge32"><a xlink:href="bogus" xlink:title="NA">
<path fill="none" stroke="black" stroke-width="0.5" d="M332.83,-514.48C352.87,-507.47 378.18,-498.63 400.27,-490.9"/>
<polygon fill="black" stroke="black" stroke-width="0.5" points="401.56,-494.16 409.84,-487.56 399.25,-487.56 401.56,-494.16"/>
</a>
</g>
</g>
<!-- LCR_WEIGHT_JPY -->
<g id="node5" class="node">
<title>LCR_WEIGHT_JPY</title>
<g id="a_node5"><a xlink:title="LCR_WEIGHT_JPY&#10;Exogen">
<polygon fill="yellow" stroke="black" points="157,-167 25,-167 25,-131 157,-131 157,-167"/>
<text text-anchor="start" x="31" y="-144.8" font-family="Times New Roman,serif" font-size="14.00" fill="blue">LCR_WEIGHT_JPY:</text>
</a>
</g>
</g>
<!-- LCR_WEIGHTS -->
<g id="node18" class="node">
<title>LCR_WEIGHTS</title>
<g id="a_node18"><a xlink:title="LCR_WEIGHTS&#10;FRML &lt;MATRIX&gt; LCR_WEIGHTS &#160;&#160;&#160;&#160;&#160;&#160;= MATRIX(&#10;[LCR_WEIGHT_USD,LCR_WEIGHT_JPY,LCR_WEIGHT_EUR]) $">
<polygon fill="#63b8ff" stroke="black" points="351.5,-221 240.5,-221 240.5,-185 351.5,-185 351.5,-221"/>
<text text-anchor="start" x="247" y="-198.8" font-family="Times New Roman,serif" font-size="14.00" fill="blue">LCR_WEIGHTS:</text>
</a>
</g>
</g>
<!-- LCR_WEIGHT_JPY&#45;&gt;LCR_WEIGHTS -->
<g id="edge16" class="edge">
<title>LCR_WEIGHT_JPY&#45;&gt;LCR_WEIGHTS</title>
<g id="a_edge16"><a xlink:href="bogus" xlink:title="NA">
<path fill="none" stroke="black" stroke-width="0.5" d="M157.07,-166.31C180.51,-172.54 206.94,-179.57 230.34,-185.8"/>
<polygon fill="black" stroke="black" stroke-width="0.5" points="229.61,-189.23 240.17,-188.42 231.41,-182.46 229.61,-189.23"/>
</a>
</g>
</g>
<!-- LEVERAGE_WEIGHT_USD -->
<g id="node6" class="node">
<title>LEVERAGE_WEIGHT_USD</title>
<g id="a_node6"><a xlink:title="LEVERAGE_WEIGHT_USD&#10;Exogen">
<polygon fill="yellow" stroke="black" points="182,-815 0,-815 0,-779 182,-779 182,-815"/>
<text text-anchor="start" x="6" y="-792.8" font-family="Times New Roman,serif" font-size="14.00" fill="blue">LEVERAGE_WEIGHT_USD:</text>
</a>
</g>
</g>
<!-- LEVERAGE_WEIGHTS -->
<g id="node13" class="node">
<title>LEVERAGE_WEIGHTS</title>
<g id="a_node13"><a xlink:title="LEVERAGE_WEIGHTS&#10;FRML &lt;MATRIX&gt; LEVERAGE_WEIGHTS &#160;= MATRIX(&#10;[LEVERAGE_WEIGHT_USD,LEVERAGE_WEIGHT_JPY,LEVERAGE_WEIGHT_EUR]) $">
<polygon fill="#63b8ff" stroke="black" points="374,-707 218,-707 218,-671 374,-671 374,-707"/>
<text text-anchor="start" x="224" y="-684.8" font-family="Times New Roman,serif" font-size="14.00" fill="blue">LEVERAGE_WEIGHTS:</text>
</a>
</g>
</g>
<!-- LEVERAGE_WEIGHT_USD&#45;&gt;LEVERAGE_WEIGHTS -->
<g id="edge24" class="edge">
<title>LEVERAGE_WEIGHT_USD&#45;&gt;LEVERAGE_WEIGHTS</title>
<g id="a_edge24"><a xlink:href="bogus" xlink:title="NA">
<path fill="none" stroke="black" stroke-width="0.5" d="M167.15,-778.97C172.39,-776.37 177.41,-773.4 182,-770 205.19,-752.84 195.21,-733.69 218,-716 219.77,-714.62 221.62,-713.31 223.53,-712.07"/>
<polygon fill="black" stroke="black" stroke-width="0.5" points="225.34,-715.06 232.22,-707.01 221.82,-709.01 225.34,-715.06"/>
</a>
</g>
</g>
<!-- RISK_WEIGHTED_SUM -->
<g id="node7" class="node">
<title>RISK_WEIGHTED_SUM</title>
<g id="a_node7"><a xlink:title="RISK_WEIGHTED_SUM&#10;FRML XX &#160;&#160;&#160;&#160;&#160;RISK_WEIGHTED_SUM &#160;&#160;&#160;&#160;= (RISK_WEIGHTS.TRANS() * POSITIONS)[0,0] $">
<polygon fill="#63b8ff" stroke="black" points="714,-610 551,-610 551,-574 714,-574 714,-610"/>
<text text-anchor="start" x="557.5" y="-587.8" font-family="Times New Roman,serif" font-size="14.00" fill="blue">RISK_WEIGHTED_SUM:</text>
</a>
</g>
</g>
<!-- TOTAL -->
<g id="node8" class="node">
<title>TOTAL</title>
<g id="a_node8"><a xlink:title="TOTAL&#10;Exogen">
<polygon fill="yellow" stroke="black" points="326,-491 266,-491 266,-455 326,-455 326,-491"/>
<text text-anchor="start" x="272" y="-468.8" font-family="Times New Roman,serif" font-size="14.00" fill="blue">TOTAL:</text>
</a>
</g>
</g>
<!-- TOTAL&#45;&gt;POSITIONS -->
<g id="edge35" class="edge">
<title>TOTAL&#45;&gt;POSITIONS</title>
<g id="a_edge35"><a xlink:href="bogus" xlink:title="NA">
<path fill="none" stroke="black" stroke-width="0.5" d="M326.06,-473C346.71,-473 375.01,-473 399.51,-473"/>
<polygon fill="black" stroke="black" stroke-width="0.5" points="399.74,-476.5 409.74,-473 399.74,-469.5 399.74,-476.5"/>
</a>
</g>
</g>
<!-- LEVERAGE_WEIGHT_JPY -->
<g id="node9" class="node">
<title>LEVERAGE_WEIGHT_JPY</title>
<g id="a_node9"><a xlink:title="LEVERAGE_WEIGHT_JPY&#10;Exogen">
<polygon fill="yellow" stroke="black" points="179.5,-761 2.5,-761 2.5,-725 179.5,-725 179.5,-761"/>
<text text-anchor="start" x="9" y="-738.8" font-family="Times New Roman,serif" font-size="14.00" fill="blue">LEVERAGE_WEIGHT_JPY:</text>
</a>
</g>
</g>
<!-- LEVERAGE_WEIGHT_JPY&#45;&gt;LEVERAGE_WEIGHTS -->
<g id="edge40" class="edge">
<title>LEVERAGE_WEIGHT_JPY&#45;&gt;LEVERAGE_WEIGHTS</title>
<g id="a_edge40"><a xlink:href="bogus" xlink:title="NA">
<path fill="none" stroke="black" stroke-width="0.5" d="M159.88,-724.94C178.33,-720.04 198.45,-714.68 217.4,-709.64"/>
<polygon fill="black" stroke="black" stroke-width="0.5" points="218.42,-712.99 227.19,-707.04 216.62,-706.23 218.42,-712.99"/>
</a>
</g>
</g>
<!-- RISK_WEIGHT_JPY -->
<g id="node10" class="node">
<title>RISK_WEIGHT_JPY</title>
<g id="a_node10"><a xlink:title="RISK_WEIGHT_JPY&#10;Exogen">
<polygon fill="yellow" stroke="black" points="159,-653 23,-653 23,-617 159,-617 159,-653"/>
<text text-anchor="start" x="29" y="-630.8" font-family="Times New Roman,serif" font-size="14.00" fill="blue">RISK_WEIGHT_JPY:</text>
</a>
</g>
</g>
<!-- RISK_WEIGHTS -->
<g id="node14" class="node">
<title>RISK_WEIGHTS</title>
<g id="a_node14"><a xlink:title="RISK_WEIGHTS&#10;FRML &lt;MATRIX&gt; RISK_WEIGHTS &#160;&#160;&#160;&#160;&#160;= MATRIX(&#10;[RISK_WEIGHT_USD,RISK_WEIGHT_JPY,RISK_WEIGHT_EUR]) $">
<polygon fill="#63b8ff" stroke="black" points="353.5,-653 238.5,-653 238.5,-617 353.5,-617 353.5,-653"/>
<text text-anchor="start" x="245" y="-630.8" font-family="Times New Roman,serif" font-size="14.00" fill="blue">RISK_WEIGHTS:</text>
</a>
</g>
</g>
<!-- RISK_WEIGHT_JPY&#45;&gt;RISK_WEIGHTS -->
<g id="edge26" class="edge">
<title>RISK_WEIGHT_JPY&#45;&gt;RISK_WEIGHTS</title>
<g id="a_edge26"><a xlink:href="bogus" xlink:title="NA">
<path fill="none" stroke="black" stroke-width="0.5" d="M159.03,-635C181.27,-635 206,-635 228.22,-635"/>
<polygon fill="black" stroke="black" stroke-width="0.5" points="228.23,-638.5 238.23,-635 228.23,-631.5 228.23,-638.5"/>
</a>
</g>
</g>
<!-- POSITION_USD -->
<g id="node11" class="node">
<title>POSITION_USD</title>
<g id="a_node11"><a xlink:title="POSITION_USD&#10;FRML XX &#160;&#160;&#160;&#160;&#160;POSITION_USD,POSITION_JPY,POSITION_EUR = POSITIONS $">
<polygon fill="#63b8ff" stroke="black" points="688.5,-437 576.5,-437 576.5,-401 688.5,-401 688.5,-437"/>
<text text-anchor="start" x="582.5" y="-414.8" font-family="Times New Roman,serif" font-size="14.00" fill="blue">POSITION_USD:</text>
</a>
</g>
</g>
<!-- MAX_JPY -->
<g id="node12" class="node">
<title>MAX_JPY</title>
<g id="a_node12"><a xlink:title="MAX_JPY&#10;Exogen">
<polygon fill="yellow" stroke="black" points="129.5,-329 52.5,-329 52.5,-293 129.5,-293 129.5,-329"/>
<text text-anchor="start" x="59" y="-306.8" font-family="Times New Roman,serif" font-size="14.00" fill="blue">MAX_JPY:</text>
</a>
</g>
</g>
<!-- MAX_W -->
<g id="node26" class="node">
<title>MAX_W</title>
<g id="a_node26"><a xlink:title="MAX_W&#10;FRML &lt;MATRIX&gt; MAX_W &#160;&#160;&#160;&#160;&#160;&#160;&#160;&#160;&#160;&#160;&#160;&#160;= MATRIX(&#10;[MAX_USD,MAX_JPY,MAX_EUR]) &#160;&#160;&#160;&#160;&#160;$">
<polygon fill="#63b8ff" stroke="black" points="330,-275 262,-275 262,-239 330,-239 330,-275"/>
<text text-anchor="start" x="268" y="-252.8" font-family="Times New Roman,serif" font-size="14.00" fill="blue">MAX_W:</text>
</a>
</g>
</g>
<!-- MAX_JPY&#45;&gt;MAX_W -->
<g id="edge36" class="edge">
<title>MAX_JPY&#45;&gt;MAX_W</title>
<g id="a_edge36"><a xlink:href="bogus" xlink:title="NA">
<path fill="none" stroke="black" stroke-width="0.5" d="M129.71,-300.97C164.4,-291.74 215.81,-278.07 252.07,-268.42"/>
<polygon fill="black" stroke="black" stroke-width="0.5" points="253.1,-271.77 261.86,-265.81 251.3,-265 253.1,-271.77"/>
</a>
</g>
</g>
<!-- LEVERAGE_WEIGHTED_SUM -->
<g id="node20" class="node">
<title>LEVERAGE_WEIGHTED_SUM</title>
<g id="a_node20"><a xlink:title="LEVERAGE_WEIGHTED_SUM&#10;FRML XX &#160;&#160;&#160;&#160;&#160;LEVERAGE_WEIGHTED_SUM = (LEVERAGE_WEIGHTS.TRANS() * POSITIONS)[0,0] $">
<polygon fill="#63b8ff" stroke="black" points="734,-669 531,-669 531,-633 734,-633 734,-669"/>
<text text-anchor="start" x="537.5" y="-646.8" font-family="Times New Roman,serif" font-size="14.00" fill="blue">LEVERAGE_WEIGHTED_SUM:</text>
</a>
</g>
</g>
<!-- LEVERAGE_WEIGHTS&#45;&gt;LEVERAGE_WEIGHTED_SUM -->
<g id="edge28" class="edge">
<title>LEVERAGE_WEIGHTS&#45;&gt;LEVERAGE_WEIGHTED_SUM</title>
<g id="a_edge28"><a xlink:href="bogus" xlink:title="NA">
<path fill="none" stroke="black" stroke-width="0.5" d="M374.16,-680.23C417.66,-675.29 472.75,-669.03 520.79,-663.58"/>
<polygon fill="black" stroke="black" stroke-width="0.5" points="521.39,-667.03 530.93,-662.43 520.6,-660.08 521.39,-667.03"/>
</a>
</g>
</g>
<!-- LEVERAGE_WEIGHTS&#45;&gt;POSITIONS -->
<g id="edge18" class="edge">
<title>LEVERAGE_WEIGHTS&#45;&gt;POSITIONS</title>
<g id="a_edge18"><a xlink:href="bogus" xlink:title="NA">
<path fill="none" stroke="black" stroke-width="0.5" d="M362.41,-670.78C366.58,-668.23 370.51,-665.32 374,-662 420.39,-617.95 439.88,-542.14 447.35,-501.2"/>
<polygon fill="black" stroke="black" stroke-width="0.5" points="450.84,-501.55 449.08,-491.11 443.94,-500.38 450.84,-501.55"/>
</a>
</g>
</g>
<!-- RISK_WEIGHTS&#45;&gt;RISK_WEIGHTED_SUM -->
<g id="edge4" class="edge">
<title>RISK_WEIGHTS&#45;&gt;RISK_WEIGHTED_SUM</title>
<g id="a_edge4"><a xlink:href="bogus" xlink:title="NA">
<path fill="none" stroke="black" stroke-width="0.5" d="M353.74,-627.71C404.93,-621.13 481.11,-611.33 540.75,-603.67"/>
<polygon fill="black" stroke="black" stroke-width="0.5" points="541.46,-607.1 550.93,-602.36 540.56,-600.16 541.46,-607.1"/>
</a>
</g>
</g>
<!-- RISK_WEIGHTS&#45;&gt;POSITIONS -->
<g id="edge22" class="edge">
<title>RISK_WEIGHTS&#45;&gt;POSITIONS</title>
<g id="a_edge22"><a xlink:href="bogus" xlink:title="NA">
<path fill="none" stroke="black" stroke-width="0.5" d="M353.78,-620.41C361.04,-617.07 368.01,-612.98 374,-608 408.54,-579.29 430.9,-530.95 442.33,-500.58"/>
<polygon fill="black" stroke="black" stroke-width="0.5" points="445.68,-501.61 445.8,-491.02 439.1,-499.23 445.68,-501.61"/>
</a>
</g>
</g>
<!-- RISK -->
<g id="node15" class="node">
<title>RISK</title>
<g id="a_node15"><a xlink:title="RISK&#10;FRML XX &#160;&#160;&#160;&#160;&#160;RISK &#160;&#160;&#160;&#160;&#160;&#160;&#160;&#160;&#160;&#160;&#160;&#160;&#160;&#160;= &#160;(POSITIONS.TRANS() * MSIGMA * POSITIONS)[0,0]$">
<polygon fill="#63b8ff" stroke="black" points="659.5,-208 605.5,-208 605.5,-172 659.5,-172 659.5,-208"/>
<text text-anchor="start" x="615.5" y="-185.8" font-family="Times New Roman,serif" font-size="14.00" fill="blue">RISK:</text>
</a>
</g>
</g>
<!-- MIN_USD -->
<g id="node16" class="node">
<title>MIN_USD</title>
<g id="a_node16"><a xlink:title="MIN_USD&#10;Exogen">
<polygon fill="yellow" stroke="black" points="129.5,-437 52.5,-437 52.5,-401 129.5,-401 129.5,-437"/>
<text text-anchor="start" x="59" y="-414.8" font-family="Times New Roman,serif" font-size="14.00" fill="blue">MIN_USD:</text>
</a>
</g>
</g>
<!-- MIN_USD&#45;&gt;MIN_W -->
<g id="edge7" class="edge">
<title>MIN_USD&#45;&gt;MIN_W</title>
<g id="a_edge7"><a xlink:href="bogus" xlink:title="NA">
<path fill="none" stroke="black" stroke-width="0.5" d="M129.66,-413.71C146.88,-409.86 166.79,-403.26 182,-392 205.19,-374.84 195.21,-355.69 218,-338 228.6,-329.78 241.89,-323.94 254.43,-319.85"/>
<polygon fill="black" stroke="black" stroke-width="0.5" points="255.67,-323.14 264.27,-316.94 253.68,-316.43 255.67,-323.14"/>
</a>
</g>
</g>
<!-- RISKAVERSION -->
<g id="node17" class="node">
<title>RISKAVERSION</title>
<g id="a_node17"><a xlink:title="RISKAVERSION&#10;Exogen">
<polygon fill="yellow" stroke="black" points="353,-437 239,-437 239,-401 353,-401 353,-437"/>
<text text-anchor="start" x="245" y="-414.8" font-family="Times New Roman,serif" font-size="14.00" fill="blue">RISKAVERSION:</text>
</a>
</g>
</g>
<!-- RISKAVERSION&#45;&gt;POSITIONS -->
<g id="edge37" class="edge">
<title>RISKAVERSION&#45;&gt;POSITIONS</title>
<g id="a_edge37"><a xlink:href="bogus" xlink:title="NA">
<path fill="none" stroke="black" stroke-width="0.5" d="M348.88,-437.13C365.44,-442.92 383.75,-449.32 400.27,-455.09"/>
<polygon fill="black" stroke="black" stroke-width="0.5" points="399.16,-458.41 409.76,-458.41 401.47,-451.81 399.16,-458.41"/>
</a>
</g>
</g>
<!-- LCR_WEIGHTS&#45;&gt;POSITIONS -->
<g id="edge38" class="edge">
<title>LCR_WEIGHTS&#45;&gt;POSITIONS</title>
<g id="a_edge38"><a xlink:href="bogus" xlink:title="NA">
<path fill="none" stroke="black" stroke-width="0.5" d="M351.7,-214.99C359.96,-218.71 367.78,-223.6 374,-230 432.51,-290.2 446.86,-394.51 450.37,-444.58"/>
<polygon fill="black" stroke="black" stroke-width="0.5" points="446.89,-444.91 450.98,-454.69 453.87,-444.49 446.89,-444.91"/>
</a>
</g>
</g>
<!-- LCR_WEIGHTED_SUM -->
<g id="node30" class="node">
<title>LCR_WEIGHTED_SUM</title>
<g id="a_node30"><a xlink:title="LCR_WEIGHTED_SUM&#10;FRML XX &#160;&#160;&#160;&#160;&#160;LCR_WEIGHTED_SUM &#160;&#160;&#160;&#160;&#160;= (LCR_WEIGHTS.TRANS() * POSITIONS)[0,0] $">
<polygon fill="#63b8ff" stroke="black" points="711.5,-343 553.5,-343 553.5,-307 711.5,-307 711.5,-343"/>
<text text-anchor="start" x="559.5" y="-320.8" font-family="Times New Roman,serif" font-size="14.00" fill="blue">LCR_WEIGHTED_SUM:</text>
</a>
</g>
</g>
<!-- LCR_WEIGHTS&#45;&gt;LCR_WEIGHTED_SUM -->
<g id="edge30" class="edge">
<title>LCR_WEIGHTS&#45;&gt;LCR_WEIGHTED_SUM</title>
<g id="a_edge30"><a xlink:href="bogus" xlink:title="NA">
<path fill="none" stroke="black" stroke-width="0.5" d="M348.81,-221.04C357.24,-224.01 365.87,-227.07 374,-230 442.8,-254.75 521.64,-283.96 573.76,-303.4"/>
<polygon fill="black" stroke="black" stroke-width="0.5" points="572.58,-306.69 583.18,-306.91 575.03,-300.13 572.58,-306.69"/>
</a>
</g>
</g>
<!-- MAX_USD -->
<g id="node19" class="node">
<title>MAX_USD</title>
<g id="a_node19"><a xlink:title="MAX_USD&#10;Exogen">
<polygon fill="yellow" stroke="black" points="132,-275 50,-275 50,-239 132,-239 132,-275"/>
<text text-anchor="start" x="56" y="-252.8" font-family="Times New Roman,serif" font-size="14.00" fill="blue">MAX_USD:</text>
</a>
</g>
</g>
<!-- MAX_USD&#45;&gt;MAX_W -->
<g id="edge9" class="edge">
<title>MAX_USD&#45;&gt;MAX_W</title>
<g id="a_edge9"><a xlink:href="bogus" xlink:title="NA">
<path fill="none" stroke="black" stroke-width="0.5" d="M132.11,-257C166.6,-257 216.25,-257 251.65,-257"/>
<polygon fill="black" stroke="black" stroke-width="0.5" points="251.69,-260.5 261.69,-257 251.69,-253.5 251.69,-260.5"/>
</a>
</g>
</g>
<!-- LCR_WEIGHT_EUR -->
<g id="node21" class="node">
<title>LCR_WEIGHT_EUR</title>
<g id="a_node21"><a xlink:title="LCR_WEIGHT_EUR&#10;Exogen">
<polygon fill="yellow" stroke="black" points="159.5,-113 22.5,-113 22.5,-77 159.5,-77 159.5,-113"/>
<text text-anchor="start" x="29" y="-90.8" font-family="Times New Roman,serif" font-size="14.00" fill="blue">LCR_WEIGHT_EUR:</text>
</a>
</g>
</g>
<!-- LCR_WEIGHT_EUR&#45;&gt;LCR_WEIGHTS -->
<g id="edge2" class="edge">
<title>LCR_WEIGHT_EUR&#45;&gt;LCR_WEIGHTS</title>
<g id="a_edge2"><a xlink:href="bogus" xlink:title="NA">
<path fill="none" stroke="black" stroke-width="0.5" d="M159.84,-109.69C167.72,-113 175.31,-117.05 182,-122 205.19,-139.16 195.21,-158.31 218,-176 222.02,-179.12 226.44,-181.9 231.05,-184.37"/>
<polygon fill="black" stroke="black" stroke-width="0.5" points="229.59,-187.55 240.11,-188.75 232.63,-181.25 229.59,-187.55"/>
</a>
</g>
</g>
<!-- POSITIONS&#45;&gt;RETURN -->
<g id="edge31" class="edge">
<title>POSITIONS&#45;&gt;RETURN</title>
<g id="a_edge31"><a xlink:href="bogus" xlink:title="NA">
<path fill="none" stroke="black" stroke-width="0.5" d="M455.07,-491.29C459.49,-531.15 475.58,-626.4 531,-678 546.32,-692.26 568.15,-699.77 587.55,-703.7"/>
<polygon fill="black" stroke="black" stroke-width="0.5" points="586.97,-707.16 597.43,-705.46 588.19,-700.26 586.97,-707.16"/>
</a>
</g>
</g>
<!-- POSITIONS&#45;&gt;RISK_WEIGHTED_SUM -->
<g id="edge29" class="edge">
<title>POSITIONS&#45;&gt;RISK_WEIGHTED_SUM</title>
<g id="a_edge29"><a xlink:href="bogus" xlink:title="NA">
<path fill="none" stroke="black" stroke-width="0.5" d="M466.8,-491.04C480.95,-509.13 504.87,-536.71 531,-554 540.33,-560.17 550.79,-565.53 561.36,-570.13"/>
<polygon fill="black" stroke="black" stroke-width="0.5" points="560.06,-573.38 570.64,-573.97 562.74,-566.91 560.06,-573.38"/>
</a>
</g>
</g>
<!-- POSITIONS&#45;&gt;POSITION_USD -->
<g id="edge13" class="edge">
<title>POSITIONS&#45;&gt;POSITION_USD</title>
<g id="a_edge13"><a xlink:href="bogus" xlink:title="NA">
<path fill="none" stroke="black" stroke-width="0.5" d="M495.15,-457.87C506.7,-453.84 519.29,-449.61 531,-446 542.4,-442.49 554.6,-438.99 566.44,-435.74"/>
<polygon fill="black" stroke="black" stroke-width="0.5" points="567.53,-439.07 576.26,-433.07 565.7,-432.31 567.53,-439.07"/>
</a>
</g>
</g>
<!-- POSITIONS&#45;&gt;RISK -->
<g id="edge8" class="edge">
<title>POSITIONS&#45;&gt;RISK</title>
<g id="a_edge8"><a xlink:href="bogus" xlink:title="NA">
<path fill="none" stroke="black" stroke-width="0.5" d="M459.28,-454.87C470.25,-421.94 496.14,-350.84 531,-298 551.69,-266.64 581.67,-235.75 603.5,-215.1"/>
<polygon fill="black" stroke="black" stroke-width="0.5" points="605.93,-217.62 610.85,-208.23 601.15,-212.5 605.93,-217.62"/>
</a>
</g>
</g>
<!-- POSITIONS&#45;&gt;LEVERAGE_WEIGHTED_SUM -->
<g id="edge3" class="edge">
<title>POSITIONS&#45;&gt;LEVERAGE_WEIGHTED_SUM</title>
<g id="a_edge3"><a xlink:href="bogus" xlink:title="NA">
<path fill="none" stroke="black" stroke-width="0.5" d="M458.23,-491.11C467.2,-521.9 489.58,-584.43 531,-619 535.07,-622.4 539.5,-625.43 544.17,-628.15"/>
<polygon fill="black" stroke="black" stroke-width="0.5" points="542.9,-631.44 553.38,-632.99 546.16,-625.24 542.9,-631.44"/>
</a>
</g>
</g>
<!-- POSITION_JPY -->
<g id="node27" class="node">
<title>POSITION_JPY</title>
<g id="a_node27"><a xlink:title="POSITION_JPY&#10;FRML XX &#160;&#160;&#160;&#160;&#160;POSITION_USD,POSITION_JPY,POSITION_EUR = POSITIONS $">
<polygon fill="#63b8ff" stroke="black" points="685.5,-545 579.5,-545 579.5,-509 685.5,-509 685.5,-545"/>
<text text-anchor="start" x="585.5" y="-522.8" font-family="Times New Roman,serif" font-size="14.00" fill="blue">POSITION_JPY:</text>
</a>
</g>
</g>
<!-- POSITIONS&#45;&gt;POSITION_JPY -->
<g id="edge25" class="edge">
<title>POSITIONS&#45;&gt;POSITION_JPY</title>
<g id="a_edge25"><a xlink:href="bogus" xlink:title="NA">
<path fill="none" stroke="black" stroke-width="0.5" d="M495.15,-488.13C506.7,-492.16 519.29,-496.39 531,-500 543.45,-503.84 556.86,-507.65 569.71,-511.16"/>
<polygon fill="black" stroke="black" stroke-width="0.5" points="568.82,-514.55 579.39,-513.77 570.65,-507.79 568.82,-514.55"/>
</a>
</g>
</g>
<!-- POSITIONS&#45;&gt;LCR_WEIGHTED_SUM -->
<g id="edge27" class="edge">
<title>POSITIONS&#45;&gt;LCR_WEIGHTED_SUM</title>
<g id="a_edge27"><a xlink:href="bogus" xlink:title="NA">
<path fill="none" stroke="black" stroke-width="0.5" d="M468.8,-454.84C483.74,-437.65 507.59,-411.63 531,-392 550.09,-375.99 573.11,-360.41 592.29,-348.31"/>
<polygon fill="black" stroke="black" stroke-width="0.5" points="594.17,-351.26 600.81,-343.01 590.47,-345.32 594.17,-351.26"/>
</a>
</g>
</g>
<!-- POSITION_EUR -->
<g id="node35" class="node">
<title>POSITION_EUR</title>
<g id="a_node35"><a xlink:title="POSITION_EUR&#10;FRML XX &#160;&#160;&#160;&#160;&#160;POSITION_USD,POSITION_JPY,POSITION_EUR = POSITIONS $">
<polygon fill="#63b8ff" stroke="black" points="688.5,-491 576.5,-491 576.5,-455 688.5,-455 688.5,-491"/>
<text text-anchor="start" x="582.5" y="-468.8" font-family="Times New Roman,serif" font-size="14.00" fill="blue">POSITION_EUR:</text>
</a>
</g>
</g>
<!-- POSITIONS&#45;&gt;POSITION_EUR -->
<g id="edge17" class="edge">
<title>POSITIONS&#45;&gt;POSITION_EUR</title>
<g id="a_edge17"><a xlink:href="bogus" xlink:title="NA">
<path fill="none" stroke="black" stroke-width="0.5" d="M495.23,-473C516.27,-473 542.27,-473 565.89,-473"/>
<polygon fill="black" stroke="black" stroke-width="0.5" points="566.21,-476.5 576.21,-473 566.21,-469.5 566.21,-476.5"/>
</a>
</g>
</g>
<!-- MIN_JPY -->
<g id="node23" class="node">
<title>MIN_JPY</title>
<g id="a_node23"><a xlink:title="MIN_JPY&#10;Exogen">
<polygon fill="yellow" stroke="black" points="127,-383 55,-383 55,-347 127,-347 127,-383"/>
<text text-anchor="start" x="61" y="-360.8" font-family="Times New Roman,serif" font-size="14.00" fill="blue">MIN_JPY:</text>
</a>
</g>
</g>
<!-- MIN_JPY&#45;&gt;MIN_W -->
<g id="edge6" class="edge">
<title>MIN_JPY&#45;&gt;MIN_W</title>
<g id="a_edge6"><a xlink:href="bogus" xlink:title="NA">
<path fill="none" stroke="black" stroke-width="0.5" d="M127.36,-355.59C162.77,-346.18 217.19,-331.7 254.36,-321.81"/>
<polygon fill="black" stroke="black" stroke-width="0.5" points="255.59,-325.11 264.35,-319.15 253.79,-318.34 255.59,-325.11"/>
</a>
</g>
</g>
<!-- EQUITY -->
<g id="node24" class="node">
<title>EQUITY</title>
<g id="a_node24"><a xlink:title="EQUITY&#10;Exogen">
<polygon fill="yellow" stroke="black" points="329,-383 263,-383 263,-347 329,-347 329,-383"/>
<text text-anchor="start" x="269" y="-360.8" font-family="Times New Roman,serif" font-size="14.00" fill="blue">EQUITY:</text>
</a>
</g>
</g>
<!-- EQUITY&#45;&gt;POSITIONS -->
<g id="edge23" class="edge">
<title>EQUITY&#45;&gt;POSITIONS</title>
<g id="a_edge23"><a xlink:href="bogus" xlink:title="NA">
<path fill="none" stroke="black" stroke-width="0.5" d="M329.26,-372.63C343.67,-376.94 360.42,-383.25 374,-392 396.64,-406.58 417.44,-429.06 431.78,-446.65"/>
<polygon fill="black" stroke="black" stroke-width="0.5" points="429.32,-449.17 438.29,-454.83 434.8,-444.82 429.32,-449.17"/>
</a>
</g>
</g>
<!-- MIN_W&#45;&gt;POSITIONS -->
<g id="edge12" class="edge">
<title>MIN_W&#45;&gt;POSITIONS</title>
<g id="a_edge12"><a xlink:href="bogus" xlink:title="NA">
<path fill="none" stroke="black" stroke-width="0.5" d="M327.66,-316.47C342.89,-320.41 360.82,-327.04 374,-338 408.54,-366.71 430.9,-415.05 442.33,-445.42"/>
<polygon fill="black" stroke="black" stroke-width="0.5" points="439.1,-446.77 445.8,-454.98 445.68,-444.39 439.1,-446.77"/>
</a>
</g>
</g>
<!-- MAX_W&#45;&gt;POSITIONS -->
<g id="edge19" class="edge">
<title>MAX_W&#45;&gt;POSITIONS</title>
<g id="a_edge19"><a xlink:href="bogus" xlink:title="NA">
<path fill="none" stroke="black" stroke-width="0.5" d="M330.21,-262.24C345.16,-266.08 362.08,-272.69 374,-284 420.39,-328.05 439.88,-403.86 447.35,-444.8"/>
<polygon fill="black" stroke="black" stroke-width="0.5" points="443.94,-445.62 449.08,-454.89 450.84,-444.45 443.94,-445.62"/>
</a>
</g>
</g>
<!-- RISK_WEIGHT_USD -->
<g id="node28" class="node">
<title>RISK_WEIGHT_USD</title>
<g id="a_node28"><a xlink:title="RISK_WEIGHT_USD&#10;Exogen">
<polygon fill="yellow" stroke="black" points="162,-599 20,-599 20,-563 162,-563 162,-599"/>
<text text-anchor="start" x="26" y="-576.8" font-family="Times New Roman,serif" font-size="14.00" fill="blue">RISK_WEIGHT_USD:</text>
</a>
</g>
</g>
<!-- RISK_WEIGHT_USD&#45;&gt;RISK_WEIGHTS -->
<g id="edge34" class="edge">
<title>RISK_WEIGHT_USD&#45;&gt;RISK_WEIGHTS</title>
<g id="a_edge34"><a xlink:href="bogus" xlink:title="NA">
<path fill="none" stroke="black" stroke-width="0.5" d="M159.88,-599.06C181.97,-604.93 206.45,-611.45 228.44,-617.3"/>
<polygon fill="black" stroke="black" stroke-width="0.5" points="227.79,-620.74 238.36,-619.93 229.59,-613.98 227.79,-620.74"/>
</a>
</g>
</g>
<!-- LCR -->
<g id="node29" class="node">
<title>LCR</title>
<g id="a_node29"><a xlink:title="LCR&#10;Exogen">
<polygon fill="yellow" stroke="black" points="323,-599 269,-599 269,-563 323,-563 323,-599"/>
<text text-anchor="start" x="281" y="-576.8" font-family="Times New Roman,serif" font-size="14.00" fill="blue">LCR:</text>
</a>
</g>
</g>
<!-- LCR&#45;&gt;POSITIONS -->
<g id="edge14" class="edge">
<title>LCR&#45;&gt;POSITIONS</title>
<g id="a_edge14"><a xlink:href="bogus" xlink:title="NA">
<path fill="none" stroke="black" stroke-width="0.5" d="M323.35,-575.07C338.9,-570.78 358.52,-563.97 374,-554 396.64,-539.42 417.44,-516.94 431.78,-499.35"/>
<polygon fill="black" stroke="black" stroke-width="0.5" points="434.8,-501.18 438.29,-491.17 429.32,-496.83 434.8,-501.18"/>
</a>
</g>
</g>
<!-- MAX_EUR -->
<g id="node31" class="node">
<title>MAX_EUR</title>
<g id="a_node31"><a xlink:title="MAX_EUR&#10;Exogen">
<polygon fill="yellow" stroke="black" points="132,-221 50,-221 50,-185 132,-185 132,-221"/>
<text text-anchor="start" x="56" y="-198.8" font-family="Times New Roman,serif" font-size="14.00" fill="blue">MAX_EUR:</text>
</a>
</g>
</g>
<!-- MAX_EUR&#45;&gt;MAX_W -->
<g id="edge39" class="edge">
<title>MAX_EUR&#45;&gt;MAX_W</title>
<g id="a_edge39"><a xlink:href="bogus" xlink:title="NA">
<path fill="none" stroke="black" stroke-width="0.5" d="M132.11,-213.67C166.6,-222.84 216.25,-236.05 251.65,-245.47"/>
<polygon fill="black" stroke="black" stroke-width="0.5" points="251.13,-248.95 261.69,-248.14 252.93,-242.19 251.13,-248.95"/>
</a>
</g>
</g>
<!-- MSIGMA -->
<g id="node32" class="node">
<title>MSIGMA</title>
<g id="a_node32"><a xlink:title="MSIGMA&#10;FRML &lt;MATRIX&gt; MSIGMA &#160;= MATRIX( [[0.01573635,0.01436816,	0.01045556],&#10; &#160;&#160;&#160;&#160;&#160;&#160;&#160;&#160;&#160;&#160;&#160;&#160;&#160;&#160;&#160;&#160;&#160;&#160;&#160;&#160;&#160;&#160;&#160;&#160;&#160;&#160;&#160;&#160;&#160;&#160;&#160;&#160;[0.01436816,0.02289016,	0.01172995],&#10; &#160;&#160;&#160;&#160;&#160;&#160;&#160;&#160;&#160;&#160;&#160;&#160;&#160;&#160;&#160;&#160;&#160;&#160;&#160;&#160;&#160;&#160;&#160;&#160;&#160;&#160;&#160;&#160;&#160;&#160;&#160;&#160;[0.01045556,0.01172995,	0.01748076]] &#160;) $">
<polygon fill="#63b8ff" stroke="black" points="332.5,-167 259.5,-167 259.5,-131 332.5,-131 332.5,-167"/>
<text text-anchor="start" x="266" y="-144.8" font-family="Times New Roman,serif" font-size="14.00" fill="blue">MSIGMA:</text>
</a>
</g>
</g>
<!-- MSIGMA&#45;&gt;RISK -->
<g id="edge15" class="edge">
<title>MSIGMA&#45;&gt;RISK</title>
<g id="a_edge15"><a xlink:href="bogus" xlink:title="NA">
<path fill="none" stroke="black" stroke-width="0.5" d="M332.8,-153.39C396.98,-161.25 530.92,-177.67 595.35,-185.57"/>
<polygon fill="black" stroke="black" stroke-width="0.5" points="595.09,-189.06 605.44,-186.81 595.94,-182.12 595.09,-189.06"/>
</a>
</g>
</g>
<!-- MSIGMA&#45;&gt;POSITIONS -->
<g id="edge1" class="edge">
<title>MSIGMA&#45;&gt;POSITIONS</title>
<g id="a_edge1"><a xlink:href="bogus" xlink:title="NA">
<path fill="none" stroke="black" stroke-width="0.5" d="M332.87,-154.04C347.46,-157.82 363.35,-164.43 374,-176 444.89,-252.96 452.63,-386.58 452.38,-444.67"/>
<polygon fill="black" stroke="black" stroke-width="0.5" points="448.88,-444.88 452.25,-454.93 455.88,-444.97 448.88,-444.88"/>
</a>
</g>
</g>
<!-- LCR_WEIGHT_USD -->
<g id="node33" class="node">
<title>LCR_WEIGHT_USD</title>
<g id="a_node33"><a xlink:title="LCR_WEIGHT_USD&#10;Exogen">
<polygon fill="yellow" stroke="black" points="159.5,-59 22.5,-59 22.5,-23 159.5,-23 159.5,-59"/>
<text text-anchor="start" x="29" y="-36.8" font-family="Times New Roman,serif" font-size="14.00" fill="blue">LCR_WEIGHT_USD:</text>
</a>
</g>
</g>
<!-- LCR_WEIGHT_USD&#45;&gt;LCR_WEIGHTS -->
<g id="edge10" class="edge">
<title>LCR_WEIGHT_USD&#45;&gt;LCR_WEIGHTS</title>
<g id="a_edge10"><a xlink:href="bogus" xlink:title="NA">
<path fill="none" stroke="black" stroke-width="0.5" d="M159.87,-53.45C168.02,-57.12 175.68,-61.87 182,-68 218.31,-103.23 182.5,-139.95 218,-176 221.91,-179.97 226.44,-183.37 231.31,-186.26"/>
<polygon fill="black" stroke="black" stroke-width="0.5" points="229.88,-189.46 240.37,-190.94 233.1,-183.24 229.88,-189.46"/>
</a>
</g>
</g>
<!-- RISK_WEIGHT_EUR -->
<g id="node34" class="node">
<title>RISK_WEIGHT_EUR</title>
<g id="a_node34"><a xlink:title="RISK_WEIGHT_EUR&#10;Exogen">
<polygon fill="yellow" stroke="black" points="162,-545 20,-545 20,-509 162,-509 162,-545"/>
<text text-anchor="start" x="26" y="-522.8" font-family="Times New Roman,serif" font-size="14.00" fill="blue">RISK_WEIGHT_EUR:</text>
</a>
</g>
</g>
<!-- RISK_WEIGHT_EUR&#45;&gt;RISK_WEIGHTS -->
<g id="edge5" class="edge">
<title>RISK_WEIGHT_EUR&#45;&gt;RISK_WEIGHTS</title>
<g id="a_edge5"><a xlink:href="bogus" xlink:title="NA">
<path fill="none" stroke="black" stroke-width="0.5" d="M162.15,-542.69C169.2,-545.8 175.97,-549.54 182,-554 205.19,-571.16 195.21,-590.31 218,-608 221.4,-610.64 225.08,-613.03 228.92,-615.2"/>
<polygon fill="black" stroke="black" stroke-width="0.5" points="227.62,-618.46 238.12,-619.86 230.78,-612.22 227.62,-618.46"/>
</a>
</g>
</g>
<!-- LEVERAGE_WEIGHT_EUR -->
<g id="node36" class="node">
<title>LEVERAGE_WEIGHT_EUR</title>
<g id="a_node36"><a xlink:title="LEVERAGE_WEIGHT_EUR&#10;Exogen">
<polygon fill="yellow" stroke="black" points="182,-707 0,-707 0,-671 182,-671 182,-707"/>
<text text-anchor="start" x="6" y="-684.8" font-family="Times New Roman,serif" font-size="14.00" fill="blue">LEVERAGE_WEIGHT_EUR:</text>
</a>
</g>
</g>
<!-- LEVERAGE_WEIGHT_EUR&#45;&gt;LEVERAGE_WEIGHTS -->
<g id="edge33" class="edge">
<title>LEVERAGE_WEIGHT_EUR&#45;&gt;LEVERAGE_WEIGHTS</title>
<g id="a_edge33"><a xlink:href="bogus" xlink:title="NA">
<path fill="none" stroke="black" stroke-width="0.5" d="M182.22,-689C190.65,-689 199.19,-689 207.59,-689"/>
<polygon fill="black" stroke="black" stroke-width="0.5" points="207.77,-692.5 217.77,-689 207.77,-685.5 207.77,-692.5"/>
</a>
</g>
</g>
</g>
</svg>
