<?xml version="1.0" encoding="UTF-8" standalone="no"?>
<!DOCTYPE svg PUBLIC "-//W3C//DTD SVG 1.1//EN"
 "http://www.w3.org/Graphics/SVG/1.1/DTD/svg11.dtd">
<!-- Generated by graphviz version 6.0.1 (0)
 -->
<!-- Title: TD Pages: 1 -->
<svg width="366pt" height="432pt"
 viewBox="0.00 0.00 365.50 432.00" xmlns="http://www.w3.org/2000/svg" xmlns:xlink="http://www.w3.org/1999/xlink">
<g id="graph0" class="graph" transform="scale(0.492588 0.492588) rotate(0) translate(4 873)">
<title>TD</title>
<polygon fill="white" stroke="none" points="-4,4 -4,-873 738,-873 738,4 -4,4"/>
<text text-anchor="middle" x="367" y="-7.8" font-family="Times New Roman,serif" font-size="14.00">A_model_graph</text>
<!-- POSITION_EUR -->
<g id="node1" class="node">
<title>POSITION_EUR</title>
<g id="a_node1"><a xlink:title="POSITION_EUR&#10;FRML XX &#160;&#160;&#160;&#160;&#160;POSITION_USD,POSITION_JPY,POSITION_EUR = POSITIONS $">
<polygon fill="#63b8ff" stroke="black" points="688.5,-410 576.5,-410 576.5,-374 688.5,-374 688.5,-410"/>
<text text-anchor="start" x="582.5" y="-387.8" font-family="Times New Roman,serif" font-size="14.00" fill="blue">POSITION_EUR:</text>
</a>
</g>
</g>
<!-- LEVERAGE_WEIGHTED_SUM -->
<g id="node2" class="node">
<title>LEVERAGE_WEIGHTED_SUM</title>
<g id="a_node2"><a xlink:title="LEVERAGE_WEIGHTED_SUM&#10;FRML XX &#160;&#160;&#160;&#160;&#160;LEVERAGE_WEIGHTED_SUM = (LEVERAGE_WEIGHTS.TRANS() * POSITIONS)[0,0] $">
<polygon fill="#63b8ff" stroke="black" points="734,-194 531,-194 531,-158 734,-158 734,-194"/>
<text text-anchor="start" x="537.5" y="-171.8" font-family="Times New Roman,serif" font-size="14.00" fill="blue">LEVERAGE_WEIGHTED_SUM:</text>
</a>
</g>
</g>
<!-- MIN_EUR -->
<g id="node3" class="node">
<title>MIN_EUR</title>
<g id="a_node3"><a xlink:title="MIN_EUR&#10;Exogen">
<polygon fill="yellow" stroke="black" points="129.5,-707 52.5,-707 52.5,-671 129.5,-671 129.5,-707"/>
<text text-anchor="start" x="59" y="-684.8" font-family="Times New Roman,serif" font-size="14.00" fill="blue">MIN_EUR:</text>
</a>
</g>
</g>
<!-- MIN_W -->
<g id="node6" class="node">
<title>MIN_W</title>
<g id="a_node6"><a xlink:title="MIN_W&#10;FRML &lt;MATRIX&gt; MIN_W &#160;&#160;&#160;&#160;&#160;&#160;&#160;&#160;&#160;&#160;&#160;&#160;= MATRIX(&#10;[MIN_USD,MIN_JPY,MIN_EUR]) &#160;&#160;&#160;&#160;&#160;&#160;$">
<polygon fill="#63b8ff" stroke="black" points="327.5,-680 264.5,-680 264.5,-644 327.5,-644 327.5,-680"/>
<text text-anchor="start" x="271" y="-657.8" font-family="Times New Roman,serif" font-size="14.00" fill="blue">MIN_W:</text>
</a>
</g>
</g>
<!-- MIN_EUR&#45;&gt;MIN_W -->
<g id="edge1" class="edge">
<title>MIN_EUR&#45;&gt;MIN_W</title>
<g id="a_edge1"><a xlink:href="bogus" xlink:title="NA">
<path fill="none" stroke="black" stroke-width="0.5" d="M129.71,-683.98C165.08,-679.28 217.85,-672.26 254.2,-667.43"/>
<polygon fill="black" stroke="black" stroke-width="0.5" points="255,-670.85 264.45,-666.06 254.08,-663.91 255,-670.85"/>
</a>
</g>
</g>
<!-- MAX_USD -->
<g id="node4" class="node">
<title>MAX_USD</title>
<g id="a_node4"><a xlink:title="MAX_USD&#10;Exogen">
<polygon fill="yellow" stroke="black" points="132,-491 50,-491 50,-455 132,-455 132,-491"/>
<text text-anchor="start" x="56" y="-468.8" font-family="Times New Roman,serif" font-size="14.00" fill="blue">MAX_USD:</text>
</a>
</g>
</g>
<!-- MAX_W -->
<g id="node20" class="node">
<title>MAX_W</title>
<g id="a_node20"><a xlink:title="MAX_W&#10;FRML &lt;MATRIX&gt; MAX_W &#160;&#160;&#160;&#160;&#160;&#160;&#160;&#160;&#160;&#160;&#160;&#160;= MATRIX(&#10;[MAX_USD,MAX_JPY,MAX_EUR]) &#160;&#160;&#160;&#160;&#160;$">
<polygon fill="#63b8ff" stroke="black" points="330,-410 262,-410 262,-374 330,-374 330,-410"/>
<text text-anchor="start" x="268" y="-387.8" font-family="Times New Roman,serif" font-size="14.00" fill="blue">MAX_W:</text>
</a>
</g>
</g>
<!-- MAX_USD&#45;&gt;MAX_W -->
<g id="edge23" class="edge">
<title>MAX_USD&#45;&gt;MAX_W</title>
<g id="a_edge23"><a xlink:href="bogus" xlink:title="NA">
<path fill="none" stroke="black" stroke-width="0.5" d="M132.14,-464.2C148.14,-459.87 166.42,-453.87 182,-446 199.85,-436.99 200.36,-428.42 218,-419 228.63,-413.32 240.7,-408.44 252.08,-404.45"/>
<polygon fill="black" stroke="black" stroke-width="0.5" points="253.48,-407.67 261.85,-401.17 251.25,-401.03 253.48,-407.67"/>
</a>
</g>
</g>
<!-- RISKAVERSION -->
<g id="node5" class="node">
<title>RISKAVERSION</title>
<g id="a_node5"><a xlink:title="RISKAVERSION&#10;Exogen">
<polygon fill="yellow" stroke="black" points="353,-734 239,-734 239,-698 353,-698 353,-734"/>
<text text-anchor="start" x="245" y="-711.8" font-family="Times New Roman,serif" font-size="14.00" fill="blue">RISKAVERSION:</text>
</a>
</g>
</g>
<!-- POSITIONS -->
<g id="node15" class="node">
<title>POSITIONS</title>
<g id="a_node15"><a xlink:title="POSITIONS&#10;FRML &lt;MATRIX&gt; POSITIONS &#160;&#160;&#160;&#160;&#160;&#160;&#160;&#160;&#160;= &#160;MV_OPT(MSIGMA,VRETURN,RISKAVERSION, TOTAL,&#10; &#160;&#160;&#160;&#160;&#160;&#160;&#160;&#160;&#160;&#160;&#160;&#160;&#160;&#160;&#160;&#160;&#160;&#160;&#160;&#160;&#160;[[RISK_WEIGHTS] , [&#45;LCR_WEIGHTS] , [LEVERAGE_WEIGHTS]],&#10; &#160;&#160;&#160;&#160;&#160;&#160;&#160;&#160;&#160;&#160;&#160;&#160;&#160;&#160;&#160;&#160;&#160;&#160;&#160;&#160;&#160;&#160;&#160;&#160;&#160;&#160;&#160;&#160;&#160;&#160;&#160;&#160;&#160;&#160;&#160;&#160;&#160;&#160;[CAPITAL, &#45;LCR , EQUITY] ,MIN_W,MAX_W) $">
<polygon fill="#63b8ff" stroke="black" points="495,-437 410,-437 410,-401 495,-401 495,-437"/>
<text text-anchor="start" x="416.5" y="-414.8" font-family="Times New Roman,serif" font-size="14.00" fill="blue">POSITIONS:</text>
</a>
</g>
</g>
<!-- RISKAVERSION&#45;&gt;POSITIONS -->
<g id="edge30" class="edge">
<title>RISKAVERSION&#45;&gt;POSITIONS</title>
<g id="a_edge30"><a xlink:href="bogus" xlink:title="NA">
<path fill="none" stroke="black" stroke-width="0.5" d="M353.03,-703.62C360.84,-699.95 368.17,-695.18 374,-689 438.67,-620.49 449.87,-501.62 451.47,-447.41"/>
<polygon fill="black" stroke="black" stroke-width="0.5" points="454.98,-447.24 451.68,-437.17 447.98,-447.09 454.98,-447.24"/>
</a>
</g>
</g>
<!-- MIN_W&#45;&gt;POSITIONS -->
<g id="edge4" class="edge">
<title>MIN_W&#45;&gt;POSITIONS</title>
<g id="a_edge4"><a xlink:href="bogus" xlink:title="NA">
<path fill="none" stroke="black" stroke-width="0.5" d="M327.74,-657.65C343.38,-653.99 361.63,-647.28 374,-635 426.48,-582.9 443.6,-492.79 449.05,-447.19"/>
<polygon fill="black" stroke="black" stroke-width="0.5" points="452.54,-447.44 450.14,-437.12 445.58,-446.68 452.54,-447.44"/>
</a>
</g>
</g>
<!-- EQUITY -->
<g id="node7" class="node">
<title>EQUITY</title>
<g id="a_node7"><a xlink:title="EQUITY&#10;Exogen">
<polygon fill="yellow" stroke="black" points="329,-572 263,-572 263,-536 329,-536 329,-572"/>
<text text-anchor="start" x="269" y="-549.8" font-family="Times New Roman,serif" font-size="14.00" fill="blue">EQUITY:</text>
</a>
</g>
</g>
<!-- EQUITY&#45;&gt;POSITIONS -->
<g id="edge5" class="edge">
<title>EQUITY&#45;&gt;POSITIONS</title>
<g id="a_edge5"><a xlink:href="bogus" xlink:title="NA">
<path fill="none" stroke="black" stroke-width="0.5" d="M329.1,-547.45C343.8,-543.32 360.85,-536.85 374,-527 402.54,-505.63 424.86,-470.72 438.07,-446.39"/>
<polygon fill="black" stroke="black" stroke-width="0.5" points="441.28,-447.8 442.84,-437.32 435.09,-444.54 441.28,-447.8"/>
</a>
</g>
</g>
<!-- MIN_JPY -->
<g id="node8" class="node">
<title>MIN_JPY</title>
<g id="a_node8"><a xlink:title="MIN_JPY&#10;Exogen">
<polygon fill="yellow" stroke="black" points="127,-653 55,-653 55,-617 127,-617 127,-653"/>
<text text-anchor="start" x="61" y="-630.8" font-family="Times New Roman,serif" font-size="14.00" fill="blue">MIN_JPY:</text>
</a>
</g>
</g>
<!-- MIN_JPY&#45;&gt;MIN_W -->
<g id="edge8" class="edge">
<title>MIN_JPY&#45;&gt;MIN_W</title>
<g id="a_edge8"><a xlink:href="bogus" xlink:title="NA">
<path fill="none" stroke="black" stroke-width="0.5" d="M127.36,-639.7C162.77,-644.41 217.19,-651.65 254.36,-656.59"/>
<polygon fill="black" stroke="black" stroke-width="0.5" points="253.98,-660.07 264.35,-657.92 254.9,-653.14 253.98,-660.07"/>
</a>
</g>
</g>
<!-- RISK_WEIGHTED_SUM -->
<g id="node9" class="node">
<title>RISK_WEIGHTED_SUM</title>
<g id="a_node9"><a xlink:title="RISK_WEIGHTED_SUM&#10;FRML XX &#160;&#160;&#160;&#160;&#160;RISK_WEIGHTED_SUM &#160;&#160;&#160;&#160;= (RISK_WEIGHTS.TRANS() * POSITIONS)[0,0] $">
<polygon fill="#63b8ff" stroke="black" points="714,-680 551,-680 551,-644 714,-644 714,-680"/>
<text text-anchor="start" x="557.5" y="-657.8" font-family="Times New Roman,serif" font-size="14.00" fill="blue">RISK_WEIGHTED_SUM:</text>
</a>
</g>
</g>
<!-- RISK_WEIGHTS -->
<g id="node10" class="node">
<title>RISK_WEIGHTS</title>
<g id="a_node10"><a xlink:title="RISK_WEIGHTS&#10;FRML &lt;MATRIX&gt; RISK_WEIGHTS &#160;&#160;&#160;&#160;&#160;= MATRIX(&#10;[RISK_WEIGHT_USD,RISK_WEIGHT_JPY,RISK_WEIGHT_EUR]) $">
<polygon fill="#63b8ff" stroke="black" points="353.5,-788 238.5,-788 238.5,-752 353.5,-752 353.5,-788"/>
<text text-anchor="start" x="245" y="-765.8" font-family="Times New Roman,serif" font-size="14.00" fill="blue">RISK_WEIGHTS:</text>
</a>
</g>
</g>
<!-- RISK_WEIGHTS&#45;&gt;RISK_WEIGHTED_SUM -->
<g id="edge35" class="edge">
<title>RISK_WEIGHTS&#45;&gt;RISK_WEIGHTED_SUM</title>
<g id="a_edge35"><a xlink:href="bogus" xlink:title="NA">
<path fill="none" stroke="black" stroke-width="0.5" d="M352.99,-751.92C411.69,-732.97 503.85,-703.21 565.92,-683.18"/>
<polygon fill="black" stroke="black" stroke-width="0.5" points="567.17,-686.45 575.61,-680.05 565.02,-679.79 567.17,-686.45"/>
</a>
</g>
</g>
<!-- RISK_WEIGHTS&#45;&gt;POSITIONS -->
<g id="edge11" class="edge">
<title>RISK_WEIGHTS&#45;&gt;POSITIONS</title>
<g id="a_edge11"><a xlink:href="bogus" xlink:title="NA">
<path fill="none" stroke="black" stroke-width="0.5" d="M353.67,-757.66C361.29,-753.98 368.4,-749.2 374,-743 413.71,-698.99 439.52,-517.74 448.22,-447.24"/>
<polygon fill="black" stroke="black" stroke-width="0.5" points="451.7,-447.64 449.43,-437.29 444.75,-446.79 451.7,-447.64"/>
</a>
</g>
</g>
<!-- LEVERAGE_WEIGHT_JPY -->
<g id="node11" class="node">
<title>LEVERAGE_WEIGHT_JPY</title>
<g id="a_node11"><a xlink:title="LEVERAGE_WEIGHT_JPY&#10;Exogen">
<polygon fill="yellow" stroke="black" points="179.5,-167 2.5,-167 2.5,-131 179.5,-131 179.5,-167"/>
<text text-anchor="start" x="9" y="-144.8" font-family="Times New Roman,serif" font-size="14.00" fill="blue">LEVERAGE_WEIGHT_JPY:</text>
</a>
</g>
</g>
<!-- LEVERAGE_WEIGHTS -->
<g id="node34" class="node">
<title>LEVERAGE_WEIGHTS</title>
<g id="a_node34"><a xlink:title="LEVERAGE_WEIGHTS&#10;FRML &lt;MATRIX&gt; LEVERAGE_WEIGHTS &#160;= MATRIX(&#10;[LEVERAGE_WEIGHT_USD,LEVERAGE_WEIGHT_JPY,LEVERAGE_WEIGHT_EUR]) $">
<polygon fill="#63b8ff" stroke="black" points="374,-167 218,-167 218,-131 374,-131 374,-167"/>
<text text-anchor="start" x="224" y="-144.8" font-family="Times New Roman,serif" font-size="14.00" fill="blue">LEVERAGE_WEIGHTS:</text>
</a>
</g>
</g>
<!-- LEVERAGE_WEIGHT_JPY&#45;&gt;LEVERAGE_WEIGHTS -->
<g id="edge37" class="edge">
<title>LEVERAGE_WEIGHT_JPY&#45;&gt;LEVERAGE_WEIGHTS</title>
<g id="a_edge37"><a xlink:href="bogus" xlink:title="NA">
<path fill="none" stroke="black" stroke-width="0.5" d="M179.56,-149C188.94,-149 198.48,-149 207.85,-149"/>
<polygon fill="black" stroke="black" stroke-width="0.5" points="207.94,-152.5 217.94,-149 207.94,-145.5 207.94,-152.5"/>
</a>
</g>
</g>
<!-- CAPITAL -->
<g id="node12" class="node">
<title>CAPITAL</title>
<g id="a_node12"><a xlink:title="CAPITAL&#10;Exogen">
<polygon fill="yellow" stroke="black" points="332.5,-518 259.5,-518 259.5,-482 332.5,-482 332.5,-518"/>
<text text-anchor="start" x="266" y="-495.8" font-family="Times New Roman,serif" font-size="14.00" fill="blue">CAPITAL:</text>
</a>
</g>
</g>
<!-- CAPITAL&#45;&gt;POSITIONS -->
<g id="edge15" class="edge">
<title>CAPITAL&#45;&gt;POSITIONS</title>
<g id="a_edge15"><a xlink:href="bogus" xlink:title="NA">
<path fill="none" stroke="black" stroke-width="0.5" d="M332.72,-489.72C346.01,-485.31 361.01,-479.65 374,-473 390.32,-464.65 407.17,-453.29 420.97,-443.15"/>
<polygon fill="black" stroke="black" stroke-width="0.5" points="423.23,-445.83 429.13,-437.03 419.03,-440.23 423.23,-445.83"/>
</a>
</g>
</g>
<!-- LEVERAGE_WEIGHT_EUR -->
<g id="node13" class="node">
<title>LEVERAGE_WEIGHT_EUR</title>
<g id="a_node13"><a xlink:title="LEVERAGE_WEIGHT_EUR&#10;Exogen">
<polygon fill="yellow" stroke="black" points="182,-113 0,-113 0,-77 182,-77 182,-113"/>
<text text-anchor="start" x="6" y="-90.8" font-family="Times New Roman,serif" font-size="14.00" fill="blue">LEVERAGE_WEIGHT_EUR:</text>
</a>
</g>
</g>
<!-- LEVERAGE_WEIGHT_EUR&#45;&gt;LEVERAGE_WEIGHTS -->
<g id="edge33" class="edge">
<title>LEVERAGE_WEIGHT_EUR&#45;&gt;LEVERAGE_WEIGHTS</title>
<g id="a_edge33"><a xlink:href="bogus" xlink:title="NA">
<path fill="none" stroke="black" stroke-width="0.5" d="M159.88,-113.06C178.33,-117.96 198.45,-123.32 217.4,-128.36"/>
<polygon fill="black" stroke="black" stroke-width="0.5" points="216.62,-131.77 227.19,-130.96 218.42,-125.01 216.62,-131.77"/>
</a>
</g>
</g>
<!-- MSIGMA -->
<g id="node14" class="node">
<title>MSIGMA</title>
<g id="a_node14"><a xlink:title="MSIGMA&#10;FRML &lt;MATRIX&gt; MSIGMA &#160;= MATRIX( [[0.01573635,0.01436816,	0.01045556],&#10; &#160;&#160;&#160;&#160;&#160;&#160;&#160;&#160;&#160;&#160;&#160;&#160;&#160;&#160;&#160;&#160;&#160;&#160;&#160;&#160;&#160;&#160;&#160;&#160;&#160;&#160;&#160;&#160;&#160;&#160;&#160;&#160;[0.01436816,0.02289016,	0.01172995],&#10; &#160;&#160;&#160;&#160;&#160;&#160;&#160;&#160;&#160;&#160;&#160;&#160;&#160;&#160;&#160;&#160;&#160;&#160;&#160;&#160;&#160;&#160;&#160;&#160;&#160;&#160;&#160;&#160;&#160;&#160;&#160;&#160;[0.01045556,0.01172995,	0.01748076]] &#160;) $">
<polygon fill="#63b8ff" stroke="black" points="332.5,-356 259.5,-356 259.5,-320 332.5,-320 332.5,-356"/>
<text text-anchor="start" x="266" y="-333.8" font-family="Times New Roman,serif" font-size="14.00" fill="blue">MSIGMA:</text>
</a>
</g>
</g>
<!-- MSIGMA&#45;&gt;POSITIONS -->
<g id="edge28" class="edge">
<title>MSIGMA&#45;&gt;POSITIONS</title>
<g id="a_edge28"><a xlink:href="bogus" xlink:title="NA">
<path fill="none" stroke="black" stroke-width="0.5" d="M332.72,-348.28C346.01,-352.69 361.01,-358.35 374,-365 390.32,-373.35 407.17,-384.71 420.97,-394.85"/>
<polygon fill="black" stroke="black" stroke-width="0.5" points="419.03,-397.77 429.13,-400.97 423.23,-392.17 419.03,-397.77"/>
</a>
</g>
</g>
<!-- RISK -->
<g id="node31" class="node">
<title>RISK</title>
<g id="a_node31"><a xlink:title="RISK&#10;FRML XX &#160;&#160;&#160;&#160;&#160;RISK &#160;&#160;&#160;&#160;&#160;&#160;&#160;&#160;&#160;&#160;&#160;&#160;&#160;&#160;= &#160;(POSITIONS.TRANS() * MSIGMA * POSITIONS)[0,0]$">
<polygon fill="#63b8ff" stroke="black" points="659.5,-356 605.5,-356 605.5,-320 659.5,-320 659.5,-356"/>
<text text-anchor="start" x="615.5" y="-333.8" font-family="Times New Roman,serif" font-size="14.00" fill="blue">RISK:</text>
</a>
</g>
</g>
<!-- MSIGMA&#45;&gt;RISK -->
<g id="edge13" class="edge">
<title>MSIGMA&#45;&gt;RISK</title>
<g id="a_edge13"><a xlink:href="bogus" xlink:title="NA">
<path fill="none" stroke="black" stroke-width="0.5" d="M332.8,-338C396.98,-338 530.92,-338 595.35,-338"/>
<polygon fill="black" stroke="black" stroke-width="0.5" points="595.44,-341.5 605.44,-338 595.44,-334.5 595.44,-341.5"/>
</a>
</g>
</g>
<!-- POSITIONS&#45;&gt;POSITION_EUR -->
<g id="edge16" class="edge">
<title>POSITIONS&#45;&gt;POSITION_EUR</title>
<g id="a_edge16"><a xlink:href="bogus" xlink:title="NA">
<path fill="none" stroke="black" stroke-width="0.5" d="M495.23,-412.67C516.36,-409.46 542.5,-405.5 566.21,-401.9"/>
<polygon fill="black" stroke="black" stroke-width="0.5" points="566.84,-405.35 576.21,-400.39 565.79,-398.43 566.84,-405.35"/>
</a>
</g>
</g>
<!-- POSITIONS&#45;&gt;LEVERAGE_WEIGHTED_SUM -->
<g id="edge25" class="edge">
<title>POSITIONS&#45;&gt;LEVERAGE_WEIGHTED_SUM</title>
<g id="a_edge25"><a xlink:href="bogus" xlink:title="NA">
<path fill="none" stroke="black" stroke-width="0.5" d="M454.54,-400.89C457.92,-359.47 472.1,-257.26 531,-203 532.12,-201.97 533.28,-200.97 534.47,-200.02"/>
<polygon fill="black" stroke="black" stroke-width="0.5" points="536.55,-202.83 542.73,-194.23 532.53,-197.1 536.55,-202.83"/>
</a>
</g>
</g>
<!-- POSITIONS&#45;&gt;RISK_WEIGHTED_SUM -->
<g id="edge2" class="edge">
<title>POSITIONS&#45;&gt;RISK_WEIGHTED_SUM</title>
<g id="a_edge2"><a xlink:href="bogus" xlink:title="NA">
<path fill="none" stroke="black" stroke-width="0.5" d="M466.29,-437.03C481.58,-458.53 507.98,-495.51 531,-527 558.69,-564.89 591.2,-608.38 611.58,-635.52"/>
<polygon fill="black" stroke="black" stroke-width="0.5" points="608.94,-637.84 617.74,-643.73 614.54,-633.64 608.94,-637.84"/>
</a>
</g>
</g>
<!-- POSITION_JPY -->
<g id="node17" class="node">
<title>POSITION_JPY</title>
<g id="a_node17"><a xlink:title="POSITION_JPY&#10;FRML XX &#160;&#160;&#160;&#160;&#160;POSITION_USD,POSITION_JPY,POSITION_EUR = POSITIONS $">
<polygon fill="#63b8ff" stroke="black" points="685.5,-518 579.5,-518 579.5,-482 685.5,-482 685.5,-518"/>
<text text-anchor="start" x="585.5" y="-495.8" font-family="Times New Roman,serif" font-size="14.00" fill="blue">POSITION_JPY:</text>
</a>
</g>
</g>
<!-- POSITIONS&#45;&gt;POSITION_JPY -->
<g id="edge38" class="edge">
<title>POSITIONS&#45;&gt;POSITION_JPY</title>
<g id="a_edge38"><a xlink:href="bogus" xlink:title="NA">
<path fill="none" stroke="black" stroke-width="0.5" d="M474.97,-437.01C489.87,-448.72 510.63,-463.52 531,-473 543.07,-478.62 556.53,-483.24 569.56,-486.97"/>
<polygon fill="black" stroke="black" stroke-width="0.5" points="568.85,-490.41 579.42,-489.66 570.69,-483.65 568.85,-490.41"/>
</a>
</g>
</g>
<!-- POSITION_USD -->
<g id="node21" class="node">
<title>POSITION_USD</title>
<g id="a_node21"><a xlink:title="POSITION_USD&#10;FRML XX &#160;&#160;&#160;&#160;&#160;POSITION_USD,POSITION_JPY,POSITION_EUR = POSITIONS $">
<polygon fill="#63b8ff" stroke="black" points="688.5,-464 576.5,-464 576.5,-428 688.5,-428 688.5,-464"/>
<text text-anchor="start" x="582.5" y="-441.8" font-family="Times New Roman,serif" font-size="14.00" fill="blue">POSITION_USD:</text>
</a>
</g>
</g>
<!-- POSITIONS&#45;&gt;POSITION_USD -->
<g id="edge34" class="edge">
<title>POSITIONS&#45;&gt;POSITION_USD</title>
<g id="a_edge34"><a xlink:href="bogus" xlink:title="NA">
<path fill="none" stroke="black" stroke-width="0.5" d="M495.23,-425.33C516.36,-428.54 542.5,-432.5 566.21,-436.1"/>
<polygon fill="black" stroke="black" stroke-width="0.5" points="565.79,-439.57 576.21,-437.61 566.84,-432.65 565.79,-439.57"/>
</a>
</g>
</g>
<!-- POSITIONS&#45;&gt;RISK -->
<g id="edge6" class="edge">
<title>POSITIONS&#45;&gt;RISK</title>
<g id="a_edge6"><a xlink:href="bogus" xlink:title="NA">
<path fill="none" stroke="black" stroke-width="0.5" d="M474.97,-400.99C489.87,-389.28 510.63,-374.48 531,-365 551.5,-355.46 575.99,-348.79 595.65,-344.47"/>
<polygon fill="black" stroke="black" stroke-width="0.5" points="596.38,-347.9 605.45,-342.42 594.95,-341.04 596.38,-347.9"/>
</a>
</g>
</g>
<!-- RETURN -->
<g id="node32" class="node">
<title>RETURN</title>
<g id="a_node32"><a xlink:title="RETURN&#10;FRML XX &#160;&#160;&#160;&#160;&#160;RETURN &#160;&#160;&#160;&#160;&#160;&#160;&#160;&#160;&#160;&#160;&#160;&#160;= &#160;(POSITIONS.TRANS() * VRETURN &#160;&#160;&#160;&#160;&#160;&#160;&#160;)[0,0] $">
<polygon fill="#63b8ff" stroke="black" points="667.5,-302 597.5,-302 597.5,-266 667.5,-266 667.5,-302"/>
<text text-anchor="start" x="603.5" y="-279.8" font-family="Times New Roman,serif" font-size="14.00" fill="blue">RETURN:</text>
</a>
</g>
</g>
<!-- POSITIONS&#45;&gt;RETURN -->
<g id="edge7" class="edge">
<title>POSITIONS&#45;&gt;RETURN</title>
<g id="a_edge7"><a xlink:href="bogus" xlink:title="NA">
<path fill="none" stroke="black" stroke-width="0.5" d="M461.69,-400.72C473.5,-376.49 497.6,-334.12 531,-311 547.55,-299.55 568.72,-292.95 587.36,-289.15"/>
<polygon fill="black" stroke="black" stroke-width="0.5" points="588.2,-292.56 597.41,-287.31 586.94,-285.67 588.2,-292.56"/>
</a>
</g>
</g>
<!-- LCR_WEIGHTED_SUM -->
<g id="node35" class="node">
<title>LCR_WEIGHTED_SUM</title>
<g id="a_node35"><a xlink:title="LCR_WEIGHTED_SUM&#10;FRML XX &#160;&#160;&#160;&#160;&#160;LCR_WEIGHTED_SUM &#160;&#160;&#160;&#160;&#160;= (LCR_WEIGHTS.TRANS() * POSITIONS)[0,0] $">
<polygon fill="#63b8ff" stroke="black" points="711.5,-248 553.5,-248 553.5,-212 711.5,-212 711.5,-248"/>
<text text-anchor="start" x="559.5" y="-225.8" font-family="Times New Roman,serif" font-size="14.00" fill="blue">LCR_WEIGHTED_SUM:</text>
</a>
</g>
</g>
<!-- POSITIONS&#45;&gt;LCR_WEIGHTED_SUM -->
<g id="edge40" class="edge">
<title>POSITIONS&#45;&gt;LCR_WEIGHTED_SUM</title>
<g id="a_edge40"><a xlink:href="bogus" xlink:title="NA">
<path fill="none" stroke="black" stroke-width="0.5" d="M456.98,-400.86C464.39,-367.26 484.97,-295.27 531,-257 535.06,-253.62 539.51,-250.66 544.2,-248.07"/>
<polygon fill="black" stroke="black" stroke-width="0.5" points="546.04,-251.07 553.48,-243.53 542.96,-244.78 546.04,-251.07"/>
</a>
</g>
</g>
<!-- LCR -->
<g id="node16" class="node">
<title>LCR</title>
<g id="a_node16"><a xlink:title="LCR&#10;Exogen">
<polygon fill="yellow" stroke="black" points="323,-464 269,-464 269,-428 323,-428 323,-464"/>
<text text-anchor="start" x="281" y="-441.8" font-family="Times New Roman,serif" font-size="14.00" fill="blue">LCR:</text>
</a>
</g>
</g>
<!-- LCR&#45;&gt;POSITIONS -->
<g id="edge18" class="edge">
<title>LCR&#45;&gt;POSITIONS</title>
<g id="a_edge18"><a xlink:href="bogus" xlink:title="NA">
<path fill="none" stroke="black" stroke-width="0.5" d="M323.21,-441.42C344.11,-437.77 374.03,-432.54 399.73,-428.05"/>
<polygon fill="black" stroke="black" stroke-width="0.5" points="400.45,-431.47 409.7,-426.3 399.25,-424.58 400.45,-431.47"/>
</a>
</g>
</g>
<!-- VRETURN -->
<g id="node18" class="node">
<title>VRETURN</title>
<g id="a_node18"><a xlink:title="VRETURN&#10;FRML &lt;MATRIX&gt; VRETURN &#160;&#160;&#160;&#160;&#160;&#160;&#160;&#160;= MATRIX([0.048,0.040,0.035]) $">
<polygon fill="#63b8ff" stroke="black" points="336,-302 256,-302 256,-266 336,-266 336,-302"/>
<text text-anchor="start" x="262" y="-279.8" font-family="Times New Roman,serif" font-size="14.00" fill="blue">VRETURN:</text>
</a>
</g>
</g>
<!-- VRETURN&#45;&gt;POSITIONS -->
<g id="edge24" class="edge">
<title>VRETURN&#45;&gt;POSITIONS</title>
<g id="a_edge24"><a xlink:href="bogus" xlink:title="NA">
<path fill="none" stroke="black" stroke-width="0.5" d="M336.09,-292.65C349,-296.77 362.89,-302.68 374,-311 402.54,-332.37 424.86,-367.28 438.07,-391.61"/>
<polygon fill="black" stroke="black" stroke-width="0.5" points="435.09,-393.46 442.84,-400.68 441.28,-390.2 435.09,-393.46"/>
</a>
</g>
</g>
<!-- VRETURN&#45;&gt;RETURN -->
<g id="edge12" class="edge">
<title>VRETURN&#45;&gt;RETURN</title>
<g id="a_edge12"><a xlink:href="bogus" xlink:title="NA">
<path fill="none" stroke="black" stroke-width="0.5" d="M336.03,-284C398.68,-284 521.33,-284 587.19,-284"/>
<polygon fill="black" stroke="black" stroke-width="0.5" points="587.25,-287.5 597.25,-284 587.25,-280.5 587.25,-287.5"/>
</a>
</g>
</g>
<!-- RISK_WEIGHT_USD -->
<g id="node19" class="node">
<title>RISK_WEIGHT_USD</title>
<g id="a_node19"><a xlink:title="RISK_WEIGHT_USD&#10;Exogen">
<polygon fill="yellow" stroke="black" points="162,-869 20,-869 20,-833 162,-833 162,-869"/>
<text text-anchor="start" x="26" y="-846.8" font-family="Times New Roman,serif" font-size="14.00" fill="blue">RISK_WEIGHT_USD:</text>
</a>
</g>
</g>
<!-- RISK_WEIGHT_USD&#45;&gt;RISK_WEIGHTS -->
<g id="edge17" class="edge">
<title>RISK_WEIGHT_USD&#45;&gt;RISK_WEIGHTS</title>
<g id="a_edge17"><a xlink:href="bogus" xlink:title="NA">
<path fill="none" stroke="black" stroke-width="0.5" d="M156.81,-832.87C165.35,-830.1 173.93,-827.12 182,-824 205.39,-814.96 230.64,-803.11 251.33,-792.81"/>
<polygon fill="black" stroke="black" stroke-width="0.5" points="253.13,-795.82 260.49,-788.2 249.98,-789.57 253.13,-795.82"/>
</a>
</g>
</g>
<!-- MAX_W&#45;&gt;POSITIONS -->
<g id="edge3" class="edge">
<title>MAX_W&#45;&gt;POSITIONS</title>
<g id="a_edge3"><a xlink:href="bogus" xlink:title="NA">
<path fill="none" stroke="black" stroke-width="0.5" d="M330.14,-397.79C350.46,-401.34 376.89,-405.96 399.9,-409.98"/>
<polygon fill="black" stroke="black" stroke-width="0.5" points="399.4,-413.45 409.86,-411.72 400.61,-406.55 399.4,-413.45"/>
</a>
</g>
</g>
<!-- LCR_WEIGHT_EUR -->
<g id="node22" class="node">
<title>LCR_WEIGHT_EUR</title>
<g id="a_node22"><a xlink:title="LCR_WEIGHT_EUR&#10;Exogen">
<polygon fill="yellow" stroke="black" points="159.5,-329 22.5,-329 22.5,-293 159.5,-293 159.5,-329"/>
<text text-anchor="start" x="29" y="-306.8" font-family="Times New Roman,serif" font-size="14.00" fill="blue">LCR_WEIGHT_EUR:</text>
</a>
</g>
</g>
<!-- LCR_WEIGHTS -->
<g id="node25" class="node">
<title>LCR_WEIGHTS</title>
<g id="a_node25"><a xlink:title="LCR_WEIGHTS&#10;FRML &lt;MATRIX&gt; LCR_WEIGHTS &#160;&#160;&#160;&#160;&#160;&#160;= MATRIX(&#10;[LCR_WEIGHT_USD,LCR_WEIGHT_JPY,LCR_WEIGHT_EUR]) $">
<polygon fill="#63b8ff" stroke="black" points="351.5,-248 240.5,-248 240.5,-212 351.5,-212 351.5,-248"/>
<text text-anchor="start" x="247" y="-225.8" font-family="Times New Roman,serif" font-size="14.00" fill="blue">LCR_WEIGHTS:</text>
</a>
</g>
</g>
<!-- LCR_WEIGHT_EUR&#45;&gt;LCR_WEIGHTS -->
<g id="edge20" class="edge">
<title>LCR_WEIGHT_EUR&#45;&gt;LCR_WEIGHTS</title>
<g id="a_edge20"><a xlink:href="bogus" xlink:title="NA">
<path fill="none" stroke="black" stroke-width="0.5" d="M159.85,-293.48C167.48,-290.68 175.01,-287.53 182,-284 199.85,-274.99 200.36,-266.42 218,-257 222.16,-254.78 226.53,-252.68 231,-250.71"/>
<polygon fill="black" stroke="black" stroke-width="0.5" points="232.38,-253.93 240.26,-246.85 229.68,-247.47 232.38,-253.93"/>
</a>
</g>
</g>
<!-- LCR_WEIGHT_JPY -->
<g id="node23" class="node">
<title>LCR_WEIGHT_JPY</title>
<g id="a_node23"><a xlink:title="LCR_WEIGHT_JPY&#10;Exogen">
<polygon fill="yellow" stroke="black" points="157,-275 25,-275 25,-239 157,-239 157,-275"/>
<text text-anchor="start" x="31" y="-252.8" font-family="Times New Roman,serif" font-size="14.00" fill="blue">LCR_WEIGHT_JPY:</text>
</a>
</g>
</g>
<!-- LCR_WEIGHT_JPY&#45;&gt;LCR_WEIGHTS -->
<g id="edge22" class="edge">
<title>LCR_WEIGHT_JPY&#45;&gt;LCR_WEIGHTS</title>
<g id="a_edge22"><a xlink:href="bogus" xlink:title="NA">
<path fill="none" stroke="black" stroke-width="0.5" d="M157.07,-248.35C180.4,-245.24 206.7,-241.74 230.03,-238.64"/>
<polygon fill="black" stroke="black" stroke-width="0.5" points="230.72,-242.08 240.17,-237.29 229.8,-235.14 230.72,-242.08"/>
</a>
</g>
</g>
<!-- RISK_WEIGHT_JPY -->
<g id="node24" class="node">
<title>RISK_WEIGHT_JPY</title>
<g id="a_node24"><a xlink:title="RISK_WEIGHT_JPY&#10;Exogen">
<polygon fill="yellow" stroke="black" points="159,-815 23,-815 23,-779 159,-779 159,-815"/>
<text text-anchor="start" x="29" y="-792.8" font-family="Times New Roman,serif" font-size="14.00" fill="blue">RISK_WEIGHT_JPY:</text>
</a>
</g>
</g>
<!-- RISK_WEIGHT_JPY&#45;&gt;RISK_WEIGHTS -->
<g id="edge31" class="edge">
<title>RISK_WEIGHT_JPY&#45;&gt;RISK_WEIGHTS</title>
<g id="a_edge31"><a xlink:href="bogus" xlink:title="NA">
<path fill="none" stroke="black" stroke-width="0.5" d="M159.03,-788.08C181.27,-785.13 206,-781.84 228.22,-778.88"/>
<polygon fill="black" stroke="black" stroke-width="0.5" points="228.78,-782.34 238.23,-777.55 227.85,-775.4 228.78,-782.34"/>
</a>
</g>
</g>
<!-- LCR_WEIGHTS&#45;&gt;POSITIONS -->
<g id="edge21" class="edge">
<title>LCR_WEIGHTS&#45;&gt;POSITIONS</title>
<g id="a_edge21"><a xlink:href="bogus" xlink:title="NA">
<path fill="none" stroke="black" stroke-width="0.5" d="M351.77,-243.09C359.83,-246.68 367.57,-251.23 374,-257 414.46,-293.28 435.75,-355.25 445.22,-391.11"/>
<polygon fill="black" stroke="black" stroke-width="0.5" points="441.85,-392.08 447.69,-400.92 448.64,-390.37 441.85,-392.08"/>
</a>
</g>
</g>
<!-- LCR_WEIGHTS&#45;&gt;LCR_WEIGHTED_SUM -->
<g id="edge39" class="edge">
<title>LCR_WEIGHTS&#45;&gt;LCR_WEIGHTED_SUM</title>
<g id="a_edge39"><a xlink:href="bogus" xlink:title="NA">
<path fill="none" stroke="black" stroke-width="0.5" d="M351.86,-230C403.72,-230 482.42,-230 543.13,-230"/>
<polygon fill="black" stroke="black" stroke-width="0.5" points="543.48,-233.5 553.48,-230 543.48,-226.5 543.48,-233.5"/>
</a>
</g>
</g>
<!-- MIN_USD -->
<g id="node26" class="node">
<title>MIN_USD</title>
<g id="a_node26"><a xlink:title="MIN_USD&#10;Exogen">
<polygon fill="yellow" stroke="black" points="129.5,-599 52.5,-599 52.5,-563 129.5,-563 129.5,-599"/>
<text text-anchor="start" x="59" y="-576.8" font-family="Times New Roman,serif" font-size="14.00" fill="blue">MIN_USD:</text>
</a>
</g>
</g>
<!-- MIN_USD&#45;&gt;MIN_W -->
<g id="edge14" class="edge">
<title>MIN_USD&#45;&gt;MIN_W</title>
<g id="a_edge14"><a xlink:href="bogus" xlink:title="NA">
<path fill="none" stroke="black" stroke-width="0.5" d="M129.91,-589.2C146.42,-593.57 165.69,-599.77 182,-608 199.85,-617.01 200.36,-625.58 218,-635 229.54,-641.16 242.77,-646.39 254.97,-650.56"/>
<polygon fill="black" stroke="black" stroke-width="0.5" points="253.89,-653.88 264.48,-653.67 256.07,-647.23 253.89,-653.88"/>
</a>
</g>
</g>
<!-- RISK_WEIGHT_EUR -->
<g id="node27" class="node">
<title>RISK_WEIGHT_EUR</title>
<g id="a_node27"><a xlink:title="RISK_WEIGHT_EUR&#10;Exogen">
<polygon fill="yellow" stroke="black" points="162,-761 20,-761 20,-725 162,-725 162,-761"/>
<text text-anchor="start" x="26" y="-738.8" font-family="Times New Roman,serif" font-size="14.00" fill="blue">RISK_WEIGHT_EUR:</text>
</a>
</g>
</g>
<!-- RISK_WEIGHT_EUR&#45;&gt;RISK_WEIGHTS -->
<g id="edge19" class="edge">
<title>RISK_WEIGHT_EUR&#45;&gt;RISK_WEIGHTS</title>
<g id="a_edge19"><a xlink:href="bogus" xlink:title="NA">
<path fill="none" stroke="black" stroke-width="0.5" d="M162.15,-752.33C183.52,-755.17 206.94,-758.29 228.1,-761.1"/>
<polygon fill="black" stroke="black" stroke-width="0.5" points="227.9,-764.61 238.28,-762.46 228.83,-757.67 227.9,-764.61"/>
</a>
</g>
</g>
<!-- MAX_EUR -->
<g id="node28" class="node">
<title>MAX_EUR</title>
<g id="a_node28"><a xlink:title="MAX_EUR&#10;Exogen">
<polygon fill="yellow" stroke="black" points="132,-437 50,-437 50,-401 132,-401 132,-437"/>
<text text-anchor="start" x="56" y="-414.8" font-family="Times New Roman,serif" font-size="14.00" fill="blue">MAX_EUR:</text>
</a>
</g>
</g>
<!-- MAX_EUR&#45;&gt;MAX_W -->
<g id="edge32" class="edge">
<title>MAX_EUR&#45;&gt;MAX_W</title>
<g id="a_edge32"><a xlink:href="bogus" xlink:title="NA">
<path fill="none" stroke="black" stroke-width="0.5" d="M132.11,-413.67C166.6,-409.08 216.25,-402.47 251.65,-397.77"/>
<polygon fill="black" stroke="black" stroke-width="0.5" points="252.24,-401.22 261.69,-396.43 251.32,-394.28 252.24,-401.22"/>
</a>
</g>
</g>
<!-- LCR_WEIGHT_USD -->
<g id="node29" class="node">
<title>LCR_WEIGHT_USD</title>
<g id="a_node29"><a xlink:title="LCR_WEIGHT_USD&#10;Exogen">
<polygon fill="yellow" stroke="black" points="159.5,-221 22.5,-221 22.5,-185 159.5,-185 159.5,-221"/>
<text text-anchor="start" x="29" y="-198.8" font-family="Times New Roman,serif" font-size="14.00" fill="blue">LCR_WEIGHT_USD:</text>
</a>
</g>
</g>
<!-- LCR_WEIGHT_USD&#45;&gt;LCR_WEIGHTS -->
<g id="edge10" class="edge">
<title>LCR_WEIGHT_USD&#45;&gt;LCR_WEIGHTS</title>
<g id="a_edge10"><a xlink:href="bogus" xlink:title="NA">
<path fill="none" stroke="black" stroke-width="0.5" d="M159.6,-211.99C182.3,-215.01 207.56,-218.37 230.06,-221.36"/>
<polygon fill="black" stroke="black" stroke-width="0.5" points="229.81,-224.86 240.18,-222.71 230.73,-217.92 229.81,-224.86"/>
</a>
</g>
</g>
<!-- LEVERAGE_WEIGHT_USD -->
<g id="node30" class="node">
<title>LEVERAGE_WEIGHT_USD</title>
<g id="a_node30"><a xlink:title="LEVERAGE_WEIGHT_USD&#10;Exogen">
<polygon fill="yellow" stroke="black" points="182,-59 0,-59 0,-23 182,-23 182,-59"/>
<text text-anchor="start" x="6" y="-36.8" font-family="Times New Roman,serif" font-size="14.00" fill="blue">LEVERAGE_WEIGHT_USD:</text>
</a>
</g>
</g>
<!-- LEVERAGE_WEIGHT_USD&#45;&gt;LEVERAGE_WEIGHTS -->
<g id="edge36" class="edge">
<title>LEVERAGE_WEIGHT_USD&#45;&gt;LEVERAGE_WEIGHTS</title>
<g id="a_edge36"><a xlink:href="bogus" xlink:title="NA">
<path fill="none" stroke="black" stroke-width="0.5" d="M160.73,-59.02C168.04,-61.7 175.27,-64.69 182,-68 212.93,-83.2 244.5,-106.63 266.38,-124.39"/>
<polygon fill="black" stroke="black" stroke-width="0.5" points="264.33,-127.24 274.28,-130.89 268.78,-121.84 264.33,-127.24"/>
</a>
</g>
</g>
<!-- MAX_JPY -->
<g id="node33" class="node">
<title>MAX_JPY</title>
<g id="a_node33"><a xlink:title="MAX_JPY&#10;Exogen">
<polygon fill="yellow" stroke="black" points="129.5,-383 52.5,-383 52.5,-347 129.5,-347 129.5,-383"/>
<text text-anchor="start" x="59" y="-360.8" font-family="Times New Roman,serif" font-size="14.00" fill="blue">MAX_JPY:</text>
</a>
</g>
</g>
<!-- MAX_JPY&#45;&gt;MAX_W -->
<g id="edge9" class="edge">
<title>MAX_JPY&#45;&gt;MAX_W</title>
<g id="a_edge9"><a xlink:href="bogus" xlink:title="NA">
<path fill="none" stroke="black" stroke-width="0.5" d="M129.71,-370.02C164.25,-374.61 215.37,-381.41 251.6,-386.23"/>
<polygon fill="black" stroke="black" stroke-width="0.5" points="251.49,-389.74 261.86,-387.59 252.41,-382.8 251.49,-389.74"/>
</a>
</g>
</g>
<!-- LEVERAGE_WEIGHTS&#45;&gt;LEVERAGE_WEIGHTED_SUM -->
<g id="edge29" class="edge">
<title>LEVERAGE_WEIGHTS&#45;&gt;LEVERAGE_WEIGHTED_SUM</title>
<g id="a_edge29"><a xlink:href="bogus" xlink:title="NA">
<path fill="none" stroke="black" stroke-width="0.5" d="M374.16,-155.23C417.66,-158.74 472.75,-163.19 520.79,-167.06"/>
<polygon fill="black" stroke="black" stroke-width="0.5" points="520.68,-170.57 530.93,-167.88 521.24,-163.59 520.68,-170.57"/>
</a>
</g>
</g>
<!-- LEVERAGE_WEIGHTS&#45;&gt;POSITIONS -->
<g id="edge26" class="edge">
<title>LEVERAGE_WEIGHTS&#45;&gt;POSITIONS</title>
<g id="a_edge26"><a xlink:href="bogus" xlink:title="NA">
<path fill="none" stroke="black" stroke-width="0.5" d="M332.15,-167.24C346.78,-176.31 362.91,-188.46 374,-203 418.32,-261.08 438.91,-346.79 447.03,-390.74"/>
<polygon fill="black" stroke="black" stroke-width="0.5" points="443.61,-391.48 448.79,-400.72 450.5,-390.26 443.61,-391.48"/>
</a>
</g>
</g>
<!-- TOTAL -->
<g id="node36" class="node">
<title>TOTAL</title>
<g id="a_node36"><a xlink:title="TOTAL&#10;Exogen">
<polygon fill="yellow" stroke="black" points="326,-626 266,-626 266,-590 326,-590 326,-626"/>
<text text-anchor="start" x="272" y="-603.8" font-family="Times New Roman,serif" font-size="14.00" fill="blue">TOTAL:</text>
</a>
</g>
</g>
<!-- TOTAL&#45;&gt;POSITIONS -->
<g id="edge27" class="edge">
<title>TOTAL&#45;&gt;POSITIONS</title>
<g id="a_edge27"><a xlink:href="bogus" xlink:title="NA">
<path fill="none" stroke="black" stroke-width="0.5" d="M326.12,-603.4C341.85,-599.64 360.71,-592.92 374,-581 414.46,-544.72 435.75,-482.75 445.22,-446.89"/>
<polygon fill="black" stroke="black" stroke-width="0.5" points="448.64,-447.63 447.69,-437.08 441.85,-445.92 448.64,-447.63"/>
</a>
</g>
</g>
</g>
</svg>
