<svg xmlns="http://www.w3.org/2000/svg" xmlns:xlink="http://www.w3.org/1999/xlink" width="607pt" height="381pt" viewBox="0.00 0.00 607.00 380.84">
<g id="graph0" class="graph" transform="scale(1 1) rotate(0) translate(4 376.84)">
<title>TD</title>
<polygon fill="white" stroke="none" points="-4,4 -4,-376.84 603,-376.84 603,4 -4,4"/>
<text text-anchor="middle" x="299.5" y="-7.8" font-family="Times New Roman,serif" font-size="14.00">Model Structure</text>
<!-- INVESTMENT -->
<g id="node1" class="node">
<title>INVESTMENT</title>
<g id="a_node1"><a xlink:title="INVESTMENT
FRML &lt;&gt; INVESTMENT      = INCOME - CONSUMPTION    $">
<polygon fill="#63b8ff" stroke="black" points="128.5,-179.84 25.5,-179.84 25.5,-143.84 128.5,-143.84 128.5,-179.84"/>
<text text-anchor="start" x="32" y="-157.64" font-family="Times New Roman,serif" font-size="14.00" fill="blue">INVESTMENT:</text>
</a>
</g>
</g>
<!-- CAPITAL -->
<g id="node6" class="node">
<title>CAPITAL</title>
<g id="a_node6"><a xlink:title="CAPITAL
FRML &lt;&gt; CAPITAL=CAPITAL(-1)+(INVESTMENT-DEPRECIATION_RATE * CAPITAL(-1))$">
<polygon fill="#63b8ff" stroke="black" points="263,-229.84 190,-229.84 190,-193.84 263,-193.84 263,-229.84"/>
<text text-anchor="start" x="196.5" y="-207.64" font-family="Times New Roman,serif" font-size="14.00" fill="blue">CAPITAL:</text>
</a>
</g>
</g>
<!-- INVESTMENT&#45;&gt;CAPITAL -->
<g id="edge14" class="edge">
<title>INVESTMENT-&gt;CAPITAL</title>
<g id="a_edge14"><a xlink:href="bogus" xlink:title=" INVESTMENT -&gt; CAPITAL Min. att. 6%  max: 100%">
<path fill="none" stroke="black" stroke-width="8" d="M128.76,-179.05C145.46,-184.71 163.91,-190.96 180.18,-196.48"/>
<polygon fill="black" stroke="black" stroke-width="8" points="178.27,-203.22 189.99,-199.8 182.77,-189.96 178.27,-203.22"/>
</a>
</g>
</g>
<!-- LABOR_GROWTH -->
<g id="node2" class="node">
<title>LABOR_GROWTH</title>
<g id="a_node2"><a xlink:title="LABOR_GROWTH
Exogen">
<polygon fill="yellow" stroke="black" points="141.5,-345.84 12.5,-345.84 12.5,-309.84 141.5,-309.84 141.5,-345.84"/>
<text text-anchor="start" x="19" y="-323.64" font-family="Times New Roman,serif" font-size="14.00" fill="blue">LABOR_GROWTH:</text>
</a>
</g>
</g>
<!-- LABOR -->
<g id="node3" class="node">
<title>LABOR</title>
<g id="a_node3"><a xlink:title="LABOR
FRML &lt;&gt; LABOR=LABOR(-1)+(LABOR_GROWTH * LABOR(-1))$">
<polygon fill="#63b8ff" stroke="black" points="257.5,-345.84 195.5,-345.84 195.5,-309.84 257.5,-309.84 257.5,-345.84"/>
<text text-anchor="start" x="201.5" y="-323.64" font-family="Times New Roman,serif" font-size="14.00" fill="blue">LABOR:</text>
</a>
</g>
</g>
<!-- LABOR_GROWTH&#45;&gt;LABOR -->
<g id="edge7" class="edge">
<title>LABOR_GROWTH-&gt;LABOR</title>
<g id="a_edge7"><a xlink:href="bogus" xlink:title=" LABOR_GROWTH -&gt; LABOR Min. att. 0%  max: 100%">
<path fill="none" stroke="black" stroke-width="8" d="M141.84,-327.84C156.46,-327.84 171.61,-327.84 184.94,-327.84"/>
<polygon fill="black" stroke="black" stroke-width="8" points="185.19,-334.84 195.19,-327.84 185.19,-320.84 185.19,-334.84"/>
</a>
</g>
</g>
<!-- CAPITAL_INTENSITY -->
<g id="node4" class="node">
<title>CAPITAL_INTENSITY</title>
<g id="a_node4"><a xlink:title="CAPITAL_INTENSITY
FRML &lt;&gt; CAPITAL_INTENSITY = CAPITAL/LABOR  $">
<polygon fill="#63b8ff" stroke="black" points="448,-318.84 299,-318.84 299,-282.84 448,-282.84 448,-318.84"/>
<text text-anchor="start" x="305.5" y="-296.64" font-family="Times New Roman,serif" font-size="14.00" fill="blue">CAPITAL_INTENSITY:</text>
</a>
</g>
</g>
<!-- LABOR&#45;&gt;CAPITAL_INTENSITY -->
<g id="edge13" class="edge">
<title>LABOR-&gt;CAPITAL_INTENSITY</title>
<g id="a_edge13"><a xlink:href="bogus" xlink:title=" LABOR -&gt; CAPITAL_INTENSITY Min. att. 103%  max: 1269%">
<path fill="none" stroke="black" stroke-width="8" d="M257.54,-322.25C266.91,-320.5 277.74,-318.48 288.93,-316.4"/>
<polygon fill="black" stroke="black" stroke-width="8" points="290.27,-323.27 298.82,-314.56 287.71,-309.51 290.27,-323.27"/>
</a>
</g>
</g>
<!-- LABOR(&#45;1) -->
<g id="node11" class="node">
<title>LABOR(-1)</title>
<g id="a_node11"><a xlink:title="LABOR
FRML &lt;&gt; LABOR=LABOR(-1)+(LABOR_GROWTH * LABOR(-1))$">
<polygon fill="springgreen" stroke="black" points="437.5,-372.84 309.5,-372.84 309.5,-336.84 437.5,-336.84 437.5,-372.84"/>
<text text-anchor="start" x="315.5" y="-350.64" font-family="Times New Roman,serif" font-size="14.00" fill="blue">LABOR(-1):LABOR</text>
</a>
</g>
</g>
<!-- LABOR&#45;&gt;LABOR(&#45;1) -->
<g id="edge12" class="edge">
<title>LABOR-&gt;LABOR(-1)</title>
<g id="a_edge12"><a xlink:href="bogus" xlink:title=" LABOR -&gt; LABOR(-1) Min. att. 0%  max: 100%">
<path fill="none" stroke="black" stroke-width="8" d="M257.54,-327.84C270.34,-329.43 285.85,-331.93 301.29,-334.83"/>
<polygon fill="black" stroke="black" stroke-width="8" points="300.25,-341.76 311.39,-336.79 302.91,-328.01 300.25,-341.76"/>
</a>
</g>
</g>
<!-- INCOME -->
<g id="node13" class="node">
<title>INCOME</title>
<g id="a_node13"><a xlink:title="INCOME
FRML &lt;&gt; INCOME          = A  * CAPITAL**ALFA * LABOR **(1-ALFA)  $">
<polygon fill="#63b8ff" stroke="black" points="408.5,-156.84 338.5,-156.84 338.5,-120.84 408.5,-120.84 408.5,-156.84"/>
<text text-anchor="start" x="344.5" y="-134.64" font-family="Times New Roman,serif" font-size="14.00" fill="blue">INCOME:</text>
</a>
</g>
</g>
<!-- LABOR&#45;&gt;INCOME -->
<g id="edge8" class="edge">
<title>LABOR-&gt;INCOME</title>
<g id="a_edge8"><a xlink:href="bogus" xlink:title=" LABOR -&gt; INCOME Min. att. 59%  max: 97%">
<path fill="none" stroke="black" stroke-width="8" d="M234.54,-309.79C250.27,-269.78 287.76,-176.38 299,-165.84 307.27,-158.08 317.96,-152.51 328.61,-148.52"/>
<polygon fill="black" stroke="black" stroke-width="8" points="331.04,-155.09 338.32,-145.29 326.62,-141.81 331.04,-155.09"/>
</a>
</g>
</g>
<!-- ALFA -->
<g id="node5" class="node">
<title>ALFA</title>
<g id="a_node5"><a xlink:title="ALFA
Exogen">
<polygon fill="yellow" stroke="black" points="253.5,-137.84 199.5,-137.84 199.5,-101.84 253.5,-101.84 253.5,-137.84"/>
<text text-anchor="start" x="207.5" y="-115.64" font-family="Times New Roman,serif" font-size="14.00" fill="blue">ALFA:</text>
</a>
</g>
</g>
<!-- ALFA&#45;&gt;INCOME -->
<g id="edge17" class="edge">
<title>ALFA-&gt;INCOME</title>
<g id="a_edge17"><a xlink:href="bogus" xlink:title=" ALFA -&gt; INCOME Min. att. -0%  max: -0%">
<path fill="none" stroke="black" d="M253.76,-123.28C274.47,-125.99 303.82,-129.84 328.15,-133.03"/>
<polygon fill="black" stroke="black" points="327.87,-136.52 338.24,-134.35 328.78,-129.58 327.87,-136.52"/>
</a>
</g>
</g>
<!-- CAPITAL&#45;&gt;CAPITAL_INTENSITY -->
<g id="edge15" class="edge">
<title>CAPITAL-&gt;CAPITAL_INTENSITY</title>
<g id="a_edge15"><a xlink:href="bogus" xlink:title=" CAPITAL -&gt; CAPITAL_INTENSITY Min. att. -647%  max: -3%">
<path fill="none" stroke="black" stroke-width="8" d="M244.6,-229.87C258.27,-243.45 278.48,-261.73 299,-273.84 301.67,-275.41 304.44,-276.92 307.28,-278.36"/>
<polygon fill="black" stroke="black" stroke-width="8" points="304.49,-284.79 316.52,-282.73 310.47,-272.13 304.49,-284.79"/>
</a>
</g>
</g>
<!-- CAPITAL(&#45;1) -->
<g id="node9" class="node">
<title>CAPITAL(-1)</title>
<g id="a_node9"><a xlink:title="CAPITAL
FRML &lt;&gt; CAPITAL=CAPITAL(-1)+(INVESTMENT-DEPRECIATION_RATE * CAPITAL(-1))$">
<polygon fill="springgreen" stroke="black" points="448,-210.84 299,-210.84 299,-174.84 448,-174.84 448,-210.84"/>
<text text-anchor="start" x="305.5" y="-188.64" font-family="Times New Roman,serif" font-size="14.00" fill="blue">CAPITAL(-1):CAPITAL</text>
</a>
</g>
</g>
<!-- CAPITAL&#45;&gt;CAPITAL(&#45;1) -->
<g id="edge3" class="edge">
<title>CAPITAL-&gt;CAPITAL(-1)</title>
<g id="a_edge3"><a xlink:href="bogus" xlink:title=" CAPITAL -&gt; CAPITAL(-1) Min. att. 0%  max: 94%">
<path fill="none" stroke="black" stroke-width="8" d="M263.34,-201.23C271.2,-199.81 279.84,-198.42 288.72,-197.14"/>
<polygon fill="black" stroke="black" stroke-width="8" points="289.85,-204.05 298.8,-195.75 287.94,-190.18 289.85,-204.05"/>
</a>
</g>
</g>
<!-- CAPITAL&#45;&gt;INCOME -->
<g id="edge9" class="edge">
<title>CAPITAL-&gt;INCOME</title>
<g id="a_edge9"><a xlink:href="bogus" xlink:title=" CAPITAL -&gt; INCOME Min. att. 3%  max: 54%">
<path fill="none" stroke="black" stroke-width="5.42" d="M252.51,-193.82C265.89,-184.69 282.88,-173.86 299,-165.84 308.31,-161.21 318.62,-156.93 328.5,-153.21"/>
<polygon fill="black" stroke="black" stroke-width="5.42" points="330.41,-157.57 338.18,-149.69 327.16,-148.65 330.41,-157.57"/>
</a>
</g>
</g>
<!-- DEPRECIATION_RATE -->
<g id="node7" class="node">
<title>DEPRECIATION_RATE</title>
<g id="a_node7"><a xlink:title="DEPRECIATION_RATE
Exogen">
<polygon fill="yellow" stroke="black" points="154,-233.84 0,-233.84 0,-197.84 154,-197.84 154,-233.84"/>
<text text-anchor="start" x="6" y="-211.64" font-family="Times New Roman,serif" font-size="14.00" fill="blue">DEPRECIATION_RATE:</text>
</a>
</g>
</g>
<!-- DEPRECIATION_RATE&#45;&gt;CAPITAL -->
<g id="edge5" class="edge">
<title>DEPRECIATION_RATE-&gt;CAPITAL</title>
<g id="a_edge5"><a xlink:href="bogus" xlink:title=" DEPRECIATION_RATE -&gt; CAPITAL Min. att. 0%  max: 0%">
<path fill="none" stroke="black" d="M154.34,-213.77C162.94,-213.54 171.5,-213.3 179.54,-213.09"/>
<polygon fill="black" stroke="black" points="179.87,-216.58 189.77,-212.81 179.68,-209.58 179.87,-216.58"/>
</a>
</g>
</g>
<!-- SAVING_RATE -->
<g id="node8" class="node">
<title>SAVING_RATE</title>
<g id="a_node8"><a xlink:title="SAVING_RATE
Exogen">
<polygon fill="yellow" stroke="black" points="426.5,-264.84 320.5,-264.84 320.5,-228.84 426.5,-228.84 426.5,-264.84"/>
<text text-anchor="start" x="326.5" y="-242.64" font-family="Times New Roman,serif" font-size="14.00" fill="blue">SAVING_RATE:</text>
</a>
</g>
</g>
<!-- CONSUMPTION -->
<g id="node10" class="node">
<title>CONSUMPTION</title>
<g id="a_node10"><a xlink:title="CONSUMPTION
FRML &lt;&gt; CONSUMPTION     = (1-SAVING_RATE)  * INCOME  $">
<polygon fill="#63b8ff" stroke="black" points="599,-156.84 484,-156.84 484,-120.84 599,-120.84 599,-156.84"/>
<text text-anchor="start" x="490.5" y="-134.64" font-family="Times New Roman,serif" font-size="14.00" fill="blue">CONSUMPTION:</text>
</a>
</g>
</g>
<!-- SAVING_RATE&#45;&gt;CONSUMPTION -->
<g id="edge4" class="edge">
<title>SAVING_RATE-&gt;CONSUMPTION</title>
<g id="a_edge4"><a xlink:href="bogus" xlink:title=" SAVING_RATE -&gt; CONSUMPTION Min. att. 0%  max: 0%">
<path fill="none" stroke="black" d="M426.61,-230.43C434,-227.33 441.34,-223.79 448,-219.84 473.7,-204.59 498.95,-181.79 516.56,-164.27"/>
<polygon fill="black" stroke="black" points="519.09,-166.69 523.62,-157.11 514.11,-161.77 519.09,-166.69"/>
</a>
</g>
</g>
<!-- CAPITAL(&#45;1)&#45;&gt;CAPITAL -->
<g id="edge10" class="edge">
<title>CAPITAL(-1)-&gt;CAPITAL</title>
<g id="a_edge10"><a xlink:href="bogus" xlink:title="NA">
<path fill="none" stroke="black" stroke-width="0.5" d="M298.8,-209.25C290.12,-210.37 281.47,-211.36 273.33,-212.16"/>
<polygon fill="black" stroke="black" stroke-width="0.5" points="272.99,-208.68 263.34,-213.06 273.62,-215.65 272.99,-208.68"/>
</a>
</g>
</g>
<!-- CONSUMPTION&#45;&gt;INVESTMENT -->
<g id="edge1" class="edge">
<title>CONSUMPTION-&gt;INVESTMENT</title>
<g id="a_edge1"><a xlink:href="bogus" xlink:title=" CONSUMPTION -&gt; INVESTMENT Min. att. -1900%  max: -1900%">
<path fill="none" stroke="black" stroke-width="8" d="M516.33,-120.78C458.3,-79.76 307.21,12.95 190,-38.84 145.71,-58.41 111.4,-105.1 92.99,-135"/>
<polygon fill="black" stroke="black" stroke-width="8" points="86.91,-131.51 87.79,-143.69 98.93,-138.7 86.91,-131.51"/>
</a>
</g>
</g>
<!-- LABOR(&#45;1)&#45;&gt;LABOR -->
<g id="edge2" class="edge">
<title>LABOR(-1)-&gt;LABOR</title>
<g id="a_edge2"><a xlink:href="bogus" xlink:title="NA">
<path fill="none" stroke="black" stroke-width="0.5" d="M309.31,-349.77C295.12,-347.28 280.44,-344.35 267.5,-341.4"/>
<polygon fill="black" stroke="black" stroke-width="0.5" points="268.08,-337.94 257.54,-339.03 266.46,-344.75 268.08,-337.94"/>
</a>
</g>
</g>
<!-- A -->
<g id="node12" class="node">
<title>A</title>
<g id="a_node12"><a xlink:title="A
Exogen">
<polygon fill="yellow" stroke="black" points="253.5,-83.84 199.5,-83.84 199.5,-47.84 253.5,-47.84 253.5,-83.84"/>
<text text-anchor="start" x="219.5" y="-61.64" font-family="Times New Roman,serif" font-size="14.00" fill="blue">A:</text>
</a>
</g>
</g>
<!-- A&#45;&gt;INCOME -->
<g id="edge16" class="edge">
<title>A-&gt;INCOME</title>
<g id="a_edge16"><a xlink:href="bogus" xlink:title=" A -&gt; INCOME Min. att. -0%  max: -0%">
<path fill="none" stroke="black" d="M253.76,-79.06C274.74,-89.62 304.6,-104.66 329.13,-117"/>
<polygon fill="black" stroke="black" points="327.73,-120.22 338.24,-121.59 330.88,-113.97 327.73,-120.22"/>
</a>
</g>
</g>
<!-- INCOME&#45;&gt;INVESTMENT -->
<g id="edge6" class="edge">
<title>INCOME-&gt;INVESTMENT</title>
<g id="a_edge6"><a xlink:href="bogus" xlink:title=" INCOME -&gt; INVESTMENT Min. att. 2000%  max: 2000%">
<path fill="none" stroke="black" stroke-width="8" d="M338.15,-141.52C289.32,-145.34 199.07,-152.38 138.78,-157.09"/>
<polygon fill="black" stroke="black" stroke-width="8" points="138.05,-150.13 128.63,-157.89 139.14,-164.09 138.05,-150.13"/>
</a>
</g>
</g>
<!-- INCOME&#45;&gt;CONSUMPTION -->
<g id="edge11" class="edge">
<title>INCOME-&gt;CONSUMPTION</title>
<g id="a_edge11"><a xlink:href="bogus" xlink:title=" INCOME -&gt; CONSUMPTION Min. att. 100%  max: 100%">
<path fill="none" stroke="black" stroke-width="8" d="M408.9,-138.84C427.67,-138.84 451.57,-138.84 473.84,-138.84"/>
<polygon fill="black" stroke="black" stroke-width="8" points="473.93,-145.84 483.93,-138.84 473.93,-131.84 473.93,-145.84"/>
</a>
</g>
</g>
</g>
</svg>