<svg xmlns="http://www.w3.org/2000/svg" xmlns:xlink="http://www.w3.org/1999/xlink" width="432pt" height="115pt" viewBox="0.00 0.00 432.00 114.51">
<g id="graph0" class="graph" transform="scale(0.188646 0.188646) rotate(0) translate(4 603)">
<title>TD</title>
<polygon fill="white" stroke="none" points="-4,4 -4,-603 2286,-603 2286,4 -4,4"/>
<text text-anchor="middle" x="1141" y="-7.8" font-family="Times New Roman,serif" font-size="14.00">PAKNYGDPMKTPKN</text>
<!-- PAKNVENGNIMPXN -->
<g id="node1" class="node">
<title>PAKNVENGNIMPXN</title>
<g id="a_node1"><a xlink:title="Energy Imports
FRML  &lt;&gt; PAKNVENGNIMPXN = ((PAKNVCOLNIMPSH**PAKCESENGYIMP)*PAKNVCOLPRODXN**(1-PAKCESENGYIMP)+(PAKNVOILNIMPSH**PAKCESENGYIMP)*PAKNVOILPRODXN**(1-PAKCESENGYIMP)+(PAKNVGASNIMPSH**PAKCESENGYIMP)*PAKNVGASPRODXN**(1-PAKCESENGYIMP)+(PAKNVRENNIMPSH**PAKCESENGYIMP)*PAKNVRENPRODXN**(1-PAKCESENGYIMP))**(1/(1-PAKCESENGYIMP)) $">
<polygon fill="#63b8ff" stroke="black" points="1329.5,-563 1100.5,-563 1100.5,-527 1329.5,-527 1329.5,-563"/>
<text text-anchor="start" x="1107" y="-540.8" font-family="Times New Roman,serif" font-size="14.00" fill="blue">PAKNVENGNIMPXN:Energy Imports</text>
</a>
</g>
</g>
<!-- PAKNEIMPGNFSXN -->
<g id="node11" class="node">
<title>PAKNEIMPGNFSXN</title>
<g id="a_node11"><a xlink:title="Imports (G&amp;S)
FRML  &lt;&gt; PAKNEIMPGNFSXN = ((PAKNEIMPENGYSH**PAKCESENGYIMPT)*PAKNVENGNIMPXN**(1-PAKCESENGYIMPT)+(PAKNEIMPOTHRSH**PAKCESENGYIMPT)*PAKNEIMPGSNEXN**(1-PAKCESENGYIMPT))**(1/(1-PAKCESENGYIMPT)) $">
<polygon fill="#63b8ff" stroke="black" points="1626,-509 1403,-509 1403,-473 1626,-473 1626,-509"/>
<text text-anchor="start" x="1409.5" y="-486.8" font-family="Times New Roman,serif" font-size="14.00" fill="blue">PAKNEIMPGNFSXN:Imports (G&amp;S)</text>
</a>
</g>
</g>
<!-- PAKNVENGNIMPXN&#45;&gt;PAKNEIMPGNFSXN -->
<g id="edge12" class="edge">
<title>PAKNVENGNIMPXN-&gt;PAKNEIMPGNFSXN</title>
<g id="a_edge12"><a xlink:href="bogus" xlink:title=" PAKNVENGNIMPXN -&gt; PAKNEIMPGNFSXN Min. att. 37%  max: 104%">
<path fill="none" stroke="black" stroke-width="8" d="M1317.14,-526.99C1333.8,-524 1350.89,-520.93 1367,-518 1379.67,-515.7 1392.96,-513.27 1406.14,-510.85"/>
<polygon fill="black" stroke="black" stroke-width="8" points="1407.62,-517.7 1416.19,-509.01 1405.09,-503.93 1407.62,-517.7"/>
</a>
</g>
</g>
<!-- PAKNEGDIFGOVCN -->
<g id="node2" class="node">
<title>PAKNEGDIFGOVCN</title>
<g id="a_node2"><a xlink:title="Government Investment
FRML &lt;Z,EXO&gt; PAKNEGDIFGOVCN = (PAKNEGDIFGOVCN(-1)*EXP(-PAKNEGDIFGOVCN_A+ (((LOG(PAKGGEXPCAPTCN))-(LOG(PAKGGEXPCAPTCN(-1))))-0.00510713331489238*DUMH) )) * (1-PAKNEGDIFGOVCN_D)+ PAKNEGDIFGOVCN_X*PAKNEGDIFGOVCN_D  $">
<polygon fill="#63b8ff" stroke="black" points="629.5,-221 356.5,-221 356.5,-185 629.5,-185 629.5,-221"/>
<text text-anchor="start" x="363" y="-198.8" font-family="Times New Roman,serif" font-size="14.00" fill="blue">PAKNEGDIFGOVCN:Government Investment</text>
</a>
</g>
</g>
<!-- PAKNEGDIFGOVKN -->
<g id="node29" class="node">
<title>PAKNEGDIFGOVKN</title>
<g id="a_node29"><a xlink:title="Government Investment
FRML  &lt;&gt; PAKNEGDIFGOVKN = PAKNEGDIFGOVCN/PAKNEGDIFGOVXN $">
<polygon fill="#63b8ff" stroke="black" points="999,-275 725,-275 725,-239 999,-239 999,-275"/>
<text text-anchor="start" x="731" y="-252.8" font-family="Times New Roman,serif" font-size="14.00" fill="blue">PAKNEGDIFGOVKN:Government Investment</text>
</a>
</g>
</g>
<!-- PAKNEGDIFGOVCN&#45;&gt;PAKNEGDIFGOVKN -->
<g id="edge5" class="edge">
<title>PAKNEGDIFGOVCN-&gt;PAKNEGDIFGOVKN</title>
<g id="a_edge5"><a xlink:href="bogus" xlink:title=" PAKNEGDIFGOVCN -&gt; PAKNEGDIFGOVKN Min. att. 129%  max: 988%">
<path fill="none" stroke="black" stroke-width="8" d="M616.46,-221.02C652.38,-226.3 691.81,-232.11 728.33,-237.48"/>
<polygon fill="black" stroke="black" stroke-width="8" points="727.64,-244.45 738.55,-238.98 729.68,-230.6 727.64,-244.45"/>
</a>
</g>
</g>
<!-- PAKNYGDPFCSTXN -->
<g id="node3" class="node">
<title>PAKNYGDPFCSTXN</title>
<g id="a_node3"><a xlink:title="GDP at factor cost
FRML &lt;Z,EXO&gt; PAKNYGDPFCSTXN = (PAKNYGDPFCSTXN(-1)*EXP(-PAKNYGDPFCSTXN_A+ (0.6*((LOG(PAKNYGDPFCSTXN(-1)))-(LOG(PAKNYGDPFCSTXN(-2))))+(1-0.6)*(0.7*PAKINFLEXPT/100+(1-0.7)*((LOG(PAKPSTAR(-1)))-(LOG(PAKPSTAR(-2)))))+0.25*PAKNYGDPGAP_/100+0.262461811660072*DURING_2000-0.205776950553378*DURING_2001) )) * (1-PAKNYGDPFCSTXN_D)+ PAKNYGDPFCSTXN_X*PAKNYGDPFCSTXN_D  $">
<polygon fill="#63b8ff" stroke="black" points="983,-583 741,-583 741,-547 983,-547 983,-583"/>
<text text-anchor="start" x="747" y="-560.8" font-family="Times New Roman,serif" font-size="14.00" fill="blue">PAKNYGDPFCSTXN:GDP at factor cost</text>
</a>
</g>
</g>
<!-- PAKNEIMPGNFSKN -->
<g id="node23" class="node">
<title>PAKNEIMPGNFSKN</title>
<g id="a_node23"><a xlink:title="Imports (G&amp;S)
FRML &lt;Z,EXO&gt; PAKNEIMPGNFSKN = (PAKNEIMPGNFSKN(-1)*EXP(-PAKNEIMPGNFSKN_A+ (-0.324143718656754*(LOG(PAKNEIMPGNFSKN(-1))-LOG(PAKNEGDETTOTKN(-1))+0.8*LOG(PAKNEIMPGNFSXN(-1)/PAKNYGDPFCSTXN(-1)))-0.583459272245018+1*((LOG(PAKNEGDETTOTKN))-(LOG(PAKNEGDETTOTKN(-1))))-0.0921874580409631*((LOG(PAKNEIMPGNFSXN/PAKNYGDPFCSTXN))-(LOG(PAKNEIMPGNFSXN(-1)/PAKNYGDPFCSTXN(-1))))-0.0361746331863615*DURING_2012) )) * (1-PAKNEIMPGNFSKN_D)+ PAKNEIMPGNFSKN_X*PAKNEIMPGNFSKN_D  $">
<polygon fill="#63b8ff" stroke="black" points="1885,-463 1662,-463 1662,-427 1885,-427 1885,-463"/>
<text text-anchor="start" x="1668.5" y="-440.8" font-family="Times New Roman,serif" font-size="14.00" fill="blue">PAKNEIMPGNFSKN:Imports (G&amp;S)</text>
</a>
</g>
</g>
<!-- PAKNYGDPFCSTXN&#45;&gt;PAKNEIMPGNFSKN -->
<g id="edge16" class="edge">
<title>PAKNYGDPFCSTXN-&gt;PAKNEIMPGNFSKN</title>
<g id="a_edge16"><a xlink:href="bogus" xlink:title=" PAKNYGDPFCSTXN -&gt; PAKNEIMPGNFSKN Min. att. -1112%  max: 296%">
<path fill="none" stroke="black" stroke-width="8" d="M983.17,-558.99C998.91,-554.38 1014.04,-547.66 1027,-538 1056.32,-516.14 1032.26,-483.81 1063,-464 1111.05,-433.04 1462.19,-436.98 1651.81,-441.49"/>
<polygon fill="black" stroke="black" stroke-width="8" points="1651.66,-448.49 1661.83,-441.73 1652,-434.49 1651.66,-448.49"/>
</a>
</g>
</g>
<!-- PAKNECONENGYXN -->
<g id="node4" class="node">
<title>PAKNECONENGYXN</title>
<g id="a_node4"><a xlink:title="Energy Consumption
FRML &lt;Z,EXO&gt; PAKNECONENGYXN = (PAKNECONENGYXN(-1)*EXP(-PAKNECONENGYXN_A+ (((LOG(PAKNECONENGYGN))-(LOG(PAKNECONENGYGN(-1))))+0.0550557534575806*DUMH) )) * (1-PAKNECONENGYXN_D)+ PAKNECONENGYXN_X*PAKNECONENGYXN_D  $">
<polygon fill="#63b8ff" stroke="black" points="275.5,-518 13.5,-518 13.5,-482 275.5,-482 275.5,-518"/>
<text text-anchor="start" x="19.5" y="-495.8" font-family="Times New Roman,serif" font-size="14.00" fill="blue">PAKNECONENGYXN:Energy Consumption</text>
</a>
</g>
</g>
<!-- PAKNECONPRVTXN -->
<g id="node24" class="node">
<title>PAKNECONPRVTXN</title>
<g id="a_node24"><a xlink:title="Household demand
FRML  &lt;&gt; PAKNECONPRVTXN = ((PAKNECONENGYSH**PAKCESENGYCON)*PAKNECONENGYXN**(1-PAKCESENGYCON)+(PAKNECONOTHRSH**PAKCESENGYCON)*PAKNECONOTHRXN**(1-PAKCESENGYCON))**(1/(1-PAKCESENGYCON)) $">
<polygon fill="#63b8ff" stroke="black" points="617,-491 369,-491 369,-455 617,-455 617,-491"/>
<text text-anchor="start" x="375" y="-468.8" font-family="Times New Roman,serif" font-size="14.00" fill="blue">PAKNECONPRVTXN:Household demand</text>
</a>
</g>
</g>
<!-- PAKNECONENGYXN&#45;&gt;PAKNECONPRVTXN -->
<g id="edge22" class="edge">
<title>PAKNECONENGYXN-&gt;PAKNECONPRVTXN</title>
<g id="a_edge22"><a xlink:href="bogus" xlink:title=" PAKNECONENGYXN -&gt; PAKNECONPRVTXN Min. att. 1%  max: 29%">
<path fill="none" stroke="black" stroke-width="2.91" d="M275.51,-489.87C302.7,-487.75 331.42,-485.51 358.73,-483.39"/>
<polygon fill="black" stroke="black" stroke-width="2.91" points="359.02,-486.87 368.72,-482.61 358.48,-479.89 359.02,-486.87"/>
</a>
</g>
</g>
<!-- PAKNEGDIFGOVXN -->
<g id="node5" class="node">
<title>PAKNEGDIFGOVXN</title>
<g id="a_node5"><a xlink:title="Government Investment
FRML &lt;Z,EXO&gt; PAKNEGDIFGOVXN = (PAKNEGDIFGOVXN(-1)*EXP(-PAKNEGDIFGOVXN_A+ (-0.480254922468272*(LOG(PAKNEGDIFGOVXN(-1))-LOG(PAKNECONPRVTXN(-1)))+0.00720714576835064+0.0731599680348391*((LOG(PAKNEGDIFGOVXN(-1)))-(LOG(PAKNEGDIFGOVXN(-2))))+(1-0.0731599680348391)*((LOG(PAKNECONPRVTXN))-(LOG(PAKNECONPRVTXN(-1))))) )) * (1-PAKNEGDIFGOVXN_D)+ PAKNEGDIFGOVXN_X*PAKNEGDIFGOVXN_D  $">
<polygon fill="#63b8ff" stroke="black" points="630,-275 356,-275 356,-239 630,-239 630,-275"/>
<text text-anchor="start" x="362" y="-252.8" font-family="Times New Roman,serif" font-size="14.00" fill="blue">PAKNEGDIFGOVXN:Government Investment</text>
</a>
</g>
</g>
<!-- PAKNEGDIFGOVXN&#45;&gt;PAKNEGDIFGOVKN -->
<g id="edge8" class="edge">
<title>PAKNEGDIFGOVXN-&gt;PAKNEGDIFGOVKN</title>
<g id="a_edge8"><a xlink:href="bogus" xlink:title=" PAKNEGDIFGOVXN -&gt; PAKNEGDIFGOVKN Min. att. -892%  max: -32%">
<path fill="none" stroke="black" stroke-width="8" d="M630.14,-257C657.66,-257 686.71,-257 714.57,-257"/>
<polygon fill="black" stroke="black" stroke-width="8" points="714.78,-264 724.78,-257 714.78,-250 714.78,-264"/>
</a>
</g>
</g>
<!-- PAKNEGDIKSTKKN -->
<g id="node6" class="node">
<title>PAKNEGDIKSTKKN</title>
<g id="a_node6"><a xlink:title="Domestic Capital
FRML  &lt;&gt; PAKNEGDIKSTKKN = (PAKNEGDIKSTKKN(-1)*(1-PAKDEPR))+PAKNEGDIFTOTKN2-2*PAKHURDAMKN $">
<polygon fill="#63b8ff" stroke="black" points="610.5,-59 375.5,-59 375.5,-23 610.5,-23 610.5,-59"/>
<text text-anchor="start" x="382" y="-36.8" font-family="Times New Roman,serif" font-size="14.00" fill="blue">PAKNEGDIKSTKKN:Domestic Capital</text>
</a>
</g>
</g>
<!-- PAKNEGDIFPRVKN -->
<g id="node8" class="node">
<title>PAKNEGDIFPRVKN</title>
<g id="a_node8"><a xlink:title="Private Investment
FRML &lt;Z,EXO&gt; PAKNEGDIFPRVKN = (-PAKNEGDIFPRVKN_A*PAKNEGDIKSTKKN(-1)+ (-0.00526826150713402+0.826734606421746*(PAKNEGDIFPRVKN(-1)/PAKNEGDIKSTKKN(-2))+(1-0.826734606421746)*(((LOG(PAKNYGDPPOTLKN))-(LOG(PAKNYGDPPOTLKN(-1))))+PAKDEPR)-0.00378813564556318*((LOG(PAKNEKRTTOTLCN/PAKNYGDPFCSTXN))-(LOG(PAKNEKRTTOTLCN(-1)/PAKNYGDPFCSTXN(-1))))) *PAKNEGDIKSTKKN(-1)) * (1-PAKNEGDIFPRVKN_D)+ PAKNEGDIFPRVKN_X*PAKNEGDIFPRVKN_D  $">
<polygon fill="#63b8ff" stroke="black" points="982,-140 742,-140 742,-104 982,-104 982,-140"/>
<text text-anchor="start" x="748" y="-117.8" font-family="Times New Roman,serif" font-size="14.00" fill="blue">PAKNEGDIFPRVKN:Private Investment</text>
</a>
</g>
</g>
<!-- PAKNEGDIKSTKKN&#45;&gt;PAKNEGDIFPRVKN -->
<g id="edge30" class="edge">
<title>PAKNEGDIKSTKKN-&gt;PAKNEGDIFPRVKN</title>
<g id="a_edge30"><a xlink:href="bogus" xlink:title=" PAKNEGDIKSTKKN -&gt; PAKNEGDIFPRVKN Min. att. 0%  max: 76%">
<path fill="none" stroke="black" stroke-width="7.57" d="M610.63,-58.27C627.58,-61.24 644.78,-64.51 661,-68 704.41,-77.34 752.47,-90.24 790.6,-101.08"/>
<polygon fill="black" stroke="black" stroke-width="7.57" points="789.13,-107.55 800.57,-103.93 792.78,-94.82 789.13,-107.55"/>
</a>
</g>
</g>
<!-- PAKLMEMPTOTLCN -->
<g id="node7" class="node">
<title>PAKLMEMPTOTLCN</title>
<g id="a_node7"><a xlink:title="Employment
FRML &lt;Z,EXO&gt; PAKLMEMPTOTLCN = (PAKLMEMPTOTLCN(-1)*EXP(-PAKLMEMPTOTLCN_A+ (-0.345624644563667*(LOG(PAKLMEMPTOTLCN(-1))-LOG(PAKLMEMPSTRLCN(-1)))-0.1*(((LOG(PAKNYWRTTOTLCN/PAKNYGDPFCSTXN))-(LOG(PAKNYWRTTOTLCN(-1)/PAKNYGDPFCSTXN(-1))))-((LOG(PAKNYGDPPOTLKN/PAKLMEMPSTRLCN))-(LOG(PAKNYGDPPOTLKN(-1)/PAKLMEMPSTRLCN(-1)))))-0.0011790007645121+((LOG(PAKLMEMPSTRLCN))-(LOG(PAKLMEMPSTRLCN(-1))))+0.175412878170024*PAKNYGDPGAP_/100+0.0369790799942338*DURING_2010) )) * (1-PAKLMEMPTOTLCN_D)+ PAKLMEMPTOTLCN_X*PAKLMEMPTOTLCN_D  $">
<polygon fill="#63b8ff" stroke="black" points="601.5,-383 384.5,-383 384.5,-347 601.5,-347 601.5,-383"/>
<text text-anchor="start" x="391" y="-360.8" font-family="Times New Roman,serif" font-size="14.00" fill="blue">PAKLMEMPTOTLCN:Employment</text>
</a>
</g>
</g>
<!-- PAKNYYWBTOTLCN -->
<g id="node14" class="node">
<title>PAKNYYWBTOTLCN</title>
<g id="a_node14"><a xlink:title="Economy-wide wage bill
FRML  &lt;&gt; PAKNYYWBTOTLCN = PAKNYWRTTOTLCN*PAKLMEMPTOTLCN $">
<polygon fill="#63b8ff" stroke="black" points="1004.5,-383 719.5,-383 719.5,-347 1004.5,-347 1004.5,-383"/>
<text text-anchor="start" x="726" y="-360.8" font-family="Times New Roman,serif" font-size="14.00" fill="blue">PAKNYYWBTOTLCN:Economy-wide wage bill</text>
</a>
</g>
</g>
<!-- PAKLMEMPTOTLCN&#45;&gt;PAKNYYWBTOTLCN -->
<g id="edge31" class="edge">
<title>PAKLMEMPTOTLCN-&gt;PAKNYYWBTOTLCN</title>
<g id="a_edge31"><a xlink:href="bogus" xlink:title=" PAKLMEMPTOTLCN -&gt; PAKNYYWBTOTLCN Min. att. -6%  max: 84%">
<path fill="none" stroke="black" stroke-width="8" d="M601.63,-365C635.27,-365 673.04,-365 709.13,-365"/>
<polygon fill="black" stroke="black" stroke-width="8" points="709.25,-372 719.25,-365 709.25,-358 709.25,-372"/>
</a>
</g>
</g>
<!-- PAKNEGDIFTOTKN -->
<g id="node17" class="node">
<title>PAKNEGDIFTOTKN</title>
<g id="a_node17"><a xlink:title="Total Gross Capital Formation
FRML  &lt;&gt; PAKNEGDIFTOTKN = PAKNEGDIFGOVKN+PAKNEGDIFPRVKN $">
<polygon fill="#63b8ff" stroke="black" points="1367,-275 1063,-275 1063,-239 1367,-239 1367,-275"/>
<text text-anchor="start" x="1069" y="-252.8" font-family="Times New Roman,serif" font-size="14.00" fill="blue">PAKNEGDIFTOTKN:Total Gross Capital Formation</text>
</a>
</g>
</g>
<!-- PAKNEGDIFPRVKN&#45;&gt;PAKNEGDIFTOTKN -->
<g id="edge1" class="edge">
<title>PAKNEGDIFPRVKN-&gt;PAKNEGDIFTOTKN</title>
<g id="a_edge1"><a xlink:href="bogus" xlink:title=" PAKNEGDIFPRVKN -&gt; PAKNEGDIFTOTKN Min. att. -5%  max: 94%">
<path fill="none" stroke="black" stroke-width="8" d="M909.97,-140.07C974.11,-164.74 1088.95,-208.9 1157.65,-235.33"/>
<polygon fill="black" stroke="black" stroke-width="8" points="1155.18,-241.88 1167.03,-238.93 1160.2,-228.81 1155.18,-241.88"/>
</a>
</g>
</g>
<!-- PAKNECONPRVTKN -->
<g id="node9" class="node">
<title>PAKNECONPRVTKN</title>
<g id="a_node9"><a xlink:title="Household Consumption
FRML &lt;Z,EXO&gt; PAKNECONPRVTKN = (PAKNECONPRVTKN(-1)*EXP(-PAKNECONPRVTKN_A+ (-0.2*(LOG(PAKNECONPRVTKN(-1))-LOG((PAKNYYWBTOTLCN(-1)*(1-PAKGGREVDRCTXN(-1)/100))/PAKNECONPRVTXN(-1)))+1*((LOG((PAKNYYWBTOTLCN*(1-PAKGGREVDRCTXN/100))/PAKNECONPRVTXN))-(LOG((PAKNYYWBTOTLCN(-1)*(1-PAKGGREVDRCTXN(-1)/100))/PAKNECONPRVTXN(-1))))+0.0303228629698929+0.0163839011059956*DURING_2010-0.3*(PAKFMLBLPOLYXN/100-((LOG(PAKNECONPRVTXN))-(LOG(PAKNECONPRVTXN(-1)))))) )) * (1-PAKNECONPRVTKN_D)+ PAKNECONPRVTKN_X*PAKNECONPRVTKN_D  $">
<polygon fill="#63b8ff" stroke="black" points="1354,-417 1076,-417 1076,-381 1354,-381 1354,-417"/>
<text text-anchor="start" x="1082" y="-394.8" font-family="Times New Roman,serif" font-size="14.00" fill="blue">PAKNECONPRVTKN:Household Consumption</text>
</a>
</g>
</g>
<!-- PAKNYGDPMKTPKN -->
<g id="node20" class="node">
<title>PAKNYGDPMKTPKN</title>
<g id="a_node20"><a xlink:title="GDP Expenditure side at market prices
FRML  &lt;&gt; PAKNYGDPMKTPKN = PAKNECONPRVTKN+PAKNECONGOVTKN+PAKNEGDIFTOTKN+PAKNEGDISTKBKN+PAKNEEXPGNFSKN-PAKNEIMPGNFSKN+PAKNYGDPDISCKN+PAKADAP*PAKDISPREPKN $">
<polygon fill="red" stroke="black" points="2282,-371 1921,-371 1921,-335 2282,-335 2282,-371"/>
<text text-anchor="start" x="1927.5" y="-348.8" font-family="Times New Roman,serif" font-size="14.00" fill="blue">PAKNYGDPMKTPKN:GDP Expenditure side at market prices</text>
</a>
</g>
</g>
<!-- PAKNECONPRVTKN&#45;&gt;PAKNYGDPMKTPKN -->
<g id="edge26" class="edge">
<title>PAKNECONPRVTKN-&gt;PAKNYGDPMKTPKN</title>
<g id="a_edge26"><a xlink:href="bogus" xlink:title=" PAKNECONPRVTKN -&gt; PAKNYGDPMKTPKN Min. att. -1557%  max: 290%">
<path fill="none" stroke="black" stroke-width="8" d="M1354.09,-392.96C1433.61,-389.4 1535.45,-384.67 1626,-380 1719.73,-375.16 1823.84,-369.29 1910.61,-364.26"/>
<polygon fill="black" stroke="black" stroke-width="8" points="1911.25,-371.24 1920.83,-363.67 1910.44,-357.26 1911.25,-371.24"/>
</a>
</g>
</g>
<!-- PAKNEGDETTOTKN -->
<g id="node27" class="node">
<title>PAKNEGDETTOTKN</title>
<g id="a_node27"><a xlink:title="GDE
FRML  &lt;&gt; PAKNEGDETTOTKN = (PAKNECONPRVTKN+PAKNECONGOVTKN+PAKNEGDIFTOTKN+PAKNEGDISTKBKN+PAKNYGDPDISCKN) $">
<polygon fill="#63b8ff" stroke="black" points="1599.5,-371 1429.5,-371 1429.5,-335 1599.5,-335 1599.5,-371"/>
<text text-anchor="start" x="1435.5" y="-348.8" font-family="Times New Roman,serif" font-size="14.00" fill="blue">PAKNEGDETTOTKN:GDE</text>
</a>
</g>
</g>
<!-- PAKNECONPRVTKN&#45;&gt;PAKNEGDETTOTKN -->
<g id="edge29" class="edge">
<title>PAKNECONPRVTKN-&gt;PAKNEGDETTOTKN</title>
<g id="a_edge29"><a xlink:href="bogus" xlink:title=" PAKNECONPRVTKN -&gt; PAKNEGDETTOTKN Min. att. -2284%  max: 2484%">
<path fill="none" stroke="black" stroke-width="8" d="M1332.73,-380.95C1361.43,-376.51 1391.81,-371.82 1419.3,-367.57"/>
<polygon fill="black" stroke="black" stroke-width="8" points="1420.48,-374.47 1429.29,-366.02 1418.34,-360.63 1420.48,-374.47"/>
</a>
</g>
</g>
<!-- PAKNECONGOVTKN -->
<g id="node10" class="node">
<title>PAKNECONGOVTKN</title>
<g id="a_node10"><a xlink:title="Government Consumption
FRML  &lt;&gt; PAKNECONGOVTKN = PAKNECONGOVTCN/PAKNECONGOVTXN $">
<polygon fill="#63b8ff" stroke="black" points="1361,-346 1069,-346 1069,-310 1361,-310 1361,-346"/>
<text text-anchor="start" x="1075" y="-323.8" font-family="Times New Roman,serif" font-size="14.00" fill="blue">PAKNECONGOVTKN:Government Consumption</text>
</a>
</g>
</g>
<!-- PAKNECONGOVTKN&#45;&gt;PAKNYGDPMKTPKN -->
<g id="edge32" class="edge">
<title>PAKNECONGOVTKN-&gt;PAKNYGDPMKTPKN</title>
<g id="a_edge32"><a xlink:href="bogus" xlink:title=" PAKNECONGOVTKN -&gt; PAKNYGDPMKTPKN Min. att. -108%  max: 835%">
<path fill="none" stroke="black" stroke-width="8" d="M1361.22,-326.29C1375.34,-326.17 1389.45,-326.07 1403,-326 1502.11,-325.47 1526.93,-323.18 1626,-326 1719.82,-328.67 1823.94,-334.29 1910.69,-339.72"/>
<polygon fill="black" stroke="black" stroke-width="8" points="1910.49,-346.73 1920.91,-340.37 1911.37,-332.75 1910.49,-346.73"/>
</a>
</g>
</g>
<!-- PAKNECONGOVTKN&#45;&gt;PAKNEGDETTOTKN -->
<g id="edge33" class="edge">
<title>PAKNECONGOVTKN-&gt;PAKNEGDETTOTKN</title>
<g id="a_edge33"><a xlink:href="bogus" xlink:title=" PAKNECONGOVTKN -&gt; PAKNEGDETTOTKN Min. att. -1269%  max: 1236%">
<path fill="none" stroke="black" stroke-width="8" d="M1361.26,-340.21C1380.93,-341.86 1400.67,-343.52 1419.12,-345.07"/>
<polygon fill="black" stroke="black" stroke-width="8" points="1418.68,-352.06 1429.23,-345.92 1419.85,-338.11 1418.68,-352.06"/>
</a>
</g>
</g>
<!-- PAKNEIMPGNFSXN&#45;&gt;PAKNEIMPGNFSKN -->
<g id="edge4" class="edge">
<title>PAKNEIMPGNFSXN-&gt;PAKNEIMPGNFSKN</title>
<g id="a_edge4"><a xlink:href="bogus" xlink:title=" PAKNEIMPGNFSXN -&gt; PAKNEIMPGNFSKN Min. att. -390%  max: 1559%">
<path fill="none" stroke="black" stroke-width="8" d="M1616.34,-472.95C1631.22,-470.29 1646.62,-467.53 1661.69,-464.83"/>
<polygon fill="black" stroke="black" stroke-width="8" points="1662.92,-471.72 1671.53,-463.07 1660.46,-457.94 1662.92,-471.72"/>
</a>
</g>
</g>
<!-- PAKNYGDPGAP_ -->
<g id="node12" class="node">
<title>PAKNYGDPGAP_</title>
<g id="a_node12"><a xlink:title="Output Gap (% of Potential GDP)
FRML  &lt;&gt; PAKNYGDPGAP_ = ((PAKNYGDPMKTPKN/PAKNYGDPPOTLKN-1)*100) $">
<polygon fill="#63b8ff" stroke="black" points="647.5,-545 338.5,-545 338.5,-509 647.5,-509 647.5,-545"/>
<text text-anchor="start" x="345" y="-522.8" font-family="Times New Roman,serif" font-size="14.00" fill="blue">PAKNYGDPGAP_:Output Gap (% of Potential GDP)</text>
</a>
</g>
</g>
<!-- PAKNYGDPGAP_&#45;&gt;PAKNYGDPFCSTXN -->
<g id="edge9" class="edge">
<title>PAKNYGDPGAP_-&gt;PAKNYGDPFCSTXN</title>
<g id="a_edge9"><a xlink:href="bogus" xlink:title=" PAKNYGDPGAP_ -&gt; PAKNYGDPFCSTXN Min. att. -56%  max: 7987%">
<path fill="none" stroke="black" stroke-width="8" d="M647.51,-542.9C675.12,-545.75 703.66,-548.71 730.53,-551.49"/>
<polygon fill="black" stroke="black" stroke-width="8" points="730.08,-558.48 740.75,-552.55 731.52,-544.56 730.08,-558.48"/>
</a>
</g>
</g>
<!-- PAKFMLBLPOLYXN -->
<g id="node15" class="node">
<title>PAKFMLBLPOLYXN</title>
<g id="a_node15"><a xlink:title="Policy Rate
FRML &lt;Z,EXO&gt; PAKFMLBLPOLYXN = (-100*PAKFMLBLPOLYXN_A+100* (0.905129162122953*PAKFMLBLPOLYXN(-1)/100+(1-0.905129162122953)*(PAKMPPOLNATRXN/100+1.2*(((LOG(PAKNECONPRVTXN))-(LOG(PAKNECONPRVTXN(-1))))-PAKINFLEXPT/100)+0.5*PAKNYGDPGAP_/100)) ) * (1-PAKFMLBLPOLYXN_D)+ PAKFMLBLPOLYXN_X*PAKFMLBLPOLYXN_D  $">
<polygon fill="#63b8ff" stroke="black" points="964.5,-529 759.5,-529 759.5,-493 964.5,-493 964.5,-529"/>
<text text-anchor="start" x="766" y="-506.8" font-family="Times New Roman,serif" font-size="14.00" fill="blue">PAKFMLBLPOLYXN:Policy Rate</text>
</a>
</g>
</g>
<!-- PAKNYGDPGAP_&#45;&gt;PAKFMLBLPOLYXN -->
<g id="edge24" class="edge">
<title>PAKNYGDPGAP_-&gt;PAKFMLBLPOLYXN</title>
<g id="a_edge24"><a xlink:href="bogus" xlink:title=" PAKNYGDPGAP_ -&gt; PAKFMLBLPOLYXN Min. att. -15%  max: 83%">
<path fill="none" stroke="black" stroke-width="8" d="M647.51,-520.31C681.54,-518.82 716.99,-517.28 748.99,-515.88"/>
<polygon fill="black" stroke="black" stroke-width="8" points="749.57,-522.86 759.26,-515.44 748.96,-508.88 749.57,-522.86"/>
</a>
</g>
</g>
<!-- PAKNYGDPPOTLKN -->
<g id="node13" class="node">
<title>PAKNYGDPPOTLKN</title>
<g id="a_node13"><a xlink:title="Potential GDP
FRML  &lt;&gt; PAKNYGDPPOTLKN = PAKNYGDPTFP*(PAKLMEMPSTRLCN**PAKNYYWBTOTLCN_)*(PAKNEGDIKSTKKN(-1)**(1-PAKNYYWBTOTLCN_)) $">
<polygon fill="#63b8ff" stroke="black" points="603.5,-167 382.5,-167 382.5,-131 603.5,-131 603.5,-167"/>
<text text-anchor="start" x="389" y="-144.8" font-family="Times New Roman,serif" font-size="14.00" fill="blue">PAKNYGDPPOTLKN:Potential GDP</text>
</a>
</g>
</g>
<!-- PAKNYGDPPOTLKN&#45;&gt;PAKNEGDIFPRVKN -->
<g id="edge13" class="edge">
<title>PAKNYGDPPOTLKN-&gt;PAKNEGDIFPRVKN</title>
<g id="a_edge13"><a xlink:href="bogus" xlink:title=" PAKNYGDPPOTLKN -&gt; PAKNEGDIFPRVKN Min. att. -8%  max: 66%">
<path fill="none" stroke="black" stroke-width="6.61" d="M603.61,-140.94C643.9,-137.97 689.88,-134.59 731.73,-131.51"/>
<polygon fill="black" stroke="black" stroke-width="6.61" points="732.16,-137.28 741.71,-130.78 731.31,-125.74 732.16,-137.28"/>
</a>
</g>
</g>
<!-- PAKNYYWBTOTLCN&#45;&gt;PAKNECONPRVTKN -->
<g id="edge6" class="edge">
<title>PAKNYYWBTOTLCN-&gt;PAKNECONPRVTKN</title>
<g id="a_edge6"><a xlink:href="bogus" xlink:title=" PAKNYYWBTOTLCN -&gt; PAKNECONPRVTKN Min. att. -594%  max: 5823%">
<path fill="none" stroke="black" stroke-width="8" d="M1004.5,-378.71C1024.61,-380.65 1045.35,-382.66 1065.59,-384.62"/>
<polygon fill="black" stroke="black" stroke-width="8" points="1065.17,-391.62 1075.8,-385.61 1066.52,-377.68 1065.17,-391.62"/>
</a>
</g>
</g>
<!-- PAKFMLBLPOLYXN&#45;&gt;PAKNECONPRVTKN -->
<g id="edge25" class="edge">
<title>PAKFMLBLPOLYXN-&gt;PAKNECONPRVTKN</title>
<g id="a_edge25"><a xlink:href="bogus" xlink:title=" PAKFMLBLPOLYXN -&gt; PAKNECONPRVTKN Min. att. -160%  max: 20%">
<path fill="none" stroke="black" stroke-width="8" d="M964.52,-503.16C986.28,-498.29 1008.32,-490.71 1027,-479 1049.59,-464.84 1040.52,-445.35 1063,-431 1068.84,-427.27 1075.05,-423.97 1081.48,-421.04"/>
<polygon fill="black" stroke="black" stroke-width="8" points="1084.54,-427.35 1091.05,-417.03 1079.12,-414.44 1084.54,-427.35"/>
</a>
</g>
</g>
<!-- PAKNYWRTTOTLCN -->
<g id="node16" class="node">
<title>PAKNYWRTTOTLCN</title>
<g id="a_node16"><a xlink:title="Wages
FRML  &lt;&gt; PAKNYWRTTOTLCN = (PAKNYWBINFMSH**PAKINFCES*(PAKNYWRTINFMCN)**(1-PAKINFCES)+PAKNYWBFORMSH**PAKINFCES*(PAKNYWRTFORMCN*(1+PAKGGREVDRCTXN/100))**(1-PAKINFCES))**(1/(1-PAKINFCES)) $">
<polygon fill="#63b8ff" stroke="black" points="583.5,-437 402.5,-437 402.5,-401 583.5,-401 583.5,-437"/>
<text text-anchor="start" x="409" y="-414.8" font-family="Times New Roman,serif" font-size="14.00" fill="blue">PAKNYWRTTOTLCN:Wages</text>
</a>
</g>
</g>
<!-- PAKNYWRTTOTLCN&#45;&gt;PAKNYYWBTOTLCN -->
<g id="edge20" class="edge">
<title>PAKNYWRTTOTLCN-&gt;PAKNYYWBTOTLCN</title>
<g id="a_edge20"><a xlink:href="bogus" xlink:title=" PAKNYWRTTOTLCN -&gt; PAKNYYWBTOTLCN Min. att. 16%  max: 106%">
<path fill="none" stroke="black" stroke-width="8" d="M583.78,-405.79C627.26,-399.39 680.35,-391.58 728.38,-384.51"/>
<polygon fill="black" stroke="black" stroke-width="8" points="729.68,-391.4 738.55,-383.02 727.64,-377.55 729.68,-391.4"/>
</a>
</g>
</g>
<!-- PAKNEGDIFTOTKN&#45;&gt;PAKNYGDPMKTPKN -->
<g id="edge7" class="edge">
<title>PAKNEGDIFTOTKN-&gt;PAKNYGDPMKTPKN</title>
<g id="a_edge7"><a xlink:href="bogus" xlink:title=" PAKNEGDIFTOTKN -&gt; PAKNYGDPMKTPKN Min. att. -36%  max: 366%">
<path fill="none" stroke="black" stroke-width="8" d="M1367.27,-270.67C1502.97,-283.29 1707.48,-303.17 1885,-324 1909.91,-326.92 1936.4,-330.28 1961.98,-333.65"/>
<polygon fill="black" stroke="black" stroke-width="8" points="1961.28,-340.62 1972.11,-334.99 1963.11,-326.74 1961.28,-340.62"/>
</a>
</g>
</g>
<!-- PAKNEGDIFTOTKN&#45;&gt;PAKNEGDETTOTKN -->
<g id="edge11" class="edge">
<title>PAKNEGDIFTOTKN-&gt;PAKNEGDETTOTKN</title>
<g id="a_edge11"><a xlink:href="bogus" xlink:title=" PAKNEGDIFTOTKN -&gt; PAKNEGDETTOTKN Min. att. -1115%  max: 1147%">
<path fill="none" stroke="black" stroke-width="8" d="M1280.91,-275.03C1307.68,-282.69 1338.94,-291.94 1367,-301 1396.28,-310.45 1428.53,-321.8 1455.31,-331.48"/>
<polygon fill="black" stroke="black" stroke-width="8" points="1453.12,-338.13 1464.91,-334.96 1457.89,-324.97 1453.12,-338.13"/>
</a>
</g>
</g>
<!-- PAKNEIMPGSNEXN -->
<g id="node18" class="node">
<title>PAKNEIMPGSNEXN</title>
<g id="a_node18"><a xlink:title="Imports (Non-energy)
FRML &lt;Z,EXO&gt; PAKNEIMPGSNEXN = (PAKNEIMPGSNEXN(-1)*EXP(-PAKNEIMPGSNEXN_A+ (-0.278529319815428*(LOG(PAKNEIMPGSNEXN(-1))-0.3*LOG(PAKNYGDPFCSTXN(-1))-(1-0.3)*LOG(PAKPMKEY(-1)*PAKPANUSATLS(-1)))+0.4*((LOG(PAKNYGDPFCSTXN))-(LOG(PAKNYGDPFCSTXN(-1))))+(1-0.4)*((LOG(PAKPMKEY*PAKPANUSATLS))-(LOG(PAKPMKEY(-1)*PAKPANUSATLS(-1))))-0.888813883474775+0.135666902654654*DURING_2012+0.216228696118762*DURING_2008) )) * (1-PAKNEIMPGSNEXN_D)+ PAKNEIMPGSNEXN_X*PAKNEIMPGSNEXN_D  $">
<polygon fill="#63b8ff" stroke="black" points="1345,-509 1085,-509 1085,-473 1345,-473 1345,-509"/>
<text text-anchor="start" x="1091" y="-486.8" font-family="Times New Roman,serif" font-size="14.00" fill="blue">PAKNEIMPGSNEXN:Imports (Non-energy)</text>
</a>
</g>
</g>
<!-- PAKNEIMPGSNEXN&#45;&gt;PAKNEIMPGNFSXN -->
<g id="edge17" class="edge">
<title>PAKNEIMPGSNEXN-&gt;PAKNEIMPGNFSXN</title>
<g id="a_edge17"><a xlink:href="bogus" xlink:title=" PAKNEIMPGSNEXN -&gt; PAKNEIMPGNFSXN Min. att. -4%  max: 63%">
<path fill="none" stroke="black" stroke-width="6.33" d="M1345.19,-491C1360.88,-491 1376.87,-491 1392.44,-491"/>
<polygon fill="black" stroke="black" stroke-width="6.33" points="1392.6,-496.54 1402.6,-491 1392.6,-485.46 1392.6,-496.54"/>
</a>
</g>
</g>
<!-- PAKNEKRTTOTLCN -->
<g id="node19" class="node">
<title>PAKNEKRTTOTLCN</title>
<g id="a_node19"><a xlink:title="PAKNEKRTTOTLCN
FRML &lt;Z,EXO&gt; PAKNEKRTTOTLCN = (-PAKNEKRTTOTLCN_A+ (((PAKUCK)-(PAKUCK(-1)))+7.05881784375082E-05*DUMH) +PAKNEKRTTOTLCN(-1)) * (1-PAKNEKRTTOTLCN_D)+ PAKNEKRTTOTLCN_X*PAKNEKRTTOTLCN_D  $">
<polygon fill="#63b8ff" stroke="black" points="563,-113 423,-113 423,-77 563,-77 563,-113"/>
<text text-anchor="start" x="429" y="-90.8" font-family="Times New Roman,serif" font-size="14.00" fill="blue">PAKNEKRTTOTLCN:</text>
</a>
</g>
</g>
<!-- PAKNEKRTTOTLCN&#45;&gt;PAKNEGDIFPRVKN -->
<g id="edge18" class="edge">
<title>PAKNEKRTTOTLCN-&gt;PAKNEGDIFPRVKN</title>
<g id="a_edge18"><a xlink:href="bogus" xlink:title=" PAKNEKRTTOTLCN -&gt; PAKNEGDIFPRVKN Min. att. -0%  max: 90%">
<path fill="none" stroke="black" stroke-width="8" d="M563.03,-100.08C610.43,-103.57 674.8,-108.3 731.59,-112.48"/>
<polygon fill="black" stroke="black" stroke-width="8" points="731.24,-119.47 741.73,-113.23 732.27,-105.51 731.24,-119.47"/>
</a>
</g>
</g>
<!-- PAKPSTAR -->
<g id="node21" class="node">
<title>PAKPSTAR</title>
<g id="a_node21"><a xlink:title="Nominal marginal cost
FRML  &lt;&gt; PAKPSTAR = (1/PAKNYGDPTFP)*((PAKNEKRTTOTLCN/(1-PAKNYYWBTOTLCN_))**(1-PAKNYYWBTOTLCN_))*((PAKNYWRTTOTLCN/PAKNYYWBTOTLCN_)**PAKNYYWBTOTLCN_) $">
<polygon fill="#63b8ff" stroke="black" points="598,-599 388,-599 388,-563 598,-563 598,-599"/>
<text text-anchor="start" x="394" y="-576.8" font-family="Times New Roman,serif" font-size="14.00" fill="blue">PAKPSTAR:Nominal marginal cost</text>
</a>
</g>
</g>
<!-- PAKPSTAR&#45;&gt;PAKNYGDPFCSTXN -->
<g id="edge23" class="edge">
<title>PAKPSTAR-&gt;PAKNYGDPFCSTXN</title>
<g id="a_edge23"><a xlink:href="bogus" xlink:title=" PAKPSTAR -&gt; PAKNYGDPFCSTXN Min. att. -20%  max: 2191%">
<path fill="none" stroke="black" stroke-width="8" d="M598.19,-576.46C639.37,-574.66 687.16,-572.58 730.61,-570.68"/>
<polygon fill="black" stroke="black" stroke-width="8" points="730.99,-577.67 740.68,-570.25 730.38,-563.69 730.99,-577.67"/>
</a>
</g>
</g>
<!-- PAKNECONOTHRXN -->
<g id="node22" class="node">
<title>PAKNECONOTHRXN</title>
<g id="a_node22"><a xlink:title="Non-Energy Consumption
FRML &lt;Z,EXO&gt; PAKNECONOTHRXN = (PAKNECONOTHRXN(-1)*EXP(-PAKNECONOTHRXN_A+ (0.598859116610832*((LOG(PAKNYGDPFCSTXN))-(LOG(PAKNYGDPFCSTXN(-1))))+((PAKGGREVGNFSXN/100)-(PAKGGREVGNFSXN(-1)/100))+(1-0.598859116610832)*((LOG(PAKNEIMPGNFSXN))-(LOG(PAKNEIMPGNFSXN(-1))))+0.2*PAKNYGDPGAP_/100) )) * (1-PAKNECONOTHRXN_D)+ PAKNECONOTHRXN_X*PAKNECONOTHRXN_D  $">
<polygon fill="#63b8ff" stroke="black" points="289,-464 0,-464 0,-428 289,-428 289,-464"/>
<text text-anchor="start" x="6.5" y="-441.8" font-family="Times New Roman,serif" font-size="14.00" fill="blue">PAKNECONOTHRXN:Non-Energy Consumption</text>
</a>
</g>
</g>
<!-- PAKNECONOTHRXN&#45;&gt;PAKNECONPRVTXN -->
<g id="edge19" class="edge">
<title>PAKNECONOTHRXN-&gt;PAKNECONPRVTXN</title>
<g id="a_edge19"><a xlink:href="bogus" xlink:title=" PAKNECONOTHRXN -&gt; PAKNECONPRVTXN Min. att. 71%  max: 99%">
<path fill="none" stroke="black" stroke-width="8" d="M289.19,-457.2C312.28,-459 336.1,-460.85 358.93,-462.63"/>
<polygon fill="black" stroke="black" stroke-width="8" points="358.49,-469.62 369,-463.42 359.57,-455.66 358.49,-469.62"/>
</a>
</g>
</g>
<!-- PAKNEIMPGNFSKN&#45;&gt;PAKNYGDPMKTPKN -->
<g id="edge21" class="edge">
<title>PAKNEIMPGNFSKN-&gt;PAKNYGDPMKTPKN</title>
<g id="a_edge21"><a xlink:href="bogus" xlink:title=" PAKNEIMPGNFSKN -&gt; PAKNYGDPMKTPKN Min. att. -46%  max: 456%">
<path fill="none" stroke="black" stroke-width="8" d="M1838.52,-426.93C1892.57,-411.68 1969.99,-389.83 2026.66,-373.84"/>
<polygon fill="black" stroke="black" stroke-width="8" points="2028.91,-380.48 2036.63,-371.03 2025.1,-367 2028.91,-380.48"/>
</a>
</g>
</g>
<!-- PAKNECONPRVTXN&#45;&gt;PAKNECONPRVTKN -->
<g id="edge27" class="edge">
<title>PAKNECONPRVTXN-&gt;PAKNECONPRVTKN</title>
<g id="a_edge27"><a xlink:href="bogus" xlink:title=" PAKNECONPRVTXN -&gt; PAKNECONPRVTKN Min. att. -5708%  max: 593%">
<path fill="none" stroke="black" stroke-width="8" d="M617.08,-478.63C726.16,-480.82 889.08,-477.23 1027,-446 1043.91,-442.17 1046.45,-436.15 1063,-431 1076.72,-426.73 1091.32,-422.84 1105.82,-419.37"/>
<polygon fill="black" stroke="black" stroke-width="8" points="1107.7,-426.12 1115.84,-417.03 1104.51,-412.49 1107.7,-426.12"/>
</a>
</g>
</g>
<!-- PAKNECONPRVTXN&#45;&gt;PAKFMLBLPOLYXN -->
<g id="edge28" class="edge">
<title>PAKNECONPRVTXN-&gt;PAKFMLBLPOLYXN</title>
<g id="a_edge28"><a xlink:href="bogus" xlink:title=" PAKNECONPRVTXN -&gt; PAKFMLBLPOLYXN Min. att. -94%  max: 1459%">
<path fill="none" stroke="black" stroke-width="8" d="M617.23,-485.76C659.93,-490.18 707.54,-495.11 749.27,-499.43"/>
<polygon fill="black" stroke="black" stroke-width="8" points="748.8,-506.42 759.47,-500.49 750.24,-492.49 748.8,-506.42"/>
</a>
</g>
</g>
<!-- PAKNECONGOVTXN -->
<g id="node25" class="node">
<title>PAKNECONGOVTXN</title>
<g id="a_node25"><a xlink:title="Government consumption (G&amp;S)
FRML &lt;Z,EXO&gt; PAKNECONGOVTXN = (PAKNECONGOVTXN(-1)*EXP(-PAKNECONGOVTXN_A+ (-0.3*(LOG(PAKNECONGOVTXN(-1))-LOG(PAKNECONPRVTXN(-1)))+0.0752362082122748+0.5*((LOG(PAKNECONGOVTXN(-1)))-(LOG(PAKNECONGOVTXN(-2))))+(1-0.5)*((LOG(PAKNECONPRVTXN))-(LOG(PAKNECONPRVTXN(-1))))) )) * (1-PAKNECONGOVTXN_D)+ PAKNECONGOVTXN_X*PAKNECONGOVTXN_D  $">
<polygon fill="#63b8ff" stroke="black" points="1027,-437 697,-437 697,-401 1027,-401 1027,-437"/>
<text text-anchor="start" x="703" y="-414.8" font-family="Times New Roman,serif" font-size="14.00" fill="blue">PAKNECONGOVTXN:Government consumption (G&amp;S)</text>
</a>
</g>
</g>
<!-- PAKNECONPRVTXN&#45;&gt;PAKNECONGOVTXN -->
<g id="edge14" class="edge">
<title>PAKNECONPRVTXN-&gt;PAKNECONGOVTXN</title>
<g id="a_edge14"><a xlink:href="bogus" xlink:title=" PAKNECONPRVTXN -&gt; PAKNECONGOVTXN Min. att. 26%  max: 100%">
<path fill="none" stroke="black" stroke-width="8" d="M616.46,-454.98C652.38,-449.7 691.81,-443.89 728.33,-438.52"/>
<polygon fill="black" stroke="black" stroke-width="8" points="729.68,-445.4 738.55,-437.02 727.64,-431.55 729.68,-445.4"/>
</a>
</g>
</g>
<!-- PAKNECONGOVTXN&#45;&gt;PAKNECONGOVTKN -->
<g id="edge2" class="edge">
<title>PAKNECONGOVTXN-&gt;PAKNECONGOVTKN</title>
<g id="a_edge2"><a xlink:href="bogus" xlink:title=" PAKNECONGOVTXN -&gt; PAKNECONGOVTKN Min. att. -867%  max: -19%">
<path fill="none" stroke="black" stroke-width="8" d="M996.88,-400.91C1007.18,-398.32 1017.33,-395.37 1027,-392 1044.29,-385.98 1046.11,-379.05 1063,-372 1084.29,-363.11 1107.98,-355.3 1130.16,-348.82"/>
<polygon fill="black" stroke="black" stroke-width="8" points="1132.21,-355.52 1139.9,-346.03 1128.36,-342.06 1132.21,-355.52"/>
</a>
</g>
</g>
<!-- PAKGGEXPGNFSCN -->
<g id="node26" class="node">
<title>PAKGGEXPGNFSCN</title>
<g id="a_node26"><a xlink:title="Expenditure on Goods and Services
FRML &lt;Z,EXO&gt; PAKGGEXPGNFSCN = (0.3*PAKGGEXPGNFSCN(-1)+(1-0.3)*(0.80*(PAKGGREVTOTLCN-PAKGGEXPINTPCN(-0)))+505277.259999999*DURING_2012 + PAKGGEXPGNFSCN_A)* (1-PAKGGEXPGNFSCN_D)+ PAKGGEXPGNFSCN_X*PAKGGEXPGNFSCN_D  $">
<polygon fill="#63b8ff" stroke="black" points="661,-329 325,-329 325,-293 661,-293 661,-329"/>
<text text-anchor="start" x="331" y="-306.8" font-family="Times New Roman,serif" font-size="14.00" fill="blue">PAKGGEXPGNFSCN:Expenditure on Goods and Services</text>
</a>
</g>
</g>
<!-- PAKNECONGOVTCN -->
<g id="node28" class="node">
<title>PAKNECONGOVTCN</title>
<g id="a_node28"><a xlink:title="Government consumption (G&amp;S)
FRML &lt;Z,EXO&gt; PAKNECONGOVTCN = (-PAKNECONGOVTCN_A*PAKNECONGOVTCN(-1)/100+ ((100 * ( (PAKGGEXPGNFSCN) / (PAKGGEXPGNFSCN(-1)) -1)) +0.764199817873939*DUMH) *PAKNECONGOVTCN(-1)/100+PAKNECONGOVTCN(-1)) * (1-PAKNECONGOVTCN_D)+ PAKNECONGOVTCN_X*PAKNECONGOVTCN_D  $">
<polygon fill="#63b8ff" stroke="black" points="1026.5,-329 697.5,-329 697.5,-293 1026.5,-293 1026.5,-329"/>
<text text-anchor="start" x="704" y="-306.8" font-family="Times New Roman,serif" font-size="14.00" fill="blue">PAKNECONGOVTCN:Government consumption (G&amp;S)</text>
</a>
</g>
</g>
<!-- PAKGGEXPGNFSCN&#45;&gt;PAKNECONGOVTCN -->
<g id="edge3" class="edge">
<title>PAKGGEXPGNFSCN-&gt;PAKNECONGOVTCN</title>
<g id="a_edge3"><a xlink:href="bogus" xlink:title=" PAKGGEXPGNFSCN -&gt; PAKNECONGOVTCN Min. att. -18%  max: 100%">
<path fill="none" stroke="black" stroke-width="8" d="M661.12,-311C669.76,-311 678.44,-311 687.1,-311"/>
<polygon fill="black" stroke="black" stroke-width="8" points="687.24,-318 697.24,-311 687.24,-304 687.24,-318"/>
</a>
</g>
</g>
<!-- PAKNEGDETTOTKN&#45;&gt;PAKNEIMPGNFSKN -->
<g id="edge10" class="edge">
<title>PAKNEGDETTOTKN-&gt;PAKNEIMPGNFSKN</title>
<g id="a_edge10"><a xlink:href="bogus" xlink:title=" PAKNEGDETTOTKN -&gt; PAKNEIMPGNFSKN Min. att. -755%  max: 207%">
<path fill="none" stroke="black" stroke-width="8" d="M1565.97,-371.07C1608.05,-386.13 1668.1,-407.63 1712.61,-423.56"/>
<polygon fill="black" stroke="black" stroke-width="8" points="1710.37,-430.19 1722.15,-426.97 1715.09,-417.01 1710.37,-430.19"/>
</a>
</g>
</g>
<!-- PAKNECONGOVTCN&#45;&gt;PAKNECONGOVTKN -->
<g id="edge34" class="edge">
<title>PAKNECONGOVTCN-&gt;PAKNECONGOVTKN</title>
<g id="a_edge34"><a xlink:href="bogus" xlink:title=" PAKNECONGOVTCN -&gt; PAKNECONGOVTKN Min. att. 117%  max: 963%">
<path fill="none" stroke="black" stroke-width="8" d="M1026.68,-318.93C1037.38,-319.45 1048.14,-319.97 1058.8,-320.48"/>
<polygon fill="black" stroke="black" stroke-width="8" points="1058.65,-327.48 1068.98,-320.98 1059.33,-313.5 1058.65,-327.48"/>
</a>
</g>
</g>
<!-- PAKNEGDIFGOVKN&#45;&gt;PAKNEGDIFTOTKN -->
<g id="edge15" class="edge">
<title>PAKNEGDIFGOVKN-&gt;PAKNEGDIFTOTKN</title>
<g id="a_edge15"><a xlink:href="bogus" xlink:title=" PAKNEGDIFGOVKN -&gt; PAKNEGDIFTOTKN Min. att. 6%  max: 105%">
<path fill="none" stroke="black" stroke-width="8" d="M999.21,-257C1016.61,-257 1034.55,-257 1052.3,-257"/>
<polygon fill="black" stroke="black" stroke-width="8" points="1052.72,-264 1062.72,-257 1052.72,-250 1052.72,-264"/>
</a>
</g>
</g>
</g>
</svg>