<svg xmlns="http://www.w3.org/2000/svg" xmlns:xlink="http://www.w3.org/1999/xlink" width="432pt" height="122pt" viewBox="0.00 0.00 432.00 121.68">
<g id="graph0" class="graph" transform="scale(0.188646 0.188646) rotate(0) translate(4 641)">
<title>TD</title>
<polygon fill="white" stroke="none" points="-4,4 -4,-641 2286,-641 2286,4 -4,4"/>
<text text-anchor="middle" x="1141" y="-7.8" font-family="Times New Roman,serif" font-size="14.00">PAKNYGDPMKTPKN</text>
<!-- PAKNYGDPFCSTXN -->
<g id="node1" class="node">
<title>PAKNYGDPFCSTXN</title>
<g id="a_node1"><a xlink:title="GDP at factor cost
FRML &lt;Z,EXO&gt; PAKNYGDPFCSTXN = (PAKNYGDPFCSTXN(-1)*EXP(-PAKNYGDPFCSTXN_A+ (0.6*((LOG(PAKNYGDPFCSTXN(-1)))-(LOG(PAKNYGDPFCSTXN(-2))))+(1-0.6)*(0.7*PAKINFLEXPT/100+(1-0.7)*((LOG(PAKPSTAR(-1)))-(LOG(PAKPSTAR(-2)))))+0.25*PAKNYGDPGAP_/100+0.262461811660072*DURING_2000-0.205776950553378*DURING_2001) )) * (1-PAKNYGDPFCSTXN_D)+ PAKNYGDPFCSTXN_X*PAKNYGDPFCSTXN_D  $">
<polygon fill="#63b8ff" stroke="black" points="983,-437 741,-437 741,-401 983,-401 983,-437"/>
<text text-anchor="start" x="747" y="-414.8" font-family="Times New Roman,serif" font-size="14.00" fill="blue">PAKNYGDPFCSTXN:GDP at factor cost</text>
</a>
</g>
</g>
<!-- PAKNEIMPGNFSKN -->
<g id="node22" class="node">
<title>PAKNEIMPGNFSKN</title>
<g id="a_node22"><a xlink:title="Imports (G&amp;S)
FRML &lt;Z,EXO&gt; PAKNEIMPGNFSKN = (PAKNEIMPGNFSKN(-1)*EXP(-PAKNEIMPGNFSKN_A+ (-0.324143718656754*(LOG(PAKNEIMPGNFSKN(-1))-LOG(PAKNEGDETTOTKN(-1))+0.8*LOG(PAKNEIMPGNFSXN(-1)/PAKNYGDPFCSTXN(-1)))-0.583459272245018+1*((LOG(PAKNEGDETTOTKN))-(LOG(PAKNEGDETTOTKN(-1))))-0.0921874580409631*((LOG(PAKNEIMPGNFSXN/PAKNYGDPFCSTXN))-(LOG(PAKNEIMPGNFSXN(-1)/PAKNYGDPFCSTXN(-1))))-0.0361746331863615*DURING_2012) )) * (1-PAKNEIMPGNFSKN_D)+ PAKNEIMPGNFSKN_X*PAKNEIMPGNFSKN_D  $">
<polygon fill="#63b8ff" stroke="black" points="1885,-462 1662,-462 1662,-426 1885,-426 1885,-462"/>
<text text-anchor="start" x="1668.5" y="-439.8" font-family="Times New Roman,serif" font-size="14.00" fill="blue">PAKNEIMPGNFSKN:Imports (G&amp;S)</text>
</a>
</g>
</g>
<!-- PAKNYGDPFCSTXN&#45;&gt;PAKNEIMPGNFSKN -->
<g id="edge28" class="edge">
<title>PAKNYGDPFCSTXN-&gt;PAKNEIMPGNFSKN</title>
<g id="a_edge28"><a xlink:href="bogus" xlink:title=" PAKNYGDPFCSTXN -&gt; PAKNEIMPGNFSKN Min. att. -1112%  max: 296%">
<path fill="none" stroke="black" stroke-width="8" d="M983.27,-421.4C1133.63,-424.54 1398.87,-430.52 1626,-438 1634.32,-438.27 1642.91,-438.58 1651.55,-438.89"/>
<polygon fill="black" stroke="black" stroke-width="8" points="1651.46,-445.9 1661.72,-439.27 1651.99,-431.91 1651.46,-445.9"/>
</a>
</g>
</g>
<!-- PAKNEIMPGNFSXN -->
<g id="node2" class="node">
<title>PAKNEIMPGNFSXN</title>
<g id="a_node2"><a xlink:title="Imports (G&amp;S)
FRML  &lt;&gt; PAKNEIMPGNFSXN = ((PAKNEIMPENGYSH**PAKCESENGYIMPT)*PAKNVENGNIMPXN**(1-PAKCESENGYIMPT)+(PAKNEIMPOTHRSH**PAKCESENGYIMPT)*PAKNEIMPGSNEXN**(1-PAKCESENGYIMPT))**(1/(1-PAKCESENGYIMPT)) $">
<polygon fill="#63b8ff" stroke="black" points="1626,-337 1403,-337 1403,-301 1626,-301 1626,-337"/>
<text text-anchor="start" x="1409.5" y="-314.8" font-family="Times New Roman,serif" font-size="14.00" fill="blue">PAKNEIMPGNFSXN:Imports (G&amp;S)</text>
</a>
</g>
</g>
<!-- PAKNEIMPGNFSXN&#45;&gt;PAKNEIMPGNFSKN -->
<g id="edge3" class="edge">
<title>PAKNEIMPGNFSXN-&gt;PAKNEIMPGNFSKN</title>
<g id="a_edge3"><a xlink:href="bogus" xlink:title=" PAKNEIMPGNFSXN -&gt; PAKNEIMPGNFSKN Min. att. -390%  max: 1559%">
<path fill="none" stroke="black" stroke-width="8" d="M1552.6,-337.04C1598.43,-359.34 1676.44,-397.28 1726.17,-421.47"/>
<polygon fill="black" stroke="black" stroke-width="8" points="1723.36,-427.88 1735.42,-425.96 1729.48,-415.29 1723.36,-427.88"/>
</a>
</g>
</g>
<!-- PAKNEGDIKSTKKN -->
<g id="node3" class="node">
<title>PAKNEGDIKSTKKN</title>
<g id="a_node3"><a xlink:title="Domestic Capital
FRML  &lt;&gt; PAKNEGDIKSTKKN = (PAKNEGDIKSTKKN(-1)*(1-PAKDEPR))+PAKNEGDIFTOTKN2-2*PAKHURDAMKN $">
<polygon fill="#63b8ff" stroke="black" points="610.5,-167 375.5,-167 375.5,-131 610.5,-131 610.5,-167"/>
<text text-anchor="start" x="382" y="-144.8" font-family="Times New Roman,serif" font-size="14.00" fill="blue">PAKNEGDIKSTKKN:Domestic Capital</text>
</a>
</g>
</g>
<!-- PAKNEGDIFPRVKN -->
<g id="node25" class="node">
<title>PAKNEGDIFPRVKN</title>
<g id="a_node25"><a xlink:title="Private Investment
FRML &lt;Z,EXO&gt; PAKNEGDIFPRVKN = (-PAKNEGDIFPRVKN_A*PAKNEGDIKSTKKN(-1)+ (-0.00526826150713402+0.826734606421746*(PAKNEGDIFPRVKN(-1)/PAKNEGDIKSTKKN(-2))+(1-0.826734606421746)*(((LOG(PAKNYGDPPOTLKN))-(LOG(PAKNYGDPPOTLKN(-1))))+PAKDEPR)-0.00378813564556318*((LOG(PAKNEKRTTOTLCN/PAKNYGDPFCSTXN))-(LOG(PAKNEKRTTOTLCN(-1)/PAKNYGDPFCSTXN(-1))))) *PAKNEGDIKSTKKN(-1)) * (1-PAKNEGDIFPRVKN_D)+ PAKNEGDIFPRVKN_X*PAKNEGDIFPRVKN_D  $">
<polygon fill="#63b8ff" stroke="black" points="982,-140 742,-140 742,-104 982,-104 982,-140"/>
<text text-anchor="start" x="748" y="-117.8" font-family="Times New Roman,serif" font-size="14.00" fill="blue">PAKNEGDIFPRVKN:Private Investment</text>
</a>
</g>
</g>
<!-- PAKNEGDIKSTKKN&#45;&gt;PAKNEGDIFPRVKN -->
<g id="edge10" class="edge">
<title>PAKNEGDIKSTKKN-&gt;PAKNEGDIFPRVKN</title>
<g id="a_edge10"><a xlink:href="bogus" xlink:title=" PAKNEGDIKSTKKN -&gt; PAKNEGDIFPRVKN Min. att. 0%  max: 76%">
<path fill="none" stroke="black" stroke-width="7.57" d="M610.63,-140.42C649.15,-137.59 692.22,-134.42 731.63,-131.52"/>
<polygon fill="black" stroke="black" stroke-width="7.57" points="732.35,-138.1 741.84,-130.77 731.38,-124.9 732.35,-138.1"/>
</a>
</g>
</g>
<!-- PAKFMLBLPOLYXN -->
<g id="node4" class="node">
<title>PAKFMLBLPOLYXN</title>
<g id="a_node4"><a xlink:title="Policy Rate
FRML &lt;Z,EXO&gt; PAKFMLBLPOLYXN = (-100*PAKFMLBLPOLYXN_A+100* (0.905129162122953*PAKFMLBLPOLYXN(-1)/100+(1-0.905129162122953)*(PAKMPPOLNATRXN/100+1.2*(((LOG(PAKNECONPRVTXN))-(LOG(PAKNECONPRVTXN(-1))))-PAKINFLEXPT/100)+0.5*PAKNYGDPGAP_/100)) ) * (1-PAKFMLBLPOLYXN_D)+ PAKFMLBLPOLYXN_X*PAKFMLBLPOLYXN_D  $">
<polygon fill="#63b8ff" stroke="black" points="964.5,-491 759.5,-491 759.5,-455 964.5,-455 964.5,-491"/>
<text text-anchor="start" x="766" y="-468.8" font-family="Times New Roman,serif" font-size="14.00" fill="blue">PAKFMLBLPOLYXN:Policy Rate</text>
</a>
</g>
</g>
<!-- PAKNECONPRVTKN -->
<g id="node15" class="node">
<title>PAKNECONPRVTKN</title>
<g id="a_node15"><a xlink:title="Household Consumption
FRML &lt;Z,EXO&gt; PAKNECONPRVTKN = (PAKNECONPRVTKN(-1)*EXP(-PAKNECONPRVTKN_A+ (-0.2*(LOG(PAKNECONPRVTKN(-1))-LOG((PAKNYYWBTOTLCN(-1)*(1-PAKGGREVDRCTXN(-1)/100))/PAKNECONPRVTXN(-1)))+1*((LOG((PAKNYYWBTOTLCN*(1-PAKGGREVDRCTXN/100))/PAKNECONPRVTXN))-(LOG((PAKNYYWBTOTLCN(-1)*(1-PAKGGREVDRCTXN(-1)/100))/PAKNECONPRVTXN(-1))))+0.0303228629698929+0.0163839011059956*DURING_2010-0.3*(PAKFMLBLPOLYXN/100-((LOG(PAKNECONPRVTXN))-(LOG(PAKNECONPRVTXN(-1)))))) )) * (1-PAKNECONPRVTKN_D)+ PAKNECONPRVTKN_X*PAKNECONPRVTKN_D  $">
<polygon fill="#63b8ff" stroke="black" points="1354,-491 1076,-491 1076,-455 1354,-455 1354,-491"/>
<text text-anchor="start" x="1082" y="-468.8" font-family="Times New Roman,serif" font-size="14.00" fill="blue">PAKNECONPRVTKN:Household Consumption</text>
</a>
</g>
</g>
<!-- PAKFMLBLPOLYXN&#45;&gt;PAKNECONPRVTKN -->
<g id="edge15" class="edge">
<title>PAKFMLBLPOLYXN-&gt;PAKNECONPRVTKN</title>
<g id="a_edge15"><a xlink:href="bogus" xlink:title=" PAKFMLBLPOLYXN -&gt; PAKNECONPRVTKN Min. att. -160%  max: 20%">
<path fill="none" stroke="black" stroke-width="8" d="M964.52,-473C996.13,-473 1031.65,-473 1065.76,-473"/>
<polygon fill="black" stroke="black" stroke-width="8" points="1065.82,-480 1075.82,-473 1065.82,-466 1065.82,-480"/>
</a>
</g>
</g>
<!-- PAKNECONPRVTXN -->
<g id="node5" class="node">
<title>PAKNECONPRVTXN</title>
<g id="a_node5"><a xlink:title="Household demand
FRML  &lt;&gt; PAKNECONPRVTXN = ((PAKNECONENGYSH**PAKCESENGYCON)*PAKNECONENGYXN**(1-PAKCESENGYCON)+(PAKNECONOTHRSH**PAKCESENGYCON)*PAKNECONOTHRXN**(1-PAKCESENGYCON))**(1/(1-PAKCESENGYCON)) $">
<polygon fill="#63b8ff" stroke="black" points="617,-545 369,-545 369,-509 617,-509 617,-545"/>
<text text-anchor="start" x="375" y="-522.8" font-family="Times New Roman,serif" font-size="14.00" fill="blue">PAKNECONPRVTXN:Household demand</text>
</a>
</g>
</g>
<!-- PAKNECONPRVTXN&#45;&gt;PAKFMLBLPOLYXN -->
<g id="edge16" class="edge">
<title>PAKNECONPRVTXN-&gt;PAKFMLBLPOLYXN</title>
<g id="a_edge16"><a xlink:href="bogus" xlink:title=" PAKNECONPRVTXN -&gt; PAKFMLBLPOLYXN Min. att. -94%  max: 1459%">
<path fill="none" stroke="black" stroke-width="8" d="M616.46,-508.98C659.4,-502.66 707.37,-495.61 749.37,-489.43"/>
<polygon fill="black" stroke="black" stroke-width="8" points="750.48,-496.34 759.35,-487.96 748.44,-482.49 750.48,-496.34"/>
</a>
</g>
</g>
<!-- PAKNECONGOVTXN -->
<g id="node10" class="node">
<title>PAKNECONGOVTXN</title>
<g id="a_node10"><a xlink:title="Government consumption (G&amp;S)
FRML &lt;Z,EXO&gt; PAKNECONGOVTXN = (PAKNECONGOVTXN(-1)*EXP(-PAKNECONGOVTXN_A+ (-0.3*(LOG(PAKNECONGOVTXN(-1))-LOG(PAKNECONPRVTXN(-1)))+0.0752362082122748+0.5*((LOG(PAKNECONGOVTXN(-1)))-(LOG(PAKNECONGOVTXN(-2))))+(1-0.5)*((LOG(PAKNECONPRVTXN))-(LOG(PAKNECONPRVTXN(-1))))) )) * (1-PAKNECONGOVTXN_D)+ PAKNECONGOVTXN_X*PAKNECONGOVTXN_D  $">
<polygon fill="#63b8ff" stroke="black" points="1027,-583 697,-583 697,-547 1027,-547 1027,-583"/>
<text text-anchor="start" x="703" y="-560.8" font-family="Times New Roman,serif" font-size="14.00" fill="blue">PAKNECONGOVTXN:Government consumption (G&amp;S)</text>
</a>
</g>
</g>
<!-- PAKNECONPRVTXN&#45;&gt;PAKNECONGOVTXN -->
<g id="edge25" class="edge">
<title>PAKNECONPRVTXN-&gt;PAKNECONGOVTXN</title>
<g id="a_edge25"><a xlink:href="bogus" xlink:title=" PAKNECONPRVTXN -&gt; PAKNECONGOVTXN Min. att. 26%  max: 100%">
<path fill="none" stroke="black" stroke-width="8" d="M617.23,-539.76C639.55,-542.07 663.21,-544.52 686.66,-546.95"/>
<polygon fill="black" stroke="black" stroke-width="8" points="686.03,-553.92 696.7,-547.99 687.48,-540 686.03,-553.92"/>
</a>
</g>
</g>
<!-- PAKNECONPRVTXN&#45;&gt;PAKNECONPRVTKN -->
<g id="edge6" class="edge">
<title>PAKNECONPRVTXN-&gt;PAKNECONPRVTKN</title>
<g id="a_edge6"><a xlink:href="bogus" xlink:title=" PAKNECONPRVTXN -&gt; PAKNECONPRVTKN Min. att. -5708%  max: 593%">
<path fill="none" stroke="black" stroke-width="8" d="M617.02,-524.01C725.21,-520.6 886.83,-513.64 1027,-500 1047.72,-497.98 1069.65,-495.31 1090.93,-492.43"/>
<polygon fill="black" stroke="black" stroke-width="8" points="1092.03,-499.34 1100.98,-491.04 1090.12,-485.47 1092.03,-499.34"/>
</a>
</g>
</g>
<!-- PAKNEGDIFGOVKN -->
<g id="node6" class="node">
<title>PAKNEGDIFGOVKN</title>
<g id="a_node6"><a xlink:title="Government Investment
FRML  &lt;&gt; PAKNEGDIFGOVKN = PAKNEGDIFGOVCN/PAKNEGDIFGOVXN $">
<polygon fill="#63b8ff" stroke="black" points="999,-275 725,-275 725,-239 999,-239 999,-275"/>
<text text-anchor="start" x="731" y="-252.8" font-family="Times New Roman,serif" font-size="14.00" fill="blue">PAKNEGDIFGOVKN:Government Investment</text>
</a>
</g>
</g>
<!-- PAKNEGDIFTOTKN -->
<g id="node7" class="node">
<title>PAKNEGDIFTOTKN</title>
<g id="a_node7"><a xlink:title="Total Gross Capital Formation
FRML  &lt;&gt; PAKNEGDIFTOTKN = PAKNEGDIFGOVKN+PAKNEGDIFPRVKN $">
<polygon fill="#63b8ff" stroke="black" points="1367,-391 1063,-391 1063,-355 1367,-355 1367,-391"/>
<text text-anchor="start" x="1069" y="-368.8" font-family="Times New Roman,serif" font-size="14.00" fill="blue">PAKNEGDIFTOTKN:Total Gross Capital Formation</text>
</a>
</g>
</g>
<!-- PAKNEGDIFGOVKN&#45;&gt;PAKNEGDIFTOTKN -->
<g id="edge32" class="edge">
<title>PAKNEGDIFGOVKN-&gt;PAKNEGDIFTOTKN</title>
<g id="a_edge32"><a xlink:href="bogus" xlink:title=" PAKNEGDIFGOVKN -&gt; PAKNEGDIFTOTKN Min. att. 6%  max: 105%">
<path fill="none" stroke="black" stroke-width="8" d="M896.71,-275.04C935.7,-295.18 1002.33,-327.38 1063,-346 1070.69,-348.36 1078.67,-350.54 1086.76,-352.55"/>
<polygon fill="black" stroke="black" stroke-width="8" points="1085.33,-359.4 1096.68,-354.92 1088.58,-345.79 1085.33,-359.4"/>
</a>
</g>
</g>
<!-- PAKNYGDPMKTPKN -->
<g id="node24" class="node">
<title>PAKNYGDPMKTPKN</title>
<g id="a_node24"><a xlink:title="GDP Expenditure side at market prices
FRML  &lt;&gt; PAKNYGDPMKTPKN = PAKNECONPRVTKN+PAKNECONGOVTKN+PAKNEGDIFTOTKN+PAKNEGDISTKBKN+PAKNEEXPGNFSKN-PAKNEIMPGNFSKN+PAKNYGDPDISCKN+PAKADAP*PAKDISPREPKN $">
<polygon fill="red" stroke="black" points="2282,-506 1921,-506 1921,-470 2282,-470 2282,-506"/>
<text text-anchor="start" x="1927.5" y="-483.8" font-family="Times New Roman,serif" font-size="14.00" fill="blue">PAKNYGDPMKTPKN:GDP Expenditure side at market prices</text>
</a>
</g>
</g>
<!-- PAKNEGDIFTOTKN&#45;&gt;PAKNYGDPMKTPKN -->
<g id="edge5" class="edge">
<title>PAKNEGDIFTOTKN-&gt;PAKNYGDPMKTPKN</title>
<g id="a_edge5"><a xlink:href="bogus" xlink:title=" PAKNEGDIFTOTKN -&gt; PAKNYGDPMKTPKN Min. att. -36%  max: 366%">
<path fill="none" stroke="black" stroke-width="8" d="M1367.18,-372.11C1503.69,-373.87 1709.47,-382.88 1885,-417 1941.8,-428.04 2004.37,-449.79 2047.38,-466.32"/>
<polygon fill="black" stroke="black" stroke-width="8" points="2044.94,-472.88 2056.8,-469.97 2050.01,-459.83 2044.94,-472.88"/>
</a>
</g>
</g>
<!-- PAKNEGDETTOTKN -->
<g id="node26" class="node">
<title>PAKNEGDETTOTKN</title>
<g id="a_node26"><a xlink:title="GDE
FRML  &lt;&gt; PAKNEGDETTOTKN = (PAKNECONPRVTKN+PAKNECONGOVTKN+PAKNEGDIFTOTKN+PAKNEGDISTKBKN+PAKNYGDPDISCKN) $">
<polygon fill="#63b8ff" stroke="black" points="1599.5,-483 1429.5,-483 1429.5,-447 1599.5,-447 1599.5,-483"/>
<text text-anchor="start" x="1435.5" y="-460.8" font-family="Times New Roman,serif" font-size="14.00" fill="blue">PAKNEGDETTOTKN:GDE</text>
</a>
</g>
</g>
<!-- PAKNEGDIFTOTKN&#45;&gt;PAKNEGDETTOTKN -->
<g id="edge14" class="edge">
<title>PAKNEGDIFTOTKN-&gt;PAKNEGDETTOTKN</title>
<g id="a_edge14"><a xlink:href="bogus" xlink:title=" PAKNEGDIFTOTKN -&gt; PAKNEGDETTOTKN Min. att. -1115%  max: 1147%">
<path fill="none" stroke="black" stroke-width="8" d="M1274.42,-391.07C1323.54,-406.26 1393.82,-427.99 1445.47,-443.96"/>
<polygon fill="black" stroke="black" stroke-width="8" points="1443.59,-450.71 1455.21,-446.97 1447.73,-437.33 1443.59,-450.71"/>
</a>
</g>
</g>
<!-- PAKGGEXPGNFSCN -->
<g id="node8" class="node">
<title>PAKGGEXPGNFSCN</title>
<g id="a_node8"><a xlink:title="Expenditure on Goods and Services
FRML &lt;Z,EXO&gt; PAKGGEXPGNFSCN = (0.3*PAKGGEXPGNFSCN(-1)+(1-0.3)*(0.80*(PAKGGREVTOTLCN-PAKGGEXPINTPCN(-0)))+505277.259999999*DURING_2012 + PAKGGEXPGNFSCN_A)* (1-PAKGGEXPGNFSCN_D)+ PAKGGEXPGNFSCN_X*PAKGGEXPGNFSCN_D  $">
<polygon fill="#63b8ff" stroke="black" points="661,-637 325,-637 325,-601 661,-601 661,-637"/>
<text text-anchor="start" x="331" y="-614.8" font-family="Times New Roman,serif" font-size="14.00" fill="blue">PAKGGEXPGNFSCN:Expenditure on Goods and Services</text>
</a>
</g>
</g>
<!-- PAKNECONGOVTCN -->
<g id="node17" class="node">
<title>PAKNECONGOVTCN</title>
<g id="a_node17"><a xlink:title="Government consumption (G&amp;S)
FRML &lt;Z,EXO&gt; PAKNECONGOVTCN = (-PAKNECONGOVTCN_A*PAKNECONGOVTCN(-1)/100+ ((100 * ( (PAKGGEXPGNFSCN) / (PAKGGEXPGNFSCN(-1)) -1)) +0.764199817873939*DUMH) *PAKNECONGOVTCN(-1)/100+PAKNECONGOVTCN(-1)) * (1-PAKNECONGOVTCN_D)+ PAKNECONGOVTCN_X*PAKNECONGOVTCN_D  $">
<polygon fill="#63b8ff" stroke="black" points="1026.5,-637 697.5,-637 697.5,-601 1026.5,-601 1026.5,-637"/>
<text text-anchor="start" x="704" y="-614.8" font-family="Times New Roman,serif" font-size="14.00" fill="blue">PAKNECONGOVTCN:Government consumption (G&amp;S)</text>
</a>
</g>
</g>
<!-- PAKGGEXPGNFSCN&#45;&gt;PAKNECONGOVTCN -->
<g id="edge24" class="edge">
<title>PAKGGEXPGNFSCN-&gt;PAKNECONGOVTCN</title>
<g id="a_edge24"><a xlink:href="bogus" xlink:title=" PAKGGEXPGNFSCN -&gt; PAKNECONGOVTCN Min. att. -18%  max: 100%">
<path fill="none" stroke="black" stroke-width="8" d="M661.12,-619C669.76,-619 678.44,-619 687.1,-619"/>
<polygon fill="black" stroke="black" stroke-width="8" points="687.24,-626 697.24,-619 687.24,-612 687.24,-626"/>
</a>
</g>
</g>
<!-- PAKNVENGNIMPXN -->
<g id="node9" class="node">
<title>PAKNVENGNIMPXN</title>
<g id="a_node9"><a xlink:title="Energy Imports
FRML  &lt;&gt; PAKNVENGNIMPXN = ((PAKNVCOLNIMPSH**PAKCESENGYIMP)*PAKNVCOLPRODXN**(1-PAKCESENGYIMP)+(PAKNVOILNIMPSH**PAKCESENGYIMP)*PAKNVOILPRODXN**(1-PAKCESENGYIMP)+(PAKNVGASNIMPSH**PAKCESENGYIMP)*PAKNVGASPRODXN**(1-PAKCESENGYIMP)+(PAKNVRENNIMPSH**PAKCESENGYIMP)*PAKNVRENPRODXN**(1-PAKCESENGYIMP))**(1/(1-PAKCESENGYIMP)) $">
<polygon fill="#63b8ff" stroke="black" points="1329.5,-337 1100.5,-337 1100.5,-301 1329.5,-301 1329.5,-337"/>
<text text-anchor="start" x="1107" y="-314.8" font-family="Times New Roman,serif" font-size="14.00" fill="blue">PAKNVENGNIMPXN:Energy Imports</text>
</a>
</g>
</g>
<!-- PAKNVENGNIMPXN&#45;&gt;PAKNEIMPGNFSXN -->
<g id="edge12" class="edge">
<title>PAKNVENGNIMPXN-&gt;PAKNEIMPGNFSXN</title>
<g id="a_edge12"><a xlink:href="bogus" xlink:title=" PAKNVENGNIMPXN -&gt; PAKNEIMPGNFSXN Min. att. 37%  max: 104%">
<path fill="none" stroke="black" stroke-width="8" d="M1329.75,-319C1350.33,-319 1371.86,-319 1392.63,-319"/>
<polygon fill="black" stroke="black" stroke-width="8" points="1392.76,-326 1402.76,-319 1392.76,-312 1392.76,-326"/>
</a>
</g>
</g>
<!-- PAKNECONGOVTKN -->
<g id="node27" class="node">
<title>PAKNECONGOVTKN</title>
<g id="a_node27"><a xlink:title="Government Consumption
FRML  &lt;&gt; PAKNECONGOVTKN = PAKNECONGOVTCN/PAKNECONGOVTXN $">
<polygon fill="#63b8ff" stroke="black" points="1361,-579 1069,-579 1069,-543 1361,-543 1361,-579"/>
<text text-anchor="start" x="1075" y="-556.8" font-family="Times New Roman,serif" font-size="14.00" fill="blue">PAKNECONGOVTKN:Government Consumption</text>
</a>
</g>
</g>
<!-- PAKNECONGOVTXN&#45;&gt;PAKNECONGOVTKN -->
<g id="edge33" class="edge">
<title>PAKNECONGOVTXN-&gt;PAKNECONGOVTKN</title>
<g id="a_edge33"><a xlink:href="bogus" xlink:title=" PAKNECONGOVTXN -&gt; PAKNECONGOVTKN Min. att. -867%  max: -19%">
<path fill="none" stroke="black" stroke-width="8" d="M1027.2,-563.13C1037.74,-563.01 1048.34,-562.89 1058.85,-562.77"/>
<polygon fill="black" stroke="black" stroke-width="8" points="1058.96,-569.77 1068.88,-562.65 1058.8,-555.77 1058.96,-569.77"/>
</a>
</g>
</g>
<!-- PAKNEGDIFGOVXN -->
<g id="node11" class="node">
<title>PAKNEGDIFGOVXN</title>
<g id="a_node11"><a xlink:title="Government Investment
FRML &lt;Z,EXO&gt; PAKNEGDIFGOVXN = (PAKNEGDIFGOVXN(-1)*EXP(-PAKNEGDIFGOVXN_A+ (-0.480254922468272*(LOG(PAKNEGDIFGOVXN(-1))-LOG(PAKNECONPRVTXN(-1)))+0.00720714576835064+0.0731599680348391*((LOG(PAKNEGDIFGOVXN(-1)))-(LOG(PAKNEGDIFGOVXN(-2))))+(1-0.0731599680348391)*((LOG(PAKNECONPRVTXN))-(LOG(PAKNECONPRVTXN(-1))))) )) * (1-PAKNEGDIFGOVXN_D)+ PAKNEGDIFGOVXN_X*PAKNEGDIFGOVXN_D  $">
<polygon fill="#63b8ff" stroke="black" points="630,-275 356,-275 356,-239 630,-239 630,-275"/>
<text text-anchor="start" x="362" y="-252.8" font-family="Times New Roman,serif" font-size="14.00" fill="blue">PAKNEGDIFGOVXN:Government Investment</text>
</a>
</g>
</g>
<!-- PAKNEGDIFGOVXN&#45;&gt;PAKNEGDIFGOVKN -->
<g id="edge18" class="edge">
<title>PAKNEGDIFGOVXN-&gt;PAKNEGDIFGOVKN</title>
<g id="a_edge18"><a xlink:href="bogus" xlink:title=" PAKNEGDIFGOVXN -&gt; PAKNEGDIFGOVKN Min. att. -892%  max: -32%">
<path fill="none" stroke="black" stroke-width="8" d="M630.14,-257C657.66,-257 686.71,-257 714.57,-257"/>
<polygon fill="black" stroke="black" stroke-width="8" points="714.78,-264 724.78,-257 714.78,-250 714.78,-264"/>
</a>
</g>
</g>
<!-- PAKNEGDIFGOVCN -->
<g id="node12" class="node">
<title>PAKNEGDIFGOVCN</title>
<g id="a_node12"><a xlink:title="Government Investment
FRML &lt;Z,EXO&gt; PAKNEGDIFGOVCN = (PAKNEGDIFGOVCN(-1)*EXP(-PAKNEGDIFGOVCN_A+ (((LOG(PAKGGEXPCAPTCN))-(LOG(PAKGGEXPCAPTCN(-1))))-0.00510713331489238*DUMH) )) * (1-PAKNEGDIFGOVCN_D)+ PAKNEGDIFGOVCN_X*PAKNEGDIFGOVCN_D  $">
<polygon fill="#63b8ff" stroke="black" points="629.5,-221 356.5,-221 356.5,-185 629.5,-185 629.5,-221"/>
<text text-anchor="start" x="363" y="-198.8" font-family="Times New Roman,serif" font-size="14.00" fill="blue">PAKNEGDIFGOVCN:Government Investment</text>
</a>
</g>
</g>
<!-- PAKNEGDIFGOVCN&#45;&gt;PAKNEGDIFGOVKN -->
<g id="edge30" class="edge">
<title>PAKNEGDIFGOVCN-&gt;PAKNEGDIFGOVKN</title>
<g id="a_edge30"><a xlink:href="bogus" xlink:title=" PAKNEGDIFGOVCN -&gt; PAKNEGDIFGOVKN Min. att. 129%  max: 988%">
<path fill="none" stroke="black" stroke-width="8" d="M616.46,-221.02C652.38,-226.3 691.81,-232.11 728.33,-237.48"/>
<polygon fill="black" stroke="black" stroke-width="8" points="727.64,-244.45 738.55,-238.98 729.68,-230.6 727.64,-244.45"/>
</a>
</g>
</g>
<!-- PAKNYGDPPOTLKN -->
<g id="node13" class="node">
<title>PAKNYGDPPOTLKN</title>
<g id="a_node13"><a xlink:title="Potential GDP
FRML  &lt;&gt; PAKNYGDPPOTLKN = PAKNYGDPTFP*(PAKLMEMPSTRLCN**PAKNYYWBTOTLCN_)*(PAKNEGDIKSTKKN(-1)**(1-PAKNYYWBTOTLCN_)) $">
<polygon fill="#63b8ff" stroke="black" points="603.5,-113 382.5,-113 382.5,-77 603.5,-77 603.5,-113"/>
<text text-anchor="start" x="389" y="-90.8" font-family="Times New Roman,serif" font-size="14.00" fill="blue">PAKNYGDPPOTLKN:Potential GDP</text>
</a>
</g>
</g>
<!-- PAKNYGDPPOTLKN&#45;&gt;PAKNEGDIFPRVKN -->
<g id="edge21" class="edge">
<title>PAKNYGDPPOTLKN-&gt;PAKNEGDIFPRVKN</title>
<g id="a_edge21"><a xlink:href="bogus" xlink:title=" PAKNYGDPPOTLKN -&gt; PAKNEGDIFPRVKN Min. att. -8%  max: 66%">
<path fill="none" stroke="black" stroke-width="6.61" d="M603.61,-103.06C643.9,-106.03 689.88,-109.41 731.73,-112.49"/>
<polygon fill="black" stroke="black" stroke-width="6.61" points="731.31,-118.26 741.71,-113.22 732.16,-106.72 731.31,-118.26"/>
</a>
</g>
</g>
<!-- PAKNEKRTTOTLCN -->
<g id="node14" class="node">
<title>PAKNEKRTTOTLCN</title>
<g id="a_node14"><a xlink:title="PAKNEKRTTOTLCN
FRML &lt;Z,EXO&gt; PAKNEKRTTOTLCN = (-PAKNEKRTTOTLCN_A+ (((PAKUCK)-(PAKUCK(-1)))+7.05881784375082E-05*DUMH) +PAKNEKRTTOTLCN(-1)) * (1-PAKNEKRTTOTLCN_D)+ PAKNEKRTTOTLCN_X*PAKNEKRTTOTLCN_D  $">
<polygon fill="#63b8ff" stroke="black" points="563,-59 423,-59 423,-23 563,-23 563,-59"/>
<text text-anchor="start" x="429" y="-36.8" font-family="Times New Roman,serif" font-size="14.00" fill="blue">PAKNEKRTTOTLCN:</text>
</a>
</g>
</g>
<!-- PAKNEKRTTOTLCN&#45;&gt;PAKNEGDIFPRVKN -->
<g id="edge31" class="edge">
<title>PAKNEKRTTOTLCN-&gt;PAKNEGDIFPRVKN</title>
<g id="a_edge31"><a xlink:href="bogus" xlink:title=" PAKNEKRTTOTLCN -&gt; PAKNEGDIFPRVKN Min. att. -0%  max: 90%">
<path fill="none" stroke="black" stroke-width="8" d="M563.36,-50.57C593.5,-55.15 629.13,-61.14 661,-68 704.41,-77.34 752.47,-90.24 790.6,-101.08"/>
<polygon fill="black" stroke="black" stroke-width="8" points="789.03,-107.91 800.57,-103.93 792.88,-94.45 789.03,-107.91"/>
</a>
</g>
</g>
<!-- PAKNECONPRVTKN&#45;&gt;PAKNYGDPMKTPKN -->
<g id="edge34" class="edge">
<title>PAKNECONPRVTKN-&gt;PAKNYGDPMKTPKN</title>
<g id="a_edge34"><a xlink:href="bogus" xlink:title=" PAKNECONPRVTKN -&gt; PAKNYGDPMKTPKN Min. att. -1557%  max: 290%">
<path fill="none" stroke="black" stroke-width="8" d="M1354.25,-488.63C1370.66,-490.02 1387.19,-491.2 1403,-492 1574.7,-500.7 1770.47,-498.52 1910.81,-494.85"/>
<polygon fill="black" stroke="black" stroke-width="8" points="1911.01,-501.85 1920.82,-494.59 1910.64,-487.85 1911.01,-501.85"/>
</a>
</g>
</g>
<!-- PAKNECONPRVTKN&#45;&gt;PAKNEGDETTOTKN -->
<g id="edge7" class="edge">
<title>PAKNECONPRVTKN-&gt;PAKNEGDETTOTKN</title>
<g id="a_edge7"><a xlink:href="bogus" xlink:title=" PAKNECONPRVTKN -&gt; PAKNEGDETTOTKN Min. att. -2284%  max: 2484%">
<path fill="none" stroke="black" stroke-width="8" d="M1354.3,-469.28C1376.34,-468.69 1398.68,-468.09 1419.39,-467.53"/>
<polygon fill="black" stroke="black" stroke-width="8" points="1419.6,-474.53 1429.41,-467.26 1419.23,-460.53 1419.6,-474.53"/>
</a>
</g>
</g>
<!-- PAKNECONOTHRXN -->
<g id="node16" class="node">
<title>PAKNECONOTHRXN</title>
<g id="a_node16"><a xlink:title="Non-Energy Consumption
FRML &lt;Z,EXO&gt; PAKNECONOTHRXN = (PAKNECONOTHRXN(-1)*EXP(-PAKNECONOTHRXN_A+ (0.598859116610832*((LOG(PAKNYGDPFCSTXN))-(LOG(PAKNYGDPFCSTXN(-1))))+((PAKGGREVGNFSXN/100)-(PAKGGREVGNFSXN(-1)/100))+(1-0.598859116610832)*((LOG(PAKNEIMPGNFSXN))-(LOG(PAKNEIMPGNFSXN(-1))))+0.2*PAKNYGDPGAP_/100) )) * (1-PAKNECONOTHRXN_D)+ PAKNECONOTHRXN_X*PAKNECONOTHRXN_D  $">
<polygon fill="#63b8ff" stroke="black" points="289,-572 0,-572 0,-536 289,-536 289,-572"/>
<text text-anchor="start" x="6.5" y="-549.8" font-family="Times New Roman,serif" font-size="14.00" fill="blue">PAKNECONOTHRXN:Non-Energy Consumption</text>
</a>
</g>
</g>
<!-- PAKNECONOTHRXN&#45;&gt;PAKNECONPRVTXN -->
<g id="edge9" class="edge">
<title>PAKNECONOTHRXN-&gt;PAKNECONPRVTXN</title>
<g id="a_edge9"><a xlink:href="bogus" xlink:title=" PAKNECONOTHRXN -&gt; PAKNECONPRVTXN Min. att. 71%  max: 99%">
<path fill="none" stroke="black" stroke-width="8" d="M289.19,-542.8C312.28,-541 336.1,-539.15 358.93,-537.37"/>
<polygon fill="black" stroke="black" stroke-width="8" points="359.57,-544.34 369,-536.58 358.49,-530.38 359.57,-544.34"/>
</a>
</g>
</g>
<!-- PAKNECONGOVTCN&#45;&gt;PAKNECONGOVTKN -->
<g id="edge11" class="edge">
<title>PAKNECONGOVTCN-&gt;PAKNECONGOVTKN</title>
<g id="a_edge11"><a xlink:href="bogus" xlink:title=" PAKNECONGOVTCN -&gt; PAKNECONGOVTKN Min. att. 117%  max: 963%">
<path fill="none" stroke="black" stroke-width="8" d="M972.83,-600.94C990.93,-597.95 1009.49,-594.89 1027,-592 1049.06,-588.36 1072.58,-584.46 1095.24,-580.71"/>
<polygon fill="black" stroke="black" stroke-width="8" points="1096.51,-587.59 1105.23,-579.05 1094.22,-573.78 1096.51,-587.59"/>
</a>
</g>
</g>
<!-- PAKNECONENGYXN -->
<g id="node18" class="node">
<title>PAKNECONENGYXN</title>
<g id="a_node18"><a xlink:title="Energy Consumption
FRML &lt;Z,EXO&gt; PAKNECONENGYXN = (PAKNECONENGYXN(-1)*EXP(-PAKNECONENGYXN_A+ (((LOG(PAKNECONENGYGN))-(LOG(PAKNECONENGYGN(-1))))+0.0550557534575806*DUMH) )) * (1-PAKNECONENGYXN_D)+ PAKNECONENGYXN_X*PAKNECONENGYXN_D  $">
<polygon fill="#63b8ff" stroke="black" points="275.5,-518 13.5,-518 13.5,-482 275.5,-482 275.5,-518"/>
<text text-anchor="start" x="19.5" y="-495.8" font-family="Times New Roman,serif" font-size="14.00" fill="blue">PAKNECONENGYXN:Energy Consumption</text>
</a>
</g>
</g>
<!-- PAKNECONENGYXN&#45;&gt;PAKNECONPRVTXN -->
<g id="edge4" class="edge">
<title>PAKNECONENGYXN-&gt;PAKNECONPRVTXN</title>
<g id="a_edge4"><a xlink:href="bogus" xlink:title=" PAKNECONENGYXN -&gt; PAKNECONPRVTXN Min. att. 1%  max: 29%">
<path fill="none" stroke="black" stroke-width="2.91" d="M275.51,-510.13C302.7,-512.25 331.42,-514.49 358.73,-516.61"/>
<polygon fill="black" stroke="black" stroke-width="2.91" points="358.48,-520.11 368.72,-517.39 359.02,-513.13 358.48,-520.11"/>
</a>
</g>
</g>
<!-- PAKNYWRTTOTLCN -->
<g id="node19" class="node">
<title>PAKNYWRTTOTLCN</title>
<g id="a_node19"><a xlink:title="Wages
FRML  &lt;&gt; PAKNYWRTTOTLCN = (PAKNYWBINFMSH**PAKINFCES*(PAKNYWRTINFMCN)**(1-PAKINFCES)+PAKNYWBFORMSH**PAKINFCES*(PAKNYWRTFORMCN*(1+PAKGGREVDRCTXN/100))**(1-PAKINFCES))**(1/(1-PAKINFCES)) $">
<polygon fill="#63b8ff" stroke="black" points="583.5,-383 402.5,-383 402.5,-347 583.5,-347 583.5,-383"/>
<text text-anchor="start" x="409" y="-360.8" font-family="Times New Roman,serif" font-size="14.00" fill="blue">PAKNYWRTTOTLCN:Wages</text>
</a>
</g>
</g>
<!-- PAKNYYWBTOTLCN -->
<g id="node23" class="node">
<title>PAKNYYWBTOTLCN</title>
<g id="a_node23"><a xlink:title="Economy-wide wage bill
FRML  &lt;&gt; PAKNYYWBTOTLCN = PAKNYWRTTOTLCN*PAKLMEMPTOTLCN $">
<polygon fill="#63b8ff" stroke="black" points="1004.5,-383 719.5,-383 719.5,-347 1004.5,-347 1004.5,-383"/>
<text text-anchor="start" x="726" y="-360.8" font-family="Times New Roman,serif" font-size="14.00" fill="blue">PAKNYYWBTOTLCN:Economy-wide wage bill</text>
</a>
</g>
</g>
<!-- PAKNYWRTTOTLCN&#45;&gt;PAKNYYWBTOTLCN -->
<g id="edge1" class="edge">
<title>PAKNYWRTTOTLCN-&gt;PAKNYYWBTOTLCN</title>
<g id="a_edge1"><a xlink:href="bogus" xlink:title=" PAKNYWRTTOTLCN -&gt; PAKNYYWBTOTLCN Min. att. 16%  max: 106%">
<path fill="none" stroke="black" stroke-width="8" d="M583.78,-365C621.5,-365 666.44,-365 709.04,-365"/>
<polygon fill="black" stroke="black" stroke-width="8" points="709.24,-372 719.24,-365 709.24,-358 709.24,-372"/>
</a>
</g>
</g>
<!-- PAKNEIMPGSNEXN -->
<g id="node20" class="node">
<title>PAKNEIMPGSNEXN</title>
<g id="a_node20"><a xlink:title="Imports (Non-energy)
FRML &lt;Z,EXO&gt; PAKNEIMPGSNEXN = (PAKNEIMPGSNEXN(-1)*EXP(-PAKNEIMPGSNEXN_A+ (-0.278529319815428*(LOG(PAKNEIMPGSNEXN(-1))-0.3*LOG(PAKNYGDPFCSTXN(-1))-(1-0.3)*LOG(PAKPMKEY(-1)*PAKPANUSATLS(-1)))+0.4*((LOG(PAKNYGDPFCSTXN))-(LOG(PAKNYGDPFCSTXN(-1))))+(1-0.4)*((LOG(PAKPMKEY*PAKPANUSATLS))-(LOG(PAKPMKEY(-1)*PAKPANUSATLS(-1))))-0.888813883474775+0.135666902654654*DURING_2012+0.216228696118762*DURING_2008) )) * (1-PAKNEIMPGSNEXN_D)+ PAKNEIMPGSNEXN_X*PAKNEIMPGSNEXN_D  $">
<polygon fill="#63b8ff" stroke="black" points="1345,-283 1085,-283 1085,-247 1345,-247 1345,-283"/>
<text text-anchor="start" x="1091" y="-260.8" font-family="Times New Roman,serif" font-size="14.00" fill="blue">PAKNEIMPGSNEXN:Imports (Non-energy)</text>
</a>
</g>
</g>
<!-- PAKNEIMPGSNEXN&#45;&gt;PAKNEIMPGNFSXN -->
<g id="edge26" class="edge">
<title>PAKNEIMPGSNEXN-&gt;PAKNEIMPGNFSXN</title>
<g id="a_edge26"><a xlink:href="bogus" xlink:title=" PAKNEIMPGSNEXN -&gt; PAKNEIMPGNFSXN Min. att. -4%  max: 63%">
<path fill="none" stroke="black" stroke-width="6.33" d="M1317.14,-283.01C1333.8,-286 1350.89,-289.07 1367,-292 1379.67,-294.3 1392.96,-296.73 1406.14,-299.15"/>
<polygon fill="black" stroke="black" stroke-width="6.33" points="1405.36,-304.63 1416.19,-300.99 1407.36,-293.74 1405.36,-304.63"/>
</a>
</g>
</g>
<!-- PAKLMEMPTOTLCN -->
<g id="node21" class="node">
<title>PAKLMEMPTOTLCN</title>
<g id="a_node21"><a xlink:title="Employment
FRML &lt;Z,EXO&gt; PAKLMEMPTOTLCN = (PAKLMEMPTOTLCN(-1)*EXP(-PAKLMEMPTOTLCN_A+ (-0.345624644563667*(LOG(PAKLMEMPTOTLCN(-1))-LOG(PAKLMEMPSTRLCN(-1)))-0.1*(((LOG(PAKNYWRTTOTLCN/PAKNYGDPFCSTXN))-(LOG(PAKNYWRTTOTLCN(-1)/PAKNYGDPFCSTXN(-1))))-((LOG(PAKNYGDPPOTLKN/PAKLMEMPSTRLCN))-(LOG(PAKNYGDPPOTLKN(-1)/PAKLMEMPSTRLCN(-1)))))-0.0011790007645121+((LOG(PAKLMEMPSTRLCN))-(LOG(PAKLMEMPSTRLCN(-1))))+0.175412878170024*PAKNYGDPGAP_/100+0.0369790799942338*DURING_2010) )) * (1-PAKLMEMPTOTLCN_D)+ PAKLMEMPTOTLCN_X*PAKLMEMPTOTLCN_D  $">
<polygon fill="#63b8ff" stroke="black" points="601.5,-329 384.5,-329 384.5,-293 601.5,-293 601.5,-329"/>
<text text-anchor="start" x="391" y="-306.8" font-family="Times New Roman,serif" font-size="14.00" fill="blue">PAKLMEMPTOTLCN:Employment</text>
</a>
</g>
</g>
<!-- PAKLMEMPTOTLCN&#45;&gt;PAKNYYWBTOTLCN -->
<g id="edge17" class="edge">
<title>PAKLMEMPTOTLCN-&gt;PAKNYYWBTOTLCN</title>
<g id="a_edge17"><a xlink:href="bogus" xlink:title=" PAKLMEMPTOTLCN -&gt; PAKNYYWBTOTLCN Min. att. -6%  max: 84%">
<path fill="none" stroke="black" stroke-width="8" d="M601.63,-326.84C641.38,-332.69 686.9,-339.38 728.59,-345.52"/>
<polygon fill="black" stroke="black" stroke-width="8" points="727.62,-352.45 738.53,-346.98 729.66,-338.6 727.62,-352.45"/>
</a>
</g>
</g>
<!-- PAKNEIMPGNFSKN&#45;&gt;PAKNYGDPMKTPKN -->
<g id="edge29" class="edge">
<title>PAKNEIMPGNFSKN-&gt;PAKNYGDPMKTPKN</title>
<g id="a_edge29"><a xlink:href="bogus" xlink:title=" PAKNEIMPGNFSKN -&gt; PAKNYGDPMKTPKN Min. att. -46%  max: 456%">
<path fill="none" stroke="black" stroke-width="8" d="M1885.32,-458.96C1908.26,-462.05 1932.73,-465.36 1956.65,-468.58"/>
<polygon fill="black" stroke="black" stroke-width="8" points="1956.02,-475.56 1966.86,-469.96 1957.89,-461.69 1956.02,-475.56"/>
</a>
</g>
</g>
<!-- PAKNYYWBTOTLCN&#45;&gt;PAKNECONPRVTKN -->
<g id="edge19" class="edge">
<title>PAKNYYWBTOTLCN-&gt;PAKNECONPRVTKN</title>
<g id="a_edge19"><a xlink:href="bogus" xlink:title=" PAKNYYWBTOTLCN -&gt; PAKNECONPRVTKN Min. att. -594%  max: 5823%">
<path fill="none" stroke="black" stroke-width="8" d="M991.71,-383.08C1003.73,-385.7 1015.65,-388.66 1027,-392 1077.85,-406.95 1133.22,-432.14 1170.41,-450.47"/>
<polygon fill="black" stroke="black" stroke-width="8" points="1167.39,-456.78 1179.46,-454.97 1173.62,-444.25 1167.39,-456.78"/>
</a>
</g>
</g>
<!-- PAKNEGDIFPRVKN&#45;&gt;PAKNEGDIFTOTKN -->
<g id="edge2" class="edge">
<title>PAKNEGDIFPRVKN-&gt;PAKNEGDIFTOTKN</title>
<g id="a_edge2"><a xlink:href="bogus" xlink:title=" PAKNEGDIFPRVKN -&gt; PAKNEGDIFTOTKN Min. att. -5%  max: 94%">
<path fill="none" stroke="black" stroke-width="8" d="M906.06,-140.13C943.2,-157.87 995.65,-188.31 1027,-230 1059.44,-273.15 1022.54,-310.27 1063,-346 1064.15,-347.02 1065.33,-348.01 1066.54,-348.96"/>
<polygon fill="black" stroke="black" stroke-width="8" points="1062.58,-354.74 1074.79,-354.82 1070.69,-343.33 1062.58,-354.74"/>
</a>
</g>
</g>
<!-- PAKNEGDETTOTKN&#45;&gt;PAKNEIMPGNFSKN -->
<g id="edge23" class="edge">
<title>PAKNEGDETTOTKN-&gt;PAKNEIMPGNFSKN</title>
<g id="a_edge23"><a xlink:href="bogus" xlink:title=" PAKNEGDETTOTKN -&gt; PAKNEIMPGNFSKN Min. att. -755%  max: 207%">
<path fill="none" stroke="black" stroke-width="8" d="M1599.65,-458.12C1616.29,-456.76 1634.07,-455.31 1651.65,-453.87"/>
<polygon fill="black" stroke="black" stroke-width="8" points="1652.57,-460.82 1661.97,-453.03 1651.43,-446.87 1652.57,-460.82"/>
</a>
</g>
</g>
<!-- PAKNECONGOVTKN&#45;&gt;PAKNYGDPMKTPKN -->
<g id="edge20" class="edge">
<title>PAKNECONGOVTKN-&gt;PAKNYGDPMKTPKN</title>
<g id="a_edge20"><a xlink:href="bogus" xlink:title=" PAKNECONGOVTKN -&gt; PAKNYGDPMKTPKN Min. att. -108%  max: 835%">
<path fill="none" stroke="black" stroke-width="8" d="M1361.27,-551C1496.85,-541.42 1704.73,-526.07 1885,-510 1895.68,-509.05 1906.66,-508.03 1917.73,-506.99"/>
<polygon fill="black" stroke="black" stroke-width="8" points="1918.64,-513.93 1927.92,-506.01 1917.31,-499.99 1918.64,-513.93"/>
</a>
</g>
</g>
<!-- PAKNECONGOVTKN&#45;&gt;PAKNEGDETTOTKN -->
<g id="edge27" class="edge">
<title>PAKNECONGOVTKN-&gt;PAKNEGDETTOTKN</title>
<g id="a_edge27"><a xlink:href="bogus" xlink:title=" PAKNECONGOVTKN -&gt; PAKNEGDETTOTKN Min. att. -1269%  max: 1236%">
<path fill="none" stroke="black" stroke-width="8" d="M1271.96,-542.94C1321.95,-526.81 1395.23,-503.17 1447.95,-486.15"/>
<polygon fill="black" stroke="black" stroke-width="8" points="1450.17,-492.79 1457.54,-483.06 1445.87,-479.47 1450.17,-492.79"/>
</a>
</g>
</g>
<!-- PAKPSTAR -->
<g id="node28" class="node">
<title>PAKPSTAR</title>
<g id="a_node28"><a xlink:title="Nominal marginal cost
FRML  &lt;&gt; PAKPSTAR = (1/PAKNYGDPTFP)*((PAKNEKRTTOTLCN/(1-PAKNYYWBTOTLCN_))**(1-PAKNYYWBTOTLCN_))*((PAKNYWRTTOTLCN/PAKNYYWBTOTLCN_)**PAKNYYWBTOTLCN_) $">
<polygon fill="#63b8ff" stroke="black" points="598,-437 388,-437 388,-401 598,-401 598,-437"/>
<text text-anchor="start" x="394" y="-414.8" font-family="Times New Roman,serif" font-size="14.00" fill="blue">PAKPSTAR:Nominal marginal cost</text>
</a>
</g>
</g>
<!-- PAKPSTAR&#45;&gt;PAKNYGDPFCSTXN -->
<g id="edge8" class="edge">
<title>PAKPSTAR-&gt;PAKNYGDPFCSTXN</title>
<g id="a_edge8"><a xlink:href="bogus" xlink:title=" PAKPSTAR -&gt; PAKNYGDPFCSTXN Min. att. -20%  max: 2191%">
<path fill="none" stroke="black" stroke-width="8" d="M598.19,-419C639.37,-419 687.16,-419 730.61,-419"/>
<polygon fill="black" stroke="black" stroke-width="8" points="730.68,-426 740.68,-419 730.68,-412 730.68,-426"/>
</a>
</g>
</g>
<!-- PAKNYGDPGAP_ -->
<g id="node29" class="node">
<title>PAKNYGDPGAP_</title>
<g id="a_node29"><a xlink:title="Output Gap (% of Potential GDP)
FRML  &lt;&gt; PAKNYGDPGAP_ = ((PAKNYGDPMKTPKN/PAKNYGDPPOTLKN-1)*100) $">
<polygon fill="#63b8ff" stroke="black" points="647.5,-491 338.5,-491 338.5,-455 647.5,-455 647.5,-491"/>
<text text-anchor="start" x="345" y="-468.8" font-family="Times New Roman,serif" font-size="14.00" fill="blue">PAKNYGDPGAP_:Output Gap (% of Potential GDP)</text>
</a>
</g>
</g>
<!-- PAKNYGDPGAP_&#45;&gt;PAKNYGDPFCSTXN -->
<g id="edge22" class="edge">
<title>PAKNYGDPGAP_-&gt;PAKNYGDPFCSTXN</title>
<g id="a_edge22"><a xlink:href="bogus" xlink:title=" PAKNYGDPGAP_ -&gt; PAKNYGDPFCSTXN Min. att. -56%  max: 7987%">
<path fill="none" stroke="black" stroke-width="8" d="M616.46,-454.98C653.2,-449.58 693.62,-443.63 730.84,-438.15"/>
<polygon fill="black" stroke="black" stroke-width="8" points="731.86,-445.08 740.74,-436.7 729.82,-431.23 731.86,-445.08"/>
</a>
</g>
</g>
<!-- PAKNYGDPGAP_&#45;&gt;PAKFMLBLPOLYXN -->
<g id="edge13" class="edge">
<title>PAKNYGDPGAP_-&gt;PAKFMLBLPOLYXN</title>
<g id="a_edge13"><a xlink:href="bogus" xlink:title=" PAKNYGDPGAP_ -&gt; PAKFMLBLPOLYXN Min. att. -15%  max: 83%">
<path fill="none" stroke="black" stroke-width="8" d="M647.51,-473C681.54,-473 716.99,-473 748.99,-473"/>
<polygon fill="black" stroke="black" stroke-width="8" points="749.26,-480 759.26,-473 749.26,-466 749.26,-480"/>
</a>
</g>
</g>
</g>
</svg>