<svg xmlns="http://www.w3.org/2000/svg" xmlns:xlink="http://www.w3.org/1999/xlink" width="432pt" height="263pt" viewBox="0.00 0.00 432.00 263.21">
<g id="graph0" class="graph" transform="scale(0.527473 0.527473) rotate(0) translate(4 495)">
<title>TD</title>
<polygon fill="white" stroke="none" points="-4,4 -4,-495 815,-495 815,4 -4,4"/>
<text text-anchor="middle" x="405.5" y="-7.8" font-family="Times New Roman,serif" font-size="14.00">PAKNYGDPMKTPKN</text>
<!-- PAKNECONGOVTKN -->
<g id="node1" class="node">
<title>PAKNECONGOVTKN</title>
<g id="a_node1"><a xlink:title="Government Consumption
FRML  &lt;&gt; PAKNECONGOVTKN = PAKNECONGOVTCN/PAKNECONGOVTXN $">
<polygon fill="#63b8ff" stroke="black" points="353,-491 61,-491 61,-455 353,-455 353,-491"/>
<text text-anchor="start" x="67" y="-468.8" font-family="Times New Roman,serif" font-size="14.00" fill="blue">PAKNECONGOVTKN:Government Consumption</text>
</a>
</g>
</g>
<!-- PAKNYGDPMKTPKN -->
<g id="node3" class="node">
<title>PAKNYGDPMKTPKN</title>
<g id="a_node3"><a xlink:title="GDP Expenditure side at market prices
FRML  &lt;&gt; PAKNYGDPMKTPKN = PAKNECONPRVTKN+PAKNECONGOVTKN+PAKNEGDIFTOTKN+PAKNEGDISTKBKN+PAKNEEXPGNFSKN-PAKNEIMPGNFSKN+PAKNYGDPDISCKN+PAKADAP*PAKDISPREPKN $">
<polygon fill="red" stroke="black" points="811,-275 450,-275 450,-239 811,-239 811,-275"/>
<text text-anchor="start" x="456.5" y="-252.8" font-family="Times New Roman,serif" font-size="14.00" fill="blue">PAKNYGDPMKTPKN:GDP Expenditure side at market prices</text>
</a>
</g>
</g>
<!-- PAKNECONGOVTKN&#45;&gt;PAKNYGDPMKTPKN -->
<g id="edge4" class="edge">
<title>PAKNECONGOVTKN-&gt;PAKNYGDPMKTPKN</title>
<g id="a_edge4"><a xlink:href="bogus" xlink:title=" PAKNECONGOVTKN -&gt; PAKNYGDPMKTPKN Min. att. -108%  max: 835%">
<path fill="none" stroke="black" stroke-width="8" d="M353.14,-464.96C374.13,-460.68 395.02,-454.59 414,-446 498.36,-407.8 573.95,-325.27 608.94,-283.04"/>
<polygon fill="black" stroke="black" stroke-width="8" points="614.48,-287.33 615.39,-275.16 603.64,-278.46 614.48,-287.33"/>
</a>
</g>
</g>
<!-- PAKNECONPRVTKN -->
<g id="node2" class="node">
<title>PAKNECONPRVTKN</title>
<g id="a_node2"><a xlink:title="Household Consumption
FRML &lt;Z,EXO&gt; PAKNECONPRVTKN = (PAKNECONPRVTKN(-1)*EXP(-PAKNECONPRVTKN_A+ (-0.2*(LOG(PAKNECONPRVTKN(-1))-LOG((PAKNYYWBTOTLCN(-1)*(1-PAKGGREVDRCTXN(-1)/100))/PAKNECONPRVTXN(-1)))+1*((LOG((PAKNYYWBTOTLCN*(1-PAKGGREVDRCTXN/100))/PAKNECONPRVTXN))-(LOG((PAKNYYWBTOTLCN(-1)*(1-PAKGGREVDRCTXN(-1)/100))/PAKNECONPRVTXN(-1))))+0.0303228629698929+0.0163839011059956*DURING_2010-0.3*(PAKFMLBLPOLYXN/100-((LOG(PAKNECONPRVTXN))-(LOG(PAKNECONPRVTXN(-1)))))) )) * (1-PAKNECONPRVTKN_D)+ PAKNECONPRVTKN_X*PAKNECONPRVTKN_D  $">
<polygon fill="#63b8ff" stroke="black" points="346,-437 68,-437 68,-401 346,-401 346,-437"/>
<text text-anchor="start" x="74" y="-414.8" font-family="Times New Roman,serif" font-size="14.00" fill="blue">PAKNECONPRVTKN:Household Consumption</text>
</a>
</g>
</g>
<!-- PAKNECONPRVTKN&#45;&gt;PAKNYGDPMKTPKN -->
<g id="edge9" class="edge">
<title>PAKNECONPRVTKN-&gt;PAKNYGDPMKTPKN</title>
<g id="a_edge9"><a xlink:href="bogus" xlink:title=" PAKNECONPRVTKN -&gt; PAKNYGDPMKTPKN Min. att. -1557%  max: 290%">
<path fill="none" stroke="black" stroke-width="8" d="M346.25,-409.2C369.28,-405.22 392.61,-399.68 414,-392 486.53,-365.93 560.36,-312.64 599.98,-281.37"/>
<polygon fill="black" stroke="black" stroke-width="8" points="604.45,-286.76 607.91,-275.05 595.72,-275.81 604.45,-286.76"/>
</a>
</g>
</g>
<!-- PAKDISPREPKN -->
<g id="node4" class="node">
<title>PAKDISPREPKN</title>
<g id="a_node4"><a xlink:title="Investment in disaster risk preparation, constant prices
FRML  &lt;&gt; PAKDISPREPKN = PAKDISPREPCN/PAKNYGDPMKTPXN $">
<polygon fill="#63b8ff" stroke="black" points="414,-383 0,-383 0,-347 414,-347 414,-383"/>
<text text-anchor="start" x="6" y="-360.8" font-family="Times New Roman,serif" font-size="14.00" fill="blue">PAKDISPREPKN:Investment in disaster risk preparation, constant prices</text>
</a>
</g>
</g>
<!-- PAKDISPREPKN&#45;&gt;PAKNYGDPMKTPKN -->
<g id="edge1" class="edge">
<title>PAKDISPREPKN-&gt;PAKNYGDPMKTPKN</title>
<g id="a_edge1"><a xlink:href="bogus" xlink:title=" PAKDISPREPKN -&gt; PAKNYGDPMKTPKN Min. att. -0%  max: 0%">
<path fill="none" stroke="black" d="M371.97,-346.99C386.27,-344.37 400.44,-341.39 414,-338 472.76,-323.31 537.47,-297.63 580.49,-279.12"/>
<polygon fill="black" stroke="black" points="582.09,-282.24 589.87,-275.05 579.3,-275.82 582.09,-282.24"/>
</a>
</g>
</g>
<!-- PAKNEGDIFTOTKN -->
<g id="node5" class="node">
<title>PAKNEGDIFTOTKN</title>
<g id="a_node5"><a xlink:title="Total Gross Capital Formation
FRML  &lt;&gt; PAKNEGDIFTOTKN = PAKNEGDIFGOVKN+PAKNEGDIFPRVKN $">
<polygon fill="#63b8ff" stroke="black" points="359,-329 55,-329 55,-293 359,-293 359,-329"/>
<text text-anchor="start" x="61" y="-306.8" font-family="Times New Roman,serif" font-size="14.00" fill="blue">PAKNEGDIFTOTKN:Total Gross Capital Formation</text>
</a>
</g>
</g>
<!-- PAKNEGDIFTOTKN&#45;&gt;PAKNYGDPMKTPKN -->
<g id="edge5" class="edge">
<title>PAKNEGDIFTOTKN-&gt;PAKNYGDPMKTPKN</title>
<g id="a_edge5"><a xlink:href="bogus" xlink:title=" PAKNEGDIFTOTKN -&gt; PAKNYGDPMKTPKN Min. att. -36%  max: 366%">
<path fill="none" stroke="black" stroke-width="8" d="M348.65,-292.98C390.42,-287.63 436.35,-281.75 478.74,-276.31"/>
<polygon fill="black" stroke="black" stroke-width="8" points="479.84,-283.23 488.87,-275.02 478.06,-269.34 479.84,-283.23"/>
</a>
</g>
</g>
<!-- PAKNEIMPGNFSKN -->
<g id="node6" class="node">
<title>PAKNEIMPGNFSKN</title>
<g id="a_node6"><a xlink:title="Imports (G&amp;S)
FRML &lt;Z,EXO&gt; PAKNEIMPGNFSKN = (PAKNEIMPGNFSKN(-1)*EXP(-PAKNEIMPGNFSKN_A+ (-0.324143718656754*(LOG(PAKNEIMPGNFSKN(-1))-LOG(PAKNEGDETTOTKN(-1))+0.8*LOG(PAKNEIMPGNFSXN(-1)/PAKNYGDPFCSTXN(-1)))-0.583459272245018+1*((LOG(PAKNEGDETTOTKN))-(LOG(PAKNEGDETTOTKN(-1))))-0.0921874580409631*((LOG(PAKNEIMPGNFSXN/PAKNYGDPFCSTXN))-(LOG(PAKNEIMPGNFSXN(-1)/PAKNYGDPFCSTXN(-1))))-0.0361746331863615*DURING_2012) )) * (1-PAKNEIMPGNFSKN_D)+ PAKNEIMPGNFSKN_X*PAKNEIMPGNFSKN_D  $">
<polygon fill="#63b8ff" stroke="black" points="318.5,-275 95.5,-275 95.5,-239 318.5,-239 318.5,-275"/>
<text text-anchor="start" x="102" y="-252.8" font-family="Times New Roman,serif" font-size="14.00" fill="blue">PAKNEIMPGNFSKN:Imports (G&amp;S)</text>
</a>
</g>
</g>
<!-- PAKNEIMPGNFSKN&#45;&gt;PAKNYGDPMKTPKN -->
<g id="edge7" class="edge">
<title>PAKNEIMPGNFSKN-&gt;PAKNYGDPMKTPKN</title>
<g id="a_edge7"><a xlink:href="bogus" xlink:title=" PAKNEIMPGNFSKN -&gt; PAKNYGDPMKTPKN Min. att. -46%  max: 456%">
<path fill="none" stroke="black" stroke-width="8" d="M318.74,-257C355.81,-257 398.25,-257 439.61,-257"/>
<polygon fill="black" stroke="black" stroke-width="8" points="439.81,-264 449.81,-257 439.81,-250 439.81,-264"/>
</a>
</g>
</g>
<!-- PAKNEEXPGNFSKN -->
<g id="node7" class="node">
<title>PAKNEEXPGNFSKN</title>
<g id="a_node7"><a xlink:title="Exports (G&amp;S)
FRML &lt;Z,EXO&gt; PAKNEEXPGNFSKN = (PAKNEEXPGNFSKN(-1)*EXP(-PAKNEEXPGNFSKN_A+ (-0.35*(LOG(PAKNEEXPGNFSKN(-1))-LOG(PAKXMKT(-1))-0.6*LOG(PAKNEEXPGNFSXN(-1)/(PAKNYGDPFCSTXN(-1))))+1*((LOG(PAKXMKT))-(LOG(PAKXMKT(-1))))+0.3*((LOG(PAKNEEXPGNFSXN/(PAKNYGDPFCSTXN)))-(LOG(PAKNEEXPGNFSXN(-1)/(PAKNYGDPFCSTXN(-1)))))+4.38465374402991-0.237469889780178*DURING_1999-0.230689812873392*DURING_1998+0.320967524344658*DURING_1991+0.250252413901575*DURING_1986) )) * (1-PAKNEEXPGNFSKN_D)+ PAKNEEXPGNFSKN_X*PAKNEEXPGNFSKN_D  $">
<polygon fill="#63b8ff" stroke="black" points="318.5,-221 95.5,-221 95.5,-185 318.5,-185 318.5,-221"/>
<text text-anchor="start" x="102" y="-198.8" font-family="Times New Roman,serif" font-size="14.00" fill="blue">PAKNEEXPGNFSKN:Exports (G&amp;S)</text>
</a>
</g>
</g>
<!-- PAKNEEXPGNFSKN&#45;&gt;PAKNYGDPMKTPKN -->
<g id="edge6" class="edge">
<title>PAKNEEXPGNFSKN-&gt;PAKNYGDPMKTPKN</title>
<g id="a_edge6"><a xlink:href="bogus" xlink:title=" PAKNEEXPGNFSKN -&gt; PAKNYGDPMKTPKN Min. att. -10%  max: 0%">
<path fill="none" stroke="black" d="M318.74,-217.19C367.67,-223.46 425.95,-230.92 478.75,-237.69"/>
<polygon fill="black" stroke="black" points="478.52,-241.19 488.89,-238.99 479.41,-234.24 478.52,-241.19"/>
</a>
</g>
</g>
<!-- PAKNYGDPDISCKN -->
<g id="node8" class="node">
<title>PAKNYGDPDISCKN</title>
<g id="a_node8"><a xlink:title="Statistical Discrepency (Expenditure Side)
Exogen">
<polygon fill="yellow" stroke="black" points="392,-167 22,-167 22,-131 392,-131 392,-167"/>
<text text-anchor="start" x="28" y="-144.8" font-family="Times New Roman,serif" font-size="14.00" fill="blue">PAKNYGDPDISCKN:Statistical Discrepency (Expenditure Side)</text>
</a>
</g>
</g>
<!-- PAKNYGDPDISCKN&#45;&gt;PAKNYGDPMKTPKN -->
<g id="edge8" class="edge">
<title>PAKNYGDPDISCKN-&gt;PAKNYGDPMKTPKN</title>
<g id="a_edge8"><a xlink:href="bogus" xlink:title=" PAKNYGDPDISCKN -&gt; PAKNYGDPMKTPKN Min. att. -0%  max: 0%">
<path fill="none" stroke="black" d="M371.97,-167.01C386.27,-169.63 400.44,-172.61 414,-176 472.76,-190.69 537.47,-216.37 580.49,-234.88"/>
<polygon fill="black" stroke="black" points="579.3,-238.18 589.87,-238.95 582.09,-231.76 579.3,-238.18"/>
</a>
</g>
</g>
<!-- PAKNEGDISTKBKN -->
<g id="node9" class="node">
<title>PAKNEGDISTKBKN</title>
<g id="a_node9"><a xlink:title="Change in Inventories
Exogen">
<polygon fill="yellow" stroke="black" points="336.5,-113 77.5,-113 77.5,-77 336.5,-77 336.5,-113"/>
<text text-anchor="start" x="84" y="-90.8" font-family="Times New Roman,serif" font-size="14.00" fill="blue">PAKNEGDISTKBKN:Change in Inventories</text>
</a>
</g>
</g>
<!-- PAKNEGDISTKBKN&#45;&gt;PAKNYGDPMKTPKN -->
<g id="edge3" class="edge">
<title>PAKNEGDISTKBKN-&gt;PAKNYGDPMKTPKN</title>
<g id="a_edge3"><a xlink:href="bogus" xlink:title=" PAKNEGDISTKBKN -&gt; PAKNYGDPMKTPKN Min. att. -0%  max: 0%">
<path fill="none" stroke="black" d="M336.68,-103.23C362.76,-107.28 389.64,-113.25 414,-122 486.53,-148.07 560.36,-201.36 599.98,-232.63"/>
<polygon fill="black" stroke="black" points="597.91,-235.45 607.91,-238.95 602.27,-229.98 597.91,-235.45"/>
</a>
</g>
</g>
<!-- PAKADAP -->
<g id="node10" class="node">
<title>PAKADAP</title>
<g id="a_node10"><a xlink:title="Switch on adaptation mode (0 or 1)
Exogen">
<polygon fill="yellow" stroke="black" points="344,-59 70,-59 70,-23 344,-23 344,-59"/>
<text text-anchor="start" x="76" y="-36.8" font-family="Times New Roman,serif" font-size="14.00" fill="blue">PAKADAP:Switch on adaptation mode (0 or 1)</text>
</a>
</g>
</g>
<!-- PAKADAP&#45;&gt;PAKNYGDPMKTPKN -->
<g id="edge2" class="edge">
<title>PAKADAP-&gt;PAKNYGDPMKTPKN</title>
<g id="a_edge2"><a xlink:href="bogus" xlink:title=" PAKADAP -&gt; PAKNYGDPMKTPKN Min. att. -0%  max: 0%">
<path fill="none" stroke="black" d="M344.15,-47.32C368.12,-51.63 392.31,-58.18 414,-68 498.36,-106.2 573.95,-188.73 608.94,-230.96"/>
<polygon fill="black" stroke="black" points="606.35,-233.32 615.39,-238.84 611.77,-228.89 606.35,-233.32"/>
</a>
</g>
</g>
</g>
</svg>