<svg xmlns="http://www.w3.org/2000/svg" xmlns:xlink="http://www.w3.org/1999/xlink" width="432pt" height="377pt" viewBox="0.00 0.00 432.00 377.23">
<g id="graph0" class="graph" transform="scale(0.382979 0.382979) rotate(0) translate(4 981)">
<title>TD</title>
<polygon fill="white" stroke="none" points="-4,4 -4,-981 1124,-981 1124,4 -4,4"/>
<text text-anchor="middle" x="560" y="-7.8" font-family="Times New Roman,serif" font-size="14.00">PAKNECONPRVTKN</text>
<!-- PAKNECONPRVTCN -->
<g id="node1" class="node">
<title>PAKNECONPRVTCN</title>
<g id="a_node1"><a xlink:title="Household demand
FRML  &lt;&gt; PAKNECONPRVTCN = PAKNECONPRVTKN*PAKNECONPRVTXN $">
<polygon fill="#63b8ff" stroke="black" points="1042,-977 795,-977 795,-941 1042,-941 1042,-977"/>
<text text-anchor="start" x="801.5" y="-954.8" font-family="Times New Roman,serif" font-size="14.00" fill="blue">PAKNECONPRVTCN:Household demand</text>
</a>
</g>
</g>
<!-- PAKNECONPRVTKN -->
<g id="node2" class="node">
<title>PAKNECONPRVTKN</title>
<g id="a_node2"><a xlink:title="Household Consumption
FRML &lt;Z,EXO&gt; PAKNECONPRVTKN = (PAKNECONPRVTKN(-1)*EXP(-PAKNECONPRVTKN_A+ (-0.2*(LOG(PAKNECONPRVTKN(-1))-LOG((PAKNYYWBTOTLCN(-1)*(1-PAKGGREVDRCTXN(-1)/100))/PAKNECONPRVTXN(-1)))+1*((LOG((PAKNYYWBTOTLCN*(1-PAKGGREVDRCTXN/100))/PAKNECONPRVTXN))-(LOG((PAKNYYWBTOTLCN(-1)*(1-PAKGGREVDRCTXN(-1)/100))/PAKNECONPRVTXN(-1))))+0.0303228629698929+0.0163839011059956*DURING_2010-0.3*(PAKFMLBLPOLYXN/100-((LOG(PAKNECONPRVTXN))-(LOG(PAKNECONPRVTXN(-1)))))) )) * (1-PAKNECONPRVTKN_D)+ PAKNECONPRVTKN_X*PAKNECONPRVTKN_D  $">
<polygon fill="red" stroke="black" points="681,-518 403,-518 403,-482 681,-482 681,-518"/>
<text text-anchor="start" x="409" y="-495.8" font-family="Times New Roman,serif" font-size="14.00" fill="blue">PAKNECONPRVTKN:Household Consumption</text>
</a>
</g>
</g>
<!-- PAKNECONPRVTKN&#45;&gt;PAKNECONPRVTCN -->
<g id="edge13" class="edge">
<title>PAKNECONPRVTKN-&gt;PAKNECONPRVTCN</title>
<g id="a_edge13"><a xlink:href="bogus" xlink:title=" PAKNECONPRVTKN -&gt; PAKNECONPRVTCN Min. att. -720%  max: 6450%">
<path fill="none" stroke="black" stroke-width="8" d="M544.13,-518.11C549.38,-585.52 577.53,-823.56 717,-932 736.5,-947.16 760.41,-956.03 784.84,-960.92"/>
<polygon fill="black" stroke="black" stroke-width="8" points="783.88,-967.86 794.96,-962.72 786.34,-954.07 783.88,-967.86"/>
</a>
</g>
</g>
<!-- PAKSMINDOTHRTKN -->
<g id="node3" class="node">
<title>PAKSMINDOTHRTKN</title>
<g id="a_node3"><a xlink:title="PAKSMINDOTHRTKN
FRML  &lt;&gt; PAKSMINDOTHRTKN = ((1+0.483473985412524)*(0.40172973397176*PAKNECONPRVTKN+0*PAKNECONGOVTKN+0.560459287907094*PAKNEGDIFTOTKN+0.719299486591763*PAKNEEXPGNFSKN+0.620970563578771*PAKNEGDISTKBKN)-0.606734386430279*PAKNEIMPGNFSKN-0.866045585295928*PAKNYTAXNINDKN-2983275.63714814)/(1+2.46379868577176) $">
<polygon fill="#63b8ff" stroke="black" points="994,-923 843,-923 843,-887 994,-887 994,-923"/>
<text text-anchor="start" x="849.5" y="-900.8" font-family="Times New Roman,serif" font-size="14.00" fill="blue">PAKSMINDOTHRTKN:</text>
</a>
</g>
</g>
<!-- PAKNECONPRVTKN&#45;&gt;PAKSMINDOTHRTKN -->
<g id="edge7" class="edge">
<title>PAKNECONPRVTKN-&gt;PAKSMINDOTHRTKN</title>
<g id="a_edge7"><a xlink:href="bogus" xlink:title=" PAKNECONPRVTKN -&gt; PAKSMINDOTHRTKN Min. att. -11779%  max: 971%">
<path fill="none" stroke="black" stroke-width="8" d="M545.23,-518.01C553.92,-579.91 591.52,-785.23 717,-878 749.8,-902.25 794.09,-910.05 832.71,-911.34"/>
<polygon fill="black" stroke="black" stroke-width="8" points="832.78,-918.35 842.91,-911.54 833.05,-904.35 832.78,-918.35"/>
</a>
</g>
</g>
<!-- PAKSMSRVGOVSKN -->
<g id="node4" class="node">
<title>PAKSMSRVGOVSKN</title>
<g id="a_node4"><a xlink:title="PAKSMSRVGOVSKN
FRML  &lt;&gt; PAKSMSRVGOVSKN = ((1+0)*(0*PAKNECONPRVTKN+0.789129947325563*PAKNECONGOVTKN+0*PAKNEGDIFTOTKN+0*PAKNEEXPGNFSKN+0*PAKNEGDISTKBKN)-0*PAKNEIMPGNFSKN-0*PAKNYTAXNINDKN-0)/(1+0.947258014252215) $">
<polygon fill="#63b8ff" stroke="black" points="991,-869 846,-869 846,-833 991,-833 991,-869"/>
<text text-anchor="start" x="852.5" y="-846.8" font-family="Times New Roman,serif" font-size="14.00" fill="blue">PAKSMSRVGOVSKN:</text>
</a>
</g>
</g>
<!-- PAKNECONPRVTKN&#45;&gt;PAKSMSRVGOVSKN -->
<g id="edge12" class="edge">
<title>PAKNECONPRVTKN-&gt;PAKSMSRVGOVSKN</title>
<g id="a_edge12"><a xlink:href="bogus" xlink:title=" PAKNECONPRVTKN -&gt; PAKSMSRVGOVSKN Min. att. 0%  max: 0%">
<path fill="none" stroke="black" d="M546.7,-518.19C559.21,-574.49 605.48,-746.73 717,-824 751.19,-847.69 796.65,-855.24 835.64,-856.51"/>
<polygon fill="black" stroke="black" points="835.86,-860.02 845.92,-856.71 835.99,-853.02 835.86,-860.02"/>
</a>
</g>
</g>
<!-- PAKSMSRVTRNSKN -->
<g id="node6" class="node">
<title>PAKSMSRVTRNSKN</title>
<g id="a_node6"><a xlink:title="PAKSMSRVTRNSKN
FRML  &lt;&gt; PAKSMSRVTRNSKN = ((1+0.301074862860981)*(0.204687752761289*PAKNECONPRVTKN+0*PAKNECONGOVTKN+0*PAKNEGDIFTOTKN+0.0551862611209703*PAKNEEXPGNFSKN+0*PAKNEGDISTKBKN)--0.0392641863572605*PAKNEIMPGNFSKN-0.0174996684619017*PAKNYTAXNINDKN-0)/(1+1.11680986862739) $">
<polygon fill="#63b8ff" stroke="black" points="989.5,-815 847.5,-815 847.5,-779 989.5,-779 989.5,-815"/>
<text text-anchor="start" x="853.5" y="-792.8" font-family="Times New Roman,serif" font-size="14.00" fill="blue">PAKSMSRVTRNSKN:</text>
</a>
</g>
</g>
<!-- PAKNECONPRVTKN&#45;&gt;PAKSMSRVTRNSKN -->
<g id="edge22" class="edge">
<title>PAKNECONPRVTKN-&gt;PAKSMSRVTRNSKN</title>
<g id="a_edge22"><a xlink:href="bogus" xlink:title=" PAKNECONPRVTKN -&gt; PAKSMSRVTRNSKN Min. att. 87%  max: 592%">
<path fill="none" stroke="black" stroke-width="8" d="M548.73,-518.36C565.42,-568.43 619.1,-707.79 717,-770 752.24,-792.39 797.99,-799.81 836.88,-801.33"/>
<polygon fill="black" stroke="black" stroke-width="8" points="836.95,-808.34 847.13,-801.61 837.32,-794.34 836.95,-808.34"/>
</a>
</g>
</g>
<!-- PAKNECONPRVTKN_FITTED -->
<g id="node7" class="node">
<title>PAKNECONPRVTKN_FITTED</title>
<g id="a_node7"><a xlink:title="Fitted  value:Household Consumption
FRML &lt;FIT&gt; PAKNECONPRVTKN_FITTED = PAKNECONPRVTKN(-1)*EXP( (-0.2*(LOG(PAKNECONPRVTKN(-1))-LOG((PAKNYYWBTOTLCN(-1)*(1-PAKGGREVDRCTXN(-1)/100))/PAKNECONPRVTXN(-1)))+1*((LOG((PAKNYYWBTOTLCN*(1-PAKGGREVDRCTXN/100))/PAKNECONPRVTXN))-(LOG((PAKNYYWBTOTLCN(-1)*(1-PAKGGREVDRCTXN(-1)/100))/PAKNECONPRVTXN(-1))))+0.0303228629698929+0.0163839011059956*DURING_2010-0.3*(PAKFMLBLPOLYXN/100-((LOG(PAKNECONPRVTXN))-(LOG(PAKNECONPRVTXN(-1)))))) ) $">
<polygon fill="#63b8ff" stroke="black" points="1120,-761 717,-761 717,-725 1120,-725 1120,-761"/>
<text text-anchor="start" x="723.5" y="-738.8" font-family="Times New Roman,serif" font-size="14.00" fill="blue">PAKNECONPRVTKN_FITTED:Fitted  value:Household Consumption</text>
</a>
</g>
</g>
<!-- PAKNECONPRVTKN&#45;&gt;PAKNECONPRVTKN_FITTED -->
<g id="edge4" class="edge">
<title>PAKNECONPRVTKN-&gt;PAKNECONPRVTKN_FITTED</title>
<g id="a_edge4"><a xlink:href="bogus" xlink:title=" PAKNECONPRVTKN -&gt; PAKNECONPRVTKN_FITTED Min. att. -786%  max: 175%">
<path fill="none" stroke="black" stroke-width="8" d="M551.49,-518.08C572.62,-560.83 632.05,-668.12 717,-716 719.91,-717.64 722.87,-719.19 725.89,-720.67"/>
<polygon fill="black" stroke="black" stroke-width="8" points="723.1,-727.08 735.1,-724.85 728.89,-714.34 723.1,-727.08"/>
</a>
</g>
</g>
<!-- PAKNECONOTHRKN -->
<g id="node8" class="node">
<title>PAKNECONOTHRKN</title>
<g id="a_node8"><a xlink:title="Other Consumption
FRML  &lt;&gt; PAKNECONOTHRKN = PAKNECONOTHRSH**(PAKCESENGYCON)*(PAKNECONPRVTKN*(PAKNECONPRVTXN/PAKNECONOTHRXN)**(PAKCESENGYCON)) $">
<polygon fill="#63b8ff" stroke="black" points="1045,-707 792,-707 792,-671 1045,-671 1045,-707"/>
<text text-anchor="start" x="798.5" y="-684.8" font-family="Times New Roman,serif" font-size="14.00" fill="blue">PAKNECONOTHRKN:Other Consumption</text>
</a>
</g>
</g>
<!-- PAKNECONPRVTKN&#45;&gt;PAKNECONOTHRKN -->
<g id="edge26" class="edge">
<title>PAKNECONPRVTKN-&gt;PAKNECONOTHRKN</title>
<g id="a_edge26"><a xlink:href="bogus" xlink:title=" PAKNECONPRVTKN -&gt; PAKNECONOTHRKN Min. att. -12063%  max: 323%">
<path fill="none" stroke="black" stroke-width="8" d="M556.14,-518.15C582.34,-552.77 644.8,-627.85 717,-662 737.12,-671.52 759.57,-677.98 781.95,-682.31"/>
<polygon fill="black" stroke="black" stroke-width="8" points="780.8,-689.21 791.88,-684.1 783.28,-675.43 780.8,-689.21"/>
</a>
</g>
</g>
<!-- PAKSMAGRFSNGKN -->
<g id="node10" class="node">
<title>PAKSMAGRFSNGKN</title>
<g id="a_node10"><a xlink:title="PAKSMAGRFSNGKN
FRML  &lt;&gt; PAKSMAGRFSNGKN = ((1+1.92407325889309)*(0.00246195499563977*PAKNECONPRVTKN+0*PAKNECONGOVTKN+0*PAKNEGDIFTOTKN+0.00130433854799597*PAKNEEXPGNFSKN+0.00497657560072267*PAKNEGDISTKBKN)-1.14989260682794E-05*PAKNEIMPGNFSKN-2.46467171367829E-07*PAKNYTAXNINDKN-26993)/(1+0.506095544048804) $">
<polygon fill="#63b8ff" stroke="black" points="991,-653 846,-653 846,-617 991,-617 991,-653"/>
<text text-anchor="start" x="852.5" y="-630.8" font-family="Times New Roman,serif" font-size="14.00" fill="blue">PAKSMAGRFSNGKN:</text>
</a>
</g>
</g>
<!-- PAKNECONPRVTKN&#45;&gt;PAKSMAGRFSNGKN -->
<g id="edge24" class="edge">
<title>PAKNECONPRVTKN-&gt;PAKSMAGRFSNGKN</title>
<g id="a_edge24"><a xlink:href="bogus" xlink:title=" PAKNECONPRVTKN -&gt; PAKSMAGRFSNGKN Min. att. -29%  max: 170%">
<path fill="none" stroke="black" stroke-width="8" d="M565.03,-518.01C596.58,-542.76 657.44,-586.62 717,-608 754.62,-621.51 798.41,-628.34 835.46,-631.76"/>
<polygon fill="black" stroke="black" stroke-width="8" points="835.16,-638.76 845.72,-632.64 836.35,-624.81 835.16,-638.76"/>
</a>
</g>
</g>
<!-- PAKNEGDETTOTKN -->
<g id="node11" class="node">
<title>PAKNEGDETTOTKN</title>
<g id="a_node11"><a xlink:title="GDE
FRML  &lt;&gt; PAKNEGDETTOTKN = (PAKNECONPRVTKN+PAKNECONGOVTKN+PAKNEGDIFTOTKN+PAKNEGDISTKBKN+PAKNYGDPDISCKN) $">
<polygon fill="#63b8ff" stroke="black" points="1003.5,-599 833.5,-599 833.5,-563 1003.5,-563 1003.5,-599"/>
<text text-anchor="start" x="839.5" y="-576.8" font-family="Times New Roman,serif" font-size="14.00" fill="blue">PAKNEGDETTOTKN:GDE</text>
</a>
</g>
</g>
<!-- PAKNECONPRVTKN&#45;&gt;PAKNEGDETTOTKN -->
<g id="edge11" class="edge">
<title>PAKNECONPRVTKN-&gt;PAKNEGDETTOTKN</title>
<g id="a_edge11"><a xlink:href="bogus" xlink:title=" PAKNECONPRVTKN -&gt; PAKNEGDETTOTKN Min. att. -2284%  max: 2484%">
<path fill="none" stroke="black" stroke-width="8" d="M593.41,-518.1C627.83,-529.85 674.69,-544.65 717,-554 751.19,-561.55 789.15,-567.32 822.77,-571.54"/>
<polygon fill="black" stroke="black" stroke-width="8" points="822.28,-578.53 833.05,-572.8 823.98,-564.64 822.28,-578.53"/>
</a>
</g>
</g>
<!-- PAKSMINDMNGSKN -->
<g id="node12" class="node">
<title>PAKSMINDMNGSKN</title>
<g id="a_node12"><a xlink:title="PAKSMINDMNGSKN
FRML  &lt;&gt; PAKSMINDMNGSKN = ((1+6.96158341862144)*(0.0132800565666619*PAKNECONPRVTKN+0*PAKNECONGOVTKN+0*PAKNEGDIFTOTKN+0.00704674623894759*PAKNEEXPGNFSKN+0.024122890632682*PAKNEGDISTKBKN)-0.134221966110302*PAKNEIMPGNFSKN-0.500981557895139*PAKNYTAXNINDKN-123652.869264758)/(1+0.200800622280983) $">
<polygon fill="#63b8ff" stroke="black" points="991.5,-545 845.5,-545 845.5,-509 991.5,-509 991.5,-545"/>
<text text-anchor="start" x="851.5" y="-522.8" font-family="Times New Roman,serif" font-size="14.00" fill="blue">PAKSMINDMNGSKN:</text>
</a>
</g>
</g>
<!-- PAKNECONPRVTKN&#45;&gt;PAKSMINDMNGSKN -->
<g id="edge16" class="edge">
<title>PAKNECONPRVTKN-&gt;PAKSMINDMNGSKN</title>
<g id="a_edge16"><a xlink:href="bogus" xlink:title=" PAKNECONPRVTKN -&gt; PAKSMINDMNGSKN Min. att. -1229%  max: 1716%">
<path fill="none" stroke="black" stroke-width="8" d="M681.12,-509.96C732.96,-513.7 790.21,-517.82 835.38,-521.08"/>
<polygon fill="black" stroke="black" stroke-width="8" points="834.94,-528.07 845.42,-521.8 835.95,-514.1 834.94,-528.07"/>
</a>
</g>
</g>
<!-- PAKNECONENGYKN -->
<g id="node13" class="node">
<title>PAKNECONENGYKN</title>
<g id="a_node13"><a xlink:title="Energy Consumption
FRML  &lt;&gt; PAKNECONENGYKN = PAKNECONENGYSH**(PAKCESENGYCON)*(PAKNECONPRVTKN*(PAKNECONPRVTXN/PAKNECONENGYXN)**(PAKCESENGYCON)) $">
<polygon fill="#63b8ff" stroke="black" points="1049.5,-491 787.5,-491 787.5,-455 1049.5,-455 1049.5,-491"/>
<text text-anchor="start" x="793.5" y="-468.8" font-family="Times New Roman,serif" font-size="14.00" fill="blue">PAKNECONENGYKN:Energy Consumption</text>
</a>
</g>
</g>
<!-- PAKNECONPRVTKN&#45;&gt;PAKNECONENGYKN -->
<g id="edge14" class="edge">
<title>PAKNECONPRVTKN-&gt;PAKNECONENGYKN</title>
<g id="a_edge14"><a xlink:href="bogus" xlink:title=" PAKNECONPRVTKN -&gt; PAKNECONENGYKN Min. att. -699%  max: 3890%">
<path fill="none" stroke="black" stroke-width="8" d="M681.12,-490.04C712.44,-487.78 745.73,-485.38 777.14,-483.12"/>
<polygon fill="black" stroke="black" stroke-width="8" points="777.8,-490.09 787.27,-482.39 776.79,-476.13 777.8,-490.09"/>
</a>
</g>
</g>
<!-- PAKSMSRVFINSKN -->
<g id="node14" class="node">
<title>PAKSMSRVFINSKN</title>
<g id="a_node14"><a xlink:title="PAKSMSRVFINSKN
FRML  &lt;&gt; PAKSMSRVFINSKN = ((1+1.04148314760779)*(0.0520379651885469*PAKNECONPRVTKN+0*PAKNECONGOVTKN+0*PAKNEGDIFTOTKN+0.00879145012359898*PAKNEEXPGNFSKN+0*PAKNEGDISTKBKN)-0.00594416979264236*PAKNEIMPGNFSKN-0.000103762679145856*PAKNYTAXNINDKN-0)/(1+0.24687745523084) $">
<polygon fill="#63b8ff" stroke="black" points="987,-437 850,-437 850,-401 987,-401 987,-437"/>
<text text-anchor="start" x="856.5" y="-414.8" font-family="Times New Roman,serif" font-size="14.00" fill="blue">PAKSMSRVFINSKN:</text>
</a>
</g>
</g>
<!-- PAKNECONPRVTKN&#45;&gt;PAKSMSRVFINSKN -->
<g id="edge15" class="edge">
<title>PAKNECONPRVTKN-&gt;PAKSMSRVFINSKN</title>
<g id="a_edge15"><a xlink:href="bogus" xlink:title=" PAKNECONPRVTKN -&gt; PAKSMSRVFINSKN Min. att. -104%  max: 125%">
<path fill="none" stroke="black" stroke-width="8" d="M593.41,-481.9C627.83,-470.15 674.69,-455.35 717,-446 756.97,-437.17 802.1,-430.79 839.41,-426.45"/>
<polygon fill="black" stroke="black" stroke-width="8" points="840.57,-433.36 849.72,-425.28 838.99,-419.45 840.57,-433.36"/>
</a>
</g>
</g>
<!-- PAKSMENGTOTLKN -->
<g id="node15" class="node">
<title>PAKSMENGTOTLKN</title>
<g id="a_node15"><a xlink:title="PAKSMENGTOTLKN
FRML  &lt;&gt; PAKSMENGTOTLKN = ((1+1.65868473220397)*(0.0775261497897936*PAKNECONPRVTKN+0*PAKNECONGOVTKN+0*PAKNEGDIFTOTKN+0.0217448978257548*PAKNEEXPGNFSKN+0.0458991644104248*PAKNEGDISTKBKN)-0.11894699850705*PAKNEIMPGNFSKN--0.50579180838529*PAKNYTAXNINDKN-0)/(1+5.65663938581514) $">
<polygon fill="#63b8ff" stroke="black" points="991,-383 846,-383 846,-347 991,-347 991,-383"/>
<text text-anchor="start" x="852.5" y="-360.8" font-family="Times New Roman,serif" font-size="14.00" fill="blue">PAKSMENGTOTLKN:</text>
</a>
</g>
</g>
<!-- PAKNECONPRVTKN&#45;&gt;PAKSMENGTOTLKN -->
<g id="edge19" class="edge">
<title>PAKNECONPRVTKN-&gt;PAKSMENGTOTLKN</title>
<g id="a_edge19"><a xlink:href="bogus" xlink:title=" PAKNECONPRVTKN -&gt; PAKSMENGTOTLKN Min. att. -14%  max: 2186%">
<path fill="none" stroke="black" stroke-width="8" d="M565.03,-481.99C596.58,-457.24 657.44,-413.38 717,-392 754.62,-378.49 798.41,-371.66 835.46,-368.24"/>
<polygon fill="black" stroke="black" stroke-width="8" points="836.35,-375.19 845.72,-367.36 835.16,-361.24 836.35,-375.19"/>
</a>
</g>
</g>
<!-- PAKSMAGRFSTYKN -->
<g id="node17" class="node">
<title>PAKSMAGRFSTYKN</title>
<g id="a_node17"><a xlink:title="PAKSMAGRFSTYKN
FRML  &lt;&gt; PAKSMAGRFSTYKN = ((1+0.195965019358753)*(0.010131919293849*PAKNECONPRVTKN+0*PAKNECONGOVTKN+0*PAKNEGDIFTOTKN+0.000136733767007103*PAKNEEXPGNFSKN+0.0199955288980741*PAKNEGDISTKBKN)-0.00076829563200478*PAKNEIMPGNFSKN-0.00172030587371022*PAKNYTAXNINDKN-65421)/(1+0.319587584852584) $">
<polygon fill="#63b8ff" stroke="black" points="990.5,-329 846.5,-329 846.5,-293 990.5,-293 990.5,-329"/>
<text text-anchor="start" x="852.5" y="-306.8" font-family="Times New Roman,serif" font-size="14.00" fill="blue">PAKSMAGRFSTYKN:</text>
</a>
</g>
</g>
<!-- PAKNECONPRVTKN&#45;&gt;PAKSMAGRFSTYKN -->
<g id="edge18" class="edge">
<title>PAKNECONPRVTKN-&gt;PAKSMAGRFSTYKN</title>
<g id="a_edge18"><a xlink:href="bogus" xlink:title=" PAKNECONPRVTKN -&gt; PAKSMAGRFSTYKN Min. att. 96%  max: 371%">
<path fill="none" stroke="black" stroke-width="8" d="M556.14,-481.85C582.34,-447.23 644.8,-372.15 717,-338 753.71,-320.64 798.17,-313.45 835.88,-310.79"/>
<polygon fill="black" stroke="black" stroke-width="8" points="836.77,-317.75 846.32,-310.15 835.92,-303.77 836.77,-317.75"/>
</a>
</g>
</g>
<!-- PAKSMSRVWHSLKN -->
<g id="node18" class="node">
<title>PAKSMSRVWHSLKN</title>
<g id="a_node18"><a xlink:title="PAKSMSRVWHSLKN
FRML  &lt;&gt; PAKSMSRVWHSLKN = ((1+1.17766663382018E-08)*(0*PAKNECONPRVTKN+0*PAKNECONGOVTKN+0*PAKNEGDIFTOTKN+0*PAKNEEXPGNFSKN+0*PAKNEGDISTKBKN)-0*PAKNEIMPGNFSKN-0*PAKNYTAXNINDKN--4160770)/(1+0.265916086910196) $">
<polygon fill="#63b8ff" stroke="black" points="992,-275 845,-275 845,-239 992,-239 992,-275"/>
<text text-anchor="start" x="851.5" y="-252.8" font-family="Times New Roman,serif" font-size="14.00" fill="blue">PAKSMSRVWHSLKN:</text>
</a>
</g>
</g>
<!-- PAKNECONPRVTKN&#45;&gt;PAKSMSRVWHSLKN -->
<g id="edge1" class="edge">
<title>PAKNECONPRVTKN-&gt;PAKSMSRVWHSLKN</title>
<g id="a_edge1"><a xlink:href="bogus" xlink:title=" PAKNECONPRVTKN -&gt; PAKSMSRVWHSLKN Min. att. 0%  max: 0%">
<path fill="none" stroke="black" d="M551.49,-481.92C572.62,-439.17 632.05,-331.88 717,-284 752.39,-264.05 796.73,-256.62 834.71,-254.46"/>
<polygon fill="black" stroke="black" points="834.9,-257.96 844.73,-254.01 834.58,-250.96 834.9,-257.96"/>
</a>
</g>
</g>
<!-- PAKSMINDCNSTKN -->
<g id="node20" class="node">
<title>PAKSMINDCNSTKN</title>
<g id="a_node20"><a xlink:title="PAKSMINDCNSTKN
FRML  &lt;&gt; PAKSMINDCNSTKN = ((1+0.0370651228196874)*(0*PAKNECONPRVTKN+0*PAKNECONGOVTKN+0.433487212699245*PAKNEGDIFTOTKN+0.00170061231445462*PAKNEEXPGNFSKN+0.0166541213494276*PAKNEGDISTKBKN)-0.00444968266528859*PAKNEIMPGNFSKN-0*PAKNYTAXNINDKN-55116.3653855153)/(1+1.91367284458402) $">
<polygon fill="#63b8ff" stroke="black" points="989,-221 848,-221 848,-185 989,-185 989,-221"/>
<text text-anchor="start" x="854.5" y="-198.8" font-family="Times New Roman,serif" font-size="14.00" fill="blue">PAKSMINDCNSTKN:</text>
</a>
</g>
</g>
<!-- PAKNECONPRVTKN&#45;&gt;PAKSMINDCNSTKN -->
<g id="edge10" class="edge">
<title>PAKNECONPRVTKN-&gt;PAKSMINDCNSTKN</title>
<g id="a_edge10"><a xlink:href="bogus" xlink:title=" PAKNECONPRVTKN -&gt; PAKSMINDCNSTKN Min. att. 0%  max: 0%">
<path fill="none" stroke="black" d="M548.73,-481.64C565.42,-431.57 619.1,-292.21 717,-230 752.38,-207.52 798.34,-200.13 837.33,-198.65"/>
<polygon fill="black" stroke="black" points="837.7,-202.14 847.61,-198.39 837.52,-195.14 837.7,-202.14"/>
</a>
</g>
</g>
<!-- PAKSMSRVHSNGKN -->
<g id="node22" class="node">
<title>PAKSMSRVHSNGKN</title>
<g id="a_node22"><a xlink:title="PAKSMSRVHSNGKN
FRML  &lt;&gt; PAKSMSRVHSNGKN = ((1+0.782809577554843)*(0.0647364660896117*PAKNECONPRVTKN+0*PAKNECONGOVTKN+0.00605333595533851*PAKNEGDIFTOTKN+0.03048358523237*PAKNEEXPGNFSKN+0*PAKNEGDISTKBKN)-0.0244768173208691*PAKNEIMPGNFSKN-0.0684093628903126*PAKNYTAXNINDKN-0)/(1+0.150771193398883) $">
<polygon fill="#63b8ff" stroke="black" points="991,-167 846,-167 846,-131 991,-131 991,-167"/>
<text text-anchor="start" x="852.5" y="-144.8" font-family="Times New Roman,serif" font-size="14.00" fill="blue">PAKSMSRVHSNGKN:</text>
</a>
</g>
</g>
<!-- PAKNECONPRVTKN&#45;&gt;PAKSMSRVHSNGKN -->
<g id="edge21" class="edge">
<title>PAKNECONPRVTKN-&gt;PAKSMSRVHSNGKN</title>
<g id="a_edge21"><a xlink:href="bogus" xlink:title=" PAKNECONPRVTKN -&gt; PAKSMSRVHSNGKN Min. att. 34%  max: 147%">
<path fill="none" stroke="black" stroke-width="8" d="M546.7,-481.81C559.21,-425.51 605.48,-253.27 717,-176 751.19,-152.31 796.65,-144.76 835.64,-143.49"/>
<polygon fill="black" stroke="black" stroke-width="8" points="836.06,-150.48 845.92,-143.29 835.79,-136.48 836.06,-150.48"/>
</a>
</g>
</g>
<!-- PAKSMAGRCRPSKN -->
<g id="node23" class="node">
<title>PAKSMAGRCRPSKN</title>
<g id="a_node23"><a xlink:title="PAKSMAGRCRPSKN
FRML  &lt;&gt; PAKSMAGRCRPSKN = ((1+2.09928590574241)*(0.144287620838506*PAKNECONPRVTKN+0*PAKNECONGOVTKN+0*PAKNEGDIFTOTKN+0.0572678299039023*PAKNEEXPGNFSKN+0.267381669083985*PAKNEGDISTKBKN)-0.0736247088197363*PAKNEIMPGNFSKN-0.0407034395686347*PAKNYTAXNINDKN-906311)/(1+0.396041694659877) $">
<polygon fill="#63b8ff" stroke="black" points="990.5,-113 846.5,-113 846.5,-77 990.5,-77 990.5,-113"/>
<text text-anchor="start" x="852.5" y="-90.8" font-family="Times New Roman,serif" font-size="14.00" fill="blue">PAKSMAGRCRPSKN:</text>
</a>
</g>
</g>
<!-- PAKNECONPRVTKN&#45;&gt;PAKSMAGRCRPSKN -->
<g id="edge17" class="edge">
<title>PAKNECONPRVTKN-&gt;PAKSMAGRCRPSKN</title>
<g id="a_edge17"><a xlink:href="bogus" xlink:title=" PAKNECONPRVTKN -&gt; PAKSMAGRCRPSKN Min. att. -25%  max: 208%">
<path fill="none" stroke="black" stroke-width="8" d="M545.23,-481.99C553.92,-420.09 591.52,-214.77 717,-122 750.78,-97.03 796.75,-89.5 836.15,-88.56"/>
<polygon fill="black" stroke="black" stroke-width="8" points="836.35,-95.56 846.28,-88.46 836.21,-81.56 836.35,-95.56"/>
</a>
</g>
</g>
<!-- PAKNYGDPMKTPKN -->
<g id="node24" class="node">
<title>PAKNYGDPMKTPKN</title>
<g id="a_node24"><a xlink:title="GDP Expenditure side at market prices
FRML  &lt;&gt; PAKNYGDPMKTPKN = PAKNECONPRVTKN+PAKNECONGOVTKN+PAKNEGDIFTOTKN+PAKNEGDISTKBKN+PAKNEEXPGNFSKN-PAKNEIMPGNFSKN+PAKNYGDPDISCKN+PAKADAP*PAKDISPREPKN $">
<polygon fill="#63b8ff" stroke="black" points="1099,-59 738,-59 738,-23 1099,-23 1099,-59"/>
<text text-anchor="start" x="744.5" y="-36.8" font-family="Times New Roman,serif" font-size="14.00" fill="blue">PAKNYGDPMKTPKN:GDP Expenditure side at market prices</text>
</a>
</g>
</g>
<!-- PAKNECONPRVTKN&#45;&gt;PAKNYGDPMKTPKN -->
<g id="edge9" class="edge">
<title>PAKNECONPRVTKN-&gt;PAKNYGDPMKTPKN</title>
<g id="a_edge9"><a xlink:href="bogus" xlink:title=" PAKNECONPRVTKN -&gt; PAKNYGDPMKTPKN Min. att. -1557%  max: 290%">
<path fill="none" stroke="black" stroke-width="8" d="M544.13,-481.89C549.38,-414.48 577.53,-176.44 717,-68 720.87,-64.99 724.91,-62.23 729.1,-59.7"/>
<polygon fill="black" stroke="black" stroke-width="8" points="732.54,-65.8 737.88,-54.82 725.74,-53.56 732.54,-65.8"/>
</a>
</g>
</g>
<!-- PAKNECONPRVTKN_X -->
<g id="node5" class="node">
<title>PAKNECONPRVTKN_X</title>
<g id="a_node5"><a xlink:title="Exo value:Household Consumption
Exogen">
<polygon fill="yellow" stroke="black" points="360,-707 7,-707 7,-671 360,-671 360,-707"/>
<text text-anchor="start" x="13.5" y="-684.8" font-family="Times New Roman,serif" font-size="14.00" fill="blue">PAKNECONPRVTKN_X:Exo value:Household Consumption</text>
</a>
</g>
</g>
<!-- PAKNECONPRVTKN_X&#45;&gt;PAKNECONPRVTKN -->
<g id="edge6" class="edge">
<title>PAKNECONPRVTKN_X-&gt;PAKNECONPRVTKN</title>
<g id="a_edge6"><a xlink:href="bogus" xlink:title=" PAKNECONPRVTKN_X -&gt; PAKNECONPRVTKN Min. att. 0%  max: 0%">
<path fill="none" stroke="black" d="M345.42,-670.88C352.84,-668.28 360.07,-665.33 367,-662 433.63,-629.95 492.21,-563.43 521.38,-526.37"/>
<polygon fill="black" stroke="black" points="524.46,-528.11 527.82,-518.06 518.93,-523.83 524.46,-528.11"/>
</a>
</g>
</g>
<!-- PAKNYYWBTOTLCN -->
<g id="node9" class="node">
<title>PAKNYYWBTOTLCN</title>
<g id="a_node9"><a xlink:title="Economy-wide wage bill
FRML  &lt;&gt; PAKNYYWBTOTLCN = PAKNYWRTTOTLCN*PAKLMEMPTOTLCN $">
<polygon fill="#63b8ff" stroke="black" points="326,-653 41,-653 41,-617 326,-617 326,-653"/>
<text text-anchor="start" x="47.5" y="-630.8" font-family="Times New Roman,serif" font-size="14.00" fill="blue">PAKNYYWBTOTLCN:Economy-wide wage bill</text>
</a>
</g>
</g>
<!-- PAKNYYWBTOTLCN&#45;&gt;PAKNECONPRVTKN -->
<g id="edge5" class="edge">
<title>PAKNYYWBTOTLCN-&gt;PAKNECONPRVTKN</title>
<g id="a_edge5"><a xlink:href="bogus" xlink:title=" PAKNYYWBTOTLCN -&gt; PAKNECONPRVTKN Min. att. -594%  max: 5821%">
<path fill="none" stroke="black" stroke-width="8" d="M326.43,-619.87C340.33,-616.65 354.07,-612.74 367,-608 421.63,-587.99 477.51,-549.43 510.73,-524.22"/>
<polygon fill="black" stroke="black" stroke-width="8" points="515,-529.76 518.67,-518.11 506.47,-518.66 515,-529.76"/>
</a>
</g>
</g>
<!-- PAKFMLBLPOLYXN -->
<g id="node16" class="node">
<title>PAKFMLBLPOLYXN</title>
<g id="a_node16"><a xlink:title="Policy Rate
FRML &lt;Z,EXO&gt; PAKFMLBLPOLYXN = (-100*PAKFMLBLPOLYXN_A+100* (0.905129162122953*PAKFMLBLPOLYXN(-1)/100+(1-0.905129162122953)*(PAKMPPOLNATRXN/100+1.2*(((LOG(PAKNECONPRVTXN))-(LOG(PAKNECONPRVTXN(-1))))-PAKINFLEXPT/100)+0.5*PAKNYGDPGAP_/100)) ) * (1-PAKFMLBLPOLYXN_D)+ PAKFMLBLPOLYXN_X*PAKFMLBLPOLYXN_D  $">
<polygon fill="#63b8ff" stroke="black" points="286,-599 81,-599 81,-563 286,-563 286,-599"/>
<text text-anchor="start" x="87.5" y="-576.8" font-family="Times New Roman,serif" font-size="14.00" fill="blue">PAKFMLBLPOLYXN:Policy Rate</text>
</a>
</g>
</g>
<!-- PAKFMLBLPOLYXN&#45;&gt;PAKNECONPRVTKN -->
<g id="edge20" class="edge">
<title>PAKFMLBLPOLYXN-&gt;PAKNECONPRVTKN</title>
<g id="a_edge20"><a xlink:href="bogus" xlink:title=" PAKFMLBLPOLYXN -&gt; PAKNECONPRVTKN Min. att. -160%  max: 20%">
<path fill="none" stroke="black" stroke-width="8" d="M286.38,-568.76C312.78,-564.82 341.08,-559.9 367,-554 405.31,-545.28 447.42,-532.3 480.61,-521.26"/>
<polygon fill="black" stroke="black" stroke-width="8" points="482.92,-527.87 490.17,-518.05 478.46,-514.59 482.92,-527.87"/>
</a>
</g>
</g>
<!-- PAKGGREVDRCTXN -->
<g id="node19" class="node">
<title>PAKGGREVDRCTXN</title>
<g id="a_node19"><a xlink:title="Effective tax rates
Exogen">
<polygon fill="yellow" stroke="black" points="305.5,-545 61.5,-545 61.5,-509 305.5,-509 305.5,-545"/>
<text text-anchor="start" x="67.5" y="-522.8" font-family="Times New Roman,serif" font-size="14.00" fill="blue">PAKGGREVDRCTXN:Effective tax rates</text>
</a>
</g>
</g>
<!-- PAKGGREVDRCTXN&#45;&gt;PAKNECONPRVTKN -->
<g id="edge23" class="edge">
<title>PAKGGREVDRCTXN-&gt;PAKNECONPRVTKN</title>
<g id="a_edge23"><a xlink:href="bogus" xlink:title=" PAKGGREVDRCTXN -&gt; PAKNECONPRVTKN Min. att. 0%  max: 0%">
<path fill="none" stroke="black" d="M305.69,-517.82C333.68,-515.7 363.77,-513.42 392.76,-511.23"/>
<polygon fill="black" stroke="black" points="393.26,-514.7 402.97,-510.45 392.73,-507.72 393.26,-514.7"/>
</a>
</g>
</g>
<!-- PAKNECONPRVTXN -->
<g id="node21" class="node">
<title>PAKNECONPRVTXN</title>
<g id="a_node21"><a xlink:title="Household demand
FRML  &lt;&gt; PAKNECONPRVTXN = ((PAKNECONENGYSH**PAKCESENGYCON)*PAKNECONENGYXN**(1-PAKCESENGYCON)+(PAKNECONOTHRSH**PAKCESENGYCON)*PAKNECONOTHRXN**(1-PAKCESENGYCON))**(1/(1-PAKCESENGYCON)) $">
<polygon fill="#63b8ff" stroke="black" points="307.5,-491 59.5,-491 59.5,-455 307.5,-455 307.5,-491"/>
<text text-anchor="start" x="65.5" y="-468.8" font-family="Times New Roman,serif" font-size="14.00" fill="blue">PAKNECONPRVTXN:Household demand</text>
</a>
</g>
</g>
<!-- PAKNECONPRVTXN&#45;&gt;PAKNECONPRVTKN -->
<g id="edge2" class="edge">
<title>PAKNECONPRVTXN-&gt;PAKNECONPRVTKN</title>
<g id="a_edge2"><a xlink:href="bogus" xlink:title=" PAKNECONPRVTXN -&gt; PAKNECONPRVTKN Min. att. -5706%  max: 593%">
<path fill="none" stroke="black" stroke-width="8" d="M307.69,-482.33C335.14,-484.41 364.53,-486.63 392.87,-488.78"/>
<polygon fill="black" stroke="black" stroke-width="8" points="392.35,-495.76 402.85,-489.54 393.4,-481.8 392.35,-495.76"/>
</a>
</g>
</g>
<!-- PAKNECONPRVTKN_A -->
<g id="node25" class="node">
<title>PAKNECONPRVTKN_A</title>
<g id="a_node25"><a xlink:title="Add factor:Household Consumption
Exogen">
<polygon fill="yellow" stroke="black" points="362,-437 5,-437 5,-401 362,-401 362,-437"/>
<text text-anchor="start" x="11.5" y="-414.8" font-family="Times New Roman,serif" font-size="14.00" fill="blue">PAKNECONPRVTKN_A:Add factor:Household Consumption</text>
</a>
</g>
</g>
<!-- PAKNECONPRVTKN_A&#45;&gt;PAKNECONPRVTKN -->
<g id="edge8" class="edge">
<title>PAKNECONPRVTKN_A-&gt;PAKNECONPRVTKN</title>
<g id="a_edge8"><a xlink:href="bogus" xlink:title=" PAKNECONPRVTKN_A -&gt; PAKNECONPRVTKN Min. att. 0%  max: 0%">
<path fill="none" stroke="black" d="M321.95,-437.01C337.21,-439.7 352.48,-442.69 367,-446 405.31,-454.72 447.42,-467.7 480.61,-478.74"/>
<polygon fill="black" stroke="black" points="479.58,-482.09 490.17,-481.95 481.81,-475.45 479.58,-482.09"/>
</a>
</g>
</g>
<!-- DURING_2010 -->
<g id="node26" class="node">
<title>DURING_2010</title>
<g id="a_node26"><a xlink:title="DURING_2010
Exogen">
<polygon fill="yellow" stroke="black" points="235,-383 132,-383 132,-347 235,-347 235,-383"/>
<text text-anchor="start" x="138.5" y="-360.8" font-family="Times New Roman,serif" font-size="14.00" fill="blue">DURING_2010:</text>
</a>
</g>
</g>
<!-- DURING_2010&#45;&gt;PAKNECONPRVTKN -->
<g id="edge3" class="edge">
<title>DURING_2010-&gt;PAKNECONPRVTKN</title>
<g id="a_edge3"><a xlink:href="bogus" xlink:title=" DURING_2010 -&gt; PAKNECONPRVTKN Min. att. 0%  max: 0%">
<path fill="none" stroke="black" d="M235.04,-366.96C272.45,-369.71 324.14,-376.3 367,-392 421.63,-412.01 477.51,-450.57 510.73,-475.78"/>
<polygon fill="black" stroke="black" points="508.6,-478.57 518.67,-481.89 512.87,-473.02 508.6,-478.57"/>
</a>
</g>
</g>
<!-- PAKNECONPRVTKN_D -->
<g id="node27" class="node">
<title>PAKNECONPRVTKN_D</title>
<g id="a_node27"><a xlink:title="Exo dummy:Household Consumption
Exogen">
<polygon fill="yellow" stroke="black" points="367,-329 0,-329 0,-293 367,-293 367,-329"/>
<text text-anchor="start" x="6.5" y="-306.8" font-family="Times New Roman,serif" font-size="14.00" fill="blue">PAKNECONPRVTKN_D:Exo dummy:Household Consumption</text>
</a>
</g>
</g>
<!-- PAKNECONPRVTKN_D&#45;&gt;PAKNECONPRVTKN -->
<g id="edge25" class="edge">
<title>PAKNECONPRVTKN_D-&gt;PAKNECONPRVTKN</title>
<g id="a_edge25"><a xlink:href="bogus" xlink:title=" PAKNECONPRVTKN_D -&gt; PAKNECONPRVTKN Min. att. 0%  max: 0%">
<path fill="none" stroke="black" d="M345.42,-329.12C352.84,-331.72 360.07,-334.67 367,-338 433.63,-370.05 492.21,-436.57 521.38,-473.63"/>
<polygon fill="black" stroke="black" points="518.93,-476.17 527.82,-481.94 524.46,-471.89 518.93,-476.17"/>
</a>
</g>
</g>
</g>
</svg>