<?xml version="1.0" encoding="utf-8" standalone="no"?>
<!DOCTYPE svg PUBLIC "-//W3C//DTD SVG 1.1//EN"
  "http://www.w3.org/Graphics/SVG/1.1/DTD/svg11.dtd">
<svg xmlns:xlink="http://www.w3.org/1999/xlink" width="720pt" height="432pt" viewBox="0 0 720 432" xmlns="http://www.w3.org/2000/svg" version="1.1">
 <metadata>
  <rdf:RDF xmlns:dc="http://purl.org/dc/elements/1.1/" xmlns:cc="http://creativecommons.org/ns#" xmlns:rdf="http://www.w3.org/1999/02/22-rdf-syntax-ns#">
   <cc:Work>
    <dc:type rdf:resource="http://purl.org/dc/dcmitype/StillImage"/>
    <dc:date>2023-01-22T23:48:52.091636</dc:date>
    <dc:format>image/svg+xml</dc:format>
    <dc:creator>
     <cc:Agent>
      <dc:title>Matplotlib v3.5.1, https://matplotlib.org/</dc:title>
     </cc:Agent>
    </dc:creator>
   </cc:Work>
  </rdf:RDF>
 </metadata>
 <defs>
  <style type="text/css">*{stroke-linejoin: round; stroke-linecap: butt}</style>
 </defs>
 <g id="figure_1">
  <g id="patch_1">
   <path d="M 0 432 
L 720 432 
L 720 0 
L 0 0 
L 0 432 
z
" style="fill: none"/>
  </g>
  <g id="axes_1">
   <g id="patch_2">
    <path d="M 90 378 
L 648 378 
L 648 51.84 
L 90 51.84 
z
" style="fill: #ffffff"/>
   </g>
   <g id="matplotlib.axis_1">
    <g id="xtick_1">
     <g id="line2d_1">
      <defs>
       <path id="m39d7f4694d" d="M 0 0 
L 0 3.5 
" style="stroke: #000000; stroke-width: 0.8"/>
      </defs>
      <g>
       <use xlink:href="#m39d7f4694d" x="171.727273" y="378" style="stroke: #000000; stroke-width: 0.8"/>
      </g>
     </g>
     <g id="text_1">
      <!-- 2020 -->
      <g transform="translate(159.002273 392.598437)scale(0.1 -0.1)">
       <defs>
        <path id="DejaVuSans-32" d="M 1228 531 
L 3431 531 
L 3431 0 
L 469 0 
L 469 531 
Q 828 903 1448 1529 
Q 2069 2156 2228 2338 
Q 2531 2678 2651 2914 
Q 2772 3150 2772 3378 
Q 2772 3750 2511 3984 
Q 2250 4219 1831 4219 
Q 1534 4219 1204 4116 
Q 875 4013 500 3803 
L 500 4441 
Q 881 4594 1212 4672 
Q 1544 4750 1819 4750 
Q 2544 4750 2975 4387 
Q 3406 4025 3406 3419 
Q 3406 3131 3298 2873 
Q 3191 2616 2906 2266 
Q 2828 2175 2409 1742 
Q 1991 1309 1228 531 
z
" transform="scale(0.015625)"/>
        <path id="DejaVuSans-30" d="M 2034 4250 
Q 1547 4250 1301 3770 
Q 1056 3291 1056 2328 
Q 1056 1369 1301 889 
Q 1547 409 2034 409 
Q 2525 409 2770 889 
Q 3016 1369 3016 2328 
Q 3016 3291 2770 3770 
Q 2525 4250 2034 4250 
z
M 2034 4750 
Q 2819 4750 3233 4129 
Q 3647 3509 3647 2328 
Q 3647 1150 3233 529 
Q 2819 -91 2034 -91 
Q 1250 -91 836 529 
Q 422 1150 422 2328 
Q 422 3509 836 4129 
Q 1250 4750 2034 4750 
z
" transform="scale(0.015625)"/>
       </defs>
       <use xlink:href="#DejaVuSans-32"/>
       <use xlink:href="#DejaVuSans-30" x="63.623047"/>
       <use xlink:href="#DejaVuSans-32" x="127.246094"/>
       <use xlink:href="#DejaVuSans-30" x="190.869141"/>
      </g>
     </g>
    </g>
    <g id="xtick_2">
     <g id="line2d_2">
      <g>
       <use xlink:href="#m39d7f4694d" x="284.454545" y="378" style="stroke: #000000; stroke-width: 0.8"/>
      </g>
     </g>
     <g id="text_2">
      <!-- 2040 -->
      <g transform="translate(271.729545 392.598437)scale(0.1 -0.1)">
       <defs>
        <path id="DejaVuSans-34" d="M 2419 4116 
L 825 1625 
L 2419 1625 
L 2419 4116 
z
M 2253 4666 
L 3047 4666 
L 3047 1625 
L 3713 1625 
L 3713 1100 
L 3047 1100 
L 3047 0 
L 2419 0 
L 2419 1100 
L 313 1100 
L 313 1709 
L 2253 4666 
z
" transform="scale(0.015625)"/>
       </defs>
       <use xlink:href="#DejaVuSans-32"/>
       <use xlink:href="#DejaVuSans-30" x="63.623047"/>
       <use xlink:href="#DejaVuSans-34" x="127.246094"/>
       <use xlink:href="#DejaVuSans-30" x="190.869141"/>
      </g>
     </g>
    </g>
    <g id="xtick_3">
     <g id="line2d_3">
      <g>
       <use xlink:href="#m39d7f4694d" x="397.181818" y="378" style="stroke: #000000; stroke-width: 0.8"/>
      </g>
     </g>
     <g id="text_3">
      <!-- 2060 -->
      <g transform="translate(384.456818 392.598437)scale(0.1 -0.1)">
       <defs>
        <path id="DejaVuSans-36" d="M 2113 2584 
Q 1688 2584 1439 2293 
Q 1191 2003 1191 1497 
Q 1191 994 1439 701 
Q 1688 409 2113 409 
Q 2538 409 2786 701 
Q 3034 994 3034 1497 
Q 3034 2003 2786 2293 
Q 2538 2584 2113 2584 
z
M 3366 4563 
L 3366 3988 
Q 3128 4100 2886 4159 
Q 2644 4219 2406 4219 
Q 1781 4219 1451 3797 
Q 1122 3375 1075 2522 
Q 1259 2794 1537 2939 
Q 1816 3084 2150 3084 
Q 2853 3084 3261 2657 
Q 3669 2231 3669 1497 
Q 3669 778 3244 343 
Q 2819 -91 2113 -91 
Q 1303 -91 875 529 
Q 447 1150 447 2328 
Q 447 3434 972 4092 
Q 1497 4750 2381 4750 
Q 2619 4750 2861 4703 
Q 3103 4656 3366 4563 
z
" transform="scale(0.015625)"/>
       </defs>
       <use xlink:href="#DejaVuSans-32"/>
       <use xlink:href="#DejaVuSans-30" x="63.623047"/>
       <use xlink:href="#DejaVuSans-36" x="127.246094"/>
       <use xlink:href="#DejaVuSans-30" x="190.869141"/>
      </g>
     </g>
    </g>
    <g id="xtick_4">
     <g id="line2d_4">
      <g>
       <use xlink:href="#m39d7f4694d" x="509.909091" y="378" style="stroke: #000000; stroke-width: 0.8"/>
      </g>
     </g>
     <g id="text_4">
      <!-- 2080 -->
      <g transform="translate(497.184091 392.598437)scale(0.1 -0.1)">
       <defs>
        <path id="DejaVuSans-38" d="M 2034 2216 
Q 1584 2216 1326 1975 
Q 1069 1734 1069 1313 
Q 1069 891 1326 650 
Q 1584 409 2034 409 
Q 2484 409 2743 651 
Q 3003 894 3003 1313 
Q 3003 1734 2745 1975 
Q 2488 2216 2034 2216 
z
M 1403 2484 
Q 997 2584 770 2862 
Q 544 3141 544 3541 
Q 544 4100 942 4425 
Q 1341 4750 2034 4750 
Q 2731 4750 3128 4425 
Q 3525 4100 3525 3541 
Q 3525 3141 3298 2862 
Q 3072 2584 2669 2484 
Q 3125 2378 3379 2068 
Q 3634 1759 3634 1313 
Q 3634 634 3220 271 
Q 2806 -91 2034 -91 
Q 1263 -91 848 271 
Q 434 634 434 1313 
Q 434 1759 690 2068 
Q 947 2378 1403 2484 
z
M 1172 3481 
Q 1172 3119 1398 2916 
Q 1625 2713 2034 2713 
Q 2441 2713 2670 2916 
Q 2900 3119 2900 3481 
Q 2900 3844 2670 4047 
Q 2441 4250 2034 4250 
Q 1625 4250 1398 4047 
Q 1172 3844 1172 3481 
z
" transform="scale(0.015625)"/>
       </defs>
       <use xlink:href="#DejaVuSans-32"/>
       <use xlink:href="#DejaVuSans-30" x="63.623047"/>
       <use xlink:href="#DejaVuSans-38" x="127.246094"/>
       <use xlink:href="#DejaVuSans-30" x="190.869141"/>
      </g>
     </g>
    </g>
    <g id="xtick_5">
     <g id="line2d_5">
      <g>
       <use xlink:href="#m39d7f4694d" x="622.636364" y="378" style="stroke: #000000; stroke-width: 0.8"/>
      </g>
     </g>
     <g id="text_5">
      <!-- 2100 -->
      <g transform="translate(609.911364 392.598437)scale(0.1 -0.1)">
       <defs>
        <path id="DejaVuSans-31" d="M 794 531 
L 1825 531 
L 1825 4091 
L 703 3866 
L 703 4441 
L 1819 4666 
L 2450 4666 
L 2450 531 
L 3481 531 
L 3481 0 
L 794 0 
L 794 531 
z
" transform="scale(0.015625)"/>
       </defs>
       <use xlink:href="#DejaVuSans-32"/>
       <use xlink:href="#DejaVuSans-31" x="63.623047"/>
       <use xlink:href="#DejaVuSans-30" x="127.246094"/>
       <use xlink:href="#DejaVuSans-30" x="190.869141"/>
      </g>
     </g>
    </g>
   </g>
   <g id="matplotlib.axis_2">
    <g id="ytick_1">
     <g id="line2d_6">
      <defs>
       <path id="mfc88479276" d="M 0 0 
L -3.5 0 
" style="stroke: #000000; stroke-width: 0.8"/>
      </defs>
      <g>
       <use xlink:href="#mfc88479276" x="90" y="328.938865" style="stroke: #000000; stroke-width: 0.8"/>
      </g>
     </g>
     <g id="text_6">
      <!-- 50,000,000  -->
      <g transform="translate(22.565625 332.738084)scale(0.1 -0.1)">
       <defs>
        <path id="DejaVuSans-35" d="M 691 4666 
L 3169 4666 
L 3169 4134 
L 1269 4134 
L 1269 2991 
Q 1406 3038 1543 3061 
Q 1681 3084 1819 3084 
Q 2600 3084 3056 2656 
Q 3513 2228 3513 1497 
Q 3513 744 3044 326 
Q 2575 -91 1722 -91 
Q 1428 -91 1123 -41 
Q 819 9 494 109 
L 494 744 
Q 775 591 1075 516 
Q 1375 441 1709 441 
Q 2250 441 2565 725 
Q 2881 1009 2881 1497 
Q 2881 1984 2565 2268 
Q 2250 2553 1709 2553 
Q 1456 2553 1204 2497 
Q 953 2441 691 2322 
L 691 4666 
z
" transform="scale(0.015625)"/>
        <path id="DejaVuSans-2c" d="M 750 794 
L 1409 794 
L 1409 256 
L 897 -744 
L 494 -744 
L 750 256 
L 750 794 
z
" transform="scale(0.015625)"/>
        <path id="DejaVuSans-20" transform="scale(0.015625)"/>
       </defs>
       <use xlink:href="#DejaVuSans-35"/>
       <use xlink:href="#DejaVuSans-30" x="63.623047"/>
       <use xlink:href="#DejaVuSans-2c" x="127.246094"/>
       <use xlink:href="#DejaVuSans-30" x="159.033203"/>
       <use xlink:href="#DejaVuSans-30" x="222.65625"/>
       <use xlink:href="#DejaVuSans-30" x="286.279297"/>
       <use xlink:href="#DejaVuSans-2c" x="349.902344"/>
       <use xlink:href="#DejaVuSans-30" x="381.689453"/>
       <use xlink:href="#DejaVuSans-30" x="445.3125"/>
       <use xlink:href="#DejaVuSans-30" x="508.935547"/>
       <use xlink:href="#DejaVuSans-20" x="572.558594"/>
      </g>
     </g>
    </g>
    <g id="ytick_2">
     <g id="line2d_7">
      <g>
       <use xlink:href="#mfc88479276" x="90" y="275.79839" style="stroke: #000000; stroke-width: 0.8"/>
      </g>
     </g>
     <g id="text_7">
      <!-- 100,000,000  -->
      <g transform="translate(16.203125 279.597609)scale(0.1 -0.1)">
       <use xlink:href="#DejaVuSans-31"/>
       <use xlink:href="#DejaVuSans-30" x="63.623047"/>
       <use xlink:href="#DejaVuSans-30" x="127.246094"/>
       <use xlink:href="#DejaVuSans-2c" x="190.869141"/>
       <use xlink:href="#DejaVuSans-30" x="222.65625"/>
       <use xlink:href="#DejaVuSans-30" x="286.279297"/>
       <use xlink:href="#DejaVuSans-30" x="349.902344"/>
       <use xlink:href="#DejaVuSans-2c" x="413.525391"/>
       <use xlink:href="#DejaVuSans-30" x="445.3125"/>
       <use xlink:href="#DejaVuSans-30" x="508.935547"/>
       <use xlink:href="#DejaVuSans-30" x="572.558594"/>
       <use xlink:href="#DejaVuSans-20" x="636.181641"/>
      </g>
     </g>
    </g>
    <g id="ytick_3">
     <g id="line2d_8">
      <g>
       <use xlink:href="#mfc88479276" x="90" y="222.657916" style="stroke: #000000; stroke-width: 0.8"/>
      </g>
     </g>
     <g id="text_8">
      <!-- 150,000,000  -->
      <g transform="translate(16.203125 226.457135)scale(0.1 -0.1)">
       <use xlink:href="#DejaVuSans-31"/>
       <use xlink:href="#DejaVuSans-35" x="63.623047"/>
       <use xlink:href="#DejaVuSans-30" x="127.246094"/>
       <use xlink:href="#DejaVuSans-2c" x="190.869141"/>
       <use xlink:href="#DejaVuSans-30" x="222.65625"/>
       <use xlink:href="#DejaVuSans-30" x="286.279297"/>
       <use xlink:href="#DejaVuSans-30" x="349.902344"/>
       <use xlink:href="#DejaVuSans-2c" x="413.525391"/>
       <use xlink:href="#DejaVuSans-30" x="445.3125"/>
       <use xlink:href="#DejaVuSans-30" x="508.935547"/>
       <use xlink:href="#DejaVuSans-30" x="572.558594"/>
       <use xlink:href="#DejaVuSans-20" x="636.181641"/>
      </g>
     </g>
    </g>
    <g id="ytick_4">
     <g id="line2d_9">
      <g>
       <use xlink:href="#mfc88479276" x="90" y="169.517441" style="stroke: #000000; stroke-width: 0.8"/>
      </g>
     </g>
     <g id="text_9">
      <!-- 200,000,000  -->
      <g transform="translate(16.203125 173.31666)scale(0.1 -0.1)">
       <use xlink:href="#DejaVuSans-32"/>
       <use xlink:href="#DejaVuSans-30" x="63.623047"/>
       <use xlink:href="#DejaVuSans-30" x="127.246094"/>
       <use xlink:href="#DejaVuSans-2c" x="190.869141"/>
       <use xlink:href="#DejaVuSans-30" x="222.65625"/>
       <use xlink:href="#DejaVuSans-30" x="286.279297"/>
       <use xlink:href="#DejaVuSans-30" x="349.902344"/>
       <use xlink:href="#DejaVuSans-2c" x="413.525391"/>
       <use xlink:href="#DejaVuSans-30" x="445.3125"/>
       <use xlink:href="#DejaVuSans-30" x="508.935547"/>
       <use xlink:href="#DejaVuSans-30" x="572.558594"/>
       <use xlink:href="#DejaVuSans-20" x="636.181641"/>
      </g>
     </g>
    </g>
    <g id="ytick_5">
     <g id="line2d_10">
      <g>
       <use xlink:href="#mfc88479276" x="90" y="116.376967" style="stroke: #000000; stroke-width: 0.8"/>
      </g>
     </g>
     <g id="text_10">
      <!-- 250,000,000  -->
      <g transform="translate(16.203125 120.176185)scale(0.1 -0.1)">
       <use xlink:href="#DejaVuSans-32"/>
       <use xlink:href="#DejaVuSans-35" x="63.623047"/>
       <use xlink:href="#DejaVuSans-30" x="127.246094"/>
       <use xlink:href="#DejaVuSans-2c" x="190.869141"/>
       <use xlink:href="#DejaVuSans-30" x="222.65625"/>
       <use xlink:href="#DejaVuSans-30" x="286.279297"/>
       <use xlink:href="#DejaVuSans-30" x="349.902344"/>
       <use xlink:href="#DejaVuSans-2c" x="413.525391"/>
       <use xlink:href="#DejaVuSans-30" x="445.3125"/>
       <use xlink:href="#DejaVuSans-30" x="508.935547"/>
       <use xlink:href="#DejaVuSans-30" x="572.558594"/>
       <use xlink:href="#DejaVuSans-20" x="636.181641"/>
      </g>
     </g>
    </g>
    <g id="ytick_6">
     <g id="line2d_11">
      <g>
       <use xlink:href="#mfc88479276" x="90" y="63.236492" style="stroke: #000000; stroke-width: 0.8"/>
      </g>
     </g>
     <g id="text_11">
      <!-- 300,000,000  -->
      <g transform="translate(16.203125 67.035711)scale(0.1 -0.1)">
       <defs>
        <path id="DejaVuSans-33" d="M 2597 2516 
Q 3050 2419 3304 2112 
Q 3559 1806 3559 1356 
Q 3559 666 3084 287 
Q 2609 -91 1734 -91 
Q 1441 -91 1130 -33 
Q 819 25 488 141 
L 488 750 
Q 750 597 1062 519 
Q 1375 441 1716 441 
Q 2309 441 2620 675 
Q 2931 909 2931 1356 
Q 2931 1769 2642 2001 
Q 2353 2234 1838 2234 
L 1294 2234 
L 1294 2753 
L 1863 2753 
Q 2328 2753 2575 2939 
Q 2822 3125 2822 3475 
Q 2822 3834 2567 4026 
Q 2313 4219 1838 4219 
Q 1578 4219 1281 4162 
Q 984 4106 628 3988 
L 628 4550 
Q 988 4650 1302 4700 
Q 1616 4750 1894 4750 
Q 2613 4750 3031 4423 
Q 3450 4097 3450 3541 
Q 3450 3153 3228 2886 
Q 3006 2619 2597 2516 
z
" transform="scale(0.015625)"/>
       </defs>
       <use xlink:href="#DejaVuSans-33"/>
       <use xlink:href="#DejaVuSans-30" x="63.623047"/>
       <use xlink:href="#DejaVuSans-30" x="127.246094"/>
       <use xlink:href="#DejaVuSans-2c" x="190.869141"/>
       <use xlink:href="#DejaVuSans-30" x="222.65625"/>
       <use xlink:href="#DejaVuSans-30" x="286.279297"/>
       <use xlink:href="#DejaVuSans-30" x="349.902344"/>
       <use xlink:href="#DejaVuSans-2c" x="413.525391"/>
       <use xlink:href="#DejaVuSans-30" x="445.3125"/>
       <use xlink:href="#DejaVuSans-30" x="508.935547"/>
       <use xlink:href="#DejaVuSans-30" x="572.558594"/>
       <use xlink:href="#DejaVuSans-20" x="636.181641"/>
      </g>
     </g>
    </g>
   </g>
   <g id="line2d_12">
    <path d="M 115.363636 363.174545 
L 121 362.654966 
L 126.636364 361.973746 
L 132.272727 361.089813 
L 137.909091 360.108614 
L 143.545455 359.069146 
L 149.181818 357.797434 
L 154.818182 356.413214 
L 160.454545 355.331104 
L 166.090909 354.280838 
L 171.727273 353.700623 
L 177.363636 353.168179 
L 183 352.531897 
L 188.636364 351.789462 
L 194.272727 350.985003 
L 199.909091 350.144507 
L 205.545455 349.270162 
L 211.181818 348.352101 
L 216.818182 347.379023 
L 222.454545 346.343074 
L 228.090909 345.240793 
L 233.727273 344.072359 
L 239.363636 342.840434 
L 245 341.549041 
L 250.636364 340.202634 
L 256.272727 338.805399 
L 261.909091 337.360836 
L 267.545455 335.87159 
L 273.181818 334.339464 
L 278.818182 332.765531 
L 284.454545 331.150273 
L 290.090909 329.493702 
L 295.727273 327.79545 
L 301.363636 326.054828 
L 307 324.270867 
L 312.636364 322.442353 
L 318.272727 320.567854 
L 323.909091 318.645753 
L 329.545455 316.674274 
L 335.181818 314.651509 
L 340.818182 312.575435 
L 346.454545 310.443935 
L 352.090909 308.254804 
L 357.727273 306.005759 
L 363.363636 303.694443 
L 369 301.318427 
L 374.636364 298.87521 
L 380.272727 296.362218 
L 385.909091 293.776804 
L 391.545455 291.116244 
L 397.181818 288.377734 
L 402.818182 285.558389 
L 408.454545 282.655234 
L 414.090909 279.665204 
L 419.727273 276.585135 
L 425.363636 273.411761 
L 431 270.141708 
L 436.636364 266.771487 
L 442.272727 263.297493 
L 447.909091 259.715992 
L 453.545455 256.023122 
L 459.181818 252.214883 
L 464.818182 248.287133 
L 470.454545 244.235582 
L 476.090909 240.055786 
L 481.727273 235.743142 
L 487.363636 231.292879 
L 493 226.700055 
L 498.636364 221.959552 
L 504.272727 217.066065 
L 509.909091 212.0141 
L 515.545455 206.797967 
L 521.181818 201.411771 
L 526.818182 195.849407 
L 532.454545 190.104558 
L 538.090909 184.170679 
L 543.727273 178.040997 
L 549.363636 171.708503 
L 555 165.165941 
L 560.636364 158.405803 
L 566.272727 151.420322 
L 571.909091 144.201467 
L 577.545455 136.740923 
L 583.181818 129.030096 
L 588.818182 121.060101 
L 594.454545 112.821749 
L 600.090909 104.305542 
L 605.727273 95.501663 
L 611.363636 86.399963 
L 617 76.989956 
L 622.636364 67.260808 
" clip-path="url(#p5c4c9e54d3)" style="fill: none; stroke: #1f77b4; stroke-width: 3; stroke-linecap: square"/>
   </g>
   <g id="line2d_13">
    <path d="M 115.363636 363.174545 
L 121 362.654966 
L 126.636364 361.973746 
L 132.272727 361.089813 
L 137.909091 360.108614 
L 143.545455 359.069146 
L 149.181818 357.797434 
L 154.818182 356.413214 
L 160.454545 355.331104 
L 166.090909 354.280838 
L 171.727273 353.772819 
L 177.363636 353.112216 
L 183 352.427279 
L 188.636364 351.683231 
L 194.272727 350.883619 
L 199.909091 350.040904 
L 205.545455 349.158356 
L 211.181818 348.230872 
L 216.818182 347.249672 
L 222.454545 346.206729 
L 228.090909 345.097291 
L 233.727273 343.920497 
L 239.363636 342.67869 
L 245 341.376137 
L 250.636364 340.017761 
L 256.272727 338.608184 
L 261.909091 337.151206 
L 267.545455 335.649628 
L 273.181818 334.105319 
L 278.818182 332.519381 
L 284.454545 330.892313 
L 290.090909 329.224155 
L 295.727273 327.514574 
L 301.363636 325.762919 
L 307 323.968254 
L 312.636364 322.129389 
L 318.272727 320.244911 
L 323.909091 318.31321 
L 329.545455 316.332513 
L 335.181818 314.300912 
L 340.818182 312.216383 
L 346.454545 310.076808 
L 352.090909 307.87998 
L 357.727273 305.623617 
L 363.363636 303.30536 
L 369 300.922779 
L 374.636364 298.473375 
L 380.272727 295.954572 
L 385.909091 293.363723 
L 391.545455 290.698103 
L 397.181818 287.954908 
L 402.818182 285.131253 
L 408.454545 282.224162 
L 414.090909 279.230568 
L 419.727273 276.147308 
L 425.363636 272.971115 
L 431 269.698614 
L 436.636364 266.326314 
L 442.272727 262.850608 
L 447.909091 259.267761 
L 453.545455 255.57391 
L 459.181818 251.76505 
L 464.818182 247.837036 
L 470.454545 243.785576 
L 476.090909 239.606222 
L 481.727273 235.294365 
L 487.363636 230.845231 
L 493 226.253874 
L 498.636364 221.515167 
L 504.272727 216.623801 
L 509.909091 211.574274 
L 515.545455 206.360892 
L 521.181818 200.97775 
L 526.818182 195.418736 
L 532.454545 189.677525 
L 538.090909 183.747564 
L 543.727273 177.62207 
L 549.363636 171.294026 
L 555 164.756165 
L 560.636364 158.000971 
L 566.272727 151.020668 
L 571.909091 143.807212 
L 577.545455 136.35228 
L 583.181818 128.647267 
L 588.818182 120.683276 
L 594.454545 112.451112 
L 600.090909 103.941263 
L 605.727273 95.143902 
L 611.363636 86.048871 
L 617 76.645673 
L 622.636364 66.923463 
" clip-path="url(#p5c4c9e54d3)" style="fill: none; stroke: #ff7f0e; stroke-width: 3; stroke-linecap: square"/>
   </g>
   <g id="line2d_14">
    <path d="M 115.363636 363.174545 
L 121 362.654966 
L 126.636364 361.973746 
L 132.272727 361.089813 
L 137.909091 360.108614 
L 143.545455 359.069146 
L 149.181818 357.797434 
L 154.818182 356.413214 
L 160.454545 355.331104 
L 166.090909 354.280838 
L 171.727273 353.806627 
L 177.363636 353.113409 
L 183 352.4089 
L 188.636364 351.659141 
L 194.272727 350.859506 
L 199.909091 350.017145 
L 205.545455 349.133943 
L 211.181818 348.205296 
L 216.818182 347.223019 
L 222.454545 346.179222 
L 228.090909 345.068973 
L 233.727273 343.891193 
L 239.363636 342.648111 
L 245 341.344002 
L 250.636364 339.983853 
L 256.272727 338.572359 
L 261.909091 337.113373 
L 267.545455 335.609727 
L 273.181818 334.063311 
L 278.818182 332.475233 
L 284.454545 330.846009 
L 290.090909 329.17569 
L 295.727273 327.463961 
L 301.363636 325.710184 
L 307 323.913438 
L 312.636364 322.072544 
L 318.272727 320.186096 
L 323.909091 318.252492 
L 329.545455 316.269962 
L 335.181818 314.236602 
L 340.818182 312.150389 
L 346.454545 310.009207 
L 352.090909 307.810851 
L 357.727273 305.553039 
L 363.363636 303.233414 
L 369 300.849546 
L 374.636364 298.398935 
L 380.272727 295.879006 
L 385.909091 293.287111 
L 391.545455 290.620525 
L 397.181818 287.876444 
L 402.818182 285.05198 
L 408.454545 282.144159 
L 414.090909 279.149912 
L 419.727273 276.066074 
L 425.363636 272.889378 
L 431 269.616447 
L 436.636364 266.24379 
L 442.272727 262.767798 
L 447.909091 259.184735 
L 453.545455 255.490736 
L 459.181818 251.681795 
L 464.818182 247.753766 
L 470.454545 243.702355 
L 476.090909 239.523111 
L 481.727273 235.211425 
L 487.363636 230.762521 
L 493 226.17145 
L 498.636364 221.433084 
L 504.272727 216.542112 
L 509.909091 211.493031 
L 515.545455 206.280141 
L 521.181818 200.897538 
L 526.818182 195.339108 
L 532.454545 189.598522 
L 538.090909 183.669225 
L 543.727273 177.544434 
L 549.363636 171.217125 
L 555 164.680033 
L 560.636364 157.925638 
L 566.272727 150.946161 
L 571.909091 143.733557 
L 577.545455 136.279499 
L 583.181818 128.575381 
L 588.818182 120.612306 
L 594.454545 112.381071 
L 600.090909 103.872167 
L 605.727273 95.075762 
L 611.363636 85.981697 
L 617 76.579474 
L 622.636364 66.858243 
" clip-path="url(#p5c4c9e54d3)" style="fill: none; stroke: #2ca02c; stroke-width: 3; stroke-linecap: square"/>
   </g>
   <g id="line2d_15">
    <path d="M 115.363636 363.174545 
L 121 362.654966 
L 126.636364 361.973746 
L 132.272727 361.089813 
L 137.909091 360.108614 
L 143.545455 359.069146 
L 149.181818 357.797434 
L 154.818182 356.413214 
L 160.454545 355.331104 
L 166.090909 354.280838 
L 171.727273 353.840342 
L 177.363636 353.11666 
L 183 352.393171 
L 188.636364 351.637432 
L 194.272727 350.837409 
L 199.909091 349.995193 
L 205.545455 349.111267 
L 211.181818 348.181432 
L 216.818182 347.198054 
L 222.454545 346.153377 
L 228.090909 345.04231 
L 233.727273 343.863569 
L 239.363636 342.619278 
L 245 341.31371 
L 250.636364 339.951908 
L 256.272727 338.538631 
L 261.909091 337.077777 
L 267.545455 335.572207 
L 273.181818 334.023821 
L 278.818182 332.433738 
L 284.454545 330.802484 
L 290.090909 329.130124 
L 295.727273 327.416355 
L 301.363636 325.660557 
L 307 323.861819 
L 312.636364 322.018976 
L 318.272727 320.130629 
L 323.909091 318.195182 
L 329.545455 316.21087 
L 335.181818 314.17579 
L 340.818182 312.087926 
L 346.454545 309.945161 
L 352.090909 307.745292 
L 357.727273 305.48604 
L 363.363636 303.165048 
L 369 300.779887 
L 374.636364 298.328056 
L 380.272727 295.806984 
L 385.909091 293.214019 
L 391.545455 290.546438 
L 397.181818 287.801435 
L 402.818182 284.976124 
L 408.454545 282.067528 
L 414.090909 279.072579 
L 419.727273 275.988112 
L 425.363636 272.810856 
L 431 269.537436 
L 436.636364 266.164359 
L 442.272727 262.688016 
L 447.909091 259.104668 
L 453.545455 255.410449 
L 459.181818 251.601354 
L 464.818182 247.673234 
L 470.454545 243.621793 
L 476.090909 239.44258 
L 481.727273 235.130984 
L 487.363636 230.682228 
L 493 226.091359 
L 498.636364 221.353249 
L 504.272727 216.462585 
L 509.909091 211.413861 
L 515.545455 206.201378 
L 521.181818 200.819228 
L 526.818182 195.261294 
L 532.454545 189.521246 
L 538.090909 183.592527 
L 543.727273 177.468351 
L 549.363636 171.141694 
L 555 164.605287 
L 560.636364 157.851607 
L 566.272727 150.872875 
L 571.909091 143.661041 
L 577.545455 136.207779 
L 583.181818 128.50448 
L 588.818182 120.542242 
L 594.454545 112.311865 
L 600.090909 103.803833 
L 605.727273 95.008314 
L 611.363636 85.915148 
L 617 76.513834 
L 622.636364 66.793521 
" clip-path="url(#p5c4c9e54d3)" style="fill: none; stroke: #d62728; stroke-width: 3; stroke-linecap: square"/>
   </g>
   <g id="line2d_16">
    <path d="M 115.363636 363.174545 
L 121 362.654966 
L 126.636364 361.973746 
L 132.272727 361.089813 
L 137.909091 360.108614 
L 143.545455 359.069146 
L 149.181818 357.797434 
L 154.818182 356.413214 
L 160.454545 355.331104 
L 166.090909 354.280838 
L 171.727273 353.873752 
L 177.363636 353.121482 
L 183 352.379621 
L 188.636364 351.617749 
L 194.272727 350.817059 
L 199.909091 349.974823 
L 205.545455 349.090118 
L 211.181818 348.159079 
L 216.818182 347.174581 
L 222.454545 346.129005 
L 228.090909 345.017112 
L 233.727273 343.837431 
L 239.363636 342.591982 
L 245 341.285035 
L 250.636364 339.921679 
L 256.272727 338.50673 
L 261.909091 337.044127 
L 267.545455 335.536751 
L 273.181818 333.986512 
L 278.818182 332.394539 
L 284.454545 330.761364 
L 290.090909 329.087065 
L 295.727273 327.371353 
L 301.363636 325.613621 
L 307 323.812973 
L 312.636364 321.968252 
L 318.272727 320.078068 
L 323.909091 318.140832 
L 329.545455 316.154783 
L 335.181818 314.118024 
L 340.818182 312.028539 
L 346.454545 309.884215 
L 352.090909 307.682851 
L 357.727273 305.422169 
L 363.363636 303.099813 
L 369 300.713357 
L 374.636364 298.2603 
L 380.272727 295.73807 
L 385.909091 293.144017 
L 391.545455 290.475418 
L 397.181818 287.729467 
L 402.818182 284.903276 
L 408.454545 281.99387 
L 414.090909 278.998179 
L 419.727273 275.913038 
L 425.363636 272.735176 
L 431 269.461217 
L 436.636364 266.087667 
L 442.272727 262.610915 
L 447.909091 259.027223 
L 453.545455 255.332725 
L 459.181818 251.523411 
L 464.818182 247.595134 
L 470.454545 243.543596 
L 476.090909 239.364346 
L 481.727273 235.052769 
L 487.363636 230.604087 
L 493 226.013348 
L 498.636364 221.27542 
L 504.272727 216.384989 
L 509.909091 211.336549 
L 515.545455 206.124396 
L 521.181818 200.742621 
L 526.818182 195.185108 
L 532.454545 189.445522 
L 538.090909 183.517305 
L 543.727273 177.39367 
L 549.363636 171.067589 
L 555 164.531792 
L 560.636364 157.778755 
L 566.272727 150.800694 
L 571.909091 143.589562 
L 577.545455 136.137025 
L 583.181818 128.434475 
L 588.818182 120.47301 
L 594.454545 112.243423 
L 600.090909 103.7362 
L 605.727273 94.941507 
L 611.363636 85.84918 
L 617 76.448718 
L 622.636364 66.729267 
" clip-path="url(#p5c4c9e54d3)" style="fill: none; stroke: #9467bd; stroke-width: 3; stroke-linecap: square"/>
   </g>
   <g id="line2d_17">
    <path d="M 115.363636 363.174545 
L 121 362.654966 
L 126.636364 361.973746 
L 132.272727 361.089813 
L 137.909091 360.108614 
L 143.545455 359.069146 
L 149.181818 357.797434 
L 154.818182 356.413214 
L 160.454545 355.331104 
L 166.090909 354.280838 
L 171.727273 353.906735 
L 177.363636 353.127534 
L 183 352.3679 
L 188.636364 351.599814 
L 194.272727 350.798241 
L 199.909091 349.955851 
L 205.545455 349.070323 
L 211.181818 348.138069 
L 216.818182 347.15244 
L 222.454545 346.10595 
L 228.090909 344.993227 
L 233.727273 343.812622 
L 239.363636 342.566057 
L 245 341.257796 
L 250.636364 339.892971 
L 256.272727 338.476445 
L 261.909091 337.012192 
L 267.545455 335.503112 
L 273.181818 333.951123 
L 278.818182 332.357359 
L 284.454545 330.722358 
L 290.090909 329.046211 
L 295.727273 327.32864 
L 301.363636 325.569052 
L 307 323.766564 
L 312.636364 321.92003 
L 318.272727 320.028067 
L 323.909091 318.089092 
L 329.545455 316.101351 
L 335.181818 314.062948 
L 340.818182 311.971872 
L 346.454545 309.826012 
L 352.090909 307.623171 
L 357.727273 305.36107 
L 363.363636 303.037357 
L 369 300.649606 
L 374.636364 298.195319 
L 380.272727 295.671922 
L 385.909091 293.076768 
L 391.545455 290.407132 
L 397.181818 287.660209 
L 402.818182 284.833113 
L 408.454545 281.922866 
L 414.090909 278.9264 
L 419.727273 275.840548 
L 425.363636 272.66204 
L 431 269.387497 
L 436.636364 266.013428 
L 442.272727 262.53622 
L 447.909091 258.952134 
L 453.545455 255.257302 
L 459.181818 251.447715 
L 464.818182 247.519224 
L 470.454545 243.46753 
L 476.090909 239.288181 
L 481.727273 234.976561 
L 487.363636 230.527891 
L 493 225.937216 
L 498.636364 221.199406 
L 504.272727 216.309142 
L 509.909091 211.260917 
L 515.545455 206.049027 
L 521.181818 200.667561 
L 526.818182 195.1104 
L 532.454545 189.371209 
L 538.090909 183.443427 
L 543.727273 177.320265 
L 549.363636 170.994694 
L 555 164.459441 
L 560.636364 157.706981 
L 566.272727 150.729528 
L 571.909091 143.519032 
L 577.545455 136.067159 
L 583.181818 128.365298 
L 588.818182 120.404544 
L 594.454545 112.17569 
L 600.090909 103.669219 
L 605.727273 94.875296 
L 611.363636 85.783755 
L 617 76.384092 
L 622.636364 66.665455 
" clip-path="url(#p5c4c9e54d3)" style="fill: none; stroke: #8c564b; stroke-width: 3; stroke-linecap: square"/>
   </g>
   <g id="patch_3">
    <path d="M 90 378 
L 90 51.84 
" style="fill: none; stroke: #000000; stroke-width: 0.8; stroke-linejoin: miter; stroke-linecap: square"/>
   </g>
   <g id="patch_4">
    <path d="M 648 378 
L 648 51.84 
" style="fill: none; stroke: #000000; stroke-width: 0.8; stroke-linejoin: miter; stroke-linecap: square"/>
   </g>
   <g id="patch_5">
    <path d="M 90 378 
L 648 378 
" style="fill: none; stroke: #000000; stroke-width: 0.8; stroke-linejoin: miter; stroke-linecap: square"/>
   </g>
   <g id="text_12">
    <!-- Level: GDP Expenditure side at market prices -->
    <g transform="translate(210.147031 45.84)scale(0.14 -0.14)">
     <defs>
      <path id="DejaVuSans-4c" d="M 628 4666 
L 1259 4666 
L 1259 531 
L 3531 531 
L 3531 0 
L 628 0 
L 628 4666 
z
" transform="scale(0.015625)"/>
      <path id="DejaVuSans-65" d="M 3597 1894 
L 3597 1613 
L 953 1613 
Q 991 1019 1311 708 
Q 1631 397 2203 397 
Q 2534 397 2845 478 
Q 3156 559 3463 722 
L 3463 178 
Q 3153 47 2828 -22 
Q 2503 -91 2169 -91 
Q 1331 -91 842 396 
Q 353 884 353 1716 
Q 353 2575 817 3079 
Q 1281 3584 2069 3584 
Q 2775 3584 3186 3129 
Q 3597 2675 3597 1894 
z
M 3022 2063 
Q 3016 2534 2758 2815 
Q 2500 3097 2075 3097 
Q 1594 3097 1305 2825 
Q 1016 2553 972 2059 
L 3022 2063 
z
" transform="scale(0.015625)"/>
      <path id="DejaVuSans-76" d="M 191 3500 
L 800 3500 
L 1894 563 
L 2988 3500 
L 3597 3500 
L 2284 0 
L 1503 0 
L 191 3500 
z
" transform="scale(0.015625)"/>
      <path id="DejaVuSans-6c" d="M 603 4863 
L 1178 4863 
L 1178 0 
L 603 0 
L 603 4863 
z
" transform="scale(0.015625)"/>
      <path id="DejaVuSans-3a" d="M 750 794 
L 1409 794 
L 1409 0 
L 750 0 
L 750 794 
z
M 750 3309 
L 1409 3309 
L 1409 2516 
L 750 2516 
L 750 3309 
z
" transform="scale(0.015625)"/>
      <path id="DejaVuSans-47" d="M 3809 666 
L 3809 1919 
L 2778 1919 
L 2778 2438 
L 4434 2438 
L 4434 434 
Q 4069 175 3628 42 
Q 3188 -91 2688 -91 
Q 1594 -91 976 548 
Q 359 1188 359 2328 
Q 359 3472 976 4111 
Q 1594 4750 2688 4750 
Q 3144 4750 3555 4637 
Q 3966 4525 4313 4306 
L 4313 3634 
Q 3963 3931 3569 4081 
Q 3175 4231 2741 4231 
Q 1884 4231 1454 3753 
Q 1025 3275 1025 2328 
Q 1025 1384 1454 906 
Q 1884 428 2741 428 
Q 3075 428 3337 486 
Q 3600 544 3809 666 
z
" transform="scale(0.015625)"/>
      <path id="DejaVuSans-44" d="M 1259 4147 
L 1259 519 
L 2022 519 
Q 2988 519 3436 956 
Q 3884 1394 3884 2338 
Q 3884 3275 3436 3711 
Q 2988 4147 2022 4147 
L 1259 4147 
z
M 628 4666 
L 1925 4666 
Q 3281 4666 3915 4102 
Q 4550 3538 4550 2338 
Q 4550 1131 3912 565 
Q 3275 0 1925 0 
L 628 0 
L 628 4666 
z
" transform="scale(0.015625)"/>
      <path id="DejaVuSans-50" d="M 1259 4147 
L 1259 2394 
L 2053 2394 
Q 2494 2394 2734 2622 
Q 2975 2850 2975 3272 
Q 2975 3691 2734 3919 
Q 2494 4147 2053 4147 
L 1259 4147 
z
M 628 4666 
L 2053 4666 
Q 2838 4666 3239 4311 
Q 3641 3956 3641 3272 
Q 3641 2581 3239 2228 
Q 2838 1875 2053 1875 
L 1259 1875 
L 1259 0 
L 628 0 
L 628 4666 
z
" transform="scale(0.015625)"/>
      <path id="DejaVuSans-45" d="M 628 4666 
L 3578 4666 
L 3578 4134 
L 1259 4134 
L 1259 2753 
L 3481 2753 
L 3481 2222 
L 1259 2222 
L 1259 531 
L 3634 531 
L 3634 0 
L 628 0 
L 628 4666 
z
" transform="scale(0.015625)"/>
      <path id="DejaVuSans-78" d="M 3513 3500 
L 2247 1797 
L 3578 0 
L 2900 0 
L 1881 1375 
L 863 0 
L 184 0 
L 1544 1831 
L 300 3500 
L 978 3500 
L 1906 2253 
L 2834 3500 
L 3513 3500 
z
" transform="scale(0.015625)"/>
      <path id="DejaVuSans-70" d="M 1159 525 
L 1159 -1331 
L 581 -1331 
L 581 3500 
L 1159 3500 
L 1159 2969 
Q 1341 3281 1617 3432 
Q 1894 3584 2278 3584 
Q 2916 3584 3314 3078 
Q 3713 2572 3713 1747 
Q 3713 922 3314 415 
Q 2916 -91 2278 -91 
Q 1894 -91 1617 61 
Q 1341 213 1159 525 
z
M 3116 1747 
Q 3116 2381 2855 2742 
Q 2594 3103 2138 3103 
Q 1681 3103 1420 2742 
Q 1159 2381 1159 1747 
Q 1159 1113 1420 752 
Q 1681 391 2138 391 
Q 2594 391 2855 752 
Q 3116 1113 3116 1747 
z
" transform="scale(0.015625)"/>
      <path id="DejaVuSans-6e" d="M 3513 2113 
L 3513 0 
L 2938 0 
L 2938 2094 
Q 2938 2591 2744 2837 
Q 2550 3084 2163 3084 
Q 1697 3084 1428 2787 
Q 1159 2491 1159 1978 
L 1159 0 
L 581 0 
L 581 3500 
L 1159 3500 
L 1159 2956 
Q 1366 3272 1645 3428 
Q 1925 3584 2291 3584 
Q 2894 3584 3203 3211 
Q 3513 2838 3513 2113 
z
" transform="scale(0.015625)"/>
      <path id="DejaVuSans-64" d="M 2906 2969 
L 2906 4863 
L 3481 4863 
L 3481 0 
L 2906 0 
L 2906 525 
Q 2725 213 2448 61 
Q 2172 -91 1784 -91 
Q 1150 -91 751 415 
Q 353 922 353 1747 
Q 353 2572 751 3078 
Q 1150 3584 1784 3584 
Q 2172 3584 2448 3432 
Q 2725 3281 2906 2969 
z
M 947 1747 
Q 947 1113 1208 752 
Q 1469 391 1925 391 
Q 2381 391 2643 752 
Q 2906 1113 2906 1747 
Q 2906 2381 2643 2742 
Q 2381 3103 1925 3103 
Q 1469 3103 1208 2742 
Q 947 2381 947 1747 
z
" transform="scale(0.015625)"/>
      <path id="DejaVuSans-69" d="M 603 3500 
L 1178 3500 
L 1178 0 
L 603 0 
L 603 3500 
z
M 603 4863 
L 1178 4863 
L 1178 4134 
L 603 4134 
L 603 4863 
z
" transform="scale(0.015625)"/>
      <path id="DejaVuSans-74" d="M 1172 4494 
L 1172 3500 
L 2356 3500 
L 2356 3053 
L 1172 3053 
L 1172 1153 
Q 1172 725 1289 603 
Q 1406 481 1766 481 
L 2356 481 
L 2356 0 
L 1766 0 
Q 1100 0 847 248 
Q 594 497 594 1153 
L 594 3053 
L 172 3053 
L 172 3500 
L 594 3500 
L 594 4494 
L 1172 4494 
z
" transform="scale(0.015625)"/>
      <path id="DejaVuSans-75" d="M 544 1381 
L 544 3500 
L 1119 3500 
L 1119 1403 
Q 1119 906 1312 657 
Q 1506 409 1894 409 
Q 2359 409 2629 706 
Q 2900 1003 2900 1516 
L 2900 3500 
L 3475 3500 
L 3475 0 
L 2900 0 
L 2900 538 
Q 2691 219 2414 64 
Q 2138 -91 1772 -91 
Q 1169 -91 856 284 
Q 544 659 544 1381 
z
M 1991 3584 
L 1991 3584 
z
" transform="scale(0.015625)"/>
      <path id="DejaVuSans-72" d="M 2631 2963 
Q 2534 3019 2420 3045 
Q 2306 3072 2169 3072 
Q 1681 3072 1420 2755 
Q 1159 2438 1159 1844 
L 1159 0 
L 581 0 
L 581 3500 
L 1159 3500 
L 1159 2956 
Q 1341 3275 1631 3429 
Q 1922 3584 2338 3584 
Q 2397 3584 2469 3576 
Q 2541 3569 2628 3553 
L 2631 2963 
z
" transform="scale(0.015625)"/>
      <path id="DejaVuSans-73" d="M 2834 3397 
L 2834 2853 
Q 2591 2978 2328 3040 
Q 2066 3103 1784 3103 
Q 1356 3103 1142 2972 
Q 928 2841 928 2578 
Q 928 2378 1081 2264 
Q 1234 2150 1697 2047 
L 1894 2003 
Q 2506 1872 2764 1633 
Q 3022 1394 3022 966 
Q 3022 478 2636 193 
Q 2250 -91 1575 -91 
Q 1294 -91 989 -36 
Q 684 19 347 128 
L 347 722 
Q 666 556 975 473 
Q 1284 391 1588 391 
Q 1994 391 2212 530 
Q 2431 669 2431 922 
Q 2431 1156 2273 1281 
Q 2116 1406 1581 1522 
L 1381 1569 
Q 847 1681 609 1914 
Q 372 2147 372 2553 
Q 372 3047 722 3315 
Q 1072 3584 1716 3584 
Q 2034 3584 2315 3537 
Q 2597 3491 2834 3397 
z
" transform="scale(0.015625)"/>
      <path id="DejaVuSans-61" d="M 2194 1759 
Q 1497 1759 1228 1600 
Q 959 1441 959 1056 
Q 959 750 1161 570 
Q 1363 391 1709 391 
Q 2188 391 2477 730 
Q 2766 1069 2766 1631 
L 2766 1759 
L 2194 1759 
z
M 3341 1997 
L 3341 0 
L 2766 0 
L 2766 531 
Q 2569 213 2275 61 
Q 1981 -91 1556 -91 
Q 1019 -91 701 211 
Q 384 513 384 1019 
Q 384 1609 779 1909 
Q 1175 2209 1959 2209 
L 2766 2209 
L 2766 2266 
Q 2766 2663 2505 2880 
Q 2244 3097 1772 3097 
Q 1472 3097 1187 3025 
Q 903 2953 641 2809 
L 641 3341 
Q 956 3463 1253 3523 
Q 1550 3584 1831 3584 
Q 2591 3584 2966 3190 
Q 3341 2797 3341 1997 
z
" transform="scale(0.015625)"/>
      <path id="DejaVuSans-6d" d="M 3328 2828 
Q 3544 3216 3844 3400 
Q 4144 3584 4550 3584 
Q 5097 3584 5394 3201 
Q 5691 2819 5691 2113 
L 5691 0 
L 5113 0 
L 5113 2094 
Q 5113 2597 4934 2840 
Q 4756 3084 4391 3084 
Q 3944 3084 3684 2787 
Q 3425 2491 3425 1978 
L 3425 0 
L 2847 0 
L 2847 2094 
Q 2847 2600 2669 2842 
Q 2491 3084 2119 3084 
Q 1678 3084 1418 2786 
Q 1159 2488 1159 1978 
L 1159 0 
L 581 0 
L 581 3500 
L 1159 3500 
L 1159 2956 
Q 1356 3278 1631 3431 
Q 1906 3584 2284 3584 
Q 2666 3584 2933 3390 
Q 3200 3197 3328 2828 
z
" transform="scale(0.015625)"/>
      <path id="DejaVuSans-6b" d="M 581 4863 
L 1159 4863 
L 1159 1991 
L 2875 3500 
L 3609 3500 
L 1753 1863 
L 3688 0 
L 2938 0 
L 1159 1709 
L 1159 0 
L 581 0 
L 581 4863 
z
" transform="scale(0.015625)"/>
      <path id="DejaVuSans-63" d="M 3122 3366 
L 3122 2828 
Q 2878 2963 2633 3030 
Q 2388 3097 2138 3097 
Q 1578 3097 1268 2742 
Q 959 2388 959 1747 
Q 959 1106 1268 751 
Q 1578 397 2138 397 
Q 2388 397 2633 464 
Q 2878 531 3122 666 
L 3122 134 
Q 2881 22 2623 -34 
Q 2366 -91 2075 -91 
Q 1284 -91 818 406 
Q 353 903 353 1747 
Q 353 2603 823 3093 
Q 1294 3584 2113 3584 
Q 2378 3584 2631 3529 
Q 2884 3475 3122 3366 
z
" transform="scale(0.015625)"/>
     </defs>
     <use xlink:href="#DejaVuSans-4c"/>
     <use xlink:href="#DejaVuSans-65" x="53.962891"/>
     <use xlink:href="#DejaVuSans-76" x="115.486328"/>
     <use xlink:href="#DejaVuSans-65" x="174.666016"/>
     <use xlink:href="#DejaVuSans-6c" x="236.189453"/>
     <use xlink:href="#DejaVuSans-3a" x="263.972656"/>
     <use xlink:href="#DejaVuSans-20" x="297.664062"/>
     <use xlink:href="#DejaVuSans-47" x="329.451172"/>
     <use xlink:href="#DejaVuSans-44" x="406.941406"/>
     <use xlink:href="#DejaVuSans-50" x="483.943359"/>
     <use xlink:href="#DejaVuSans-20" x="544.246094"/>
     <use xlink:href="#DejaVuSans-45" x="576.033203"/>
     <use xlink:href="#DejaVuSans-78" x="639.216797"/>
     <use xlink:href="#DejaVuSans-70" x="698.396484"/>
     <use xlink:href="#DejaVuSans-65" x="761.873047"/>
     <use xlink:href="#DejaVuSans-6e" x="823.396484"/>
     <use xlink:href="#DejaVuSans-64" x="886.775391"/>
     <use xlink:href="#DejaVuSans-69" x="950.251953"/>
     <use xlink:href="#DejaVuSans-74" x="978.035156"/>
     <use xlink:href="#DejaVuSans-75" x="1017.244141"/>
     <use xlink:href="#DejaVuSans-72" x="1080.623047"/>
     <use xlink:href="#DejaVuSans-65" x="1119.486328"/>
     <use xlink:href="#DejaVuSans-20" x="1181.009766"/>
     <use xlink:href="#DejaVuSans-73" x="1212.796875"/>
     <use xlink:href="#DejaVuSans-69" x="1264.896484"/>
     <use xlink:href="#DejaVuSans-64" x="1292.679688"/>
     <use xlink:href="#DejaVuSans-65" x="1356.15625"/>
     <use xlink:href="#DejaVuSans-20" x="1417.679688"/>
     <use xlink:href="#DejaVuSans-61" x="1449.466797"/>
     <use xlink:href="#DejaVuSans-74" x="1510.746094"/>
     <use xlink:href="#DejaVuSans-20" x="1549.955078"/>
     <use xlink:href="#DejaVuSans-6d" x="1581.742188"/>
     <use xlink:href="#DejaVuSans-61" x="1679.154297"/>
     <use xlink:href="#DejaVuSans-72" x="1740.433594"/>
     <use xlink:href="#DejaVuSans-6b" x="1781.546875"/>
     <use xlink:href="#DejaVuSans-65" x="1835.832031"/>
     <use xlink:href="#DejaVuSans-74" x="1897.355469"/>
     <use xlink:href="#DejaVuSans-20" x="1936.564453"/>
     <use xlink:href="#DejaVuSans-70" x="1968.351562"/>
     <use xlink:href="#DejaVuSans-72" x="2031.828125"/>
     <use xlink:href="#DejaVuSans-69" x="2072.941406"/>
     <use xlink:href="#DejaVuSans-63" x="2100.724609"/>
     <use xlink:href="#DejaVuSans-65" x="2155.705078"/>
     <use xlink:href="#DejaVuSans-73" x="2217.228516"/>
    </g>
   </g>
   <g id="legend_1">
    <g id="patch_6">
     <path d="M 97 147.90875 
L 296.8625 147.90875 
Q 298.8625 147.90875 298.8625 145.90875 
L 298.8625 58.84 
Q 298.8625 56.84 296.8625 56.84 
L 97 56.84 
Q 95 56.84 95 58.84 
L 95 145.90875 
Q 95 147.90875 97 147.90875 
z
" style="fill: #ffffff; opacity: 0.8; stroke: #cccccc; stroke-linejoin: miter"/>
    </g>
    <g id="line2d_18">
     <path d="M 99 64.938437 
L 109 64.938437 
L 119 64.938437 
" style="fill: none; stroke: #1f77b4; stroke-width: 3; stroke-linecap: square"/>
    </g>
    <g id="text_13">
     <!-- Baseline -->
     <g transform="translate(127 68.438437)scale(0.1 -0.1)">
      <defs>
       <path id="DejaVuSans-42" d="M 1259 2228 
L 1259 519 
L 2272 519 
Q 2781 519 3026 730 
Q 3272 941 3272 1375 
Q 3272 1813 3026 2020 
Q 2781 2228 2272 2228 
L 1259 2228 
z
M 1259 4147 
L 1259 2741 
L 2194 2741 
Q 2656 2741 2882 2914 
Q 3109 3088 3109 3444 
Q 3109 3797 2882 3972 
Q 2656 4147 2194 4147 
L 1259 4147 
z
M 628 4666 
L 2241 4666 
Q 2963 4666 3353 4366 
Q 3744 4066 3744 3513 
Q 3744 3084 3544 2831 
Q 3344 2578 2956 2516 
Q 3422 2416 3680 2098 
Q 3938 1781 3938 1306 
Q 3938 681 3513 340 
Q 3088 0 2303 0 
L 628 0 
L 628 4666 
z
" transform="scale(0.015625)"/>
      </defs>
      <use xlink:href="#DejaVuSans-42"/>
      <use xlink:href="#DejaVuSans-61" x="68.603516"/>
      <use xlink:href="#DejaVuSans-73" x="129.882812"/>
      <use xlink:href="#DejaVuSans-65" x="181.982422"/>
      <use xlink:href="#DejaVuSans-6c" x="243.505859"/>
      <use xlink:href="#DejaVuSans-69" x="271.289062"/>
      <use xlink:href="#DejaVuSans-6e" x="299.072266"/>
      <use xlink:href="#DejaVuSans-65" x="362.451172"/>
     </g>
    </g>
    <g id="line2d_19">
     <path d="M 99 79.616562 
L 109 79.616562 
L 119 79.616562 
" style="fill: none; stroke: #ff7f0e; stroke-width: 3; stroke-linecap: square"/>
    </g>
    <g id="text_14">
     <!-- Coal, Oil and Gastax : 5 nominal -->
     <g transform="translate(127 83.116562)scale(0.1 -0.1)">
      <defs>
       <path id="DejaVuSans-43" d="M 4122 4306 
L 4122 3641 
Q 3803 3938 3442 4084 
Q 3081 4231 2675 4231 
Q 1875 4231 1450 3742 
Q 1025 3253 1025 2328 
Q 1025 1406 1450 917 
Q 1875 428 2675 428 
Q 3081 428 3442 575 
Q 3803 722 4122 1019 
L 4122 359 
Q 3791 134 3420 21 
Q 3050 -91 2638 -91 
Q 1578 -91 968 557 
Q 359 1206 359 2328 
Q 359 3453 968 4101 
Q 1578 4750 2638 4750 
Q 3056 4750 3426 4639 
Q 3797 4528 4122 4306 
z
" transform="scale(0.015625)"/>
       <path id="DejaVuSans-6f" d="M 1959 3097 
Q 1497 3097 1228 2736 
Q 959 2375 959 1747 
Q 959 1119 1226 758 
Q 1494 397 1959 397 
Q 2419 397 2687 759 
Q 2956 1122 2956 1747 
Q 2956 2369 2687 2733 
Q 2419 3097 1959 3097 
z
M 1959 3584 
Q 2709 3584 3137 3096 
Q 3566 2609 3566 1747 
Q 3566 888 3137 398 
Q 2709 -91 1959 -91 
Q 1206 -91 779 398 
Q 353 888 353 1747 
Q 353 2609 779 3096 
Q 1206 3584 1959 3584 
z
" transform="scale(0.015625)"/>
       <path id="DejaVuSans-4f" d="M 2522 4238 
Q 1834 4238 1429 3725 
Q 1025 3213 1025 2328 
Q 1025 1447 1429 934 
Q 1834 422 2522 422 
Q 3209 422 3611 934 
Q 4013 1447 4013 2328 
Q 4013 3213 3611 3725 
Q 3209 4238 2522 4238 
z
M 2522 4750 
Q 3503 4750 4090 4092 
Q 4678 3434 4678 2328 
Q 4678 1225 4090 567 
Q 3503 -91 2522 -91 
Q 1538 -91 948 565 
Q 359 1222 359 2328 
Q 359 3434 948 4092 
Q 1538 4750 2522 4750 
z
" transform="scale(0.015625)"/>
      </defs>
      <use xlink:href="#DejaVuSans-43"/>
      <use xlink:href="#DejaVuSans-6f" x="69.824219"/>
      <use xlink:href="#DejaVuSans-61" x="131.005859"/>
      <use xlink:href="#DejaVuSans-6c" x="192.285156"/>
      <use xlink:href="#DejaVuSans-2c" x="220.068359"/>
      <use xlink:href="#DejaVuSans-20" x="251.855469"/>
      <use xlink:href="#DejaVuSans-4f" x="283.642578"/>
      <use xlink:href="#DejaVuSans-69" x="362.353516"/>
      <use xlink:href="#DejaVuSans-6c" x="390.136719"/>
      <use xlink:href="#DejaVuSans-20" x="417.919922"/>
      <use xlink:href="#DejaVuSans-61" x="449.707031"/>
      <use xlink:href="#DejaVuSans-6e" x="510.986328"/>
      <use xlink:href="#DejaVuSans-64" x="574.365234"/>
      <use xlink:href="#DejaVuSans-20" x="637.841797"/>
      <use xlink:href="#DejaVuSans-47" x="669.628906"/>
      <use xlink:href="#DejaVuSans-61" x="747.119141"/>
      <use xlink:href="#DejaVuSans-73" x="808.398438"/>
      <use xlink:href="#DejaVuSans-74" x="860.498047"/>
      <use xlink:href="#DejaVuSans-61" x="899.707031"/>
      <use xlink:href="#DejaVuSans-78" x="960.986328"/>
      <use xlink:href="#DejaVuSans-20" x="1020.166016"/>
      <use xlink:href="#DejaVuSans-3a" x="1051.953125"/>
      <use xlink:href="#DejaVuSans-20" x="1085.644531"/>
      <use xlink:href="#DejaVuSans-35" x="1117.431641"/>
      <use xlink:href="#DejaVuSans-20" x="1181.054688"/>
      <use xlink:href="#DejaVuSans-6e" x="1212.841797"/>
      <use xlink:href="#DejaVuSans-6f" x="1276.220703"/>
      <use xlink:href="#DejaVuSans-6d" x="1337.402344"/>
      <use xlink:href="#DejaVuSans-69" x="1434.814453"/>
      <use xlink:href="#DejaVuSans-6e" x="1462.597656"/>
      <use xlink:href="#DejaVuSans-61" x="1525.976562"/>
      <use xlink:href="#DejaVuSans-6c" x="1587.255859"/>
     </g>
    </g>
    <g id="line2d_20">
     <path d="M 99 94.294687 
L 109 94.294687 
L 119 94.294687 
" style="fill: none; stroke: #2ca02c; stroke-width: 3; stroke-linecap: square"/>
    </g>
    <g id="text_15">
     <!-- Coal, Oil and Gastax : 10 nominal -->
     <g transform="translate(127 97.794687)scale(0.1 -0.1)">
      <use xlink:href="#DejaVuSans-43"/>
      <use xlink:href="#DejaVuSans-6f" x="69.824219"/>
      <use xlink:href="#DejaVuSans-61" x="131.005859"/>
      <use xlink:href="#DejaVuSans-6c" x="192.285156"/>
      <use xlink:href="#DejaVuSans-2c" x="220.068359"/>
      <use xlink:href="#DejaVuSans-20" x="251.855469"/>
      <use xlink:href="#DejaVuSans-4f" x="283.642578"/>
      <use xlink:href="#DejaVuSans-69" x="362.353516"/>
      <use xlink:href="#DejaVuSans-6c" x="390.136719"/>
      <use xlink:href="#DejaVuSans-20" x="417.919922"/>
      <use xlink:href="#DejaVuSans-61" x="449.707031"/>
      <use xlink:href="#DejaVuSans-6e" x="510.986328"/>
      <use xlink:href="#DejaVuSans-64" x="574.365234"/>
      <use xlink:href="#DejaVuSans-20" x="637.841797"/>
      <use xlink:href="#DejaVuSans-47" x="669.628906"/>
      <use xlink:href="#DejaVuSans-61" x="747.119141"/>
      <use xlink:href="#DejaVuSans-73" x="808.398438"/>
      <use xlink:href="#DejaVuSans-74" x="860.498047"/>
      <use xlink:href="#DejaVuSans-61" x="899.707031"/>
      <use xlink:href="#DejaVuSans-78" x="960.986328"/>
      <use xlink:href="#DejaVuSans-20" x="1020.166016"/>
      <use xlink:href="#DejaVuSans-3a" x="1051.953125"/>
      <use xlink:href="#DejaVuSans-20" x="1085.644531"/>
      <use xlink:href="#DejaVuSans-31" x="1117.431641"/>
      <use xlink:href="#DejaVuSans-30" x="1181.054688"/>
      <use xlink:href="#DejaVuSans-20" x="1244.677734"/>
      <use xlink:href="#DejaVuSans-6e" x="1276.464844"/>
      <use xlink:href="#DejaVuSans-6f" x="1339.84375"/>
      <use xlink:href="#DejaVuSans-6d" x="1401.025391"/>
      <use xlink:href="#DejaVuSans-69" x="1498.4375"/>
      <use xlink:href="#DejaVuSans-6e" x="1526.220703"/>
      <use xlink:href="#DejaVuSans-61" x="1589.599609"/>
      <use xlink:href="#DejaVuSans-6c" x="1650.878906"/>
     </g>
    </g>
    <g id="line2d_21">
     <path d="M 99 108.972812 
L 109 108.972812 
L 119 108.972812 
" style="fill: none; stroke: #d62728; stroke-width: 3; stroke-linecap: square"/>
    </g>
    <g id="text_16">
     <!-- Coal, Oil and Gastax : 15 nominal -->
     <g transform="translate(127 112.472812)scale(0.1 -0.1)">
      <use xlink:href="#DejaVuSans-43"/>
      <use xlink:href="#DejaVuSans-6f" x="69.824219"/>
      <use xlink:href="#DejaVuSans-61" x="131.005859"/>
      <use xlink:href="#DejaVuSans-6c" x="192.285156"/>
      <use xlink:href="#DejaVuSans-2c" x="220.068359"/>
      <use xlink:href="#DejaVuSans-20" x="251.855469"/>
      <use xlink:href="#DejaVuSans-4f" x="283.642578"/>
      <use xlink:href="#DejaVuSans-69" x="362.353516"/>
      <use xlink:href="#DejaVuSans-6c" x="390.136719"/>
      <use xlink:href="#DejaVuSans-20" x="417.919922"/>
      <use xlink:href="#DejaVuSans-61" x="449.707031"/>
      <use xlink:href="#DejaVuSans-6e" x="510.986328"/>
      <use xlink:href="#DejaVuSans-64" x="574.365234"/>
      <use xlink:href="#DejaVuSans-20" x="637.841797"/>
      <use xlink:href="#DejaVuSans-47" x="669.628906"/>
      <use xlink:href="#DejaVuSans-61" x="747.119141"/>
      <use xlink:href="#DejaVuSans-73" x="808.398438"/>
      <use xlink:href="#DejaVuSans-74" x="860.498047"/>
      <use xlink:href="#DejaVuSans-61" x="899.707031"/>
      <use xlink:href="#DejaVuSans-78" x="960.986328"/>
      <use xlink:href="#DejaVuSans-20" x="1020.166016"/>
      <use xlink:href="#DejaVuSans-3a" x="1051.953125"/>
      <use xlink:href="#DejaVuSans-20" x="1085.644531"/>
      <use xlink:href="#DejaVuSans-31" x="1117.431641"/>
      <use xlink:href="#DejaVuSans-35" x="1181.054688"/>
      <use xlink:href="#DejaVuSans-20" x="1244.677734"/>
      <use xlink:href="#DejaVuSans-6e" x="1276.464844"/>
      <use xlink:href="#DejaVuSans-6f" x="1339.84375"/>
      <use xlink:href="#DejaVuSans-6d" x="1401.025391"/>
      <use xlink:href="#DejaVuSans-69" x="1498.4375"/>
      <use xlink:href="#DejaVuSans-6e" x="1526.220703"/>
      <use xlink:href="#DejaVuSans-61" x="1589.599609"/>
      <use xlink:href="#DejaVuSans-6c" x="1650.878906"/>
     </g>
    </g>
    <g id="line2d_22">
     <path d="M 99 123.650937 
L 109 123.650937 
L 119 123.650937 
" style="fill: none; stroke: #9467bd; stroke-width: 3; stroke-linecap: square"/>
    </g>
    <g id="text_17">
     <!-- Coal, Oil and Gastax : 20 nominal -->
     <g transform="translate(127 127.150937)scale(0.1 -0.1)">
      <use xlink:href="#DejaVuSans-43"/>
      <use xlink:href="#DejaVuSans-6f" x="69.824219"/>
      <use xlink:href="#DejaVuSans-61" x="131.005859"/>
      <use xlink:href="#DejaVuSans-6c" x="192.285156"/>
      <use xlink:href="#DejaVuSans-2c" x="220.068359"/>
      <use xlink:href="#DejaVuSans-20" x="251.855469"/>
      <use xlink:href="#DejaVuSans-4f" x="283.642578"/>
      <use xlink:href="#DejaVuSans-69" x="362.353516"/>
      <use xlink:href="#DejaVuSans-6c" x="390.136719"/>
      <use xlink:href="#DejaVuSans-20" x="417.919922"/>
      <use xlink:href="#DejaVuSans-61" x="449.707031"/>
      <use xlink:href="#DejaVuSans-6e" x="510.986328"/>
      <use xlink:href="#DejaVuSans-64" x="574.365234"/>
      <use xlink:href="#DejaVuSans-20" x="637.841797"/>
      <use xlink:href="#DejaVuSans-47" x="669.628906"/>
      <use xlink:href="#DejaVuSans-61" x="747.119141"/>
      <use xlink:href="#DejaVuSans-73" x="808.398438"/>
      <use xlink:href="#DejaVuSans-74" x="860.498047"/>
      <use xlink:href="#DejaVuSans-61" x="899.707031"/>
      <use xlink:href="#DejaVuSans-78" x="960.986328"/>
      <use xlink:href="#DejaVuSans-20" x="1020.166016"/>
      <use xlink:href="#DejaVuSans-3a" x="1051.953125"/>
      <use xlink:href="#DejaVuSans-20" x="1085.644531"/>
      <use xlink:href="#DejaVuSans-32" x="1117.431641"/>
      <use xlink:href="#DejaVuSans-30" x="1181.054688"/>
      <use xlink:href="#DejaVuSans-20" x="1244.677734"/>
      <use xlink:href="#DejaVuSans-6e" x="1276.464844"/>
      <use xlink:href="#DejaVuSans-6f" x="1339.84375"/>
      <use xlink:href="#DejaVuSans-6d" x="1401.025391"/>
      <use xlink:href="#DejaVuSans-69" x="1498.4375"/>
      <use xlink:href="#DejaVuSans-6e" x="1526.220703"/>
      <use xlink:href="#DejaVuSans-61" x="1589.599609"/>
      <use xlink:href="#DejaVuSans-6c" x="1650.878906"/>
     </g>
    </g>
    <g id="line2d_23">
     <path d="M 99 138.329062 
L 109 138.329062 
L 119 138.329062 
" style="fill: none; stroke: #8c564b; stroke-width: 3; stroke-linecap: square"/>
    </g>
    <g id="text_18">
     <!-- Coal, Oil and Gastax : 25 nominal -->
     <g transform="translate(127 141.829062)scale(0.1 -0.1)">
      <use xlink:href="#DejaVuSans-43"/>
      <use xlink:href="#DejaVuSans-6f" x="69.824219"/>
      <use xlink:href="#DejaVuSans-61" x="131.005859"/>
      <use xlink:href="#DejaVuSans-6c" x="192.285156"/>
      <use xlink:href="#DejaVuSans-2c" x="220.068359"/>
      <use xlink:href="#DejaVuSans-20" x="251.855469"/>
      <use xlink:href="#DejaVuSans-4f" x="283.642578"/>
      <use xlink:href="#DejaVuSans-69" x="362.353516"/>
      <use xlink:href="#DejaVuSans-6c" x="390.136719"/>
      <use xlink:href="#DejaVuSans-20" x="417.919922"/>
      <use xlink:href="#DejaVuSans-61" x="449.707031"/>
      <use xlink:href="#DejaVuSans-6e" x="510.986328"/>
      <use xlink:href="#DejaVuSans-64" x="574.365234"/>
      <use xlink:href="#DejaVuSans-20" x="637.841797"/>
      <use xlink:href="#DejaVuSans-47" x="669.628906"/>
      <use xlink:href="#DejaVuSans-61" x="747.119141"/>
      <use xlink:href="#DejaVuSans-73" x="808.398438"/>
      <use xlink:href="#DejaVuSans-74" x="860.498047"/>
      <use xlink:href="#DejaVuSans-61" x="899.707031"/>
      <use xlink:href="#DejaVuSans-78" x="960.986328"/>
      <use xlink:href="#DejaVuSans-20" x="1020.166016"/>
      <use xlink:href="#DejaVuSans-3a" x="1051.953125"/>
      <use xlink:href="#DejaVuSans-20" x="1085.644531"/>
      <use xlink:href="#DejaVuSans-32" x="1117.431641"/>
      <use xlink:href="#DejaVuSans-35" x="1181.054688"/>
      <use xlink:href="#DejaVuSans-20" x="1244.677734"/>
      <use xlink:href="#DejaVuSans-6e" x="1276.464844"/>
      <use xlink:href="#DejaVuSans-6f" x="1339.84375"/>
      <use xlink:href="#DejaVuSans-6d" x="1401.025391"/>
      <use xlink:href="#DejaVuSans-69" x="1498.4375"/>
      <use xlink:href="#DejaVuSans-6e" x="1526.220703"/>
      <use xlink:href="#DejaVuSans-61" x="1589.599609"/>
      <use xlink:href="#DejaVuSans-6c" x="1650.878906"/>
     </g>
    </g>
   </g>
  </g>
 </g>
 <defs>
  <clipPath id="p5c4c9e54d3">
   <rect x="90" y="51.84" width="558" height="326.16"/>
  </clipPath>
 </defs>
</svg>
