<?xml version="1.0" encoding="utf-8" standalone="no"?>
<!DOCTYPE svg PUBLIC "-//W3C//DTD SVG 1.1//EN"
  "http://www.w3.org/Graphics/SVG/1.1/DTD/svg11.dtd">
<svg xmlns:xlink="http://www.w3.org/1999/xlink" width="720pt" height="432pt" viewBox="0 0 720 432" xmlns="http://www.w3.org/2000/svg" version="1.1">
 <metadata>
  <rdf:RDF xmlns:dc="http://purl.org/dc/elements/1.1/" xmlns:cc="http://creativecommons.org/ns#" xmlns:rdf="http://www.w3.org/1999/02/22-rdf-syntax-ns#">
   <cc:Work>
    <dc:type rdf:resource="http://purl.org/dc/dcmitype/StillImage"/>
    <dc:date>2023-02-08T11:19:43.126021</dc:date>
    <dc:format>image/svg+xml</dc:format>
    <dc:creator>
     <cc:Agent>
      <dc:title>Matplotlib v3.6.3, https://matplotlib.org/</dc:title>
     </cc:Agent>
    </dc:creator>
   </cc:Work>
  </rdf:RDF>
 </metadata>
 <defs>
  <style type="text/css">*{stroke-linejoin: round; stroke-linecap: butt}</style>
 </defs>
 <g id="figure_1">
  <g id="patch_1">
   <path d="M 0 432 
L 720 432 
L 720 0 
L 0 0 
z
" style="fill: #ffffff"/>
  </g>
  <g id="axes_1">
   <g id="patch_2">
    <path d="M 90 384.48 
L 648 384.48 
L 648 51.84 
L 90 51.84 
z
" style="fill: #ffffff"/>
   </g>
   <g id="matplotlib.axis_1">
    <g id="xtick_1">
     <g id="line2d_1">
      <defs>
       <path id="m6ac1a8f504" d="M 0 0 
L 0 3.5 
" style="stroke: #000000; stroke-width: 0.8"/>
      </defs>
      <g>
       <use xlink:href="#m6ac1a8f504" x="171.727273" y="384.48" style="stroke: #000000; stroke-width: 0.8"/>
      </g>
     </g>
     <g id="text_1">
      <!-- 2020 -->
      <g transform="translate(159.002273 399.078438) scale(0.1 -0.1)">
       <defs>
        <path id="DejaVuSans-32" d="M 1228 531 
L 3431 531 
L 3431 0 
L 469 0 
L 469 531 
Q 828 903 1448 1529 
Q 2069 2156 2228 2338 
Q 2531 2678 2651 2914 
Q 2772 3150 2772 3378 
Q 2772 3750 2511 3984 
Q 2250 4219 1831 4219 
Q 1534 4219 1204 4116 
Q 875 4013 500 3803 
L 500 4441 
Q 881 4594 1212 4672 
Q 1544 4750 1819 4750 
Q 2544 4750 2975 4387 
Q 3406 4025 3406 3419 
Q 3406 3131 3298 2873 
Q 3191 2616 2906 2266 
Q 2828 2175 2409 1742 
Q 1991 1309 1228 531 
z
" transform="scale(0.015625)"/>
        <path id="DejaVuSans-30" d="M 2034 4250 
Q 1547 4250 1301 3770 
Q 1056 3291 1056 2328 
Q 1056 1369 1301 889 
Q 1547 409 2034 409 
Q 2525 409 2770 889 
Q 3016 1369 3016 2328 
Q 3016 3291 2770 3770 
Q 2525 4250 2034 4250 
z
M 2034 4750 
Q 2819 4750 3233 4129 
Q 3647 3509 3647 2328 
Q 3647 1150 3233 529 
Q 2819 -91 2034 -91 
Q 1250 -91 836 529 
Q 422 1150 422 2328 
Q 422 3509 836 4129 
Q 1250 4750 2034 4750 
z
" transform="scale(0.015625)"/>
       </defs>
       <use xlink:href="#DejaVuSans-32"/>
       <use xlink:href="#DejaVuSans-30" x="63.623047"/>
       <use xlink:href="#DejaVuSans-32" x="127.246094"/>
       <use xlink:href="#DejaVuSans-30" x="190.869141"/>
      </g>
     </g>
    </g>
    <g id="xtick_2">
     <g id="line2d_2">
      <g>
       <use xlink:href="#m6ac1a8f504" x="284.454545" y="384.48" style="stroke: #000000; stroke-width: 0.8"/>
      </g>
     </g>
     <g id="text_2">
      <!-- 2040 -->
      <g transform="translate(271.729545 399.078438) scale(0.1 -0.1)">
       <defs>
        <path id="DejaVuSans-34" d="M 2419 4116 
L 825 1625 
L 2419 1625 
L 2419 4116 
z
M 2253 4666 
L 3047 4666 
L 3047 1625 
L 3713 1625 
L 3713 1100 
L 3047 1100 
L 3047 0 
L 2419 0 
L 2419 1100 
L 313 1100 
L 313 1709 
L 2253 4666 
z
" transform="scale(0.015625)"/>
       </defs>
       <use xlink:href="#DejaVuSans-32"/>
       <use xlink:href="#DejaVuSans-30" x="63.623047"/>
       <use xlink:href="#DejaVuSans-34" x="127.246094"/>
       <use xlink:href="#DejaVuSans-30" x="190.869141"/>
      </g>
     </g>
    </g>
    <g id="xtick_3">
     <g id="line2d_3">
      <g>
       <use xlink:href="#m6ac1a8f504" x="397.181818" y="384.48" style="stroke: #000000; stroke-width: 0.8"/>
      </g>
     </g>
     <g id="text_3">
      <!-- 2060 -->
      <g transform="translate(384.456818 399.078438) scale(0.1 -0.1)">
       <defs>
        <path id="DejaVuSans-36" d="M 2113 2584 
Q 1688 2584 1439 2293 
Q 1191 2003 1191 1497 
Q 1191 994 1439 701 
Q 1688 409 2113 409 
Q 2538 409 2786 701 
Q 3034 994 3034 1497 
Q 3034 2003 2786 2293 
Q 2538 2584 2113 2584 
z
M 3366 4563 
L 3366 3988 
Q 3128 4100 2886 4159 
Q 2644 4219 2406 4219 
Q 1781 4219 1451 3797 
Q 1122 3375 1075 2522 
Q 1259 2794 1537 2939 
Q 1816 3084 2150 3084 
Q 2853 3084 3261 2657 
Q 3669 2231 3669 1497 
Q 3669 778 3244 343 
Q 2819 -91 2113 -91 
Q 1303 -91 875 529 
Q 447 1150 447 2328 
Q 447 3434 972 4092 
Q 1497 4750 2381 4750 
Q 2619 4750 2861 4703 
Q 3103 4656 3366 4563 
z
" transform="scale(0.015625)"/>
       </defs>
       <use xlink:href="#DejaVuSans-32"/>
       <use xlink:href="#DejaVuSans-30" x="63.623047"/>
       <use xlink:href="#DejaVuSans-36" x="127.246094"/>
       <use xlink:href="#DejaVuSans-30" x="190.869141"/>
      </g>
     </g>
    </g>
    <g id="xtick_4">
     <g id="line2d_4">
      <g>
       <use xlink:href="#m6ac1a8f504" x="509.909091" y="384.48" style="stroke: #000000; stroke-width: 0.8"/>
      </g>
     </g>
     <g id="text_4">
      <!-- 2080 -->
      <g transform="translate(497.184091 399.078438) scale(0.1 -0.1)">
       <defs>
        <path id="DejaVuSans-38" d="M 2034 2216 
Q 1584 2216 1326 1975 
Q 1069 1734 1069 1313 
Q 1069 891 1326 650 
Q 1584 409 2034 409 
Q 2484 409 2743 651 
Q 3003 894 3003 1313 
Q 3003 1734 2745 1975 
Q 2488 2216 2034 2216 
z
M 1403 2484 
Q 997 2584 770 2862 
Q 544 3141 544 3541 
Q 544 4100 942 4425 
Q 1341 4750 2034 4750 
Q 2731 4750 3128 4425 
Q 3525 4100 3525 3541 
Q 3525 3141 3298 2862 
Q 3072 2584 2669 2484 
Q 3125 2378 3379 2068 
Q 3634 1759 3634 1313 
Q 3634 634 3220 271 
Q 2806 -91 2034 -91 
Q 1263 -91 848 271 
Q 434 634 434 1313 
Q 434 1759 690 2068 
Q 947 2378 1403 2484 
z
M 1172 3481 
Q 1172 3119 1398 2916 
Q 1625 2713 2034 2713 
Q 2441 2713 2670 2916 
Q 2900 3119 2900 3481 
Q 2900 3844 2670 4047 
Q 2441 4250 2034 4250 
Q 1625 4250 1398 4047 
Q 1172 3844 1172 3481 
z
" transform="scale(0.015625)"/>
       </defs>
       <use xlink:href="#DejaVuSans-32"/>
       <use xlink:href="#DejaVuSans-30" x="63.623047"/>
       <use xlink:href="#DejaVuSans-38" x="127.246094"/>
       <use xlink:href="#DejaVuSans-30" x="190.869141"/>
      </g>
     </g>
    </g>
    <g id="xtick_5">
     <g id="line2d_5">
      <g>
       <use xlink:href="#m6ac1a8f504" x="622.636364" y="384.48" style="stroke: #000000; stroke-width: 0.8"/>
      </g>
     </g>
     <g id="text_5">
      <!-- 2100 -->
      <g transform="translate(609.911364 399.078438) scale(0.1 -0.1)">
       <defs>
        <path id="DejaVuSans-31" d="M 794 531 
L 1825 531 
L 1825 4091 
L 703 3866 
L 703 4441 
L 1819 4666 
L 2450 4666 
L 2450 531 
L 3481 531 
L 3481 0 
L 794 0 
L 794 531 
z
" transform="scale(0.015625)"/>
       </defs>
       <use xlink:href="#DejaVuSans-32"/>
       <use xlink:href="#DejaVuSans-31" x="63.623047"/>
       <use xlink:href="#DejaVuSans-30" x="127.246094"/>
       <use xlink:href="#DejaVuSans-30" x="190.869141"/>
      </g>
     </g>
    </g>
   </g>
   <g id="matplotlib.axis_2">
    <g id="ytick_1">
     <g id="line2d_6">
      <defs>
       <path id="m6db073d0f7" d="M 0 0 
L -3.5 0 
" style="stroke: #000000; stroke-width: 0.8"/>
      </defs>
      <g>
       <use xlink:href="#m6db073d0f7" x="90" y="334.44414" style="stroke: #000000; stroke-width: 0.8"/>
      </g>
     </g>
     <g id="text_6">
      <!-- 50,000,000  -->
      <g transform="translate(22.565625 338.243359) scale(0.1 -0.1)">
       <defs>
        <path id="DejaVuSans-35" d="M 691 4666 
L 3169 4666 
L 3169 4134 
L 1269 4134 
L 1269 2991 
Q 1406 3038 1543 3061 
Q 1681 3084 1819 3084 
Q 2600 3084 3056 2656 
Q 3513 2228 3513 1497 
Q 3513 744 3044 326 
Q 2575 -91 1722 -91 
Q 1428 -91 1123 -41 
Q 819 9 494 109 
L 494 744 
Q 775 591 1075 516 
Q 1375 441 1709 441 
Q 2250 441 2565 725 
Q 2881 1009 2881 1497 
Q 2881 1984 2565 2268 
Q 2250 2553 1709 2553 
Q 1456 2553 1204 2497 
Q 953 2441 691 2322 
L 691 4666 
z
" transform="scale(0.015625)"/>
        <path id="DejaVuSans-2c" d="M 750 794 
L 1409 794 
L 1409 256 
L 897 -744 
L 494 -744 
L 750 256 
L 750 794 
z
" transform="scale(0.015625)"/>
        <path id="DejaVuSans-20" transform="scale(0.015625)"/>
       </defs>
       <use xlink:href="#DejaVuSans-35"/>
       <use xlink:href="#DejaVuSans-30" x="63.623047"/>
       <use xlink:href="#DejaVuSans-2c" x="127.246094"/>
       <use xlink:href="#DejaVuSans-30" x="159.033203"/>
       <use xlink:href="#DejaVuSans-30" x="222.65625"/>
       <use xlink:href="#DejaVuSans-30" x="286.279297"/>
       <use xlink:href="#DejaVuSans-2c" x="349.902344"/>
       <use xlink:href="#DejaVuSans-30" x="381.689453"/>
       <use xlink:href="#DejaVuSans-30" x="445.3125"/>
       <use xlink:href="#DejaVuSans-30" x="508.935547"/>
       <use xlink:href="#DejaVuSans-20" x="572.558594"/>
      </g>
     </g>
    </g>
    <g id="ytick_2">
     <g id="line2d_7">
      <g>
       <use xlink:href="#m6db073d0f7" x="90" y="280.247895" style="stroke: #000000; stroke-width: 0.8"/>
      </g>
     </g>
     <g id="text_7">
      <!-- 100,000,000  -->
      <g transform="translate(16.203125 284.047114) scale(0.1 -0.1)">
       <use xlink:href="#DejaVuSans-31"/>
       <use xlink:href="#DejaVuSans-30" x="63.623047"/>
       <use xlink:href="#DejaVuSans-30" x="127.246094"/>
       <use xlink:href="#DejaVuSans-2c" x="190.869141"/>
       <use xlink:href="#DejaVuSans-30" x="222.65625"/>
       <use xlink:href="#DejaVuSans-30" x="286.279297"/>
       <use xlink:href="#DejaVuSans-30" x="349.902344"/>
       <use xlink:href="#DejaVuSans-2c" x="413.525391"/>
       <use xlink:href="#DejaVuSans-30" x="445.3125"/>
       <use xlink:href="#DejaVuSans-30" x="508.935547"/>
       <use xlink:href="#DejaVuSans-30" x="572.558594"/>
       <use xlink:href="#DejaVuSans-20" x="636.181641"/>
      </g>
     </g>
    </g>
    <g id="ytick_3">
     <g id="line2d_8">
      <g>
       <use xlink:href="#m6db073d0f7" x="90" y="226.051649" style="stroke: #000000; stroke-width: 0.8"/>
      </g>
     </g>
     <g id="text_8">
      <!-- 150,000,000  -->
      <g transform="translate(16.203125 229.850868) scale(0.1 -0.1)">
       <use xlink:href="#DejaVuSans-31"/>
       <use xlink:href="#DejaVuSans-35" x="63.623047"/>
       <use xlink:href="#DejaVuSans-30" x="127.246094"/>
       <use xlink:href="#DejaVuSans-2c" x="190.869141"/>
       <use xlink:href="#DejaVuSans-30" x="222.65625"/>
       <use xlink:href="#DejaVuSans-30" x="286.279297"/>
       <use xlink:href="#DejaVuSans-30" x="349.902344"/>
       <use xlink:href="#DejaVuSans-2c" x="413.525391"/>
       <use xlink:href="#DejaVuSans-30" x="445.3125"/>
       <use xlink:href="#DejaVuSans-30" x="508.935547"/>
       <use xlink:href="#DejaVuSans-30" x="572.558594"/>
       <use xlink:href="#DejaVuSans-20" x="636.181641"/>
      </g>
     </g>
    </g>
    <g id="ytick_4">
     <g id="line2d_9">
      <g>
       <use xlink:href="#m6db073d0f7" x="90" y="171.855404" style="stroke: #000000; stroke-width: 0.8"/>
      </g>
     </g>
     <g id="text_9">
      <!-- 200,000,000  -->
      <g transform="translate(16.203125 175.654622) scale(0.1 -0.1)">
       <use xlink:href="#DejaVuSans-32"/>
       <use xlink:href="#DejaVuSans-30" x="63.623047"/>
       <use xlink:href="#DejaVuSans-30" x="127.246094"/>
       <use xlink:href="#DejaVuSans-2c" x="190.869141"/>
       <use xlink:href="#DejaVuSans-30" x="222.65625"/>
       <use xlink:href="#DejaVuSans-30" x="286.279297"/>
       <use xlink:href="#DejaVuSans-30" x="349.902344"/>
       <use xlink:href="#DejaVuSans-2c" x="413.525391"/>
       <use xlink:href="#DejaVuSans-30" x="445.3125"/>
       <use xlink:href="#DejaVuSans-30" x="508.935547"/>
       <use xlink:href="#DejaVuSans-30" x="572.558594"/>
       <use xlink:href="#DejaVuSans-20" x="636.181641"/>
      </g>
     </g>
    </g>
    <g id="ytick_5">
     <g id="line2d_10">
      <g>
       <use xlink:href="#m6db073d0f7" x="90" y="117.659158" style="stroke: #000000; stroke-width: 0.8"/>
      </g>
     </g>
     <g id="text_10">
      <!-- 250,000,000  -->
      <g transform="translate(16.203125 121.458377) scale(0.1 -0.1)">
       <use xlink:href="#DejaVuSans-32"/>
       <use xlink:href="#DejaVuSans-35" x="63.623047"/>
       <use xlink:href="#DejaVuSans-30" x="127.246094"/>
       <use xlink:href="#DejaVuSans-2c" x="190.869141"/>
       <use xlink:href="#DejaVuSans-30" x="222.65625"/>
       <use xlink:href="#DejaVuSans-30" x="286.279297"/>
       <use xlink:href="#DejaVuSans-30" x="349.902344"/>
       <use xlink:href="#DejaVuSans-2c" x="413.525391"/>
       <use xlink:href="#DejaVuSans-30" x="445.3125"/>
       <use xlink:href="#DejaVuSans-30" x="508.935547"/>
       <use xlink:href="#DejaVuSans-30" x="572.558594"/>
       <use xlink:href="#DejaVuSans-20" x="636.181641"/>
      </g>
     </g>
    </g>
    <g id="ytick_6">
     <g id="line2d_11">
      <g>
       <use xlink:href="#m6db073d0f7" x="90" y="63.462913" style="stroke: #000000; stroke-width: 0.8"/>
      </g>
     </g>
     <g id="text_11">
      <!-- 300,000,000  -->
      <g transform="translate(16.203125 67.262131) scale(0.1 -0.1)">
       <defs>
        <path id="DejaVuSans-33" d="M 2597 2516 
Q 3050 2419 3304 2112 
Q 3559 1806 3559 1356 
Q 3559 666 3084 287 
Q 2609 -91 1734 -91 
Q 1441 -91 1130 -33 
Q 819 25 488 141 
L 488 750 
Q 750 597 1062 519 
Q 1375 441 1716 441 
Q 2309 441 2620 675 
Q 2931 909 2931 1356 
Q 2931 1769 2642 2001 
Q 2353 2234 1838 2234 
L 1294 2234 
L 1294 2753 
L 1863 2753 
Q 2328 2753 2575 2939 
Q 2822 3125 2822 3475 
Q 2822 3834 2567 4026 
Q 2313 4219 1838 4219 
Q 1578 4219 1281 4162 
Q 984 4106 628 3988 
L 628 4550 
Q 988 4650 1302 4700 
Q 1616 4750 1894 4750 
Q 2613 4750 3031 4423 
Q 3450 4097 3450 3541 
Q 3450 3153 3228 2886 
Q 3006 2619 2597 2516 
z
" transform="scale(0.015625)"/>
       </defs>
       <use xlink:href="#DejaVuSans-33"/>
       <use xlink:href="#DejaVuSans-30" x="63.623047"/>
       <use xlink:href="#DejaVuSans-30" x="127.246094"/>
       <use xlink:href="#DejaVuSans-2c" x="190.869141"/>
       <use xlink:href="#DejaVuSans-30" x="222.65625"/>
       <use xlink:href="#DejaVuSans-30" x="286.279297"/>
       <use xlink:href="#DejaVuSans-30" x="349.902344"/>
       <use xlink:href="#DejaVuSans-2c" x="413.525391"/>
       <use xlink:href="#DejaVuSans-30" x="445.3125"/>
       <use xlink:href="#DejaVuSans-30" x="508.935547"/>
       <use xlink:href="#DejaVuSans-30" x="572.558594"/>
       <use xlink:href="#DejaVuSans-20" x="636.181641"/>
      </g>
     </g>
    </g>
   </g>
   <g id="line2d_12">
    <path d="M 115.363636 369.36 
L 121 368.830097 
L 126.636364 368.135344 
L 132.272727 367.233849 
L 137.909091 366.233156 
L 143.545455 365.173036 
L 149.181818 363.876058 
L 154.818182 362.464337 
L 160.454545 361.360728 
L 166.090909 360.289596 
L 171.727273 359.697854 
L 177.363636 359.154831 
L 183 358.505908 
L 188.636364 357.748723 
L 194.272727 356.928281 
L 199.909091 356.071087 
L 205.545455 355.17937 
L 211.181818 354.24307 
L 216.818182 353.250659 
L 222.454545 352.194128 
L 228.090909 351.069948 
L 233.727273 349.8783 
L 239.363636 348.621899 
L 245 347.30485 
L 250.636364 345.931693 
L 256.272727 344.506698 
L 261.909091 343.033435 
L 267.545455 341.514602 
L 273.181818 339.952036 
L 278.818182 338.346833 
L 284.454545 336.699484 
L 290.090909 335.010001 
L 295.727273 333.278009 
L 301.363636 331.502805 
L 307 329.683401 
L 312.636364 327.818558 
L 318.272727 325.906818 
L 323.909091 323.946529 
L 329.545455 321.935882 
L 335.181818 319.87293 
L 340.818182 317.755609 
L 346.454545 315.581762 
L 352.090909 313.349138 
L 357.727273 311.05541 
L 363.363636 308.698174 
L 369 306.274953 
L 374.636364 303.783194 
L 380.272727 301.220276 
L 385.909091 298.583496 
L 391.545455 295.870076 
L 397.181818 293.077159 
L 402.818182 290.2018 
L 408.454545 287.240967 
L 414.090909 284.191533 
L 419.727273 281.05027 
L 425.363636 277.813849 
L 431 274.478828 
L 436.636364 271.041649 
L 442.272727 267.498635 
L 447.909091 263.845978 
L 453.545455 260.079741 
L 459.181818 256.195841 
L 464.818182 252.190056 
L 470.454545 248.058011 
L 476.090909 243.795173 
L 481.727273 239.396846 
L 487.363636 234.858168 
L 493 230.174096 
L 498.636364 225.339411 
L 504.272727 220.348702 
L 509.909091 215.196367 
L 515.545455 209.876602 
L 521.181818 204.383395 
L 526.818182 198.710521 
L 532.454545 192.851536 
L 538.090909 186.799765 
L 543.727273 180.548302 
L 549.363636 174.089997 
L 555 167.417449 
L 560.636364 160.523004 
L 566.272727 153.398739 
L 571.909091 146.036463 
L 577.545455 138.427696 
L 583.181818 130.563674 
L 588.818182 122.435334 
L 594.454545 114.033307 
L 600.090909 105.347904 
L 605.727273 96.369113 
L 611.363636 87.086585 
L 617 77.489624 
L 622.636364 67.567181 
" clip-path="url(#p699759d19c)" style="fill: none; stroke: #1f77b4; stroke-width: 3; stroke-linecap: square"/>
   </g>
   <g id="line2d_13">
    <path d="M 115.363636 369.36 
L 121 368.830097 
L 126.636364 368.135344 
L 132.272727 367.233849 
L 137.909091 366.233156 
L 143.545455 365.173036 
L 149.181818 363.876058 
L 154.818182 362.464337 
L 160.454545 361.360728 
L 166.090909 360.289596 
L 171.727273 359.771484 
L 177.363636 359.097757 
L 183 358.399211 
L 188.636364 357.640381 
L 194.272727 356.824883 
L 199.909091 355.965425 
L 205.545455 355.065343 
L 211.181818 354.119432 
L 216.818182 353.118738 
L 222.454545 352.055075 
L 228.090909 350.923594 
L 233.727273 349.723421 
L 239.363636 348.456942 
L 245 347.128511 
L 250.636364 345.743147 
L 256.272727 344.305565 
L 261.909091 342.81964 
L 267.545455 341.288229 
L 273.181818 339.71324 
L 278.818182 338.095792 
L 284.454545 336.436398 
L 290.090909 334.735098 
L 295.727273 332.991552 
L 301.363636 331.205096 
L 307 329.374775 
L 312.636364 327.499377 
L 318.272727 325.577459 
L 323.909091 323.607379 
L 329.545455 321.587331 
L 335.181818 319.515367 
L 340.818182 317.389424 
L 346.454545 315.207341 
L 352.090909 312.966867 
L 357.727273 310.665675 
L 363.363636 308.30136 
L 369 305.871444 
L 374.636364 303.373376 
L 380.272727 300.804531 
L 385.909091 298.162207 
L 391.545455 295.443628 
L 397.181818 292.645933 
L 402.818182 289.766178 
L 408.454545 286.80133 
L 414.090909 283.748262 
L 419.727273 280.603745 
L 425.363636 277.364449 
L 431 274.026931 
L 436.636364 270.587632 
L 442.272727 267.042872 
L 447.909091 263.388843 
L 453.545455 259.621603 
L 459.181818 255.737071 
L 464.818182 251.731017 
L 470.454545 247.599064 
L 476.090909 243.336677 
L 481.727273 238.939154 
L 487.363636 234.401627 
L 493 229.71905 
L 498.636364 224.886197 
L 504.272727 219.897651 
L 509.909091 214.747803 
L 515.545455 209.430844 
L 521.181818 203.940752 
L 526.818182 198.271294 
L 532.454545 192.416019 
L 538.090909 186.368244 
L 543.727273 180.121052 
L 549.363636 173.667285 
L 555 166.999533 
L 560.636364 160.11013 
L 566.272727 152.991145 
L 571.909091 145.634375 
L 577.545455 138.031332 
L 583.181818 130.173239 
L 588.818182 122.051024 
L 594.454545 113.655307 
L 600.090909 104.976388 
L 605.727273 96.004244 
L 611.363636 86.728517 
L 617 77.138501 
L 622.636364 67.223134 
" clip-path="url(#p699759d19c)" style="fill: none; stroke: #ff7f0e; stroke-width: 3; stroke-linecap: square"/>
   </g>
   <g id="line2d_14">
    <path d="M 115.363636 369.36 
L 121 368.830097 
L 126.636364 368.135344 
L 132.272727 367.233849 
L 137.909091 366.233156 
L 143.545455 365.173036 
L 149.181818 363.876058 
L 154.818182 362.464337 
L 160.454545 361.360728 
L 166.090909 360.289596 
L 171.727273 359.805964 
L 177.363636 359.098973 
L 183 358.380467 
L 188.636364 357.615813 
L 194.272727 356.800291 
L 199.909091 355.941194 
L 205.545455 355.040445 
L 211.181818 354.093348 
L 216.818182 353.091556 
L 222.454545 352.027022 
L 228.090909 350.894714 
L 233.727273 349.693534 
L 239.363636 348.425755 
L 245 347.095738 
L 250.636364 345.708565 
L 256.272727 344.269028 
L 261.909091 342.781056 
L 267.545455 341.247537 
L 273.181818 339.670396 
L 278.818182 338.050768 
L 284.454545 336.389174 
L 290.090909 334.685671 
L 295.727273 332.939933 
L 301.363636 331.151313 
L 307 329.31887 
L 312.636364 327.441402 
L 318.272727 325.517476 
L 323.909091 323.545455 
L 329.545455 321.523538 
L 335.181818 319.449779 
L 340.818182 317.322119 
L 346.454545 315.138397 
L 352.090909 312.896365 
L 357.727273 310.593695 
L 363.363636 308.227985 
L 369 305.796756 
L 374.636364 303.297457 
L 380.272727 300.727463 
L 385.909091 298.084074 
L 391.545455 295.364509 
L 397.181818 292.56591 
L 402.818182 289.685331 
L 408.454545 286.719738 
L 414.090909 283.666003 
L 419.727273 280.520897 
L 425.363636 277.281088 
L 431 273.943131 
L 436.636364 270.503468 
L 442.272727 266.958416 
L 447.909091 263.304167 
L 453.545455 259.536777 
L 459.181818 255.652162 
L 464.818182 251.646092 
L 470.454545 247.514189 
L 476.090909 243.251914 
L 481.727273 238.854566 
L 487.363636 234.317273 
L 493 229.634989 
L 498.636364 224.802483 
L 504.272727 219.814339 
L 509.909091 214.664945 
L 515.545455 209.348488 
L 521.181818 203.858946 
L 526.818182 198.190084 
L 532.454545 192.335446 
L 538.090909 186.288348 
L 543.727273 180.041873 
L 549.363636 173.588856 
L 555 166.921888 
L 560.636364 160.0333 
L 566.272727 152.915158 
L 571.909091 145.559257 
L 577.545455 137.957105 
L 583.181818 130.099925 
L 588.818182 121.978643 
L 594.454545 113.583874 
L 600.090909 104.905918 
L 605.727273 95.934751 
L 611.363636 86.660009 
L 617 77.070987 
L 622.636364 67.156619 
" clip-path="url(#p699759d19c)" style="fill: none; stroke: #2ca02c; stroke-width: 3; stroke-linecap: square"/>
   </g>
   <g id="line2d_15">
    <path d="M 115.363636 369.36 
L 121 368.830097 
L 126.636364 368.135344 
L 132.272727 367.233849 
L 137.909091 366.233156 
L 143.545455 365.173036 
L 149.181818 363.876058 
L 154.818182 362.464337 
L 160.454545 361.360728 
L 166.090909 360.289596 
L 171.727273 359.840349 
L 177.363636 359.102289 
L 183 358.364426 
L 188.636364 357.593673 
L 194.272727 356.777755 
L 199.909091 355.918806 
L 205.545455 355.017319 
L 211.181818 354.06901 
L 216.818182 353.066094 
L 222.454545 352.000663 
L 228.090909 350.867521 
L 233.727273 349.665361 
L 239.363636 348.396349 
L 245 347.064843 
L 250.636364 345.675986 
L 256.272727 344.23463 
L 261.909091 342.744753 
L 267.545455 341.209271 
L 273.181818 339.630122 
L 278.818182 338.008448 
L 284.454545 336.344785 
L 290.090909 334.639199 
L 295.727273 332.891382 
L 301.363636 331.1007 
L 307 329.266226 
L 312.636364 327.386771 
L 318.272727 325.460907 
L 323.909091 323.487007 
L 329.545455 321.463271 
L 335.181818 319.38776 
L 340.818182 317.258414 
L 346.454545 315.073078 
L 352.090909 312.829503 
L 357.727273 310.525365 
L 363.363636 308.15826 
L 369 305.725712 
L 374.636364 303.22517 
L 380.272727 300.65401 
L 385.909091 298.009529 
L 391.545455 295.28895 
L 397.181818 292.489411 
L 402.818182 289.607968 
L 408.454545 286.641585 
L 414.090909 283.587134 
L 419.727273 280.441386 
L 425.363636 277.201006 
L 431 273.862551 
L 436.636364 270.422459 
L 442.272727 266.877049 
L 447.909091 263.222509 
L 453.545455 259.454895 
L 459.181818 255.570122 
L 464.818182 251.56396 
L 470.454545 247.432027 
L 476.090909 243.169784 
L 481.727273 238.772527 
L 487.363636 234.235384 
L 493 229.553306 
L 498.636364 224.721062 
L 504.272727 219.733232 
L 509.909091 214.584203 
L 515.545455 209.26816 
L 521.181818 203.77908 
L 526.818182 198.110724 
L 532.454545 192.256634 
L 538.090909 186.210127 
L 543.727273 179.964279 
L 549.363636 173.511927 
L 555 166.845657 
L 560.636364 159.957798 
L 566.272727 152.840415 
L 571.909091 145.4853 
L 577.545455 137.88396 
L 583.181818 130.027615 
L 588.818182 121.907188 
L 594.454545 113.513293 
L 600.090909 104.836227 
L 605.727273 95.865963 
L 611.363636 86.592138 
L 617 77.004042 
L 622.636364 67.090611 
" clip-path="url(#p699759d19c)" style="fill: none; stroke: #d62728; stroke-width: 3; stroke-linecap: square"/>
   </g>
   <g id="line2d_16">
    <path d="M 115.363636 369.36 
L 121 368.830097 
L 126.636364 368.135344 
L 132.272727 367.233849 
L 137.909091 366.233156 
L 143.545455 365.173036 
L 149.181818 363.876058 
L 154.818182 362.464337 
L 160.454545 361.360728 
L 166.090909 360.289596 
L 171.727273 359.874422 
L 177.363636 359.107207 
L 183 358.350607 
L 188.636364 357.573598 
L 194.272727 356.757001 
L 199.909091 355.898031 
L 205.545455 354.99575 
L 211.181818 354.046213 
L 216.818182 353.042155 
L 222.454545 351.975806 
L 228.090909 350.841823 
L 233.727273 349.638704 
L 239.363636 348.368511 
L 245 347.035598 
L 250.636364 345.645156 
L 256.272727 344.202096 
L 261.909091 342.710434 
L 267.545455 341.17311 
L 273.181818 339.592072 
L 278.818182 337.96847 
L 284.454545 336.302848 
L 290.090909 334.595285 
L 295.727273 332.845486 
L 301.363636 331.052832 
L 307 329.216409 
L 312.636364 327.335038 
L 318.272727 325.407301 
L 323.909091 323.431577 
L 329.545455 321.406071 
L 335.181818 319.328846 
L 340.818182 317.197848 
L 346.454545 315.010921 
L 352.090909 312.765822 
L 357.727273 310.460225 
L 363.363636 308.09173 
L 369 305.657861 
L 374.636364 303.156068 
L 380.272727 300.583727 
L 385.909091 297.938137 
L 391.545455 295.216519 
L 397.181818 292.416012 
L 402.818182 289.533673 
L 408.454545 286.566463 
L 414.090909 283.511256 
L 419.727273 280.36482 
L 425.363636 277.123822 
L 431 273.784817 
L 436.636364 270.344243 
L 442.272727 266.798416 
L 447.909091 263.143526 
L 453.545455 259.375627 
L 459.181818 255.490632 
L 464.818182 251.484309 
L 470.454545 247.352277 
L 476.090909 243.089995 
L 481.727273 238.692758 
L 487.363636 234.155691 
L 493 229.473746 
L 498.636364 224.641687 
L 504.272727 219.654095 
L 509.909091 214.505355 
L 515.545455 209.189649 
L 521.181818 203.700951 
L 526.818182 198.033024 
L 532.454545 192.179406 
L 538.090909 186.133411 
L 543.727273 179.888114 
L 549.363636 173.436349 
L 555 166.770701 
L 560.636364 159.883499 
L 566.272727 152.766801 
L 571.909091 145.412401 
L 577.545455 137.811801 
L 583.181818 129.95622 
L 588.818182 121.836579 
L 594.454545 113.443491 
L 600.090909 104.76725 
L 605.727273 95.797828 
L 611.363636 86.524859 
L 617 76.937633 
L 622.636364 67.02508 
" clip-path="url(#p699759d19c)" style="fill: none; stroke: #9467bd; stroke-width: 3; stroke-linecap: square"/>
   </g>
   <g id="line2d_17">
    <path d="M 115.363636 369.36 
L 121 368.830097 
L 126.636364 368.135344 
L 132.272727 367.233849 
L 137.909091 366.233156 
L 143.545455 365.173036 
L 149.181818 363.876058 
L 154.818182 362.464337 
L 160.454545 361.360728 
L 166.090909 360.289596 
L 171.727273 359.908061 
L 177.363636 359.113379 
L 183 358.338653 
L 188.636364 357.555307 
L 194.272727 356.737809 
L 199.909091 355.878683 
L 205.545455 354.975561 
L 211.181818 354.024785 
L 216.818182 353.019575 
L 222.454545 351.952294 
L 228.090909 350.817463 
L 233.727273 349.613402 
L 239.363636 348.342072 
L 245 347.007819 
L 250.636364 345.615877 
L 256.272727 344.171208 
L 261.909091 342.677865 
L 267.545455 341.138803 
L 273.181818 339.55598 
L 278.818182 337.930551 
L 284.454545 336.263067 
L 290.090909 334.553619 
L 295.727273 332.801924 
L 301.363636 331.007378 
L 307 329.169079 
L 312.636364 327.285858 
L 318.272727 325.356307 
L 323.909091 323.378809 
L 329.545455 321.351577 
L 335.181818 319.272676 
L 340.818182 317.140055 
L 346.454545 314.951562 
L 352.090909 312.704955 
L 357.727273 310.397912 
L 363.363636 308.028033 
L 369 305.592844 
L 374.636364 303.089795 
L 380.272727 300.516265 
L 385.909091 297.869551 
L 391.545455 295.146876 
L 397.181818 292.345379 
L 402.818182 289.462115 
L 408.454545 286.494049 
L 414.090909 283.43805 
L 419.727273 280.29089 
L 425.363636 277.049232 
L 431 273.709633 
L 436.636364 270.268529 
L 442.272727 266.722238 
L 447.909091 263.066945 
L 453.545455 259.298705 
L 459.181818 255.413431 
L 464.818182 251.406891 
L 470.454545 247.2747 
L 476.090909 243.012317 
L 481.727273 238.615036 
L 487.363636 234.077981 
L 493 229.396101 
L 498.636364 224.564162 
L 504.272727 219.576741 
L 509.909091 214.42822 
L 515.545455 209.112783 
L 521.181818 203.6244 
L 526.818182 197.956832 
L 532.454545 192.103617 
L 538.090909 186.058065 
L 543.727273 179.81325 
L 549.363636 173.362006 
L 555 166.696913 
L 560.636364 159.810298 
L 566.272727 152.694221 
L 571.909091 145.340469 
L 577.545455 137.740546 
L 583.181818 129.885668 
L 588.818182 121.766753 
L 594.454545 113.374412 
L 600.090909 104.698939 
L 605.727273 95.730302 
L 611.363636 86.458134 
L 617 76.871723 
L 622.636364 66.96 
" clip-path="url(#p699759d19c)" style="fill: none; stroke: #8c564b; stroke-width: 3; stroke-linecap: square"/>
   </g>
   <g id="patch_3">
    <path d="M 90 384.48 
L 90 51.84 
" style="fill: none; stroke: #000000; stroke-width: 0.8; stroke-linejoin: miter; stroke-linecap: square"/>
   </g>
   <g id="patch_4">
    <path d="M 648 384.48 
L 648 51.84 
" style="fill: none; stroke: #000000; stroke-width: 0.8; stroke-linejoin: miter; stroke-linecap: square"/>
   </g>
   <g id="patch_5">
    <path d="M 90 384.48 
L 648 384.48 
" style="fill: none; stroke: #000000; stroke-width: 0.8; stroke-linejoin: miter; stroke-linecap: square"/>
   </g>
   <g id="text_12">
    <!-- Level: GDP Expenditure side at market prices -->
    <g transform="translate(210.147031 45.84) scale(0.14 -0.14)">
     <defs>
      <path id="DejaVuSans-4c" d="M 628 4666 
L 1259 4666 
L 1259 531 
L 3531 531 
L 3531 0 
L 628 0 
L 628 4666 
z
" transform="scale(0.015625)"/>
      <path id="DejaVuSans-65" d="M 3597 1894 
L 3597 1613 
L 953 1613 
Q 991 1019 1311 708 
Q 1631 397 2203 397 
Q 2534 397 2845 478 
Q 3156 559 3463 722 
L 3463 178 
Q 3153 47 2828 -22 
Q 2503 -91 2169 -91 
Q 1331 -91 842 396 
Q 353 884 353 1716 
Q 353 2575 817 3079 
Q 1281 3584 2069 3584 
Q 2775 3584 3186 3129 
Q 3597 2675 3597 1894 
z
M 3022 2063 
Q 3016 2534 2758 2815 
Q 2500 3097 2075 3097 
Q 1594 3097 1305 2825 
Q 1016 2553 972 2059 
L 3022 2063 
z
" transform="scale(0.015625)"/>
      <path id="DejaVuSans-76" d="M 191 3500 
L 800 3500 
L 1894 563 
L 2988 3500 
L 3597 3500 
L 2284 0 
L 1503 0 
L 191 3500 
z
" transform="scale(0.015625)"/>
      <path id="DejaVuSans-6c" d="M 603 4863 
L 1178 4863 
L 1178 0 
L 603 0 
L 603 4863 
z
" transform="scale(0.015625)"/>
      <path id="DejaVuSans-3a" d="M 750 794 
L 1409 794 
L 1409 0 
L 750 0 
L 750 794 
z
M 750 3309 
L 1409 3309 
L 1409 2516 
L 750 2516 
L 750 3309 
z
" transform="scale(0.015625)"/>
      <path id="DejaVuSans-47" d="M 3809 666 
L 3809 1919 
L 2778 1919 
L 2778 2438 
L 4434 2438 
L 4434 434 
Q 4069 175 3628 42 
Q 3188 -91 2688 -91 
Q 1594 -91 976 548 
Q 359 1188 359 2328 
Q 359 3472 976 4111 
Q 1594 4750 2688 4750 
Q 3144 4750 3555 4637 
Q 3966 4525 4313 4306 
L 4313 3634 
Q 3963 3931 3569 4081 
Q 3175 4231 2741 4231 
Q 1884 4231 1454 3753 
Q 1025 3275 1025 2328 
Q 1025 1384 1454 906 
Q 1884 428 2741 428 
Q 3075 428 3337 486 
Q 3600 544 3809 666 
z
" transform="scale(0.015625)"/>
      <path id="DejaVuSans-44" d="M 1259 4147 
L 1259 519 
L 2022 519 
Q 2988 519 3436 956 
Q 3884 1394 3884 2338 
Q 3884 3275 3436 3711 
Q 2988 4147 2022 4147 
L 1259 4147 
z
M 628 4666 
L 1925 4666 
Q 3281 4666 3915 4102 
Q 4550 3538 4550 2338 
Q 4550 1131 3912 565 
Q 3275 0 1925 0 
L 628 0 
L 628 4666 
z
" transform="scale(0.015625)"/>
      <path id="DejaVuSans-50" d="M 1259 4147 
L 1259 2394 
L 2053 2394 
Q 2494 2394 2734 2622 
Q 2975 2850 2975 3272 
Q 2975 3691 2734 3919 
Q 2494 4147 2053 4147 
L 1259 4147 
z
M 628 4666 
L 2053 4666 
Q 2838 4666 3239 4311 
Q 3641 3956 3641 3272 
Q 3641 2581 3239 2228 
Q 2838 1875 2053 1875 
L 1259 1875 
L 1259 0 
L 628 0 
L 628 4666 
z
" transform="scale(0.015625)"/>
      <path id="DejaVuSans-45" d="M 628 4666 
L 3578 4666 
L 3578 4134 
L 1259 4134 
L 1259 2753 
L 3481 2753 
L 3481 2222 
L 1259 2222 
L 1259 531 
L 3634 531 
L 3634 0 
L 628 0 
L 628 4666 
z
" transform="scale(0.015625)"/>
      <path id="DejaVuSans-78" d="M 3513 3500 
L 2247 1797 
L 3578 0 
L 2900 0 
L 1881 1375 
L 863 0 
L 184 0 
L 1544 1831 
L 300 3500 
L 978 3500 
L 1906 2253 
L 2834 3500 
L 3513 3500 
z
" transform="scale(0.015625)"/>
      <path id="DejaVuSans-70" d="M 1159 525 
L 1159 -1331 
L 581 -1331 
L 581 3500 
L 1159 3500 
L 1159 2969 
Q 1341 3281 1617 3432 
Q 1894 3584 2278 3584 
Q 2916 3584 3314 3078 
Q 3713 2572 3713 1747 
Q 3713 922 3314 415 
Q 2916 -91 2278 -91 
Q 1894 -91 1617 61 
Q 1341 213 1159 525 
z
M 3116 1747 
Q 3116 2381 2855 2742 
Q 2594 3103 2138 3103 
Q 1681 3103 1420 2742 
Q 1159 2381 1159 1747 
Q 1159 1113 1420 752 
Q 1681 391 2138 391 
Q 2594 391 2855 752 
Q 3116 1113 3116 1747 
z
" transform="scale(0.015625)"/>
      <path id="DejaVuSans-6e" d="M 3513 2113 
L 3513 0 
L 2938 0 
L 2938 2094 
Q 2938 2591 2744 2837 
Q 2550 3084 2163 3084 
Q 1697 3084 1428 2787 
Q 1159 2491 1159 1978 
L 1159 0 
L 581 0 
L 581 3500 
L 1159 3500 
L 1159 2956 
Q 1366 3272 1645 3428 
Q 1925 3584 2291 3584 
Q 2894 3584 3203 3211 
Q 3513 2838 3513 2113 
z
" transform="scale(0.015625)"/>
      <path id="DejaVuSans-64" d="M 2906 2969 
L 2906 4863 
L 3481 4863 
L 3481 0 
L 2906 0 
L 2906 525 
Q 2725 213 2448 61 
Q 2172 -91 1784 -91 
Q 1150 -91 751 415 
Q 353 922 353 1747 
Q 353 2572 751 3078 
Q 1150 3584 1784 3584 
Q 2172 3584 2448 3432 
Q 2725 3281 2906 2969 
z
M 947 1747 
Q 947 1113 1208 752 
Q 1469 391 1925 391 
Q 2381 391 2643 752 
Q 2906 1113 2906 1747 
Q 2906 2381 2643 2742 
Q 2381 3103 1925 3103 
Q 1469 3103 1208 2742 
Q 947 2381 947 1747 
z
" transform="scale(0.015625)"/>
      <path id="DejaVuSans-69" d="M 603 3500 
L 1178 3500 
L 1178 0 
L 603 0 
L 603 3500 
z
M 603 4863 
L 1178 4863 
L 1178 4134 
L 603 4134 
L 603 4863 
z
" transform="scale(0.015625)"/>
      <path id="DejaVuSans-74" d="M 1172 4494 
L 1172 3500 
L 2356 3500 
L 2356 3053 
L 1172 3053 
L 1172 1153 
Q 1172 725 1289 603 
Q 1406 481 1766 481 
L 2356 481 
L 2356 0 
L 1766 0 
Q 1100 0 847 248 
Q 594 497 594 1153 
L 594 3053 
L 172 3053 
L 172 3500 
L 594 3500 
L 594 4494 
L 1172 4494 
z
" transform="scale(0.015625)"/>
      <path id="DejaVuSans-75" d="M 544 1381 
L 544 3500 
L 1119 3500 
L 1119 1403 
Q 1119 906 1312 657 
Q 1506 409 1894 409 
Q 2359 409 2629 706 
Q 2900 1003 2900 1516 
L 2900 3500 
L 3475 3500 
L 3475 0 
L 2900 0 
L 2900 538 
Q 2691 219 2414 64 
Q 2138 -91 1772 -91 
Q 1169 -91 856 284 
Q 544 659 544 1381 
z
M 1991 3584 
L 1991 3584 
z
" transform="scale(0.015625)"/>
      <path id="DejaVuSans-72" d="M 2631 2963 
Q 2534 3019 2420 3045 
Q 2306 3072 2169 3072 
Q 1681 3072 1420 2755 
Q 1159 2438 1159 1844 
L 1159 0 
L 581 0 
L 581 3500 
L 1159 3500 
L 1159 2956 
Q 1341 3275 1631 3429 
Q 1922 3584 2338 3584 
Q 2397 3584 2469 3576 
Q 2541 3569 2628 3553 
L 2631 2963 
z
" transform="scale(0.015625)"/>
      <path id="DejaVuSans-73" d="M 2834 3397 
L 2834 2853 
Q 2591 2978 2328 3040 
Q 2066 3103 1784 3103 
Q 1356 3103 1142 2972 
Q 928 2841 928 2578 
Q 928 2378 1081 2264 
Q 1234 2150 1697 2047 
L 1894 2003 
Q 2506 1872 2764 1633 
Q 3022 1394 3022 966 
Q 3022 478 2636 193 
Q 2250 -91 1575 -91 
Q 1294 -91 989 -36 
Q 684 19 347 128 
L 347 722 
Q 666 556 975 473 
Q 1284 391 1588 391 
Q 1994 391 2212 530 
Q 2431 669 2431 922 
Q 2431 1156 2273 1281 
Q 2116 1406 1581 1522 
L 1381 1569 
Q 847 1681 609 1914 
Q 372 2147 372 2553 
Q 372 3047 722 3315 
Q 1072 3584 1716 3584 
Q 2034 3584 2315 3537 
Q 2597 3491 2834 3397 
z
" transform="scale(0.015625)"/>
      <path id="DejaVuSans-61" d="M 2194 1759 
Q 1497 1759 1228 1600 
Q 959 1441 959 1056 
Q 959 750 1161 570 
Q 1363 391 1709 391 
Q 2188 391 2477 730 
Q 2766 1069 2766 1631 
L 2766 1759 
L 2194 1759 
z
M 3341 1997 
L 3341 0 
L 2766 0 
L 2766 531 
Q 2569 213 2275 61 
Q 1981 -91 1556 -91 
Q 1019 -91 701 211 
Q 384 513 384 1019 
Q 384 1609 779 1909 
Q 1175 2209 1959 2209 
L 2766 2209 
L 2766 2266 
Q 2766 2663 2505 2880 
Q 2244 3097 1772 3097 
Q 1472 3097 1187 3025 
Q 903 2953 641 2809 
L 641 3341 
Q 956 3463 1253 3523 
Q 1550 3584 1831 3584 
Q 2591 3584 2966 3190 
Q 3341 2797 3341 1997 
z
" transform="scale(0.015625)"/>
      <path id="DejaVuSans-6d" d="M 3328 2828 
Q 3544 3216 3844 3400 
Q 4144 3584 4550 3584 
Q 5097 3584 5394 3201 
Q 5691 2819 5691 2113 
L 5691 0 
L 5113 0 
L 5113 2094 
Q 5113 2597 4934 2840 
Q 4756 3084 4391 3084 
Q 3944 3084 3684 2787 
Q 3425 2491 3425 1978 
L 3425 0 
L 2847 0 
L 2847 2094 
Q 2847 2600 2669 2842 
Q 2491 3084 2119 3084 
Q 1678 3084 1418 2786 
Q 1159 2488 1159 1978 
L 1159 0 
L 581 0 
L 581 3500 
L 1159 3500 
L 1159 2956 
Q 1356 3278 1631 3431 
Q 1906 3584 2284 3584 
Q 2666 3584 2933 3390 
Q 3200 3197 3328 2828 
z
" transform="scale(0.015625)"/>
      <path id="DejaVuSans-6b" d="M 581 4863 
L 1159 4863 
L 1159 1991 
L 2875 3500 
L 3609 3500 
L 1753 1863 
L 3688 0 
L 2938 0 
L 1159 1709 
L 1159 0 
L 581 0 
L 581 4863 
z
" transform="scale(0.015625)"/>
      <path id="DejaVuSans-63" d="M 3122 3366 
L 3122 2828 
Q 2878 2963 2633 3030 
Q 2388 3097 2138 3097 
Q 1578 3097 1268 2742 
Q 959 2388 959 1747 
Q 959 1106 1268 751 
Q 1578 397 2138 397 
Q 2388 397 2633 464 
Q 2878 531 3122 666 
L 3122 134 
Q 2881 22 2623 -34 
Q 2366 -91 2075 -91 
Q 1284 -91 818 406 
Q 353 903 353 1747 
Q 353 2603 823 3093 
Q 1294 3584 2113 3584 
Q 2378 3584 2631 3529 
Q 2884 3475 3122 3366 
z
" transform="scale(0.015625)"/>
     </defs>
     <use xlink:href="#DejaVuSans-4c"/>
     <use xlink:href="#DejaVuSans-65" x="53.962891"/>
     <use xlink:href="#DejaVuSans-76" x="115.486328"/>
     <use xlink:href="#DejaVuSans-65" x="174.666016"/>
     <use xlink:href="#DejaVuSans-6c" x="236.189453"/>
     <use xlink:href="#DejaVuSans-3a" x="263.972656"/>
     <use xlink:href="#DejaVuSans-20" x="297.664062"/>
     <use xlink:href="#DejaVuSans-47" x="329.451172"/>
     <use xlink:href="#DejaVuSans-44" x="406.941406"/>
     <use xlink:href="#DejaVuSans-50" x="483.943359"/>
     <use xlink:href="#DejaVuSans-20" x="544.246094"/>
     <use xlink:href="#DejaVuSans-45" x="576.033203"/>
     <use xlink:href="#DejaVuSans-78" x="639.216797"/>
     <use xlink:href="#DejaVuSans-70" x="698.396484"/>
     <use xlink:href="#DejaVuSans-65" x="761.873047"/>
     <use xlink:href="#DejaVuSans-6e" x="823.396484"/>
     <use xlink:href="#DejaVuSans-64" x="886.775391"/>
     <use xlink:href="#DejaVuSans-69" x="950.251953"/>
     <use xlink:href="#DejaVuSans-74" x="978.035156"/>
     <use xlink:href="#DejaVuSans-75" x="1017.244141"/>
     <use xlink:href="#DejaVuSans-72" x="1080.623047"/>
     <use xlink:href="#DejaVuSans-65" x="1119.486328"/>
     <use xlink:href="#DejaVuSans-20" x="1181.009766"/>
     <use xlink:href="#DejaVuSans-73" x="1212.796875"/>
     <use xlink:href="#DejaVuSans-69" x="1264.896484"/>
     <use xlink:href="#DejaVuSans-64" x="1292.679688"/>
     <use xlink:href="#DejaVuSans-65" x="1356.15625"/>
     <use xlink:href="#DejaVuSans-20" x="1417.679688"/>
     <use xlink:href="#DejaVuSans-61" x="1449.466797"/>
     <use xlink:href="#DejaVuSans-74" x="1510.746094"/>
     <use xlink:href="#DejaVuSans-20" x="1549.955078"/>
     <use xlink:href="#DejaVuSans-6d" x="1581.742188"/>
     <use xlink:href="#DejaVuSans-61" x="1679.154297"/>
     <use xlink:href="#DejaVuSans-72" x="1740.433594"/>
     <use xlink:href="#DejaVuSans-6b" x="1781.546875"/>
     <use xlink:href="#DejaVuSans-65" x="1835.832031"/>
     <use xlink:href="#DejaVuSans-74" x="1897.355469"/>
     <use xlink:href="#DejaVuSans-20" x="1936.564453"/>
     <use xlink:href="#DejaVuSans-70" x="1968.351562"/>
     <use xlink:href="#DejaVuSans-72" x="2031.828125"/>
     <use xlink:href="#DejaVuSans-69" x="2072.941406"/>
     <use xlink:href="#DejaVuSans-63" x="2100.724609"/>
     <use xlink:href="#DejaVuSans-65" x="2155.705078"/>
     <use xlink:href="#DejaVuSans-73" x="2217.228516"/>
    </g>
   </g>
   <g id="legend_1">
    <g id="patch_6">
     <path d="M 97 147.90875 
L 296.8625 147.90875 
Q 298.8625 147.90875 298.8625 145.90875 
L 298.8625 58.84 
Q 298.8625 56.84 296.8625 56.84 
L 97 56.84 
Q 95 56.84 95 58.84 
L 95 145.90875 
Q 95 147.90875 97 147.90875 
z
" style="fill: #ffffff; opacity: 0.8; stroke: #cccccc; stroke-linejoin: miter"/>
    </g>
    <g id="line2d_18">
     <path d="M 99 64.938437 
L 109 64.938437 
L 119 64.938437 
" style="fill: none; stroke: #1f77b4; stroke-width: 3; stroke-linecap: square"/>
    </g>
    <g id="text_13">
     <!-- Baseline -->
     <g transform="translate(127 68.438437) scale(0.1 -0.1)">
      <defs>
       <path id="DejaVuSans-42" d="M 1259 2228 
L 1259 519 
L 2272 519 
Q 2781 519 3026 730 
Q 3272 941 3272 1375 
Q 3272 1813 3026 2020 
Q 2781 2228 2272 2228 
L 1259 2228 
z
M 1259 4147 
L 1259 2741 
L 2194 2741 
Q 2656 2741 2882 2914 
Q 3109 3088 3109 3444 
Q 3109 3797 2882 3972 
Q 2656 4147 2194 4147 
L 1259 4147 
z
M 628 4666 
L 2241 4666 
Q 2963 4666 3353 4366 
Q 3744 4066 3744 3513 
Q 3744 3084 3544 2831 
Q 3344 2578 2956 2516 
Q 3422 2416 3680 2098 
Q 3938 1781 3938 1306 
Q 3938 681 3513 340 
Q 3088 0 2303 0 
L 628 0 
L 628 4666 
z
" transform="scale(0.015625)"/>
      </defs>
      <use xlink:href="#DejaVuSans-42"/>
      <use xlink:href="#DejaVuSans-61" x="68.603516"/>
      <use xlink:href="#DejaVuSans-73" x="129.882812"/>
      <use xlink:href="#DejaVuSans-65" x="181.982422"/>
      <use xlink:href="#DejaVuSans-6c" x="243.505859"/>
      <use xlink:href="#DejaVuSans-69" x="271.289062"/>
      <use xlink:href="#DejaVuSans-6e" x="299.072266"/>
      <use xlink:href="#DejaVuSans-65" x="362.451172"/>
     </g>
    </g>
    <g id="line2d_19">
     <path d="M 99 79.616562 
L 109 79.616562 
L 119 79.616562 
" style="fill: none; stroke: #ff7f0e; stroke-width: 3; stroke-linecap: square"/>
    </g>
    <g id="text_14">
     <!-- Coal, Oil and Gastax : 5 nominal -->
     <g transform="translate(127 83.116562) scale(0.1 -0.1)">
      <defs>
       <path id="DejaVuSans-43" d="M 4122 4306 
L 4122 3641 
Q 3803 3938 3442 4084 
Q 3081 4231 2675 4231 
Q 1875 4231 1450 3742 
Q 1025 3253 1025 2328 
Q 1025 1406 1450 917 
Q 1875 428 2675 428 
Q 3081 428 3442 575 
Q 3803 722 4122 1019 
L 4122 359 
Q 3791 134 3420 21 
Q 3050 -91 2638 -91 
Q 1578 -91 968 557 
Q 359 1206 359 2328 
Q 359 3453 968 4101 
Q 1578 4750 2638 4750 
Q 3056 4750 3426 4639 
Q 3797 4528 4122 4306 
z
" transform="scale(0.015625)"/>
       <path id="DejaVuSans-6f" d="M 1959 3097 
Q 1497 3097 1228 2736 
Q 959 2375 959 1747 
Q 959 1119 1226 758 
Q 1494 397 1959 397 
Q 2419 397 2687 759 
Q 2956 1122 2956 1747 
Q 2956 2369 2687 2733 
Q 2419 3097 1959 3097 
z
M 1959 3584 
Q 2709 3584 3137 3096 
Q 3566 2609 3566 1747 
Q 3566 888 3137 398 
Q 2709 -91 1959 -91 
Q 1206 -91 779 398 
Q 353 888 353 1747 
Q 353 2609 779 3096 
Q 1206 3584 1959 3584 
z
" transform="scale(0.015625)"/>
       <path id="DejaVuSans-4f" d="M 2522 4238 
Q 1834 4238 1429 3725 
Q 1025 3213 1025 2328 
Q 1025 1447 1429 934 
Q 1834 422 2522 422 
Q 3209 422 3611 934 
Q 4013 1447 4013 2328 
Q 4013 3213 3611 3725 
Q 3209 4238 2522 4238 
z
M 2522 4750 
Q 3503 4750 4090 4092 
Q 4678 3434 4678 2328 
Q 4678 1225 4090 567 
Q 3503 -91 2522 -91 
Q 1538 -91 948 565 
Q 359 1222 359 2328 
Q 359 3434 948 4092 
Q 1538 4750 2522 4750 
z
" transform="scale(0.015625)"/>
      </defs>
      <use xlink:href="#DejaVuSans-43"/>
      <use xlink:href="#DejaVuSans-6f" x="69.824219"/>
      <use xlink:href="#DejaVuSans-61" x="131.005859"/>
      <use xlink:href="#DejaVuSans-6c" x="192.285156"/>
      <use xlink:href="#DejaVuSans-2c" x="220.068359"/>
      <use xlink:href="#DejaVuSans-20" x="251.855469"/>
      <use xlink:href="#DejaVuSans-4f" x="283.642578"/>
      <use xlink:href="#DejaVuSans-69" x="362.353516"/>
      <use xlink:href="#DejaVuSans-6c" x="390.136719"/>
      <use xlink:href="#DejaVuSans-20" x="417.919922"/>
      <use xlink:href="#DejaVuSans-61" x="449.707031"/>
      <use xlink:href="#DejaVuSans-6e" x="510.986328"/>
      <use xlink:href="#DejaVuSans-64" x="574.365234"/>
      <use xlink:href="#DejaVuSans-20" x="637.841797"/>
      <use xlink:href="#DejaVuSans-47" x="669.628906"/>
      <use xlink:href="#DejaVuSans-61" x="747.119141"/>
      <use xlink:href="#DejaVuSans-73" x="808.398438"/>
      <use xlink:href="#DejaVuSans-74" x="860.498047"/>
      <use xlink:href="#DejaVuSans-61" x="899.707031"/>
      <use xlink:href="#DejaVuSans-78" x="960.986328"/>
      <use xlink:href="#DejaVuSans-20" x="1020.166016"/>
      <use xlink:href="#DejaVuSans-3a" x="1051.953125"/>
      <use xlink:href="#DejaVuSans-20" x="1085.644531"/>
      <use xlink:href="#DejaVuSans-35" x="1117.431641"/>
      <use xlink:href="#DejaVuSans-20" x="1181.054688"/>
      <use xlink:href="#DejaVuSans-6e" x="1212.841797"/>
      <use xlink:href="#DejaVuSans-6f" x="1276.220703"/>
      <use xlink:href="#DejaVuSans-6d" x="1337.402344"/>
      <use xlink:href="#DejaVuSans-69" x="1434.814453"/>
      <use xlink:href="#DejaVuSans-6e" x="1462.597656"/>
      <use xlink:href="#DejaVuSans-61" x="1525.976562"/>
      <use xlink:href="#DejaVuSans-6c" x="1587.255859"/>
     </g>
    </g>
    <g id="line2d_20">
     <path d="M 99 94.294687 
L 109 94.294687 
L 119 94.294687 
" style="fill: none; stroke: #2ca02c; stroke-width: 3; stroke-linecap: square"/>
    </g>
    <g id="text_15">
     <!-- Coal, Oil and Gastax : 10 nominal -->
     <g transform="translate(127 97.794687) scale(0.1 -0.1)">
      <use xlink:href="#DejaVuSans-43"/>
      <use xlink:href="#DejaVuSans-6f" x="69.824219"/>
      <use xlink:href="#DejaVuSans-61" x="131.005859"/>
      <use xlink:href="#DejaVuSans-6c" x="192.285156"/>
      <use xlink:href="#DejaVuSans-2c" x="220.068359"/>
      <use xlink:href="#DejaVuSans-20" x="251.855469"/>
      <use xlink:href="#DejaVuSans-4f" x="283.642578"/>
      <use xlink:href="#DejaVuSans-69" x="362.353516"/>
      <use xlink:href="#DejaVuSans-6c" x="390.136719"/>
      <use xlink:href="#DejaVuSans-20" x="417.919922"/>
      <use xlink:href="#DejaVuSans-61" x="449.707031"/>
      <use xlink:href="#DejaVuSans-6e" x="510.986328"/>
      <use xlink:href="#DejaVuSans-64" x="574.365234"/>
      <use xlink:href="#DejaVuSans-20" x="637.841797"/>
      <use xlink:href="#DejaVuSans-47" x="669.628906"/>
      <use xlink:href="#DejaVuSans-61" x="747.119141"/>
      <use xlink:href="#DejaVuSans-73" x="808.398438"/>
      <use xlink:href="#DejaVuSans-74" x="860.498047"/>
      <use xlink:href="#DejaVuSans-61" x="899.707031"/>
      <use xlink:href="#DejaVuSans-78" x="960.986328"/>
      <use xlink:href="#DejaVuSans-20" x="1020.166016"/>
      <use xlink:href="#DejaVuSans-3a" x="1051.953125"/>
      <use xlink:href="#DejaVuSans-20" x="1085.644531"/>
      <use xlink:href="#DejaVuSans-31" x="1117.431641"/>
      <use xlink:href="#DejaVuSans-30" x="1181.054688"/>
      <use xlink:href="#DejaVuSans-20" x="1244.677734"/>
      <use xlink:href="#DejaVuSans-6e" x="1276.464844"/>
      <use xlink:href="#DejaVuSans-6f" x="1339.84375"/>
      <use xlink:href="#DejaVuSans-6d" x="1401.025391"/>
      <use xlink:href="#DejaVuSans-69" x="1498.4375"/>
      <use xlink:href="#DejaVuSans-6e" x="1526.220703"/>
      <use xlink:href="#DejaVuSans-61" x="1589.599609"/>
      <use xlink:href="#DejaVuSans-6c" x="1650.878906"/>
     </g>
    </g>
    <g id="line2d_21">
     <path d="M 99 108.972812 
L 109 108.972812 
L 119 108.972812 
" style="fill: none; stroke: #d62728; stroke-width: 3; stroke-linecap: square"/>
    </g>
    <g id="text_16">
     <!-- Coal, Oil and Gastax : 15 nominal -->
     <g transform="translate(127 112.472812) scale(0.1 -0.1)">
      <use xlink:href="#DejaVuSans-43"/>
      <use xlink:href="#DejaVuSans-6f" x="69.824219"/>
      <use xlink:href="#DejaVuSans-61" x="131.005859"/>
      <use xlink:href="#DejaVuSans-6c" x="192.285156"/>
      <use xlink:href="#DejaVuSans-2c" x="220.068359"/>
      <use xlink:href="#DejaVuSans-20" x="251.855469"/>
      <use xlink:href="#DejaVuSans-4f" x="283.642578"/>
      <use xlink:href="#DejaVuSans-69" x="362.353516"/>
      <use xlink:href="#DejaVuSans-6c" x="390.136719"/>
      <use xlink:href="#DejaVuSans-20" x="417.919922"/>
      <use xlink:href="#DejaVuSans-61" x="449.707031"/>
      <use xlink:href="#DejaVuSans-6e" x="510.986328"/>
      <use xlink:href="#DejaVuSans-64" x="574.365234"/>
      <use xlink:href="#DejaVuSans-20" x="637.841797"/>
      <use xlink:href="#DejaVuSans-47" x="669.628906"/>
      <use xlink:href="#DejaVuSans-61" x="747.119141"/>
      <use xlink:href="#DejaVuSans-73" x="808.398438"/>
      <use xlink:href="#DejaVuSans-74" x="860.498047"/>
      <use xlink:href="#DejaVuSans-61" x="899.707031"/>
      <use xlink:href="#DejaVuSans-78" x="960.986328"/>
      <use xlink:href="#DejaVuSans-20" x="1020.166016"/>
      <use xlink:href="#DejaVuSans-3a" x="1051.953125"/>
      <use xlink:href="#DejaVuSans-20" x="1085.644531"/>
      <use xlink:href="#DejaVuSans-31" x="1117.431641"/>
      <use xlink:href="#DejaVuSans-35" x="1181.054688"/>
      <use xlink:href="#DejaVuSans-20" x="1244.677734"/>
      <use xlink:href="#DejaVuSans-6e" x="1276.464844"/>
      <use xlink:href="#DejaVuSans-6f" x="1339.84375"/>
      <use xlink:href="#DejaVuSans-6d" x="1401.025391"/>
      <use xlink:href="#DejaVuSans-69" x="1498.4375"/>
      <use xlink:href="#DejaVuSans-6e" x="1526.220703"/>
      <use xlink:href="#DejaVuSans-61" x="1589.599609"/>
      <use xlink:href="#DejaVuSans-6c" x="1650.878906"/>
     </g>
    </g>
    <g id="line2d_22">
     <path d="M 99 123.650937 
L 109 123.650937 
L 119 123.650937 
" style="fill: none; stroke: #9467bd; stroke-width: 3; stroke-linecap: square"/>
    </g>
    <g id="text_17">
     <!-- Coal, Oil and Gastax : 20 nominal -->
     <g transform="translate(127 127.150937) scale(0.1 -0.1)">
      <use xlink:href="#DejaVuSans-43"/>
      <use xlink:href="#DejaVuSans-6f" x="69.824219"/>
      <use xlink:href="#DejaVuSans-61" x="131.005859"/>
      <use xlink:href="#DejaVuSans-6c" x="192.285156"/>
      <use xlink:href="#DejaVuSans-2c" x="220.068359"/>
      <use xlink:href="#DejaVuSans-20" x="251.855469"/>
      <use xlink:href="#DejaVuSans-4f" x="283.642578"/>
      <use xlink:href="#DejaVuSans-69" x="362.353516"/>
      <use xlink:href="#DejaVuSans-6c" x="390.136719"/>
      <use xlink:href="#DejaVuSans-20" x="417.919922"/>
      <use xlink:href="#DejaVuSans-61" x="449.707031"/>
      <use xlink:href="#DejaVuSans-6e" x="510.986328"/>
      <use xlink:href="#DejaVuSans-64" x="574.365234"/>
      <use xlink:href="#DejaVuSans-20" x="637.841797"/>
      <use xlink:href="#DejaVuSans-47" x="669.628906"/>
      <use xlink:href="#DejaVuSans-61" x="747.119141"/>
      <use xlink:href="#DejaVuSans-73" x="808.398438"/>
      <use xlink:href="#DejaVuSans-74" x="860.498047"/>
      <use xlink:href="#DejaVuSans-61" x="899.707031"/>
      <use xlink:href="#DejaVuSans-78" x="960.986328"/>
      <use xlink:href="#DejaVuSans-20" x="1020.166016"/>
      <use xlink:href="#DejaVuSans-3a" x="1051.953125"/>
      <use xlink:href="#DejaVuSans-20" x="1085.644531"/>
      <use xlink:href="#DejaVuSans-32" x="1117.431641"/>
      <use xlink:href="#DejaVuSans-30" x="1181.054688"/>
      <use xlink:href="#DejaVuSans-20" x="1244.677734"/>
      <use xlink:href="#DejaVuSans-6e" x="1276.464844"/>
      <use xlink:href="#DejaVuSans-6f" x="1339.84375"/>
      <use xlink:href="#DejaVuSans-6d" x="1401.025391"/>
      <use xlink:href="#DejaVuSans-69" x="1498.4375"/>
      <use xlink:href="#DejaVuSans-6e" x="1526.220703"/>
      <use xlink:href="#DejaVuSans-61" x="1589.599609"/>
      <use xlink:href="#DejaVuSans-6c" x="1650.878906"/>
     </g>
    </g>
    <g id="line2d_23">
     <path d="M 99 138.329062 
L 109 138.329062 
L 119 138.329062 
" style="fill: none; stroke: #8c564b; stroke-width: 3; stroke-linecap: square"/>
    </g>
    <g id="text_18">
     <!-- Coal, Oil and Gastax : 25 nominal -->
     <g transform="translate(127 141.829062) scale(0.1 -0.1)">
      <use xlink:href="#DejaVuSans-43"/>
      <use xlink:href="#DejaVuSans-6f" x="69.824219"/>
      <use xlink:href="#DejaVuSans-61" x="131.005859"/>
      <use xlink:href="#DejaVuSans-6c" x="192.285156"/>
      <use xlink:href="#DejaVuSans-2c" x="220.068359"/>
      <use xlink:href="#DejaVuSans-20" x="251.855469"/>
      <use xlink:href="#DejaVuSans-4f" x="283.642578"/>
      <use xlink:href="#DejaVuSans-69" x="362.353516"/>
      <use xlink:href="#DejaVuSans-6c" x="390.136719"/>
      <use xlink:href="#DejaVuSans-20" x="417.919922"/>
      <use xlink:href="#DejaVuSans-61" x="449.707031"/>
      <use xlink:href="#DejaVuSans-6e" x="510.986328"/>
      <use xlink:href="#DejaVuSans-64" x="574.365234"/>
      <use xlink:href="#DejaVuSans-20" x="637.841797"/>
      <use xlink:href="#DejaVuSans-47" x="669.628906"/>
      <use xlink:href="#DejaVuSans-61" x="747.119141"/>
      <use xlink:href="#DejaVuSans-73" x="808.398438"/>
      <use xlink:href="#DejaVuSans-74" x="860.498047"/>
      <use xlink:href="#DejaVuSans-61" x="899.707031"/>
      <use xlink:href="#DejaVuSans-78" x="960.986328"/>
      <use xlink:href="#DejaVuSans-20" x="1020.166016"/>
      <use xlink:href="#DejaVuSans-3a" x="1051.953125"/>
      <use xlink:href="#DejaVuSans-20" x="1085.644531"/>
      <use xlink:href="#DejaVuSans-32" x="1117.431641"/>
      <use xlink:href="#DejaVuSans-35" x="1181.054688"/>
      <use xlink:href="#DejaVuSans-20" x="1244.677734"/>
      <use xlink:href="#DejaVuSans-6e" x="1276.464844"/>
      <use xlink:href="#DejaVuSans-6f" x="1339.84375"/>
      <use xlink:href="#DejaVuSans-6d" x="1401.025391"/>
      <use xlink:href="#DejaVuSans-69" x="1498.4375"/>
      <use xlink:href="#DejaVuSans-6e" x="1526.220703"/>
      <use xlink:href="#DejaVuSans-61" x="1589.599609"/>
      <use xlink:href="#DejaVuSans-6c" x="1650.878906"/>
     </g>
    </g>
   </g>
  </g>
 </g>
 <defs>
  <clipPath id="p699759d19c">
   <rect x="90" y="51.84" width="558" height="332.64"/>
  </clipPath>
 </defs>
</svg>
