<?xml version="1.0" encoding="UTF-8" standalone="no"?>
<!DOCTYPE svg PUBLIC "-//W3C//DTD SVG 1.1//EN"
 "http://www.w3.org/Graphics/SVG/1.1/DTD/svg11.dtd">
<!-- Generated by graphviz version 2.38.0 (20140413.2041)
 -->
<!-- Title: TD Pages: 1 -->
<svg width="1051pt" height="280pt"
 viewBox="0.00 0.00 1051.00 280.07" xmlns="http://www.w3.org/2000/svg" xmlns:xlink="http://www.w3.org/1999/xlink">
<g id="graph0" class="graph" transform="scale(1 1) rotate(0) translate(4 276.07)">
<title>TD</title>
<polygon fill="white" stroke="none" points="-4,4 -4,-276.07 1047,-276.07 1047,4 -4,4"/>
<text text-anchor="middle" x="521.5" y="-7.8" font-family="Times New Roman,serif" font-size="14.00">Model Structure</text>
<!-- ALFA -->
<g id="node1" class="node"><title>ALFA</title>
<g id="a_node1"><a xlink:title="ALFA&#10;Exogen">
<polygon fill="yellow" stroke="black" points="227.5,-169.07 173.5,-169.07 173.5,-133.07 227.5,-133.07 227.5,-169.07"/>
<text text-anchor="start" x="180.5" y="-146.87" font-family="Times New Roman,serif" font-size="14.00" fill="blue">ALFA:</text>
</a>
</g>
</g>
<!-- INCOME -->
<g id="node3" class="node"><title>INCOME</title>
<g id="a_node3"><a xlink:title="INCOME&#10;FRML &lt;&gt; INCOME &#160;&#160;&#160;&#160;&#160;&#160;&#160;&#160;&#160;= A &#160;* CAPITAL**ALFA * LABOR **(1&#45;ALFA) &#160;&#36;">
<polygon fill="#63b8ff" stroke="black" points="368,-196.07 298,-196.07 298,-160.07 368,-160.07 368,-196.07"/>
<text text-anchor="start" x="304" y="-173.87" font-family="Times New Roman,serif" font-size="14.00" fill="blue">INCOME:</text>
</a>
</g>
</g>
<!-- ALFA&#45;&gt;INCOME -->
<g id="edge9" class="edge"><title>ALFA&#45;&gt;INCOME</title>
<g id="a_edge9"><a xlink:href="bogus" xlink:title="NA">
<path fill="none" stroke="black" stroke-width="0.5" d="M227.595,-156.469C244.775,-160.023 267.703,-164.767 287.695,-168.903"/>
<polygon fill="black" stroke="black" stroke-width="0.5" points="287.034,-172.34 297.535,-170.939 288.452,-165.485 287.034,-172.34"/>
</a>
</g>
</g>
<!-- LABOR -->
<g id="node2" class="node"><title>LABOR</title>
<g id="a_node2"><a xlink:title="LABOR&#10;FRML &lt;&gt; LABOR=LABOR(&#45;1)+(LABOR_GROWTH * LABOR(&#45;1))&#36;">
<polygon fill="#63b8ff" stroke="black" points="232,-88.0697 169,-88.0697 169,-52.0697 232,-52.0697 232,-88.0697"/>
<text text-anchor="start" x="175.5" y="-65.8697" font-family="Times New Roman,serif" font-size="14.00" fill="blue">LABOR:</text>
</a>
</g>
</g>
<!-- LABOR&#45;&gt;INCOME -->
<g id="edge4" class="edge"><title>LABOR&#45;&gt;INCOME</title>
<g id="a_edge4"><a xlink:href="bogus" xlink:title="NA">
<path fill="none" stroke="black" stroke-width="0.5" d="M212.7,-88.3513C224.528,-106.367 244.673,-133.654 268,-151.07 274.112,-155.633 281.111,-159.589 288.185,-162.96"/>
<polygon fill="black" stroke="black" stroke-width="0.5" points="287.239,-166.368 297.802,-167.196 290.061,-159.962 287.239,-166.368"/>
</a>
</g>
</g>
<!-- CAPITAL_INTENSE -->
<g id="node5" class="node"><title>CAPITAL_INTENSE</title>
<g id="a_node5"><a xlink:title="CAPITAL_INTENSE&#10;FRML &lt;&gt; CAPITAL_INTENSE = CAPITAL/LABOR &#160;&#36;">
<polygon fill="#63b8ff" stroke="black" points="1036,-96.0697 896,-96.0697 896,-60.0697 1036,-60.0697 1036,-96.0697"/>
<text text-anchor="start" x="902" y="-73.8697" font-family="Times New Roman,serif" font-size="14.00" fill="blue">CAPITAL_INTENSE:</text>
</a>
</g>
</g>
<!-- LABOR&#45;&gt;CAPITAL_INTENSE -->
<g id="edge5" class="edge"><title>LABOR&#45;&gt;CAPITAL_INTENSE</title>
<g id="a_edge5"><a xlink:href="bogus" xlink:title="NA">
<path fill="none" stroke="black" stroke-width="0.5" d="M232.32,-55.3032C243.341,-50.6328 256.004,-45.9438 268,-43.0697 365.163,-19.791 392.087,-24.0697 492,-24.0697 492,-24.0697 492,-24.0697 666,-24.0697 744.325,-24.0697 832.379,-42.2362 892.527,-57.4956"/>
<polygon fill="black" stroke="black" stroke-width="0.5" points="891.749,-60.9094 902.306,-60.0134 893.495,-54.1305 891.749,-60.9094"/>
</a>
</g>
</g>
<!-- LABOR(&#45;1) -->
<g id="node12" class="node"><title>LABOR(&#45;1)</title>
<g id="a_node12"><a xlink:title="LABOR&#10;FRML &lt;&gt; LABOR=LABOR(&#45;1)+(LABOR_GROWTH * LABOR(&#45;1))&#36;">
<polygon fill="springgreen" stroke="black" points="398,-88.0697 268,-88.0697 268,-52.0697 398,-52.0697 398,-88.0697"/>
<text text-anchor="start" x="274" y="-65.8697" font-family="Times New Roman,serif" font-size="14.00" fill="blue">LABOR(&#45;1):LABOR</text>
</a>
</g>
</g>
<!-- LABOR&#45;&gt;LABOR(&#45;1) -->
<g id="edge2" class="edge"><title>LABOR&#45;&gt;LABOR(&#45;1)</title>
<g id="a_edge2"><a xlink:href="bogus" xlink:title="NA">
<path fill="none" stroke="black" stroke-width="0.5" d="M232.096,-64.2492C239.924,-63.7846 248.688,-63.4941 257.687,-63.3779"/>
<polygon fill="black" stroke="black" stroke-width="0.5" points="257.929,-66.8767 267.91,-63.3206 257.89,-59.8768 257.929,-66.8767"/>
</a>
</g>
</g>
<!-- CONSUMPTION -->
<g id="node9" class="node"><title>CONSUMPTION</title>
<g id="a_node9"><a xlink:title="CONSUMPTION&#10;FRML &lt;&gt; CONSUMPTION &#160;&#160;&#160;&#160;= (1&#45;SAVING_RATIO) &#160;* INCOME &#160;&#36;">
<polygon fill="#63b8ff" stroke="black" points="552,-142.07 434,-142.07 434,-106.07 552,-106.07 552,-142.07"/>
<text text-anchor="start" x="440" y="-119.87" font-family="Times New Roman,serif" font-size="14.00" fill="blue">CONSUMPTION:</text>
</a>
</g>
</g>
<!-- INCOME&#45;&gt;CONSUMPTION -->
<g id="edge14" class="edge"><title>INCOME&#45;&gt;CONSUMPTION</title>
<g id="a_edge14"><a xlink:href="bogus" xlink:title="NA">
<path fill="none" stroke="black" stroke-width="0.5" d="M368.284,-166.352C386.229,-160.219 408.763,-152.518 429.667,-145.373"/>
<polygon fill="black" stroke="black" stroke-width="0.5" points="430.804,-148.684 439.134,-142.138 428.54,-142.06 430.804,-148.684"/>
</a>
</g>
</g>
<!-- INVESTMENT -->
<g id="node13" class="node"><title>INVESTMENT</title>
<g id="a_node13"><a xlink:title="INVESTMENT&#10;FRML &lt;&gt; INVESTMENT &#160;&#160;&#160;&#160;&#160;= INCOME &#45; CONSUMPTION &#160;&#36;">
<polygon fill="#63b8ff" stroke="black" points="717,-180.07 613,-180.07 613,-144.07 717,-144.07 717,-180.07"/>
<text text-anchor="start" x="619" y="-157.87" font-family="Times New Roman,serif" font-size="14.00" fill="blue">INVESTMENT:</text>
</a>
</g>
</g>
<!-- INCOME&#45;&gt;INVESTMENT -->
<g id="edge15" class="edge"><title>INCOME&#45;&gt;INVESTMENT</title>
<g id="a_edge15"><a xlink:href="bogus" xlink:title="NA">
<path fill="none" stroke="black" stroke-width="0.5" d="M368.073,-176.418C423.365,-173.737 533.403,-168.402 602.605,-165.046"/>
<polygon fill="black" stroke="black" stroke-width="0.5" points="603.108,-168.526 612.927,-164.546 602.769,-161.534 603.108,-168.526"/>
</a>
</g>
</g>
<!-- CAPITAL -->
<g id="node4" class="node"><title>CAPITAL</title>
<g id="a_node4"><a xlink:title="CAPITAL&#10;FRML &lt;&gt; CAPITAL=CAPITAL(&#45;1)+(INVESTMENT&#45;DEPRECIATES_RATE * CAPITAL(&#45;1))&#36;">
<polygon fill="#63b8ff" stroke="black" points="853,-203.07 778,-203.07 778,-167.07 853,-167.07 853,-203.07"/>
<text text-anchor="start" x="784.5" y="-180.87" font-family="Times New Roman,serif" font-size="14.00" fill="blue">CAPITAL:</text>
</a>
</g>
</g>
<!-- CAPITAL&#45;&gt;INCOME -->
<g id="edge8" class="edge"><title>CAPITAL&#45;&gt;INCOME</title>
<g id="a_edge8"><a xlink:href="bogus" xlink:title="NA">
<path fill="none" stroke="black" stroke-width="0.5" d="M777.634,-187.498C766.217,-188.144 753.593,-188.75 742,-189.07 605.145,-192.842 570.761,-190.391 434,-184.07 415.872,-183.232 395.908,-182.08 378.617,-181.01"/>
<polygon fill="black" stroke="black" stroke-width="0.5" points="378.436,-177.491 368.236,-180.357 377.997,-184.478 378.436,-177.491"/>
</a>
</g>
</g>
<!-- CAPITAL&#45;&gt;CAPITAL_INTENSE -->
<g id="edge6" class="edge"><title>CAPITAL&#45;&gt;CAPITAL_INTENSE</title>
<g id="a_edge6"><a xlink:href="bogus" xlink:title="NA">
<path fill="none" stroke="black" stroke-width="0.5" d="M841.691,-166.919C866.332,-149.164 904.02,-122.008 931.244,-102.392"/>
<polygon fill="black" stroke="black" stroke-width="0.5" points="933.618,-104.995 939.685,-96.3098 929.526,-99.3161 933.618,-104.995"/>
</a>
</g>
</g>
<!-- CAPITAL(&#45;1) -->
<g id="node6" class="node"><title>CAPITAL(&#45;1)</title>
<g id="a_node6"><a xlink:title="CAPITAL&#10;FRML &lt;&gt; CAPITAL=CAPITAL(&#45;1)+(INVESTMENT&#45;DEPRECIATES_RATE * CAPITAL(&#45;1))&#36;">
<polygon fill="springgreen" stroke="black" points="1043,-203.07 889,-203.07 889,-167.07 1043,-167.07 1043,-203.07"/>
<text text-anchor="start" x="895" y="-180.87" font-family="Times New Roman,serif" font-size="14.00" fill="blue">CAPITAL(&#45;1):CAPITAL</text>
</a>
</g>
</g>
<!-- CAPITAL&#45;&gt;CAPITAL(&#45;1) -->
<g id="edge13" class="edge"><title>CAPITAL&#45;&gt;CAPITAL(&#45;1)</title>
<g id="a_edge13"><a xlink:href="bogus" xlink:title="NA">
<path fill="none" stroke="black" stroke-width="0.5" d="M853.208,-179.154C861.133,-178.769 869.833,-178.517 878.77,-178.398"/>
<polygon fill="black" stroke="black" stroke-width="0.5" points="878.96,-181.897 888.933,-178.321 878.907,-174.897 878.96,-181.897"/>
</a>
</g>
</g>
<!-- CAPITAL(&#45;1)&#45;&gt;CAPITAL -->
<g id="edge10" class="edge"><title>CAPITAL(&#45;1)&#45;&gt;CAPITAL</title>
<g id="a_edge10"><a xlink:href="bogus" xlink:title="NA">
<path fill="none" stroke="black" stroke-width="0.5" d="M888.933,-191.818C880.185,-191.801 871.469,-191.658 863.274,-191.391"/>
<polygon fill="black" stroke="black" stroke-width="0.5" points="863.341,-187.891 853.208,-190.985 863.059,-194.885 863.341,-187.891"/>
</a>
</g>
</g>
<!-- LABOR_GROWTH -->
<g id="node7" class="node"><title>LABOR_GROWTH</title>
<g id="a_node7"><a xlink:title="LABOR_GROWTH&#10;Exogen">
<polygon fill="yellow" stroke="black" points="133,-88.0697 0,-88.0697 0,-52.0697 133,-52.0697 133,-88.0697"/>
<text text-anchor="start" x="6.5" y="-65.8697" font-family="Times New Roman,serif" font-size="14.00" fill="blue">LABOR_GROWTH:</text>
</a>
</g>
</g>
<!-- LABOR_GROWTH&#45;&gt;LABOR -->
<g id="edge3" class="edge"><title>LABOR_GROWTH&#45;&gt;LABOR</title>
<g id="a_edge3"><a xlink:href="bogus" xlink:title="NA">
<path fill="none" stroke="black" stroke-width="0.5" d="M133.113,-70.0697C141.751,-70.0697 150.398,-70.0697 158.462,-70.0697"/>
<polygon fill="black" stroke="black" stroke-width="0.5" points="158.677,-73.5698 168.677,-70.0697 158.677,-66.5698 158.677,-73.5698"/>
</a>
</g>
</g>
<!-- SAVING_RATIO -->
<g id="node8" class="node"><title>SAVING_RATIO</title>
<g id="a_node8"><a xlink:title="SAVING_RATIO&#10;Exogen">
<polygon fill="yellow" stroke="black" points="392.5,-142.07 273.5,-142.07 273.5,-106.07 392.5,-106.07 392.5,-142.07"/>
<text text-anchor="start" x="280" y="-119.87" font-family="Times New Roman,serif" font-size="14.00" fill="blue">SAVING_RATIO:</text>
</a>
</g>
</g>
<!-- SAVING_RATIO&#45;&gt;CONSUMPTION -->
<g id="edge11" class="edge"><title>SAVING_RATIO&#45;&gt;CONSUMPTION</title>
<g id="a_edge11"><a xlink:href="bogus" xlink:title="NA">
<path fill="none" stroke="black" stroke-width="0.5" d="M392.833,-124.07C402.901,-124.07 413.437,-124.07 423.726,-124.07"/>
<polygon fill="black" stroke="black" stroke-width="0.5" points="423.906,-127.57 433.906,-124.07 423.906,-120.57 423.906,-127.57"/>
</a>
</g>
</g>
<!-- CONSUMPTION&#45;&gt;INVESTMENT -->
<g id="edge16" class="edge"><title>CONSUMPTION&#45;&gt;INVESTMENT</title>
<g id="a_edge16"><a xlink:href="bogus" xlink:title="NA">
<path fill="none" stroke="black" stroke-width="0.5" d="M552.029,-137.041C568.358,-140.691 586.169,-144.672 602.683,-148.364"/>
<polygon fill="black" stroke="black" stroke-width="0.5" points="602.251,-151.853 612.774,-150.619 603.778,-145.022 602.251,-151.853"/>
</a>
</g>
</g>
<!-- A -->
<g id="node10" class="node"><title>A</title>
<g id="a_node10"><a xlink:title="A&#10;Exogen">
<polygon fill="yellow" stroke="black" points="227.5,-223.07 173.5,-223.07 173.5,-187.07 227.5,-187.07 227.5,-223.07"/>
<text text-anchor="start" x="194.5" y="-200.87" font-family="Times New Roman,serif" font-size="14.00" fill="blue">A:</text>
</a>
</g>
</g>
<!-- A&#45;&gt;INCOME -->
<g id="edge12" class="edge"><title>A&#45;&gt;INCOME</title>
<g id="a_edge12"><a xlink:href="bogus" xlink:title="NA">
<path fill="none" stroke="black" stroke-width="0.5" d="M227.595,-199.671C244.775,-196.116 267.703,-191.373 287.695,-187.236"/>
<polygon fill="black" stroke="black" stroke-width="0.5" points="288.452,-190.654 297.535,-185.2 287.034,-183.799 288.452,-190.654"/>
</a>
</g>
</g>
<!-- DEPRECIATES_RATE -->
<g id="node11" class="node"><title>DEPRECIATES_RATE</title>
<g id="a_node11"><a xlink:title="DEPRECIATES_RATE&#10;Exogen">
<polygon fill="yellow" stroke="black" points="742,-272.07 588,-272.07 588,-236.07 742,-236.07 742,-272.07"/>
<text text-anchor="start" x="594" y="-249.87" font-family="Times New Roman,serif" font-size="14.00" fill="blue">DEPRECIATES_RATE:</text>
</a>
</g>
</g>
<!-- DEPRECIATES_RATE&#45;&gt;CAPITAL -->
<g id="edge1" class="edge"><title>DEPRECIATES_RATE&#45;&gt;CAPITAL</title>
<g id="a_edge1"><a xlink:href="bogus" xlink:title="NA">
<path fill="none" stroke="black" stroke-width="0.5" d="M710.447,-236C720.863,-231.587 731.874,-226.778 742,-222.07 751.613,-217.6 761.819,-212.572 771.444,-207.698"/>
<polygon fill="black" stroke="black" stroke-width="0.5" points="773.142,-210.76 780.455,-203.094 769.958,-204.527 773.142,-210.76"/>
</a>
</g>
</g>
<!-- LABOR(&#45;1)&#45;&gt;LABOR -->
<g id="edge17" class="edge"><title>LABOR(&#45;1)&#45;&gt;LABOR</title>
<g id="a_edge17"><a xlink:href="bogus" xlink:title="NA">
<path fill="none" stroke="black" stroke-width="0.5" d="M267.91,-76.8187C259.126,-76.8331 250.315,-76.6843 242.113,-76.3724"/>
<polygon fill="black" stroke="black" stroke-width="0.5" points="242.253,-72.8752 232.096,-75.8901 241.917,-79.8671 242.253,-72.8752"/>
</a>
</g>
</g>
<!-- INVESTMENT&#45;&gt;CAPITAL -->
<g id="edge7" class="edge"><title>INVESTMENT&#45;&gt;CAPITAL</title>
<g id="a_edge7"><a xlink:href="bogus" xlink:title="NA">
<path fill="none" stroke="black" stroke-width="0.5" d="M717.105,-169.985C733.485,-172.522 751.534,-175.317 767.599,-177.805"/>
<polygon fill="black" stroke="black" stroke-width="0.5" points="767.413,-181.318 777.831,-179.39 768.484,-174.401 767.413,-181.318"/>
</a>
</g>
</g>
</g>
</svg>
