<?xml version="1.0" encoding="UTF-8" standalone="no"?>
<!DOCTYPE svg PUBLIC "-//W3C//DTD SVG 1.1//EN"
 "http://www.w3.org/Graphics/SVG/1.1/DTD/svg11.dtd">
<!-- Generated by graphviz version 6.0.1 (0)
 -->
<!-- Title: TD Pages: 1 -->
<svg width="432pt" height="186pt"
 viewBox="0.00 0.00 432.00 185.73" xmlns="http://www.w3.org/2000/svg" xmlns:xlink="http://www.w3.org/1999/xlink">
<g id="graph0" class="graph" transform="scale(0.167767 0.167767) rotate(0) translate(4 1103.07)">
<title>TD</title>
<polygon fill="white" stroke="none" points="-4,4 -4,-1103.07 2571,-1103.07 2571,4 -4,4"/>
<text text-anchor="middle" x="1283.5" y="-7.8" font-family="Times New Roman,serif" font-size="14.00">PAKNECONPRVTKN</text>
<!-- PAKSMAGRFSNGKN -->
<g id="node1" class="node">
<title>PAKSMAGRFSNGKN</title>
<g id="a_node1"><a xlink:title="PAKSMAGRFSNGKN&#10;FRML &#160;&lt;&gt; PAKSMAGRFSNGKN = ((1+1.92407325889309)*(0.00246195499563977*PAKNECONPRVTKN+0*PAKNECONGOVTKN+0*PAKNEGDIFTOTKN+0.00130433854799597*PAKNEEXPGNFSKN+0.00497657560072267*PAKNEGDISTKBKN)&#45;1.14989260682794E&#45;05*PAKNEIMPGNFSKN&#45;2.46467171367829E&#45;07*PAKNYTAXNINDKN&#45;26993)/(1+0.506095544048804) $">
<polygon fill="#63b8ff" stroke="black" points="1519,-292.77 1374,-292.77 1374,-256.77 1519,-256.77 1519,-292.77"/>
<text text-anchor="start" x="1380.5" y="-270.57" font-family="Times New Roman,serif" font-size="14.00" fill="blue">PAKSMAGRFSNGKN:</text>
</a>
</g>
</g>
<!-- PAKNECONENGYXN -->
<g id="node2" class="node">
<title>PAKNECONENGYXN</title>
<g id="a_node2"><a xlink:title="Energy Consumption&#10;FRML &lt;Z,EXO&gt; PAKNECONENGYXN = (PAKNECONENGYXN(&#45;1)*EXP(&#45;PAKNECONENGYXN_A+ (((LOG(PAKNECONENGYGN))&#45;(LOG(PAKNECONENGYGN(&#45;1))))+0.0550557534575806*DUMH) )) * (1&#45;PAKNECONENGYXN_D)+ PAKNECONENGYXN_X*PAKNECONENGYXN_D &#160;$">
<polygon fill="#63b8ff" stroke="black" points="597.5,-277.77 335.5,-277.77 335.5,-241.77 597.5,-241.77 597.5,-277.77"/>
<text text-anchor="start" x="341.5" y="-255.57" font-family="Times New Roman,serif" font-size="14.00" fill="blue">PAKNECONENGYXN:Energy Consumption</text>
</a>
</g>
</g>
<!-- PAKNECONPRVTXN -->
<g id="node12" class="node">
<title>PAKNECONPRVTXN</title>
<g id="a_node12"><a xlink:title="Household demand&#10;FRML &#160;&lt;&gt; PAKNECONPRVTXN = ((PAKNECONENGYSH**PAKCESENGYCON)*PAKNECONENGYXN**(1&#45;PAKCESENGYCON)+(PAKNECONOTHRSH**PAKCESENGYCON)*PAKNECONOTHRXN**(1&#45;PAKCESENGYCON))**(1/(1&#45;PAKCESENGYCON)) $">
<polygon fill="#63b8ff" stroke="black" points="895,-250.77 647,-250.77 647,-214.77 895,-214.77 895,-250.77"/>
<text text-anchor="start" x="653" y="-228.57" font-family="Times New Roman,serif" font-size="14.00" fill="blue">PAKNECONPRVTXN:Household demand</text>
</a>
</g>
</g>
<!-- PAKNECONENGYXN&#45;&gt;PAKNECONPRVTXN -->
<g id="edge1" class="edge">
<title>PAKNECONENGYXN&#45;&gt;PAKNECONPRVTXN</title>
<g id="a_edge1"><a xlink:href="bogus" xlink:title=" PAKNECONENGYXN &#45;&gt; PAKNECONPRVTXN Min. att. 1% &#160;max: 29%">
<path fill="none" stroke="black" stroke-width="2.91" d="M597.54,-248.16C610.43,-247.01 623.53,-245.84 636.45,-244.69"/>
<polygon fill="black" stroke="black" stroke-width="2.91" points="637.12,-248.14 646.77,-243.77 636.5,-241.17 637.12,-248.14"/>
</a>
</g>
</g>
<!-- PAKFMLBLPOLYXN -->
<g id="node3" class="node">
<title>PAKFMLBLPOLYXN</title>
<g id="a_node3"><a xlink:title="Policy Rate&#10;FRML &lt;Z,EXO&gt; PAKFMLBLPOLYXN = (&#45;100*PAKFMLBLPOLYXN_A+100* (0.905129162122953*PAKFMLBLPOLYXN(&#45;1)/100+(1&#45;0.905129162122953)*(PAKMPPOLNATRXN/100+1.2*(((LOG(PAKNECONPRVTXN))&#45;(LOG(PAKNECONPRVTXN(&#45;1))))&#45;PAKINFLEXPT/100)+0.5*PAKNYGDPGAP_/100)) ) * (1&#45;PAKFMLBLPOLYXN_D)+ PAKFMLBLPOLYXN_X*PAKFMLBLPOLYXN_D &#160;$">
<polygon fill="#63b8ff" stroke="black" points="2240,-84.77 2035,-84.77 2035,-48.77 2240,-48.77 2240,-84.77"/>
<text text-anchor="start" x="2041.5" y="-62.57" font-family="Times New Roman,serif" font-size="14.00" fill="blue">PAKFMLBLPOLYXN:Policy Rate</text>
</a>
</g>
</g>
<!-- PAKNECONPRVTKN -->
<g id="node11" class="node">
<title>PAKNECONPRVTKN</title>
<g id="a_node11"><a xlink:title="Household Consumption&#10;FRML &lt;Z,EXO&gt; PAKNECONPRVTKN = (PAKNECONPRVTKN(&#45;1)*EXP(&#45;PAKNECONPRVTKN_A+ (&#45;0.2*(LOG(PAKNECONPRVTKN(&#45;1))&#45;LOG((PAKNYYWBTOTLCN(&#45;1)*(1&#45;PAKGGREVDRCTXN(&#45;1)/100))/PAKNECONPRVTXN(&#45;1)))+1*((LOG((PAKNYYWBTOTLCN*(1&#45;PAKGGREVDRCTXN/100))/PAKNECONPRVTXN))&#45;(LOG((PAKNYYWBTOTLCN(&#45;1)*(1&#45;PAKGGREVDRCTXN(&#45;1)/100))/PAKNECONPRVTXN(&#45;1))))+0.0303228629698929+0.0163839011059956*DURING_2010&#45;0.3*(PAKFMLBLPOLYXN/100&#45;((LOG(PAKNECONPRVTXN))&#45;(LOG(PAKNECONPRVTXN(&#45;1)))))) )) * (1&#45;PAKNECONPRVTKN_D)+ PAKNECONPRVTKN_X*PAKNECONPRVTKN_D &#160;$">
<polygon fill="red" stroke="black" points="1209,-481.77 931,-481.77 931,-445.77 1209,-445.77 1209,-481.77"/>
<text text-anchor="start" x="937" y="-459.57" font-family="Times New Roman,serif" font-size="14.00" fill="blue">PAKNECONPRVTKN:Household Consumption</text>
</a>
</g>
</g>
<!-- PAKFMLBLPOLYXN&#45;&gt;PAKNECONPRVTKN -->
<g id="edge27" class="edge">
<title>PAKFMLBLPOLYXN&#45;&gt;PAKNECONPRVTKN</title>
<g id="a_edge27"><a xlink:href="bogus" xlink:title=" PAKFMLBLPOLYXN &#45;&gt; PAKNECONPRVTKN Min. att. &#45;160% &#160;max: 20%">
<path fill="none" stroke="black" stroke-width="8" d="M2034.83,-62.95C1814.91,-55.54 1309.57,-43.43 1245,-85.77 1120.59,-167.34 1083.74,-362.27 1074.09,-435.4"/>
<polygon fill="black" stroke="black" stroke-width="8" points="1067.1,-434.88 1072.81,-445.67 1080.99,-436.62 1067.1,-434.88"/>
</a>
</g>
</g>
<!-- PAKSMENGTOTLKN -->
<g id="node4" class="node">
<title>PAKSMENGTOTLKN</title>
<g id="a_node4"><a xlink:title="PAKSMENGTOTLKN&#10;FRML &#160;&lt;&gt; PAKSMENGTOTLKN = ((1+1.65868473220397)*(0.0775261497897936*PAKNECONPRVTKN+0*PAKNECONGOVTKN+0*PAKNEGDIFTOTKN+0.0217448978257548*PAKNEEXPGNFSKN+0.0458991644104248*PAKNEGDISTKBKN)&#45;0.11894699850705*PAKNEIMPGNFSKN&#45;&#45;0.50579180838529*PAKNYTAXNINDKN&#45;0)/(1+5.65663938581514) $">
<polygon fill="#63b8ff" stroke="black" points="1519,-184.77 1374,-184.77 1374,-148.77 1519,-148.77 1519,-184.77"/>
<text text-anchor="start" x="1380.5" y="-162.57" font-family="Times New Roman,serif" font-size="14.00" fill="blue">PAKSMENGTOTLKN:</text>
</a>
</g>
</g>
<!-- PAKNECONENGYKN -->
<g id="node5" class="node">
<title>PAKNECONENGYKN</title>
<g id="a_node5"><a xlink:title="Energy Consumption&#10;FRML &#160;&lt;&gt; PAKNECONENGYKN = PAKNECONENGYSH**(PAKCESENGYCON)*(PAKNECONPRVTKN*(PAKNECONPRVTXN/PAKNECONENGYXN)**(PAKCESENGYCON)) $">
<polygon fill="#63b8ff" stroke="black" points="1577.5,-130.77 1315.5,-130.77 1315.5,-94.77 1577.5,-94.77 1577.5,-130.77"/>
<text text-anchor="start" x="1321.5" y="-108.57" font-family="Times New Roman,serif" font-size="14.00" fill="blue">PAKNECONENGYKN:Energy Consumption</text>
</a>
</g>
</g>
<!-- PAKNYWRTTOTLCN -->
<g id="node6" class="node">
<title>PAKNYWRTTOTLCN</title>
<g id="a_node6"><a xlink:title="Wages&#10;FRML &#160;&lt;&gt; PAKNYWRTTOTLCN = (PAKNYWBINFMSH**PAKINFCES*(PAKNYWRTINFMCN)**(1&#45;PAKINFCES)+PAKNYWBFORMSH**PAKINFCES*(PAKNYWRTFORMCN*(1+PAKGGREVDRCTXN/100))**(1&#45;PAKINFCES))**(1/(1&#45;PAKINFCES)) $">
<polygon fill="#63b8ff" stroke="black" points="1929,-878.77 1748,-878.77 1748,-842.77 1929,-842.77 1929,-878.77"/>
<text text-anchor="start" x="1754.5" y="-856.57" font-family="Times New Roman,serif" font-size="14.00" fill="blue">PAKNYWRTTOTLCN:Wages</text>
</a>
</g>
</g>
<!-- PAKLMEMPTOTLCN -->
<g id="node8" class="node">
<title>PAKLMEMPTOTLCN</title>
<g id="a_node8"><a xlink:title="Employment&#10;FRML &lt;Z,EXO&gt; PAKLMEMPTOTLCN = (PAKLMEMPTOTLCN(&#45;1)*EXP(&#45;PAKLMEMPTOTLCN_A+ (&#45;0.345624644563667*(LOG(PAKLMEMPTOTLCN(&#45;1))&#45;LOG(PAKLMEMPSTRLCN(&#45;1)))&#45;0.1*(((LOG(PAKNYWRTTOTLCN/PAKNYGDPFCSTXN))&#45;(LOG(PAKNYWRTTOTLCN(&#45;1)/PAKNYGDPFCSTXN(&#45;1))))&#45;((LOG(PAKNYGDPPOTLKN/PAKLMEMPSTRLCN))&#45;(LOG(PAKNYGDPPOTLKN(&#45;1)/PAKLMEMPSTRLCN(&#45;1)))))&#45;0.0011790007645121+((LOG(PAKLMEMPSTRLCN))&#45;(LOG(PAKLMEMPSTRLCN(&#45;1))))+0.175412878170024*PAKNYGDPGAP_/100+0.0369790799942338*DURING_2010) )) * (1&#45;PAKLMEMPTOTLCN_D)+ PAKLMEMPTOTLCN_X*PAKLMEMPTOTLCN_D &#160;$">
<polygon fill="#63b8ff" stroke="black" points="2246,-824.77 2029,-824.77 2029,-788.77 2246,-788.77 2246,-824.77"/>
<text text-anchor="start" x="2035.5" y="-802.57" font-family="Times New Roman,serif" font-size="14.00" fill="blue">PAKLMEMPTOTLCN:Employment</text>
</a>
</g>
</g>
<!-- PAKNYWRTTOTLCN&#45;&gt;PAKLMEMPTOTLCN -->
<g id="edge34" class="edge">
<title>PAKNYWRTTOTLCN&#45;&gt;PAKLMEMPTOTLCN</title>
<g id="a_edge34"><a xlink:href="bogus" xlink:title=" PAKNYWRTTOTLCN &#45;&gt; PAKLMEMPTOTLCN Min. att. &#45;1554% &#160;max: 236%">
<path fill="none" stroke="black" stroke-width="8" d="M1929.22,-845.17C1950.16,-841.48 1972.37,-837.52 1993,-833.77 2005.52,-831.49 2018.65,-829.07 2031.67,-826.64"/>
<polygon fill="black" stroke="black" stroke-width="8" points="2033.04,-833.51 2041.59,-824.79 2030.47,-819.74 2033.04,-833.51"/>
</a>
</g>
</g>
<!-- PAKNYYWBTOTLCN -->
<g id="node28" class="node">
<title>PAKNYYWBTOTLCN</title>
<g id="a_node28"><a xlink:title="Economy&#45;wide wage bill&#10;FRML &#160;&lt;&gt; PAKNYYWBTOTLCN = PAKNYWRTTOTLCN*PAKLMEMPTOTLCN $">
<polygon fill="#63b8ff" stroke="black" points="2567,-878.77 2282,-878.77 2282,-842.77 2567,-842.77 2567,-878.77"/>
<text text-anchor="start" x="2288.5" y="-856.57" font-family="Times New Roman,serif" font-size="14.00" fill="blue">PAKNYYWBTOTLCN:Economy&#45;wide wage bill</text>
</a>
</g>
</g>
<!-- PAKNYWRTTOTLCN&#45;&gt;PAKNYYWBTOTLCN -->
<g id="edge28" class="edge">
<title>PAKNYWRTTOTLCN&#45;&gt;PAKNYYWBTOTLCN</title>
<g id="a_edge28"><a xlink:href="bogus" xlink:title=" PAKNYWRTTOTLCN &#45;&gt; PAKNYYWBTOTLCN Min. att. 16% &#160;max: 106%">
<path fill="none" stroke="black" stroke-width="8" d="M1929.15,-860.77C2020.23,-860.77 2162.98,-860.77 2271.72,-860.77"/>
<polygon fill="black" stroke="black" stroke-width="8" points="2271.8,-867.77 2281.8,-860.77 2271.8,-853.77 2271.8,-867.77"/>
</a>
</g>
</g>
<!-- PAKNECONOTHRXN -->
<g id="node7" class="node">
<title>PAKNECONOTHRXN</title>
<g id="a_node7"><a xlink:title="Non&#45;Energy Consumption&#10;FRML &lt;Z,EXO&gt; PAKNECONOTHRXN = (PAKNECONOTHRXN(&#45;1)*EXP(&#45;PAKNECONOTHRXN_A+ (0.598859116610832*((LOG(PAKNYGDPFCSTXN))&#45;(LOG(PAKNYGDPFCSTXN(&#45;1))))+((PAKGGREVGNFSXN/100)&#45;(PAKGGREVGNFSXN(&#45;1)/100))+(1&#45;0.598859116610832)*((LOG(PAKNEIMPGNFSXN))&#45;(LOG(PAKNEIMPGNFSXN(&#45;1))))+0.2*PAKNYGDPGAP_/100) )) * (1&#45;PAKNECONOTHRXN_D)+ PAKNECONOTHRXN_X*PAKNECONOTHRXN_D &#160;$">
<polygon fill="#63b8ff" stroke="black" points="611,-223.77 322,-223.77 322,-187.77 611,-187.77 611,-223.77"/>
<text text-anchor="start" x="328.5" y="-201.57" font-family="Times New Roman,serif" font-size="14.00" fill="blue">PAKNECONOTHRXN:Non&#45;Energy Consumption</text>
</a>
</g>
</g>
<!-- PAKNECONOTHRXN&#45;&gt;PAKNECONPRVTXN -->
<g id="edge3" class="edge">
<title>PAKNECONOTHRXN&#45;&gt;PAKNECONPRVTXN</title>
<g id="a_edge3"><a xlink:href="bogus" xlink:title=" PAKNECONOTHRXN &#45;&gt; PAKNECONPRVTXN Min. att. 71% &#160;max: 99%">
<path fill="none" stroke="black" stroke-width="8" d="M611.22,-218.6C619.67,-219.35 628.16,-220.11 636.57,-220.86"/>
<polygon fill="black" stroke="black" stroke-width="8" points="636.2,-227.85 646.78,-221.77 637.44,-213.91 636.2,-227.85"/>
</a>
</g>
</g>
<!-- PAKLMEMPTOTLCN&#45;&gt;PAKNYYWBTOTLCN -->
<g id="edge26" class="edge">
<title>PAKLMEMPTOTLCN&#45;&gt;PAKNYYWBTOTLCN</title>
<g id="a_edge26"><a xlink:href="bogus" xlink:title=" PAKLMEMPTOTLCN &#45;&gt; PAKNYYWBTOTLCN Min. att. &#45;6% &#160;max: 84%">
<path fill="none" stroke="black" stroke-width="8" d="M2233.8,-824.82C2260.89,-829.96 2290.55,-835.58 2318.2,-840.82"/>
<polygon fill="black" stroke="black" stroke-width="8" points="2317.16,-847.74 2328.29,-842.73 2319.77,-833.99 2317.16,-847.74"/>
</a>
</g>
</g>
<!-- PAKNEIMPGNFSXN -->
<g id="node9" class="node">
<title>PAKNEIMPGNFSXN</title>
<g id="a_node9"><a xlink:title="Imports (G&amp;S)&#10;FRML &#160;&lt;&gt; PAKNEIMPGNFSXN = ((PAKNEIMPENGYSH**PAKCESENGYIMPT)*PAKNVENGNIMPXN**(1&#45;PAKCESENGYIMPT)+(PAKNEIMPOTHRSH**PAKCESENGYIMPT)*PAKNEIMPGSNEXN**(1&#45;PAKCESENGYIMPT))**(1/(1&#45;PAKCESENGYIMPT)) $">
<polygon fill="#63b8ff" stroke="black" points="254.5,-223.77 31.5,-223.77 31.5,-187.77 254.5,-187.77 254.5,-223.77"/>
<text text-anchor="start" x="38" y="-201.57" font-family="Times New Roman,serif" font-size="14.00" fill="blue">PAKNEIMPGNFSXN:Imports (G&amp;S)</text>
</a>
</g>
</g>
<!-- PAKNEIMPGNFSXN&#45;&gt;PAKNECONOTHRXN -->
<g id="edge2" class="edge">
<title>PAKNEIMPGNFSXN&#45;&gt;PAKNECONOTHRXN</title>
<g id="a_edge2"><a xlink:href="bogus" xlink:title=" PAKNEIMPGNFSXN &#45;&gt; PAKNECONOTHRXN Min. att. &#45;10% &#160;max: 114%">
<path fill="none" stroke="black" stroke-width="8" d="M254.64,-205.77C273.05,-205.77 292.43,-205.77 311.68,-205.77"/>
<polygon fill="black" stroke="black" stroke-width="8" points="311.72,-212.77 321.72,-205.77 311.72,-198.77 311.72,-212.77"/>
</a>
</g>
</g>
<!-- PAKNYGDPPOTLKN -->
<g id="node10" class="node">
<title>PAKNYGDPPOTLKN</title>
<g id="a_node10"><a xlink:title="Potential GDP&#10;FRML &#160;&lt;&gt; PAKNYGDPPOTLKN = PAKNYGDPTFP*(PAKLMEMPSTRLCN**PAKNYYWBTOTLCN_)*(PAKNEGDIKSTKKN(&#45;1)**(1&#45;PAKNYYWBTOTLCN_)) $">
<polygon fill="#63b8ff" stroke="black" points="1557,-778.77 1336,-778.77 1336,-742.77 1557,-742.77 1557,-778.77"/>
<text text-anchor="start" x="1342.5" y="-756.57" font-family="Times New Roman,serif" font-size="14.00" fill="blue">PAKNYGDPPOTLKN:Potential GDP</text>
</a>
</g>
</g>
<!-- PAKNYGDPPOTLKN&#45;&gt;PAKLMEMPTOTLCN -->
<g id="edge5" class="edge">
<title>PAKNYGDPPOTLKN&#45;&gt;PAKLMEMPTOTLCN</title>
<g id="a_edge5"><a xlink:href="bogus" xlink:title=" PAKNYGDPPOTLKN &#45;&gt; PAKLMEMPTOTLCN Min. att. &#45;92% &#160;max: 605%">
<path fill="none" stroke="black" stroke-width="8" d="M1557.04,-759.73C1667.44,-759.83 1842.54,-763.09 1993,-779.77 2008.96,-781.54 2025.81,-784.08 2042.13,-786.92"/>
<polygon fill="black" stroke="black" stroke-width="8" points="2041.14,-793.85 2052.21,-788.71 2043.6,-780.07 2041.14,-793.85"/>
</a>
</g>
</g>
<!-- PAKNYGDPGAP_ -->
<g id="node29" class="node">
<title>PAKNYGDPGAP_</title>
<g id="a_node29"><a xlink:title="Output Gap (% of Potential GDP)&#10;FRML &#160;&lt;&gt; PAKNYGDPGAP_ = ((PAKNYGDPMKTPKN/PAKNYGDPPOTLKN&#45;1)*100) $">
<polygon fill="#63b8ff" stroke="black" points="1993,-620.77 1684,-620.77 1684,-584.77 1993,-584.77 1993,-620.77"/>
<text text-anchor="start" x="1690.5" y="-598.57" font-family="Times New Roman,serif" font-size="14.00" fill="blue">PAKNYGDPGAP_:Output Gap (% of Potential GDP)</text>
</a>
</g>
</g>
<!-- PAKNYGDPPOTLKN&#45;&gt;PAKNYGDPGAP_ -->
<g id="edge33" class="edge">
<title>PAKNYGDPPOTLKN&#45;&gt;PAKNYGDPGAP_</title>
<g id="a_edge33"><a xlink:href="bogus" xlink:title=" PAKNYGDPPOTLKN &#45;&gt; PAKNYGDPGAP_ Min. att. &#45;129220% &#160;max: 79383%">
<path fill="none" stroke="black" stroke-width="8" d="M1557.01,-755.43C1587.22,-751.45 1619.5,-744.8 1648,-733.77 1712.23,-708.9 1775.79,-658.22 1810.52,-627.7"/>
<polygon fill="black" stroke="black" stroke-width="8" points="1815.49,-632.65 1818.3,-620.77 1806.18,-622.19 1815.49,-632.65"/>
</a>
</g>
</g>
<!-- PAKNECONPRVTKN&#45;&gt;PAKSMAGRFSNGKN -->
<g id="edge24" class="edge">
<title>PAKNECONPRVTKN&#45;&gt;PAKSMAGRFSNGKN</title>
<g id="a_edge24"><a xlink:href="bogus" xlink:title=" PAKNECONPRVTKN &#45;&gt; PAKSMAGRFSNGKN Min. att. &#45;29% &#160;max: 170%">
<path fill="none" stroke="black" stroke-width="8" d="M1084.14,-445.62C1110.34,-411 1172.8,-335.91 1245,-301.77 1281.57,-284.47 1325.81,-277.27 1363.43,-274.59"/>
<polygon fill="black" stroke="black" stroke-width="8" points="1364.3,-281.55 1373.85,-273.95 1363.44,-267.57 1364.3,-281.55"/>
</a>
</g>
</g>
<!-- PAKNECONPRVTKN&#45;&gt;PAKSMENGTOTLKN -->
<g id="edge7" class="edge">
<title>PAKNECONPRVTKN&#45;&gt;PAKSMENGTOTLKN</title>
<g id="a_edge7"><a xlink:href="bogus" xlink:title=" PAKNECONPRVTKN &#45;&gt; PAKSMENGTOTLKN Min. att. &#45;14% &#160;max: 2186%">
<path fill="none" stroke="black" stroke-width="8" d="M1076.73,-445.41C1093.42,-395.34 1147.1,-255.98 1245,-193.77 1279.83,-171.63 1324.93,-164.13 1363.53,-162.49"/>
<polygon fill="black" stroke="black" stroke-width="8" points="1363.92,-169.48 1373.71,-162.18 1363.5,-155.49 1363.92,-169.48"/>
</a>
</g>
</g>
<!-- PAKNECONPRVTKN&#45;&gt;PAKNECONENGYKN -->
<g id="edge20" class="edge">
<title>PAKNECONPRVTKN&#45;&gt;PAKNECONENGYKN</title>
<g id="a_edge20"><a xlink:href="bogus" xlink:title=" PAKNECONPRVTKN &#45;&gt; PAKNECONENGYKN Min. att. &#45;699% &#160;max: 3890%">
<path fill="none" stroke="black" stroke-width="8" d="M1074.7,-445.58C1087.21,-389.27 1133.48,-217.04 1245,-139.77 1262.9,-127.37 1283.89,-119.39 1305.43,-114.42"/>
<polygon fill="black" stroke="black" stroke-width="8" points="1307,-121.24 1315.35,-112.34 1304.13,-107.54 1307,-121.24"/>
</a>
</g>
</g>
<!-- PAKSMAGRFSTYKN -->
<g id="node13" class="node">
<title>PAKSMAGRFSTYKN</title>
<g id="a_node13"><a xlink:title="PAKSMAGRFSTYKN&#10;FRML &#160;&lt;&gt; PAKSMAGRFSTYKN = ((1+0.195965019358753)*(0.010131919293849*PAKNECONPRVTKN+0*PAKNECONGOVTKN+0*PAKNEGDIFTOTKN+0.000136733767007103*PAKNEEXPGNFSKN+0.0199955288980741*PAKNEGDISTKBKN)&#45;0.00076829563200478*PAKNEIMPGNFSKN&#45;0.00172030587371022*PAKNYTAXNINDKN&#45;65421)/(1+0.319587584852584) $">
<polygon fill="#63b8ff" stroke="black" points="1518.5,-1048.77 1374.5,-1048.77 1374.5,-1012.77 1518.5,-1012.77 1518.5,-1048.77"/>
<text text-anchor="start" x="1380.5" y="-1026.57" font-family="Times New Roman,serif" font-size="14.00" fill="blue">PAKSMAGRFSTYKN:</text>
</a>
</g>
</g>
<!-- PAKNECONPRVTKN&#45;&gt;PAKSMAGRFSTYKN -->
<g id="edge25" class="edge">
<title>PAKNECONPRVTKN&#45;&gt;PAKSMAGRFSTYKN</title>
<g id="a_edge25"><a xlink:href="bogus" xlink:title=" PAKNECONPRVTKN &#45;&gt; PAKSMAGRFSTYKN Min. att. 96% &#160;max: 371%">
<path fill="none" stroke="black" stroke-width="8" d="M1070.52,-481.87C1069.56,-559.05 1076.88,-863.18 1245,-1003.77 1277.54,-1030.98 1324,-1038.53 1364,-1038.9"/>
<polygon fill="black" stroke="black" stroke-width="8" points="1364.05,-1045.9 1374.02,-1038.85 1363.98,-1031.9 1364.05,-1045.9"/>
</a>
</g>
</g>
<!-- PAKSMSRVFINSKN -->
<g id="node14" class="node">
<title>PAKSMSRVFINSKN</title>
<g id="a_node14"><a xlink:title="PAKSMSRVFINSKN&#10;FRML &#160;&lt;&gt; PAKSMSRVFINSKN = ((1+1.04148314760779)*(0.0520379651885469*PAKNECONPRVTKN+0*PAKNECONGOVTKN+0*PAKNEGDIFTOTKN+0.00879145012359898*PAKNEEXPGNFSKN+0*PAKNEGDISTKBKN)&#45;0.00594416979264236*PAKNEIMPGNFSKN&#45;0.000103762679145856*PAKNYTAXNINDKN&#45;0)/(1+0.24687745523084) $">
<polygon fill="#63b8ff" stroke="black" points="1515,-994.77 1378,-994.77 1378,-958.77 1515,-958.77 1515,-994.77"/>
<text text-anchor="start" x="1384.5" y="-972.57" font-family="Times New Roman,serif" font-size="14.00" fill="blue">PAKSMSRVFINSKN:</text>
</a>
</g>
</g>
<!-- PAKNECONPRVTKN&#45;&gt;PAKSMSRVFINSKN -->
<g id="edge30" class="edge">
<title>PAKNECONPRVTKN&#45;&gt;PAKSMSRVFINSKN</title>
<g id="a_edge30"><a xlink:href="bogus" xlink:title=" PAKNECONPRVTKN &#45;&gt; PAKSMSRVFINSKN Min. att. &#45;104% &#160;max: 125%">
<path fill="none" stroke="black" stroke-width="8" d="M1071.25,-482.04C1073.31,-554.73 1091.4,-825.45 1245,-949.77 1278.85,-977.17 1326.95,-984.36 1367.55,-984.49"/>
<polygon fill="black" stroke="black" stroke-width="8" points="1367.77,-991.49 1377.69,-984.38 1367.62,-977.49 1367.77,-991.49"/>
</a>
</g>
</g>
<!-- PAKNECONPRVTKN_FITTED -->
<g id="node16" class="node">
<title>PAKNECONPRVTKN_FITTED</title>
<g id="a_node16"><a xlink:title="Fitted &#160;value:Household Consumption&#10;FRML &lt;FIT&gt; PAKNECONPRVTKN_FITTED = PAKNECONPRVTKN(&#45;1)*EXP( (&#45;0.2*(LOG(PAKNECONPRVTKN(&#45;1))&#45;LOG((PAKNYYWBTOTLCN(&#45;1)*(1&#45;PAKGGREVDRCTXN(&#45;1)/100))/PAKNECONPRVTXN(&#45;1)))+1*((LOG((PAKNYYWBTOTLCN*(1&#45;PAKGGREVDRCTXN/100))/PAKNECONPRVTXN))&#45;(LOG((PAKNYYWBTOTLCN(&#45;1)*(1&#45;PAKGGREVDRCTXN(&#45;1)/100))/PAKNECONPRVTXN(&#45;1))))+0.0303228629698929+0.0163839011059956*DURING_2010&#45;0.3*(PAKFMLBLPOLYXN/100&#45;((LOG(PAKNECONPRVTXN))&#45;(LOG(PAKNECONPRVTXN(&#45;1)))))) ) $">
<polygon fill="#63b8ff" stroke="black" points="1648,-940.77 1245,-940.77 1245,-904.77 1648,-904.77 1648,-940.77"/>
<text text-anchor="start" x="1251.5" y="-918.57" font-family="Times New Roman,serif" font-size="14.00" fill="blue">PAKNECONPRVTKN_FITTED:Fitted &#160;value:Household Consumption</text>
</a>
</g>
</g>
<!-- PAKNECONPRVTKN&#45;&gt;PAKNECONPRVTKN_FITTED -->
<g id="edge10" class="edge">
<title>PAKNECONPRVTKN&#45;&gt;PAKNECONPRVTKN_FITTED</title>
<g id="a_edge10"><a xlink:href="bogus" xlink:title=" PAKNECONPRVTKN &#45;&gt; PAKNECONPRVTKN_FITTED Min. att. &#45;786% &#160;max: 175%">
<path fill="none" stroke="black" stroke-width="8" d="M1072.13,-481.88C1077.38,-549.29 1105.53,-787.33 1245,-895.77 1246.43,-896.88 1247.88,-897.96 1249.36,-899"/>
<polygon fill="black" stroke="black" stroke-width="8" points="1245.84,-905.07 1258.04,-904.63 1253.46,-893.32 1245.84,-905.07"/>
</a>
</g>
</g>
<!-- PAKNEGDETTOTKN -->
<g id="node17" class="node">
<title>PAKNEGDETTOTKN</title>
<g id="a_node17"><a xlink:title="GDE&#10;FRML &#160;&lt;&gt; PAKNEGDETTOTKN = (PAKNECONPRVTKN+PAKNECONGOVTKN+PAKNEGDIFTOTKN+PAKNEGDISTKBKN+PAKNYGDPDISCKN) $">
<polygon fill="#63b8ff" stroke="black" points="1531.5,-724.77 1361.5,-724.77 1361.5,-688.77 1531.5,-688.77 1531.5,-724.77"/>
<text text-anchor="start" x="1367.5" y="-702.57" font-family="Times New Roman,serif" font-size="14.00" fill="blue">PAKNEGDETTOTKN:GDE</text>
</a>
</g>
</g>
<!-- PAKNECONPRVTKN&#45;&gt;PAKNEGDETTOTKN -->
<g id="edge31" class="edge">
<title>PAKNECONPRVTKN&#45;&gt;PAKNEGDETTOTKN</title>
<g id="a_edge31"><a xlink:href="bogus" xlink:title=" PAKNECONPRVTKN &#45;&gt; PAKNEGDETTOTKN Min. att. &#45;2284% &#160;max: 2484%">
<path fill="none" stroke="black" stroke-width="8" d="M1079.49,-481.85C1100.62,-524.6 1160.05,-631.89 1245,-679.77 1276.75,-697.66 1315.7,-705.49 1350.79,-708.46"/>
<polygon fill="black" stroke="black" stroke-width="8" points="1350.58,-715.47 1361.06,-709.21 1351.6,-701.5 1350.58,-715.47"/>
</a>
</g>
</g>
<!-- PAKSMSRVHSNGKN -->
<g id="node18" class="node">
<title>PAKSMSRVHSNGKN</title>
<g id="a_node18"><a xlink:title="PAKSMSRVHSNGKN&#10;FRML &#160;&lt;&gt; PAKSMSRVHSNGKN = ((1+0.782809577554843)*(0.0647364660896117*PAKNECONPRVTKN+0*PAKNECONGOVTKN+0.00605333595533851*PAKNEGDIFTOTKN+0.03048358523237*PAKNEEXPGNFSKN+0*PAKNEGDISTKBKN)&#45;0.0244768173208691*PAKNEIMPGNFSKN&#45;0.0684093628903126*PAKNYTAXNINDKN&#45;0)/(1+0.150771193398883) $">
<polygon fill="#63b8ff" stroke="black" points="1519,-670.77 1374,-670.77 1374,-634.77 1519,-634.77 1519,-670.77"/>
<text text-anchor="start" x="1380.5" y="-648.57" font-family="Times New Roman,serif" font-size="14.00" fill="blue">PAKSMSRVHSNGKN:</text>
</a>
</g>
</g>
<!-- PAKNECONPRVTKN&#45;&gt;PAKSMSRVHSNGKN -->
<g id="edge12" class="edge">
<title>PAKNECONPRVTKN&#45;&gt;PAKSMSRVHSNGKN</title>
<g id="a_edge12"><a xlink:href="bogus" xlink:title=" PAKNECONPRVTKN &#45;&gt; PAKSMSRVHSNGKN Min. att. 34% &#160;max: 147%">
<path fill="none" stroke="black" stroke-width="8" d="M1084.14,-481.91C1110.34,-516.54 1172.8,-591.62 1245,-625.77 1281.57,-643.06 1325.81,-650.26 1363.43,-652.95"/>
<polygon fill="black" stroke="black" stroke-width="8" points="1363.44,-659.96 1373.85,-653.59 1364.3,-645.99 1363.44,-659.96"/>
</a>
</g>
</g>
<!-- PAKNECONOTHRKN -->
<g id="node19" class="node">
<title>PAKNECONOTHRKN</title>
<g id="a_node19"><a xlink:title="Other Consumption&#10;FRML &#160;&lt;&gt; PAKNECONOTHRKN = PAKNECONOTHRSH**(PAKCESENGYCON)*(PAKNECONPRVTKN*(PAKNECONPRVTXN/PAKNECONOTHRXN)**(PAKCESENGYCON)) $">
<polygon fill="#63b8ff" stroke="black" points="1573,-616.77 1320,-616.77 1320,-580.77 1573,-580.77 1573,-616.77"/>
<text text-anchor="start" x="1326.5" y="-594.57" font-family="Times New Roman,serif" font-size="14.00" fill="blue">PAKNECONOTHRKN:Other Consumption</text>
</a>
</g>
</g>
<!-- PAKNECONPRVTKN&#45;&gt;PAKNECONOTHRKN -->
<g id="edge17" class="edge">
<title>PAKNECONPRVTKN&#45;&gt;PAKNECONOTHRKN</title>
<g id="a_edge17"><a xlink:href="bogus" xlink:title=" PAKNECONPRVTKN &#45;&gt; PAKNECONOTHRKN Min. att. &#45;12063% &#160;max: 323%">
<path fill="none" stroke="black" stroke-width="8" d="M1093.03,-481.78C1124.58,-506.52 1185.44,-550.38 1245,-571.77 1265.43,-579.1 1287.67,-584.47 1309.67,-588.39"/>
<polygon fill="black" stroke="black" stroke-width="8" points="1308.72,-595.33 1319.75,-590.09 1311.05,-581.52 1308.72,-595.33"/>
</a>
</g>
</g>
<!-- PAKSMINDMNGSKN -->
<g id="node21" class="node">
<title>PAKSMINDMNGSKN</title>
<g id="a_node21"><a xlink:title="PAKSMINDMNGSKN&#10;FRML &#160;&lt;&gt; PAKSMINDMNGSKN = ((1+6.96158341862144)*(0.0132800565666619*PAKNECONPRVTKN+0*PAKNECONGOVTKN+0*PAKNEGDIFTOTKN+0.00704674623894759*PAKNEEXPGNFSKN+0.024122890632682*PAKNEGDISTKBKN)&#45;0.134221966110302*PAKNEIMPGNFSKN&#45;0.500981557895139*PAKNYTAXNINDKN&#45;123652.869264758)/(1+0.200800622280983) $">
<polygon fill="#63b8ff" stroke="black" points="1519.5,-562.77 1373.5,-562.77 1373.5,-526.77 1519.5,-526.77 1519.5,-562.77"/>
<text text-anchor="start" x="1379.5" y="-540.57" font-family="Times New Roman,serif" font-size="14.00" fill="blue">PAKSMINDMNGSKN:</text>
</a>
</g>
</g>
<!-- PAKNECONPRVTKN&#45;&gt;PAKSMINDMNGSKN -->
<g id="edge16" class="edge">
<title>PAKNECONPRVTKN&#45;&gt;PAKSMINDMNGSKN</title>
<g id="a_edge16"><a xlink:href="bogus" xlink:title=" PAKNECONPRVTKN &#45;&gt; PAKSMINDMNGSKN Min. att. &#45;1229% &#160;max: 1716%">
<path fill="none" stroke="black" stroke-width="8" d="M1121.41,-481.87C1155.83,-493.61 1202.69,-508.42 1245,-517.77 1283.4,-526.25 1326.57,-532.48 1362.99,-536.8"/>
<polygon fill="black" stroke="black" stroke-width="8" points="1362.33,-543.77 1373.07,-537.97 1363.94,-529.86 1362.33,-543.77"/>
</a>
</g>
</g>
<!-- PAKSMSRVTRNSKN -->
<g id="node22" class="node">
<title>PAKSMSRVTRNSKN</title>
<g id="a_node22"><a xlink:title="PAKSMSRVTRNSKN&#10;FRML &#160;&lt;&gt; PAKSMSRVTRNSKN = ((1+0.301074862860981)*(0.204687752761289*PAKNECONPRVTKN+0*PAKNECONGOVTKN+0*PAKNEGDIFTOTKN+0.0551862611209703*PAKNEEXPGNFSKN+0*PAKNEGDISTKBKN)&#45;&#45;0.0392641863572605*PAKNEIMPGNFSKN&#45;0.0174996684619017*PAKNYTAXNINDKN&#45;0)/(1+1.11680986862739) $">
<polygon fill="#63b8ff" stroke="black" points="1517.5,-454.77 1375.5,-454.77 1375.5,-418.77 1517.5,-418.77 1517.5,-454.77"/>
<text text-anchor="start" x="1381.5" y="-432.57" font-family="Times New Roman,serif" font-size="14.00" fill="blue">PAKSMSRVTRNSKN:</text>
</a>
</g>
</g>
<!-- PAKNECONPRVTKN&#45;&gt;PAKSMSRVTRNSKN -->
<g id="edge8" class="edge">
<title>PAKNECONPRVTKN&#45;&gt;PAKSMSRVTRNSKN</title>
<g id="a_edge8"><a xlink:href="bogus" xlink:title=" PAKNECONPRVTKN &#45;&gt; PAKSMSRVTRNSKN Min. att. 87% &#160;max: 592%">
<path fill="none" stroke="black" stroke-width="8" d="M1209.12,-453.81C1261.74,-450.02 1319.92,-445.82 1365.4,-442.54"/>
<polygon fill="black" stroke="black" stroke-width="8" points="1366.02,-449.52 1375.49,-441.81 1365.02,-435.55 1366.02,-449.52"/>
</a>
</g>
</g>
<!-- PAKNYGDPMKTPKN -->
<g id="node23" class="node">
<title>PAKNYGDPMKTPKN</title>
<g id="a_node23"><a xlink:title="GDP Expenditure side at market prices&#10;FRML &#160;&lt;&gt; PAKNYGDPMKTPKN = PAKNECONPRVTKN+PAKNECONGOVTKN+PAKNEGDIFTOTKN+PAKNEGDISTKBKN+PAKNEEXPGNFSKN&#45;PAKNEIMPGNFSKN+PAKNYGDPDISCKN+PAKADAP*PAKDISPREPKN $">
<polygon fill="#63b8ff" stroke="black" points="1627,-508.77 1266,-508.77 1266,-472.77 1627,-472.77 1627,-508.77"/>
<text text-anchor="start" x="1272.5" y="-486.57" font-family="Times New Roman,serif" font-size="14.00" fill="blue">PAKNYGDPMKTPKN:GDP Expenditure side at market prices</text>
</a>
</g>
</g>
<!-- PAKNECONPRVTKN&#45;&gt;PAKNYGDPMKTPKN -->
<g id="edge9" class="edge">
<title>PAKNECONPRVTKN&#45;&gt;PAKNYGDPMKTPKN</title>
<g id="a_edge9"><a xlink:href="bogus" xlink:title=" PAKNECONPRVTKN &#45;&gt; PAKNYGDPMKTPKN Min. att. &#45;1557% &#160;max: 290%">
<path fill="none" stroke="black" stroke-width="8" d="M1209.12,-473.73C1224.25,-474.82 1239.85,-475.94 1255.47,-477.07"/>
<polygon fill="black" stroke="black" stroke-width="8" points="1255.26,-484.07 1265.73,-477.81 1256.26,-470.11 1255.26,-484.07"/>
</a>
</g>
</g>
<!-- PAKSMINDOTHRTKN -->
<g id="node24" class="node">
<title>PAKSMINDOTHRTKN</title>
<g id="a_node24"><a xlink:title="PAKSMINDOTHRTKN&#10;FRML &#160;&lt;&gt; PAKSMINDOTHRTKN = ((1+0.483473985412524)*(0.40172973397176*PAKNECONPRVTKN+0*PAKNECONGOVTKN+0.560459287907094*PAKNEGDIFTOTKN+0.719299486591763*PAKNEEXPGNFSKN+0.620970563578771*PAKNEGDISTKBKN)&#45;0.606734386430279*PAKNEIMPGNFSKN&#45;0.866045585295928*PAKNYTAXNINDKN&#45;2983275.63714814)/(1+2.46379868577176) $">
<polygon fill="#63b8ff" stroke="black" points="1522,-400.77 1371,-400.77 1371,-364.77 1522,-364.77 1522,-400.77"/>
<text text-anchor="start" x="1377.5" y="-378.57" font-family="Times New Roman,serif" font-size="14.00" fill="blue">PAKSMINDOTHRTKN:</text>
</a>
</g>
</g>
<!-- PAKNECONPRVTKN&#45;&gt;PAKSMINDOTHRTKN -->
<g id="edge13" class="edge">
<title>PAKNECONPRVTKN&#45;&gt;PAKSMINDOTHRTKN</title>
<g id="a_edge13"><a xlink:href="bogus" xlink:title=" PAKNECONPRVTKN &#45;&gt; PAKSMINDOTHRTKN Min. att. &#45;11779% &#160;max: 971%">
<path fill="none" stroke="black" stroke-width="8" d="M1121.41,-445.67C1155.83,-433.92 1202.69,-419.11 1245,-409.77 1282.62,-401.46 1324.81,-395.31 1360.75,-391"/>
<polygon fill="black" stroke="black" stroke-width="8" points="1361.59,-397.95 1370.71,-389.84 1359.96,-384.05 1361.59,-397.95"/>
</a>
</g>
</g>
<!-- PAKNECONPRVTCN -->
<g id="node27" class="node">
<title>PAKNECONPRVTCN</title>
<g id="a_node27"><a xlink:title="Household demand&#10;FRML &#160;&lt;&gt; PAKNECONPRVTCN = PAKNECONPRVTKN*PAKNECONPRVTXN $">
<polygon fill="#63b8ff" stroke="black" points="1570,-346.77 1323,-346.77 1323,-310.77 1570,-310.77 1570,-346.77"/>
<text text-anchor="start" x="1329.5" y="-324.57" font-family="Times New Roman,serif" font-size="14.00" fill="blue">PAKNECONPRVTCN:Household demand</text>
</a>
</g>
</g>
<!-- PAKNECONPRVTKN&#45;&gt;PAKNECONPRVTCN -->
<g id="edge18" class="edge">
<title>PAKNECONPRVTKN&#45;&gt;PAKNECONPRVTCN</title>
<g id="a_edge18"><a xlink:href="bogus" xlink:title=" PAKNECONPRVTKN &#45;&gt; PAKNECONPRVTCN Min. att. &#45;720% &#160;max: 6450%">
<path fill="none" stroke="black" stroke-width="8" d="M1093.03,-445.75C1124.58,-421.01 1185.44,-377.15 1245,-355.77 1266.38,-348.09 1289.76,-342.57 1312.75,-338.61"/>
<polygon fill="black" stroke="black" stroke-width="8" points="1314.19,-345.47 1322.93,-336.95 1311.93,-331.65 1314.19,-345.47"/>
</a>
</g>
</g>
<!-- PAKSMAGRCRPSKN -->
<g id="node30" class="node">
<title>PAKSMAGRCRPSKN</title>
<g id="a_node30"><a xlink:title="PAKSMAGRCRPSKN&#10;FRML &#160;&lt;&gt; PAKSMAGRCRPSKN = ((1+2.09928590574241)*(0.144287620838506*PAKNECONPRVTKN+0*PAKNECONGOVTKN+0*PAKNEGDIFTOTKN+0.0572678299039023*PAKNEEXPGNFSKN+0.267381669083985*PAKNEGDISTKBKN)&#45;0.0736247088197363*PAKNEIMPGNFSKN&#45;0.0407034395686347*PAKNYTAXNINDKN&#45;906311)/(1+0.396041694659877) $">
<polygon fill="#63b8ff" stroke="black" points="1518.5,-238.77 1374.5,-238.77 1374.5,-202.77 1518.5,-202.77 1518.5,-238.77"/>
<text text-anchor="start" x="1380.5" y="-216.57" font-family="Times New Roman,serif" font-size="14.00" fill="blue">PAKSMAGRCRPSKN:</text>
</a>
</g>
</g>
<!-- PAKNECONPRVTKN&#45;&gt;PAKSMAGRCRPSKN -->
<g id="edge22" class="edge">
<title>PAKNECONPRVTKN&#45;&gt;PAKSMAGRCRPSKN</title>
<g id="a_edge22"><a xlink:href="bogus" xlink:title=" PAKNECONPRVTKN &#45;&gt; PAKSMAGRCRPSKN Min. att. &#45;25% &#160;max: 208%">
<path fill="none" stroke="black" stroke-width="8" d="M1079.49,-445.68C1100.62,-402.93 1160.05,-295.65 1245,-247.77 1280.81,-227.58 1325.79,-220.21 1364.06,-218.15"/>
<polygon fill="black" stroke="black" stroke-width="8" points="1364.46,-225.14 1374.15,-217.73 1363.86,-211.16 1364.46,-225.14"/>
</a>
</g>
</g>
<!-- PAKNECONPRVTXN&#45;&gt;PAKFMLBLPOLYXN -->
<g id="edge21" class="edge">
<title>PAKNECONPRVTXN&#45;&gt;PAKFMLBLPOLYXN</title>
<g id="a_edge21"><a xlink:href="bogus" xlink:title=" PAKNECONPRVTXN &#45;&gt; PAKFMLBLPOLYXN Min. att. &#45;94% &#160;max: 1462%">
<path fill="none" stroke="black" stroke-width="8" d="M806.03,-214.72C882.09,-175.53 1072.73,-83.6 1245,-51.77 1521.66,-0.64 1854.85,-29.67 2024.85,-50.81"/>
<polygon fill="black" stroke="black" stroke-width="8" points="2024.02,-57.76 2034.81,-52.07 2025.76,-43.87 2024.02,-57.76"/>
</a>
</g>
</g>
<!-- PAKNECONPRVTXN&#45;&gt;PAKNECONPRVTKN -->
<g id="edge11" class="edge">
<title>PAKNECONPRVTXN&#45;&gt;PAKNECONPRVTKN</title>
<g id="a_edge11"><a xlink:href="bogus" xlink:title=" PAKNECONPRVTXN &#45;&gt; PAKNECONPRVTKN Min. att. &#45;5706% &#160;max: 593%">
<path fill="none" stroke="black" stroke-width="8" d="M795.31,-250.89C848.33,-292.14 978.02,-393.01 1037.84,-439.53"/>
<polygon fill="black" stroke="black" stroke-width="8" points="1033.61,-445.11 1045.8,-445.73 1042.21,-434.06 1033.61,-445.11"/>
</a>
</g>
</g>
<!-- PAKNYWRTFORMCN -->
<g id="node15" class="node">
<title>PAKNYWRTFORMCN</title>
<g id="a_node15"><a xlink:title="Formal wage&#10;FRML &lt;Z,EXO&gt; PAKNYWRTFORMCN = (PAKNYWRTFORMCN(&#45;1)*EXP(&#45;PAKNYWRTFORMCN_A+ (&#45;0.120164450250183&#45;0.3*(LOG(PAKNYWRTFORMCN(&#45;1))&#45;LOG(PAKNYGDPFCSTXN(&#45;1))&#45;LOG(PAKNYGDPPOTLKN(&#45;1)/PAKLMEMPSTRLCN(&#45;1)))+0.2*((LOG(PAKNYWRTFORMCN(&#45;1)))&#45;(LOG(PAKNYWRTFORMCN(&#45;2))))+(1&#45;0.2)*(0.5*((LOG(PAKNYGDPFCSTXN(&#45;1)))&#45;(LOG(PAKNYGDPFCSTXN(&#45;2))))+0.5*(PAKINFLEXPT/100)+((LOG(PAKNYGDPMKTPKN/PAKLMEMPSTRLCN))&#45;(LOG(PAKNYGDPMKTPKN(&#45;1)/PAKLMEMPSTRLCN(&#45;1)))))&#45;0.2*(PAKLMUNRTOTLCN&#45;PAKLMUNRSTRLCN)/100+0.15233813938029*DURING_2000&#45;0.183411483907703*DURING_2001) )) * (1&#45;PAKNYWRTFORMCN_D)+ PAKNYWRTFORMCN_X*PAKNYWRTFORMCN_D &#160;$">
<polygon fill="#63b8ff" stroke="black" points="1557.5,-886.77 1335.5,-886.77 1335.5,-850.77 1557.5,-850.77 1557.5,-886.77"/>
<text text-anchor="start" x="1341.5" y="-864.57" font-family="Times New Roman,serif" font-size="14.00" fill="blue">PAKNYWRTFORMCN:Formal wage</text>
</a>
</g>
</g>
<!-- PAKNYWRTFORMCN&#45;&gt;PAKNYWRTTOTLCN -->
<g id="edge14" class="edge">
<title>PAKNYWRTFORMCN&#45;&gt;PAKNYWRTTOTLCN</title>
<g id="a_edge14"><a xlink:href="bogus" xlink:title=" PAKNYWRTFORMCN &#45;&gt; PAKNYWRTTOTLCN Min. att. 21% &#160;max: 21%">
<path fill="none" stroke="black" stroke-width="2.13" d="M1557.69,-866.51C1614.31,-865.35 1682.78,-863.94 1737.81,-862.81"/>
<polygon fill="black" stroke="black" stroke-width="2.13" points="1738,-866.31 1747.92,-862.61 1737.85,-859.31 1738,-866.31"/>
</a>
</g>
</g>
<!-- PAKNECONENGYGN -->
<g id="node20" class="node">
<title>PAKNECONENGYGN</title>
<g id="a_node20"><a xlink:title="Net consumption deflator&#10;FRML &#160;&lt;&gt; PAKNECONENGYGN = (PAKNVCOLPRODSH**(PAKCESENGYPROD)*(PAKNVCOLPRODGN)**(1&#45;PAKCESENGYPROD)+PAKNVGASPRODSH**(PAKCESENGYPROD)*(PAKNVGASPRODGN)**(1&#45;PAKCESENGYPROD)+PAKNVOILPRODSH**(PAKCESENGYPROD)*(PAKNVOILPRODGN)**(1&#45;PAKCESENGYPROD)+PAKNVRENPRODSH**(PAKCESENGYPROD)*(PAKNVRENPRODXN)**(1&#45;PAKCESENGYPROD))**(1/(1&#45;PAKCESENGYPROD)) $">
<polygon fill="#63b8ff" stroke="black" points="286,-277.77 0,-277.77 0,-241.77 286,-241.77 286,-277.77"/>
<text text-anchor="start" x="6" y="-255.57" font-family="Times New Roman,serif" font-size="14.00" fill="blue">PAKNECONENGYGN:Net consumption deflator</text>
</a>
</g>
</g>
<!-- PAKNECONENGYGN&#45;&gt;PAKNECONENGYXN -->
<g id="edge6" class="edge">
<title>PAKNECONENGYGN&#45;&gt;PAKNECONENGYXN</title>
<g id="a_edge6"><a xlink:href="bogus" xlink:title=" PAKNECONENGYGN &#45;&gt; PAKNECONENGYXN Min. att. &#45;39% &#160;max: 100%">
<path fill="none" stroke="black" stroke-width="8" d="M286.42,-259.77C299.27,-259.77 312.29,-259.77 325.13,-259.77"/>
<polygon fill="black" stroke="black" stroke-width="8" points="325.38,-266.77 335.38,-259.77 325.38,-252.77 325.38,-266.77"/>
</a>
</g>
</g>
<!-- PAKNYGDPMKTPKN&#45;&gt;PAKNYGDPGAP_ -->
<g id="edge29" class="edge">
<title>PAKNYGDPMKTPKN&#45;&gt;PAKNYGDPGAP_</title>
<g id="a_edge29"><a xlink:href="bogus" xlink:title=" PAKNYGDPMKTPKN &#45;&gt; PAKNYGDPGAP_ Min. att. &#45;78553% &#160;max: 128142%">
<path fill="none" stroke="black" stroke-width="8" d="M1611.08,-508.8C1623.66,-511.4 1636.09,-514.37 1648,-517.77 1701.06,-532.9 1758.4,-560.31 1795.94,-579.92"/>
<polygon fill="black" stroke="black" stroke-width="8" points="1792.94,-586.25 1805.05,-584.72 1799.47,-573.86 1792.94,-586.25"/>
</a>
</g>
</g>
<!-- PAKNYWRTINFMCN -->
<g id="node25" class="node">
<title>PAKNYWRTINFMCN</title>
<g id="a_node25"><a xlink:title="Informal wage&#10;FRML &lt;Z,EXO&gt; PAKNYWRTINFMCN = (PAKNYWRTINFMCN(&#45;1)*EXP(&#45;PAKNYWRTINFMCN_A+ (&#45;0.122614247140616&#45;0.3*(LOG(PAKNYWRTINFMCN(&#45;1))&#45;LOG(PAKNYGDPFCSTXN(&#45;1))&#45;LOG(PAKNYGDPPOTLKN(&#45;1)/PAKLMEMPSTRLCN(&#45;1)))+0.2*((LOG(PAKNYWRTINFMCN(&#45;1)))&#45;(LOG(PAKNYWRTINFMCN(&#45;2))))+(1&#45;0.2)*(0.5*((LOG(PAKNYGDPFCSTXN(&#45;1)))&#45;(LOG(PAKNYGDPFCSTXN(&#45;2))))+0.5*(PAKINFLEXPT/100)+((LOG(PAKNYGDPMKTPKN/PAKLMEMPSTRLCN))&#45;(LOG(PAKNYGDPMKTPKN(&#45;1)/PAKLMEMPSTRLCN(&#45;1)))))&#45;0.2*(PAKLMUNRTOTLCN&#45;PAKLMUNRSTRLCN)/100+0.15347529018182*DURING_2000&#45;0.183372342445734*DURING_2001) )) * (1&#45;PAKNYWRTINFMCN_D)+ PAKNYWRTINFMCN_X*PAKNYWRTINFMCN_D &#160;$">
<polygon fill="#63b8ff" stroke="black" points="1559.5,-832.77 1333.5,-832.77 1333.5,-796.77 1559.5,-796.77 1559.5,-832.77"/>
<text text-anchor="start" x="1339.5" y="-810.57" font-family="Times New Roman,serif" font-size="14.00" fill="blue">PAKNYWRTINFMCN:Informal wage</text>
</a>
</g>
</g>
<!-- PAKNYWRTINFMCN&#45;&gt;PAKNYWRTTOTLCN -->
<g id="edge32" class="edge">
<title>PAKNYWRTINFMCN&#45;&gt;PAKNYWRTTOTLCN</title>
<g id="a_edge32"><a xlink:href="bogus" xlink:title=" PAKNYWRTINFMCN &#45;&gt; PAKNYWRTTOTLCN Min. att. 79% &#160;max: 80%">
<path fill="none" stroke="black" stroke-width="7.95" d="M1559.52,-827.98C1615.77,-834.62 1683.35,-842.59 1737.79,-849.01"/>
<polygon fill="black" stroke="black" stroke-width="7.95" points="1737.05,-855.93 1747.79,-850.19 1738.68,-842.1 1737.05,-855.93"/>
</a>
</g>
</g>
<!-- PAKNYGDPFCSTXN -->
<g id="node26" class="node">
<title>PAKNYGDPFCSTXN</title>
<g id="a_node26"><a xlink:title="GDP at factor cost&#10;FRML &lt;Z,EXO&gt; PAKNYGDPFCSTXN = (PAKNYGDPFCSTXN(&#45;1)*EXP(&#45;PAKNYGDPFCSTXN_A+ (0.6*((LOG(PAKNYGDPFCSTXN(&#45;1)))&#45;(LOG(PAKNYGDPFCSTXN(&#45;2))))+(1&#45;0.6)*(0.7*PAKINFLEXPT/100+(1&#45;0.7)*((LOG(PAKPSTAR(&#45;1)))&#45;(LOG(PAKPSTAR(&#45;2)))))+0.25*PAKNYGDPGAP_/100+0.262461811660072*DURING_2000&#45;0.205776950553378*DURING_2001) )) * (1&#45;PAKNYGDPFCSTXN_D)+ PAKNYGDPFCSTXN_X*PAKNYGDPFCSTXN_D &#160;$">
<polygon fill="#63b8ff" stroke="black" points="1959.5,-824.77 1717.5,-824.77 1717.5,-788.77 1959.5,-788.77 1959.5,-824.77"/>
<text text-anchor="start" x="1723.5" y="-802.57" font-family="Times New Roman,serif" font-size="14.00" fill="blue">PAKNYGDPFCSTXN:GDP at factor cost</text>
</a>
</g>
</g>
<!-- PAKNYGDPFCSTXN&#45;&gt;PAKLMEMPTOTLCN -->
<g id="edge4" class="edge">
<title>PAKNYGDPFCSTXN&#45;&gt;PAKLMEMPTOTLCN</title>
<g id="a_edge4"><a xlink:href="bogus" xlink:title=" PAKNYGDPFCSTXN &#45;&gt; PAKLMEMPTOTLCN Min. att. &#45;128% &#160;max: 59%">
<path fill="none" stroke="black" stroke-width="8" d="M1959.87,-806.77C1979.32,-806.77 1999.43,-806.77 2018.81,-806.77"/>
<polygon fill="black" stroke="black" stroke-width="8" points="2018.87,-813.77 2028.87,-806.77 2018.87,-799.77 2018.87,-813.77"/>
</a>
</g>
</g>
<!-- PAKNYYWBTOTLCN&#45;&gt;PAKNECONPRVTKN -->
<g id="edge19" class="edge">
<title>PAKNYYWBTOTLCN&#45;&gt;PAKNECONPRVTKN</title>
<g id="a_edge19"><a xlink:href="bogus" xlink:title=" PAKNYYWBTOTLCN &#45;&gt; PAKNECONPRVTKN Min. att. &#45;594% &#160;max: 5821%">
<path fill="none" stroke="black" stroke-width="8" d="M2372.7,-878.87C2170.92,-949.37 1428.15,-1194.96 1245,-1057.77 1150.52,-987 1090.05,-600.19 1074.8,-491.93"/>
<polygon fill="black" stroke="black" stroke-width="8" points="1081.7,-490.73 1073.39,-481.79 1067.84,-492.66 1081.7,-490.73"/>
</a>
</g>
</g>
<!-- PAKNYGDPGAP_&#45;&gt;PAKFMLBLPOLYXN -->
<g id="edge15" class="edge">
<title>PAKNYGDPGAP_&#45;&gt;PAKFMLBLPOLYXN</title>
<g id="a_edge15"><a xlink:href="bogus" xlink:title=" PAKNYGDPGAP_ &#45;&gt; PAKFMLBLPOLYXN Min. att. &#45;15% &#160;max: 83%">
<path fill="none" stroke="black" stroke-width="8" d="M1849.55,-584.63C1893.49,-505.33 2068.81,-188.92 2121.47,-93.89"/>
<polygon fill="black" stroke="black" stroke-width="8" points="2127.73,-97.04 2126.45,-84.9 2115.48,-90.26 2127.73,-97.04"/>
</a>
</g>
</g>
<!-- PAKNYGDPGAP_&#45;&gt;PAKLMEMPTOTLCN -->
<g id="edge23" class="edge">
<title>PAKNYGDPGAP_&#45;&gt;PAKLMEMPTOTLCN</title>
<g id="a_edge23"><a xlink:href="bogus" xlink:title=" PAKNYGDPGAP_ &#45;&gt; PAKLMEMPTOTLCN Min. att. &#45;362% &#160;max: 147%">
<path fill="none" stroke="black" stroke-width="8" d="M1865.86,-620.87C1919.58,-657.77 2041.71,-741.66 2101.8,-782.94"/>
<polygon fill="black" stroke="black" stroke-width="8" points="2098,-788.81 2110.2,-788.7 2105.92,-777.27 2098,-788.81"/>
</a>
</g>
</g>
</g>
</svg>
