<?xml version="1.0" encoding="UTF-8" standalone="no"?>
<!DOCTYPE svg PUBLIC "-//W3C//DTD SVG 1.1//EN"
 "http://www.w3.org/Graphics/SVG/1.1/DTD/svg11.dtd">
<!-- Generated by graphviz version 6.0.1 (0)
 -->
<!-- Title: TD Pages: 1 -->
<svg width="432pt" height="186pt"
 viewBox="0.00 0.00 432.00 186.19" xmlns="http://www.w3.org/2000/svg" xmlns:xlink="http://www.w3.org/1999/xlink">
<g id="graph0" class="graph" transform="scale(0.167767 0.167767) rotate(0) translate(4 1105.8)">
<title>TD</title>
<polygon fill="white" stroke="none" points="-4,4 -4,-1105.8 2571,-1105.8 2571,4 -4,4"/>
<text text-anchor="middle" x="1283.5" y="-7.8" font-family="Times New Roman,serif" font-size="14.00">PAKNECONPRVTKN</text>
<!-- PAKNECONPRVTCN -->
<g id="node1" class="node">
<title>PAKNECONPRVTCN</title>
<g id="a_node1"><a xlink:title="Household demand&#10;FRML &#160;&lt;&gt; PAKNECONPRVTCN = PAKNECONPRVTKN*PAKNECONPRVTXN $">
<polygon fill="#63b8ff" stroke="black" points="1570,-539.8 1323,-539.8 1323,-503.8 1570,-503.8 1570,-539.8"/>
<text text-anchor="start" x="1329.5" y="-517.6" font-family="Times New Roman,serif" font-size="14.00" fill="blue">PAKNECONPRVTCN:Household demand</text>
</a>
</g>
</g>
<!-- PAKNECONPRVTKN -->
<g id="node2" class="node">
<title>PAKNECONPRVTKN</title>
<g id="a_node2"><a xlink:title="Household Consumption&#10;FRML &lt;Z,EXO&gt; PAKNECONPRVTKN = (PAKNECONPRVTKN(&#45;1)*EXP(&#45;PAKNECONPRVTKN_A+ (&#45;0.2*(LOG(PAKNECONPRVTKN(&#45;1))&#45;LOG((PAKNYYWBTOTLCN(&#45;1)*(1&#45;PAKGGREVDRCTXN(&#45;1)/100))/PAKNECONPRVTXN(&#45;1)))+1*((LOG((PAKNYYWBTOTLCN*(1&#45;PAKGGREVDRCTXN/100))/PAKNECONPRVTXN))&#45;(LOG((PAKNYYWBTOTLCN(&#45;1)*(1&#45;PAKGGREVDRCTXN(&#45;1)/100))/PAKNECONPRVTXN(&#45;1))))+0.0303228629698929+0.0163839011059956*DURING_2010&#45;0.3*(PAKFMLBLPOLYXN/100&#45;((LOG(PAKNECONPRVTXN))&#45;(LOG(PAKNECONPRVTXN(&#45;1)))))) )) * (1&#45;PAKNECONPRVTKN_D)+ PAKNECONPRVTKN_X*PAKNECONPRVTKN_D &#160;$">
<polygon fill="red" stroke="black" points="1209,-512.8 931,-512.8 931,-476.8 1209,-476.8 1209,-512.8"/>
<text text-anchor="start" x="937" y="-490.6" font-family="Times New Roman,serif" font-size="14.00" fill="blue">PAKNECONPRVTKN:Household Consumption</text>
</a>
</g>
</g>
<!-- PAKNECONPRVTKN&#45;&gt;PAKNECONPRVTCN -->
<g id="edge12" class="edge">
<title>PAKNECONPRVTKN&#45;&gt;PAKNECONPRVTCN</title>
<g id="a_edge12"><a xlink:href="bogus" xlink:title=" PAKNECONPRVTKN &#45;&gt; PAKNECONPRVTCN Min. att. &#45;720% &#160;max: 6450%">
<path fill="none" stroke="black" stroke-width="8" d="M1209.12,-504.76C1242.94,-507.2 1279.05,-509.8 1312.62,-512.22"/>
<polygon fill="black" stroke="black" stroke-width="8" points="1312.47,-519.23 1322.95,-512.97 1313.48,-505.27 1312.47,-519.23"/>
</a>
</g>
</g>
<!-- PAKSMINDOTHRTKN -->
<g id="node3" class="node">
<title>PAKSMINDOTHRTKN</title>
<g id="a_node3"><a xlink:title="PAKSMINDOTHRTKN&#10;FRML &#160;&lt;&gt; PAKSMINDOTHRTKN = ((1+0.483473985412524)*(0.40172973397176*PAKNECONPRVTKN+0*PAKNECONGOVTKN+0.560459287907094*PAKNEGDIFTOTKN+0.719299486591763*PAKNEEXPGNFSKN+0.620970563578771*PAKNEGDISTKBKN)&#45;0.606734386430279*PAKNEIMPGNFSKN&#45;0.866045585295928*PAKNYTAXNINDKN&#45;2983275.63714814)/(1+2.46379868577176) $">
<polygon fill="#63b8ff" stroke="black" points="1522,-485.8 1371,-485.8 1371,-449.8 1522,-449.8 1522,-485.8"/>
<text text-anchor="start" x="1377.5" y="-463.6" font-family="Times New Roman,serif" font-size="14.00" fill="blue">PAKSMINDOTHRTKN:</text>
</a>
</g>
</g>
<!-- PAKNECONPRVTKN&#45;&gt;PAKSMINDOTHRTKN -->
<g id="edge7" class="edge">
<title>PAKNECONPRVTKN&#45;&gt;PAKSMINDOTHRTKN</title>
<g id="a_edge7"><a xlink:href="bogus" xlink:title=" PAKNECONPRVTKN &#45;&gt; PAKSMINDOTHRTKN Min. att. &#45;11779% &#160;max: 971%">
<path fill="none" stroke="black" stroke-width="8" d="M1209.12,-484.85C1259.89,-481.19 1315.84,-477.15 1360.56,-473.93"/>
<polygon fill="black" stroke="black" stroke-width="8" points="1361.32,-480.89 1370.79,-473.19 1360.32,-466.93 1361.32,-480.89"/>
</a>
</g>
</g>
<!-- PAKSMSRVTRNSKN -->
<g id="node4" class="node">
<title>PAKSMSRVTRNSKN</title>
<g id="a_node4"><a xlink:title="PAKSMSRVTRNSKN&#10;FRML &#160;&lt;&gt; PAKSMSRVTRNSKN = ((1+0.301074862860981)*(0.204687752761289*PAKNECONPRVTKN+0*PAKNECONGOVTKN+0*PAKNEGDIFTOTKN+0.0551862611209703*PAKNEEXPGNFSKN+0*PAKNEGDISTKBKN)&#45;&#45;0.0392641863572605*PAKNEIMPGNFSKN&#45;0.0174996684619017*PAKNYTAXNINDKN&#45;0)/(1+1.11680986862739) $">
<polygon fill="#63b8ff" stroke="black" points="1517.5,-431.8 1375.5,-431.8 1375.5,-395.8 1517.5,-395.8 1517.5,-431.8"/>
<text text-anchor="start" x="1381.5" y="-409.6" font-family="Times New Roman,serif" font-size="14.00" fill="blue">PAKSMSRVTRNSKN:</text>
</a>
</g>
</g>
<!-- PAKNECONPRVTKN&#45;&gt;PAKSMSRVTRNSKN -->
<g id="edge27" class="edge">
<title>PAKNECONPRVTKN&#45;&gt;PAKSMSRVTRNSKN</title>
<g id="a_edge27"><a xlink:href="bogus" xlink:title=" PAKNECONPRVTKN &#45;&gt; PAKSMSRVTRNSKN Min. att. 87% &#160;max: 592%">
<path fill="none" stroke="black" stroke-width="8" d="M1121.41,-476.71C1155.83,-464.96 1202.69,-450.15 1245,-440.8 1284.19,-432.15 1328.33,-425.84 1365.21,-421.51"/>
<polygon fill="black" stroke="black" stroke-width="8" points="1366.27,-428.43 1375.4,-420.34 1364.67,-414.53 1366.27,-428.43"/>
</a>
</g>
</g>
<!-- PAKNECONPRVTKN_FITTED -->
<g id="node5" class="node">
<title>PAKNECONPRVTKN_FITTED</title>
<g id="a_node5"><a xlink:title="Fitted &#160;value:Household Consumption&#10;FRML &lt;FIT&gt; PAKNECONPRVTKN_FITTED = PAKNECONPRVTKN(&#45;1)*EXP( (&#45;0.2*(LOG(PAKNECONPRVTKN(&#45;1))&#45;LOG((PAKNYYWBTOTLCN(&#45;1)*(1&#45;PAKGGREVDRCTXN(&#45;1)/100))/PAKNECONPRVTXN(&#45;1)))+1*((LOG((PAKNYYWBTOTLCN*(1&#45;PAKGGREVDRCTXN/100))/PAKNECONPRVTXN))&#45;(LOG((PAKNYYWBTOTLCN(&#45;1)*(1&#45;PAKGGREVDRCTXN(&#45;1)/100))/PAKNECONPRVTXN(&#45;1))))+0.0303228629698929+0.0163839011059956*DURING_2010&#45;0.3*(PAKFMLBLPOLYXN/100&#45;((LOG(PAKNECONPRVTXN))&#45;(LOG(PAKNECONPRVTXN(&#45;1)))))) ) $">
<polygon fill="#63b8ff" stroke="black" points="1648,-377.8 1245,-377.8 1245,-341.8 1648,-341.8 1648,-377.8"/>
<text text-anchor="start" x="1251.5" y="-355.6" font-family="Times New Roman,serif" font-size="14.00" fill="blue">PAKNECONPRVTKN_FITTED:Fitted &#160;value:Household Consumption</text>
</a>
</g>
</g>
<!-- PAKNECONPRVTKN&#45;&gt;PAKNECONPRVTKN_FITTED -->
<g id="edge4" class="edge">
<title>PAKNECONPRVTKN&#45;&gt;PAKNECONPRVTKN_FITTED</title>
<g id="a_edge4"><a xlink:href="bogus" xlink:title=" PAKNECONPRVTKN &#45;&gt; PAKNECONPRVTKN_FITTED Min. att. &#45;786% &#160;max: 175%">
<path fill="none" stroke="black" stroke-width="8" d="M1093.03,-476.79C1124.58,-452.05 1185.44,-408.19 1245,-386.8 1251.33,-384.53 1257.83,-382.45 1264.45,-380.54"/>
<polygon fill="black" stroke="black" stroke-width="8" points="1266.43,-387.26 1274.22,-377.86 1262.73,-373.75 1266.43,-387.26"/>
</a>
</g>
</g>
<!-- PAKNECONOTHRKN -->
<g id="node6" class="node">
<title>PAKNECONOTHRKN</title>
<g id="a_node6"><a xlink:title="Other Consumption&#10;FRML &#160;&lt;&gt; PAKNECONOTHRKN = PAKNECONOTHRSH**(PAKCESENGYCON)*(PAKNECONPRVTKN*(PAKNECONPRVTXN/PAKNECONOTHRXN)**(PAKCESENGYCON)) $">
<polygon fill="#63b8ff" stroke="black" points="1573,-323.8 1320,-323.8 1320,-287.8 1573,-287.8 1573,-323.8"/>
<text text-anchor="start" x="1326.5" y="-301.6" font-family="Times New Roman,serif" font-size="14.00" fill="blue">PAKNECONOTHRKN:Other Consumption</text>
</a>
</g>
</g>
<!-- PAKNECONPRVTKN&#45;&gt;PAKNECONOTHRKN -->
<g id="edge34" class="edge">
<title>PAKNECONPRVTKN&#45;&gt;PAKNECONOTHRKN</title>
<g id="a_edge34"><a xlink:href="bogus" xlink:title=" PAKNECONPRVTKN &#45;&gt; PAKNECONOTHRKN Min. att. &#45;12063% &#160;max: 323%">
<path fill="none" stroke="black" stroke-width="8" d="M1084.14,-476.66C1110.34,-442.03 1172.8,-366.95 1245,-332.8 1265.12,-323.29 1287.57,-316.83 1309.95,-312.5"/>
<polygon fill="black" stroke="black" stroke-width="8" points="1311.28,-319.37 1319.88,-310.71 1308.8,-305.59 1311.28,-319.37"/>
</a>
</g>
</g>
<!-- PAKSMAGRFSNGKN -->
<g id="node8" class="node">
<title>PAKSMAGRFSNGKN</title>
<g id="a_node8"><a xlink:title="PAKSMAGRFSNGKN&#10;FRML &#160;&lt;&gt; PAKSMAGRFSNGKN = ((1+1.92407325889309)*(0.00246195499563977*PAKNECONPRVTKN+0*PAKNECONGOVTKN+0*PAKNEGDIFTOTKN+0.00130433854799597*PAKNEEXPGNFSKN+0.00497657560072267*PAKNEGDISTKBKN)&#45;1.14989260682794E&#45;05*PAKNEIMPGNFSKN&#45;2.46467171367829E&#45;07*PAKNYTAXNINDKN&#45;26993)/(1+0.506095544048804) $">
<polygon fill="#63b8ff" stroke="black" points="1519,-269.8 1374,-269.8 1374,-233.8 1519,-233.8 1519,-269.8"/>
<text text-anchor="start" x="1380.5" y="-247.6" font-family="Times New Roman,serif" font-size="14.00" fill="blue">PAKSMAGRFSNGKN:</text>
</a>
</g>
</g>
<!-- PAKNECONPRVTKN&#45;&gt;PAKSMAGRFSNGKN -->
<g id="edge29" class="edge">
<title>PAKNECONPRVTKN&#45;&gt;PAKSMAGRFSNGKN</title>
<g id="a_edge29"><a xlink:href="bogus" xlink:title=" PAKNECONPRVTKN &#45;&gt; PAKSMAGRFSNGKN Min. att. &#45;29% &#160;max: 170%">
<path fill="none" stroke="black" stroke-width="8" d="M1079.49,-476.72C1100.62,-433.97 1160.05,-326.69 1245,-278.8 1280.67,-258.7 1325.43,-251.31 1363.61,-249.22"/>
<polygon fill="black" stroke="black" stroke-width="8" points="1363.99,-256.21 1373.68,-248.78 1363.38,-242.22 1363.99,-256.21"/>
</a>
</g>
</g>
<!-- PAKNEGDETTOTKN -->
<g id="node10" class="node">
<title>PAKNEGDETTOTKN</title>
<g id="a_node10"><a xlink:title="GDE&#10;FRML &#160;&lt;&gt; PAKNEGDETTOTKN = (PAKNECONPRVTKN+PAKNECONGOVTKN+PAKNEGDIFTOTKN+PAKNEGDISTKBKN+PAKNYGDPDISCKN) $">
<polygon fill="#63b8ff" stroke="black" points="1531.5,-215.8 1361.5,-215.8 1361.5,-179.8 1531.5,-179.8 1531.5,-215.8"/>
<text text-anchor="start" x="1367.5" y="-193.6" font-family="Times New Roman,serif" font-size="14.00" fill="blue">PAKNEGDETTOTKN:GDE</text>
</a>
</g>
</g>
<!-- PAKNECONPRVTKN&#45;&gt;PAKNEGDETTOTKN -->
<g id="edge11" class="edge">
<title>PAKNECONPRVTKN&#45;&gt;PAKNEGDETTOTKN</title>
<g id="a_edge11"><a xlink:href="bogus" xlink:title=" PAKNECONPRVTKN &#45;&gt; PAKNEGDETTOTKN Min. att. &#45;2284% &#160;max: 2484%">
<path fill="none" stroke="black" stroke-width="8" d="M1076.73,-476.45C1093.42,-426.38 1147.1,-287.02 1245,-224.8 1276.03,-205.09 1315.2,-196.98 1350.67,-194.28"/>
<polygon fill="black" stroke="black" stroke-width="8" points="1351.51,-201.25 1361.06,-193.64 1350.64,-187.27 1351.51,-201.25"/>
</a>
</g>
</g>
<!-- PAKSMINDMNGSKN -->
<g id="node11" class="node">
<title>PAKSMINDMNGSKN</title>
<g id="a_node11"><a xlink:title="PAKSMINDMNGSKN&#10;FRML &#160;&lt;&gt; PAKSMINDMNGSKN = ((1+6.96158341862144)*(0.0132800565666619*PAKNECONPRVTKN+0*PAKNECONGOVTKN+0*PAKNEGDIFTOTKN+0.00704674623894759*PAKNEEXPGNFSKN+0.024122890632682*PAKNEGDISTKBKN)&#45;0.134221966110302*PAKNEIMPGNFSKN&#45;0.500981557895139*PAKNYTAXNINDKN&#45;123652.869264758)/(1+0.200800622280983) $">
<polygon fill="#63b8ff" stroke="black" points="1519.5,-161.8 1373.5,-161.8 1373.5,-125.8 1519.5,-125.8 1519.5,-161.8"/>
<text text-anchor="start" x="1379.5" y="-139.6" font-family="Times New Roman,serif" font-size="14.00" fill="blue">PAKSMINDMNGSKN:</text>
</a>
</g>
</g>
<!-- PAKNECONPRVTKN&#45;&gt;PAKSMINDMNGSKN -->
<g id="edge18" class="edge">
<title>PAKNECONPRVTKN&#45;&gt;PAKSMINDMNGSKN</title>
<g id="a_edge18"><a xlink:href="bogus" xlink:title=" PAKNECONPRVTKN &#45;&gt; PAKSMINDMNGSKN Min. att. &#45;1229% &#160;max: 1716%">
<path fill="none" stroke="black" stroke-width="8" d="M1074.7,-476.61C1087.21,-420.31 1133.48,-248.07 1245,-170.8 1279.06,-147.21 1324.3,-139.63 1363.18,-138.31"/>
<polygon fill="black" stroke="black" stroke-width="8" points="1363.59,-145.3 1373.44,-138.1 1363.3,-131.3 1363.59,-145.3"/>
</a>
</g>
</g>
<!-- PAKNECONENGYKN -->
<g id="node12" class="node">
<title>PAKNECONENGYKN</title>
<g id="a_node12"><a xlink:title="Energy Consumption&#10;FRML &#160;&lt;&gt; PAKNECONENGYKN = PAKNECONENGYSH**(PAKCESENGYCON)*(PAKNECONPRVTKN*(PAKNECONPRVTXN/PAKNECONENGYXN)**(PAKCESENGYCON)) $">
<polygon fill="#63b8ff" stroke="black" points="1577.5,-107.8 1315.5,-107.8 1315.5,-71.8 1577.5,-71.8 1577.5,-107.8"/>
<text text-anchor="start" x="1321.5" y="-85.6" font-family="Times New Roman,serif" font-size="14.00" fill="blue">PAKNECONENGYKN:Energy Consumption</text>
</a>
</g>
</g>
<!-- PAKNECONPRVTKN&#45;&gt;PAKNECONENGYKN -->
<g id="edge15" class="edge">
<title>PAKNECONPRVTKN&#45;&gt;PAKNECONENGYKN</title>
<g id="a_edge15"><a xlink:href="bogus" xlink:title=" PAKNECONPRVTKN &#45;&gt; PAKNECONENGYKN Min. att. &#45;699% &#160;max: 3890%">
<path fill="none" stroke="black" stroke-width="8" d="M1073.23,-476.8C1081.92,-414.9 1119.52,-209.57 1245,-116.8 1262.7,-103.72 1283.74,-95.43 1305.43,-90.36"/>
<polygon fill="black" stroke="black" stroke-width="8" points="1307.09,-97.16 1315.43,-88.25 1304.21,-83.46 1307.09,-97.16"/>
</a>
</g>
</g>
<!-- PAKSMSRVFINSKN -->
<g id="node14" class="node">
<title>PAKSMSRVFINSKN</title>
<g id="a_node14"><a xlink:title="PAKSMSRVFINSKN&#10;FRML &#160;&lt;&gt; PAKSMSRVFINSKN = ((1+1.04148314760779)*(0.0520379651885469*PAKNECONPRVTKN+0*PAKNECONGOVTKN+0*PAKNEGDIFTOTKN+0.00879145012359898*PAKNEEXPGNFSKN+0*PAKNEGDISTKBKN)&#45;0.00594416979264236*PAKNEIMPGNFSKN&#45;0.000103762679145856*PAKNYTAXNINDKN&#45;0)/(1+0.24687745523084) $">
<polygon fill="#63b8ff" stroke="black" points="1515,-939.8 1378,-939.8 1378,-903.8 1515,-903.8 1515,-939.8"/>
<text text-anchor="start" x="1384.5" y="-917.6" font-family="Times New Roman,serif" font-size="14.00" fill="blue">PAKSMSRVFINSKN:</text>
</a>
</g>
</g>
<!-- PAKNECONPRVTKN&#45;&gt;PAKSMSRVFINSKN -->
<g id="edge17" class="edge">
<title>PAKNECONPRVTKN&#45;&gt;PAKSMSRVFINSKN</title>
<g id="a_edge17"><a xlink:href="bogus" xlink:title=" PAKNECONPRVTKN &#45;&gt; PAKSMSRVFINSKN Min. att. &#45;104% &#160;max: 125%">
<path fill="none" stroke="black" stroke-width="8" d="M1072.76,-512.93C1080.03,-577.21 1113.9,-795.72 1245,-894.8 1279.61,-920.96 1327.51,-928.17 1367.81,-928.61"/>
<polygon fill="black" stroke="black" stroke-width="8" points="1367.89,-935.61 1377.88,-928.59 1367.86,-921.61 1367.89,-935.61"/>
</a>
</g>
</g>
<!-- PAKSMENGTOTLKN -->
<g id="node17" class="node">
<title>PAKSMENGTOTLKN</title>
<g id="a_node17"><a xlink:title="PAKSMENGTOTLKN&#10;FRML &#160;&lt;&gt; PAKSMENGTOTLKN = ((1+1.65868473220397)*(0.0775261497897936*PAKNECONPRVTKN+0*PAKNECONGOVTKN+0*PAKNEGDIFTOTKN+0.0217448978257548*PAKNEEXPGNFSKN+0.0458991644104248*PAKNEGDISTKBKN)&#45;0.11894699850705*PAKNEIMPGNFSKN&#45;&#45;0.50579180838529*PAKNYTAXNINDKN&#45;0)/(1+5.65663938581514) $">
<polygon fill="#63b8ff" stroke="black" points="1519,-885.8 1374,-885.8 1374,-849.8 1519,-849.8 1519,-885.8"/>
<text text-anchor="start" x="1380.5" y="-863.6" font-family="Times New Roman,serif" font-size="14.00" fill="blue">PAKSMENGTOTLKN:</text>
</a>
</g>
</g>
<!-- PAKNECONPRVTKN&#45;&gt;PAKSMENGTOTLKN -->
<g id="edge23" class="edge">
<title>PAKNECONPRVTKN&#45;&gt;PAKSMENGTOTLKN</title>
<g id="a_edge23"><a xlink:href="bogus" xlink:title=" PAKNECONPRVTKN &#45;&gt; PAKSMENGTOTLKN Min. att. &#45;14% &#160;max: 2186%">
<path fill="none" stroke="black" stroke-width="8" d="M1074.05,-512.94C1084.97,-571.62 1127.84,-757.28 1245,-840.8 1278.87,-864.95 1324.3,-872.53 1363.36,-873.71"/>
<polygon fill="black" stroke="black" stroke-width="8" points="1363.55,-880.72 1373.66,-873.88 1363.78,-866.72 1363.55,-880.72"/>
</a>
</g>
</g>
<!-- PAKSMAGRFSTYKN -->
<g id="node19" class="node">
<title>PAKSMAGRFSTYKN</title>
<g id="a_node19"><a xlink:title="PAKSMAGRFSTYKN&#10;FRML &#160;&lt;&gt; PAKSMAGRFSTYKN = ((1+0.195965019358753)*(0.010131919293849*PAKNECONPRVTKN+0*PAKNECONGOVTKN+0*PAKNEGDIFTOTKN+0.000136733767007103*PAKNEEXPGNFSKN+0.0199955288980741*PAKNEGDISTKBKN)&#45;0.00076829563200478*PAKNEIMPGNFSKN&#45;0.00172030587371022*PAKNYTAXNINDKN&#45;65421)/(1+0.319587584852584) $">
<polygon fill="#63b8ff" stroke="black" points="1518.5,-831.8 1374.5,-831.8 1374.5,-795.8 1518.5,-795.8 1518.5,-831.8"/>
<text text-anchor="start" x="1380.5" y="-809.6" font-family="Times New Roman,serif" font-size="14.00" fill="blue">PAKSMAGRFSTYKN:</text>
</a>
</g>
</g>
<!-- PAKNECONPRVTKN&#45;&gt;PAKSMAGRFSTYKN -->
<g id="edge22" class="edge">
<title>PAKNECONPRVTKN&#45;&gt;PAKSMAGRFSTYKN</title>
<g id="a_edge22"><a xlink:href="bogus" xlink:title=" PAKNECONPRVTKN &#45;&gt; PAKSMAGRFSTYKN Min. att. 96% &#160;max: 371%">
<path fill="none" stroke="black" stroke-width="8" d="M1075.82,-513.09C1090.75,-565.77 1141.59,-718.51 1245,-786.8 1279.71,-809.72 1325.21,-817.22 1364.09,-818.65"/>
<polygon fill="black" stroke="black" stroke-width="8" points="1364.17,-825.66 1374.34,-818.9 1364.51,-811.66 1364.17,-825.66"/>
</a>
</g>
</g>
<!-- PAKSMSRVHSNGKN -->
<g id="node25" class="node">
<title>PAKSMSRVHSNGKN</title>
<g id="a_node25"><a xlink:title="PAKSMSRVHSNGKN&#10;FRML &#160;&lt;&gt; PAKSMSRVHSNGKN = ((1+0.782809577554843)*(0.0647364660896117*PAKNECONPRVTKN+0*PAKNECONGOVTKN+0.00605333595533851*PAKNEGDIFTOTKN+0.03048358523237*PAKNEEXPGNFSKN+0*PAKNEGDISTKBKN)&#45;0.0244768173208691*PAKNEIMPGNFSKN&#45;0.0684093628903126*PAKNYTAXNINDKN&#45;0)/(1+0.150771193398883) $">
<polygon fill="#63b8ff" stroke="black" points="1519,-777.8 1374,-777.8 1374,-741.8 1519,-741.8 1519,-777.8"/>
<text text-anchor="start" x="1380.5" y="-755.6" font-family="Times New Roman,serif" font-size="14.00" fill="blue">PAKSMSRVHSNGKN:</text>
</a>
</g>
</g>
<!-- PAKNECONPRVTKN&#45;&gt;PAKSMSRVHSNGKN -->
<g id="edge26" class="edge">
<title>PAKNECONPRVTKN&#45;&gt;PAKSMSRVHSNGKN</title>
<g id="a_edge26"><a xlink:href="bogus" xlink:title=" PAKNECONPRVTKN &#45;&gt; PAKSMSRVHSNGKN Min. att. 34% &#160;max: 147%">
<path fill="none" stroke="black" stroke-width="8" d="M1078.23,-512.99C1097.49,-558.81 1154.82,-679.16 1245,-732.8 1280.33,-753.82 1325.26,-761.27 1363.64,-763.15"/>
<polygon fill="black" stroke="black" stroke-width="8" points="1363.5,-770.15 1373.75,-763.53 1364.02,-756.16 1363.5,-770.15"/>
</a>
</g>
</g>
<!-- PAKSMAGRCRPSKN -->
<g id="node28" class="node">
<title>PAKSMAGRCRPSKN</title>
<g id="a_node28"><a xlink:title="PAKSMAGRCRPSKN&#10;FRML &#160;&lt;&gt; PAKSMAGRCRPSKN = ((1+2.09928590574241)*(0.144287620838506*PAKNECONPRVTKN+0*PAKNECONGOVTKN+0*PAKNEGDIFTOTKN+0.0572678299039023*PAKNEEXPGNFSKN+0.267381669083985*PAKNEGDISTKBKN)&#45;0.0736247088197363*PAKNEIMPGNFSKN&#45;0.0407034395686347*PAKNYTAXNINDKN&#45;906311)/(1+0.396041694659877) $">
<polygon fill="#63b8ff" stroke="black" points="1518.5,-723.8 1374.5,-723.8 1374.5,-687.8 1518.5,-687.8 1518.5,-723.8"/>
<text text-anchor="start" x="1380.5" y="-701.6" font-family="Times New Roman,serif" font-size="14.00" fill="blue">PAKSMAGRCRPSKN:</text>
</a>
</g>
</g>
<!-- PAKNECONPRVTKN&#45;&gt;PAKSMAGRCRPSKN -->
<g id="edge19" class="edge">
<title>PAKNECONPRVTKN&#45;&gt;PAKSMAGRCRPSKN</title>
<g id="a_edge19"><a xlink:href="bogus" xlink:title=" PAKNECONPRVTKN &#45;&gt; PAKSMAGRCRPSKN Min. att. &#45;25% &#160;max: 208%">
<path fill="none" stroke="black" stroke-width="8" d="M1082,-513.03C1106.12,-551.19 1167.72,-639.2 1245,-678.8 1281.44,-697.48 1326.27,-704.75 1364.3,-707.12"/>
<polygon fill="black" stroke="black" stroke-width="8" points="1363.96,-714.11 1374.31,-707.64 1364.69,-700.13 1363.96,-714.11"/>
</a>
</g>
</g>
<!-- PAKNYGDPMKTPKN -->
<g id="node29" class="node">
<title>PAKNYGDPMKTPKN</title>
<g id="a_node29"><a xlink:title="GDP Expenditure side at market prices&#10;FRML &#160;&lt;&gt; PAKNYGDPMKTPKN = PAKNECONPRVTKN+PAKNECONGOVTKN+PAKNEGDIFTOTKN+PAKNEGDISTKBKN+PAKNEEXPGNFSKN&#45;PAKNEIMPGNFSKN+PAKNYGDPDISCKN+PAKADAP*PAKDISPREPKN $">
<polygon fill="#63b8ff" stroke="black" points="1627,-669.8 1266,-669.8 1266,-633.8 1627,-633.8 1627,-669.8"/>
<text text-anchor="start" x="1272.5" y="-647.6" font-family="Times New Roman,serif" font-size="14.00" fill="blue">PAKNYGDPMKTPKN:GDP Expenditure side at market prices</text>
</a>
</g>
</g>
<!-- PAKNECONPRVTKN&#45;&gt;PAKNYGDPMKTPKN -->
<g id="edge8" class="edge">
<title>PAKNECONPRVTKN&#45;&gt;PAKNYGDPMKTPKN</title>
<g id="a_edge8"><a xlink:href="bogus" xlink:title=" PAKNECONPRVTKN &#45;&gt; PAKNYGDPMKTPKN Min. att. &#45;1557% &#160;max: 290%">
<path fill="none" stroke="black" stroke-width="8" d="M1090.02,-513.18C1120.19,-541.15 1182.06,-593.89 1245,-619.8 1255.46,-624.11 1266.45,-627.84 1277.67,-631.07"/>
<polygon fill="black" stroke="black" stroke-width="8" points="1276.1,-637.9 1287.59,-633.79 1279.79,-624.4 1276.1,-637.9"/>
</a>
</g>
</g>
<!-- PAKNYYWBTOTLCN -->
<g id="node7" class="node">
<title>PAKNYYWBTOTLCN</title>
<g id="a_node7"><a xlink:title="Economy&#45;wide wage bill&#10;FRML &#160;&lt;&gt; PAKNYYWBTOTLCN = PAKNYWRTTOTLCN*PAKLMEMPTOTLCN $">
<polygon fill="#63b8ff" stroke="black" points="2567,-970.8 2282,-970.8 2282,-934.8 2567,-934.8 2567,-970.8"/>
<text text-anchor="start" x="2288.5" y="-948.6" font-family="Times New Roman,serif" font-size="14.00" fill="blue">PAKNYYWBTOTLCN:Economy&#45;wide wage bill</text>
</a>
</g>
</g>
<!-- PAKNYYWBTOTLCN&#45;&gt;PAKNECONPRVTKN -->
<g id="edge5" class="edge">
<title>PAKNYYWBTOTLCN&#45;&gt;PAKNECONPRVTKN</title>
<g id="a_edge5"><a xlink:href="bogus" xlink:title=" PAKNYYWBTOTLCN &#45;&gt; PAKNECONPRVTKN Min. att. &#45;594% &#160;max: 5821%">
<path fill="none" stroke="black" stroke-width="8" d="M2391.61,-934.7C2321.25,-895.22 2146.75,-799.91 1993,-736.8 1843.86,-675.59 1805.5,-659.2 1648,-624.8 1471.83,-586.33 1418.27,-627.74 1245,-577.8 1196.14,-563.72 1143.99,-537.12 1109.67,-517.82"/>
<polygon fill="black" stroke="black" stroke-width="8" points="1113.06,-511.7 1100.91,-512.84 1106.14,-523.87 1113.06,-511.7"/>
</a>
</g>
</g>
<!-- PAKLMEMPTOTLCN -->
<g id="node9" class="node">
<title>PAKLMEMPTOTLCN</title>
<g id="a_node9"><a xlink:title="Employment&#10;FRML &lt;Z,EXO&gt; PAKLMEMPTOTLCN = (PAKLMEMPTOTLCN(&#45;1)*EXP(&#45;PAKLMEMPTOTLCN_A+ (&#45;0.345624644563667*(LOG(PAKLMEMPTOTLCN(&#45;1))&#45;LOG(PAKLMEMPSTRLCN(&#45;1)))&#45;0.1*(((LOG(PAKNYWRTTOTLCN/PAKNYGDPFCSTXN))&#45;(LOG(PAKNYWRTTOTLCN(&#45;1)/PAKNYGDPFCSTXN(&#45;1))))&#45;((LOG(PAKNYGDPPOTLKN/PAKLMEMPSTRLCN))&#45;(LOG(PAKNYGDPPOTLKN(&#45;1)/PAKLMEMPSTRLCN(&#45;1)))))&#45;0.0011790007645121+((LOG(PAKLMEMPSTRLCN))&#45;(LOG(PAKLMEMPSTRLCN(&#45;1))))+0.175412878170024*PAKNYGDPGAP_/100+0.0369790799942338*DURING_2010) )) * (1&#45;PAKLMEMPTOTLCN_D)+ PAKLMEMPTOTLCN_X*PAKLMEMPTOTLCN_D &#160;$">
<polygon fill="#63b8ff" stroke="black" points="2246,-970.8 2029,-970.8 2029,-934.8 2246,-934.8 2246,-970.8"/>
<text text-anchor="start" x="2035.5" y="-948.6" font-family="Times New Roman,serif" font-size="14.00" fill="blue">PAKLMEMPTOTLCN:Employment</text>
</a>
</g>
</g>
<!-- PAKLMEMPTOTLCN&#45;&gt;PAKNYYWBTOTLCN -->
<g id="edge13" class="edge">
<title>PAKLMEMPTOTLCN&#45;&gt;PAKNYYWBTOTLCN</title>
<g id="a_edge13"><a xlink:href="bogus" xlink:title=" PAKLMEMPTOTLCN &#45;&gt; PAKNYYWBTOTLCN Min. att. &#45;6% &#160;max: 84%">
<path fill="none" stroke="black" stroke-width="8" d="M2246.25,-952.8C2254.63,-952.8 2263.19,-952.8 2271.79,-952.8"/>
<polygon fill="black" stroke="black" stroke-width="8" points="2271.89,-959.8 2281.89,-952.8 2271.89,-945.8 2271.89,-959.8"/>
</a>
</g>
</g>
<!-- PAKNYWRTINFMCN -->
<g id="node13" class="node">
<title>PAKNYWRTINFMCN</title>
<g id="a_node13"><a xlink:title="Informal wage&#10;FRML &lt;Z,EXO&gt; PAKNYWRTINFMCN = (PAKNYWRTINFMCN(&#45;1)*EXP(&#45;PAKNYWRTINFMCN_A+ (&#45;0.122614247140616&#45;0.3*(LOG(PAKNYWRTINFMCN(&#45;1))&#45;LOG(PAKNYGDPFCSTXN(&#45;1))&#45;LOG(PAKNYGDPPOTLKN(&#45;1)/PAKLMEMPSTRLCN(&#45;1)))+0.2*((LOG(PAKNYWRTINFMCN(&#45;1)))&#45;(LOG(PAKNYWRTINFMCN(&#45;2))))+(1&#45;0.2)*(0.5*((LOG(PAKNYGDPFCSTXN(&#45;1)))&#45;(LOG(PAKNYGDPFCSTXN(&#45;2))))+0.5*(PAKINFLEXPT/100)+((LOG(PAKNYGDPMKTPKN/PAKLMEMPSTRLCN))&#45;(LOG(PAKNYGDPMKTPKN(&#45;1)/PAKLMEMPSTRLCN(&#45;1)))))&#45;0.2*(PAKLMUNRTOTLCN&#45;PAKLMUNRSTRLCN)/100+0.15347529018182*DURING_2000&#45;0.183372342445734*DURING_2001) )) * (1&#45;PAKNYWRTINFMCN_D)+ PAKNYWRTINFMCN_X*PAKNYWRTINFMCN_D &#160;$">
<polygon fill="#63b8ff" stroke="black" points="1559.5,-1101.8 1333.5,-1101.8 1333.5,-1065.8 1559.5,-1065.8 1559.5,-1101.8"/>
<text text-anchor="start" x="1339.5" y="-1079.6" font-family="Times New Roman,serif" font-size="14.00" fill="blue">PAKNYWRTINFMCN:Informal wage</text>
</a>
</g>
</g>
<!-- PAKNYWRTTOTLCN -->
<g id="node26" class="node">
<title>PAKNYWRTTOTLCN</title>
<g id="a_node26"><a xlink:title="Wages&#10;FRML &#160;&lt;&gt; PAKNYWRTTOTLCN = (PAKNYWBINFMSH**PAKINFCES*(PAKNYWRTINFMCN)**(1&#45;PAKINFCES)+PAKNYWBFORMSH**PAKINFCES*(PAKNYWRTFORMCN*(1+PAKGGREVDRCTXN/100))**(1&#45;PAKINFCES))**(1/(1&#45;PAKINFCES)) $">
<polygon fill="#63b8ff" stroke="black" points="1929,-1043.8 1748,-1043.8 1748,-1007.8 1929,-1007.8 1929,-1043.8"/>
<text text-anchor="start" x="1754.5" y="-1021.6" font-family="Times New Roman,serif" font-size="14.00" fill="blue">PAKNYWRTTOTLCN:Wages</text>
</a>
</g>
</g>
<!-- PAKNYWRTINFMCN&#45;&gt;PAKNYWRTTOTLCN -->
<g id="edge32" class="edge">
<title>PAKNYWRTINFMCN&#45;&gt;PAKNYWRTTOTLCN</title>
<g id="a_edge32"><a xlink:href="bogus" xlink:title=" PAKNYWRTINFMCN &#45;&gt; PAKNYWRTTOTLCN Min. att. 79% &#160;max: 80%">
<path fill="none" stroke="black" stroke-width="7.95" d="M1559.72,-1069.26C1588.52,-1065.37 1619.43,-1061.06 1648,-1056.8 1677.2,-1052.45 1708.87,-1047.4 1737.82,-1042.65"/>
<polygon fill="black" stroke="black" stroke-width="7.95" points="1739.19,-1049.48 1747.93,-1040.99 1736.94,-1035.75 1739.19,-1049.48"/>
</a>
</g>
</g>
<!-- PAKNYGDPPOTLKN -->
<g id="node15" class="node">
<title>PAKNYGDPPOTLKN</title>
<g id="a_node15"><a xlink:title="Potential GDP&#10;FRML &#160;&lt;&gt; PAKNYGDPPOTLKN = PAKNYGDPTFP*(PAKLMEMPSTRLCN**PAKNYYWBTOTLCN_)*(PAKNEGDIKSTKKN(&#45;1)**(1&#45;PAKNYYWBTOTLCN_)) $">
<polygon fill="#63b8ff" stroke="black" points="1557,-993.8 1336,-993.8 1336,-957.8 1557,-957.8 1557,-993.8"/>
<text text-anchor="start" x="1342.5" y="-971.6" font-family="Times New Roman,serif" font-size="14.00" fill="blue">PAKNYGDPPOTLKN:Potential GDP</text>
</a>
</g>
</g>
<!-- PAKNYGDPPOTLKN&#45;&gt;PAKLMEMPTOTLCN -->
<g id="edge6" class="edge">
<title>PAKNYGDPPOTLKN&#45;&gt;PAKLMEMPTOTLCN</title>
<g id="a_edge6"><a xlink:href="bogus" xlink:title=" PAKNYGDPPOTLKN &#45;&gt; PAKLMEMPTOTLCN Min. att. &#45;92% &#160;max: 605%">
<path fill="none" stroke="black" stroke-width="8" d="M1557.05,-972.15C1683.02,-967.94 1889.04,-961.07 2018.47,-956.74"/>
<polygon fill="black" stroke="black" stroke-width="8" points="2019.05,-963.73 2028.81,-956.4 2018.59,-949.74 2019.05,-963.73"/>
</a>
</g>
</g>
<!-- PAKNYGDPGAP_ -->
<g id="node22" class="node">
<title>PAKNYGDPGAP_</title>
<g id="a_node22"><a xlink:title="Output Gap (% of Potential GDP)&#10;FRML &#160;&lt;&gt; PAKNYGDPGAP_ = ((PAKNYGDPMKTPKN/PAKNYGDPPOTLKN&#45;1)*100) $">
<polygon fill="#63b8ff" stroke="black" points="1993,-781.8 1684,-781.8 1684,-745.8 1993,-745.8 1993,-781.8"/>
<text text-anchor="start" x="1690.5" y="-759.6" font-family="Times New Roman,serif" font-size="14.00" fill="blue">PAKNYGDPGAP_:Output Gap (% of Potential GDP)</text>
</a>
</g>
</g>
<!-- PAKNYGDPPOTLKN&#45;&gt;PAKNYGDPGAP_ -->
<g id="edge16" class="edge">
<title>PAKNYGDPPOTLKN&#45;&gt;PAKNYGDPGAP_</title>
<g id="a_edge16"><a xlink:href="bogus" xlink:title=" PAKNYGDPPOTLKN &#45;&gt; PAKNYGDPGAP_ Min. att. &#45;129220% &#160;max: 79383%">
<path fill="none" stroke="black" stroke-width="8" d="M1557,-976.23C1588.01,-972.43 1620.72,-964.43 1648,-948.8 1670.53,-935.9 1666.31,-921.81 1684,-902.8 1724.08,-859.74 1775.64,-814.94 1807.62,-788.21"/>
<polygon fill="black" stroke="black" stroke-width="8" points="1812.1,-793.6 1815.32,-781.82 1803.15,-782.83 1812.1,-793.6"/>
</a>
</g>
</g>
<!-- PAKFMLBLPOLYXN -->
<g id="node16" class="node">
<title>PAKFMLBLPOLYXN</title>
<g id="a_node16"><a xlink:title="Policy Rate&#10;FRML &lt;Z,EXO&gt; PAKFMLBLPOLYXN = (&#45;100*PAKFMLBLPOLYXN_A+100* (0.905129162122953*PAKFMLBLPOLYXN(&#45;1)/100+(1&#45;0.905129162122953)*(PAKMPPOLNATRXN/100+1.2*(((LOG(PAKNECONPRVTXN))&#45;(LOG(PAKNECONPRVTXN(&#45;1))))&#45;PAKINFLEXPT/100)+0.5*PAKNYGDPGAP_/100)) ) * (1&#45;PAKFMLBLPOLYXN_D)+ PAKFMLBLPOLYXN_X*PAKFMLBLPOLYXN_D &#160;$">
<polygon fill="#63b8ff" stroke="black" points="2240,-577.8 2035,-577.8 2035,-541.8 2240,-541.8 2240,-577.8"/>
<text text-anchor="start" x="2041.5" y="-555.6" font-family="Times New Roman,serif" font-size="14.00" fill="blue">PAKFMLBLPOLYXN:Policy Rate</text>
</a>
</g>
</g>
<!-- PAKFMLBLPOLYXN&#45;&gt;PAKNECONPRVTKN -->
<g id="edge24" class="edge">
<title>PAKFMLBLPOLYXN&#45;&gt;PAKNECONPRVTKN</title>
<g id="a_edge24"><a xlink:href="bogus" xlink:title=" PAKFMLBLPOLYXN &#45;&gt; PAKNECONPRVTKN Min. att. &#45;160% &#160;max: 20%">
<path fill="none" stroke="black" stroke-width="8" d="M2034.76,-568C1868.38,-579.29 1528.23,-593.53 1245,-548.8 1204.2,-542.36 1159.74,-528.44 1125.97,-516.34"/>
<polygon fill="black" stroke="black" stroke-width="8" points="1128.09,-509.66 1116.3,-512.82 1123.3,-522.82 1128.09,-509.66"/>
</a>
</g>
</g>
<!-- PAKNEIMPGNFSXN -->
<g id="node18" class="node">
<title>PAKNEIMPGNFSXN</title>
<g id="a_node18"><a xlink:title="Imports (G&amp;S)&#10;FRML &#160;&lt;&gt; PAKNEIMPGNFSXN = ((PAKNEIMPENGYSH**PAKCESENGYIMPT)*PAKNVENGNIMPXN**(1&#45;PAKCESENGYIMPT)+(PAKNEIMPOTHRSH**PAKCESENGYIMPT)*PAKNEIMPGSNEXN**(1&#45;PAKCESENGYIMPT))**(1/(1&#45;PAKCESENGYIMPT)) $">
<polygon fill="#63b8ff" stroke="black" points="254.5,-300.8 31.5,-300.8 31.5,-264.8 254.5,-264.8 254.5,-300.8"/>
<text text-anchor="start" x="38" y="-278.6" font-family="Times New Roman,serif" font-size="14.00" fill="blue">PAKNEIMPGNFSXN:Imports (G&amp;S)</text>
</a>
</g>
</g>
<!-- PAKNECONOTHRXN -->
<g id="node21" class="node">
<title>PAKNECONOTHRXN</title>
<g id="a_node21"><a xlink:title="Non&#45;Energy Consumption&#10;FRML &lt;Z,EXO&gt; PAKNECONOTHRXN = (PAKNECONOTHRXN(&#45;1)*EXP(&#45;PAKNECONOTHRXN_A+ (0.598859116610832*((LOG(PAKNYGDPFCSTXN))&#45;(LOG(PAKNYGDPFCSTXN(&#45;1))))+((PAKGGREVGNFSXN/100)&#45;(PAKGGREVGNFSXN(&#45;1)/100))+(1&#45;0.598859116610832)*((LOG(PAKNEIMPGNFSXN))&#45;(LOG(PAKNEIMPGNFSXN(&#45;1))))+0.2*PAKNYGDPGAP_/100) )) * (1&#45;PAKNECONOTHRXN_D)+ PAKNECONOTHRXN_X*PAKNECONOTHRXN_D &#160;$">
<polygon fill="#63b8ff" stroke="black" points="611,-300.8 322,-300.8 322,-264.8 611,-264.8 611,-300.8"/>
<text text-anchor="start" x="328.5" y="-278.6" font-family="Times New Roman,serif" font-size="14.00" fill="blue">PAKNECONOTHRXN:Non&#45;Energy Consumption</text>
</a>
</g>
</g>
<!-- PAKNEIMPGNFSXN&#45;&gt;PAKNECONOTHRXN -->
<g id="edge2" class="edge">
<title>PAKNEIMPGNFSXN&#45;&gt;PAKNECONOTHRXN</title>
<g id="a_edge2"><a xlink:href="bogus" xlink:title=" PAKNEIMPGNFSXN &#45;&gt; PAKNECONOTHRXN Min. att. &#45;10% &#160;max: 114%">
<path fill="none" stroke="black" stroke-width="8" d="M254.64,-282.8C273.05,-282.8 292.43,-282.8 311.68,-282.8"/>
<polygon fill="black" stroke="black" stroke-width="8" points="311.72,-289.8 321.72,-282.8 311.72,-275.8 311.72,-289.8"/>
</a>
</g>
</g>
<!-- PAKNYGDPFCSTXN -->
<g id="node20" class="node">
<title>PAKNYGDPFCSTXN</title>
<g id="a_node20"><a xlink:title="GDP at factor cost&#10;FRML &lt;Z,EXO&gt; PAKNYGDPFCSTXN = (PAKNYGDPFCSTXN(&#45;1)*EXP(&#45;PAKNYGDPFCSTXN_A+ (0.6*((LOG(PAKNYGDPFCSTXN(&#45;1)))&#45;(LOG(PAKNYGDPFCSTXN(&#45;2))))+(1&#45;0.6)*(0.7*PAKINFLEXPT/100+(1&#45;0.7)*((LOG(PAKPSTAR(&#45;1)))&#45;(LOG(PAKPSTAR(&#45;2)))))+0.25*PAKNYGDPGAP_/100+0.262461811660072*DURING_2000&#45;0.205776950553378*DURING_2001) )) * (1&#45;PAKNYGDPFCSTXN_D)+ PAKNYGDPFCSTXN_X*PAKNYGDPFCSTXN_D &#160;$">
<polygon fill="#63b8ff" stroke="black" points="1959.5,-947.8 1717.5,-947.8 1717.5,-911.8 1959.5,-911.8 1959.5,-947.8"/>
<text text-anchor="start" x="1723.5" y="-925.6" font-family="Times New Roman,serif" font-size="14.00" fill="blue">PAKNYGDPFCSTXN:GDP at factor cost</text>
</a>
</g>
</g>
<!-- PAKNYGDPFCSTXN&#45;&gt;PAKLMEMPTOTLCN -->
<g id="edge25" class="edge">
<title>PAKNYGDPFCSTXN&#45;&gt;PAKLMEMPTOTLCN</title>
<g id="a_edge25"><a xlink:href="bogus" xlink:title=" PAKNYGDPFCSTXN &#45;&gt; PAKLMEMPTOTLCN Min. att. &#45;128% &#160;max: 59%">
<path fill="none" stroke="black" stroke-width="8" d="M1959.87,-939.13C1979.32,-940.63 1999.43,-942.19 2018.81,-943.69"/>
<polygon fill="black" stroke="black" stroke-width="8" points="2018.36,-950.68 2028.87,-944.47 2019.44,-936.72 2018.36,-950.68"/>
</a>
</g>
</g>
<!-- PAKNECONPRVTXN -->
<g id="node23" class="node">
<title>PAKNECONPRVTXN</title>
<g id="a_node23"><a xlink:title="Household demand&#10;FRML &#160;&lt;&gt; PAKNECONPRVTXN = ((PAKNECONENGYSH**PAKCESENGYCON)*PAKNECONENGYXN**(1&#45;PAKCESENGYCON)+(PAKNECONOTHRSH**PAKCESENGYCON)*PAKNECONOTHRXN**(1&#45;PAKCESENGYCON))**(1/(1&#45;PAKCESENGYCON)) $">
<polygon fill="#63b8ff" stroke="black" points="895,-273.8 647,-273.8 647,-237.8 895,-237.8 895,-273.8"/>
<text text-anchor="start" x="653" y="-251.6" font-family="Times New Roman,serif" font-size="14.00" fill="blue">PAKNECONPRVTXN:Household demand</text>
</a>
</g>
</g>
<!-- PAKNECONOTHRXN&#45;&gt;PAKNECONPRVTXN -->
<g id="edge30" class="edge">
<title>PAKNECONOTHRXN&#45;&gt;PAKNECONPRVTXN</title>
<g id="a_edge30"><a xlink:href="bogus" xlink:title=" PAKNECONOTHRXN &#45;&gt; PAKNECONPRVTXN Min. att. 71% &#160;max: 99%">
<path fill="none" stroke="black" stroke-width="8" d="M611.22,-269.98C619.67,-269.22 628.16,-268.47 636.57,-267.71"/>
<polygon fill="black" stroke="black" stroke-width="8" points="637.44,-274.66 646.78,-266.8 636.2,-260.72 637.44,-274.66"/>
</a>
</g>
</g>
<!-- PAKNYGDPGAP_&#45;&gt;PAKLMEMPTOTLCN -->
<g id="edge14" class="edge">
<title>PAKNYGDPGAP_&#45;&gt;PAKLMEMPTOTLCN</title>
<g id="a_edge14"><a xlink:href="bogus" xlink:title=" PAKNYGDPGAP_ &#45;&gt; PAKLMEMPTOTLCN Min. att. &#45;362% &#160;max: 147%">
<path fill="none" stroke="black" stroke-width="8" d="M1867.98,-781.93C1921.97,-816.29 2039.21,-890.89 2099.32,-929.14"/>
<polygon fill="black" stroke="black" stroke-width="8" points="2095.91,-935.27 2108.11,-934.74 2103.43,-923.46 2095.91,-935.27"/>
</a>
</g>
</g>
<!-- PAKNYGDPGAP_&#45;&gt;PAKFMLBLPOLYXN -->
<g id="edge20" class="edge">
<title>PAKNYGDPGAP_&#45;&gt;PAKFMLBLPOLYXN</title>
<g id="a_edge20"><a xlink:href="bogus" xlink:title=" PAKNYGDPGAP_ &#45;&gt; PAKFMLBLPOLYXN Min. att. &#45;15% &#160;max: 83%">
<path fill="none" stroke="black" stroke-width="8" d="M1865.86,-745.7C1919.58,-708.8 2041.71,-624.91 2101.8,-583.64"/>
<polygon fill="black" stroke="black" stroke-width="8" points="2105.92,-589.3 2110.2,-577.87 2098,-577.76 2105.92,-589.3"/>
</a>
</g>
</g>
<!-- PAKNECONPRVTXN&#45;&gt;PAKNECONPRVTKN -->
<g id="edge1" class="edge">
<title>PAKNECONPRVTXN&#45;&gt;PAKNECONPRVTKN</title>
<g id="a_edge1"><a xlink:href="bogus" xlink:title=" PAKNECONPRVTXN &#45;&gt; PAKNECONPRVTKN Min. att. &#45;5706% &#160;max: 593%">
<path fill="none" stroke="black" stroke-width="8" d="M794.81,-274.16C847.74,-316.76 978.92,-422.32 1038.59,-470.33"/>
<polygon fill="black" stroke="black" stroke-width="8" points="1034.34,-475.9 1046.52,-476.71 1043.11,-464.99 1034.34,-475.9"/>
</a>
</g>
</g>
<!-- PAKNECONPRVTXN&#45;&gt;PAKFMLBLPOLYXN -->
<g id="edge3" class="edge">
<title>PAKNECONPRVTXN&#45;&gt;PAKFMLBLPOLYXN</title>
<g id="a_edge3"><a xlink:href="bogus" xlink:title=" PAKNECONPRVTXN &#45;&gt; PAKFMLBLPOLYXN Min. att. &#45;94% &#160;max: 1462%">
<path fill="none" stroke="black" stroke-width="8" d="M800.35,-237.57C912.19,-168.08 1332.04,69.67 1648,-62.8 1887.5,-163.22 2068.81,-444.67 2121.13,-532.96"/>
<polygon fill="black" stroke="black" stroke-width="8" points="2115.1,-536.51 2126.2,-541.59 2127.17,-529.42 2115.1,-536.51"/>
</a>
</g>
</g>
<!-- PAKNECONENGYXN -->
<g id="node24" class="node">
<title>PAKNECONENGYXN</title>
<g id="a_node24"><a xlink:title="Energy Consumption&#10;FRML &lt;Z,EXO&gt; PAKNECONENGYXN = (PAKNECONENGYXN(&#45;1)*EXP(&#45;PAKNECONENGYXN_A+ (((LOG(PAKNECONENGYGN))&#45;(LOG(PAKNECONENGYGN(&#45;1))))+0.0550557534575806*DUMH) )) * (1&#45;PAKNECONENGYXN_D)+ PAKNECONENGYXN_X*PAKNECONENGYXN_D &#160;$">
<polygon fill="#63b8ff" stroke="black" points="597.5,-246.8 335.5,-246.8 335.5,-210.8 597.5,-210.8 597.5,-246.8"/>
<text text-anchor="start" x="341.5" y="-224.6" font-family="Times New Roman,serif" font-size="14.00" fill="blue">PAKNECONENGYXN:Energy Consumption</text>
</a>
</g>
</g>
<!-- PAKNECONENGYXN&#45;&gt;PAKNECONPRVTXN -->
<g id="edge28" class="edge">
<title>PAKNECONENGYXN&#45;&gt;PAKNECONPRVTXN</title>
<g id="a_edge28"><a xlink:href="bogus" xlink:title=" PAKNECONENGYXN &#45;&gt; PAKNECONPRVTXN Min. att. 1% &#160;max: 29%">
<path fill="none" stroke="black" stroke-width="2.91" d="M597.54,-240.41C610.43,-241.56 623.53,-242.73 636.45,-243.88"/>
<polygon fill="black" stroke="black" stroke-width="2.91" points="636.5,-247.4 646.77,-244.81 637.12,-240.43 636.5,-247.4"/>
</a>
</g>
</g>
<!-- PAKNYWRTTOTLCN&#45;&gt;PAKNYYWBTOTLCN -->
<g id="edge10" class="edge">
<title>PAKNYWRTTOTLCN&#45;&gt;PAKNYYWBTOTLCN</title>
<g id="a_edge10"><a xlink:href="bogus" xlink:title=" PAKNYWRTTOTLCN &#45;&gt; PAKNYYWBTOTLCN Min. att. 16% &#160;max: 106%">
<path fill="none" stroke="black" stroke-width="8" d="M1929.23,-1016.65C2011.68,-1008 2137.22,-994.23 2246,-979.8 2263.34,-977.51 2281.6,-974.92 2299.55,-972.28"/>
<polygon fill="black" stroke="black" stroke-width="8" points="2300.62,-979.2 2309.49,-970.81 2298.57,-965.35 2300.62,-979.2"/>
</a>
</g>
</g>
<!-- PAKNYWRTTOTLCN&#45;&gt;PAKLMEMPTOTLCN -->
<g id="edge21" class="edge">
<title>PAKNYWRTTOTLCN&#45;&gt;PAKLMEMPTOTLCN</title>
<g id="a_edge21"><a xlink:href="bogus" xlink:title=" PAKNYWRTTOTLCN &#45;&gt; PAKLMEMPTOTLCN Min. att. &#45;1554% &#160;max: 236%">
<path fill="none" stroke="black" stroke-width="8" d="M1918.06,-1007.73C1942.14,-1002.1 1968.68,-995.79 1993,-989.8 2014.03,-984.63 2036.74,-978.86 2057.76,-973.44"/>
<polygon fill="black" stroke="black" stroke-width="8" points="2059.67,-980.18 2067.6,-970.9 2056.17,-966.62 2059.67,-980.18"/>
</a>
</g>
</g>
<!-- PAKNYWRTFORMCN -->
<g id="node27" class="node">
<title>PAKNYWRTFORMCN</title>
<g id="a_node27"><a xlink:title="Formal wage&#10;FRML &lt;Z,EXO&gt; PAKNYWRTFORMCN = (PAKNYWRTFORMCN(&#45;1)*EXP(&#45;PAKNYWRTFORMCN_A+ (&#45;0.120164450250183&#45;0.3*(LOG(PAKNYWRTFORMCN(&#45;1))&#45;LOG(PAKNYGDPFCSTXN(&#45;1))&#45;LOG(PAKNYGDPPOTLKN(&#45;1)/PAKLMEMPSTRLCN(&#45;1)))+0.2*((LOG(PAKNYWRTFORMCN(&#45;1)))&#45;(LOG(PAKNYWRTFORMCN(&#45;2))))+(1&#45;0.2)*(0.5*((LOG(PAKNYGDPFCSTXN(&#45;1)))&#45;(LOG(PAKNYGDPFCSTXN(&#45;2))))+0.5*(PAKINFLEXPT/100)+((LOG(PAKNYGDPMKTPKN/PAKLMEMPSTRLCN))&#45;(LOG(PAKNYGDPMKTPKN(&#45;1)/PAKLMEMPSTRLCN(&#45;1)))))&#45;0.2*(PAKLMUNRTOTLCN&#45;PAKLMUNRSTRLCN)/100+0.15233813938029*DURING_2000&#45;0.183411483907703*DURING_2001) )) * (1&#45;PAKNYWRTFORMCN_D)+ PAKNYWRTFORMCN_X*PAKNYWRTFORMCN_D &#160;$">
<polygon fill="#63b8ff" stroke="black" points="1557.5,-1047.8 1335.5,-1047.8 1335.5,-1011.8 1557.5,-1011.8 1557.5,-1047.8"/>
<text text-anchor="start" x="1341.5" y="-1025.6" font-family="Times New Roman,serif" font-size="14.00" fill="blue">PAKNYWRTFORMCN:Formal wage</text>
</a>
</g>
</g>
<!-- PAKNYWRTFORMCN&#45;&gt;PAKNYWRTTOTLCN -->
<g id="edge9" class="edge">
<title>PAKNYWRTFORMCN&#45;&gt;PAKNYWRTTOTLCN</title>
<g id="a_edge9"><a xlink:href="bogus" xlink:title=" PAKNYWRTFORMCN &#45;&gt; PAKNYWRTTOTLCN Min. att. 21% &#160;max: 21%">
<path fill="none" stroke="black" stroke-width="2.13" d="M1557.69,-1028.67C1614.31,-1028.09 1682.78,-1027.39 1737.81,-1026.83"/>
<polygon fill="black" stroke="black" stroke-width="2.13" points="1737.96,-1030.33 1747.92,-1026.72 1737.89,-1023.33 1737.96,-1030.33"/>
</a>
</g>
</g>
<!-- PAKNYGDPMKTPKN&#45;&gt;PAKNYGDPGAP_ -->
<g id="edge31" class="edge">
<title>PAKNYGDPMKTPKN&#45;&gt;PAKNYGDPGAP_</title>
<g id="a_edge31"><a xlink:href="bogus" xlink:title=" PAKNYGDPMKTPKN &#45;&gt; PAKNYGDPGAP_ Min. att. &#45;78553% &#160;max: 128142%">
<path fill="none" stroke="black" stroke-width="8" d="M1611.08,-669.84C1623.66,-672.44 1636.09,-675.41 1648,-678.8 1701.06,-693.93 1758.4,-721.35 1795.94,-740.96"/>
<polygon fill="black" stroke="black" stroke-width="8" points="1792.94,-747.28 1805.05,-745.76 1799.47,-734.9 1792.94,-747.28"/>
</a>
</g>
</g>
<!-- PAKNECONENGYGN -->
<g id="node30" class="node">
<title>PAKNECONENGYGN</title>
<g id="a_node30"><a xlink:title="Net consumption deflator&#10;FRML &#160;&lt;&gt; PAKNECONENGYGN = (PAKNVCOLPRODSH**(PAKCESENGYPROD)*(PAKNVCOLPRODGN)**(1&#45;PAKCESENGYPROD)+PAKNVGASPRODSH**(PAKCESENGYPROD)*(PAKNVGASPRODGN)**(1&#45;PAKCESENGYPROD)+PAKNVOILPRODSH**(PAKCESENGYPROD)*(PAKNVOILPRODGN)**(1&#45;PAKCESENGYPROD)+PAKNVRENPRODSH**(PAKCESENGYPROD)*(PAKNVRENPRODXN)**(1&#45;PAKCESENGYPROD))**(1/(1&#45;PAKCESENGYPROD)) $">
<polygon fill="#63b8ff" stroke="black" points="286,-246.8 0,-246.8 0,-210.8 286,-210.8 286,-246.8"/>
<text text-anchor="start" x="6" y="-224.6" font-family="Times New Roman,serif" font-size="14.00" fill="blue">PAKNECONENGYGN:Net consumption deflator</text>
</a>
</g>
</g>
<!-- PAKNECONENGYGN&#45;&gt;PAKNECONENGYXN -->
<g id="edge33" class="edge">
<title>PAKNECONENGYGN&#45;&gt;PAKNECONENGYXN</title>
<g id="a_edge33"><a xlink:href="bogus" xlink:title=" PAKNECONENGYGN &#45;&gt; PAKNECONENGYXN Min. att. &#45;39% &#160;max: 100%">
<path fill="none" stroke="black" stroke-width="8" d="M286.42,-228.8C299.27,-228.8 312.29,-228.8 325.13,-228.8"/>
<polygon fill="black" stroke="black" stroke-width="8" points="325.38,-235.8 335.38,-228.8 325.38,-221.8 325.38,-235.8"/>
</a>
</g>
</g>
</g>
</svg>
