<?xml version="1.0" encoding="UTF-8" standalone="no"?>
<!DOCTYPE svg PUBLIC "-//W3C//DTD SVG 1.1//EN"
 "http://www.w3.org/Graphics/SVG/1.1/DTD/svg11.dtd">
<!-- Generated by graphviz version 6.0.1 (0)
 -->
<!-- Title: TD Pages: 1 -->
<svg width="432pt" height="185pt"
 viewBox="0.00 0.00 432.00 185.20" xmlns="http://www.w3.org/2000/svg" xmlns:xlink="http://www.w3.org/1999/xlink">
<g id="graph0" class="graph" transform="scale(0.167767 0.167767) rotate(0) translate(4 1099.93)">
<title>TD</title>
<polygon fill="white" stroke="none" points="-4,4 -4,-1099.93 2571,-1099.93 2571,4 -4,4"/>
<text text-anchor="middle" x="1283.5" y="-7.8" font-family="Times New Roman,serif" font-size="14.00">PAKNECONPRVTKN</text>
<!-- PAKSMSRVTRNSKN -->
<g id="node1" class="node">
<title>PAKSMSRVTRNSKN</title>
<g id="a_node1"><a xlink:title="PAKSMSRVTRNSKN&#10;FRML &#160;&lt;&gt; PAKSMSRVTRNSKN = ((1+0.301074862860981)*(0.204687752761289*PAKNECONPRVTKN+0*PAKNECONGOVTKN+0*PAKNEGDIFTOTKN+0.0551862611209703*PAKNEEXPGNFSKN+0*PAKNEGDISTKBKN)&#45;&#45;0.0392641863572605*PAKNEIMPGNFSKN&#45;0.0174996684619017*PAKNYTAXNINDKN&#45;0)/(1+1.11680986862739) $">
<polygon fill="#63b8ff" stroke="black" points="1517.5,-167 1375.5,-167 1375.5,-131 1517.5,-131 1517.5,-167"/>
<text text-anchor="start" x="1381.5" y="-144.8" font-family="Times New Roman,serif" font-size="14.00" fill="blue">PAKSMSRVTRNSKN:</text>
</a>
</g>
</g>
<!-- PAKNYGDPPOTLKN -->
<g id="node2" class="node">
<title>PAKNYGDPPOTLKN</title>
<g id="a_node2"><a xlink:title="Potential GDP&#10;FRML &#160;&lt;&gt; PAKNYGDPPOTLKN = PAKNYGDPTFP*(PAKLMEMPSTRLCN**PAKNYYWBTOTLCN_)*(PAKNEGDIKSTKKN(&#45;1)**(1&#45;PAKNYYWBTOTLCN_)) $">
<polygon fill="#63b8ff" stroke="black" points="1557,-437 1336,-437 1336,-401 1557,-401 1557,-437"/>
<text text-anchor="start" x="1342.5" y="-414.8" font-family="Times New Roman,serif" font-size="14.00" fill="blue">PAKNYGDPPOTLKN:Potential GDP</text>
</a>
</g>
</g>
<!-- PAKLMEMPTOTLCN -->
<g id="node5" class="node">
<title>PAKLMEMPTOTLCN</title>
<g id="a_node5"><a xlink:title="Employment&#10;FRML &lt;Z,EXO&gt; PAKLMEMPTOTLCN = (PAKLMEMPTOTLCN(&#45;1)*EXP(&#45;PAKLMEMPTOTLCN_A+ (&#45;0.345624644563667*(LOG(PAKLMEMPTOTLCN(&#45;1))&#45;LOG(PAKLMEMPSTRLCN(&#45;1)))&#45;0.1*(((LOG(PAKNYWRTTOTLCN/PAKNYGDPFCSTXN))&#45;(LOG(PAKNYWRTTOTLCN(&#45;1)/PAKNYGDPFCSTXN(&#45;1))))&#45;((LOG(PAKNYGDPPOTLKN/PAKLMEMPSTRLCN))&#45;(LOG(PAKNYGDPPOTLKN(&#45;1)/PAKLMEMPSTRLCN(&#45;1)))))&#45;0.0011790007645121+((LOG(PAKLMEMPSTRLCN))&#45;(LOG(PAKLMEMPSTRLCN(&#45;1))))+0.175412878170024*PAKNYGDPGAP_/100+0.0369790799942338*DURING_2010) )) * (1&#45;PAKLMEMPTOTLCN_D)+ PAKLMEMPTOTLCN_X*PAKLMEMPTOTLCN_D &#160;$">
<polygon fill="#63b8ff" stroke="black" points="2246,-424 2029,-424 2029,-388 2246,-388 2246,-424"/>
<text text-anchor="start" x="2035.5" y="-401.8" font-family="Times New Roman,serif" font-size="14.00" fill="blue">PAKLMEMPTOTLCN:Employment</text>
</a>
</g>
</g>
<!-- PAKNYGDPPOTLKN&#45;&gt;PAKLMEMPTOTLCN -->
<g id="edge7" class="edge">
<title>PAKNYGDPPOTLKN&#45;&gt;PAKLMEMPTOTLCN</title>
<g id="a_edge7"><a xlink:href="bogus" xlink:title=" PAKNYGDPPOTLKN &#45;&gt; PAKLMEMPTOTLCN Min. att. &#45;92% &#160;max: 605%">
<path fill="none" stroke="black" stroke-width="8" d="M1557.08,-403.86C1596.95,-399.05 1642.43,-394.37 1684,-392 1821.11,-384.2 1855.83,-385.32 1993,-392 2001.36,-392.41 2009.98,-392.95 2018.65,-393.58"/>
<polygon fill="black" stroke="black" stroke-width="8" points="2018.34,-400.57 2028.84,-394.35 2019.4,-386.61 2018.34,-400.57"/>
</a>
</g>
</g>
<!-- PAKNYGDPGAP_ -->
<g id="node6" class="node">
<title>PAKNYGDPGAP_</title>
<g id="a_node6"><a xlink:title="Output Gap (% of Potential GDP)&#10;FRML &#160;&lt;&gt; PAKNYGDPGAP_ = ((PAKNYGDPMKTPKN/PAKNYGDPPOTLKN&#45;1)*100) $">
<polygon fill="#63b8ff" stroke="black" points="1993,-491 1684,-491 1684,-455 1993,-455 1993,-491"/>
<text text-anchor="start" x="1690.5" y="-468.8" font-family="Times New Roman,serif" font-size="14.00" fill="blue">PAKNYGDPGAP_:Output Gap (% of Potential GDP)</text>
</a>
</g>
</g>
<!-- PAKNYGDPPOTLKN&#45;&gt;PAKNYGDPGAP_ -->
<g id="edge23" class="edge">
<title>PAKNYGDPPOTLKN&#45;&gt;PAKNYGDPGAP_</title>
<g id="a_edge23"><a xlink:href="bogus" xlink:title=" PAKNYGDPPOTLKN &#45;&gt; PAKNYGDPGAP_ Min. att. &#45;129220% &#160;max: 79383%">
<path fill="none" stroke="black" stroke-width="8" d="M1557.04,-433.6C1586.58,-437.57 1618.51,-441.91 1648,-446 1665.43,-448.41 1683.75,-450.99 1701.86,-453.55"/>
<polygon fill="black" stroke="black" stroke-width="8" points="1701,-460.49 1711.89,-454.96 1702.97,-446.63 1701,-460.49"/>
</a>
</g>
</g>
<!-- PAKSMSRVHSNGKN -->
<g id="node3" class="node">
<title>PAKSMSRVHSNGKN</title>
<g id="a_node3"><a xlink:title="PAKSMSRVHSNGKN&#10;FRML &#160;&lt;&gt; PAKSMSRVHSNGKN = ((1+0.782809577554843)*(0.0647364660896117*PAKNECONPRVTKN+0*PAKNECONGOVTKN+0.00605333595533851*PAKNEGDIFTOTKN+0.03048358523237*PAKNEEXPGNFSKN+0*PAKNEGDISTKBKN)&#45;0.0244768173208691*PAKNEIMPGNFSKN&#45;0.0684093628903126*PAKNYTAXNINDKN&#45;0)/(1+0.150771193398883) $">
<polygon fill="#63b8ff" stroke="black" points="1519,-59 1374,-59 1374,-23 1519,-23 1519,-59"/>
<text text-anchor="start" x="1380.5" y="-36.8" font-family="Times New Roman,serif" font-size="14.00" fill="blue">PAKSMSRVHSNGKN:</text>
</a>
</g>
</g>
<!-- PAKSMINDMNGSKN -->
<g id="node4" class="node">
<title>PAKSMINDMNGSKN</title>
<g id="a_node4"><a xlink:title="PAKSMINDMNGSKN&#10;FRML &#160;&lt;&gt; PAKSMINDMNGSKN = ((1+6.96158341862144)*(0.0132800565666619*PAKNECONPRVTKN+0*PAKNECONGOVTKN+0*PAKNEGDIFTOTKN+0.00704674623894759*PAKNEEXPGNFSKN+0.024122890632682*PAKNEGDISTKBKN)&#45;0.134221966110302*PAKNEIMPGNFSKN&#45;0.500981557895139*PAKNYTAXNINDKN&#45;123652.869264758)/(1+0.200800622280983) $">
<polygon fill="#63b8ff" stroke="black" points="1519.5,-1015 1373.5,-1015 1373.5,-979 1519.5,-979 1519.5,-1015"/>
<text text-anchor="start" x="1379.5" y="-992.8" font-family="Times New Roman,serif" font-size="14.00" fill="blue">PAKSMINDMNGSKN:</text>
</a>
</g>
</g>
<!-- PAKNYYWBTOTLCN -->
<g id="node8" class="node">
<title>PAKNYYWBTOTLCN</title>
<g id="a_node8"><a xlink:title="Economy&#45;wide wage bill&#10;FRML &#160;&lt;&gt; PAKNYYWBTOTLCN = PAKNYWRTTOTLCN*PAKLMEMPTOTLCN $">
<polygon fill="#63b8ff" stroke="black" points="2567,-424 2282,-424 2282,-388 2567,-388 2567,-424"/>
<text text-anchor="start" x="2288.5" y="-401.8" font-family="Times New Roman,serif" font-size="14.00" fill="blue">PAKNYYWBTOTLCN:Economy&#45;wide wage bill</text>
</a>
</g>
</g>
<!-- PAKLMEMPTOTLCN&#45;&gt;PAKNYYWBTOTLCN -->
<g id="edge18" class="edge">
<title>PAKLMEMPTOTLCN&#45;&gt;PAKNYYWBTOTLCN</title>
<g id="a_edge18"><a xlink:href="bogus" xlink:title=" PAKLMEMPTOTLCN &#45;&gt; PAKNYYWBTOTLCN Min. att. &#45;6% &#160;max: 84%">
<path fill="none" stroke="black" stroke-width="8" d="M2246.25,-406C2254.63,-406 2263.19,-406 2271.79,-406"/>
<polygon fill="black" stroke="black" stroke-width="8" points="2271.89,-413 2281.89,-406 2271.89,-399 2271.89,-413"/>
</a>
</g>
</g>
<!-- PAKNYGDPGAP_&#45;&gt;PAKLMEMPTOTLCN -->
<g id="edge21" class="edge">
<title>PAKNYGDPGAP_&#45;&gt;PAKLMEMPTOTLCN</title>
<g id="a_edge21"><a xlink:href="bogus" xlink:title=" PAKNYGDPGAP_ &#45;&gt; PAKLMEMPTOTLCN Min. att. &#45;362% &#160;max: 147%">
<path fill="none" stroke="black" stroke-width="8" d="M1949.6,-454.97C1964.24,-452.19 1979.01,-449.17 1993,-446 2017.28,-440.5 2043.58,-433.48 2066.96,-426.86"/>
<polygon fill="black" stroke="black" stroke-width="8" points="2069.09,-433.53 2076.79,-424.05 2065.25,-420.07 2069.09,-433.53"/>
</a>
</g>
</g>
<!-- PAKFMLBLPOLYXN -->
<g id="node7" class="node">
<title>PAKFMLBLPOLYXN</title>
<g id="a_node7"><a xlink:title="Policy Rate&#10;FRML &lt;Z,EXO&gt; PAKFMLBLPOLYXN = (&#45;100*PAKFMLBLPOLYXN_A+100* (0.905129162122953*PAKFMLBLPOLYXN(&#45;1)/100+(1&#45;0.905129162122953)*(PAKMPPOLNATRXN/100+1.2*(((LOG(PAKNECONPRVTXN))&#45;(LOG(PAKNECONPRVTXN(&#45;1))))&#45;PAKINFLEXPT/100)+0.5*PAKNYGDPGAP_/100)) ) * (1&#45;PAKFMLBLPOLYXN_D)+ PAKFMLBLPOLYXN_X*PAKFMLBLPOLYXN_D &#160;$">
<polygon fill="#63b8ff" stroke="black" points="2240,-1061 2035,-1061 2035,-1025 2240,-1025 2240,-1061"/>
<text text-anchor="start" x="2041.5" y="-1038.8" font-family="Times New Roman,serif" font-size="14.00" fill="blue">PAKFMLBLPOLYXN:Policy Rate</text>
</a>
</g>
</g>
<!-- PAKNYGDPGAP_&#45;&gt;PAKFMLBLPOLYXN -->
<g id="edge24" class="edge">
<title>PAKNYGDPGAP_&#45;&gt;PAKFMLBLPOLYXN</title>
<g id="a_edge24"><a xlink:href="bogus" xlink:title=" PAKNYGDPGAP_ &#45;&gt; PAKFMLBLPOLYXN Min. att. &#45;15% &#160;max: 83%">
<path fill="none" stroke="black" stroke-width="8" d="M1848.88,-491C1891.92,-573.6 2070.59,-916.51 2122.38,-1015.9"/>
<polygon fill="black" stroke="black" stroke-width="8" points="2116.29,-1019.36 2127.12,-1025 2128.71,-1012.89 2116.29,-1019.36"/>
</a>
</g>
</g>
<!-- PAKNECONPRVTKN -->
<g id="node26" class="node">
<title>PAKNECONPRVTKN</title>
<g id="a_node26"><a xlink:title="Household Consumption&#10;FRML &lt;Z,EXO&gt; PAKNECONPRVTKN = (PAKNECONPRVTKN(&#45;1)*EXP(&#45;PAKNECONPRVTKN_A+ (&#45;0.2*(LOG(PAKNECONPRVTKN(&#45;1))&#45;LOG((PAKNYYWBTOTLCN(&#45;1)*(1&#45;PAKGGREVDRCTXN(&#45;1)/100))/PAKNECONPRVTXN(&#45;1)))+1*((LOG((PAKNYYWBTOTLCN*(1&#45;PAKGGREVDRCTXN/100))/PAKNECONPRVTXN))&#45;(LOG((PAKNYYWBTOTLCN(&#45;1)*(1&#45;PAKGGREVDRCTXN(&#45;1)/100))/PAKNECONPRVTXN(&#45;1))))+0.0303228629698929+0.0163839011059956*DURING_2010&#45;0.3*(PAKFMLBLPOLYXN/100&#45;((LOG(PAKNECONPRVTXN))&#45;(LOG(PAKNECONPRVTXN(&#45;1)))))) )) * (1&#45;PAKNECONPRVTKN_D)+ PAKNECONPRVTKN_X*PAKNECONPRVTKN_D &#160;$">
<polygon fill="red" stroke="black" points="1209,-664 931,-664 931,-628 1209,-628 1209,-664"/>
<text text-anchor="start" x="937" y="-641.8" font-family="Times New Roman,serif" font-size="14.00" fill="blue">PAKNECONPRVTKN:Household Consumption</text>
</a>
</g>
</g>
<!-- PAKFMLBLPOLYXN&#45;&gt;PAKNECONPRVTKN -->
<g id="edge12" class="edge">
<title>PAKFMLBLPOLYXN&#45;&gt;PAKNECONPRVTKN</title>
<g id="a_edge12"><a xlink:href="bogus" xlink:title=" PAKFMLBLPOLYXN &#45;&gt; PAKNECONPRVTKN Min. att. &#45;160% &#160;max: 20%">
<path fill="none" stroke="black" stroke-width="8" d="M2034.83,-1046.82C1814.91,-1054.23 1309.57,-1066.34 1245,-1024 1120.59,-942.43 1083.74,-747.5 1074.09,-674.36"/>
<polygon fill="black" stroke="black" stroke-width="8" points="1080.99,-673.15 1072.81,-664.1 1067.1,-674.88 1080.99,-673.15"/>
</a>
</g>
</g>
<!-- PAKNYYWBTOTLCN&#45;&gt;PAKNECONPRVTKN -->
<g id="edge27" class="edge">
<title>PAKNYYWBTOTLCN&#45;&gt;PAKNECONPRVTKN</title>
<g id="a_edge27"><a xlink:href="bogus" xlink:title=" PAKNYYWBTOTLCN &#45;&gt; PAKNECONPRVTKN Min. att. &#45;594% &#160;max: 5821%">
<path fill="none" stroke="black" stroke-width="8" d="M2356.99,-424.09C2272.92,-446.13 2123.42,-482.57 1993,-500 1828.03,-522.05 1403.85,-488.32 1245,-538 1188.85,-555.56 1132.59,-595.55 1099.82,-621.63"/>
<polygon fill="black" stroke="black" stroke-width="8" points="1095.39,-616.21 1092.01,-627.93 1104.19,-627.1 1095.39,-616.21"/>
</a>
</g>
</g>
<!-- PAKSMSRVFINSKN -->
<g id="node9" class="node">
<title>PAKSMSRVFINSKN</title>
<g id="a_node9"><a xlink:title="PAKSMSRVFINSKN&#10;FRML &#160;&lt;&gt; PAKSMSRVFINSKN = ((1+1.04148314760779)*(0.0520379651885469*PAKNECONPRVTKN+0*PAKNECONGOVTKN+0*PAKNEGDIFTOTKN+0.00879145012359898*PAKNEEXPGNFSKN+0*PAKNEGDISTKBKN)&#45;0.00594416979264236*PAKNEIMPGNFSKN&#45;0.000103762679145856*PAKNYTAXNINDKN&#45;0)/(1+0.24687745523084) $">
<polygon fill="#63b8ff" stroke="black" points="1515,-961 1378,-961 1378,-925 1515,-925 1515,-961"/>
<text text-anchor="start" x="1384.5" y="-938.8" font-family="Times New Roman,serif" font-size="14.00" fill="blue">PAKSMSRVFINSKN:</text>
</a>
</g>
</g>
<!-- PAKSMAGRCRPSKN -->
<g id="node10" class="node">
<title>PAKSMAGRCRPSKN</title>
<g id="a_node10"><a xlink:title="PAKSMAGRCRPSKN&#10;FRML &#160;&lt;&gt; PAKSMAGRCRPSKN = ((1+2.09928590574241)*(0.144287620838506*PAKNECONPRVTKN+0*PAKNECONGOVTKN+0*PAKNEGDIFTOTKN+0.0572678299039023*PAKNEEXPGNFSKN+0.267381669083985*PAKNEGDISTKBKN)&#45;0.0736247088197363*PAKNEIMPGNFSKN&#45;0.0407034395686347*PAKNYTAXNINDKN&#45;906311)/(1+0.396041694659877) $">
<polygon fill="#63b8ff" stroke="black" points="1518.5,-907 1374.5,-907 1374.5,-871 1518.5,-871 1518.5,-907"/>
<text text-anchor="start" x="1380.5" y="-884.8" font-family="Times New Roman,serif" font-size="14.00" fill="blue">PAKSMAGRCRPSKN:</text>
</a>
</g>
</g>
<!-- PAKNECONENGYGN -->
<g id="node11" class="node">
<title>PAKNECONENGYGN</title>
<g id="a_node11"><a xlink:title="Net consumption deflator&#10;FRML &#160;&lt;&gt; PAKNECONENGYGN = (PAKNVCOLPRODSH**(PAKCESENGYPROD)*(PAKNVCOLPRODGN)**(1&#45;PAKCESENGYPROD)+PAKNVGASPRODSH**(PAKCESENGYPROD)*(PAKNVGASPRODGN)**(1&#45;PAKCESENGYPROD)+PAKNVOILPRODSH**(PAKCESENGYPROD)*(PAKNVOILPRODGN)**(1&#45;PAKCESENGYPROD)+PAKNVRENPRODSH**(PAKCESENGYPROD)*(PAKNVRENPRODXN)**(1&#45;PAKCESENGYPROD))**(1/(1&#45;PAKCESENGYPROD)) $">
<polygon fill="#63b8ff" stroke="black" points="286,-895 0,-895 0,-859 286,-859 286,-895"/>
<text text-anchor="start" x="6" y="-872.8" font-family="Times New Roman,serif" font-size="14.00" fill="blue">PAKNECONENGYGN:Net consumption deflator</text>
</a>
</g>
</g>
<!-- PAKNECONENGYXN -->
<g id="node18" class="node">
<title>PAKNECONENGYXN</title>
<g id="a_node18"><a xlink:title="Energy Consumption&#10;FRML &lt;Z,EXO&gt; PAKNECONENGYXN = (PAKNECONENGYXN(&#45;1)*EXP(&#45;PAKNECONENGYXN_A+ (((LOG(PAKNECONENGYGN))&#45;(LOG(PAKNECONENGYGN(&#45;1))))+0.0550557534575806*DUMH) )) * (1&#45;PAKNECONENGYXN_D)+ PAKNECONENGYXN_X*PAKNECONENGYXN_D &#160;$">
<polygon fill="#63b8ff" stroke="black" points="597.5,-895 335.5,-895 335.5,-859 597.5,-859 597.5,-895"/>
<text text-anchor="start" x="341.5" y="-872.8" font-family="Times New Roman,serif" font-size="14.00" fill="blue">PAKNECONENGYXN:Energy Consumption</text>
</a>
</g>
</g>
<!-- PAKNECONENGYGN&#45;&gt;PAKNECONENGYXN -->
<g id="edge4" class="edge">
<title>PAKNECONENGYGN&#45;&gt;PAKNECONENGYXN</title>
<g id="a_edge4"><a xlink:href="bogus" xlink:title=" PAKNECONENGYGN &#45;&gt; PAKNECONENGYXN Min. att. &#45;39% &#160;max: 100%">
<path fill="none" stroke="black" stroke-width="8" d="M286.42,-877C299.27,-877 312.29,-877 325.13,-877"/>
<polygon fill="black" stroke="black" stroke-width="8" points="325.38,-884 335.38,-877 325.38,-870 325.38,-884"/>
</a>
</g>
</g>
<!-- PAKSMINDOTHRTKN -->
<g id="node12" class="node">
<title>PAKSMINDOTHRTKN</title>
<g id="a_node12"><a xlink:title="PAKSMINDOTHRTKN&#10;FRML &#160;&lt;&gt; PAKSMINDOTHRTKN = ((1+0.483473985412524)*(0.40172973397176*PAKNECONPRVTKN+0*PAKNECONGOVTKN+0.560459287907094*PAKNEGDIFTOTKN+0.719299486591763*PAKNEEXPGNFSKN+0.620970563578771*PAKNEGDISTKBKN)&#45;0.606734386430279*PAKNEIMPGNFSKN&#45;0.866045585295928*PAKNYTAXNINDKN&#45;2983275.63714814)/(1+2.46379868577176) $">
<polygon fill="#63b8ff" stroke="black" points="1522,-853 1371,-853 1371,-817 1522,-817 1522,-853"/>
<text text-anchor="start" x="1377.5" y="-830.8" font-family="Times New Roman,serif" font-size="14.00" fill="blue">PAKSMINDOTHRTKN:</text>
</a>
</g>
</g>
<!-- PAKSMAGRFSNGKN -->
<g id="node13" class="node">
<title>PAKSMAGRFSNGKN</title>
<g id="a_node13"><a xlink:title="PAKSMAGRFSNGKN&#10;FRML &#160;&lt;&gt; PAKSMAGRFSNGKN = ((1+1.92407325889309)*(0.00246195499563977*PAKNECONPRVTKN+0*PAKNECONGOVTKN+0*PAKNEGDIFTOTKN+0.00130433854799597*PAKNEEXPGNFSKN+0.00497657560072267*PAKNEGDISTKBKN)&#45;1.14989260682794E&#45;05*PAKNEIMPGNFSKN&#45;2.46467171367829E&#45;07*PAKNYTAXNINDKN&#45;26993)/(1+0.506095544048804) $">
<polygon fill="#63b8ff" stroke="black" points="1519,-799 1374,-799 1374,-763 1519,-763 1519,-799"/>
<text text-anchor="start" x="1380.5" y="-776.8" font-family="Times New Roman,serif" font-size="14.00" fill="blue">PAKSMAGRFSNGKN:</text>
</a>
</g>
</g>
<!-- PAKNYGDPMKTPKN -->
<g id="node14" class="node">
<title>PAKNYGDPMKTPKN</title>
<g id="a_node14"><a xlink:title="GDP Expenditure side at market prices&#10;FRML &#160;&lt;&gt; PAKNYGDPMKTPKN = PAKNECONPRVTKN+PAKNECONGOVTKN+PAKNEGDIFTOTKN+PAKNEGDISTKBKN+PAKNEEXPGNFSKN&#45;PAKNEIMPGNFSKN+PAKNYGDPDISCKN+PAKADAP*PAKDISPREPKN $">
<polygon fill="#63b8ff" stroke="black" points="1627,-491 1266,-491 1266,-455 1627,-455 1627,-491"/>
<text text-anchor="start" x="1272.5" y="-468.8" font-family="Times New Roman,serif" font-size="14.00" fill="blue">PAKNYGDPMKTPKN:GDP Expenditure side at market prices</text>
</a>
</g>
</g>
<!-- PAKNYGDPMKTPKN&#45;&gt;PAKNYGDPGAP_ -->
<g id="edge25" class="edge">
<title>PAKNYGDPMKTPKN&#45;&gt;PAKNYGDPGAP_</title>
<g id="a_edge25"><a xlink:href="bogus" xlink:title=" PAKNYGDPMKTPKN &#45;&gt; PAKNYGDPGAP_ Min. att. &#45;78553% &#160;max: 128142%">
<path fill="none" stroke="black" stroke-width="8" d="M1627.09,-473C1642.67,-473 1658.38,-473 1673.82,-473"/>
<polygon fill="black" stroke="black" stroke-width="8" points="1673.93,-480 1683.93,-473 1673.93,-466 1673.93,-480"/>
</a>
</g>
</g>
<!-- PAKNEIMPGNFSXN -->
<g id="node15" class="node">
<title>PAKNEIMPGNFSXN</title>
<g id="a_node15"><a xlink:title="Imports (G&amp;S)&#10;FRML &#160;&lt;&gt; PAKNEIMPGNFSXN = ((PAKNEIMPENGYSH**PAKCESENGYIMPT)*PAKNVENGNIMPXN**(1&#45;PAKCESENGYIMPT)+(PAKNEIMPOTHRSH**PAKCESENGYIMPT)*PAKNEIMPGSNEXN**(1&#45;PAKCESENGYIMPT))**(1/(1&#45;PAKCESENGYIMPT)) $">
<polygon fill="#63b8ff" stroke="black" points="254.5,-841 31.5,-841 31.5,-805 254.5,-805 254.5,-841"/>
<text text-anchor="start" x="38" y="-818.8" font-family="Times New Roman,serif" font-size="14.00" fill="blue">PAKNEIMPGNFSXN:Imports (G&amp;S)</text>
</a>
</g>
</g>
<!-- PAKNECONOTHRXN -->
<g id="node20" class="node">
<title>PAKNECONOTHRXN</title>
<g id="a_node20"><a xlink:title="Non&#45;Energy Consumption&#10;FRML &lt;Z,EXO&gt; PAKNECONOTHRXN = (PAKNECONOTHRXN(&#45;1)*EXP(&#45;PAKNECONOTHRXN_A+ (0.598859116610832*((LOG(PAKNYGDPFCSTXN))&#45;(LOG(PAKNYGDPFCSTXN(&#45;1))))+((PAKGGREVGNFSXN/100)&#45;(PAKGGREVGNFSXN(&#45;1)/100))+(1&#45;0.598859116610832)*((LOG(PAKNEIMPGNFSXN))&#45;(LOG(PAKNEIMPGNFSXN(&#45;1))))+0.2*PAKNYGDPGAP_/100) )) * (1&#45;PAKNECONOTHRXN_D)+ PAKNECONOTHRXN_X*PAKNECONOTHRXN_D &#160;$">
<polygon fill="#63b8ff" stroke="black" points="611,-841 322,-841 322,-805 611,-805 611,-841"/>
<text text-anchor="start" x="328.5" y="-818.8" font-family="Times New Roman,serif" font-size="14.00" fill="blue">PAKNECONOTHRXN:Non&#45;Energy Consumption</text>
</a>
</g>
</g>
<!-- PAKNEIMPGNFSXN&#45;&gt;PAKNECONOTHRXN -->
<g id="edge1" class="edge">
<title>PAKNEIMPGNFSXN&#45;&gt;PAKNECONOTHRXN</title>
<g id="a_edge1"><a xlink:href="bogus" xlink:title=" PAKNEIMPGNFSXN &#45;&gt; PAKNECONOTHRXN Min. att. &#45;10% &#160;max: 114%">
<path fill="none" stroke="black" stroke-width="8" d="M254.64,-823C273.05,-823 292.43,-823 311.68,-823"/>
<polygon fill="black" stroke="black" stroke-width="8" points="311.72,-830 321.72,-823 311.72,-816 311.72,-830"/>
</a>
</g>
</g>
<!-- PAKNECONPRVTCN -->
<g id="node16" class="node">
<title>PAKNECONPRVTCN</title>
<g id="a_node16"><a xlink:title="Household demand&#10;FRML &#160;&lt;&gt; PAKNECONPRVTCN = PAKNECONPRVTKN*PAKNECONPRVTXN $">
<polygon fill="#63b8ff" stroke="black" points="1570,-745 1323,-745 1323,-709 1570,-709 1570,-745"/>
<text text-anchor="start" x="1329.5" y="-722.8" font-family="Times New Roman,serif" font-size="14.00" fill="blue">PAKNECONPRVTCN:Household demand</text>
</a>
</g>
</g>
<!-- PAKNYWRTINFMCN -->
<g id="node17" class="node">
<title>PAKNYWRTINFMCN</title>
<g id="a_node17"><a xlink:title="Informal wage&#10;FRML &lt;Z,EXO&gt; PAKNYWRTINFMCN = (PAKNYWRTINFMCN(&#45;1)*EXP(&#45;PAKNYWRTINFMCN_A+ (&#45;0.122614247140616&#45;0.3*(LOG(PAKNYWRTINFMCN(&#45;1))&#45;LOG(PAKNYGDPFCSTXN(&#45;1))&#45;LOG(PAKNYGDPPOTLKN(&#45;1)/PAKLMEMPSTRLCN(&#45;1)))+0.2*((LOG(PAKNYWRTINFMCN(&#45;1)))&#45;(LOG(PAKNYWRTINFMCN(&#45;2))))+(1&#45;0.2)*(0.5*((LOG(PAKNYGDPFCSTXN(&#45;1)))&#45;(LOG(PAKNYGDPFCSTXN(&#45;2))))+0.5*(PAKINFLEXPT/100)+((LOG(PAKNYGDPMKTPKN/PAKLMEMPSTRLCN))&#45;(LOG(PAKNYGDPMKTPKN(&#45;1)/PAKLMEMPSTRLCN(&#45;1)))))&#45;0.2*(PAKLMUNRTOTLCN&#45;PAKLMUNRSTRLCN)/100+0.15347529018182*DURING_2000&#45;0.183372342445734*DURING_2001) )) * (1&#45;PAKNYWRTINFMCN_D)+ PAKNYWRTINFMCN_X*PAKNYWRTINFMCN_D &#160;$">
<polygon fill="#63b8ff" stroke="black" points="1559.5,-329 1333.5,-329 1333.5,-293 1559.5,-293 1559.5,-329"/>
<text text-anchor="start" x="1339.5" y="-306.8" font-family="Times New Roman,serif" font-size="14.00" fill="blue">PAKNYWRTINFMCN:Informal wage</text>
</a>
</g>
</g>
<!-- PAKNYWRTTOTLCN -->
<g id="node29" class="node">
<title>PAKNYWRTTOTLCN</title>
<g id="a_node29"><a xlink:title="Wages&#10;FRML &#160;&lt;&gt; PAKNYWRTTOTLCN = (PAKNYWBINFMSH**PAKINFCES*(PAKNYWRTINFMCN)**(1&#45;PAKINFCES)+PAKNYWBFORMSH**PAKINFCES*(PAKNYWRTFORMCN*(1+PAKGGREVDRCTXN/100))**(1&#45;PAKINFCES))**(1/(1&#45;PAKINFCES)) $">
<polygon fill="#63b8ff" stroke="black" points="1929,-337 1748,-337 1748,-301 1929,-301 1929,-337"/>
<text text-anchor="start" x="1754.5" y="-314.8" font-family="Times New Roman,serif" font-size="14.00" fill="blue">PAKNYWRTTOTLCN:Wages</text>
</a>
</g>
</g>
<!-- PAKNYWRTINFMCN&#45;&gt;PAKNYWRTTOTLCN -->
<g id="edge11" class="edge">
<title>PAKNYWRTINFMCN&#45;&gt;PAKNYWRTTOTLCN</title>
<g id="a_edge11"><a xlink:href="bogus" xlink:title=" PAKNYWRTINFMCN &#45;&gt; PAKNYWRTTOTLCN Min. att. 79% &#160;max: 80%">
<path fill="none" stroke="black" stroke-width="7.95" d="M1559.52,-313.3C1615.77,-314.45 1683.35,-315.84 1737.79,-316.95"/>
<polygon fill="black" stroke="black" stroke-width="7.95" points="1737.65,-323.91 1747.79,-317.16 1737.94,-310 1737.65,-323.91"/>
</a>
</g>
</g>
<!-- PAKNECONPRVTXN -->
<g id="node21" class="node">
<title>PAKNECONPRVTXN</title>
<g id="a_node21"><a xlink:title="Household demand&#10;FRML &#160;&lt;&gt; PAKNECONPRVTXN = ((PAKNECONENGYSH**PAKCESENGYCON)*PAKNECONENGYXN**(1&#45;PAKCESENGYCON)+(PAKNECONOTHRSH**PAKCESENGYCON)*PAKNECONOTHRXN**(1&#45;PAKCESENGYCON))**(1/(1&#45;PAKCESENGYCON)) $">
<polygon fill="#63b8ff" stroke="black" points="895,-868 647,-868 647,-832 895,-832 895,-868"/>
<text text-anchor="start" x="653" y="-845.8" font-family="Times New Roman,serif" font-size="14.00" fill="blue">PAKNECONPRVTXN:Household demand</text>
</a>
</g>
</g>
<!-- PAKNECONENGYXN&#45;&gt;PAKNECONPRVTXN -->
<g id="edge28" class="edge">
<title>PAKNECONENGYXN&#45;&gt;PAKNECONPRVTXN</title>
<g id="a_edge28"><a xlink:href="bogus" xlink:title=" PAKNECONENGYXN &#45;&gt; PAKNECONPRVTXN Min. att. 1% &#160;max: 29%">
<path fill="none" stroke="black" stroke-width="2.91" d="M597.54,-865.39C610.43,-864.24 623.53,-863.07 636.45,-861.92"/>
<polygon fill="black" stroke="black" stroke-width="2.91" points="637.12,-865.37 646.77,-861 636.5,-858.4 637.12,-865.37"/>
</a>
</g>
</g>
<!-- PAKSMAGRFSTYKN -->
<g id="node19" class="node">
<title>PAKSMAGRFSTYKN</title>
<g id="a_node19"><a xlink:title="PAKSMAGRFSTYKN&#10;FRML &#160;&lt;&gt; PAKSMAGRFSTYKN = ((1+0.195965019358753)*(0.010131919293849*PAKNECONPRVTKN+0*PAKNECONGOVTKN+0*PAKNEGDIFTOTKN+0.000136733767007103*PAKNEEXPGNFSKN+0.0199955288980741*PAKNEGDISTKBKN)&#45;0.00076829563200478*PAKNEIMPGNFSKN&#45;0.00172030587371022*PAKNYTAXNINDKN&#45;65421)/(1+0.319587584852584) $">
<polygon fill="#63b8ff" stroke="black" points="1518.5,-691 1374.5,-691 1374.5,-655 1518.5,-655 1518.5,-691"/>
<text text-anchor="start" x="1380.5" y="-668.8" font-family="Times New Roman,serif" font-size="14.00" fill="blue">PAKSMAGRFSTYKN:</text>
</a>
</g>
</g>
<!-- PAKNECONOTHRXN&#45;&gt;PAKNECONPRVTXN -->
<g id="edge9" class="edge">
<title>PAKNECONOTHRXN&#45;&gt;PAKNECONPRVTXN</title>
<g id="a_edge9"><a xlink:href="bogus" xlink:title=" PAKNECONOTHRXN &#45;&gt; PAKNECONPRVTXN Min. att. 71% &#160;max: 99%">
<path fill="none" stroke="black" stroke-width="8" d="M611.22,-835.83C619.67,-836.58 628.16,-837.34 636.57,-838.09"/>
<polygon fill="black" stroke="black" stroke-width="8" points="636.2,-845.09 646.78,-839 637.44,-831.14 636.2,-845.09"/>
</a>
</g>
</g>
<!-- PAKNECONPRVTXN&#45;&gt;PAKFMLBLPOLYXN -->
<g id="edge29" class="edge">
<title>PAKNECONPRVTXN&#45;&gt;PAKFMLBLPOLYXN</title>
<g id="a_edge29"><a xlink:href="bogus" xlink:title=" PAKNECONPRVTXN &#45;&gt; PAKFMLBLPOLYXN Min. att. &#45;94% &#160;max: 1462%">
<path fill="none" stroke="black" stroke-width="8" d="M802.73,-868.11C876.12,-910.26 1068.7,-1014.25 1245,-1053 1569.74,-1124.38 1661.47,-1090.27 1993,-1065 2003.28,-1064.22 2013.95,-1063.12 2024.61,-1061.83"/>
<polygon fill="black" stroke="black" stroke-width="8" points="2025.77,-1068.74 2034.81,-1060.54 2024.01,-1054.85 2025.77,-1068.74"/>
</a>
</g>
</g>
<!-- PAKNECONPRVTXN&#45;&gt;PAKNECONPRVTKN -->
<g id="edge22" class="edge">
<title>PAKNECONPRVTXN&#45;&gt;PAKNECONPRVTKN</title>
<g id="a_edge22"><a xlink:href="bogus" xlink:title=" PAKNECONPRVTXN &#45;&gt; PAKNECONPRVTKN Min. att. &#45;5706% &#160;max: 593%">
<path fill="none" stroke="black" stroke-width="8" d="M798.36,-831.9C852.08,-795 974.21,-711.1 1034.3,-669.83"/>
<polygon fill="black" stroke="black" stroke-width="8" points="1038.42,-675.49 1042.7,-664.06 1030.5,-663.95 1038.42,-675.49"/>
</a>
</g>
</g>
<!-- PAKNEGDETTOTKN -->
<g id="node22" class="node">
<title>PAKNEGDETTOTKN</title>
<g id="a_node22"><a xlink:title="GDE&#10;FRML &#160;&lt;&gt; PAKNEGDETTOTKN = (PAKNECONPRVTKN+PAKNECONGOVTKN+PAKNEGDIFTOTKN+PAKNEGDISTKBKN+PAKNYGDPDISCKN) $">
<polygon fill="#63b8ff" stroke="black" points="1531.5,-637 1361.5,-637 1361.5,-601 1531.5,-601 1531.5,-637"/>
<text text-anchor="start" x="1367.5" y="-614.8" font-family="Times New Roman,serif" font-size="14.00" fill="blue">PAKNEGDETTOTKN:GDE</text>
</a>
</g>
</g>
<!-- PAKSMENGTOTLKN -->
<g id="node23" class="node">
<title>PAKSMENGTOTLKN</title>
<g id="a_node23"><a xlink:title="PAKSMENGTOTLKN&#10;FRML &#160;&lt;&gt; PAKSMENGTOTLKN = ((1+1.65868473220397)*(0.0775261497897936*PAKNECONPRVTKN+0*PAKNECONGOVTKN+0*PAKNEGDIFTOTKN+0.0217448978257548*PAKNEEXPGNFSKN+0.0458991644104248*PAKNEGDISTKBKN)&#45;0.11894699850705*PAKNEIMPGNFSKN&#45;&#45;0.50579180838529*PAKNYTAXNINDKN&#45;0)/(1+5.65663938581514) $">
<polygon fill="#63b8ff" stroke="black" points="1519,-583 1374,-583 1374,-547 1519,-547 1519,-583"/>
<text text-anchor="start" x="1380.5" y="-560.8" font-family="Times New Roman,serif" font-size="14.00" fill="blue">PAKSMENGTOTLKN:</text>
</a>
</g>
</g>
<!-- PAKNECONPRVTKN_FITTED -->
<g id="node24" class="node">
<title>PAKNECONPRVTKN_FITTED</title>
<g id="a_node24"><a xlink:title="Fitted &#160;value:Household Consumption&#10;FRML &lt;FIT&gt; PAKNECONPRVTKN_FITTED = PAKNECONPRVTKN(&#45;1)*EXP( (&#45;0.2*(LOG(PAKNECONPRVTKN(&#45;1))&#45;LOG((PAKNYYWBTOTLCN(&#45;1)*(1&#45;PAKGGREVDRCTXN(&#45;1)/100))/PAKNECONPRVTXN(&#45;1)))+1*((LOG((PAKNYYWBTOTLCN*(1&#45;PAKGGREVDRCTXN/100))/PAKNECONPRVTXN))&#45;(LOG((PAKNYYWBTOTLCN(&#45;1)*(1&#45;PAKGGREVDRCTXN(&#45;1)/100))/PAKNECONPRVTXN(&#45;1))))+0.0303228629698929+0.0163839011059956*DURING_2010&#45;0.3*(PAKFMLBLPOLYXN/100&#45;((LOG(PAKNECONPRVTXN))&#45;(LOG(PAKNECONPRVTXN(&#45;1)))))) ) $">
<polygon fill="#63b8ff" stroke="black" points="1648,-383 1245,-383 1245,-347 1648,-347 1648,-383"/>
<text text-anchor="start" x="1251.5" y="-360.8" font-family="Times New Roman,serif" font-size="14.00" fill="blue">PAKNECONPRVTKN_FITTED:Fitted &#160;value:Household Consumption</text>
</a>
</g>
</g>
<!-- PAKNECONENGYKN -->
<g id="node25" class="node">
<title>PAKNECONENGYKN</title>
<g id="a_node25"><a xlink:title="Energy Consumption&#10;FRML &#160;&lt;&gt; PAKNECONENGYKN = PAKNECONENGYSH**(PAKCESENGYCON)*(PAKNECONPRVTKN*(PAKNECONPRVTXN/PAKNECONENGYXN)**(PAKCESENGYCON)) $">
<polygon fill="#63b8ff" stroke="black" points="1577.5,-221 1315.5,-221 1315.5,-185 1577.5,-185 1577.5,-221"/>
<text text-anchor="start" x="1321.5" y="-198.8" font-family="Times New Roman,serif" font-size="14.00" fill="blue">PAKNECONENGYKN:Energy Consumption</text>
</a>
</g>
</g>
<!-- PAKNECONPRVTKN&#45;&gt;PAKSMSRVTRNSKN -->
<g id="edge5" class="edge">
<title>PAKNECONPRVTKN&#45;&gt;PAKSMSRVTRNSKN</title>
<g id="a_edge5"><a xlink:href="bogus" xlink:title=" PAKNECONPRVTKN &#45;&gt; PAKSMSRVTRNSKN Min. att. 87% &#160;max: 592%">
<path fill="none" stroke="black" stroke-width="8" d="M1071.49,-627.83C1074.47,-556.75 1095.56,-295.62 1245,-176 1278.37,-149.29 1325.32,-141.87 1365.39,-141.44"/>
<polygon fill="black" stroke="black" stroke-width="8" points="1365.4,-148.44 1375.42,-141.47 1365.45,-134.44 1365.4,-148.44"/>
</a>
</g>
</g>
<!-- PAKNECONPRVTKN&#45;&gt;PAKSMSRVHSNGKN -->
<g id="edge26" class="edge">
<title>PAKNECONPRVTKN&#45;&gt;PAKSMSRVHSNGKN</title>
<g id="a_edge26"><a xlink:href="bogus" xlink:title=" PAKNECONPRVTKN &#45;&gt; PAKSMSRVHSNGKN Min. att. 34% &#160;max: 147%">
<path fill="none" stroke="black" stroke-width="8" d="M1073.8,-627.81C1087.98,-538.21 1154.7,-145.01 1245,-68 1277.27,-40.48 1323.72,-32.91 1363.78,-32.6"/>
<polygon fill="black" stroke="black" stroke-width="8" points="1363.77,-39.6 1373.81,-32.67 1363.86,-25.6 1363.77,-39.6"/>
</a>
</g>
</g>
<!-- PAKNECONPRVTKN&#45;&gt;PAKSMINDMNGSKN -->
<g id="edge14" class="edge">
<title>PAKNECONPRVTKN&#45;&gt;PAKSMINDMNGSKN</title>
<g id="a_edge14"><a xlink:href="bogus" xlink:title=" PAKNECONPRVTKN &#45;&gt; PAKSMINDMNGSKN Min. att. &#45;1229% &#160;max: 1716%">
<path fill="none" stroke="black" stroke-width="8" d="M1074.7,-664.19C1087.21,-720.49 1133.48,-892.73 1245,-970 1279.06,-993.6 1324.3,-1001.18 1363.18,-1002.5"/>
<polygon fill="black" stroke="black" stroke-width="8" points="1363.3,-1009.5 1373.44,-1002.71 1363.59,-995.5 1363.3,-1009.5"/>
</a>
</g>
</g>
<!-- PAKNECONPRVTKN&#45;&gt;PAKSMSRVFINSKN -->
<g id="edge30" class="edge">
<title>PAKNECONPRVTKN&#45;&gt;PAKSMSRVFINSKN</title>
<g id="a_edge30"><a xlink:href="bogus" xlink:title=" PAKNECONPRVTKN &#45;&gt; PAKSMSRVFINSKN Min. att. &#45;104% &#160;max: 125%">
<path fill="none" stroke="black" stroke-width="8" d="M1076.73,-664.36C1093.42,-714.43 1147.1,-853.79 1245,-916 1281.13,-938.96 1328.31,-946.18 1367.83,-947.44"/>
<polygon fill="black" stroke="black" stroke-width="8" points="1367.82,-954.44 1377.96,-947.64 1368.1,-940.44 1367.82,-954.44"/>
</a>
</g>
</g>
<!-- PAKNECONPRVTKN&#45;&gt;PAKSMAGRCRPSKN -->
<g id="edge17" class="edge">
<title>PAKNECONPRVTKN&#45;&gt;PAKSMAGRCRPSKN</title>
<g id="a_edge17"><a xlink:href="bogus" xlink:title=" PAKNECONPRVTKN &#45;&gt; PAKSMAGRCRPSKN Min. att. &#45;25% &#160;max: 208%">
<path fill="none" stroke="black" stroke-width="8" d="M1079.49,-664.08C1100.62,-706.83 1160.05,-814.12 1245,-862 1280.81,-882.19 1325.79,-889.56 1364.06,-891.61"/>
<polygon fill="black" stroke="black" stroke-width="8" points="1363.86,-898.61 1374.15,-892.04 1364.46,-884.62 1363.86,-898.61"/>
</a>
</g>
</g>
<!-- PAKNECONPRVTKN&#45;&gt;PAKSMINDOTHRTKN -->
<g id="edge8" class="edge">
<title>PAKNECONPRVTKN&#45;&gt;PAKSMINDOTHRTKN</title>
<g id="a_edge8"><a xlink:href="bogus" xlink:title=" PAKNECONPRVTKN &#45;&gt; PAKSMINDOTHRTKN Min. att. &#45;11779% &#160;max: 971%">
<path fill="none" stroke="black" stroke-width="8" d="M1084.14,-664.15C1110.34,-698.77 1172.8,-773.85 1245,-808 1280.55,-824.81 1323.36,-832.09 1360.28,-834.94"/>
<polygon fill="black" stroke="black" stroke-width="8" points="1360.07,-841.95 1370.52,-835.64 1361.02,-827.98 1360.07,-841.95"/>
</a>
</g>
</g>
<!-- PAKNECONPRVTKN&#45;&gt;PAKSMAGRFSNGKN -->
<g id="edge13" class="edge">
<title>PAKNECONPRVTKN&#45;&gt;PAKSMAGRFSNGKN</title>
<g id="a_edge13"><a xlink:href="bogus" xlink:title=" PAKNECONPRVTKN &#45;&gt; PAKSMAGRFSNGKN Min. att. &#45;29% &#160;max: 170%">
<path fill="none" stroke="black" stroke-width="8" d="M1093.03,-664.01C1124.58,-688.76 1185.44,-732.62 1245,-754 1282.62,-767.51 1326.41,-774.34 1363.46,-777.76"/>
<polygon fill="black" stroke="black" stroke-width="8" points="1363.16,-784.76 1373.72,-778.64 1364.35,-770.81 1363.16,-784.76"/>
</a>
</g>
</g>
<!-- PAKNECONPRVTKN&#45;&gt;PAKNYGDPMKTPKN -->
<g id="edge19" class="edge">
<title>PAKNECONPRVTKN&#45;&gt;PAKNYGDPMKTPKN</title>
<g id="a_edge19"><a xlink:href="bogus" xlink:title=" PAKNECONPRVTKN &#45;&gt; PAKNYGDPMKTPKN Min. att. &#45;1557% &#160;max: 290%">
<path fill="none" stroke="black" stroke-width="8" d="M1087.18,-627.74C1115.7,-596.86 1178.25,-534.78 1245,-505 1254.39,-500.81 1264.25,-497.16 1274.34,-493.98"/>
<polygon fill="black" stroke="black" stroke-width="8" points="1276.5,-500.64 1284.08,-491.07 1272.49,-487.22 1276.5,-500.64"/>
</a>
</g>
</g>
<!-- PAKNECONPRVTKN&#45;&gt;PAKNECONPRVTCN -->
<g id="edge10" class="edge">
<title>PAKNECONPRVTKN&#45;&gt;PAKNECONPRVTCN</title>
<g id="a_edge10"><a xlink:href="bogus" xlink:title=" PAKNECONPRVTKN &#45;&gt; PAKNECONPRVTCN Min. att. &#45;720% &#160;max: 6450%">
<path fill="none" stroke="black" stroke-width="8" d="M1121.41,-664.1C1155.83,-675.85 1202.69,-690.65 1245,-700 1266.81,-704.82 1290.15,-708.91 1312.93,-712.33"/>
<polygon fill="black" stroke="black" stroke-width="8" points="1312.08,-719.28 1322.99,-713.81 1314.12,-705.43 1312.08,-719.28"/>
</a>
</g>
</g>
<!-- PAKNECONPRVTKN&#45;&gt;PAKSMAGRFSTYKN -->
<g id="edge2" class="edge">
<title>PAKNECONPRVTKN&#45;&gt;PAKSMAGRFSTYKN</title>
<g id="a_edge2"><a xlink:href="bogus" xlink:title=" PAKNECONPRVTKN &#45;&gt; PAKSMAGRFSTYKN Min. att. 96% &#160;max: 371%">
<path fill="none" stroke="black" stroke-width="8" d="M1209.12,-655.96C1261.35,-659.72 1319.07,-663.88 1364.39,-667.15"/>
<polygon fill="black" stroke="black" stroke-width="8" points="1363.98,-674.14 1374.46,-667.88 1364.99,-660.18 1363.98,-674.14"/>
</a>
</g>
</g>
<!-- PAKNECONPRVTKN&#45;&gt;PAKNEGDETTOTKN -->
<g id="edge3" class="edge">
<title>PAKNECONPRVTKN&#45;&gt;PAKNEGDETTOTKN</title>
<g id="a_edge3"><a xlink:href="bogus" xlink:title=" PAKNECONPRVTKN &#45;&gt; PAKNEGDETTOTKN Min. att. &#45;2284% &#160;max: 2484%">
<path fill="none" stroke="black" stroke-width="8" d="M1209.12,-636.04C1256.4,-632.63 1308.18,-628.9 1351.2,-625.8"/>
<polygon fill="black" stroke="black" stroke-width="8" points="1351.89,-632.77 1361.36,-625.07 1350.89,-618.8 1351.89,-632.77"/>
</a>
</g>
</g>
<!-- PAKNECONPRVTKN&#45;&gt;PAKSMENGTOTLKN -->
<g id="edge6" class="edge">
<title>PAKNECONPRVTKN&#45;&gt;PAKSMENGTOTLKN</title>
<g id="a_edge6"><a xlink:href="bogus" xlink:title=" PAKNECONPRVTKN &#45;&gt; PAKSMENGTOTLKN Min. att. &#45;14% &#160;max: 2186%">
<path fill="none" stroke="black" stroke-width="8" d="M1121.41,-627.9C1155.83,-616.15 1202.69,-601.35 1245,-592 1283.56,-583.48 1326.92,-577.24 1363.43,-572.91"/>
<polygon fill="black" stroke="black" stroke-width="8" points="1364.41,-579.85 1373.54,-571.75 1362.8,-565.94 1364.41,-579.85"/>
</a>
</g>
</g>
<!-- PAKNECONPRVTKN&#45;&gt;PAKNECONPRVTKN_FITTED -->
<g id="edge16" class="edge">
<title>PAKNECONPRVTKN&#45;&gt;PAKNECONPRVTKN_FITTED</title>
<g id="a_edge16"><a xlink:href="bogus" xlink:title=" PAKNECONPRVTKN &#45;&gt; PAKNECONPRVTKN_FITTED Min. att. &#45;786% &#160;max: 175%">
<path fill="none" stroke="black" stroke-width="8" d="M1077.46,-627.68C1095.44,-579.65 1151.02,-449.88 1245,-392 1247.52,-390.45 1250.1,-388.96 1252.72,-387.55"/>
<polygon fill="black" stroke="black" stroke-width="8" points="1255.97,-393.75 1261.79,-383.02 1249.72,-381.23 1255.97,-393.75"/>
</a>
</g>
</g>
<!-- PAKNECONPRVTKN&#45;&gt;PAKNECONENGYKN -->
<g id="edge33" class="edge">
<title>PAKNECONPRVTKN&#45;&gt;PAKNECONENGYKN</title>
<g id="a_edge33"><a xlink:href="bogus" xlink:title=" PAKNECONPRVTKN &#45;&gt; PAKNECONENGYKN Min. att. &#45;699% &#160;max: 3890%">
<path fill="none" stroke="black" stroke-width="8" d="M1072.46,-627.63C1078.76,-561.45 1109.89,-333.62 1245,-230 1262.52,-216.56 1283.53,-208.1 1305.26,-202.97"/>
<polygon fill="black" stroke="black" stroke-width="8" points="1306.95,-209.77 1315.28,-200.84 1304.05,-196.07 1306.95,-209.77"/>
</a>
</g>
</g>
<!-- PAKNECONOTHRKN -->
<g id="node27" class="node">
<title>PAKNECONOTHRKN</title>
<g id="a_node27"><a xlink:title="Other Consumption&#10;FRML &#160;&lt;&gt; PAKNECONOTHRKN = PAKNECONOTHRSH**(PAKCESENGYCON)*(PAKNECONPRVTKN*(PAKNECONPRVTXN/PAKNECONOTHRXN)**(PAKCESENGYCON)) $">
<polygon fill="#63b8ff" stroke="black" points="1573,-113 1320,-113 1320,-77 1573,-77 1573,-113"/>
<text text-anchor="start" x="1326.5" y="-90.8" font-family="Times New Roman,serif" font-size="14.00" fill="blue">PAKNECONOTHRKN:Other Consumption</text>
</a>
</g>
</g>
<!-- PAKNECONPRVTKN&#45;&gt;PAKNECONOTHRKN -->
<g id="edge32" class="edge">
<title>PAKNECONPRVTKN&#45;&gt;PAKNECONOTHRKN</title>
<g id="a_edge32"><a xlink:href="bogus" xlink:title=" PAKNECONPRVTKN &#45;&gt; PAKNECONOTHRKN Min. att. &#45;12063% &#160;max: 323%">
<path fill="none" stroke="black" stroke-width="8" d="M1070.72,-627.91C1070.63,-552.12 1081.15,-257.79 1245,-122 1263.4,-106.75 1286.18,-97.7 1309.71,-92.63"/>
<polygon fill="black" stroke="black" stroke-width="8" points="1311.32,-99.45 1319.83,-90.7 1308.69,-85.7 1311.32,-99.45"/>
</a>
</g>
</g>
<!-- PAKNYWRTFORMCN -->
<g id="node28" class="node">
<title>PAKNYWRTFORMCN</title>
<g id="a_node28"><a xlink:title="Formal wage&#10;FRML &lt;Z,EXO&gt; PAKNYWRTFORMCN = (PAKNYWRTFORMCN(&#45;1)*EXP(&#45;PAKNYWRTFORMCN_A+ (&#45;0.120164450250183&#45;0.3*(LOG(PAKNYWRTFORMCN(&#45;1))&#45;LOG(PAKNYGDPFCSTXN(&#45;1))&#45;LOG(PAKNYGDPPOTLKN(&#45;1)/PAKLMEMPSTRLCN(&#45;1)))+0.2*((LOG(PAKNYWRTFORMCN(&#45;1)))&#45;(LOG(PAKNYWRTFORMCN(&#45;2))))+(1&#45;0.2)*(0.5*((LOG(PAKNYGDPFCSTXN(&#45;1)))&#45;(LOG(PAKNYGDPFCSTXN(&#45;2))))+0.5*(PAKINFLEXPT/100)+((LOG(PAKNYGDPMKTPKN/PAKLMEMPSTRLCN))&#45;(LOG(PAKNYGDPMKTPKN(&#45;1)/PAKLMEMPSTRLCN(&#45;1)))))&#45;0.2*(PAKLMUNRTOTLCN&#45;PAKLMUNRSTRLCN)/100+0.15233813938029*DURING_2000&#45;0.183411483907703*DURING_2001) )) * (1&#45;PAKNYWRTFORMCN_D)+ PAKNYWRTFORMCN_X*PAKNYWRTFORMCN_D &#160;$">
<polygon fill="#63b8ff" stroke="black" points="1557.5,-275 1335.5,-275 1335.5,-239 1557.5,-239 1557.5,-275"/>
<text text-anchor="start" x="1341.5" y="-252.8" font-family="Times New Roman,serif" font-size="14.00" fill="blue">PAKNYWRTFORMCN:Formal wage</text>
</a>
</g>
</g>
<!-- PAKNYWRTFORMCN&#45;&gt;PAKNYWRTTOTLCN -->
<g id="edge15" class="edge">
<title>PAKNYWRTFORMCN&#45;&gt;PAKNYWRTTOTLCN</title>
<g id="a_edge15"><a xlink:href="bogus" xlink:title=" PAKNYWRTFORMCN &#45;&gt; PAKNYWRTTOTLCN Min. att. 21% &#160;max: 21%">
<path fill="none" stroke="black" stroke-width="2.13" d="M1557.69,-270.85C1587.07,-274.82 1618.78,-279.34 1648,-284 1677.11,-288.65 1708.63,-294.24 1737.45,-299.58"/>
<polygon fill="black" stroke="black" stroke-width="2.13" points="1737.06,-303.06 1747.53,-301.45 1738.34,-296.18 1737.06,-303.06"/>
</a>
</g>
</g>
<!-- PAKNYWRTTOTLCN&#45;&gt;PAKLMEMPTOTLCN -->
<g id="edge34" class="edge">
<title>PAKNYWRTTOTLCN&#45;&gt;PAKLMEMPTOTLCN</title>
<g id="a_edge34"><a xlink:href="bogus" xlink:title=" PAKNYWRTTOTLCN &#45;&gt; PAKLMEMPTOTLCN Min. att. &#45;1554% &#160;max: 236%">
<path fill="none" stroke="black" stroke-width="8" d="M1912.37,-337.01C1937.96,-343.59 1966.84,-351.32 1993,-359 2019.76,-366.86 2049.06,-376.3 2074.16,-384.66"/>
<polygon fill="black" stroke="black" stroke-width="8" points="2072.22,-391.39 2083.92,-387.92 2076.66,-378.11 2072.22,-391.39"/>
</a>
</g>
</g>
<!-- PAKNYWRTTOTLCN&#45;&gt;PAKNYYWBTOTLCN -->
<g id="edge31" class="edge">
<title>PAKNYWRTTOTLCN&#45;&gt;PAKNYYWBTOTLCN</title>
<g id="a_edge31"><a xlink:href="bogus" xlink:title=" PAKNYWRTTOTLCN &#45;&gt; PAKNYYWBTOTLCN Min. att. 16% &#160;max: 106%">
<path fill="none" stroke="black" stroke-width="8" d="M1929.13,-332.11C2011.51,-344.19 2137,-362.67 2246,-379 2261.95,-381.39 2278.71,-383.92 2295.3,-386.43"/>
<polygon fill="black" stroke="black" stroke-width="8" points="2294.66,-393.41 2305.6,-387.99 2296.76,-379.57 2294.66,-393.41"/>
</a>
</g>
</g>
<!-- PAKNYGDPFCSTXN -->
<g id="node30" class="node">
<title>PAKNYGDPFCSTXN</title>
<g id="a_node30"><a xlink:title="GDP at factor cost&#10;FRML &lt;Z,EXO&gt; PAKNYGDPFCSTXN = (PAKNYGDPFCSTXN(&#45;1)*EXP(&#45;PAKNYGDPFCSTXN_A+ (0.6*((LOG(PAKNYGDPFCSTXN(&#45;1)))&#45;(LOG(PAKNYGDPFCSTXN(&#45;2))))+(1&#45;0.6)*(0.7*PAKINFLEXPT/100+(1&#45;0.7)*((LOG(PAKPSTAR(&#45;1)))&#45;(LOG(PAKPSTAR(&#45;2)))))+0.25*PAKNYGDPGAP_/100+0.262461811660072*DURING_2000&#45;0.205776950553378*DURING_2001) )) * (1&#45;PAKNYGDPFCSTXN_D)+ PAKNYGDPFCSTXN_X*PAKNYGDPFCSTXN_D &#160;$">
<polygon fill="#63b8ff" stroke="black" points="1959.5,-437 1717.5,-437 1717.5,-401 1959.5,-401 1959.5,-437"/>
<text text-anchor="start" x="1723.5" y="-414.8" font-family="Times New Roman,serif" font-size="14.00" fill="blue">PAKNYGDPFCSTXN:GDP at factor cost</text>
</a>
</g>
</g>
<!-- PAKNYGDPFCSTXN&#45;&gt;PAKLMEMPTOTLCN -->
<g id="edge20" class="edge">
<title>PAKNYGDPFCSTXN&#45;&gt;PAKLMEMPTOTLCN</title>
<g id="a_edge20"><a xlink:href="bogus" xlink:title=" PAKNYGDPFCSTXN &#45;&gt; PAKLMEMPTOTLCN Min. att. &#45;128% &#160;max: 59%">
<path fill="none" stroke="black" stroke-width="8" d="M1959.87,-413.73C1979.32,-412.88 1999.43,-412 2018.81,-411.15"/>
<polygon fill="black" stroke="black" stroke-width="8" points="2019.18,-418.14 2028.87,-410.71 2018.57,-404.16 2019.18,-418.14"/>
</a>
</g>
</g>
</g>
</svg>
