<?xml version="1.0" encoding="UTF-8" standalone="no"?>
<!DOCTYPE svg PUBLIC "-//W3C//DTD SVG 1.1//EN"
 "http://www.w3.org/Graphics/SVG/1.1/DTD/svg11.dtd">
<!-- Generated by graphviz version 6.0.1 (0)
 -->
<!-- Title: TD Pages: 1 -->
<svg width="432pt" height="185pt"
 viewBox="0.00 0.00 432.00 185.15" xmlns="http://www.w3.org/2000/svg" xmlns:xlink="http://www.w3.org/1999/xlink">
<g id="graph0" class="graph" transform="scale(0.167767 0.167767) rotate(0) translate(4 1099.6)">
<title>TD</title>
<polygon fill="white" stroke="none" points="-4,4 -4,-1099.6 2571,-1099.6 2571,4 -4,4"/>
<text text-anchor="middle" x="1283.5" y="-7.8" font-family="Times New Roman,serif" font-size="14.00">PAKNECONPRVTKN</text>
<!-- PAKSMAGRFSNGKN -->
<g id="node1" class="node">
<title>PAKSMAGRFSNGKN</title>
<g id="a_node1"><a xlink:title="PAKSMAGRFSNGKN&#10;FRML &#160;&lt;&gt; PAKSMAGRFSNGKN = ((1+1.92407325889309)*(0.00246195499563977*PAKNECONPRVTKN+0*PAKNECONGOVTKN+0*PAKNEGDIFTOTKN+0.00130433854799597*PAKNEEXPGNFSKN+0.00497657560072267*PAKNEGDISTKBKN)&#45;1.14989260682794E&#45;05*PAKNEIMPGNFSKN&#45;2.46467171367829E&#45;07*PAKNYTAXNINDKN&#45;26993)/(1+0.506095544048804) $">
<polygon fill="#63b8ff" stroke="black" points="1519,-707 1374,-707 1374,-671 1519,-671 1519,-707"/>
<text text-anchor="start" x="1380.5" y="-684.8" font-family="Times New Roman,serif" font-size="14.00" fill="blue">PAKSMAGRFSNGKN:</text>
</a>
</g>
</g>
<!-- PAKNECONPRVTXN -->
<g id="node2" class="node">
<title>PAKNECONPRVTXN</title>
<g id="a_node2"><a xlink:title="Household demand&#10;FRML &#160;&lt;&gt; PAKNECONPRVTXN = ((PAKNECONENGYSH**PAKCESENGYCON)*PAKNECONENGYXN**(1&#45;PAKCESENGYCON)+(PAKNECONOTHRSH**PAKCESENGYCON)*PAKNECONOTHRXN**(1&#45;PAKCESENGYCON))**(1/(1&#45;PAKCESENGYCON)) $">
<polygon fill="#63b8ff" stroke="black" points="895,-876 647,-876 647,-840 895,-840 895,-876"/>
<text text-anchor="start" x="653" y="-853.8" font-family="Times New Roman,serif" font-size="14.00" fill="blue">PAKNECONPRVTXN:Household demand</text>
</a>
</g>
</g>
<!-- PAKNECONPRVTKN -->
<g id="node4" class="node">
<title>PAKNECONPRVTKN</title>
<g id="a_node4"><a xlink:title="Household Consumption&#10;FRML &lt;Z,EXO&gt; PAKNECONPRVTKN = (PAKNECONPRVTKN(&#45;1)*EXP(&#45;PAKNECONPRVTKN_A+ (&#45;0.2*(LOG(PAKNECONPRVTKN(&#45;1))&#45;LOG((PAKNYYWBTOTLCN(&#45;1)*(1&#45;PAKGGREVDRCTXN(&#45;1)/100))/PAKNECONPRVTXN(&#45;1)))+1*((LOG((PAKNYYWBTOTLCN*(1&#45;PAKGGREVDRCTXN/100))/PAKNECONPRVTXN))&#45;(LOG((PAKNYYWBTOTLCN(&#45;1)*(1&#45;PAKGGREVDRCTXN(&#45;1)/100))/PAKNECONPRVTXN(&#45;1))))+0.0303228629698929+0.0163839011059956*DURING_2010&#45;0.3*(PAKFMLBLPOLYXN/100&#45;((LOG(PAKNECONPRVTXN))&#45;(LOG(PAKNECONPRVTXN(&#45;1)))))) )) * (1&#45;PAKNECONPRVTKN_D)+ PAKNECONPRVTKN_X*PAKNECONPRVTKN_D &#160;$">
<polygon fill="red" stroke="black" points="1209,-680 931,-680 931,-644 1209,-644 1209,-680"/>
<text text-anchor="start" x="937" y="-657.8" font-family="Times New Roman,serif" font-size="14.00" fill="blue">PAKNECONPRVTKN:Household Consumption</text>
</a>
</g>
</g>
<!-- PAKNECONPRVTXN&#45;&gt;PAKNECONPRVTKN -->
<g id="edge28" class="edge">
<title>PAKNECONPRVTXN&#45;&gt;PAKNECONPRVTKN</title>
<g id="a_edge28"><a xlink:href="bogus" xlink:title=" PAKNECONPRVTXN &#45;&gt; PAKNECONPRVTKN Min. att. &#45;5706% &#160;max: 593%">
<path fill="none" stroke="black" stroke-width="8" d="M799.41,-839.91C853.34,-804.32 973.19,-725.23 1033.25,-685.6"/>
<polygon fill="black" stroke="black" stroke-width="8" points="1037.17,-691.39 1041.66,-680.04 1029.46,-679.71 1037.17,-691.39"/>
</a>
</g>
</g>
<!-- PAKFMLBLPOLYXN -->
<g id="node11" class="node">
<title>PAKFMLBLPOLYXN</title>
<g id="a_node11"><a xlink:title="Policy Rate&#10;FRML &lt;Z,EXO&gt; PAKFMLBLPOLYXN = (&#45;100*PAKFMLBLPOLYXN_A+100* (0.905129162122953*PAKFMLBLPOLYXN(&#45;1)/100+(1&#45;0.905129162122953)*(PAKMPPOLNATRXN/100+1.2*(((LOG(PAKNECONPRVTXN))&#45;(LOG(PAKNECONPRVTXN(&#45;1))))&#45;PAKINFLEXPT/100)+0.5*PAKNYGDPGAP_/100)) ) * (1&#45;PAKFMLBLPOLYXN_D)+ PAKFMLBLPOLYXN_X*PAKFMLBLPOLYXN_D &#160;$">
<polygon fill="#63b8ff" stroke="black" points="2240,-753 2035,-753 2035,-717 2240,-717 2240,-753"/>
<text text-anchor="start" x="2041.5" y="-730.8" font-family="Times New Roman,serif" font-size="14.00" fill="blue">PAKFMLBLPOLYXN:Policy Rate</text>
</a>
</g>
</g>
<!-- PAKNECONPRVTXN&#45;&gt;PAKFMLBLPOLYXN -->
<g id="edge6" class="edge">
<title>PAKNECONPRVTXN&#45;&gt;PAKFMLBLPOLYXN</title>
<g id="a_edge6"><a xlink:href="bogus" xlink:title=" PAKNECONPRVTXN &#45;&gt; PAKFMLBLPOLYXN Min. att. &#45;94% &#160;max: 1462%">
<path fill="none" stroke="black" stroke-width="8" d="M801.83,-876.05C874.44,-918.79 1067.43,-1025.34 1245,-1062 1420.41,-1098.21 1476.62,-1114.07 1648,-1062 1849.21,-1000.87 2043,-826.29 2110.95,-760.5"/>
<polygon fill="black" stroke="black" stroke-width="8" points="2115.97,-765.38 2118.24,-753.39 2106.2,-755.36 2115.97,-765.38"/>
</a>
</g>
</g>
<!-- PAKNYWRTINFMCN -->
<g id="node3" class="node">
<title>PAKNYWRTINFMCN</title>
<g id="a_node3"><a xlink:title="Informal wage&#10;FRML &lt;Z,EXO&gt; PAKNYWRTINFMCN = (PAKNYWRTINFMCN(&#45;1)*EXP(&#45;PAKNYWRTINFMCN_A+ (&#45;0.122614247140616&#45;0.3*(LOG(PAKNYWRTINFMCN(&#45;1))&#45;LOG(PAKNYGDPFCSTXN(&#45;1))&#45;LOG(PAKNYGDPPOTLKN(&#45;1)/PAKLMEMPSTRLCN(&#45;1)))+0.2*((LOG(PAKNYWRTINFMCN(&#45;1)))&#45;(LOG(PAKNYWRTINFMCN(&#45;2))))+(1&#45;0.2)*(0.5*((LOG(PAKNYGDPFCSTXN(&#45;1)))&#45;(LOG(PAKNYGDPFCSTXN(&#45;2))))+0.5*(PAKINFLEXPT/100)+((LOG(PAKNYGDPMKTPKN/PAKLMEMPSTRLCN))&#45;(LOG(PAKNYGDPMKTPKN(&#45;1)/PAKLMEMPSTRLCN(&#45;1)))))&#45;0.2*(PAKLMUNRTOTLCN&#45;PAKLMUNRSTRLCN)/100+0.15347529018182*DURING_2000&#45;0.183372342445734*DURING_2001) )) * (1&#45;PAKNYWRTINFMCN_D)+ PAKNYWRTINFMCN_X*PAKNYWRTINFMCN_D &#160;$">
<polygon fill="#63b8ff" stroke="black" points="1559.5,-113 1333.5,-113 1333.5,-77 1559.5,-77 1559.5,-113"/>
<text text-anchor="start" x="1339.5" y="-90.8" font-family="Times New Roman,serif" font-size="14.00" fill="blue">PAKNYWRTINFMCN:Informal wage</text>
</a>
</g>
</g>
<!-- PAKNYWRTTOTLCN -->
<g id="node14" class="node">
<title>PAKNYWRTTOTLCN</title>
<g id="a_node14"><a xlink:title="Wages&#10;FRML &#160;&lt;&gt; PAKNYWRTTOTLCN = (PAKNYWBINFMSH**PAKINFCES*(PAKNYWRTINFMCN)**(1&#45;PAKINFCES)+PAKNYWBFORMSH**PAKINFCES*(PAKNYWRTFORMCN*(1+PAKGGREVDRCTXN/100))**(1&#45;PAKINFCES))**(1/(1&#45;PAKINFCES)) $">
<polygon fill="#63b8ff" stroke="black" points="1929,-171 1748,-171 1748,-135 1929,-135 1929,-171"/>
<text text-anchor="start" x="1754.5" y="-148.8" font-family="Times New Roman,serif" font-size="14.00" fill="blue">PAKNYWRTTOTLCN:Wages</text>
</a>
</g>
</g>
<!-- PAKNYWRTINFMCN&#45;&gt;PAKNYWRTTOTLCN -->
<g id="edge30" class="edge">
<title>PAKNYWRTINFMCN&#45;&gt;PAKNYWRTTOTLCN</title>
<g id="a_edge30"><a xlink:href="bogus" xlink:title=" PAKNYWRTINFMCN &#45;&gt; PAKNYWRTTOTLCN Min. att. 79% &#160;max: 80%">
<path fill="none" stroke="black" stroke-width="7.95" d="M1559.72,-109.54C1588.52,-113.43 1619.43,-117.74 1648,-122 1677.2,-126.35 1708.87,-131.4 1737.82,-136.15"/>
<polygon fill="black" stroke="black" stroke-width="7.95" points="1736.94,-143.06 1747.93,-137.81 1739.19,-129.32 1736.94,-143.06"/>
</a>
</g>
</g>
<!-- PAKNECONPRVTKN&#45;&gt;PAKSMAGRFSNGKN -->
<g id="edge8" class="edge">
<title>PAKNECONPRVTKN&#45;&gt;PAKSMAGRFSNGKN</title>
<g id="a_edge8"><a xlink:href="bogus" xlink:title=" PAKNECONPRVTKN &#45;&gt; PAKSMAGRFSNGKN Min. att. &#45;29% &#160;max: 170%">
<path fill="none" stroke="black" stroke-width="8" d="M1209.12,-671.96C1261.16,-675.71 1318.64,-679.85 1363.89,-683.12"/>
<polygon fill="black" stroke="black" stroke-width="8" points="1363.46,-690.1 1373.94,-683.84 1364.47,-676.14 1363.46,-690.1"/>
</a>
</g>
</g>
<!-- PAKSMINDOTHRTKN -->
<g id="node5" class="node">
<title>PAKSMINDOTHRTKN</title>
<g id="a_node5"><a xlink:title="PAKSMINDOTHRTKN&#10;FRML &#160;&lt;&gt; PAKSMINDOTHRTKN = ((1+0.483473985412524)*(0.40172973397176*PAKNECONPRVTKN+0*PAKNECONGOVTKN+0.560459287907094*PAKNEGDIFTOTKN+0.719299486591763*PAKNEEXPGNFSKN+0.620970563578771*PAKNEGDISTKBKN)&#45;0.606734386430279*PAKNEIMPGNFSKN&#45;0.866045585295928*PAKNYTAXNINDKN&#45;2983275.63714814)/(1+2.46379868577176) $">
<polygon fill="#63b8ff" stroke="black" points="1522,-653 1371,-653 1371,-617 1522,-617 1522,-653"/>
<text text-anchor="start" x="1377.5" y="-630.8" font-family="Times New Roman,serif" font-size="14.00" fill="blue">PAKSMINDOTHRTKN:</text>
</a>
</g>
</g>
<!-- PAKNECONPRVTKN&#45;&gt;PAKSMINDOTHRTKN -->
<g id="edge18" class="edge">
<title>PAKNECONPRVTKN&#45;&gt;PAKSMINDOTHRTKN</title>
<g id="a_edge18"><a xlink:href="bogus" xlink:title=" PAKNECONPRVTKN &#45;&gt; PAKSMINDOTHRTKN Min. att. &#45;11779% &#160;max: 971%">
<path fill="none" stroke="black" stroke-width="8" d="M1209.12,-652.04C1259.89,-648.38 1315.84,-644.35 1360.56,-641.12"/>
<polygon fill="black" stroke="black" stroke-width="8" points="1361.32,-648.09 1370.79,-640.39 1360.32,-634.12 1361.32,-648.09"/>
</a>
</g>
</g>
<!-- PAKSMAGRFSTYKN -->
<g id="node6" class="node">
<title>PAKSMAGRFSTYKN</title>
<g id="a_node6"><a xlink:title="PAKSMAGRFSTYKN&#10;FRML &#160;&lt;&gt; PAKSMAGRFSTYKN = ((1+0.195965019358753)*(0.010131919293849*PAKNECONPRVTKN+0*PAKNECONGOVTKN+0*PAKNEGDIFTOTKN+0.000136733767007103*PAKNEEXPGNFSKN+0.0199955288980741*PAKNEGDISTKBKN)&#45;0.00076829563200478*PAKNEIMPGNFSKN&#45;0.00172030587371022*PAKNYTAXNINDKN&#45;65421)/(1+0.319587584852584) $">
<polygon fill="#63b8ff" stroke="black" points="1518.5,-599 1374.5,-599 1374.5,-563 1518.5,-563 1518.5,-599"/>
<text text-anchor="start" x="1380.5" y="-576.8" font-family="Times New Roman,serif" font-size="14.00" fill="blue">PAKSMAGRFSTYKN:</text>
</a>
</g>
</g>
<!-- PAKNECONPRVTKN&#45;&gt;PAKSMAGRFSTYKN -->
<g id="edge17" class="edge">
<title>PAKNECONPRVTKN&#45;&gt;PAKSMAGRFSTYKN</title>
<g id="a_edge17"><a xlink:href="bogus" xlink:title=" PAKNECONPRVTKN &#45;&gt; PAKSMAGRFSTYKN Min. att. 96% &#160;max: 371%">
<path fill="none" stroke="black" stroke-width="8" d="M1121.41,-643.9C1155.83,-632.15 1202.69,-617.35 1245,-608 1283.87,-599.41 1327.63,-593.14 1364.32,-588.81"/>
<polygon fill="black" stroke="black" stroke-width="8" points="1365.34,-595.74 1374.47,-587.64 1363.74,-581.83 1365.34,-595.74"/>
</a>
</g>
</g>
<!-- PAKNECONENGYKN -->
<g id="node7" class="node">
<title>PAKNECONENGYKN</title>
<g id="a_node7"><a xlink:title="Energy Consumption&#10;FRML &#160;&lt;&gt; PAKNECONENGYKN = PAKNECONENGYSH**(PAKCESENGYCON)*(PAKNECONPRVTKN*(PAKNECONPRVTXN/PAKNECONENGYXN)**(PAKCESENGYCON)) $">
<polygon fill="#63b8ff" stroke="black" points="1577.5,-545 1315.5,-545 1315.5,-509 1577.5,-509 1577.5,-545"/>
<text text-anchor="start" x="1321.5" y="-522.8" font-family="Times New Roman,serif" font-size="14.00" fill="blue">PAKNECONENGYKN:Energy Consumption</text>
</a>
</g>
</g>
<!-- PAKNECONPRVTKN&#45;&gt;PAKNECONENGYKN -->
<g id="edge16" class="edge">
<title>PAKNECONPRVTKN&#45;&gt;PAKNECONENGYKN</title>
<g id="a_edge16"><a xlink:href="bogus" xlink:title=" PAKNECONPRVTKN &#45;&gt; PAKNECONENGYKN Min. att. &#45;699% &#160;max: 3890%">
<path fill="none" stroke="black" stroke-width="8" d="M1093.03,-643.99C1124.58,-619.24 1185.44,-575.38 1245,-554 1264.1,-547.14 1284.8,-542 1305.4,-538.16"/>
<polygon fill="black" stroke="black" stroke-width="8" points="1306.87,-545.01 1315.5,-536.37 1304.43,-531.22 1306.87,-545.01"/>
</a>
</g>
</g>
<!-- PAKNECONOTHRKN -->
<g id="node10" class="node">
<title>PAKNECONOTHRKN</title>
<g id="a_node10"><a xlink:title="Other Consumption&#10;FRML &#160;&lt;&gt; PAKNECONOTHRKN = PAKNECONOTHRSH**(PAKCESENGYCON)*(PAKNECONPRVTKN*(PAKNECONPRVTXN/PAKNECONOTHRXN)**(PAKCESENGYCON)) $">
<polygon fill="#63b8ff" stroke="black" points="1573,-491 1320,-491 1320,-455 1573,-455 1573,-491"/>
<text text-anchor="start" x="1326.5" y="-468.8" font-family="Times New Roman,serif" font-size="14.00" fill="blue">PAKNECONOTHRKN:Other Consumption</text>
</a>
</g>
</g>
<!-- PAKNECONPRVTKN&#45;&gt;PAKNECONOTHRKN -->
<g id="edge24" class="edge">
<title>PAKNECONPRVTKN&#45;&gt;PAKNECONOTHRKN</title>
<g id="a_edge24"><a xlink:href="bogus" xlink:title=" PAKNECONPRVTKN &#45;&gt; PAKNECONOTHRKN Min. att. &#45;12063% &#160;max: 323%">
<path fill="none" stroke="black" stroke-width="8" d="M1084.14,-643.85C1110.34,-609.23 1172.8,-534.15 1245,-500 1265.12,-490.48 1287.57,-484.02 1309.95,-479.69"/>
<polygon fill="black" stroke="black" stroke-width="8" points="1311.28,-486.57 1319.88,-477.9 1308.8,-472.79 1311.28,-486.57"/>
</a>
</g>
</g>
<!-- PAKNEGDETTOTKN -->
<g id="node12" class="node">
<title>PAKNEGDETTOTKN</title>
<g id="a_node12"><a xlink:title="GDE&#10;FRML &#160;&lt;&gt; PAKNEGDETTOTKN = (PAKNECONPRVTKN+PAKNECONGOVTKN+PAKNEGDIFTOTKN+PAKNEGDISTKBKN+PAKNYGDPDISCKN) $">
<polygon fill="#63b8ff" stroke="black" points="1531.5,-437 1361.5,-437 1361.5,-401 1531.5,-401 1531.5,-437"/>
<text text-anchor="start" x="1367.5" y="-414.8" font-family="Times New Roman,serif" font-size="14.00" fill="blue">PAKNEGDETTOTKN:GDE</text>
</a>
</g>
</g>
<!-- PAKNECONPRVTKN&#45;&gt;PAKNEGDETTOTKN -->
<g id="edge29" class="edge">
<title>PAKNECONPRVTKN&#45;&gt;PAKNEGDETTOTKN</title>
<g id="a_edge29"><a xlink:href="bogus" xlink:title=" PAKNECONPRVTKN &#45;&gt; PAKNEGDETTOTKN Min. att. &#45;2284% &#160;max: 2484%">
<path fill="none" stroke="black" stroke-width="8" d="M1079.49,-643.92C1100.62,-601.17 1160.05,-493.88 1245,-446 1276.75,-428.11 1315.7,-420.28 1350.79,-417.3"/>
<polygon fill="black" stroke="black" stroke-width="8" points="1351.6,-424.26 1361.06,-416.56 1350.58,-410.3 1351.6,-424.26"/>
</a>
</g>
</g>
<!-- PAKNYGDPMKTPKN -->
<g id="node15" class="node">
<title>PAKNYGDPMKTPKN</title>
<g id="a_node15"><a xlink:title="GDP Expenditure side at market prices&#10;FRML &#160;&lt;&gt; PAKNYGDPMKTPKN = PAKNECONPRVTKN+PAKNECONGOVTKN+PAKNEGDIFTOTKN+PAKNEGDISTKBKN+PAKNEEXPGNFSKN&#45;PAKNEIMPGNFSKN+PAKNYGDPDISCKN+PAKADAP*PAKDISPREPKN $">
<polygon fill="#63b8ff" stroke="black" points="1627,-383 1266,-383 1266,-347 1627,-347 1627,-383"/>
<text text-anchor="start" x="1272.5" y="-360.8" font-family="Times New Roman,serif" font-size="14.00" fill="blue">PAKNYGDPMKTPKN:GDP Expenditure side at market prices</text>
</a>
</g>
</g>
<!-- PAKNECONPRVTKN&#45;&gt;PAKNYGDPMKTPKN -->
<g id="edge12" class="edge">
<title>PAKNECONPRVTKN&#45;&gt;PAKNYGDPMKTPKN</title>
<g id="a_edge12"><a xlink:href="bogus" xlink:title=" PAKNECONPRVTKN &#45;&gt; PAKNYGDPMKTPKN Min. att. &#45;1557% &#160;max: 290%">
<path fill="none" stroke="black" stroke-width="8" d="M1076.73,-643.64C1093.42,-593.57 1147.1,-454.21 1245,-392 1248.67,-389.67 1252.45,-387.5 1256.33,-385.48"/>
<polygon fill="black" stroke="black" stroke-width="8" points="1259.56,-391.69 1265.53,-381.05 1253.49,-379.08 1259.56,-391.69"/>
</a>
</g>
</g>
<!-- PAKSMSRVFINSKN -->
<g id="node16" class="node">
<title>PAKSMSRVFINSKN</title>
<g id="a_node16"><a xlink:title="PAKSMSRVFINSKN&#10;FRML &#160;&lt;&gt; PAKSMSRVFINSKN = ((1+1.04148314760779)*(0.0520379651885469*PAKNECONPRVTKN+0*PAKNECONGOVTKN+0*PAKNEGDIFTOTKN+0.00879145012359898*PAKNEEXPGNFSKN+0*PAKNEGDISTKBKN)&#45;0.00594416979264236*PAKNEIMPGNFSKN&#45;0.000103762679145856*PAKNYTAXNINDKN&#45;0)/(1+0.24687745523084) $">
<polygon fill="#63b8ff" stroke="black" points="1515,-329 1378,-329 1378,-293 1515,-293 1515,-329"/>
<text text-anchor="start" x="1384.5" y="-306.8" font-family="Times New Roman,serif" font-size="14.00" fill="blue">PAKSMSRVFINSKN:</text>
</a>
</g>
</g>
<!-- PAKNECONPRVTKN&#45;&gt;PAKSMSRVFINSKN -->
<g id="edge32" class="edge">
<title>PAKNECONPRVTKN&#45;&gt;PAKSMSRVFINSKN</title>
<g id="a_edge32"><a xlink:href="bogus" xlink:title=" PAKNECONPRVTKN &#45;&gt; PAKSMSRVFINSKN Min. att. &#45;104% &#160;max: 125%">
<path fill="none" stroke="black" stroke-width="8" d="M1074.7,-643.81C1087.21,-587.51 1133.48,-415.27 1245,-338 1280.32,-313.53 1327.68,-306.28 1367.5,-305.38"/>
<polygon fill="black" stroke="black" stroke-width="8" points="1367.78,-312.38 1377.71,-305.28 1367.65,-298.38 1367.78,-312.38"/>
</a>
</g>
</g>
<!-- PAKNECONPRVTCN -->
<g id="node19" class="node">
<title>PAKNECONPRVTCN</title>
<g id="a_node19"><a xlink:title="Household demand&#10;FRML &#160;&lt;&gt; PAKNECONPRVTCN = PAKNECONPRVTKN*PAKNECONPRVTXN $">
<polygon fill="#63b8ff" stroke="black" points="1570,-275 1323,-275 1323,-239 1570,-239 1570,-275"/>
<text text-anchor="start" x="1329.5" y="-252.8" font-family="Times New Roman,serif" font-size="14.00" fill="blue">PAKNECONPRVTCN:Household demand</text>
</a>
</g>
</g>
<!-- PAKNECONPRVTKN&#45;&gt;PAKNECONPRVTCN -->
<g id="edge22" class="edge">
<title>PAKNECONPRVTKN&#45;&gt;PAKNECONPRVTCN</title>
<g id="a_edge22"><a xlink:href="bogus" xlink:title=" PAKNECONPRVTKN &#45;&gt; PAKNECONPRVTCN Min. att. &#45;720% &#160;max: 6450%">
<path fill="none" stroke="black" stroke-width="8" d="M1073.23,-643.99C1081.92,-582.09 1119.52,-376.77 1245,-284 1264.67,-269.46 1288.48,-260.83 1312.72,-255.97"/>
<polygon fill="black" stroke="black" stroke-width="8" points="1314.15,-262.83 1322.76,-254.18 1311.68,-249.05 1314.15,-262.83"/>
</a>
</g>
</g>
<!-- PAKSMSRVHSNGKN -->
<g id="node20" class="node">
<title>PAKSMSRVHSNGKN</title>
<g id="a_node20"><a xlink:title="PAKSMSRVHSNGKN&#10;FRML &#160;&lt;&gt; PAKSMSRVHSNGKN = ((1+0.782809577554843)*(0.0647364660896117*PAKNECONPRVTKN+0*PAKNECONGOVTKN+0.00605333595533851*PAKNEGDIFTOTKN+0.03048358523237*PAKNEEXPGNFSKN+0*PAKNEGDISTKBKN)&#45;0.0244768173208691*PAKNEIMPGNFSKN&#45;0.0684093628903126*PAKNYTAXNINDKN&#45;0)/(1+0.150771193398883) $">
<polygon fill="#63b8ff" stroke="black" points="1519,-59 1374,-59 1374,-23 1519,-23 1519,-59"/>
<text text-anchor="start" x="1380.5" y="-36.8" font-family="Times New Roman,serif" font-size="14.00" fill="blue">PAKSMSRVHSNGKN:</text>
</a>
</g>
</g>
<!-- PAKNECONPRVTKN&#45;&gt;PAKSMSRVHSNGKN -->
<g id="edge31" class="edge">
<title>PAKNECONPRVTKN&#45;&gt;PAKSMSRVHSNGKN</title>
<g id="a_edge31"><a xlink:href="bogus" xlink:title=" PAKNECONPRVTKN &#45;&gt; PAKSMSRVHSNGKN Min. att. 34% &#160;max: 147%">
<path fill="none" stroke="black" stroke-width="8" d="M1073.63,-643.92C1087.23,-553.05 1152.49,-147.49 1245,-68 1277.17,-40.36 1323.61,-32.79 1363.69,-32.5"/>
<polygon fill="black" stroke="black" stroke-width="8" points="1363.68,-39.5 1373.73,-32.58 1363.79,-25.5 1363.68,-39.5"/>
</a>
</g>
</g>
<!-- PAKSMAGRCRPSKN -->
<g id="node24" class="node">
<title>PAKSMAGRCRPSKN</title>
<g id="a_node24"><a xlink:title="PAKSMAGRCRPSKN&#10;FRML &#160;&lt;&gt; PAKSMAGRCRPSKN = ((1+2.09928590574241)*(0.144287620838506*PAKNECONPRVTKN+0*PAKNECONGOVTKN+0*PAKNEGDIFTOTKN+0.0572678299039023*PAKNEEXPGNFSKN+0.267381669083985*PAKNEGDISTKBKN)&#45;0.0736247088197363*PAKNEIMPGNFSKN&#45;0.0407034395686347*PAKNYTAXNINDKN&#45;906311)/(1+0.396041694659877) $">
<polygon fill="#63b8ff" stroke="black" points="1518.5,-1053 1374.5,-1053 1374.5,-1017 1518.5,-1017 1518.5,-1053"/>
<text text-anchor="start" x="1380.5" y="-1030.8" font-family="Times New Roman,serif" font-size="14.00" fill="blue">PAKSMAGRCRPSKN:</text>
</a>
</g>
</g>
<!-- PAKNECONPRVTKN&#45;&gt;PAKSMAGRCRPSKN -->
<g id="edge27" class="edge">
<title>PAKNECONPRVTKN&#45;&gt;PAKSMAGRCRPSKN</title>
<g id="a_edge27"><a xlink:href="bogus" xlink:title=" PAKNECONPRVTKN &#45;&gt; PAKSMAGRCRPSKN Min. att. &#45;25% &#160;max: 208%">
<path fill="none" stroke="black" stroke-width="8" d="M1074.05,-680.14C1084.97,-738.81 1127.84,-924.47 1245,-1008 1279.07,-1032.29 1324.85,-1039.82 1364.06,-1040.93"/>
<polygon fill="black" stroke="black" stroke-width="8" points="1364.04,-1047.93 1374.14,-1041.08 1364.25,-1033.93 1364.04,-1047.93"/>
</a>
</g>
</g>
<!-- PAKNECONPRVTKN_FITTED -->
<g id="node25" class="node">
<title>PAKNECONPRVTKN_FITTED</title>
<g id="a_node25"><a xlink:title="Fitted &#160;value:Household Consumption&#10;FRML &lt;FIT&gt; PAKNECONPRVTKN_FITTED = PAKNECONPRVTKN(&#45;1)*EXP( (&#45;0.2*(LOG(PAKNECONPRVTKN(&#45;1))&#45;LOG((PAKNYYWBTOTLCN(&#45;1)*(1&#45;PAKGGREVDRCTXN(&#45;1)/100))/PAKNECONPRVTXN(&#45;1)))+1*((LOG((PAKNYYWBTOTLCN*(1&#45;PAKGGREVDRCTXN/100))/PAKNECONPRVTXN))&#45;(LOG((PAKNYYWBTOTLCN(&#45;1)*(1&#45;PAKGGREVDRCTXN(&#45;1)/100))/PAKNECONPRVTXN(&#45;1))))+0.0303228629698929+0.0163839011059956*DURING_2010&#45;0.3*(PAKFMLBLPOLYXN/100&#45;((LOG(PAKNECONPRVTXN))&#45;(LOG(PAKNECONPRVTXN(&#45;1)))))) ) $">
<polygon fill="#63b8ff" stroke="black" points="1648,-999 1245,-999 1245,-963 1648,-963 1648,-999"/>
<text text-anchor="start" x="1251.5" y="-976.8" font-family="Times New Roman,serif" font-size="14.00" fill="blue">PAKNECONPRVTKN_FITTED:Fitted &#160;value:Household Consumption</text>
</a>
</g>
</g>
<!-- PAKNECONPRVTKN&#45;&gt;PAKNECONPRVTKN_FITTED -->
<g id="edge10" class="edge">
<title>PAKNECONPRVTKN&#45;&gt;PAKNECONPRVTKN_FITTED</title>
<g id="a_edge10"><a xlink:href="bogus" xlink:title=" PAKNECONPRVTKN &#45;&gt; PAKNECONPRVTKN_FITTED Min. att. &#45;786% &#160;max: 175%">
<path fill="none" stroke="black" stroke-width="8" d="M1075.82,-680.28C1090.75,-732.97 1141.59,-885.71 1245,-954 1247.18,-955.44 1249.4,-956.82 1251.66,-958.14"/>
<polygon fill="black" stroke="black" stroke-width="8" points="1248.44,-964.35 1260.56,-962.94 1255.09,-952.03 1248.44,-964.35"/>
</a>
</g>
</g>
<!-- PAKSMENGTOTLKN -->
<g id="node26" class="node">
<title>PAKSMENGTOTLKN</title>
<g id="a_node26"><a xlink:title="PAKSMENGTOTLKN&#10;FRML &#160;&lt;&gt; PAKSMENGTOTLKN = ((1+1.65868473220397)*(0.0775261497897936*PAKNECONPRVTKN+0*PAKNECONGOVTKN+0*PAKNEGDIFTOTKN+0.0217448978257548*PAKNEEXPGNFSKN+0.0458991644104248*PAKNEGDISTKBKN)&#45;0.11894699850705*PAKNEIMPGNFSKN&#45;&#45;0.50579180838529*PAKNYTAXNINDKN&#45;0)/(1+5.65663938581514) $">
<polygon fill="#63b8ff" stroke="black" points="1519,-945 1374,-945 1374,-909 1519,-909 1519,-945"/>
<text text-anchor="start" x="1380.5" y="-922.8" font-family="Times New Roman,serif" font-size="14.00" fill="blue">PAKSMENGTOTLKN:</text>
</a>
</g>
</g>
<!-- PAKNECONPRVTKN&#45;&gt;PAKSMENGTOTLKN -->
<g id="edge5" class="edge">
<title>PAKNECONPRVTKN&#45;&gt;PAKSMENGTOTLKN</title>
<g id="a_edge5"><a xlink:href="bogus" xlink:title=" PAKNECONPRVTKN &#45;&gt; PAKSMENGTOTLKN Min. att. &#45;14% &#160;max: 2186%">
<path fill="none" stroke="black" stroke-width="8" d="M1078.57,-680.01C1098.42,-724.82 1156.65,-841.58 1245,-895 1280.3,-916.35 1325.24,-924.86 1363.61,-927.82"/>
<polygon fill="black" stroke="black" stroke-width="8" points="1363.3,-934.81 1373.73,-928.48 1364.21,-920.84 1363.3,-934.81"/>
</a>
</g>
</g>
<!-- PAKSMINDMNGSKN -->
<g id="node28" class="node">
<title>PAKSMINDMNGSKN</title>
<g id="a_node28"><a xlink:title="PAKSMINDMNGSKN&#10;FRML &#160;&lt;&gt; PAKSMINDMNGSKN = ((1+6.96158341862144)*(0.0132800565666619*PAKNECONPRVTKN+0*PAKNECONGOVTKN+0*PAKNEGDIFTOTKN+0.00704674623894759*PAKNEEXPGNFSKN+0.024122890632682*PAKNEGDISTKBKN)&#45;0.134221966110302*PAKNEIMPGNFSKN&#45;0.500981557895139*PAKNYTAXNINDKN&#45;123652.869264758)/(1+0.200800622280983) $">
<polygon fill="#63b8ff" stroke="black" points="1519.5,-853 1373.5,-853 1373.5,-817 1519.5,-817 1519.5,-853"/>
<text text-anchor="start" x="1379.5" y="-830.8" font-family="Times New Roman,serif" font-size="14.00" fill="blue">PAKSMINDMNGSKN:</text>
</a>
</g>
</g>
<!-- PAKNECONPRVTKN&#45;&gt;PAKSMINDMNGSKN -->
<g id="edge25" class="edge">
<title>PAKNECONPRVTKN&#45;&gt;PAKSMINDMNGSKN</title>
<g id="a_edge25"><a xlink:href="bogus" xlink:title=" PAKNECONPRVTKN &#45;&gt; PAKSMINDMNGSKN Min. att. &#45;1229% &#160;max: 1716%">
<path fill="none" stroke="black" stroke-width="8" d="M1086.07,-680.07C1113.82,-711.97 1176.47,-777.72 1245,-808 1281.71,-824.22 1325.59,-831.34 1362.93,-834.25"/>
<polygon fill="black" stroke="black" stroke-width="8" points="1362.82,-841.26 1373.27,-834.96 1363.78,-827.29 1362.82,-841.26"/>
</a>
</g>
</g>
<!-- PAKSMSRVTRNSKN -->
<g id="node30" class="node">
<title>PAKSMSRVTRNSKN</title>
<g id="a_node30"><a xlink:title="PAKSMSRVTRNSKN&#10;FRML &#160;&lt;&gt; PAKSMSRVTRNSKN = ((1+0.301074862860981)*(0.204687752761289*PAKNECONPRVTKN+0*PAKNECONGOVTKN+0*PAKNEGDIFTOTKN+0.0551862611209703*PAKNEEXPGNFSKN+0*PAKNEGDISTKBKN)&#45;&#45;0.0392641863572605*PAKNEIMPGNFSKN&#45;0.0174996684619017*PAKNYTAXNINDKN&#45;0)/(1+1.11680986862739) $">
<polygon fill="#63b8ff" stroke="black" points="1517.5,-799 1375.5,-799 1375.5,-763 1517.5,-763 1517.5,-799"/>
<text text-anchor="start" x="1381.5" y="-776.8" font-family="Times New Roman,serif" font-size="14.00" fill="blue">PAKSMSRVTRNSKN:</text>
</a>
</g>
</g>
<!-- PAKNECONPRVTKN&#45;&gt;PAKSMSRVTRNSKN -->
<g id="edge1" class="edge">
<title>PAKNECONPRVTKN&#45;&gt;PAKSMSRVTRNSKN</title>
<g id="a_edge1"><a xlink:href="bogus" xlink:title=" PAKNECONPRVTKN &#45;&gt; PAKSMSRVTRNSKN Min. att. 87% &#160;max: 592%">
<path fill="none" stroke="black" stroke-width="8" d="M1100.3,-680.16C1133.96,-700.17 1191.46,-731.79 1245,-749 1283.5,-761.37 1327.75,-769.08 1364.88,-773.82"/>
<polygon fill="black" stroke="black" stroke-width="8" points="1364.37,-780.81 1375.15,-775.08 1366.07,-766.92 1364.37,-780.81"/>
</a>
</g>
</g>
<!-- PAKNECONENGYXN -->
<g id="node8" class="node">
<title>PAKNECONENGYXN</title>
<g id="a_node8"><a xlink:title="Energy Consumption&#10;FRML &lt;Z,EXO&gt; PAKNECONENGYXN = (PAKNECONENGYXN(&#45;1)*EXP(&#45;PAKNECONENGYXN_A+ (((LOG(PAKNECONENGYGN))&#45;(LOG(PAKNECONENGYGN(&#45;1))))+0.0550557534575806*DUMH) )) * (1&#45;PAKNECONENGYXN_D)+ PAKNECONENGYXN_X*PAKNECONENGYXN_D &#160;$">
<polygon fill="#63b8ff" stroke="black" points="597.5,-903 335.5,-903 335.5,-867 597.5,-867 597.5,-903"/>
<text text-anchor="start" x="341.5" y="-880.8" font-family="Times New Roman,serif" font-size="14.00" fill="blue">PAKNECONENGYXN:Energy Consumption</text>
</a>
</g>
</g>
<!-- PAKNECONENGYXN&#45;&gt;PAKNECONPRVTXN -->
<g id="edge33" class="edge">
<title>PAKNECONENGYXN&#45;&gt;PAKNECONPRVTXN</title>
<g id="a_edge33"><a xlink:href="bogus" xlink:title=" PAKNECONENGYXN &#45;&gt; PAKNECONPRVTXN Min. att. 1% &#160;max: 29%">
<path fill="none" stroke="black" stroke-width="2.91" d="M597.54,-873.39C610.43,-872.24 623.53,-871.07 636.45,-869.92"/>
<polygon fill="black" stroke="black" stroke-width="2.91" points="637.12,-873.37 646.77,-869 636.5,-866.4 637.12,-873.37"/>
</a>
</g>
</g>
<!-- PAKNYGDPGAP_ -->
<g id="node9" class="node">
<title>PAKNYGDPGAP_</title>
<g id="a_node9"><a xlink:title="Output Gap (% of Potential GDP)&#10;FRML &#160;&lt;&gt; PAKNYGDPGAP_ = ((PAKNYGDPMKTPKN/PAKNYGDPPOTLKN&#45;1)*100) $">
<polygon fill="#63b8ff" stroke="black" points="1993,-352 1684,-352 1684,-316 1993,-316 1993,-352"/>
<text text-anchor="start" x="1690.5" y="-329.8" font-family="Times New Roman,serif" font-size="14.00" fill="blue">PAKNYGDPGAP_:Output Gap (% of Potential GDP)</text>
</a>
</g>
</g>
<!-- PAKNYGDPGAP_&#45;&gt;PAKFMLBLPOLYXN -->
<g id="edge4" class="edge">
<title>PAKNYGDPGAP_&#45;&gt;PAKFMLBLPOLYXN</title>
<g id="a_edge4"><a xlink:href="bogus" xlink:title=" PAKNYGDPGAP_ &#45;&gt; PAKFMLBLPOLYXN Min. att. &#45;15% &#160;max: 83%">
<path fill="none" stroke="black" stroke-width="8" d="M1852.84,-352.01C1900.22,-415.99 2060.62,-632.55 2116.83,-708.45"/>
<polygon fill="black" stroke="black" stroke-width="8" points="2111.28,-712.71 2122.86,-716.58 2122.53,-704.38 2111.28,-712.71"/>
</a>
</g>
</g>
<!-- PAKLMEMPTOTLCN -->
<g id="node21" class="node">
<title>PAKLMEMPTOTLCN</title>
<g id="a_node21"><a xlink:title="Employment&#10;FRML &lt;Z,EXO&gt; PAKLMEMPTOTLCN = (PAKLMEMPTOTLCN(&#45;1)*EXP(&#45;PAKLMEMPTOTLCN_A+ (&#45;0.345624644563667*(LOG(PAKLMEMPTOTLCN(&#45;1))&#45;LOG(PAKLMEMPSTRLCN(&#45;1)))&#45;0.1*(((LOG(PAKNYWRTTOTLCN/PAKNYGDPFCSTXN))&#45;(LOG(PAKNYWRTTOTLCN(&#45;1)/PAKNYGDPFCSTXN(&#45;1))))&#45;((LOG(PAKNYGDPPOTLKN/PAKLMEMPSTRLCN))&#45;(LOG(PAKNYGDPPOTLKN(&#45;1)/PAKLMEMPSTRLCN(&#45;1)))))&#45;0.0011790007645121+((LOG(PAKLMEMPSTRLCN))&#45;(LOG(PAKLMEMPSTRLCN(&#45;1))))+0.175412878170024*PAKNYGDPGAP_/100+0.0369790799942338*DURING_2010) )) * (1&#45;PAKLMEMPTOTLCN_D)+ PAKLMEMPTOTLCN_X*PAKLMEMPTOTLCN_D &#160;$">
<polygon fill="#63b8ff" stroke="black" points="2246,-255 2029,-255 2029,-219 2246,-219 2246,-255"/>
<text text-anchor="start" x="2035.5" y="-232.8" font-family="Times New Roman,serif" font-size="14.00" fill="blue">PAKLMEMPTOTLCN:Employment</text>
</a>
</g>
</g>
<!-- PAKNYGDPGAP_&#45;&gt;PAKLMEMPTOTLCN -->
<g id="edge9" class="edge">
<title>PAKNYGDPGAP_&#45;&gt;PAKLMEMPTOTLCN</title>
<g id="a_edge9"><a xlink:href="bogus" xlink:title=" PAKNYGDPGAP_ &#45;&gt; PAKLMEMPTOTLCN Min. att. &#45;362% &#160;max: 147%">
<path fill="none" stroke="black" stroke-width="8" d="M1894.67,-315.98C1944.81,-299.61 2018.82,-275.43 2071.75,-258.15"/>
<polygon fill="black" stroke="black" stroke-width="8" points="2074.04,-264.76 2081.38,-255 2069.7,-251.45 2074.04,-264.76"/>
</a>
</g>
</g>
<!-- PAKFMLBLPOLYXN&#45;&gt;PAKNECONPRVTKN -->
<g id="edge20" class="edge">
<title>PAKFMLBLPOLYXN&#45;&gt;PAKNECONPRVTKN</title>
<g id="a_edge20"><a xlink:href="bogus" xlink:title=" PAKFMLBLPOLYXN &#45;&gt; PAKNECONPRVTKN Min. att. &#45;160% &#160;max: 20%">
<path fill="none" stroke="black" stroke-width="8" d="M2034.72,-741.99C1868.29,-751.38 1528.07,-762.01 1245,-716 1204.37,-709.4 1160.07,-695.55 1126.35,-683.53"/>
<polygon fill="black" stroke="black" stroke-width="8" points="1128.47,-676.85 1116.68,-680.03 1123.7,-690.02 1128.47,-676.85"/>
</a>
</g>
</g>
<!-- PAKNEIMPGNFSXN -->
<g id="node13" class="node">
<title>PAKNEIMPGNFSXN</title>
<g id="a_node13"><a xlink:title="Imports (G&amp;S)&#10;FRML &#160;&lt;&gt; PAKNEIMPGNFSXN = ((PAKNEIMPENGYSH**PAKCESENGYIMPT)*PAKNVENGNIMPXN**(1&#45;PAKCESENGYIMPT)+(PAKNEIMPOTHRSH**PAKCESENGYIMPT)*PAKNEIMPGSNEXN**(1&#45;PAKCESENGYIMPT))**(1/(1&#45;PAKCESENGYIMPT)) $">
<polygon fill="#63b8ff" stroke="black" points="254.5,-849 31.5,-849 31.5,-813 254.5,-813 254.5,-849"/>
<text text-anchor="start" x="38" y="-826.8" font-family="Times New Roman,serif" font-size="14.00" fill="blue">PAKNEIMPGNFSXN:Imports (G&amp;S)</text>
</a>
</g>
</g>
<!-- PAKNECONOTHRXN -->
<g id="node27" class="node">
<title>PAKNECONOTHRXN</title>
<g id="a_node27"><a xlink:title="Non&#45;Energy Consumption&#10;FRML &lt;Z,EXO&gt; PAKNECONOTHRXN = (PAKNECONOTHRXN(&#45;1)*EXP(&#45;PAKNECONOTHRXN_A+ (0.598859116610832*((LOG(PAKNYGDPFCSTXN))&#45;(LOG(PAKNYGDPFCSTXN(&#45;1))))+((PAKGGREVGNFSXN/100)&#45;(PAKGGREVGNFSXN(&#45;1)/100))+(1&#45;0.598859116610832)*((LOG(PAKNEIMPGNFSXN))&#45;(LOG(PAKNEIMPGNFSXN(&#45;1))))+0.2*PAKNYGDPGAP_/100) )) * (1&#45;PAKNECONOTHRXN_D)+ PAKNECONOTHRXN_X*PAKNECONOTHRXN_D &#160;$">
<polygon fill="#63b8ff" stroke="black" points="611,-849 322,-849 322,-813 611,-813 611,-849"/>
<text text-anchor="start" x="328.5" y="-826.8" font-family="Times New Roman,serif" font-size="14.00" fill="blue">PAKNECONOTHRXN:Non&#45;Energy Consumption</text>
</a>
</g>
</g>
<!-- PAKNEIMPGNFSXN&#45;&gt;PAKNECONOTHRXN -->
<g id="edge14" class="edge">
<title>PAKNEIMPGNFSXN&#45;&gt;PAKNECONOTHRXN</title>
<g id="a_edge14"><a xlink:href="bogus" xlink:title=" PAKNEIMPGNFSXN &#45;&gt; PAKNECONOTHRXN Min. att. &#45;10% &#160;max: 114%">
<path fill="none" stroke="black" stroke-width="8" d="M254.64,-831C273.05,-831 292.43,-831 311.68,-831"/>
<polygon fill="black" stroke="black" stroke-width="8" points="311.72,-838 321.72,-831 311.72,-824 311.72,-838"/>
</a>
</g>
</g>
<!-- PAKNYWRTTOTLCN&#45;&gt;PAKLMEMPTOTLCN -->
<g id="edge23" class="edge">
<title>PAKNYWRTTOTLCN&#45;&gt;PAKLMEMPTOTLCN</title>
<g id="a_edge23"><a xlink:href="bogus" xlink:title=" PAKNYWRTTOTLCN &#45;&gt; PAKLMEMPTOTLCN Min. att. &#45;1554% &#160;max: 236%">
<path fill="none" stroke="black" stroke-width="8" d="M1922.71,-171.04C1945.6,-176.4 1970.35,-182.57 1993,-189 2020.79,-196.89 2051.18,-206.85 2076.81,-215.66"/>
<polygon fill="black" stroke="black" stroke-width="8" points="2074.64,-222.32 2086.38,-218.97 2079.22,-209.09 2074.64,-222.32"/>
</a>
</g>
</g>
<!-- PAKNYYWBTOTLCN -->
<g id="node23" class="node">
<title>PAKNYYWBTOTLCN</title>
<g id="a_node23"><a xlink:title="Economy&#45;wide wage bill&#10;FRML &#160;&lt;&gt; PAKNYYWBTOTLCN = PAKNYWRTTOTLCN*PAKLMEMPTOTLCN $">
<polygon fill="#63b8ff" stroke="black" points="2567,-255 2282,-255 2282,-219 2567,-219 2567,-255"/>
<text text-anchor="start" x="2288.5" y="-232.8" font-family="Times New Roman,serif" font-size="14.00" fill="blue">PAKNYYWBTOTLCN:Economy&#45;wide wage bill</text>
</a>
</g>
</g>
<!-- PAKNYWRTTOTLCN&#45;&gt;PAKNYYWBTOTLCN -->
<g id="edge7" class="edge">
<title>PAKNYWRTTOTLCN&#45;&gt;PAKNYYWBTOTLCN</title>
<g id="a_edge7"><a xlink:href="bogus" xlink:title=" PAKNYWRTTOTLCN &#45;&gt; PAKNYYWBTOTLCN Min. att. 16% &#160;max: 106%">
<path fill="none" stroke="black" stroke-width="8" d="M1929.16,-165.27C2011.55,-176.61 2137.06,-194.08 2246,-210 2262.24,-212.37 2279.31,-214.91 2296.19,-217.45"/>
<polygon fill="black" stroke="black" stroke-width="8" points="2295.16,-224.38 2306.09,-218.94 2297.25,-210.53 2295.16,-224.38"/>
</a>
</g>
</g>
<!-- PAKNYGDPMKTPKN&#45;&gt;PAKNYGDPGAP_ -->
<g id="edge21" class="edge">
<title>PAKNYGDPMKTPKN&#45;&gt;PAKNYGDPGAP_</title>
<g id="a_edge21"><a xlink:href="bogus" xlink:title=" PAKNYGDPMKTPKN &#45;&gt; PAKNYGDPGAP_ Min. att. &#45;78553% &#160;max: 128142%">
<path fill="none" stroke="black" stroke-width="8" d="M1627.09,-350.72C1642.67,-349.49 1658.38,-348.24 1673.82,-347.01"/>
<polygon fill="black" stroke="black" stroke-width="8" points="1674.51,-353.98 1683.93,-346.21 1673.4,-340.02 1674.51,-353.98"/>
</a>
</g>
</g>
<!-- PAKNYGDPFCSTXN -->
<g id="node17" class="node">
<title>PAKNYGDPFCSTXN</title>
<g id="a_node17"><a xlink:title="GDP at factor cost&#10;FRML &lt;Z,EXO&gt; PAKNYGDPFCSTXN = (PAKNYGDPFCSTXN(&#45;1)*EXP(&#45;PAKNYGDPFCSTXN_A+ (0.6*((LOG(PAKNYGDPFCSTXN(&#45;1)))&#45;(LOG(PAKNYGDPFCSTXN(&#45;2))))+(1&#45;0.6)*(0.7*PAKINFLEXPT/100+(1&#45;0.7)*((LOG(PAKPSTAR(&#45;1)))&#45;(LOG(PAKPSTAR(&#45;2)))))+0.25*PAKNYGDPGAP_/100+0.262461811660072*DURING_2000&#45;0.205776950553378*DURING_2001) )) * (1&#45;PAKNYGDPFCSTXN_D)+ PAKNYGDPFCSTXN_X*PAKNYGDPFCSTXN_D &#160;$">
<polygon fill="#63b8ff" stroke="black" points="1959.5,-267 1717.5,-267 1717.5,-231 1959.5,-231 1959.5,-267"/>
<text text-anchor="start" x="1723.5" y="-244.8" font-family="Times New Roman,serif" font-size="14.00" fill="blue">PAKNYGDPFCSTXN:GDP at factor cost</text>
</a>
</g>
</g>
<!-- PAKNYGDPFCSTXN&#45;&gt;PAKLMEMPTOTLCN -->
<g id="edge2" class="edge">
<title>PAKNYGDPFCSTXN&#45;&gt;PAKLMEMPTOTLCN</title>
<g id="a_edge2"><a xlink:href="bogus" xlink:title=" PAKNYGDPFCSTXN &#45;&gt; PAKLMEMPTOTLCN Min. att. &#45;128% &#160;max: 59%">
<path fill="none" stroke="black" stroke-width="8" d="M1959.87,-244.14C1979.32,-243.35 1999.43,-242.54 2018.81,-241.76"/>
<polygon fill="black" stroke="black" stroke-width="8" points="2019.16,-248.75 2028.87,-241.35 2018.59,-234.76 2019.16,-248.75"/>
</a>
</g>
</g>
<!-- PAKNYWRTFORMCN -->
<g id="node18" class="node">
<title>PAKNYWRTFORMCN</title>
<g id="a_node18"><a xlink:title="Formal wage&#10;FRML &lt;Z,EXO&gt; PAKNYWRTFORMCN = (PAKNYWRTFORMCN(&#45;1)*EXP(&#45;PAKNYWRTFORMCN_A+ (&#45;0.120164450250183&#45;0.3*(LOG(PAKNYWRTFORMCN(&#45;1))&#45;LOG(PAKNYGDPFCSTXN(&#45;1))&#45;LOG(PAKNYGDPPOTLKN(&#45;1)/PAKLMEMPSTRLCN(&#45;1)))+0.2*((LOG(PAKNYWRTFORMCN(&#45;1)))&#45;(LOG(PAKNYWRTFORMCN(&#45;2))))+(1&#45;0.2)*(0.5*((LOG(PAKNYGDPFCSTXN(&#45;1)))&#45;(LOG(PAKNYGDPFCSTXN(&#45;2))))+0.5*(PAKINFLEXPT/100)+((LOG(PAKNYGDPMKTPKN/PAKLMEMPSTRLCN))&#45;(LOG(PAKNYGDPMKTPKN(&#45;1)/PAKLMEMPSTRLCN(&#45;1)))))&#45;0.2*(PAKLMUNRTOTLCN&#45;PAKLMUNRSTRLCN)/100+0.15233813938029*DURING_2000&#45;0.183411483907703*DURING_2001) )) * (1&#45;PAKNYWRTFORMCN_D)+ PAKNYWRTFORMCN_X*PAKNYWRTFORMCN_D &#160;$">
<polygon fill="#63b8ff" stroke="black" points="1557.5,-167 1335.5,-167 1335.5,-131 1557.5,-131 1557.5,-167"/>
<text text-anchor="start" x="1341.5" y="-144.8" font-family="Times New Roman,serif" font-size="14.00" fill="blue">PAKNYWRTFORMCN:Formal wage</text>
</a>
</g>
</g>
<!-- PAKNYWRTFORMCN&#45;&gt;PAKNYWRTTOTLCN -->
<g id="edge3" class="edge">
<title>PAKNYWRTFORMCN&#45;&gt;PAKNYWRTTOTLCN</title>
<g id="a_edge3"><a xlink:href="bogus" xlink:title=" PAKNYWRTFORMCN &#45;&gt; PAKNYWRTTOTLCN Min. att. 21% &#160;max: 21%">
<path fill="none" stroke="black" stroke-width="2.13" d="M1557.69,-150.13C1614.31,-150.71 1682.78,-151.41 1737.81,-151.98"/>
<polygon fill="black" stroke="black" stroke-width="2.13" points="1737.89,-155.48 1747.92,-152.08 1737.96,-148.48 1737.89,-155.48"/>
</a>
</g>
</g>
<!-- PAKLMEMPTOTLCN&#45;&gt;PAKNYYWBTOTLCN -->
<g id="edge34" class="edge">
<title>PAKLMEMPTOTLCN&#45;&gt;PAKNYYWBTOTLCN</title>
<g id="a_edge34"><a xlink:href="bogus" xlink:title=" PAKLMEMPTOTLCN &#45;&gt; PAKNYYWBTOTLCN Min. att. &#45;6% &#160;max: 84%">
<path fill="none" stroke="black" stroke-width="8" d="M2246.25,-237C2254.63,-237 2263.19,-237 2271.79,-237"/>
<polygon fill="black" stroke="black" stroke-width="8" points="2271.89,-244 2281.89,-237 2271.89,-230 2271.89,-244"/>
</a>
</g>
</g>
<!-- PAKNYGDPPOTLKN -->
<g id="node22" class="node">
<title>PAKNYGDPPOTLKN</title>
<g id="a_node22"><a xlink:title="Potential GDP&#10;FRML &#160;&lt;&gt; PAKNYGDPPOTLKN = PAKNYGDPTFP*(PAKLMEMPSTRLCN**PAKNYYWBTOTLCN_)*(PAKNEGDIKSTKKN(&#45;1)**(1&#45;PAKNYYWBTOTLCN_)) $">
<polygon fill="#63b8ff" stroke="black" points="1557,-221 1336,-221 1336,-185 1557,-185 1557,-221"/>
<text text-anchor="start" x="1342.5" y="-198.8" font-family="Times New Roman,serif" font-size="14.00" fill="blue">PAKNYGDPPOTLKN:Potential GDP</text>
</a>
</g>
</g>
<!-- PAKNYGDPPOTLKN&#45;&gt;PAKNYGDPGAP_ -->
<g id="edge26" class="edge">
<title>PAKNYGDPPOTLKN&#45;&gt;PAKNYGDPGAP_</title>
<g id="a_edge26"><a xlink:href="bogus" xlink:title=" PAKNYGDPPOTLKN &#45;&gt; PAKNYGDPGAP_ Min. att. &#45;129220% &#160;max: 79383%">
<path fill="none" stroke="black" stroke-width="8" d="M1557,-202.58C1588.01,-206.37 1620.72,-214.37 1648,-230 1670.53,-242.91 1663.08,-260.62 1684,-276 1705.38,-291.72 1731.52,-303.68 1756.12,-312.53"/>
<polygon fill="black" stroke="black" stroke-width="8" points="1754.09,-319.23 1765.83,-315.89 1758.67,-306 1754.09,-319.23"/>
</a>
</g>
</g>
<!-- PAKNYGDPPOTLKN&#45;&gt;PAKLMEMPTOTLCN -->
<g id="edge19" class="edge">
<title>PAKNYGDPPOTLKN&#45;&gt;PAKLMEMPTOTLCN</title>
<g id="a_edge19"><a xlink:href="bogus" xlink:title=" PAKNYGDPPOTLKN &#45;&gt; PAKLMEMPTOTLCN Min. att. &#45;92% &#160;max: 605%">
<path fill="none" stroke="black" stroke-width="8" d="M1557.07,-204.59C1667.3,-206.71 1842.1,-211.5 1993,-222 2001.35,-222.58 2009.97,-223.27 2018.64,-224.02"/>
<polygon fill="black" stroke="black" stroke-width="8" points="2018.25,-231.01 2028.83,-224.93 2019.49,-217.07 2018.25,-231.01"/>
</a>
</g>
</g>
<!-- PAKNYYWBTOTLCN&#45;&gt;PAKNECONPRVTKN -->
<g id="edge15" class="edge">
<title>PAKNYYWBTOTLCN&#45;&gt;PAKNECONPRVTKN</title>
<g id="a_edge15"><a xlink:href="bogus" xlink:title=" PAKNYYWBTOTLCN &#45;&gt; PAKNECONPRVTKN Min. att. &#45;594% &#160;max: 5821%">
<path fill="none" stroke="black" stroke-width="8" d="M2423.54,-255.25C2422.65,-331.08 2408.46,-623.7 2246,-762 2160.89,-834.45 1346.72,-908.33 1245,-862 1166.21,-826.11 1109.26,-734.97 1084.59,-689.16"/>
<polygon fill="black" stroke="black" stroke-width="8" points="1090.68,-685.69 1079.83,-680.11 1078.29,-692.22 1090.68,-685.69"/>
</a>
</g>
</g>
<!-- PAKNECONOTHRXN&#45;&gt;PAKNECONPRVTXN -->
<g id="edge13" class="edge">
<title>PAKNECONOTHRXN&#45;&gt;PAKNECONPRVTXN</title>
<g id="a_edge13"><a xlink:href="bogus" xlink:title=" PAKNECONOTHRXN &#45;&gt; PAKNECONPRVTXN Min. att. 71% &#160;max: 99%">
<path fill="none" stroke="black" stroke-width="8" d="M611.22,-843.83C619.67,-844.58 628.16,-845.34 636.57,-846.09"/>
<polygon fill="black" stroke="black" stroke-width="8" points="636.2,-853.09 646.78,-847 637.44,-839.14 636.2,-853.09"/>
</a>
</g>
</g>
<!-- PAKNECONENGYGN -->
<g id="node29" class="node">
<title>PAKNECONENGYGN</title>
<g id="a_node29"><a xlink:title="Net consumption deflator&#10;FRML &#160;&lt;&gt; PAKNECONENGYGN = (PAKNVCOLPRODSH**(PAKCESENGYPROD)*(PAKNVCOLPRODGN)**(1&#45;PAKCESENGYPROD)+PAKNVGASPRODSH**(PAKCESENGYPROD)*(PAKNVGASPRODGN)**(1&#45;PAKCESENGYPROD)+PAKNVOILPRODSH**(PAKCESENGYPROD)*(PAKNVOILPRODGN)**(1&#45;PAKCESENGYPROD)+PAKNVRENPRODSH**(PAKCESENGYPROD)*(PAKNVRENPRODXN)**(1&#45;PAKCESENGYPROD))**(1/(1&#45;PAKCESENGYPROD)) $">
<polygon fill="#63b8ff" stroke="black" points="286,-903 0,-903 0,-867 286,-867 286,-903"/>
<text text-anchor="start" x="6" y="-880.8" font-family="Times New Roman,serif" font-size="14.00" fill="blue">PAKNECONENGYGN:Net consumption deflator</text>
</a>
</g>
</g>
<!-- PAKNECONENGYGN&#45;&gt;PAKNECONENGYXN -->
<g id="edge11" class="edge">
<title>PAKNECONENGYGN&#45;&gt;PAKNECONENGYXN</title>
<g id="a_edge11"><a xlink:href="bogus" xlink:title=" PAKNECONENGYGN &#45;&gt; PAKNECONENGYXN Min. att. &#45;39% &#160;max: 100%">
<path fill="none" stroke="black" stroke-width="8" d="M286.42,-885C299.27,-885 312.29,-885 325.13,-885"/>
<polygon fill="black" stroke="black" stroke-width="8" points="325.38,-892 335.38,-885 325.38,-878 325.38,-892"/>
</a>
</g>
</g>
</g>
</svg>
