<?xml version="1.0" encoding="UTF-8" standalone="no"?>
<!DOCTYPE svg PUBLIC "-//W3C//DTD SVG 1.1//EN"
 "http://www.w3.org/Graphics/SVG/1.1/DTD/svg11.dtd">
<!-- Generated by graphviz version 6.0.1 (0)
 -->
<!-- Title: TD Pages: 1 -->
<svg width="432pt" height="189pt"
 viewBox="0.00 0.00 432.00 188.94" xmlns="http://www.w3.org/2000/svg" xmlns:xlink="http://www.w3.org/1999/xlink">
<g id="graph0" class="graph" transform="scale(0.167767 0.167767) rotate(0) translate(4 1122.19)">
<title>TD</title>
<polygon fill="white" stroke="none" points="-4,4 -4,-1122.19 2571,-1122.19 2571,4 -4,4"/>
<text text-anchor="middle" x="1283.5" y="-7.8" font-family="Times New Roman,serif" font-size="14.00">PAKNECONPRVTKN</text>
<!-- PAKSMSRVTRNSKN -->
<g id="node1" class="node">
<title>PAKSMSRVTRNSKN</title>
<g id="a_node1"><a xlink:title="PAKSMSRVTRNSKN&#10;FRML &#160;&lt;&gt; PAKSMSRVTRNSKN = ((1+0.301074862860981)*(0.204687752761289*PAKNECONPRVTKN+0*PAKNECONGOVTKN+0*PAKNEGDIFTOTKN+0.0551862611209703*PAKNEEXPGNFSKN+0*PAKNEGDISTKBKN)&#45;&#45;0.0392641863572605*PAKNEIMPGNFSKN&#45;0.0174996684619017*PAKNYTAXNINDKN&#45;0)/(1+1.11680986862739) $">
<polygon fill="#63b8ff" stroke="black" points="1517.5,-956.19 1375.5,-956.19 1375.5,-920.19 1517.5,-920.19 1517.5,-956.19"/>
<text text-anchor="start" x="1381.5" y="-933.99" font-family="Times New Roman,serif" font-size="14.00" fill="blue">PAKSMSRVTRNSKN:</text>
</a>
</g>
</g>
<!-- PAKNYGDPPOTLKN -->
<g id="node2" class="node">
<title>PAKNYGDPPOTLKN</title>
<g id="a_node2"><a xlink:title="Potential GDP&#10;FRML &#160;&lt;&gt; PAKNYGDPPOTLKN = PAKNYGDPTFP*(PAKLMEMPSTRLCN**PAKNYYWBTOTLCN_)*(PAKNEGDIKSTKKN(&#45;1)**(1&#45;PAKNYYWBTOTLCN_)) $">
<polygon fill="#63b8ff" stroke="black" points="1557,-1010.19 1336,-1010.19 1336,-974.19 1557,-974.19 1557,-1010.19"/>
<text text-anchor="start" x="1342.5" y="-987.99" font-family="Times New Roman,serif" font-size="14.00" fill="blue">PAKNYGDPPOTLKN:Potential GDP</text>
</a>
</g>
</g>
<!-- PAKLMEMPTOTLCN -->
<g id="node12" class="node">
<title>PAKLMEMPTOTLCN</title>
<g id="a_node12"><a xlink:title="Employment&#10;FRML &lt;Z,EXO&gt; PAKLMEMPTOTLCN = (PAKLMEMPTOTLCN(&#45;1)*EXP(&#45;PAKLMEMPTOTLCN_A+ (&#45;0.345624644563667*(LOG(PAKLMEMPTOTLCN(&#45;1))&#45;LOG(PAKLMEMPSTRLCN(&#45;1)))&#45;0.1*(((LOG(PAKNYWRTTOTLCN/PAKNYGDPFCSTXN))&#45;(LOG(PAKNYWRTTOTLCN(&#45;1)/PAKNYGDPFCSTXN(&#45;1))))&#45;((LOG(PAKNYGDPPOTLKN/PAKLMEMPSTRLCN))&#45;(LOG(PAKNYGDPPOTLKN(&#45;1)/PAKLMEMPSTRLCN(&#45;1)))))&#45;0.0011790007645121+((LOG(PAKLMEMPSTRLCN))&#45;(LOG(PAKLMEMPSTRLCN(&#45;1))))+0.175412878170024*PAKNYGDPGAP_/100+0.0369790799942338*DURING_2010) )) * (1&#45;PAKLMEMPTOTLCN_D)+ PAKLMEMPTOTLCN_X*PAKLMEMPTOTLCN_D &#160;$">
<polygon fill="#63b8ff" stroke="black" points="2246,-987.19 2029,-987.19 2029,-951.19 2246,-951.19 2246,-987.19"/>
<text text-anchor="start" x="2035.5" y="-964.99" font-family="Times New Roman,serif" font-size="14.00" fill="blue">PAKLMEMPTOTLCN:Employment</text>
</a>
</g>
</g>
<!-- PAKNYGDPPOTLKN&#45;&gt;PAKLMEMPTOTLCN -->
<g id="edge16" class="edge">
<title>PAKNYGDPPOTLKN&#45;&gt;PAKLMEMPTOTLCN</title>
<g id="a_edge16"><a xlink:href="bogus" xlink:title=" PAKNYGDPPOTLKN &#45;&gt; PAKLMEMPTOTLCN Min. att. &#45;92% &#160;max: 605%">
<path fill="none" stroke="black" stroke-width="8" d="M1557.05,-988.54C1683.02,-984.33 1889.04,-977.45 2018.47,-973.13"/>
<polygon fill="black" stroke="black" stroke-width="8" points="2019.05,-980.12 2028.81,-972.79 2018.59,-966.13 2019.05,-980.12"/>
</a>
</g>
</g>
<!-- PAKNYGDPGAP_ -->
<g id="node27" class="node">
<title>PAKNYGDPGAP_</title>
<g id="a_node27"><a xlink:title="Output Gap (% of Potential GDP)&#10;FRML &#160;&lt;&gt; PAKNYGDPGAP_ = ((PAKNYGDPMKTPKN/PAKNYGDPPOTLKN&#45;1)*100) $">
<polygon fill="#63b8ff" stroke="black" points="1993,-879.19 1684,-879.19 1684,-843.19 1993,-843.19 1993,-879.19"/>
<text text-anchor="start" x="1690.5" y="-856.99" font-family="Times New Roman,serif" font-size="14.00" fill="blue">PAKNYGDPGAP_:Output Gap (% of Potential GDP)</text>
</a>
</g>
</g>
<!-- PAKNYGDPPOTLKN&#45;&gt;PAKNYGDPGAP_ -->
<g id="edge7" class="edge">
<title>PAKNYGDPPOTLKN&#45;&gt;PAKNYGDPGAP_</title>
<g id="a_edge7"><a xlink:href="bogus" xlink:title=" PAKNYGDPPOTLKN &#45;&gt; PAKNYGDPGAP_ Min. att. &#45;129220% &#160;max: 79383%">
<path fill="none" stroke="black" stroke-width="8" d="M1557,-992.62C1588.01,-988.82 1620.72,-980.82 1648,-965.19 1670.53,-952.29 1663.08,-934.57 1684,-919.19 1705.38,-903.48 1731.52,-891.52 1756.12,-882.66"/>
<polygon fill="black" stroke="black" stroke-width="8" points="1758.67,-889.19 1765.83,-879.3 1754.09,-875.96 1758.67,-889.19"/>
</a>
</g>
</g>
<!-- PAKSMAGRFSTYKN -->
<g id="node3" class="node">
<title>PAKSMAGRFSTYKN</title>
<g id="a_node3"><a xlink:title="PAKSMAGRFSTYKN&#10;FRML &#160;&lt;&gt; PAKSMAGRFSTYKN = ((1+0.195965019358753)*(0.010131919293849*PAKNECONPRVTKN+0*PAKNECONGOVTKN+0*PAKNEGDIFTOTKN+0.000136733767007103*PAKNEEXPGNFSKN+0.0199955288980741*PAKNEGDISTKBKN)&#45;0.00076829563200478*PAKNEIMPGNFSKN&#45;0.00172030587371022*PAKNYTAXNINDKN&#45;65421)/(1+0.319587584852584) $">
<polygon fill="#63b8ff" stroke="black" points="1518.5,-902.19 1374.5,-902.19 1374.5,-866.19 1518.5,-866.19 1518.5,-902.19"/>
<text text-anchor="start" x="1380.5" y="-879.99" font-family="Times New Roman,serif" font-size="14.00" fill="blue">PAKSMAGRFSTYKN:</text>
</a>
</g>
</g>
<!-- PAKNEIMPGNFSXN -->
<g id="node4" class="node">
<title>PAKNEIMPGNFSXN</title>
<g id="a_node4"><a xlink:title="Imports (G&amp;S)&#10;FRML &#160;&lt;&gt; PAKNEIMPGNFSXN = ((PAKNEIMPENGYSH**PAKCESENGYIMPT)*PAKNVENGNIMPXN**(1&#45;PAKCESENGYIMPT)+(PAKNEIMPOTHRSH**PAKCESENGYIMPT)*PAKNEIMPGSNEXN**(1&#45;PAKCESENGYIMPT))**(1/(1&#45;PAKCESENGYIMPT)) $">
<polygon fill="#63b8ff" stroke="black" points="254.5,-301.19 31.5,-301.19 31.5,-265.19 254.5,-265.19 254.5,-301.19"/>
<text text-anchor="start" x="38" y="-278.99" font-family="Times New Roman,serif" font-size="14.00" fill="blue">PAKNEIMPGNFSXN:Imports (G&amp;S)</text>
</a>
</g>
</g>
<!-- PAKNECONOTHRXN -->
<g id="node9" class="node">
<title>PAKNECONOTHRXN</title>
<g id="a_node9"><a xlink:title="Non&#45;Energy Consumption&#10;FRML &lt;Z,EXO&gt; PAKNECONOTHRXN = (PAKNECONOTHRXN(&#45;1)*EXP(&#45;PAKNECONOTHRXN_A+ (0.598859116610832*((LOG(PAKNYGDPFCSTXN))&#45;(LOG(PAKNYGDPFCSTXN(&#45;1))))+((PAKGGREVGNFSXN/100)&#45;(PAKGGREVGNFSXN(&#45;1)/100))+(1&#45;0.598859116610832)*((LOG(PAKNEIMPGNFSXN))&#45;(LOG(PAKNEIMPGNFSXN(&#45;1))))+0.2*PAKNYGDPGAP_/100) )) * (1&#45;PAKNECONOTHRXN_D)+ PAKNECONOTHRXN_X*PAKNECONOTHRXN_D &#160;$">
<polygon fill="#63b8ff" stroke="black" points="611,-301.19 322,-301.19 322,-265.19 611,-265.19 611,-301.19"/>
<text text-anchor="start" x="328.5" y="-278.99" font-family="Times New Roman,serif" font-size="14.00" fill="blue">PAKNECONOTHRXN:Non&#45;Energy Consumption</text>
</a>
</g>
</g>
<!-- PAKNEIMPGNFSXN&#45;&gt;PAKNECONOTHRXN -->
<g id="edge24" class="edge">
<title>PAKNEIMPGNFSXN&#45;&gt;PAKNECONOTHRXN</title>
<g id="a_edge24"><a xlink:href="bogus" xlink:title=" PAKNEIMPGNFSXN &#45;&gt; PAKNECONOTHRXN Min. att. &#45;10% &#160;max: 114%">
<path fill="none" stroke="black" stroke-width="8" d="M254.64,-283.19C273.05,-283.19 292.43,-283.19 311.68,-283.19"/>
<polygon fill="black" stroke="black" stroke-width="8" points="311.72,-290.19 321.72,-283.19 311.72,-276.19 311.72,-290.19"/>
</a>
</g>
</g>
<!-- PAKNECONPRVTXN -->
<g id="node5" class="node">
<title>PAKNECONPRVTXN</title>
<g id="a_node5"><a xlink:title="Household demand&#10;FRML &#160;&lt;&gt; PAKNECONPRVTXN = ((PAKNECONENGYSH**PAKCESENGYCON)*PAKNECONENGYXN**(1&#45;PAKCESENGYCON)+(PAKNECONOTHRSH**PAKCESENGYCON)*PAKNECONOTHRXN**(1&#45;PAKCESENGYCON))**(1/(1&#45;PAKCESENGYCON)) $">
<polygon fill="#63b8ff" stroke="black" points="895,-274.19 647,-274.19 647,-238.19 895,-238.19 895,-274.19"/>
<text text-anchor="start" x="653" y="-251.99" font-family="Times New Roman,serif" font-size="14.00" fill="blue">PAKNECONPRVTXN:Household demand</text>
</a>
</g>
</g>
<!-- PAKNECONPRVTKN -->
<g id="node7" class="node">
<title>PAKNECONPRVTKN</title>
<g id="a_node7"><a xlink:title="Household Consumption&#10;FRML &lt;Z,EXO&gt; PAKNECONPRVTKN = (PAKNECONPRVTKN(&#45;1)*EXP(&#45;PAKNECONPRVTKN_A+ (&#45;0.2*(LOG(PAKNECONPRVTKN(&#45;1))&#45;LOG((PAKNYYWBTOTLCN(&#45;1)*(1&#45;PAKGGREVDRCTXN(&#45;1)/100))/PAKNECONPRVTXN(&#45;1)))+1*((LOG((PAKNYYWBTOTLCN*(1&#45;PAKGGREVDRCTXN/100))/PAKNECONPRVTXN))&#45;(LOG((PAKNYYWBTOTLCN(&#45;1)*(1&#45;PAKGGREVDRCTXN(&#45;1)/100))/PAKNECONPRVTXN(&#45;1))))+0.0303228629698929+0.0163839011059956*DURING_2010&#45;0.3*(PAKFMLBLPOLYXN/100&#45;((LOG(PAKNECONPRVTXN))&#45;(LOG(PAKNECONPRVTXN(&#45;1)))))) )) * (1&#45;PAKNECONPRVTKN_D)+ PAKNECONPRVTKN_X*PAKNECONPRVTKN_D &#160;$">
<polygon fill="red" stroke="black" points="1209,-497.19 931,-497.19 931,-461.19 1209,-461.19 1209,-497.19"/>
<text text-anchor="start" x="937" y="-474.99" font-family="Times New Roman,serif" font-size="14.00" fill="blue">PAKNECONPRVTKN:Household Consumption</text>
</a>
</g>
</g>
<!-- PAKNECONPRVTXN&#45;&gt;PAKNECONPRVTKN -->
<g id="edge19" class="edge">
<title>PAKNECONPRVTXN&#45;&gt;PAKNECONPRVTKN</title>
<g id="a_edge19"><a xlink:href="bogus" xlink:title=" PAKNECONPRVTXN &#45;&gt; PAKNECONPRVTKN Min. att. &#45;5706% &#160;max: 593%">
<path fill="none" stroke="black" stroke-width="8" d="M796.05,-274.25C849.21,-314.16 976.69,-409.89 1036.72,-454.95"/>
<polygon fill="black" stroke="black" stroke-width="8" points="1032.52,-460.56 1044.72,-460.96 1040.93,-449.36 1032.52,-460.56"/>
</a>
</g>
</g>
<!-- PAKFMLBLPOLYXN -->
<g id="node19" class="node">
<title>PAKFMLBLPOLYXN</title>
<g id="a_node19"><a xlink:title="Policy Rate&#10;FRML &lt;Z,EXO&gt; PAKFMLBLPOLYXN = (&#45;100*PAKFMLBLPOLYXN_A+100* (0.905129162122953*PAKFMLBLPOLYXN(&#45;1)/100+(1&#45;0.905129162122953)*(PAKMPPOLNATRXN/100+1.2*(((LOG(PAKNECONPRVTXN))&#45;(LOG(PAKNECONPRVTXN(&#45;1))))&#45;PAKINFLEXPT/100)+0.5*PAKNYGDPGAP_/100)) ) * (1&#45;PAKFMLBLPOLYXN_D)+ PAKFMLBLPOLYXN_X*PAKFMLBLPOLYXN_D &#160;$">
<polygon fill="#63b8ff" stroke="black" points="2240,-162.19 2035,-162.19 2035,-126.19 2240,-126.19 2240,-162.19"/>
<text text-anchor="start" x="2041.5" y="-139.99" font-family="Times New Roman,serif" font-size="14.00" fill="blue">PAKFMLBLPOLYXN:Policy Rate</text>
</a>
</g>
</g>
<!-- PAKNECONPRVTXN&#45;&gt;PAKFMLBLPOLYXN -->
<g id="edge21" class="edge">
<title>PAKNECONPRVTXN&#45;&gt;PAKFMLBLPOLYXN</title>
<g id="a_edge21"><a xlink:href="bogus" xlink:title=" PAKNECONPRVTXN &#45;&gt; PAKFMLBLPOLYXN Min. att. &#45;94% &#160;max: 1462%">
<path fill="none" stroke="black" stroke-width="8" d="M819.77,-238.17C904.1,-207.42 1085.57,-146.02 1245,-124.19 1574.37,-79.1 1661.31,-102.85 1993,-125.19 2003.26,-125.88 2013.91,-126.84 2024.56,-127.96"/>
<polygon fill="black" stroke="black" stroke-width="8" points="2024.05,-134.94 2034.75,-129.08 2025.57,-121.03 2024.05,-134.94"/>
</a>
</g>
</g>
<!-- PAKNYGDPMKTPKN -->
<g id="node6" class="node">
<title>PAKNYGDPMKTPKN</title>
<g id="a_node6"><a xlink:title="GDP Expenditure side at market prices&#10;FRML &#160;&lt;&gt; PAKNYGDPMKTPKN = PAKNECONPRVTKN+PAKNECONGOVTKN+PAKNEGDIFTOTKN+PAKNEGDISTKBKN+PAKNEEXPGNFSKN&#45;PAKNEIMPGNFSKN+PAKNYGDPDISCKN+PAKADAP*PAKDISPREPKN $">
<polygon fill="#63b8ff" stroke="black" points="1627,-848.19 1266,-848.19 1266,-812.19 1627,-812.19 1627,-848.19"/>
<text text-anchor="start" x="1272.5" y="-825.99" font-family="Times New Roman,serif" font-size="14.00" fill="blue">PAKNYGDPMKTPKN:GDP Expenditure side at market prices</text>
</a>
</g>
</g>
<!-- PAKNYGDPMKTPKN&#45;&gt;PAKNYGDPGAP_ -->
<g id="edge20" class="edge">
<title>PAKNYGDPMKTPKN&#45;&gt;PAKNYGDPGAP_</title>
<g id="a_edge20"><a xlink:href="bogus" xlink:title=" PAKNYGDPMKTPKN &#45;&gt; PAKNYGDPGAP_ Min. att. &#45;78553% &#160;max: 128142%">
<path fill="none" stroke="black" stroke-width="8" d="M1627.09,-844.47C1642.67,-845.71 1658.38,-846.96 1673.82,-848.18"/>
<polygon fill="black" stroke="black" stroke-width="8" points="1673.4,-855.17 1683.93,-848.99 1674.51,-841.22 1673.4,-855.17"/>
</a>
</g>
</g>
<!-- PAKNECONPRVTKN&#45;&gt;PAKSMSRVTRNSKN -->
<g id="edge13" class="edge">
<title>PAKNECONPRVTKN&#45;&gt;PAKSMSRVTRNSKN</title>
<g id="a_edge13"><a xlink:href="bogus" xlink:title=" PAKNECONPRVTKN &#45;&gt; PAKSMSRVTRNSKN Min. att. 87% &#160;max: 592%">
<path fill="none" stroke="black" stroke-width="8" d="M1072.13,-497.31C1077.38,-564.72 1105.53,-802.75 1245,-911.19 1278.54,-937.27 1325.16,-944.73 1365,-945.35"/>
<polygon fill="black" stroke="black" stroke-width="8" points="1365.22,-952.35 1375.23,-945.36 1365.24,-938.35 1365.22,-952.35"/>
</a>
</g>
</g>
<!-- PAKNECONPRVTKN&#45;&gt;PAKSMAGRFSTYKN -->
<g id="edge2" class="edge">
<title>PAKNECONPRVTKN&#45;&gt;PAKSMAGRFSTYKN</title>
<g id="a_edge2"><a xlink:href="bogus" xlink:title=" PAKNECONPRVTKN &#45;&gt; PAKSMAGRFSTYKN Min. att. 96% &#160;max: 371%">
<path fill="none" stroke="black" stroke-width="8" d="M1073.23,-497.2C1081.92,-559.1 1119.52,-764.43 1245,-857.19 1278.78,-882.16 1324.75,-889.7 1364.15,-890.63"/>
<polygon fill="black" stroke="black" stroke-width="8" points="1364.21,-897.64 1374.28,-890.74 1364.35,-883.64 1364.21,-897.64"/>
</a>
</g>
</g>
<!-- PAKNECONPRVTKN&#45;&gt;PAKNYGDPMKTPKN -->
<g id="edge28" class="edge">
<title>PAKNECONPRVTKN&#45;&gt;PAKNYGDPMKTPKN</title>
<g id="a_edge28"><a xlink:href="bogus" xlink:title=" PAKNECONPRVTKN &#45;&gt; PAKNYGDPMKTPKN Min. att. &#45;1557% &#160;max: 290%">
<path fill="none" stroke="black" stroke-width="8" d="M1074.7,-497.39C1087.21,-553.69 1133.48,-725.92 1245,-803.19 1248.76,-805.8 1252.65,-808.2 1256.65,-810.43"/>
<polygon fill="black" stroke="black" stroke-width="8" points="1253.49,-816.68 1265.59,-815.02 1259.89,-804.22 1253.49,-816.68"/>
</a>
</g>
</g>
<!-- PAKSMSRVFINSKN -->
<g id="node10" class="node">
<title>PAKSMSRVFINSKN</title>
<g id="a_node10"><a xlink:title="PAKSMSRVFINSKN&#10;FRML &#160;&lt;&gt; PAKSMSRVFINSKN = ((1+1.04148314760779)*(0.0520379651885469*PAKNECONPRVTKN+0*PAKNECONGOVTKN+0*PAKNEGDIFTOTKN+0.00879145012359898*PAKNEEXPGNFSKN+0*PAKNEGDISTKBKN)&#45;0.00594416979264236*PAKNEIMPGNFSKN&#45;0.000103762679145856*PAKNYTAXNINDKN&#45;0)/(1+0.24687745523084) $">
<polygon fill="#63b8ff" stroke="black" points="1515,-794.19 1378,-794.19 1378,-758.19 1515,-758.19 1515,-794.19"/>
<text text-anchor="start" x="1384.5" y="-771.99" font-family="Times New Roman,serif" font-size="14.00" fill="blue">PAKSMSRVFINSKN:</text>
</a>
</g>
</g>
<!-- PAKNECONPRVTKN&#45;&gt;PAKSMSRVFINSKN -->
<g id="edge18" class="edge">
<title>PAKNECONPRVTKN&#45;&gt;PAKSMSRVFINSKN</title>
<g id="a_edge18"><a xlink:href="bogus" xlink:title=" PAKNECONPRVTKN &#45;&gt; PAKSMSRVFINSKN Min. att. &#45;104% &#160;max: 125%">
<path fill="none" stroke="black" stroke-width="8" d="M1076.73,-497.55C1093.42,-547.62 1147.1,-686.98 1245,-749.19 1281.13,-772.15 1328.31,-779.37 1367.83,-780.63"/>
<polygon fill="black" stroke="black" stroke-width="8" points="1367.82,-787.63 1377.96,-780.83 1368.1,-773.64 1367.82,-787.63"/>
</a>
</g>
</g>
<!-- PAKSMINDMNGSKN -->
<g id="node11" class="node">
<title>PAKSMINDMNGSKN</title>
<g id="a_node11"><a xlink:title="PAKSMINDMNGSKN&#10;FRML &#160;&lt;&gt; PAKSMINDMNGSKN = ((1+6.96158341862144)*(0.0132800565666619*PAKNECONPRVTKN+0*PAKNECONGOVTKN+0*PAKNEGDIFTOTKN+0.00704674623894759*PAKNEEXPGNFSKN+0.024122890632682*PAKNEGDISTKBKN)&#45;0.134221966110302*PAKNEIMPGNFSKN&#45;0.500981557895139*PAKNYTAXNINDKN&#45;123652.869264758)/(1+0.200800622280983) $">
<polygon fill="#63b8ff" stroke="black" points="1519.5,-740.19 1373.5,-740.19 1373.5,-704.19 1519.5,-704.19 1519.5,-740.19"/>
<text text-anchor="start" x="1379.5" y="-717.99" font-family="Times New Roman,serif" font-size="14.00" fill="blue">PAKSMINDMNGSKN:</text>
</a>
</g>
</g>
<!-- PAKNECONPRVTKN&#45;&gt;PAKSMINDMNGSKN -->
<g id="edge5" class="edge">
<title>PAKNECONPRVTKN&#45;&gt;PAKSMINDMNGSKN</title>
<g id="a_edge5"><a xlink:href="bogus" xlink:title=" PAKNECONPRVTKN &#45;&gt; PAKSMINDMNGSKN Min. att. &#45;1229% &#160;max: 1716%">
<path fill="none" stroke="black" stroke-width="8" d="M1079.49,-497.28C1100.62,-540.03 1160.05,-647.31 1245,-695.19 1280.53,-715.22 1325.08,-722.63 1363.16,-724.76"/>
<polygon fill="black" stroke="black" stroke-width="8" points="1362.9,-731.75 1373.2,-725.2 1363.52,-717.77 1362.9,-731.75"/>
</a>
</g>
</g>
<!-- PAKNECONOTHRKN -->
<g id="node13" class="node">
<title>PAKNECONOTHRKN</title>
<g id="a_node13"><a xlink:title="Other Consumption&#10;FRML &#160;&lt;&gt; PAKNECONOTHRKN = PAKNECONOTHRSH**(PAKCESENGYCON)*(PAKNECONPRVTKN*(PAKNECONPRVTXN/PAKNECONOTHRXN)**(PAKCESENGYCON)) $">
<polygon fill="#63b8ff" stroke="black" points="1573,-686.19 1320,-686.19 1320,-650.19 1573,-650.19 1573,-686.19"/>
<text text-anchor="start" x="1326.5" y="-663.99" font-family="Times New Roman,serif" font-size="14.00" fill="blue">PAKNECONOTHRKN:Other Consumption</text>
</a>
</g>
</g>
<!-- PAKNECONPRVTKN&#45;&gt;PAKNECONOTHRKN -->
<g id="edge14" class="edge">
<title>PAKNECONPRVTKN&#45;&gt;PAKNECONOTHRKN</title>
<g id="a_edge14"><a xlink:href="bogus" xlink:title=" PAKNECONPRVTKN &#45;&gt; PAKNECONOTHRKN Min. att. &#45;12063% &#160;max: 323%">
<path fill="none" stroke="black" stroke-width="8" d="M1084.14,-497.34C1110.34,-531.97 1172.8,-607.05 1245,-641.19 1265.12,-650.71 1287.57,-657.17 1309.95,-661.5"/>
<polygon fill="black" stroke="black" stroke-width="8" points="1308.8,-668.41 1319.88,-663.29 1311.28,-654.63 1308.8,-668.41"/>
</a>
</g>
</g>
<!-- PAKNECONPRVTCN -->
<g id="node15" class="node">
<title>PAKNECONPRVTCN</title>
<g id="a_node15"><a xlink:title="Household demand&#10;FRML &#160;&lt;&gt; PAKNECONPRVTCN = PAKNECONPRVTKN*PAKNECONPRVTXN $">
<polygon fill="#63b8ff" stroke="black" points="1570,-632.19 1323,-632.19 1323,-596.19 1570,-596.19 1570,-632.19"/>
<text text-anchor="start" x="1329.5" y="-609.99" font-family="Times New Roman,serif" font-size="14.00" fill="blue">PAKNECONPRVTCN:Household demand</text>
</a>
</g>
</g>
<!-- PAKNECONPRVTKN&#45;&gt;PAKNECONPRVTCN -->
<g id="edge30" class="edge">
<title>PAKNECONPRVTKN&#45;&gt;PAKNECONPRVTCN</title>
<g id="a_edge30"><a xlink:href="bogus" xlink:title=" PAKNECONPRVTKN &#45;&gt; PAKNECONPRVTCN Min. att. &#45;720% &#160;max: 6450%">
<path fill="none" stroke="black" stroke-width="8" d="M1093.03,-497.21C1124.58,-521.95 1185.44,-565.81 1245,-587.19 1266.38,-594.87 1289.76,-600.39 1312.75,-604.35"/>
<polygon fill="black" stroke="black" stroke-width="8" points="1311.93,-611.31 1322.93,-606.01 1314.19,-597.5 1311.93,-611.31"/>
</a>
</g>
</g>
<!-- PAKSMENGTOTLKN -->
<g id="node16" class="node">
<title>PAKSMENGTOTLKN</title>
<g id="a_node16"><a xlink:title="PAKSMENGTOTLKN&#10;FRML &#160;&lt;&gt; PAKSMENGTOTLKN = ((1+1.65868473220397)*(0.0775261497897936*PAKNECONPRVTKN+0*PAKNECONGOVTKN+0*PAKNEGDIFTOTKN+0.0217448978257548*PAKNEEXPGNFSKN+0.0458991644104248*PAKNEGDISTKBKN)&#45;0.11894699850705*PAKNEIMPGNFSKN&#45;&#45;0.50579180838529*PAKNYTAXNINDKN&#45;0)/(1+5.65663938581514) $">
<polygon fill="#63b8ff" stroke="black" points="1519,-578.19 1374,-578.19 1374,-542.19 1519,-542.19 1519,-578.19"/>
<text text-anchor="start" x="1380.5" y="-555.99" font-family="Times New Roman,serif" font-size="14.00" fill="blue">PAKSMENGTOTLKN:</text>
</a>
</g>
</g>
<!-- PAKNECONPRVTKN&#45;&gt;PAKSMENGTOTLKN -->
<g id="edge29" class="edge">
<title>PAKNECONPRVTKN&#45;&gt;PAKSMENGTOTLKN</title>
<g id="a_edge29"><a xlink:href="bogus" xlink:title=" PAKNECONPRVTKN &#45;&gt; PAKSMENGTOTLKN Min. att. &#45;14% &#160;max: 2186%">
<path fill="none" stroke="black" stroke-width="8" d="M1121.41,-497.29C1155.83,-509.04 1202.69,-523.85 1245,-533.19 1283.56,-541.71 1326.92,-547.95 1363.43,-552.28"/>
<polygon fill="black" stroke="black" stroke-width="8" points="1362.8,-559.25 1373.54,-553.45 1364.41,-545.34 1362.8,-559.25"/>
</a>
</g>
</g>
<!-- PAKSMSRVHSNGKN -->
<g id="node17" class="node">
<title>PAKSMSRVHSNGKN</title>
<g id="a_node17"><a xlink:title="PAKSMSRVHSNGKN&#10;FRML &#160;&lt;&gt; PAKSMSRVHSNGKN = ((1+0.782809577554843)*(0.0647364660896117*PAKNECONPRVTKN+0*PAKNECONGOVTKN+0.00605333595533851*PAKNEGDIFTOTKN+0.03048358523237*PAKNEEXPGNFSKN+0*PAKNEGDISTKBKN)&#45;0.0244768173208691*PAKNEIMPGNFSKN&#45;0.0684093628903126*PAKNYTAXNINDKN&#45;0)/(1+0.150771193398883) $">
<polygon fill="#63b8ff" stroke="black" points="1519,-524.19 1374,-524.19 1374,-488.19 1519,-488.19 1519,-524.19"/>
<text text-anchor="start" x="1380.5" y="-501.99" font-family="Times New Roman,serif" font-size="14.00" fill="blue">PAKSMSRVHSNGKN:</text>
</a>
</g>
</g>
<!-- PAKNECONPRVTKN&#45;&gt;PAKSMSRVHSNGKN -->
<g id="edge6" class="edge">
<title>PAKNECONPRVTKN&#45;&gt;PAKSMSRVHSNGKN</title>
<g id="a_edge6"><a xlink:href="bogus" xlink:title=" PAKNECONPRVTKN &#45;&gt; PAKSMSRVHSNGKN Min. att. 34% &#160;max: 147%">
<path fill="none" stroke="black" stroke-width="8" d="M1209.12,-489.15C1261.16,-492.9 1318.64,-497.05 1363.89,-500.31"/>
<polygon fill="black" stroke="black" stroke-width="8" points="1363.46,-507.3 1373.94,-501.03 1364.47,-493.33 1363.46,-507.3"/>
</a>
</g>
</g>
<!-- PAKNECONENGYKN -->
<g id="node18" class="node">
<title>PAKNECONENGYKN</title>
<g id="a_node18"><a xlink:title="Energy Consumption&#10;FRML &#160;&lt;&gt; PAKNECONENGYKN = PAKNECONENGYSH**(PAKCESENGYCON)*(PAKNECONPRVTKN*(PAKNECONPRVTXN/PAKNECONENGYXN)**(PAKCESENGYCON)) $">
<polygon fill="#63b8ff" stroke="black" points="1577.5,-470.19 1315.5,-470.19 1315.5,-434.19 1577.5,-434.19 1577.5,-470.19"/>
<text text-anchor="start" x="1321.5" y="-447.99" font-family="Times New Roman,serif" font-size="14.00" fill="blue">PAKNECONENGYKN:Energy Consumption</text>
</a>
</g>
</g>
<!-- PAKNECONPRVTKN&#45;&gt;PAKNECONENGYKN -->
<g id="edge15" class="edge">
<title>PAKNECONPRVTKN&#45;&gt;PAKNECONENGYKN</title>
<g id="a_edge15"><a xlink:href="bogus" xlink:title=" PAKNECONPRVTKN &#45;&gt; PAKNECONENGYKN Min. att. &#45;699% &#160;max: 3890%">
<path fill="none" stroke="black" stroke-width="8" d="M1209.12,-469.24C1240.44,-466.98 1273.73,-464.58 1305.14,-462.31"/>
<polygon fill="black" stroke="black" stroke-width="8" points="1305.8,-469.28 1315.27,-461.58 1304.79,-455.32 1305.8,-469.28"/>
</a>
</g>
</g>
<!-- PAKSMAGRFSNGKN -->
<g id="node21" class="node">
<title>PAKSMAGRFSNGKN</title>
<g id="a_node21"><a xlink:title="PAKSMAGRFSNGKN&#10;FRML &#160;&lt;&gt; PAKSMAGRFSNGKN = ((1+1.92407325889309)*(0.00246195499563977*PAKNECONPRVTKN+0*PAKNECONGOVTKN+0*PAKNEGDIFTOTKN+0.00130433854799597*PAKNEEXPGNFSKN+0.00497657560072267*PAKNEGDISTKBKN)&#45;1.14989260682794E&#45;05*PAKNEIMPGNFSKN&#45;2.46467171367829E&#45;07*PAKNYTAXNINDKN&#45;26993)/(1+0.506095544048804) $">
<polygon fill="#63b8ff" stroke="black" points="1519,-416.19 1374,-416.19 1374,-380.19 1519,-380.19 1519,-416.19"/>
<text text-anchor="start" x="1380.5" y="-393.99" font-family="Times New Roman,serif" font-size="14.00" fill="blue">PAKSMAGRFSNGKN:</text>
</a>
</g>
</g>
<!-- PAKNECONPRVTKN&#45;&gt;PAKSMAGRFSNGKN -->
<g id="edge32" class="edge">
<title>PAKNECONPRVTKN&#45;&gt;PAKSMAGRFSNGKN</title>
<g id="a_edge32"><a xlink:href="bogus" xlink:title=" PAKNECONPRVTKN &#45;&gt; PAKSMAGRFSNGKN Min. att. &#45;29% &#160;max: 170%">
<path fill="none" stroke="black" stroke-width="8" d="M1121.41,-461.09C1155.83,-449.35 1202.69,-434.54 1245,-425.19 1283.56,-416.68 1326.92,-410.43 1363.43,-406.11"/>
<polygon fill="black" stroke="black" stroke-width="8" points="1364.41,-413.04 1373.54,-404.94 1362.8,-399.13 1364.41,-413.04"/>
</a>
</g>
</g>
<!-- PAKSMINDOTHRTKN -->
<g id="node22" class="node">
<title>PAKSMINDOTHRTKN</title>
<g id="a_node22"><a xlink:title="PAKSMINDOTHRTKN&#10;FRML &#160;&lt;&gt; PAKSMINDOTHRTKN = ((1+0.483473985412524)*(0.40172973397176*PAKNECONPRVTKN+0*PAKNECONGOVTKN+0.560459287907094*PAKNEGDIFTOTKN+0.719299486591763*PAKNEEXPGNFSKN+0.620970563578771*PAKNEGDISTKBKN)&#45;0.606734386430279*PAKNEIMPGNFSKN&#45;0.866045585295928*PAKNYTAXNINDKN&#45;2983275.63714814)/(1+2.46379868577176) $">
<polygon fill="#63b8ff" stroke="black" points="1522,-362.19 1371,-362.19 1371,-326.19 1522,-326.19 1522,-362.19"/>
<text text-anchor="start" x="1377.5" y="-339.99" font-family="Times New Roman,serif" font-size="14.00" fill="blue">PAKSMINDOTHRTKN:</text>
</a>
</g>
</g>
<!-- PAKNECONPRVTKN&#45;&gt;PAKSMINDOTHRTKN -->
<g id="edge4" class="edge">
<title>PAKNECONPRVTKN&#45;&gt;PAKSMINDOTHRTKN</title>
<g id="a_edge4"><a xlink:href="bogus" xlink:title=" PAKNECONPRVTKN &#45;&gt; PAKSMINDOTHRTKN Min. att. &#45;11779% &#160;max: 971%">
<path fill="none" stroke="black" stroke-width="8" d="M1093.03,-461.18C1124.58,-436.44 1185.44,-392.58 1245,-371.19 1281.71,-358.01 1324.31,-351.19 1360.77,-347.68"/>
<polygon fill="black" stroke="black" stroke-width="8" points="1361.54,-354.64 1370.88,-346.78 1360.3,-340.7 1361.54,-354.64"/>
</a>
</g>
</g>
<!-- PAKSMAGRCRPSKN -->
<g id="node23" class="node">
<title>PAKSMAGRCRPSKN</title>
<g id="a_node23"><a xlink:title="PAKSMAGRCRPSKN&#10;FRML &#160;&lt;&gt; PAKSMAGRCRPSKN = ((1+2.09928590574241)*(0.144287620838506*PAKNECONPRVTKN+0*PAKNECONGOVTKN+0*PAKNEGDIFTOTKN+0.0572678299039023*PAKNEEXPGNFSKN+0.267381669083985*PAKNEGDISTKBKN)&#45;0.0736247088197363*PAKNEIMPGNFSKN&#45;0.0407034395686347*PAKNYTAXNINDKN&#45;906311)/(1+0.396041694659877) $">
<polygon fill="#63b8ff" stroke="black" points="1518.5,-308.19 1374.5,-308.19 1374.5,-272.19 1518.5,-272.19 1518.5,-308.19"/>
<text text-anchor="start" x="1380.5" y="-285.99" font-family="Times New Roman,serif" font-size="14.00" fill="blue">PAKSMAGRCRPSKN:</text>
</a>
</g>
</g>
<!-- PAKNECONPRVTKN&#45;&gt;PAKSMAGRCRPSKN -->
<g id="edge27" class="edge">
<title>PAKNECONPRVTKN&#45;&gt;PAKSMAGRCRPSKN</title>
<g id="a_edge27"><a xlink:href="bogus" xlink:title=" PAKNECONPRVTKN &#45;&gt; PAKSMAGRCRPSKN Min. att. &#45;25% &#160;max: 208%">
<path fill="none" stroke="black" stroke-width="8" d="M1084.14,-461.05C1110.34,-426.42 1172.8,-351.34 1245,-317.19 1281.71,-299.83 1326.17,-292.64 1363.88,-289.98"/>
<polygon fill="black" stroke="black" stroke-width="8" points="1364.77,-296.94 1374.32,-289.35 1363.92,-282.97 1364.77,-296.94"/>
</a>
</g>
</g>
<!-- PAKNECONPRVTKN_FITTED -->
<g id="node26" class="node">
<title>PAKNECONPRVTKN_FITTED</title>
<g id="a_node26"><a xlink:title="Fitted &#160;value:Household Consumption&#10;FRML &lt;FIT&gt; PAKNECONPRVTKN_FITTED = PAKNECONPRVTKN(&#45;1)*EXP( (&#45;0.2*(LOG(PAKNECONPRVTKN(&#45;1))&#45;LOG((PAKNYYWBTOTLCN(&#45;1)*(1&#45;PAKGGREVDRCTXN(&#45;1)/100))/PAKNECONPRVTXN(&#45;1)))+1*((LOG((PAKNYYWBTOTLCN*(1&#45;PAKGGREVDRCTXN/100))/PAKNECONPRVTXN))&#45;(LOG((PAKNYYWBTOTLCN(&#45;1)*(1&#45;PAKGGREVDRCTXN(&#45;1)/100))/PAKNECONPRVTXN(&#45;1))))+0.0303228629698929+0.0163839011059956*DURING_2010&#45;0.3*(PAKFMLBLPOLYXN/100&#45;((LOG(PAKNECONPRVTXN))&#45;(LOG(PAKNECONPRVTXN(&#45;1)))))) ) $">
<polygon fill="#63b8ff" stroke="black" points="1648,-254.19 1245,-254.19 1245,-218.19 1648,-218.19 1648,-254.19"/>
<text text-anchor="start" x="1251.5" y="-231.99" font-family="Times New Roman,serif" font-size="14.00" fill="blue">PAKNECONPRVTKN_FITTED:Fitted &#160;value:Household Consumption</text>
</a>
</g>
</g>
<!-- PAKNECONPRVTKN&#45;&gt;PAKNECONPRVTKN_FITTED -->
<g id="edge12" class="edge">
<title>PAKNECONPRVTKN&#45;&gt;PAKNECONPRVTKN_FITTED</title>
<g id="a_edge12"><a xlink:href="bogus" xlink:title=" PAKNECONPRVTKN &#45;&gt; PAKNECONPRVTKN_FITTED Min. att. &#45;786% &#160;max: 175%">
<path fill="none" stroke="black" stroke-width="8" d="M1079.49,-461.11C1100.62,-418.36 1160.05,-311.07 1245,-263.19 1247.91,-261.55 1250.87,-260 1253.89,-258.53"/>
<polygon fill="black" stroke="black" stroke-width="8" points="1256.89,-264.85 1263.1,-254.34 1251.1,-252.11 1256.89,-264.85"/>
</a>
</g>
</g>
<!-- PAKNEGDETTOTKN -->
<g id="node28" class="node">
<title>PAKNEGDETTOTKN</title>
<g id="a_node28"><a xlink:title="GDE&#10;FRML &#160;&lt;&gt; PAKNEGDETTOTKN = (PAKNECONPRVTKN+PAKNECONGOVTKN+PAKNEGDIFTOTKN+PAKNEGDISTKBKN+PAKNYGDPDISCKN) $">
<polygon fill="#63b8ff" stroke="black" points="1531.5,-200.19 1361.5,-200.19 1361.5,-164.19 1531.5,-164.19 1531.5,-200.19"/>
<text text-anchor="start" x="1367.5" y="-177.99" font-family="Times New Roman,serif" font-size="14.00" fill="blue">PAKNEGDETTOTKN:GDE</text>
</a>
</g>
</g>
<!-- PAKNECONPRVTKN&#45;&gt;PAKNEGDETTOTKN -->
<g id="edge9" class="edge">
<title>PAKNECONPRVTKN&#45;&gt;PAKNEGDETTOTKN</title>
<g id="a_edge9"><a xlink:href="bogus" xlink:title=" PAKNECONPRVTKN &#45;&gt; PAKNEGDETTOTKN Min. att. &#45;2284% &#160;max: 2484%">
<path fill="none" stroke="black" stroke-width="8" d="M1076.73,-460.84C1093.42,-410.76 1147.1,-271.4 1245,-209.19 1276.03,-189.48 1315.2,-181.37 1350.67,-178.67"/>
<polygon fill="black" stroke="black" stroke-width="8" points="1351.51,-185.63 1361.06,-178.03 1350.64,-171.66 1351.51,-185.63"/>
</a>
</g>
</g>
<!-- PAKNECONENGYGN -->
<g id="node8" class="node">
<title>PAKNECONENGYGN</title>
<g id="a_node8"><a xlink:title="Net consumption deflator&#10;FRML &#160;&lt;&gt; PAKNECONENGYGN = (PAKNVCOLPRODSH**(PAKCESENGYPROD)*(PAKNVCOLPRODGN)**(1&#45;PAKCESENGYPROD)+PAKNVGASPRODSH**(PAKCESENGYPROD)*(PAKNVGASPRODGN)**(1&#45;PAKCESENGYPROD)+PAKNVOILPRODSH**(PAKCESENGYPROD)*(PAKNVOILPRODGN)**(1&#45;PAKCESENGYPROD)+PAKNVRENPRODSH**(PAKCESENGYPROD)*(PAKNVRENPRODXN)**(1&#45;PAKCESENGYPROD))**(1/(1&#45;PAKCESENGYPROD)) $">
<polygon fill="#63b8ff" stroke="black" points="286,-247.19 0,-247.19 0,-211.19 286,-211.19 286,-247.19"/>
<text text-anchor="start" x="6" y="-224.99" font-family="Times New Roman,serif" font-size="14.00" fill="blue">PAKNECONENGYGN:Net consumption deflator</text>
</a>
</g>
</g>
<!-- PAKNECONENGYXN -->
<g id="node30" class="node">
<title>PAKNECONENGYXN</title>
<g id="a_node30"><a xlink:title="Energy Consumption&#10;FRML &lt;Z,EXO&gt; PAKNECONENGYXN = (PAKNECONENGYXN(&#45;1)*EXP(&#45;PAKNECONENGYXN_A+ (((LOG(PAKNECONENGYGN))&#45;(LOG(PAKNECONENGYGN(&#45;1))))+0.0550557534575806*DUMH) )) * (1&#45;PAKNECONENGYXN_D)+ PAKNECONENGYXN_X*PAKNECONENGYXN_D &#160;$">
<polygon fill="#63b8ff" stroke="black" points="597.5,-247.19 335.5,-247.19 335.5,-211.19 597.5,-211.19 597.5,-247.19"/>
<text text-anchor="start" x="341.5" y="-224.99" font-family="Times New Roman,serif" font-size="14.00" fill="blue">PAKNECONENGYXN:Energy Consumption</text>
</a>
</g>
</g>
<!-- PAKNECONENGYGN&#45;&gt;PAKNECONENGYXN -->
<g id="edge11" class="edge">
<title>PAKNECONENGYGN&#45;&gt;PAKNECONENGYXN</title>
<g id="a_edge11"><a xlink:href="bogus" xlink:title=" PAKNECONENGYGN &#45;&gt; PAKNECONENGYXN Min. att. &#45;39% &#160;max: 100%">
<path fill="none" stroke="black" stroke-width="8" d="M286.42,-229.19C299.27,-229.19 312.29,-229.19 325.13,-229.19"/>
<polygon fill="black" stroke="black" stroke-width="8" points="325.38,-236.19 335.38,-229.19 325.38,-222.19 325.38,-236.19"/>
</a>
</g>
</g>
<!-- PAKNECONOTHRXN&#45;&gt;PAKNECONPRVTXN -->
<g id="edge17" class="edge">
<title>PAKNECONOTHRXN&#45;&gt;PAKNECONPRVTXN</title>
<g id="a_edge17"><a xlink:href="bogus" xlink:title=" PAKNECONOTHRXN &#45;&gt; PAKNECONPRVTXN Min. att. 71% &#160;max: 99%">
<path fill="none" stroke="black" stroke-width="8" d="M611.22,-270.37C619.67,-269.61 628.16,-268.85 636.57,-268.1"/>
<polygon fill="black" stroke="black" stroke-width="8" points="637.44,-275.05 646.78,-267.19 636.2,-261.11 637.44,-275.05"/>
</a>
</g>
</g>
<!-- PAKNYYWBTOTLCN -->
<g id="node25" class="node">
<title>PAKNYYWBTOTLCN</title>
<g id="a_node25"><a xlink:title="Economy&#45;wide wage bill&#10;FRML &#160;&lt;&gt; PAKNYYWBTOTLCN = PAKNYWRTTOTLCN*PAKLMEMPTOTLCN $">
<polygon fill="#63b8ff" stroke="black" points="2567,-987.19 2282,-987.19 2282,-951.19 2567,-951.19 2567,-987.19"/>
<text text-anchor="start" x="2288.5" y="-964.99" font-family="Times New Roman,serif" font-size="14.00" fill="blue">PAKNYYWBTOTLCN:Economy&#45;wide wage bill</text>
</a>
</g>
</g>
<!-- PAKLMEMPTOTLCN&#45;&gt;PAKNYYWBTOTLCN -->
<g id="edge25" class="edge">
<title>PAKLMEMPTOTLCN&#45;&gt;PAKNYYWBTOTLCN</title>
<g id="a_edge25"><a xlink:href="bogus" xlink:title=" PAKLMEMPTOTLCN &#45;&gt; PAKNYYWBTOTLCN Min. att. &#45;6% &#160;max: 84%">
<path fill="none" stroke="black" stroke-width="8" d="M2246.25,-969.19C2254.63,-969.19 2263.19,-969.19 2271.79,-969.19"/>
<polygon fill="black" stroke="black" stroke-width="8" points="2271.89,-976.19 2281.89,-969.19 2271.89,-962.19 2271.89,-976.19"/>
</a>
</g>
</g>
<!-- PAKNYWRTINFMCN -->
<g id="node14" class="node">
<title>PAKNYWRTINFMCN</title>
<g id="a_node14"><a xlink:title="Informal wage&#10;FRML &lt;Z,EXO&gt; PAKNYWRTINFMCN = (PAKNYWRTINFMCN(&#45;1)*EXP(&#45;PAKNYWRTINFMCN_A+ (&#45;0.122614247140616&#45;0.3*(LOG(PAKNYWRTINFMCN(&#45;1))&#45;LOG(PAKNYGDPFCSTXN(&#45;1))&#45;LOG(PAKNYGDPPOTLKN(&#45;1)/PAKLMEMPSTRLCN(&#45;1)))+0.2*((LOG(PAKNYWRTINFMCN(&#45;1)))&#45;(LOG(PAKNYWRTINFMCN(&#45;2))))+(1&#45;0.2)*(0.5*((LOG(PAKNYGDPFCSTXN(&#45;1)))&#45;(LOG(PAKNYGDPFCSTXN(&#45;2))))+0.5*(PAKINFLEXPT/100)+((LOG(PAKNYGDPMKTPKN/PAKLMEMPSTRLCN))&#45;(LOG(PAKNYGDPMKTPKN(&#45;1)/PAKLMEMPSTRLCN(&#45;1)))))&#45;0.2*(PAKLMUNRTOTLCN&#45;PAKLMUNRSTRLCN)/100+0.15347529018182*DURING_2000&#45;0.183372342445734*DURING_2001) )) * (1&#45;PAKNYWRTINFMCN_D)+ PAKNYWRTINFMCN_X*PAKNYWRTINFMCN_D &#160;$">
<polygon fill="#63b8ff" stroke="black" points="1559.5,-1118.19 1333.5,-1118.19 1333.5,-1082.19 1559.5,-1082.19 1559.5,-1118.19"/>
<text text-anchor="start" x="1339.5" y="-1095.99" font-family="Times New Roman,serif" font-size="14.00" fill="blue">PAKNYWRTINFMCN:Informal wage</text>
</a>
</g>
</g>
<!-- PAKNYWRTTOTLCN -->
<g id="node20" class="node">
<title>PAKNYWRTTOTLCN</title>
<g id="a_node20"><a xlink:title="Wages&#10;FRML &#160;&lt;&gt; PAKNYWRTTOTLCN = (PAKNYWBINFMSH**PAKINFCES*(PAKNYWRTINFMCN)**(1&#45;PAKINFCES)+PAKNYWBFORMSH**PAKINFCES*(PAKNYWRTFORMCN*(1+PAKGGREVDRCTXN/100))**(1&#45;PAKINFCES))**(1/(1&#45;PAKINFCES)) $">
<polygon fill="#63b8ff" stroke="black" points="1929,-1060.19 1748,-1060.19 1748,-1024.19 1929,-1024.19 1929,-1060.19"/>
<text text-anchor="start" x="1754.5" y="-1037.99" font-family="Times New Roman,serif" font-size="14.00" fill="blue">PAKNYWRTTOTLCN:Wages</text>
</a>
</g>
</g>
<!-- PAKNYWRTINFMCN&#45;&gt;PAKNYWRTTOTLCN -->
<g id="edge33" class="edge">
<title>PAKNYWRTINFMCN&#45;&gt;PAKNYWRTTOTLCN</title>
<g id="a_edge33"><a xlink:href="bogus" xlink:title=" PAKNYWRTINFMCN &#45;&gt; PAKNYWRTTOTLCN Min. att. 79% &#160;max: 80%">
<path fill="none" stroke="black" stroke-width="7.95" d="M1559.72,-1085.65C1588.52,-1081.76 1619.43,-1077.45 1648,-1073.19 1677.2,-1068.84 1708.87,-1063.79 1737.82,-1059.04"/>
<polygon fill="black" stroke="black" stroke-width="7.95" points="1739.19,-1065.87 1747.93,-1057.38 1736.94,-1052.14 1739.19,-1065.87"/>
</a>
</g>
</g>
<!-- PAKFMLBLPOLYXN&#45;&gt;PAKNECONPRVTKN -->
<g id="edge23" class="edge">
<title>PAKFMLBLPOLYXN&#45;&gt;PAKNECONPRVTKN</title>
<g id="a_edge23"><a xlink:href="bogus" xlink:title=" PAKFMLBLPOLYXN &#45;&gt; PAKNECONPRVTKN Min. att. &#45;160% &#160;max: 20%">
<path fill="none" stroke="black" stroke-width="8" d="M2034.63,-139.7C1814.92,-130.82 1310.97,-115.19 1245,-155.19 1134.85,-221.99 1090.24,-384.76 1076.29,-450.73"/>
<polygon fill="black" stroke="black" stroke-width="8" points="1069.37,-449.61 1074.24,-460.81 1083.09,-452.41 1069.37,-449.61"/>
</a>
</g>
</g>
<!-- PAKNYWRTTOTLCN&#45;&gt;PAKLMEMPTOTLCN -->
<g id="edge3" class="edge">
<title>PAKNYWRTTOTLCN&#45;&gt;PAKLMEMPTOTLCN</title>
<g id="a_edge3"><a xlink:href="bogus" xlink:title=" PAKNYWRTTOTLCN &#45;&gt; PAKLMEMPTOTLCN Min. att. &#45;1554% &#160;max: 236%">
<path fill="none" stroke="black" stroke-width="8" d="M1918.06,-1024.12C1942.14,-1018.49 1968.68,-1012.18 1993,-1006.19 2014.03,-1001.02 2036.74,-995.25 2057.76,-989.83"/>
<polygon fill="black" stroke="black" stroke-width="8" points="2059.67,-996.56 2067.6,-987.29 2056.17,-983.01 2059.67,-996.56"/>
</a>
</g>
</g>
<!-- PAKNYWRTTOTLCN&#45;&gt;PAKNYYWBTOTLCN -->
<g id="edge10" class="edge">
<title>PAKNYWRTTOTLCN&#45;&gt;PAKNYYWBTOTLCN</title>
<g id="a_edge10"><a xlink:href="bogus" xlink:title=" PAKNYWRTTOTLCN &#45;&gt; PAKNYYWBTOTLCN Min. att. 16% &#160;max: 106%">
<path fill="none" stroke="black" stroke-width="8" d="M1929.23,-1033.04C2011.68,-1024.38 2137.22,-1010.62 2246,-996.19 2263.34,-993.89 2281.6,-991.31 2299.55,-988.67"/>
<polygon fill="black" stroke="black" stroke-width="8" points="2300.62,-995.58 2309.49,-987.2 2298.57,-981.74 2300.62,-995.58"/>
</a>
</g>
</g>
<!-- PAKNYGDPFCSTXN -->
<g id="node24" class="node">
<title>PAKNYGDPFCSTXN</title>
<g id="a_node24"><a xlink:title="GDP at factor cost&#10;FRML &lt;Z,EXO&gt; PAKNYGDPFCSTXN = (PAKNYGDPFCSTXN(&#45;1)*EXP(&#45;PAKNYGDPFCSTXN_A+ (0.6*((LOG(PAKNYGDPFCSTXN(&#45;1)))&#45;(LOG(PAKNYGDPFCSTXN(&#45;2))))+(1&#45;0.6)*(0.7*PAKINFLEXPT/100+(1&#45;0.7)*((LOG(PAKPSTAR(&#45;1)))&#45;(LOG(PAKPSTAR(&#45;2)))))+0.25*PAKNYGDPGAP_/100+0.262461811660072*DURING_2000&#45;0.205776950553378*DURING_2001) )) * (1&#45;PAKNYGDPFCSTXN_D)+ PAKNYGDPFCSTXN_X*PAKNYGDPFCSTXN_D &#160;$">
<polygon fill="#63b8ff" stroke="black" points="1959.5,-964.19 1717.5,-964.19 1717.5,-928.19 1959.5,-928.19 1959.5,-964.19"/>
<text text-anchor="start" x="1723.5" y="-941.99" font-family="Times New Roman,serif" font-size="14.00" fill="blue">PAKNYGDPFCSTXN:GDP at factor cost</text>
</a>
</g>
</g>
<!-- PAKNYGDPFCSTXN&#45;&gt;PAKLMEMPTOTLCN -->
<g id="edge31" class="edge">
<title>PAKNYGDPFCSTXN&#45;&gt;PAKLMEMPTOTLCN</title>
<g id="a_edge31"><a xlink:href="bogus" xlink:title=" PAKNYGDPFCSTXN &#45;&gt; PAKLMEMPTOTLCN Min. att. &#45;128% &#160;max: 59%">
<path fill="none" stroke="black" stroke-width="8" d="M1959.87,-955.52C1979.32,-957.02 1999.43,-958.58 2018.81,-960.08"/>
<polygon fill="black" stroke="black" stroke-width="8" points="2018.36,-967.07 2028.87,-960.86 2019.44,-953.11 2018.36,-967.07"/>
</a>
</g>
</g>
<!-- PAKNYYWBTOTLCN&#45;&gt;PAKNECONPRVTKN -->
<g id="edge34" class="edge">
<title>PAKNYYWBTOTLCN&#45;&gt;PAKNECONPRVTKN</title>
<g id="a_edge34"><a xlink:href="bogus" xlink:title=" PAKNYYWBTOTLCN &#45;&gt; PAKNECONPRVTKN Min. att. &#45;594% &#160;max: 5821%">
<path fill="none" stroke="black" stroke-width="8" d="M2422.7,-951.05C2417.28,-837.66 2381.99,-227.77 2246,-117.19 2073.41,23.15 1433.24,-5.65 1245,-124.19 1229.62,-133.88 1120.5,-370.73 1083.35,-452.07"/>
<polygon fill="black" stroke="black" stroke-width="8" points="1076.97,-449.18 1079.19,-461.19 1089.71,-455 1076.97,-449.18"/>
</a>
</g>
</g>
<!-- PAKNYGDPGAP_&#45;&gt;PAKLMEMPTOTLCN -->
<g id="edge1" class="edge">
<title>PAKNYGDPGAP_&#45;&gt;PAKLMEMPTOTLCN</title>
<g id="a_edge1"><a xlink:href="bogus" xlink:title=" PAKNYGDPGAP_ &#45;&gt; PAKLMEMPTOTLCN Min. att. &#45;362% &#160;max: 147%">
<path fill="none" stroke="black" stroke-width="8" d="M1889.21,-879.27C1940.93,-898.08 2021.91,-927.52 2077,-947.56"/>
<polygon fill="black" stroke="black" stroke-width="8" points="2074.84,-954.22 2086.63,-951.06 2079.62,-941.06 2074.84,-954.22"/>
</a>
</g>
</g>
<!-- PAKNYGDPGAP_&#45;&gt;PAKFMLBLPOLYXN -->
<g id="edge22" class="edge">
<title>PAKNYGDPGAP_&#45;&gt;PAKFMLBLPOLYXN</title>
<g id="a_edge22"><a xlink:href="bogus" xlink:title=" PAKNYGDPGAP_ &#45;&gt; PAKFMLBLPOLYXN Min. att. &#45;15% &#160;max: 83%">
<path fill="none" stroke="black" stroke-width="8" d="M1846.99,-843.11C1887.11,-746.24 2076.61,-288.76 2125.15,-171.59"/>
<polygon fill="black" stroke="black" stroke-width="8" points="2131.67,-174.14 2129.03,-162.23 2118.74,-168.79 2131.67,-174.14"/>
</a>
</g>
</g>
<!-- PAKNYWRTFORMCN -->
<g id="node29" class="node">
<title>PAKNYWRTFORMCN</title>
<g id="a_node29"><a xlink:title="Formal wage&#10;FRML &lt;Z,EXO&gt; PAKNYWRTFORMCN = (PAKNYWRTFORMCN(&#45;1)*EXP(&#45;PAKNYWRTFORMCN_A+ (&#45;0.120164450250183&#45;0.3*(LOG(PAKNYWRTFORMCN(&#45;1))&#45;LOG(PAKNYGDPFCSTXN(&#45;1))&#45;LOG(PAKNYGDPPOTLKN(&#45;1)/PAKLMEMPSTRLCN(&#45;1)))+0.2*((LOG(PAKNYWRTFORMCN(&#45;1)))&#45;(LOG(PAKNYWRTFORMCN(&#45;2))))+(1&#45;0.2)*(0.5*((LOG(PAKNYGDPFCSTXN(&#45;1)))&#45;(LOG(PAKNYGDPFCSTXN(&#45;2))))+0.5*(PAKINFLEXPT/100)+((LOG(PAKNYGDPMKTPKN/PAKLMEMPSTRLCN))&#45;(LOG(PAKNYGDPMKTPKN(&#45;1)/PAKLMEMPSTRLCN(&#45;1)))))&#45;0.2*(PAKLMUNRTOTLCN&#45;PAKLMUNRSTRLCN)/100+0.15233813938029*DURING_2000&#45;0.183411483907703*DURING_2001) )) * (1&#45;PAKNYWRTFORMCN_D)+ PAKNYWRTFORMCN_X*PAKNYWRTFORMCN_D &#160;$">
<polygon fill="#63b8ff" stroke="black" points="1557.5,-1064.19 1335.5,-1064.19 1335.5,-1028.19 1557.5,-1028.19 1557.5,-1064.19"/>
<text text-anchor="start" x="1341.5" y="-1041.99" font-family="Times New Roman,serif" font-size="14.00" fill="blue">PAKNYWRTFORMCN:Formal wage</text>
</a>
</g>
</g>
<!-- PAKNYWRTFORMCN&#45;&gt;PAKNYWRTTOTLCN -->
<g id="edge26" class="edge">
<title>PAKNYWRTFORMCN&#45;&gt;PAKNYWRTTOTLCN</title>
<g id="a_edge26"><a xlink:href="bogus" xlink:title=" PAKNYWRTFORMCN &#45;&gt; PAKNYWRTTOTLCN Min. att. 21% &#160;max: 21%">
<path fill="none" stroke="black" stroke-width="2.13" d="M1557.69,-1045.06C1614.31,-1044.48 1682.78,-1043.78 1737.81,-1043.22"/>
<polygon fill="black" stroke="black" stroke-width="2.13" points="1737.96,-1046.71 1747.92,-1043.11 1737.89,-1039.71 1737.96,-1046.71"/>
</a>
</g>
</g>
<!-- PAKNECONENGYXN&#45;&gt;PAKNECONPRVTXN -->
<g id="edge8" class="edge">
<title>PAKNECONENGYXN&#45;&gt;PAKNECONPRVTXN</title>
<g id="a_edge8"><a xlink:href="bogus" xlink:title=" PAKNECONENGYXN &#45;&gt; PAKNECONPRVTXN Min. att. 1% &#160;max: 29%">
<path fill="none" stroke="black" stroke-width="2.91" d="M597.54,-240.8C610.43,-241.95 623.53,-243.12 636.45,-244.27"/>
<polygon fill="black" stroke="black" stroke-width="2.91" points="636.5,-247.79 646.77,-245.19 637.12,-240.82 636.5,-247.79"/>
</a>
</g>
</g>
</g>
</svg>
