<svg xmlns="http://www.w3.org/2000/svg" xmlns:xlink="http://www.w3.org/1999/xlink" width="375pt" height="432pt" viewBox="0.00 0.00 375.01 432.00">
<g id="graph0" class="graph" transform="scale(0.48753 0.48753) rotate(0) translate(4 882.1)">
<title>TD</title>
<polygon fill="white" stroke="none" points="-4,4 -4,-882.1 765.2,-882.1 765.2,4 -4,4"/>
<text text-anchor="middle" x="380.6" y="-7.2" font-family="Times New Roman,serif" font-size="14.00">PAKNYGDPMKTPKN</text>
<!-- PAKNEGDIFTOTKN -->
<g id="node1" class="node">
<title>PAKNEGDIFTOTKN</title>
<polygon fill="none" stroke="black" points="352.1,-878.1 10.5,-878.1 10.5,-678.5 352.1,-678.5 352.1,-878.1"/>
<g id="a_node1_0"><a xlink:href="bogus" xlink:title="Investment real
FRML &lt;IDENT&gt; PAKNEGDIFTOTKN = PAKNEGDIFGOVKN+PAKNEGDIFPRVKN $">
<polygon fill="#ff7f24" stroke="none" points="15.3,-851.3 15.3,-873.3 347.3,-873.3 347.3,-851.3 15.3,-851.3"/>
<polygon fill="none" stroke="black" points="15.3,-851.3 15.3,-873.3 347.3,-873.3 347.3,-851.3 15.3,-851.3"/>
<text text-anchor="start" x="76.3" y="-857" font-family="Times New Roman,serif" font-size="14.00" fill="blue">PAKNEGDIFTOTKN:Investment real</text>
</a>
</g>
<polygon fill="none" stroke="black" points="15.3,-827.3 15.3,-849.3 89.3,-849.3 89.3,-827.3 15.3,-827.3"/>
<text text-anchor="start" x="18.3" y="-833" font-family="Times New Roman,serif" font-size="14.00" fill="blue">Per</text>
<polygon fill="none" stroke="black" points="91.3,-827.3 91.3,-849.3 175.3,-849.3 175.3,-827.3 91.3,-827.3"/>
<text text-anchor="start" x="119.8" y="-833" font-family="Times New Roman,serif" font-size="14.00" fill="blue">2025</text>
<polygon fill="none" stroke="black" points="177.3,-827.3 177.3,-849.3 261.3,-849.3 261.3,-827.3 177.3,-827.3"/>
<text text-anchor="start" x="205.8" y="-833" font-family="Times New Roman,serif" font-size="14.00" fill="blue">2026</text>
<polygon fill="none" stroke="black" points="263.3,-827.3 263.3,-849.3 347.3,-849.3 347.3,-827.3 263.3,-827.3"/>
<text text-anchor="start" x="291.8" y="-833" font-family="Times New Roman,serif" font-size="14.00" fill="blue">2027</text>
<g id="a_node1_1"><a xlink:href="bogus" xlink:title="Baseline values">
<polygon fill="none" stroke="black" points="15.3,-803.3 15.3,-825.3 89.3,-825.3 89.3,-803.3 15.3,-803.3"/>
<text text-anchor="start" x="18.3" y="-809" font-family="Times New Roman,serif" font-size="14.00" fill="blue">Base</text>
</a>
</g>
<g id="a_node1_2"><a xlink:href="bogus" xlink:title="Baseline values">
<polygon fill="none" stroke="black" points="91.3,-803.3 91.3,-825.3 175.3,-825.3 175.3,-803.3 91.3,-803.3"/>
<text text-anchor="start" x="93.92" y="-809" font-family="Times New Roman,serif" font-size="14.00" fill="blue">3,163,965.352</text>
</a>
</g>
<g id="a_node1_3"><a xlink:href="bogus" xlink:title="Baseline values">
<polygon fill="none" stroke="black" points="177.3,-803.3 177.3,-825.3 261.3,-825.3 261.3,-803.3 177.3,-803.3"/>
<text text-anchor="start" x="179.92" y="-809" font-family="Times New Roman,serif" font-size="14.00" fill="blue">3,210,065.336</text>
</a>
</g>
<g id="a_node1_4"><a xlink:href="bogus" xlink:title="Baseline values">
<polygon fill="none" stroke="black" points="263.3,-803.3 263.3,-825.3 347.3,-825.3 347.3,-803.3 263.3,-803.3"/>
<text text-anchor="start" x="265.92" y="-809" font-family="Times New Roman,serif" font-size="14.00" fill="blue">3,268,452.239</text>
</a>
</g>
<g id="a_node1_5"><a xlink:href="bogus" xlink:title="Latest run values">
<polygon fill="none" stroke="black" points="15.3,-779.3 15.3,-801.3 89.3,-801.3 89.3,-779.3 15.3,-779.3"/>
<text text-anchor="start" x="18.3" y="-785" font-family="Times New Roman,serif" font-size="14.00" fill="blue">Last</text>
</a>
</g>
<polygon fill="none" stroke="black" points="91.3,-779.3 91.3,-801.3 175.3,-801.3 175.3,-779.3 91.3,-779.3"/>
<text text-anchor="start" x="93.92" y="-785" font-family="Times New Roman,serif" font-size="14.00" fill="blue">3,285,043.278</text>
<polygon fill="none" stroke="black" points="177.3,-779.3 177.3,-801.3 261.3,-801.3 261.3,-779.3 177.3,-779.3"/>
<text text-anchor="start" x="179.92" y="-785" font-family="Times New Roman,serif" font-size="14.00" fill="blue">3,356,015.827</text>
<polygon fill="none" stroke="black" points="263.3,-779.3 263.3,-801.3 347.3,-801.3 347.3,-779.3 263.3,-779.3"/>
<text text-anchor="start" x="265.92" y="-785" font-family="Times New Roman,serif" font-size="14.00" fill="blue">3,420,600.881</text>
<g id="a_node1_6"><a xlink:href="bogus" xlink:title="Difference between baseline and latest run">
<polygon fill="none" stroke="black" points="15.3,-755.3 15.3,-777.3 89.3,-777.3 89.3,-755.3 15.3,-755.3"/>
<text text-anchor="start" x="18.3" y="-761" font-family="Times New Roman,serif" font-size="14.00" fill="blue">Diff</text>
</a>
</g>
<polygon fill="none" stroke="black" points="91.3,-755.3 91.3,-777.3 175.3,-777.3 175.3,-755.3 91.3,-755.3"/>
<text text-anchor="start" x="104.05" y="-761" font-family="Times New Roman,serif" font-size="14.00" fill="blue">121,077.926</text>
<polygon fill="none" stroke="black" points="177.3,-755.3 177.3,-777.3 261.3,-777.3 261.3,-755.3 177.3,-755.3"/>
<text text-anchor="start" x="190.05" y="-761" font-family="Times New Roman,serif" font-size="14.00" fill="blue">145,950.491</text>
<polygon fill="none" stroke="black" points="263.3,-755.3 263.3,-777.3 347.3,-777.3 347.3,-755.3 263.3,-755.3"/>
<text text-anchor="start" x="276.05" y="-761" font-family="Times New Roman,serif" font-size="14.00" fill="blue">152,148.642</text>
<polygon fill="none" stroke="black" points="15.3,-731.3 15.3,-753.3 347.3,-753.3 347.3,-731.3 15.3,-731.3"/>
<text text-anchor="start" x="146.8" y="-737" font-family="Times New Roman,serif" font-size="14.00" fill="blue"> Growth rate</text>
<g id="a_node1_7"><a xlink:href="bogus" xlink:title="Base growth
Exogen">
<polygon fill="none" stroke="black" points="15.3,-707.3 15.3,-729.3 89.3,-729.3 89.3,-707.3 15.3,-707.3"/>
<text text-anchor="start" x="18.17" y="-713" font-family="Times New Roman,serif" font-size="14.00" fill="blue">Base growth</text>
</a>
</g>
<polygon fill="none" stroke="black" points="91.3,-707.3 91.3,-729.3 175.3,-729.3 175.3,-707.3 91.3,-707.3"/>
<text text-anchor="start" x="141.55" y="-713" font-family="Times New Roman,serif" font-size="14.00" fill="blue">1.099</text>
<polygon fill="none" stroke="black" points="177.3,-707.3 177.3,-729.3 261.3,-729.3 261.3,-707.3 177.3,-707.3"/>
<text text-anchor="start" x="227.55" y="-713" font-family="Times New Roman,serif" font-size="14.00" fill="blue">1.457</text>
<polygon fill="none" stroke="black" points="263.3,-707.3 263.3,-729.3 347.3,-729.3 347.3,-707.3 263.3,-707.3"/>
<text text-anchor="start" x="313.55" y="-713" font-family="Times New Roman,serif" font-size="14.00" fill="blue">1.819</text>
<g id="a_node1_8"><a xlink:href="bogus" xlink:title="Last growth
Exogen">
<polygon fill="none" stroke="black" points="15.3,-683.3 15.3,-705.3 89.3,-705.3 89.3,-683.3 15.3,-683.3"/>
<text text-anchor="start" x="18.3" y="-689" font-family="Times New Roman,serif" font-size="14.00" fill="blue">Last growth</text>
</a>
</g>
<polygon fill="none" stroke="black" points="91.3,-683.3 91.3,-705.3 175.3,-705.3 175.3,-683.3 91.3,-683.3"/>
<text text-anchor="start" x="141.55" y="-689" font-family="Times New Roman,serif" font-size="14.00" fill="blue">4.968</text>
<polygon fill="none" stroke="black" points="177.3,-683.3 177.3,-705.3 261.3,-705.3 261.3,-683.3 177.3,-683.3"/>
<text text-anchor="start" x="227.55" y="-689" font-family="Times New Roman,serif" font-size="14.00" fill="blue">2.160</text>
<polygon fill="none" stroke="black" points="263.3,-683.3 263.3,-705.3 347.3,-705.3 347.3,-683.3 263.3,-683.3"/>
<text text-anchor="start" x="313.55" y="-689" font-family="Times New Roman,serif" font-size="14.00" fill="blue">1.924</text>
<polygon fill="none" stroke="black" points="12.3,-680.3 12.3,-876.3 350.3,-876.3 350.3,-680.3 12.3,-680.3"/>
</g>
<!-- PAKNYGDPMKTPKN -->
<g id="node2" class="node">
<title>PAKNYGDPMKTPKN</title>
<polygon fill="none" stroke="black" points="761.2,-551.1 398.6,-551.1 398.6,-351.5 761.2,-351.5 761.2,-551.1"/>
<g id="a_node2_9"><a xlink:href="bogus" xlink:title="Real GDP
FRML &lt;IDENT&gt; PAKNYGDPMKTPKN = PAKNECONPRVTKN+PAKNECONGOVTKN+PAKNEGDIFTOTKN+PAKNEGDISTKBKN+PAKNEEXPGNFSKN-PAKNEIMPGNFSKN+PAKNYGDPDISCKN+PAKADAP*PAKDISPREPKN $">
<polygon fill="red" stroke="none" points="403.4,-524.3 403.4,-546.3 756.4,-546.3 756.4,-524.3 403.4,-524.3"/>
<polygon fill="none" stroke="black" points="403.4,-524.3 403.4,-546.3 756.4,-546.3 756.4,-524.3 403.4,-524.3"/>
<text text-anchor="start" x="485.03" y="-530" font-family="Times New Roman,serif" font-size="14.00" fill="blue">PAKNYGDPMKTPKN:Real GDP</text>
</a>
</g>
<polygon fill="none" stroke="black" points="403.4,-500.3 403.4,-522.3 477.4,-522.3 477.4,-500.3 403.4,-500.3"/>
<text text-anchor="start" x="406.4" y="-506" font-family="Times New Roman,serif" font-size="14.00" fill="blue">Per</text>
<polygon fill="none" stroke="black" points="479.4,-500.3 479.4,-522.3 570.4,-522.3 570.4,-500.3 479.4,-500.3"/>
<text text-anchor="start" x="511.4" y="-506" font-family="Times New Roman,serif" font-size="14.00" fill="blue">2025</text>
<polygon fill="none" stroke="black" points="572.4,-500.3 572.4,-522.3 663.4,-522.3 663.4,-500.3 572.4,-500.3"/>
<text text-anchor="start" x="604.4" y="-506" font-family="Times New Roman,serif" font-size="14.00" fill="blue">2026</text>
<polygon fill="none" stroke="black" points="665.4,-500.3 665.4,-522.3 756.4,-522.3 756.4,-500.3 665.4,-500.3"/>
<text text-anchor="start" x="697.4" y="-506" font-family="Times New Roman,serif" font-size="14.00" fill="blue">2027</text>
<g id="a_node2_10"><a xlink:href="bogus" xlink:title="Baseline values">
<polygon fill="none" stroke="black" points="403.4,-476.3 403.4,-498.3 477.4,-498.3 477.4,-476.3 403.4,-476.3"/>
<text text-anchor="start" x="406.4" y="-482" font-family="Times New Roman,serif" font-size="14.00" fill="blue">Base</text>
</a>
</g>
<g id="a_node2_11"><a xlink:href="bogus" xlink:title="Baseline values">
<polygon fill="none" stroke="black" points="479.4,-476.3 479.4,-498.3 570.4,-498.3 570.4,-476.3 479.4,-476.3"/>
<text text-anchor="start" x="482.15" y="-482" font-family="Times New Roman,serif" font-size="14.00" fill="blue">27,963,231.531</text>
</a>
</g>
<g id="a_node2_12"><a xlink:href="bogus" xlink:title="Baseline values">
<polygon fill="none" stroke="black" points="572.4,-476.3 572.4,-498.3 663.4,-498.3 663.4,-476.3 572.4,-476.3"/>
<text text-anchor="start" x="575.15" y="-482" font-family="Times New Roman,serif" font-size="14.00" fill="blue">28,640,383.896</text>
</a>
</g>
<g id="a_node2_13"><a xlink:href="bogus" xlink:title="Baseline values">
<polygon fill="none" stroke="black" points="665.4,-476.3 665.4,-498.3 756.4,-498.3 756.4,-476.3 665.4,-476.3"/>
<text text-anchor="start" x="668.15" y="-482" font-family="Times New Roman,serif" font-size="14.00" fill="blue">29,396,759.184</text>
</a>
</g>
<g id="a_node2_14"><a xlink:href="bogus" xlink:title="Latest run values">
<polygon fill="none" stroke="black" points="403.4,-452.3 403.4,-474.3 477.4,-474.3 477.4,-452.3 403.4,-452.3"/>
<text text-anchor="start" x="406.4" y="-458" font-family="Times New Roman,serif" font-size="14.00" fill="blue">Last</text>
</a>
</g>
<polygon fill="none" stroke="black" points="479.4,-452.3 479.4,-474.3 570.4,-474.3 570.4,-452.3 479.4,-452.3"/>
<text text-anchor="start" x="482.15" y="-458" font-family="Times New Roman,serif" font-size="14.00" fill="blue">28,063,248.033</text>
<polygon fill="none" stroke="black" points="572.4,-452.3 572.4,-474.3 663.4,-474.3 663.4,-452.3 572.4,-452.3"/>
<text text-anchor="start" x="575.15" y="-458" font-family="Times New Roman,serif" font-size="14.00" fill="blue">28,813,268.051</text>
<polygon fill="none" stroke="black" points="665.4,-452.3 665.4,-474.3 756.4,-474.3 756.4,-452.3 665.4,-452.3"/>
<text text-anchor="start" x="668.15" y="-458" font-family="Times New Roman,serif" font-size="14.00" fill="blue">29,568,459.820</text>
<g id="a_node2_15"><a xlink:href="bogus" xlink:title="Difference between baseline and latest run">
<polygon fill="none" stroke="black" points="403.4,-428.3 403.4,-450.3 477.4,-450.3 477.4,-428.3 403.4,-428.3"/>
<text text-anchor="start" x="406.4" y="-434" font-family="Times New Roman,serif" font-size="14.00" fill="blue">Diff</text>
</a>
</g>
<polygon fill="none" stroke="black" points="479.4,-428.3 479.4,-450.3 570.4,-450.3 570.4,-428.3 479.4,-428.3"/>
<text text-anchor="start" x="499.15" y="-434" font-family="Times New Roman,serif" font-size="14.00" fill="blue">100,016.502</text>
<polygon fill="none" stroke="black" points="572.4,-428.3 572.4,-450.3 663.4,-450.3 663.4,-428.3 572.4,-428.3"/>
<text text-anchor="start" x="592.15" y="-434" font-family="Times New Roman,serif" font-size="14.00" fill="blue">172,884.155</text>
<polygon fill="none" stroke="black" points="665.4,-428.3 665.4,-450.3 756.4,-450.3 756.4,-428.3 665.4,-428.3"/>
<text text-anchor="start" x="685.15" y="-434" font-family="Times New Roman,serif" font-size="14.00" fill="blue">171,700.636</text>
<polygon fill="none" stroke="black" points="403.4,-404.3 403.4,-426.3 756.4,-426.3 756.4,-404.3 403.4,-404.3"/>
<text text-anchor="start" x="545.4" y="-410" font-family="Times New Roman,serif" font-size="14.00" fill="blue"> Growth rate</text>
<g id="a_node2_16"><a xlink:href="bogus" xlink:title="Base growth
Exogen">
<polygon fill="none" stroke="black" points="403.4,-380.3 403.4,-402.3 477.4,-402.3 477.4,-380.3 403.4,-380.3"/>
<text text-anchor="start" x="406.28" y="-386" font-family="Times New Roman,serif" font-size="14.00" fill="blue">Base growth</text>
</a>
</g>
<polygon fill="none" stroke="black" points="479.4,-380.3 479.4,-402.3 570.4,-402.3 570.4,-380.3 479.4,-380.3"/>
<text text-anchor="start" x="536.65" y="-386" font-family="Times New Roman,serif" font-size="14.00" fill="blue">2.081</text>
<polygon fill="none" stroke="black" points="572.4,-380.3 572.4,-402.3 663.4,-402.3 663.4,-380.3 572.4,-380.3"/>
<text text-anchor="start" x="629.65" y="-386" font-family="Times New Roman,serif" font-size="14.00" fill="blue">2.422</text>
<polygon fill="none" stroke="black" points="665.4,-380.3 665.4,-402.3 756.4,-402.3 756.4,-380.3 665.4,-380.3"/>
<text text-anchor="start" x="722.65" y="-386" font-family="Times New Roman,serif" font-size="14.00" fill="blue">2.641</text>
<g id="a_node2_17"><a xlink:href="bogus" xlink:title="Last growth
Exogen">
<polygon fill="none" stroke="black" points="403.4,-356.3 403.4,-378.3 477.4,-378.3 477.4,-356.3 403.4,-356.3"/>
<text text-anchor="start" x="406.4" y="-362" font-family="Times New Roman,serif" font-size="14.00" fill="blue">Last growth</text>
</a>
</g>
<polygon fill="none" stroke="black" points="479.4,-356.3 479.4,-378.3 570.4,-378.3 570.4,-356.3 479.4,-356.3"/>
<text text-anchor="start" x="536.65" y="-362" font-family="Times New Roman,serif" font-size="14.00" fill="blue">2.446</text>
<polygon fill="none" stroke="black" points="572.4,-356.3 572.4,-378.3 663.4,-378.3 663.4,-356.3 572.4,-356.3"/>
<text text-anchor="start" x="629.65" y="-362" font-family="Times New Roman,serif" font-size="14.00" fill="blue">2.673</text>
<polygon fill="none" stroke="black" points="665.4,-356.3 665.4,-378.3 756.4,-378.3 756.4,-356.3 665.4,-356.3"/>
<text text-anchor="start" x="722.65" y="-362" font-family="Times New Roman,serif" font-size="14.00" fill="blue">2.621</text>
<polygon fill="none" stroke="black" points="400.4,-353.3 400.4,-549.3 759.4,-549.3 759.4,-353.3 400.4,-353.3"/>
</g>
<!-- PAKNEGDIFTOTKN&#45;&gt;PAKNYGDPMKTPKN -->
<g id="edge2" class="edge">
<title>PAKNEGDIFTOTKN-&gt;PAKNYGDPMKTPKN</title>
<g id="a_edge2"><a xlink:href="bogus" xlink:title=" PAKNEGDIFTOTKN -&gt; PAKNYGDPMKTPKN Min. att. 84%  max: 121%">
<path fill="none" stroke="black" stroke-width="8" d="M351.15,-678.06C355.04,-675.16 358.86,-672.24 362.6,-669.3 403.04,-637.49 443.74,-598.67 478.74,-562.66"/>
<polygon fill="black" stroke="black" stroke-width="8" points="483.52,-568.65 485.42,-556.59 473.44,-558.93 483.52,-568.65"/>
</a>
</g>
</g>
<!-- PAKNECONGOVTKN -->
<g id="node3" class="node">
<title>PAKNECONGOVTKN</title>
<polygon fill="none" stroke="black" points="352.1,-660.1 10.5,-660.1 10.5,-460.5 352.1,-460.5 352.1,-660.1"/>
<g id="a_node3_18"><a xlink:href="bogus" xlink:title="Gov. Cons real
FRML &lt;IDENT&gt; PAKNECONGOVTKN = PAKNECONGOVTCN/PAKNECONGOVTXN $">
<polygon fill="#ff7f24" stroke="none" points="15.3,-633.3 15.3,-655.3 347.3,-655.3 347.3,-633.3 15.3,-633.3"/>
<polygon fill="none" stroke="black" points="15.3,-633.3 15.3,-655.3 347.3,-655.3 347.3,-633.3 15.3,-633.3"/>
<text text-anchor="start" x="73.67" y="-639" font-family="Times New Roman,serif" font-size="14.00" fill="blue">PAKNECONGOVTKN:Gov. Cons real</text>
</a>
</g>
<polygon fill="none" stroke="black" points="15.3,-609.3 15.3,-631.3 89.3,-631.3 89.3,-609.3 15.3,-609.3"/>
<text text-anchor="start" x="18.3" y="-615" font-family="Times New Roman,serif" font-size="14.00" fill="blue">Per</text>
<polygon fill="none" stroke="black" points="91.3,-609.3 91.3,-631.3 175.3,-631.3 175.3,-609.3 91.3,-609.3"/>
<text text-anchor="start" x="119.8" y="-615" font-family="Times New Roman,serif" font-size="14.00" fill="blue">2025</text>
<polygon fill="none" stroke="black" points="177.3,-609.3 177.3,-631.3 261.3,-631.3 261.3,-609.3 177.3,-609.3"/>
<text text-anchor="start" x="205.8" y="-615" font-family="Times New Roman,serif" font-size="14.00" fill="blue">2026</text>
<polygon fill="none" stroke="black" points="263.3,-609.3 263.3,-631.3 347.3,-631.3 347.3,-609.3 263.3,-609.3"/>
<text text-anchor="start" x="291.8" y="-615" font-family="Times New Roman,serif" font-size="14.00" fill="blue">2027</text>
<g id="a_node3_19"><a xlink:href="bogus" xlink:title="Baseline values">
<polygon fill="none" stroke="black" points="15.3,-585.3 15.3,-607.3 89.3,-607.3 89.3,-585.3 15.3,-585.3"/>
<text text-anchor="start" x="18.3" y="-591" font-family="Times New Roman,serif" font-size="14.00" fill="blue">Base</text>
</a>
</g>
<g id="a_node3_20"><a xlink:href="bogus" xlink:title="Baseline values">
<polygon fill="none" stroke="black" points="91.3,-585.3 91.3,-607.3 175.3,-607.3 175.3,-585.3 91.3,-585.3"/>
<text text-anchor="start" x="93.92" y="-591" font-family="Times New Roman,serif" font-size="14.00" fill="blue">3,278,415.175</text>
</a>
</g>
<g id="a_node3_21"><a xlink:href="bogus" xlink:title="Baseline values">
<polygon fill="none" stroke="black" points="177.3,-585.3 177.3,-607.3 261.3,-607.3 261.3,-585.3 177.3,-585.3"/>
<text text-anchor="start" x="179.92" y="-591" font-family="Times New Roman,serif" font-size="14.00" fill="blue">3,411,351.652</text>
</a>
</g>
<g id="a_node3_22"><a xlink:href="bogus" xlink:title="Baseline values">
<polygon fill="none" stroke="black" points="263.3,-585.3 263.3,-607.3 347.3,-607.3 347.3,-585.3 263.3,-585.3"/>
<text text-anchor="start" x="265.92" y="-591" font-family="Times New Roman,serif" font-size="14.00" fill="blue">3,554,456.759</text>
</a>
</g>
<g id="a_node3_23"><a xlink:href="bogus" xlink:title="Latest run values">
<polygon fill="none" stroke="black" points="15.3,-561.3 15.3,-583.3 89.3,-583.3 89.3,-561.3 15.3,-561.3"/>
<text text-anchor="start" x="18.3" y="-567" font-family="Times New Roman,serif" font-size="14.00" fill="blue">Last</text>
</a>
</g>
<polygon fill="none" stroke="black" points="91.3,-561.3 91.3,-583.3 175.3,-583.3 175.3,-561.3 91.3,-561.3"/>
<text text-anchor="start" x="93.92" y="-567" font-family="Times New Roman,serif" font-size="14.00" fill="blue">3,463,994.197</text>
<polygon fill="none" stroke="black" points="177.3,-561.3 177.3,-583.3 261.3,-583.3 261.3,-561.3 177.3,-561.3"/>
<text text-anchor="start" x="179.92" y="-567" font-family="Times New Roman,serif" font-size="14.00" fill="blue">3,628,623.336</text>
<polygon fill="none" stroke="black" points="263.3,-561.3 263.3,-583.3 347.3,-583.3 347.3,-561.3 263.3,-561.3"/>
<text text-anchor="start" x="265.92" y="-567" font-family="Times New Roman,serif" font-size="14.00" fill="blue">3,762,739.688</text>
<g id="a_node3_24"><a xlink:href="bogus" xlink:title="Difference between baseline and latest run">
<polygon fill="none" stroke="black" points="15.3,-537.3 15.3,-559.3 89.3,-559.3 89.3,-537.3 15.3,-537.3"/>
<text text-anchor="start" x="18.3" y="-543" font-family="Times New Roman,serif" font-size="14.00" fill="blue">Diff</text>
</a>
</g>
<polygon fill="none" stroke="black" points="91.3,-537.3 91.3,-559.3 175.3,-559.3 175.3,-537.3 91.3,-537.3"/>
<text text-anchor="start" x="104.05" y="-543" font-family="Times New Roman,serif" font-size="14.00" fill="blue">185,579.022</text>
<polygon fill="none" stroke="black" points="177.3,-537.3 177.3,-559.3 261.3,-559.3 261.3,-537.3 177.3,-537.3"/>
<text text-anchor="start" x="190.05" y="-543" font-family="Times New Roman,serif" font-size="14.00" fill="blue">217,271.684</text>
<polygon fill="none" stroke="black" points="263.3,-537.3 263.3,-559.3 347.3,-559.3 347.3,-537.3 263.3,-537.3"/>
<text text-anchor="start" x="276.05" y="-543" font-family="Times New Roman,serif" font-size="14.00" fill="blue">208,282.928</text>
<polygon fill="none" stroke="black" points="15.3,-513.3 15.3,-535.3 347.3,-535.3 347.3,-513.3 15.3,-513.3"/>
<text text-anchor="start" x="146.8" y="-519" font-family="Times New Roman,serif" font-size="14.00" fill="blue"> Growth rate</text>
<g id="a_node3_25"><a xlink:href="bogus" xlink:title="Base growth
Exogen">
<polygon fill="none" stroke="black" points="15.3,-489.3 15.3,-511.3 89.3,-511.3 89.3,-489.3 15.3,-489.3"/>
<text text-anchor="start" x="18.17" y="-495" font-family="Times New Roman,serif" font-size="14.00" fill="blue">Base growth</text>
</a>
</g>
<polygon fill="none" stroke="black" points="91.3,-489.3 91.3,-511.3 175.3,-511.3 175.3,-489.3 91.3,-489.3"/>
<text text-anchor="start" x="141.55" y="-495" font-family="Times New Roman,serif" font-size="14.00" fill="blue">3.576</text>
<polygon fill="none" stroke="black" points="177.3,-489.3 177.3,-511.3 261.3,-511.3 261.3,-489.3 177.3,-489.3"/>
<text text-anchor="start" x="227.55" y="-495" font-family="Times New Roman,serif" font-size="14.00" fill="blue">4.055</text>
<polygon fill="none" stroke="black" points="263.3,-489.3 263.3,-511.3 347.3,-511.3 347.3,-489.3 263.3,-489.3"/>
<text text-anchor="start" x="313.55" y="-495" font-family="Times New Roman,serif" font-size="14.00" fill="blue">4.195</text>
<g id="a_node3_26"><a xlink:href="bogus" xlink:title="Last growth
Exogen">
<polygon fill="none" stroke="black" points="15.3,-465.3 15.3,-487.3 89.3,-487.3 89.3,-465.3 15.3,-465.3"/>
<text text-anchor="start" x="18.3" y="-471" font-family="Times New Roman,serif" font-size="14.00" fill="blue">Last growth</text>
</a>
</g>
<polygon fill="none" stroke="black" points="91.3,-465.3 91.3,-487.3 175.3,-487.3 175.3,-465.3 91.3,-465.3"/>
<text text-anchor="start" x="141.55" y="-471" font-family="Times New Roman,serif" font-size="14.00" fill="blue">9.439</text>
<polygon fill="none" stroke="black" points="177.3,-465.3 177.3,-487.3 261.3,-487.3 261.3,-465.3 177.3,-465.3"/>
<text text-anchor="start" x="227.55" y="-471" font-family="Times New Roman,serif" font-size="14.00" fill="blue">4.753</text>
<polygon fill="none" stroke="black" points="263.3,-465.3 263.3,-487.3 347.3,-487.3 347.3,-465.3 263.3,-465.3"/>
<text text-anchor="start" x="313.55" y="-471" font-family="Times New Roman,serif" font-size="14.00" fill="blue">3.696</text>
<polygon fill="none" stroke="black" points="12.3,-462.3 12.3,-658.3 350.3,-658.3 350.3,-462.3 12.3,-462.3"/>
</g>
<!-- PAKNECONGOVTKN&#45;&gt;PAKNYGDPMKTPKN -->
<g id="edge1" class="edge">
<title>PAKNECONGOVTKN-&gt;PAKNYGDPMKTPKN</title>
<g id="a_edge1"><a xlink:href="bogus" xlink:title=" PAKNECONGOVTKN -&gt; PAKNYGDPMKTPKN Min. att. 121%  max: 186%">
<path fill="none" stroke="black" stroke-width="8" d="M352.51,-513.52C362.55,-510.76 372.7,-507.97 382.83,-505.19"/>
<polygon fill="black" stroke="black" stroke-width="8" points="384.41,-511.36 392.19,-501.96 380.7,-497.86 384.41,-511.36"/>
</a>
</g>
</g>
<!-- PAKNECONPRVTKN -->
<g id="node4" class="node">
<title>PAKNECONPRVTKN</title>
<polygon fill="none" stroke="black" points="362.6,-442.1 0,-442.1 0,-242.5 362.6,-242.5 362.6,-442.1"/>
<g id="a_node4_27"><a xlink:href="bogus" xlink:title="HH. Cons Real
FRML &lt;DAMP,STOC&gt; PAKNECONPRVTKN = (PAKNECONPRVTKN(-1)*EXP(PAKNECONPRVTKN_A+ (-0.2*(LOG(PAKNECONPRVTKN(-1))-LOG(1.21203101101442)-LOG((((PAKBXFSTREMTCD(-1)-PAKBMFSTREMTCD(-1))*PAKPANUSATLS(-1))+PAKGGEXPTRNSCN(-1)+PAKNYYWBTOTLCN(-1)*(1-PAKGGREVDRCTXN(-1)/100))/PAKNECONPRVTXN(-1)))+0.763938860758873*((LOG((((PAKBXFSTREMTCD-PAKBMFSTREMTCD)*PAKPANUSATLS)+PAKGGEXPTRNSCN+PAKNYYWBTOTLCN*(1-PAKGGREVDRCTXN/100))/PAKNECONPRVTXN))-(LOG((((PAKBXFSTREMTCD(-1)-PAKBMFSTREMTCD(-1))*PAKPANUSATLS(-1))+PAKGGEXPTRNSCN(-1)+PAKNYYWBTOTLCN(-1)*(1-PAKGGREVDRCTXN(-1)/100))/PAKNECONPRVTXN(-1))))-0.0634474791568939*DURING_2009-0.3*(PAKFMLBLPOLYXN/100-((LOG(PAKNECONPRVTXN))-(LOG(PAKNECONPRVTXN(-1)))))) )) * (1-PAKNECONPRVTKN_D)+ PAKNECONPRVTKN_X*PAKNECONPRVTKN_D  $">
<polygon fill="#ff7f24" stroke="none" points="4.8,-415.3 4.8,-437.3 357.8,-437.3 357.8,-415.3 4.8,-415.3"/>
<polygon fill="none" stroke="black" points="4.8,-415.3 4.8,-437.3 357.8,-437.3 357.8,-415.3 4.8,-415.3"/>
<text text-anchor="start" x="74.8" y="-421" font-family="Times New Roman,serif" font-size="14.00" fill="blue">PAKNECONPRVTKN:HH. Cons Real</text>
</a>
</g>
<polygon fill="none" stroke="black" points="4.8,-391.3 4.8,-413.3 78.8,-413.3 78.8,-391.3 4.8,-391.3"/>
<text text-anchor="start" x="7.8" y="-397" font-family="Times New Roman,serif" font-size="14.00" fill="blue">Per</text>
<polygon fill="none" stroke="black" points="80.8,-391.3 80.8,-413.3 171.8,-413.3 171.8,-391.3 80.8,-391.3"/>
<text text-anchor="start" x="112.8" y="-397" font-family="Times New Roman,serif" font-size="14.00" fill="blue">2025</text>
<polygon fill="none" stroke="black" points="173.8,-391.3 173.8,-413.3 264.8,-413.3 264.8,-391.3 173.8,-391.3"/>
<text text-anchor="start" x="205.8" y="-397" font-family="Times New Roman,serif" font-size="14.00" fill="blue">2026</text>
<polygon fill="none" stroke="black" points="266.8,-391.3 266.8,-413.3 357.8,-413.3 357.8,-391.3 266.8,-391.3"/>
<text text-anchor="start" x="298.8" y="-397" font-family="Times New Roman,serif" font-size="14.00" fill="blue">2027</text>
<g id="a_node4_28"><a xlink:href="bogus" xlink:title="Baseline values">
<polygon fill="none" stroke="black" points="4.8,-367.3 4.8,-389.3 78.8,-389.3 78.8,-367.3 4.8,-367.3"/>
<text text-anchor="start" x="7.8" y="-373" font-family="Times New Roman,serif" font-size="14.00" fill="blue">Base</text>
</a>
</g>
<g id="a_node4_29"><a xlink:href="bogus" xlink:title="Baseline values">
<polygon fill="none" stroke="black" points="80.8,-367.3 80.8,-389.3 171.8,-389.3 171.8,-367.3 80.8,-367.3"/>
<text text-anchor="start" x="83.55" y="-373" font-family="Times New Roman,serif" font-size="14.00" fill="blue">25,323,255.174</text>
</a>
</g>
<g id="a_node4_30"><a xlink:href="bogus" xlink:title="Baseline values">
<polygon fill="none" stroke="black" points="173.8,-367.3 173.8,-389.3 264.8,-389.3 264.8,-367.3 173.8,-367.3"/>
<text text-anchor="start" x="176.55" y="-373" font-family="Times New Roman,serif" font-size="14.00" fill="blue">25,909,810.173</text>
</a>
</g>
<g id="a_node4_31"><a xlink:href="bogus" xlink:title="Baseline values">
<polygon fill="none" stroke="black" points="266.8,-367.3 266.8,-389.3 357.8,-389.3 357.8,-367.3 266.8,-367.3"/>
<text text-anchor="start" x="269.55" y="-373" font-family="Times New Roman,serif" font-size="14.00" fill="blue">26,552,987.587</text>
</a>
</g>
<g id="a_node4_32"><a xlink:href="bogus" xlink:title="Latest run values">
<polygon fill="none" stroke="black" points="4.8,-343.3 4.8,-365.3 78.8,-365.3 78.8,-343.3 4.8,-343.3"/>
<text text-anchor="start" x="7.8" y="-349" font-family="Times New Roman,serif" font-size="14.00" fill="blue">Last</text>
</a>
</g>
<polygon fill="none" stroke="black" points="80.8,-343.3 80.8,-365.3 171.8,-365.3 171.8,-343.3 80.8,-343.3"/>
<text text-anchor="start" x="83.55" y="-349" font-family="Times New Roman,serif" font-size="14.00" fill="blue">25,109,030.996</text>
<polygon fill="none" stroke="black" points="173.8,-343.3 173.8,-365.3 264.8,-365.3 264.8,-343.3 173.8,-343.3"/>
<text text-anchor="start" x="176.55" y="-349" font-family="Times New Roman,serif" font-size="14.00" fill="blue">25,642,724.215</text>
<polygon fill="none" stroke="black" points="266.8,-343.3 266.8,-365.3 357.8,-365.3 357.8,-343.3 266.8,-343.3"/>
<text text-anchor="start" x="269.55" y="-349" font-family="Times New Roman,serif" font-size="14.00" fill="blue">26,235,783.371</text>
<g id="a_node4_33"><a xlink:href="bogus" xlink:title="Difference between baseline and latest run">
<polygon fill="none" stroke="black" points="4.8,-319.3 4.8,-341.3 78.8,-341.3 78.8,-319.3 4.8,-319.3"/>
<text text-anchor="start" x="7.8" y="-325" font-family="Times New Roman,serif" font-size="14.00" fill="blue">Diff</text>
</a>
</g>
<polygon fill="none" stroke="black" points="80.8,-319.3 80.8,-341.3 171.8,-341.3 171.8,-319.3 80.8,-319.3"/>
<text text-anchor="start" x="96.05" y="-325" font-family="Times New Roman,serif" font-size="14.00" fill="blue">-214,224.178</text>
<polygon fill="none" stroke="black" points="173.8,-319.3 173.8,-341.3 264.8,-341.3 264.8,-319.3 173.8,-319.3"/>
<text text-anchor="start" x="189.05" y="-325" font-family="Times New Roman,serif" font-size="14.00" fill="blue">-267,085.958</text>
<polygon fill="none" stroke="black" points="266.8,-319.3 266.8,-341.3 357.8,-341.3 357.8,-319.3 266.8,-319.3"/>
<text text-anchor="start" x="282.05" y="-325" font-family="Times New Roman,serif" font-size="14.00" fill="blue">-317,204.216</text>
<polygon fill="none" stroke="black" points="4.8,-295.3 4.8,-317.3 357.8,-317.3 357.8,-295.3 4.8,-295.3"/>
<text text-anchor="start" x="146.8" y="-301" font-family="Times New Roman,serif" font-size="14.00" fill="blue"> Growth rate</text>
<g id="a_node4_34"><a xlink:href="bogus" xlink:title="Base growth
Exogen">
<polygon fill="none" stroke="black" points="4.8,-271.3 4.8,-293.3 78.8,-293.3 78.8,-271.3 4.8,-271.3"/>
<text text-anchor="start" x="7.67" y="-277" font-family="Times New Roman,serif" font-size="14.00" fill="blue">Base growth</text>
</a>
</g>
<polygon fill="none" stroke="black" points="80.8,-271.3 80.8,-293.3 171.8,-293.3 171.8,-271.3 80.8,-271.3"/>
<text text-anchor="start" x="138.05" y="-277" font-family="Times New Roman,serif" font-size="14.00" fill="blue">2.034</text>
<polygon fill="none" stroke="black" points="173.8,-271.3 173.8,-293.3 264.8,-293.3 264.8,-271.3 173.8,-271.3"/>
<text text-anchor="start" x="231.05" y="-277" font-family="Times New Roman,serif" font-size="14.00" fill="blue">2.316</text>
<polygon fill="none" stroke="black" points="266.8,-271.3 266.8,-293.3 357.8,-293.3 357.8,-271.3 266.8,-271.3"/>
<text text-anchor="start" x="324.05" y="-277" font-family="Times New Roman,serif" font-size="14.00" fill="blue">2.482</text>
<g id="a_node4_35"><a xlink:href="bogus" xlink:title="Last growth
Exogen">
<polygon fill="none" stroke="black" points="4.8,-247.3 4.8,-269.3 78.8,-269.3 78.8,-247.3 4.8,-247.3"/>
<text text-anchor="start" x="7.8" y="-253" font-family="Times New Roman,serif" font-size="14.00" fill="blue">Last growth</text>
</a>
</g>
<polygon fill="none" stroke="black" points="80.8,-247.3 80.8,-269.3 171.8,-269.3 171.8,-247.3 80.8,-247.3"/>
<text text-anchor="start" x="138.05" y="-253" font-family="Times New Roman,serif" font-size="14.00" fill="blue">1.171</text>
<polygon fill="none" stroke="black" points="173.8,-247.3 173.8,-269.3 264.8,-269.3 264.8,-247.3 173.8,-247.3"/>
<text text-anchor="start" x="231.05" y="-253" font-family="Times New Roman,serif" font-size="14.00" fill="blue">2.126</text>
<polygon fill="none" stroke="black" points="266.8,-247.3 266.8,-269.3 357.8,-269.3 357.8,-247.3 266.8,-247.3"/>
<text text-anchor="start" x="324.05" y="-253" font-family="Times New Roman,serif" font-size="14.00" fill="blue">2.313</text>
<polygon fill="none" stroke="black" points="1.8,-244.3 1.8,-440.3 360.8,-440.3 360.8,-244.3 1.8,-244.3"/>
</g>
<!-- PAKNECONPRVTKN&#45;&gt;PAKNYGDPMKTPKN -->
<g id="edge3" class="edge">
<title>PAKNECONPRVTKN-&gt;PAKNYGDPMKTPKN</title>
<g id="a_edge3"><a xlink:href="bogus" xlink:title=" PAKNECONPRVTKN -&gt; PAKNYGDPMKTPKN Min. att. -214%  max: -154%">
<path fill="none" stroke="black" stroke-width="8" d="M362.9,-391.94C369.61,-393.78 376.34,-395.63 383.07,-397.48"/>
<polygon fill="black" stroke="black" stroke-width="8" points="380.76,-404.75 392.25,-400.65 384.47,-391.25 380.76,-404.75"/>
</a>
</g>
</g>
<!-- PAKNEIMPGNFSKN -->
<g id="node5" class="node">
<title>PAKNEIMPGNFSKN</title>
<polygon fill="none" stroke="black" points="352.1,-224.1 10.5,-224.1 10.5,-24.5 352.1,-24.5 352.1,-224.1"/>
<g id="a_node5_36"><a xlink:href="bogus" xlink:title="Imports real
FRML &lt;DAMP,STOC&gt; PAKNEIMPGNFSKN = (PAKNEIMPGNFSKN(-1)*EXP(PAKNEIMPGNFSKN_A+ (-0.324143718656754*(LOG(PAKNEIMPGNFSKN(-1))-LOG(PAKNEGDETTOTKN(-1))+0.8*LOG(PAKNEIMPGNFSXN(-1)/PAKNYGDPFCSTXN(-1)))-0.583459272245018+1*((LOG(PAKNEGDETTOTKN))-(LOG(PAKNEGDETTOTKN(-1))))-0.0921874580409631*((LOG(PAKNEIMPGNFSXN/PAKNYGDPFCSTXN))-(LOG(PAKNEIMPGNFSXN(-1)/PAKNYGDPFCSTXN(-1))))-0.0361746331863615*DURING_2012) )) * (1-PAKNEIMPGNFSKN_D)+ PAKNEIMPGNFSKN_X*PAKNEIMPGNFSKN_D  $">
<polygon fill="#ff7f24" stroke="none" points="15.3,-197.3 15.3,-219.3 347.3,-219.3 347.3,-197.3 15.3,-197.3"/>
<polygon fill="none" stroke="black" points="15.3,-197.3 15.3,-219.3 347.3,-219.3 347.3,-197.3 15.3,-197.3"/>
<text text-anchor="start" x="84.55" y="-203" font-family="Times New Roman,serif" font-size="14.00" fill="blue">PAKNEIMPGNFSKN:Imports real</text>
</a>
</g>
<polygon fill="none" stroke="black" points="15.3,-173.3 15.3,-195.3 89.3,-195.3 89.3,-173.3 15.3,-173.3"/>
<text text-anchor="start" x="18.3" y="-179" font-family="Times New Roman,serif" font-size="14.00" fill="blue">Per</text>
<polygon fill="none" stroke="black" points="91.3,-173.3 91.3,-195.3 175.3,-195.3 175.3,-173.3 91.3,-173.3"/>
<text text-anchor="start" x="119.8" y="-179" font-family="Times New Roman,serif" font-size="14.00" fill="blue">2025</text>
<polygon fill="none" stroke="black" points="177.3,-173.3 177.3,-195.3 261.3,-195.3 261.3,-173.3 177.3,-173.3"/>
<text text-anchor="start" x="205.8" y="-179" font-family="Times New Roman,serif" font-size="14.00" fill="blue">2026</text>
<polygon fill="none" stroke="black" points="263.3,-173.3 263.3,-195.3 347.3,-195.3 347.3,-173.3 263.3,-173.3"/>
<text text-anchor="start" x="291.8" y="-179" font-family="Times New Roman,serif" font-size="14.00" fill="blue">2027</text>
<g id="a_node5_37"><a xlink:href="bogus" xlink:title="Baseline values">
<polygon fill="none" stroke="black" points="15.3,-149.3 15.3,-171.3 89.3,-171.3 89.3,-149.3 15.3,-149.3"/>
<text text-anchor="start" x="18.3" y="-155" font-family="Times New Roman,serif" font-size="14.00" fill="blue">Base</text>
</a>
</g>
<g id="a_node5_38"><a xlink:href="bogus" xlink:title="Baseline values">
<polygon fill="none" stroke="black" points="91.3,-149.3 91.3,-171.3 175.3,-171.3 175.3,-149.3 91.3,-149.3"/>
<text text-anchor="start" x="93.92" y="-155" font-family="Times New Roman,serif" font-size="14.00" fill="blue">7,341,614.133</text>
</a>
</g>
<g id="a_node5_39"><a xlink:href="bogus" xlink:title="Baseline values">
<polygon fill="none" stroke="black" points="177.3,-149.3 177.3,-171.3 261.3,-171.3 261.3,-149.3 177.3,-149.3"/>
<text text-anchor="start" x="179.92" y="-155" font-family="Times New Roman,serif" font-size="14.00" fill="blue">7,569,481.265</text>
</a>
</g>
<g id="a_node5_40"><a xlink:href="bogus" xlink:title="Baseline values">
<polygon fill="none" stroke="black" points="263.3,-149.3 263.3,-171.3 347.3,-171.3 347.3,-149.3 263.3,-149.3"/>
<text text-anchor="start" x="265.92" y="-155" font-family="Times New Roman,serif" font-size="14.00" fill="blue">7,797,820.681</text>
</a>
</g>
<g id="a_node5_41"><a xlink:href="bogus" xlink:title="Latest run values">
<polygon fill="none" stroke="black" points="15.3,-125.3 15.3,-147.3 89.3,-147.3 89.3,-125.3 15.3,-125.3"/>
<text text-anchor="start" x="18.3" y="-131" font-family="Times New Roman,serif" font-size="14.00" fill="blue">Last</text>
</a>
</g>
<polygon fill="none" stroke="black" points="91.3,-125.3 91.3,-147.3 175.3,-147.3 175.3,-125.3 91.3,-125.3"/>
<text text-anchor="start" x="93.92" y="-131" font-family="Times New Roman,serif" font-size="14.00" fill="blue">7,333,341.116</text>
<polygon fill="none" stroke="black" points="177.3,-125.3 177.3,-147.3 261.3,-147.3 261.3,-125.3 177.3,-125.3"/>
<text text-anchor="start" x="179.92" y="-131" font-family="Times New Roman,serif" font-size="14.00" fill="blue">7,490,351.413</text>
<polygon fill="none" stroke="black" points="263.3,-125.3 263.3,-147.3 347.3,-147.3 347.3,-125.3 263.3,-125.3"/>
<text text-anchor="start" x="265.92" y="-131" font-family="Times New Roman,serif" font-size="14.00" fill="blue">7,664,901.096</text>
<g id="a_node5_42"><a xlink:href="bogus" xlink:title="Difference between baseline and latest run">
<polygon fill="none" stroke="black" points="15.3,-101.3 15.3,-123.3 89.3,-123.3 89.3,-101.3 15.3,-101.3"/>
<text text-anchor="start" x="18.3" y="-107" font-family="Times New Roman,serif" font-size="14.00" fill="blue">Diff</text>
</a>
</g>
<polygon fill="none" stroke="black" points="91.3,-101.3 91.3,-123.3 175.3,-123.3 175.3,-101.3 91.3,-101.3"/>
<text text-anchor="start" x="113.05" y="-107" font-family="Times New Roman,serif" font-size="14.00" fill="blue">-8,273.017</text>
<polygon fill="none" stroke="black" points="177.3,-101.3 177.3,-123.3 261.3,-123.3 261.3,-101.3 177.3,-101.3"/>
<text text-anchor="start" x="192.3" y="-107" font-family="Times New Roman,serif" font-size="14.00" fill="blue">-79,129.852</text>
<polygon fill="none" stroke="black" points="263.3,-101.3 263.3,-123.3 347.3,-123.3 347.3,-101.3 263.3,-101.3"/>
<text text-anchor="start" x="271.55" y="-107" font-family="Times New Roman,serif" font-size="14.00" fill="blue">-132,919.585</text>
<polygon fill="none" stroke="black" points="15.3,-77.3 15.3,-99.3 347.3,-99.3 347.3,-77.3 15.3,-77.3"/>
<text text-anchor="start" x="146.8" y="-83" font-family="Times New Roman,serif" font-size="14.00" fill="blue"> Growth rate</text>
<g id="a_node5_43"><a xlink:href="bogus" xlink:title="Base growth
Exogen">
<polygon fill="none" stroke="black" points="15.3,-53.3 15.3,-75.3 89.3,-75.3 89.3,-53.3 15.3,-53.3"/>
<text text-anchor="start" x="18.17" y="-59" font-family="Times New Roman,serif" font-size="14.00" fill="blue">Base growth</text>
</a>
</g>
<polygon fill="none" stroke="black" points="91.3,-53.3 91.3,-75.3 175.3,-75.3 175.3,-53.3 91.3,-53.3"/>
<text text-anchor="start" x="141.55" y="-59" font-family="Times New Roman,serif" font-size="14.00" fill="blue">3.102</text>
<polygon fill="none" stroke="black" points="177.3,-53.3 177.3,-75.3 261.3,-75.3 261.3,-53.3 177.3,-53.3"/>
<text text-anchor="start" x="227.55" y="-59" font-family="Times New Roman,serif" font-size="14.00" fill="blue">3.104</text>
<polygon fill="none" stroke="black" points="263.3,-53.3 263.3,-75.3 347.3,-75.3 347.3,-53.3 263.3,-53.3"/>
<text text-anchor="start" x="313.55" y="-59" font-family="Times New Roman,serif" font-size="14.00" fill="blue">3.017</text>
<g id="a_node5_44"><a xlink:href="bogus" xlink:title="Last growth
Exogen">
<polygon fill="none" stroke="black" points="15.3,-29.3 15.3,-51.3 89.3,-51.3 89.3,-29.3 15.3,-29.3"/>
<text text-anchor="start" x="18.3" y="-35" font-family="Times New Roman,serif" font-size="14.00" fill="blue">Last growth</text>
</a>
</g>
<polygon fill="none" stroke="black" points="91.3,-29.3 91.3,-51.3 175.3,-51.3 175.3,-29.3 91.3,-29.3"/>
<text text-anchor="start" x="141.55" y="-35" font-family="Times New Roman,serif" font-size="14.00" fill="blue">2.986</text>
<polygon fill="none" stroke="black" points="177.3,-29.3 177.3,-51.3 261.3,-51.3 261.3,-29.3 177.3,-29.3"/>
<text text-anchor="start" x="227.55" y="-35" font-family="Times New Roman,serif" font-size="14.00" fill="blue">2.141</text>
<polygon fill="none" stroke="black" points="263.3,-29.3 263.3,-51.3 347.3,-51.3 347.3,-29.3 263.3,-29.3"/>
<text text-anchor="start" x="313.55" y="-35" font-family="Times New Roman,serif" font-size="14.00" fill="blue">2.330</text>
<polygon fill="none" stroke="black" points="12.3,-26.3 12.3,-222.3 350.3,-222.3 350.3,-26.3 12.3,-26.3"/>
</g>
<!-- PAKNEIMPGNFSKN&#45;&gt;PAKNYGDPMKTPKN -->
<g id="edge4" class="edge">
<title>PAKNEIMPGNFSKN-&gt;PAKNYGDPMKTPKN</title>
<g id="a_edge4"><a xlink:href="bogus" xlink:title=" PAKNEIMPGNFSKN -&gt; PAKNYGDPMKTPKN Min. att. 8%  max: 77%">
<path fill="none" stroke="black" stroke-width="7.74" d="M351.15,-224.54C355.04,-227.44 358.86,-230.36 362.6,-233.3 403.04,-265.11 443.74,-303.93 478.74,-339.94"/>
<polygon fill="black" stroke="black" stroke-width="7.74" points="473.6,-344.51 485.42,-347.01 483.35,-335.11 473.6,-344.51"/>
</a>
</g>
</g>
</g>
</svg>