<svg xmlns="http://www.w3.org/2000/svg" xmlns:xlink="http://www.w3.org/1999/xlink" width="432pt" height="164pt" viewBox="0.00 0.00 432.00 164.17">
<g id="graph0" class="graph" transform="scale(0.148863 0.148863) rotate(0) translate(4 1098.85)">
<title>TD</title>
<polygon fill="white" stroke="none" points="-4,4 -4,-1098.85 2898,-1098.85 2898,4 -4,4"/>
<text text-anchor="middle" x="1447" y="-7.8" font-family="Times New Roman,serif" font-size="14.00">PAKNECONPRVTKN</text>
<!-- PAKNECONENGYXN -->
<g id="node1" class="node">
<title>PAKNECONENGYXN</title>
<g id="a_node1"><a xlink:title="PAKNECONENGYXN
FRML &lt;Z,EXO&gt; PAKNECONENGYXN = (PAKNECONENGYXN(-1)*EXP(PAKNECONENGYXN_A+ (((LOG(PAKNECONENGYGN))-(LOG(PAKNECONENGYGN(-1))))+0.0550557534575806*DUMH) )) * (1-PAKNECONENGYXN_D)+ PAKNECONENGYXN_X*PAKNECONENGYXN_D  $">
<polygon fill="#63b8ff" stroke="black" points="537.5,-403 391.5,-403 391.5,-367 537.5,-367 537.5,-403"/>
<text text-anchor="start" x="397.5" y="-380.8" font-family="Times New Roman,serif" font-size="14.00" fill="blue">PAKNECONENGYXN:</text>
</a>
</g>
</g>
<!-- PAKNECONPRVTXN -->
<g id="node28" class="node">
<title>PAKNECONPRVTXN</title>
<g id="a_node28"><a xlink:title="PAKNECONPRVTXN
FRML  &lt;&gt; PAKNECONPRVTXN = ((PAKNECONENGYSH**PAKCESENGYCON)*PAKNECONENGYXN**(1-PAKCESENGYCON)+(PAKNECONOTHRSH**PAKCESENGYCON)*PAKNECONOTHRXN**(1-PAKCESENGYCON))**(1/(1-PAKCESENGYCON)) $">
<polygon fill="#63b8ff" stroke="black" points="1061.5,-384 919.5,-384 919.5,-348 1061.5,-348 1061.5,-384"/>
<text text-anchor="start" x="925.5" y="-361.8" font-family="Times New Roman,serif" font-size="14.00" fill="blue">PAKNECONPRVTXN:</text>
</a>
</g>
</g>
<!-- PAKNECONENGYXN&#45;&gt;PAKNECONPRVTXN -->
<g id="edge21" class="edge">
<title>PAKNECONENGYXN-&gt;PAKNECONPRVTXN</title>
<g id="a_edge21"><a xlink:href="bogus" xlink:title=" PAKNECONENGYXN -&gt; PAKNECONPRVTXN Min. att. 1%  max: 24%">
<path fill="none" stroke="black" stroke-width="2.35" d="M537.81,-382.38C634.14,-378.89 804.19,-372.72 905.91,-369.03"/>
<polygon fill="black" stroke="black" stroke-width="2.35" points="905.76,-372.54 915.63,-368.68 905.51,-365.54 905.76,-372.54"/>
</a>
</g>
</g>
<!-- PAKNYGDPGAP_ -->
<g id="node2" class="node">
<title>PAKNYGDPGAP_</title>
<g id="a_node2"><a xlink:title="PAKNYGDPGAP_
FRML  &lt;&gt; PAKNYGDPGAP_ = ((PAKNYGDPMKTPKN/PAKNYGDPPOTLKN-1)*100) $">
<polygon fill="#63b8ff" stroke="black" points="2387,-800 2264,-800 2264,-764 2387,-764 2387,-800"/>
<text text-anchor="start" x="2270.5" y="-777.8" font-family="Times New Roman,serif" font-size="14.00" fill="blue">PAKNYGDPGAP_:</text>
</a>
</g>
</g>
<!-- PAKFMLBLPOLYXN -->
<g id="node10" class="node">
<title>PAKFMLBLPOLYXN</title>
<g id="a_node10"><a xlink:title="Key Policy Interest Rate
FRML &lt;Z,EXO&gt; PAKFMLBLPOLYXN = (100*PAKFMLBLPOLYXN_A+100* (0.900155952396245*PAKFMLBLPOLYXN(-1)/100+(1-0.900155952396245)*(PAKMPPOLNATRXN/100+1.2*(((LOG(PAKNECONPRVTXN))-(LOG(PAKNECONPRVTXN(-1))))-PAKINFLEXPT/100)+0.5*PAKNYGDPGAP_/100)) ) * (1-PAKFMLBLPOLYXN_D)+ PAKFMLBLPOLYXN_X*PAKFMLBLPOLYXN_D  $">
<polygon fill="#63b8ff" stroke="black" points="2710,-79 2434,-79 2434,-43 2710,-43 2710,-79"/>
<text text-anchor="start" x="2440" y="-56.8" font-family="Times New Roman,serif" font-size="14.00" fill="blue">PAKFMLBLPOLYXN:Key Policy Interest Rate</text>
</a>
</g>
</g>
<!-- PAKNYGDPGAP_&#45;&gt;PAKFMLBLPOLYXN -->
<g id="edge13" class="edge">
<title>PAKNYGDPGAP_-&gt;PAKFMLBLPOLYXN</title>
<g id="a_edge13"><a xlink:href="bogus" xlink:title=" PAKNYGDPGAP_ -&gt; PAKFMLBLPOLYXN Min. att. -27%  max: 17%">
<path fill="none" stroke="black" stroke-width="2.66" d="M2332.67,-763.82C2365.33,-667.49 2518.24,-216.57 2560.28,-92.61"/>
<polygon fill="black" stroke="black" stroke-width="2.66" points="2563.55,-93.87 2563.45,-83.28 2556.92,-91.62 2563.55,-93.87"/>
</a>
</g>
</g>
<!-- PAKLMEMPTOTLCN -->
<g id="node19" class="node">
<title>PAKLMEMPTOTLCN</title>
<g id="a_node19"><a xlink:title="Employment
FRML &lt;Z,EXO&gt; PAKLMEMPTOTLCN = (PAKLMEMPTOTLCN(-1)*EXP(PAKLMEMPTOTLCN_A+ (-0.296841405458903*(LOG(PAKLMEMPTOTLCN(-1))-LOG(PAKLMEMPSTRLCN(-1)))-0.1*(((LOG(PAKNYWRTTOTLCN/PAKNYGDPFCSTXN))-(LOG(PAKNYWRTTOTLCN(-1)/PAKNYGDPFCSTXN(-1))))-((LOG(PAKNYGDPPOTLKN/PAKLMEMPSTRLCN))-(LOG(PAKNYGDPPOTLKN(-1)/PAKLMEMPSTRLCN(-1)))))-0.0020242483763438+((LOG(PAKLMEMPSTRLCN))-(LOG(PAKLMEMPSTRLCN(-1))))+0.1312391923391*PAKNYGDPGAP_/100+0.0362130876248861*DURING_2010) )) * (1-PAKLMEMPTOTLCN_D)+ PAKLMEMPTOTLCN_X*PAKLMEMPTOTLCN_D  $">
<polygon fill="#63b8ff" stroke="black" points="2680.5,-935 2463.5,-935 2463.5,-899 2680.5,-899 2680.5,-935"/>
<text text-anchor="start" x="2470" y="-912.8" font-family="Times New Roman,serif" font-size="14.00" fill="blue">PAKLMEMPTOTLCN:Employment</text>
</a>
</g>
</g>
<!-- PAKNYGDPGAP_&#45;&gt;PAKLMEMPTOTLCN -->
<g id="edge29" class="edge">
<title>PAKNYGDPGAP_-&gt;PAKLMEMPTOTLCN</title>
<g id="a_edge29"><a xlink:href="bogus" xlink:title=" PAKNYGDPGAP_ -&gt; PAKLMEMPTOTLCN Min. att. -319%  max: 562%">
<path fill="none" stroke="black" stroke-width="8" d="M2359.98,-800.49C2402.11,-823.75 2474.76,-863.86 2522.85,-890.41"/>
<polygon fill="black" stroke="black" stroke-width="8" points="2519.28,-896.44 2531.42,-895.15 2526.05,-884.19 2519.28,-896.44"/>
</a>
</g>
</g>
<!-- PAKNEGDETTOTKN -->
<g id="node3" class="node">
<title>PAKNEGDETTOTKN</title>
<g id="a_node3"><a xlink:title="PAKNEGDETTOTKN
FRML  &lt;&gt; PAKNEGDETTOTKN = (PAKNECONPRVTKN+PAKNECONGOVTKN+PAKNEGDIFTOTKN+PAKNEGDISTKBKN+PAKNYGDPDISCKN) $">
<polygon fill="#63b8ff" stroke="black" points="2112.5,-719 1970.5,-719 1970.5,-683 2112.5,-683 2112.5,-719"/>
<text text-anchor="start" x="1976.5" y="-696.8" font-family="Times New Roman,serif" font-size="14.00" fill="blue">PAKNEGDETTOTKN:</text>
</a>
</g>
</g>
<!-- PAKNEIMPGNFSXN -->
<g id="node4" class="node">
<title>PAKNEIMPGNFSXN</title>
<g id="a_node4"><a xlink:title="PAKNEIMPGNFSXN
FRML  &lt;&gt; PAKNEIMPGNFSXN = ((PAKNEIMPENGYSH**PAKCESENGYIMPT)*PAKNVENGNIMPXN**(1-PAKCESENGYIMPT)+(PAKNEIMPOTHRSH**PAKCESENGYIMPT)*PAKNEIMPGSNEXN**(1-PAKCESENGYIMPT))**(1/(1-PAKCESENGYIMPT)) $">
<polygon fill="#63b8ff" stroke="black" points="142.5,-349 3.5,-349 3.5,-313 142.5,-313 142.5,-349"/>
<text text-anchor="start" x="10" y="-326.8" font-family="Times New Roman,serif" font-size="14.00" fill="blue">PAKNEIMPGNFSXN:</text>
</a>
</g>
</g>
<!-- PAKNECONOTHRXN -->
<g id="node7" class="node">
<title>PAKNECONOTHRXN</title>
<g id="a_node7"><a xlink:title="PAKNECONOTHRXN
FRML &lt;Z,EXO&gt; PAKNECONOTHRXN = (PAKNECONOTHRXN(-1)*EXP(PAKNECONOTHRXN_A+ (0.590372627657176*((LOG(PAKNYGDPFCSTXN))-(LOG(PAKNYGDPFCSTXN(-1))))+((PAKGGREVGNFSXN/100)-(PAKGGREVGNFSXN(-1)/100))+(1-0.590372627657176)*((LOG(PAKNEIMPGNFSXN))-(LOG(PAKNEIMPGNFSXN(-1))))+0.2*PAKNYGDPGAP_/100) )) * (1-PAKNECONOTHRXN_D)+ PAKNECONOTHRXN_X*PAKNECONOTHRXN_D  $">
<polygon fill="#63b8ff" stroke="black" points="537,-349 392,-349 392,-313 537,-313 537,-349"/>
<text text-anchor="start" x="398.5" y="-326.8" font-family="Times New Roman,serif" font-size="14.00" fill="blue">PAKNECONOTHRXN:</text>
</a>
</g>
</g>
<!-- PAKNEIMPGNFSXN&#45;&gt;PAKNECONOTHRXN -->
<g id="edge38" class="edge">
<title>PAKNEIMPGNFSXN-&gt;PAKNECONOTHRXN</title>
<g id="a_edge38"><a xlink:href="bogus" xlink:title=" PAKNEIMPGNFSXN -&gt; PAKNECONOTHRXN Min. att. -4%  max: 92%">
<path fill="none" stroke="black" stroke-width="8" d="M142.74,-331C207.4,-331 304.55,-331 374.98,-331"/>
<polygon fill="black" stroke="black" stroke-width="8" points="374.85,-338 384.85,-331 374.85,-324 374.85,-338"/>
</a>
</g>
</g>
<!-- PAKGGREVEMISCN -->
<g id="node5" class="node">
<title>PAKGGREVEMISCN</title>
<g id="a_node5"><a xlink:title="PAKGGREVEMISCN
FRML  &lt;&gt; PAKGGREVEMISCN = PAKPANUSATLS/1000000*((PAKGGREVCO2CER*(EMISCOAL*1000)*(PAKNVCOLPRODQN+PAKNVCOLNIMPQN))+(PAKGGREVCO2OER*(EMISOIL*1000)*(PAKNVOILPRODQN+PAKNVOILNIMPQN))+(PAKGGREVCO2GER*(EMISGAS*1000)*(PAKNVGASPRODQN+PAKNVGASNIMPQN))) $">
<polygon fill="#63b8ff" stroke="black" points="535,-530 394,-530 394,-494 535,-494 535,-530"/>
<text text-anchor="start" x="400.5" y="-507.8" font-family="Times New Roman,serif" font-size="14.00" fill="blue">PAKGGREVEMISCN:</text>
</a>
</g>
</g>
<!-- PAKGGREVTOTLCN -->
<g id="node12" class="node">
<title>PAKGGREVTOTLCN</title>
<g id="a_node12"><a xlink:title="General government revenues, total (millions lcu)
FRML  &lt;&gt; PAKGGREVTOTLCN = (PAKGGREVOTHRCN+PAKGGREVDRCTCN+PAKGGREVGRNTCN+PAKGGREVGNFSCN+PAKGGREVTRDECN+PAKGGREVEMISCN)+(PAKINSU+PAKCOFU)*PAKPAYOUTCN $">
<polygon fill="#63b8ff" stroke="black" points="1198,-530 783,-530 783,-494 1198,-494 1198,-530"/>
<text text-anchor="start" x="789.5" y="-507.8" font-family="Times New Roman,serif" font-size="14.00" fill="blue">PAKGGREVTOTLCN:General government revenues, total (millions lcu)</text>
</a>
</g>
</g>
<!-- PAKGGREVEMISCN&#45;&gt;PAKGGREVTOTLCN -->
<g id="edge34" class="edge">
<title>PAKGGREVEMISCN-&gt;PAKGGREVTOTLCN</title>
<g id="a_edge34"><a xlink:href="bogus" xlink:title=" PAKGGREVEMISCN -&gt; PAKGGREVTOTLCN Min. att. 14%  max: 75%">
<path fill="none" stroke="black" stroke-width="7.48" d="M535.35,-512C594.52,-512 682.74,-512 765.72,-512"/>
<polygon fill="black" stroke="black" stroke-width="7.48" points="765.68,-518.54 775.68,-512 765.68,-505.46 765.68,-518.54"/>
</a>
</g>
</g>
<!-- PAKSMENGTOTLKN -->
<g id="node6" class="node">
<title>PAKSMENGTOTLKN</title>
<g id="a_node6"><a xlink:title="PAKSMENGTOTLKN
FRML  &lt;&gt; PAKSMENGTOTLKN = ((1+1.65868473220397)*(0.0775261497897936*PAKNECONPRVTKN+0*PAKNECONGOVTKN+0*PAKNEGDIFTOTKN+0.0217448978257548*PAKNEEXPGNFSKN+0.0458991644104248*PAKNEGDISTKBKN)-0.11894699850705*PAKNEIMPGNFSKN--0.50579180838529*PAKNYTAXNINDKN-0)/(1+5.65663938581514) $">
<polygon fill="#63b8ff" stroke="black" points="2114,-665 1969,-665 1969,-629 2114,-629 2114,-665"/>
<text text-anchor="start" x="1975.5" y="-642.8" font-family="Times New Roman,serif" font-size="14.00" fill="blue">PAKSMENGTOTLKN:</text>
</a>
</g>
</g>
<!-- PAKNECONOTHRXN&#45;&gt;PAKNECONPRVTXN -->
<g id="edge3" class="edge">
<title>PAKNECONOTHRXN-&gt;PAKNECONPRVTXN</title>
<g id="a_edge3"><a xlink:href="bogus" xlink:title=" PAKNECONOTHRXN -&gt; PAKNECONPRVTXN Min. att. 77%  max: 99%">
<path fill="none" stroke="black" stroke-width="8" d="M537.26,-335.79C632.35,-342.14 799.97,-353.34 902.26,-360.17"/>
<polygon fill="black" stroke="black" stroke-width="8" points="901.62,-367.15 912.06,-360.83 902.55,-353.18 901.62,-367.15"/>
</a>
</g>
</g>
<!-- PAKNECONPRVTKN -->
<g id="node8" class="node">
<title>PAKNECONPRVTKN</title>
<g id="a_node8"><a xlink:title="HH. Cons Real
FRML &lt;Z,EXO&gt; PAKNECONPRVTKN = (PAKNECONPRVTKN(-1)*EXP(PAKNECONPRVTKN_A+ (-0.2*(LOG(PAKNECONPRVTKN(-1))-LOG(1.21203101101442)-LOG((((PAKBXFSTREMTCD(-1)-PAKBMFSTREMTCD(-1))*PAKPANUSATLS(-1))+PAKGGEXPTRNSCN(-1)+PAKNYYWBTOTLCN(-1)*(1-PAKGGREVDRCTXN(-1)/100))/PAKNECONPRVTXN(-1)))+0.763938860758873*((LOG((((PAKBXFSTREMTCD-PAKBMFSTREMTCD)*PAKPANUSATLS)+PAKGGEXPTRNSCN+PAKNYYWBTOTLCN*(1-PAKGGREVDRCTXN/100))/PAKNECONPRVTXN))-(LOG((((PAKBXFSTREMTCD(-1)-PAKBMFSTREMTCD(-1))*PAKPANUSATLS(-1))+PAKGGEXPTRNSCN(-1)+PAKNYYWBTOTLCN(-1)*(1-PAKGGREVDRCTXN(-1)/100))/PAKNECONPRVTXN(-1))))-0.0634474791568939*DURING_2009-0.3*(PAKFMLBLPOLYXN/100-((LOG(PAKNECONPRVTXN))-(LOG(PAKNECONPRVTXN(-1)))))) )) * (1-PAKNECONPRVTKN_D)+ PAKNECONPRVTKN_X*PAKNECONPRVTKN_D  $">
<polygon fill="red" stroke="black" points="1830,-476 1604,-476 1604,-440 1830,-440 1830,-476"/>
<text text-anchor="start" x="1610" y="-453.8" font-family="Times New Roman,serif" font-size="14.00" fill="blue">PAKNECONPRVTKN:HH. Cons Real</text>
</a>
</g>
</g>
<!-- PAKNECONPRVTKN&#45;&gt;PAKNEGDETTOTKN -->
<g id="edge37" class="edge">
<title>PAKNECONPRVTKN-&gt;PAKNEGDETTOTKN</title>
<g id="a_edge37"><a xlink:href="bogus" xlink:title=" PAKNECONPRVTKN -&gt; PAKNEGDETTOTKN Min. att. -742%  max: 2758%">
<path fill="none" stroke="black" stroke-width="8" d="M1724.6,-476.25C1741.07,-518.88 1788.29,-625.08 1866,-674 1891.82,-690.25 1923.94,-697.95 1953.55,-701.29"/>
<polygon fill="black" stroke="black" stroke-width="8" points="1952.64,-708.23 1963.21,-702.14 1953.87,-694.29 1952.64,-708.23"/>
</a>
</g>
</g>
<!-- PAKNECONPRVTKN&#45;&gt;PAKSMENGTOTLKN -->
<g id="edge4" class="edge">
<title>PAKNECONPRVTKN-&gt;PAKSMENGTOTLKN</title>
<g id="a_edge4"><a xlink:href="bogus" xlink:title=" PAKNECONPRVTKN -&gt; PAKSMENGTOTLKN Min. att. -4861%  max: 301%">
<path fill="none" stroke="black" stroke-width="8" d="M1728.7,-476.29C1749.99,-510.83 1801.2,-585.27 1866,-620 1892.09,-633.98 1923.32,-641.26 1952.1,-644.9"/>
<polygon fill="black" stroke="black" stroke-width="8" points="1951.1,-651.83 1961.77,-645.91 1952.56,-637.91 1951.1,-651.83"/>
</a>
</g>
</g>
<!-- PAKSMAGRCRPSKN -->
<g id="node13" class="node">
<title>PAKSMAGRCRPSKN</title>
<g id="a_node13"><a xlink:title="PAKSMAGRCRPSKN
FRML  &lt;&gt; PAKSMAGRCRPSKN = ((1+2.09928590574241)*(0.144287620838506*PAKNECONPRVTKN+0*PAKNECONGOVTKN+0*PAKNEGDIFTOTKN+0.0572678299039023*PAKNEEXPGNFSKN+0.267381669083985*PAKNEGDISTKBKN)-0.0736247088197363*PAKNEIMPGNFSKN-0.0407034395686347*PAKNYTAXNINDKN-906311)/(1+0.396041694659877) $">
<polygon fill="#63b8ff" stroke="black" points="2113.5,-611 1969.5,-611 1969.5,-575 2113.5,-575 2113.5,-611"/>
<text text-anchor="start" x="1975.5" y="-588.8" font-family="Times New Roman,serif" font-size="14.00" fill="blue">PAKSMAGRCRPSKN:</text>
</a>
</g>
</g>
<!-- PAKNECONPRVTKN&#45;&gt;PAKSMAGRCRPSKN -->
<g id="edge16" class="edge">
<title>PAKNECONPRVTKN-&gt;PAKSMAGRCRPSKN</title>
<g id="a_edge16"><a xlink:href="bogus" xlink:title=" PAKNECONPRVTKN -&gt; PAKSMAGRCRPSKN Min. att. 21%  max: 606%">
<path fill="none" stroke="black" stroke-width="8" d="M1736.72,-476.36C1763.14,-501.1 1813.97,-544.49 1866,-566 1892.99,-577.16 1924.06,-583.75 1952.43,-587.63"/>
<polygon fill="black" stroke="black" stroke-width="8" points="1951.54,-594.57 1962.3,-588.82 1953.22,-580.67 1951.54,-594.57"/>
</a>
</g>
</g>
<!-- PAKSMINDOTHRTKN -->
<g id="node15" class="node">
<title>PAKSMINDOTHRTKN</title>
<g id="a_node15"><a xlink:title="PAKSMINDOTHRTKN
FRML  &lt;&gt; PAKSMINDOTHRTKN = ((1+0.483473985412524)*(0.40172973397176*PAKNECONPRVTKN+0*PAKNECONGOVTKN+0.560459287907094*PAKNEGDIFTOTKN+0.719299486591763*PAKNEEXPGNFSKN+0.620970563578771*PAKNEGDISTKBKN)-0.606734386430279*PAKNEIMPGNFSKN-0.866045585295928*PAKNYTAXNINDKN-2983275.63714814)/(1+2.46379868577176) $">
<polygon fill="#63b8ff" stroke="black" points="2117,-557 1966,-557 1966,-521 2117,-521 2117,-557"/>
<text text-anchor="start" x="1972.5" y="-534.8" font-family="Times New Roman,serif" font-size="14.00" fill="blue">PAKSMINDOTHRTKN:</text>
</a>
</g>
</g>
<!-- PAKNECONPRVTKN&#45;&gt;PAKSMINDOTHRTKN -->
<g id="edge25" class="edge">
<title>PAKNECONPRVTKN-&gt;PAKSMINDOTHRTKN</title>
<g id="a_edge25"><a xlink:href="bogus" xlink:title=" PAKNECONPRVTKN -&gt; PAKSMINDOTHRTKN Min. att. -6352%  max: 1305%">
<path fill="none" stroke="black" stroke-width="8" d="M1761.65,-476.49C1790.75,-488.18 1830.11,-502.77 1866,-512 1892.68,-518.86 1922.12,-524.23 1949.11,-528.31"/>
<polygon fill="black" stroke="black" stroke-width="8" points="1947.75,-535.19 1958.64,-529.69 1949.75,-521.33 1947.75,-535.19"/>
</a>
</g>
</g>
<!-- PAKSMINDMNGSKN -->
<g id="node16" class="node">
<title>PAKSMINDMNGSKN</title>
<g id="a_node16"><a xlink:title="PAKSMINDMNGSKN
FRML  &lt;&gt; PAKSMINDMNGSKN = ((1+6.96158341862144)*(0.0132800565666619*PAKNECONPRVTKN+0*PAKNECONGOVTKN+0*PAKNEGDIFTOTKN+0.00704674623894759*PAKNEEXPGNFSKN+0.024122890632682*PAKNEGDISTKBKN)-0.134221966110302*PAKNEIMPGNFSKN-0.500981557895139*PAKNYTAXNINDKN-123652.869264758)/(1+0.200800622280983) $">
<polygon fill="#63b8ff" stroke="black" points="2114.5,-503 1968.5,-503 1968.5,-467 2114.5,-467 2114.5,-503"/>
<text text-anchor="start" x="1974.5" y="-480.8" font-family="Times New Roman,serif" font-size="14.00" fill="blue">PAKSMINDMNGSKN:</text>
</a>
</g>
</g>
<!-- PAKNECONPRVTKN&#45;&gt;PAKSMINDMNGSKN -->
<g id="edge26" class="edge">
<title>PAKNECONPRVTKN-&gt;PAKSMINDMNGSKN</title>
<g id="a_edge26"><a xlink:href="bogus" xlink:title=" PAKNECONPRVTKN -&gt; PAKSMINDMNGSKN Min. att. -12000%  max: 590%">
<path fill="none" stroke="black" stroke-width="8" d="M1830.34,-467.41C1870.07,-470.73 1914.17,-474.42 1951.67,-477.56"/>
<polygon fill="black" stroke="black" stroke-width="8" points="1950.9,-484.52 1961.45,-478.38 1952.07,-470.57 1950.9,-484.52"/>
</a>
</g>
</g>
<!-- PAKNYGDPMKTPKN -->
<g id="node18" class="node">
<title>PAKNYGDPMKTPKN</title>
<g id="a_node18"><a xlink:title="Real GDP
FRML  &lt;&gt; PAKNYGDPMKTPKN = PAKNECONPRVTKN+PAKNECONGOVTKN+PAKNEGDIFTOTKN+PAKNEGDISTKBKN+PAKNEEXPGNFSKN-PAKNEIMPGNFSKN+PAKNYGDPDISCKN+PAKADAP*PAKDISPREPKN $">
<polygon fill="#63b8ff" stroke="black" points="2142.5,-773 1940.5,-773 1940.5,-737 2142.5,-737 2142.5,-773"/>
<text text-anchor="start" x="1946.5" y="-750.8" font-family="Times New Roman,serif" font-size="14.00" fill="blue">PAKNYGDPMKTPKN:Real GDP</text>
</a>
</g>
</g>
<!-- PAKNECONPRVTKN&#45;&gt;PAKNYGDPMKTPKN -->
<g id="edge40" class="edge">
<title>PAKNECONPRVTKN-&gt;PAKNYGDPMKTPKN</title>
<g id="a_edge40"><a xlink:href="bogus" xlink:title=" PAKNECONPRVTKN -&gt; PAKNYGDPMKTPKN Min. att. -7274%  max: 6173%">
<path fill="none" stroke="black" stroke-width="8" d="M1722.06,-476.19C1734.16,-525.82 1774.96,-664.17 1866,-728 1883.03,-739.94 1903.3,-747.45 1923.88,-752.04"/>
<polygon fill="black" stroke="black" stroke-width="8" points="1922.44,-758.89 1933.55,-753.84 1925,-745.12 1922.44,-758.89"/>
</a>
</g>
</g>
<!-- PAKNECONENGYKN -->
<g id="node24" class="node">
<title>PAKNECONENGYKN</title>
<g id="a_node24"><a xlink:title="PAKNECONENGYKN
FRML  &lt;&gt; PAKNECONENGYKN = PAKNECONENGYSH**(PAKCESENGYCON)*(PAKNECONPRVTKN*(PAKNECONPRVTXN/PAKNECONENGYXN)**(PAKCESENGYCON)) $">
<polygon fill="#63b8ff" stroke="black" points="2114.5,-449 1968.5,-449 1968.5,-413 2114.5,-413 2114.5,-449"/>
<text text-anchor="start" x="1974.5" y="-426.8" font-family="Times New Roman,serif" font-size="14.00" fill="blue">PAKNECONENGYKN:</text>
</a>
</g>
</g>
<!-- PAKNECONPRVTKN&#45;&gt;PAKNECONENGYKN -->
<g id="edge20" class="edge">
<title>PAKNECONPRVTKN-&gt;PAKNECONENGYKN</title>
<g id="a_edge20"><a xlink:href="bogus" xlink:title=" PAKNECONPRVTKN -&gt; PAKNECONENGYKN Min. att. -739%  max: 701%">
<path fill="none" stroke="black" stroke-width="8" d="M1830.34,-448.59C1870.07,-445.27 1914.17,-441.58 1951.67,-438.44"/>
<polygon fill="black" stroke="black" stroke-width="8" points="1952.07,-445.43 1961.45,-437.62 1950.9,-431.48 1952.07,-445.43"/>
</a>
</g>
</g>
<!-- PAKNECONPRVTKN_FITTED -->
<g id="node25" class="node">
<title>PAKNECONPRVTKN_FITTED</title>
<g id="a_node25"><a xlink:title="Fitted  value:HH. Cons Real
FRML &lt;FIT&gt; PAKNECONPRVTKN_FITTED = PAKNECONPRVTKN(-1)*EXP( (-0.2*(LOG(PAKNECONPRVTKN(-1))-LOG(1.21203101101442)-LOG((((PAKBXFSTREMTCD(-1)-PAKBMFSTREMTCD(-1))*PAKPANUSATLS(-1))+PAKGGEXPTRNSCN(-1)+PAKNYYWBTOTLCN(-1)*(1-PAKGGREVDRCTXN(-1)/100))/PAKNECONPRVTXN(-1)))+0.763938860758873*((LOG((((PAKBXFSTREMTCD-PAKBMFSTREMTCD)*PAKPANUSATLS)+PAKGGEXPTRNSCN+PAKNYYWBTOTLCN*(1-PAKGGREVDRCTXN/100))/PAKNECONPRVTXN))-(LOG((((PAKBXFSTREMTCD(-1)-PAKBMFSTREMTCD(-1))*PAKPANUSATLS(-1))+PAKGGEXPTRNSCN(-1)+PAKNYYWBTOTLCN(-1)*(1-PAKGGREVDRCTXN(-1)/100))/PAKNECONPRVTXN(-1))))-0.0634474791568939*DURING_2009-0.3*(PAKFMLBLPOLYXN/100-((LOG(PAKNECONPRVTXN))-(LOG(PAKNECONPRVTXN(-1)))))) ) $">
<polygon fill="#63b8ff" stroke="black" points="2217,-395 1866,-395 1866,-359 2217,-359 2217,-395"/>
<text text-anchor="start" x="1872.5" y="-372.8" font-family="Times New Roman,serif" font-size="14.00" fill="blue">PAKNECONPRVTKN_FITTED:Fitted  value:HH. Cons Real</text>
</a>
</g>
</g>
<!-- PAKNECONPRVTKN&#45;&gt;PAKNECONPRVTKN_FITTED -->
<g id="edge1" class="edge">
<title>PAKNECONPRVTKN-&gt;PAKNECONPRVTKN_FITTED</title>
<g id="a_edge1"><a xlink:href="bogus" xlink:title=" PAKNECONPRVTKN -&gt; PAKNECONPRVTKN_FITTED Min. att. -16%  max: 607%">
<path fill="none" stroke="black" stroke-width="8" d="M1761.65,-439.51C1790.75,-427.82 1830.11,-413.23 1866,-404 1873.12,-402.17 1880.44,-400.44 1887.86,-398.82"/>
<polygon fill="black" stroke="black" stroke-width="8" points="1889.02,-405.73 1897.39,-396.84 1886.18,-392.02 1889.02,-405.73"/>
</a>
</g>
</g>
<!-- PAKSMAGRFSNGKN -->
<g id="node26" class="node">
<title>PAKSMAGRFSNGKN</title>
<g id="a_node26"><a xlink:title="PAKSMAGRFSNGKN
FRML  &lt;&gt; PAKSMAGRFSNGKN = ((1+1.92407325889309)*(0.00246195499563977*PAKNECONPRVTKN+0*PAKNECONGOVTKN+0*PAKNEGDIFTOTKN+0.00130433854799597*PAKNEEXPGNFSKN+0.00497657560072267*PAKNEGDISTKBKN)-1.14989260682794E-05*PAKNEIMPGNFSKN-2.46467171367829E-07*PAKNYTAXNINDKN-26993)/(1+0.506095544048804) $">
<polygon fill="#63b8ff" stroke="black" points="2114,-341 1969,-341 1969,-305 2114,-305 2114,-341"/>
<text text-anchor="start" x="1975.5" y="-318.8" font-family="Times New Roman,serif" font-size="14.00" fill="blue">PAKSMAGRFSNGKN:</text>
</a>
</g>
</g>
<!-- PAKNECONPRVTKN&#45;&gt;PAKSMAGRFSNGKN -->
<g id="edge31" class="edge">
<title>PAKNECONPRVTKN-&gt;PAKSMAGRFSNGKN</title>
<g id="a_edge31"><a xlink:href="bogus" xlink:title=" PAKNECONPRVTKN -&gt; PAKSMAGRFSNGKN Min. att. 17%  max: 1118%">
<path fill="none" stroke="black" stroke-width="8" d="M1736.72,-439.64C1763.14,-414.9 1813.97,-371.51 1866,-350 1892.87,-338.89 1923.79,-332.31 1952.06,-328.42"/>
<polygon fill="black" stroke="black" stroke-width="8" points="1952.8,-335.38 1961.88,-327.23 1951.11,-321.49 1952.8,-335.38"/>
</a>
</g>
</g>
<!-- PAKSMSRVHSNGKN -->
<g id="node27" class="node">
<title>PAKSMSRVHSNGKN</title>
<g id="a_node27"><a xlink:title="PAKSMSRVHSNGKN
FRML  &lt;&gt; PAKSMSRVHSNGKN = ((1+0.782809577554843)*(0.0647364660896117*PAKNECONPRVTKN+0*PAKNECONGOVTKN+0.00605333595533851*PAKNEGDIFTOTKN+0.03048358523237*PAKNEEXPGNFSKN+0*PAKNEGDISTKBKN)-0.0244768173208691*PAKNEIMPGNFSKN-0.0684093628903126*PAKNYTAXNINDKN-0)/(1+0.150771193398883) $">
<polygon fill="#63b8ff" stroke="black" points="2114,-287 1969,-287 1969,-251 2114,-251 2114,-287"/>
<text text-anchor="start" x="1975.5" y="-264.8" font-family="Times New Roman,serif" font-size="14.00" fill="blue">PAKSMSRVHSNGKN:</text>
</a>
</g>
</g>
<!-- PAKNECONPRVTKN&#45;&gt;PAKSMSRVHSNGKN -->
<g id="edge33" class="edge">
<title>PAKNECONPRVTKN-&gt;PAKSMSRVHSNGKN</title>
<g id="a_edge33"><a xlink:href="bogus" xlink:title=" PAKNECONPRVTKN -&gt; PAKSMSRVHSNGKN Min. att. -43%  max: 211%">
<path fill="none" stroke="black" stroke-width="8" d="M1728.7,-439.71C1749.99,-405.17 1801.2,-330.73 1866,-296 1892.09,-282.02 1923.32,-274.74 1952.1,-271.1"/>
<polygon fill="black" stroke="black" stroke-width="8" points="1952.56,-278.09 1961.77,-270.09 1951.1,-264.17 1952.56,-278.09"/>
</a>
</g>
</g>
<!-- PAKSMSRVFINSKN -->
<g id="node31" class="node">
<title>PAKSMSRVFINSKN</title>
<g id="a_node31"><a xlink:title="PAKSMSRVFINSKN
FRML  &lt;&gt; PAKSMSRVFINSKN = ((1+1.04148314760779)*(0.0520379651885469*PAKNECONPRVTKN+0*PAKNECONGOVTKN+0*PAKNEGDIFTOTKN+0.00879145012359898*PAKNEEXPGNFSKN+0*PAKNEGDISTKBKN)-0.00594416979264236*PAKNEIMPGNFSKN-0.000103762679145856*PAKNYTAXNINDKN-0)/(1+0.24687745523084) $">
<polygon fill="#63b8ff" stroke="black" points="2110,-233 1973,-233 1973,-197 2110,-197 2110,-233"/>
<text text-anchor="start" x="1979.5" y="-210.8" font-family="Times New Roman,serif" font-size="14.00" fill="blue">PAKSMSRVFINSKN:</text>
</a>
</g>
</g>
<!-- PAKNECONPRVTKN&#45;&gt;PAKSMSRVFINSKN -->
<g id="edge2" class="edge">
<title>PAKNECONPRVTKN-&gt;PAKSMSRVFINSKN</title>
<g id="a_edge2"><a xlink:href="bogus" xlink:title=" PAKNECONPRVTKN -&gt; PAKSMSRVFINSKN Min. att. 39%  max: 152%">
<path fill="none" stroke="black" stroke-width="8" d="M1724.6,-439.75C1741.07,-397.12 1788.29,-290.92 1866,-242 1892.47,-225.34 1925.57,-217.67 1955.8,-214.47"/>
<polygon fill="black" stroke="black" stroke-width="8" points="1956.36,-221.45 1965.76,-213.66 1955.23,-207.49 1956.36,-221.45"/>
</a>
</g>
</g>
<!-- PAKSMAGRFSTYKN -->
<g id="node32" class="node">
<title>PAKSMAGRFSTYKN</title>
<g id="a_node32"><a xlink:title="PAKSMAGRFSTYKN
FRML  &lt;&gt; PAKSMAGRFSTYKN = ((1+0.195965019358753)*(0.010131919293849*PAKNECONPRVTKN+0*PAKNECONGOVTKN+0*PAKNEGDIFTOTKN+0.000136733767007103*PAKNEEXPGNFSKN+0.0199955288980741*PAKNEGDISTKBKN)-0.00076829563200478*PAKNEIMPGNFSKN-0.00172030587371022*PAKNYTAXNINDKN-65421)/(1+0.319587584852584) $">
<polygon fill="#63b8ff" stroke="black" points="2113.5,-179 1969.5,-179 1969.5,-143 2113.5,-143 2113.5,-179"/>
<text text-anchor="start" x="1975.5" y="-156.8" font-family="Times New Roman,serif" font-size="14.00" fill="blue">PAKSMAGRFSTYKN:</text>
</a>
</g>
</g>
<!-- PAKNECONPRVTKN&#45;&gt;PAKSMAGRFSTYKN -->
<g id="edge35" class="edge">
<title>PAKNECONPRVTKN-&gt;PAKSMAGRFSTYKN</title>
<g id="a_edge35"><a xlink:href="bogus" xlink:title=" PAKNECONPRVTKN -&gt; PAKSMAGRFSTYKN Min. att. 84%  max: 109%">
<path fill="none" stroke="black" stroke-width="8" d="M1722.06,-439.81C1734.16,-390.18 1774.96,-251.83 1866,-188 1890.98,-170.49 1922.91,-162.51 1952.61,-159.3"/>
<polygon fill="black" stroke="black" stroke-width="8" points="1952.94,-166.3 1962.35,-158.51 1951.81,-152.34 1952.94,-166.3"/>
</a>
</g>
</g>
<!-- PAKNECONOTHRKN -->
<g id="node35" class="node">
<title>PAKNECONOTHRKN</title>
<g id="a_node35"><a xlink:title="PAKNECONOTHRKN
FRML  &lt;&gt; PAKNECONOTHRKN = PAKNECONOTHRSH**(PAKCESENGYCON)*(PAKNECONPRVTKN*(PAKNECONPRVTXN/PAKNECONOTHRXN)**(PAKCESENGYCON)) $">
<polygon fill="#63b8ff" stroke="black" points="2114,-125 1969,-125 1969,-89 2114,-89 2114,-125"/>
<text text-anchor="start" x="1975.5" y="-102.8" font-family="Times New Roman,serif" font-size="14.00" fill="blue">PAKNECONOTHRKN:</text>
</a>
</g>
</g>
<!-- PAKNECONPRVTKN&#45;&gt;PAKNECONOTHRKN -->
<g id="edge18" class="edge">
<title>PAKNECONPRVTKN-&gt;PAKNECONOTHRKN</title>
<g id="a_edge18"><a xlink:href="bogus" xlink:title=" PAKNECONPRVTKN -&gt; PAKNECONOTHRKN Min. att. -1521%  max: 920%">
<path fill="none" stroke="black" stroke-width="8" d="M1720.35,-439.59C1728.57,-383.39 1761.47,-213.12 1866,-134 1890.33,-115.59 1922.11,-107.41 1951.88,-104.29"/>
<polygon fill="black" stroke="black" stroke-width="8" points="1952.22,-111.29 1961.67,-103.55 1951.17,-97.33 1952.22,-111.29"/>
</a>
</g>
</g>
<!-- PAKNECONPRVTCN -->
<g id="node37" class="node">
<title>PAKNECONPRVTCN</title>
<g id="a_node37"><a xlink:title="Pvt. Cons., LCU mn
FRML  &lt;&gt; PAKNECONPRVTCN = PAKNECONPRVTKN*PAKNECONPRVTXN $">
<polygon fill="#63b8ff" stroke="black" points="2169,-935 1914,-935 1914,-899 2169,-899 2169,-935"/>
<text text-anchor="start" x="1920.5" y="-912.8" font-family="Times New Roman,serif" font-size="14.00" fill="blue">PAKNECONPRVTCN:Pvt. Cons., LCU mn</text>
</a>
</g>
</g>
<!-- PAKNECONPRVTKN&#45;&gt;PAKNECONPRVTCN -->
<g id="edge6" class="edge">
<title>PAKNECONPRVTKN-&gt;PAKNECONPRVTCN</title>
<g id="a_edge6"><a xlink:href="bogus" xlink:title=" PAKNECONPRVTKN -&gt; PAKNECONPRVTCN Min. att. -158%  max: 26%">
<path fill="none" stroke="black" stroke-width="8" d="M1718.06,-476.4C1719.34,-543.79 1733.49,-779.04 1866,-890 1875.45,-897.92 1886.24,-904.01 1897.72,-908.66"/>
<polygon fill="black" stroke="black" stroke-width="8" points="1895.4,-915.27 1907.12,-911.88 1899.93,-902.02 1895.4,-915.27"/>
</a>
</g>
</g>
<!-- PAKSMSRVTRNSKN -->
<g id="node38" class="node">
<title>PAKSMSRVTRNSKN</title>
<g id="a_node38"><a xlink:title="PAKSMSRVTRNSKN
FRML  &lt;&gt; PAKSMSRVTRNSKN = ((1+0.301074862860981)*(0.204687752761289*PAKNECONPRVTKN+0*PAKNECONGOVTKN+0*PAKNEGDIFTOTKN+0.0551862611209703*PAKNEEXPGNFSKN+0*PAKNEGDISTKBKN)--0.0392641863572605*PAKNEIMPGNFSKN-0.0174996684619017*PAKNYTAXNINDKN-0)/(1+1.11680986862739) $">
<polygon fill="#63b8ff" stroke="black" points="2112.5,-881 1970.5,-881 1970.5,-845 2112.5,-845 2112.5,-881"/>
<text text-anchor="start" x="1976.5" y="-858.8" font-family="Times New Roman,serif" font-size="14.00" fill="blue">PAKSMSRVTRNSKN:</text>
</a>
</g>
</g>
<!-- PAKNECONPRVTKN&#45;&gt;PAKSMSRVTRNSKN -->
<g id="edge8" class="edge">
<title>PAKNECONPRVTKN-&gt;PAKSMSRVTRNSKN</title>
<g id="a_edge8"><a xlink:href="bogus" xlink:title=" PAKNECONPRVTKN -&gt; PAKSMSRVTRNSKN Min. att. 31%  max: 148%">
<path fill="none" stroke="black" stroke-width="8" d="M1719.04,-476.26C1723.62,-538.09 1747.48,-741.03 1866,-836 1890.42,-855.57 1923.12,-863.83 1953.61,-866.68"/>
<polygon fill="black" stroke="black" stroke-width="8" points="1952.86,-873.65 1963.29,-867.3 1953.76,-859.67 1952.86,-873.65"/>
</a>
</g>
</g>
<!-- PAKGGREVOTHRCN -->
<g id="node9" class="node">
<title>PAKGGREVOTHRCN</title>
<g id="a_node9"><a xlink:title="General government revenues, other (includes privatization), (millions LCU)
FRML &lt;Z,EXO&gt; PAKGGREVOTHRCN = (PAKGGREVOTHRCN_A*PAKNYGDPMKTPCN+PAKNYGDPMKTPCN* (0.0942732188264739) ) * (1-PAKGGREVOTHRCN_D)+ PAKGGREVOTHRCN_X*PAKGGREVOTHRCN_D  $">
<polygon fill="#63b8ff" stroke="black" points="747,-584 182,-584 182,-548 747,-548 747,-584"/>
<text text-anchor="start" x="188.5" y="-561.8" font-family="Times New Roman,serif" font-size="14.00" fill="blue">PAKGGREVOTHRCN:General government revenues, other (includes privatization), (millions LCU)</text>
</a>
</g>
</g>
<!-- PAKGGREVOTHRCN&#45;&gt;PAKGGREVTOTLCN -->
<g id="edge23" class="edge">
<title>PAKGGREVOTHRCN-&gt;PAKGGREVTOTLCN</title>
<g id="a_edge23"><a xlink:href="bogus" xlink:title=" PAKGGREVOTHRCN -&gt; PAKGGREVTOTLCN Min. att. 10%  max: 42%">
<path fill="none" stroke="black" stroke-width="4.16" d="M662.03,-547.54C690.54,-544.75 719.53,-541.85 747,-539 767.58,-536.87 789.14,-534.57 810.55,-532.24"/>
<polygon fill="black" stroke="black" stroke-width="4.16" points="810.89,-535.86 820.44,-531.16 810.1,-528.63 810.89,-535.86"/>
</a>
</g>
</g>
<!-- PAKFMLBLPOLYXN&#45;&gt;PAKNECONPRVTKN -->
<g id="edge30" class="edge">
<title>PAKFMLBLPOLYXN-&gt;PAKNECONPRVTKN</title>
<g id="a_edge30"><a xlink:href="bogus" xlink:title=" PAKFMLBLPOLYXN -&gt; PAKNECONPRVTKN Min. att. -1054%  max: 201%">
<path fill="none" stroke="black" stroke-width="8" d="M2433.81,-56.67C2241.77,-51.81 1911.12,-48.31 1866,-80 1750.91,-160.83 1725.32,-345.32 1719.63,-422.75"/>
<polygon fill="black" stroke="black" stroke-width="8" points="1712.65,-422.23 1719.02,-432.64 1726.62,-423.1 1712.65,-422.23"/>
</a>
</g>
</g>
<!-- PAKNYGDPMKTPCD -->
<g id="node11" class="node">
<title>PAKNYGDPMKTPCD</title>
<g id="a_node11"><a xlink:title="PAKNYGDPMKTPCD
FRML  &lt;&gt; PAKNYGDPMKTPCD = PAKNYGDPMKTPCN/PAKPANUSATLS $">
<polygon fill="#63b8ff" stroke="black" points="1063.5,-476 917.5,-476 917.5,-440 1063.5,-440 1063.5,-476"/>
<text text-anchor="start" x="923.5" y="-453.8" font-family="Times New Roman,serif" font-size="14.00" fill="blue">PAKNYGDPMKTPCD:</text>
</a>
</g>
</g>
<!-- PAKBXFSTREMTCD -->
<g id="node23" class="node">
<title>PAKBXFSTREMTCD</title>
<g id="a_node23"><a xlink:title="Exp., Remittances (BOP), US$ mn
FRML &lt;Z,EXO&gt; PAKBXFSTREMTCD = (PAKBXFSTREMTCD_A*PAKNYGDPMKTPCD+PAKNYGDPMKTPCD* (0.053028373687723) ) * (1-PAKBXFSTREMTCD_D)+ PAKBXFSTREMTCD_X*PAKBXFSTREMTCD_D  $">
<polygon fill="#63b8ff" stroke="black" points="1568,-476 1234,-476 1234,-440 1568,-440 1568,-476"/>
<text text-anchor="start" x="1240" y="-453.8" font-family="Times New Roman,serif" font-size="14.00" fill="blue">PAKBXFSTREMTCD:Exp., Remittances (BOP), US$ mn</text>
</a>
</g>
</g>
<!-- PAKNYGDPMKTPCD&#45;&gt;PAKBXFSTREMTCD -->
<g id="edge14" class="edge">
<title>PAKNYGDPMKTPCD-&gt;PAKBXFSTREMTCD</title>
<g id="a_edge14"><a xlink:href="bogus" xlink:title=" PAKNYGDPMKTPCD -&gt; PAKBXFSTREMTCD Min. att. 100%  max: 100%">
<path fill="none" stroke="black" stroke-width="8" d="M1063.59,-458C1106.35,-458 1162.65,-458 1216.94,-458"/>
<polygon fill="black" stroke="black" stroke-width="8" points="1216.73,-465 1226.73,-458 1216.73,-451 1216.73,-465"/>
</a>
</g>
</g>
<!-- PAKGGEXPTRNSCN -->
<g id="node14" class="node">
<title>PAKGGEXPTRNSCN</title>
<g id="a_node14"><a xlink:title="Current Transfers
FRML &lt;Z,EXO&gt; PAKGGEXPTRNSCN = (0.91020884318931*PAKGGEXPTRNSCN(-1)+(1-0.91020884318931)*(0.06*(PAKGGREVTOTLCN-PAKGGEXPINTPCN(-0))) + PAKGGEXPTRNSCN_A)* (1-PAKGGEXPTRNSCN_D)+ PAKGGEXPTRNSCN_X*PAKGGEXPTRNSCN_D  $">
<polygon fill="#63b8ff" stroke="black" points="1519,-530 1283,-530 1283,-494 1519,-494 1519,-530"/>
<text text-anchor="start" x="1289" y="-507.8" font-family="Times New Roman,serif" font-size="14.00" fill="blue">PAKGGEXPTRNSCN:Current Transfers</text>
</a>
</g>
</g>
<!-- PAKGGREVTOTLCN&#45;&gt;PAKGGEXPTRNSCN -->
<g id="edge15" class="edge">
<title>PAKGGREVTOTLCN-&gt;PAKGGEXPTRNSCN</title>
<g id="a_edge15"><a xlink:href="bogus" xlink:title=" PAKGGREVTOTLCN -&gt; PAKGGEXPTRNSCN Min. att. 13%  max: 107%">
<path fill="none" stroke="black" stroke-width="8" d="M1198.44,-512C1221.33,-512 1244.17,-512 1265.82,-512"/>
<polygon fill="black" stroke="black" stroke-width="8" points="1265.54,-519 1275.54,-512 1265.54,-505 1265.54,-519"/>
</a>
</g>
</g>
<!-- PAKGGEXPTRNSCN&#45;&gt;PAKNECONPRVTKN -->
<g id="edge36" class="edge">
<title>PAKGGEXPTRNSCN-&gt;PAKNECONPRVTKN</title>
<g id="a_edge36"><a xlink:href="bogus" xlink:title=" PAKGGEXPTRNSCN -&gt; PAKNECONPRVTKN Min. att. -153%  max: 29%">
<path fill="none" stroke="black" stroke-width="8" d="M1517.25,-493.55C1534.27,-490.74 1551.6,-487.83 1568,-485 1578.22,-483.24 1588.83,-481.37 1599.46,-479.48"/>
<polygon fill="black" stroke="black" stroke-width="8" points="1600.66,-486.37 1609.27,-477.72 1598.19,-472.59 1600.66,-486.37"/>
</a>
</g>
</g>
<!-- PAKNYWRTTOTLCN -->
<g id="node17" class="node">
<title>PAKNYWRTTOTLCN</title>
<g id="a_node17"><a xlink:title="PAKNYWRTTOTLCN
FRML  &lt;&gt; PAKNYWRTTOTLCN = (PAKNYWBINFMSH**PAKINFCES*(PAKNYWRTINFMCN)**(1-PAKINFCES)+PAKNYWBFORMSH**PAKINFCES*(PAKNYWRTFORMCN*(1+PAKGGREVDRCTXN/100))**(1-PAKINFCES))**(1/(1-PAKINFCES)) $">
<polygon fill="#63b8ff" stroke="black" points="2398,-989 2253,-989 2253,-953 2398,-953 2398,-989"/>
<text text-anchor="start" x="2259.5" y="-966.8" font-family="Times New Roman,serif" font-size="14.00" fill="blue">PAKNYWRTTOTLCN:</text>
</a>
</g>
</g>
<!-- PAKNYWRTTOTLCN&#45;&gt;PAKLMEMPTOTLCN -->
<g id="edge11" class="edge">
<title>PAKNYWRTTOTLCN-&gt;PAKLMEMPTOTLCN</title>
<g id="a_edge11"><a xlink:href="bogus" xlink:title=" PAKNYWRTTOTLCN -&gt; PAKLMEMPTOTLCN Min. att. -282%  max: 74%">
<path fill="none" stroke="black" stroke-width="8" d="M2398.21,-955.16C2421.1,-950.11 2446.86,-944.42 2471.37,-939"/>
<polygon fill="black" stroke="black" stroke-width="8" points="2472.6,-945.9 2480.85,-936.91 2469.58,-932.23 2472.6,-945.9"/>
</a>
</g>
</g>
<!-- PAKNYYWBTOTLCN -->
<g id="node30" class="node">
<title>PAKNYYWBTOTLCN</title>
<g id="a_node30"><a xlink:title="PAKNYYWBTOTLCN
FRML  &lt;&gt; PAKNYYWBTOTLCN = PAKNYWRTTOTLCN*PAKLMEMPTOTLCN $">
<polygon fill="#63b8ff" stroke="black" points="2894,-989 2746,-989 2746,-953 2894,-953 2894,-989"/>
<text text-anchor="start" x="2752" y="-966.8" font-family="Times New Roman,serif" font-size="14.00" fill="blue">PAKNYYWBTOTLCN:</text>
</a>
</g>
</g>
<!-- PAKNYWRTTOTLCN&#45;&gt;PAKNYYWBTOTLCN -->
<g id="edge12" class="edge">
<title>PAKNYWRTTOTLCN-&gt;PAKNYYWBTOTLCN</title>
<g id="a_edge12"><a xlink:href="bogus" xlink:title=" PAKNYWRTTOTLCN -&gt; PAKNYYWBTOTLCN Min. att. 77%  max: 117%">
<path fill="none" stroke="black" stroke-width="8" d="M2398.38,-971C2485.93,-971 2633.9,-971 2728.96,-971"/>
<polygon fill="black" stroke="black" stroke-width="8" points="2728.8,-978 2738.8,-971 2728.8,-964 2728.8,-978"/>
</a>
</g>
</g>
<!-- PAKNYGDPMKTPKN&#45;&gt;PAKNYGDPGAP_ -->
<g id="edge32" class="edge">
<title>PAKNYGDPMKTPKN-&gt;PAKNYGDPGAP_</title>
<g id="a_edge32"><a xlink:href="bogus" xlink:title=" PAKNYGDPMKTPKN -&gt; PAKNYGDPGAP_ Min. att. -3641%  max: 9274%">
<path fill="none" stroke="black" stroke-width="8" d="M2142.72,-764.6C2176.94,-767.87 2214.66,-771.48 2246.83,-774.56"/>
<polygon fill="black" stroke="black" stroke-width="8" points="2246.02,-781.52 2256.65,-775.5 2247.36,-767.58 2246.02,-781.52"/>
</a>
</g>
</g>
<!-- PAKLMEMPTOTLCN&#45;&gt;PAKNYYWBTOTLCN -->
<g id="edge39" class="edge">
<title>PAKLMEMPTOTLCN-&gt;PAKNYYWBTOTLCN</title>
<g id="a_edge39"><a xlink:href="bogus" xlink:title=" PAKLMEMPTOTLCN -&gt; PAKNYYWBTOTLCN Min. att. -17%  max: 24%">
<path fill="none" stroke="black" stroke-width="2.36" d="M2656.97,-935.43C2681.39,-940.79 2708.11,-946.66 2732.67,-952.05"/>
<polygon fill="black" stroke="black" stroke-width="2.36" points="2731.68,-955.41 2742.2,-954.14 2733.18,-948.58 2731.68,-955.41"/>
</a>
</g>
</g>
<!-- PAKNYWRTFORMCN -->
<g id="node20" class="node">
<title>PAKNYWRTFORMCN</title>
<g id="a_node20"><a xlink:title="PAKNYWRTFORMCN
FRML &lt;Z,EXO&gt; PAKNYWRTFORMCN = (PAKNYWRTFORMCN(-1)*EXP(PAKNYWRTFORMCN_A+ (-0.132832689997107-0.3*(LOG(PAKNYWRTFORMCN(-1))-LOG(PAKNYGDPFCSTXN(-1))-LOG(PAKNYGDPPOTLKN(-1)/PAKLMEMPSTRLCN(-1)))+0.2*((LOG(PAKNYWRTFORMCN(-1)))-(LOG(PAKNYWRTFORMCN(-2))))+(1-0.2)*(0.5*((LOG(PAKNYGDPFCSTXN(-1)))-(LOG(PAKNYGDPFCSTXN(-2))))+0.5*(PAKINFLEXPT/100)+((LOG(PAKNYGDPMKTPKN/PAKLMEMPSTRLCN))-(LOG(PAKNYGDPMKTPKN(-1)/PAKLMEMPSTRLCN(-1)))))-0.2*(PAKLMUNRTOTLCN-PAKLMUNRSTRLCN)/100) )) * (1-PAKNYWRTFORMCN_D)+ PAKNYWRTFORMCN_X*PAKNYWRTFORMCN_D  $">
<polygon fill="#63b8ff" stroke="black" points="2116.5,-1043 1966.5,-1043 1966.5,-1007 2116.5,-1007 2116.5,-1043"/>
<text text-anchor="start" x="1972.5" y="-1020.8" font-family="Times New Roman,serif" font-size="14.00" fill="blue">PAKNYWRTFORMCN:</text>
</a>
</g>
</g>
<!-- PAKNYWRTFORMCN&#45;&gt;PAKNYWRTTOTLCN -->
<g id="edge17" class="edge">
<title>PAKNYWRTFORMCN-&gt;PAKNYWRTTOTLCN</title>
<g id="a_edge17"><a xlink:href="bogus" xlink:title=" PAKNYWRTFORMCN -&gt; PAKNYWRTTOTLCN Min. att. 21%  max: 21%">
<path fill="none" stroke="black" stroke-width="2.12" d="M2116.64,-1015.08C2147.75,-1010.51 2184.25,-1004.63 2217,-998 2225.2,-996.34 2233.72,-994.46 2242.21,-992.49"/>
<polygon fill="black" stroke="black" stroke-width="2.12" points="2242.99,-995.91 2251.91,-990.19 2241.37,-989.1 2242.99,-995.91"/>
</a>
</g>
</g>
<!-- PAKNYGDPPOTLKN -->
<g id="node21" class="node">
<title>PAKNYGDPPOTLKN</title>
<g id="a_node21"><a xlink:title="PAKNYGDPPOTLKN
FRML  &lt;&gt; PAKNYGDPPOTLKN = PAKNYGDPTFP*(PAKLMEMPSTRLCN**PAKNYYWBTOTLCN_)*(PAKNEGDIKSTKKN(-1)**(1-PAKNYYWBTOTLCN_-0.1))*(PAKNVENGTOTLKN**0.1) $">
<polygon fill="#63b8ff" stroke="black" points="2112.5,-827 1970.5,-827 1970.5,-791 2112.5,-791 2112.5,-827"/>
<text text-anchor="start" x="1976.5" y="-804.8" font-family="Times New Roman,serif" font-size="14.00" fill="blue">PAKNYGDPPOTLKN:</text>
</a>
</g>
</g>
<!-- PAKNYGDPPOTLKN&#45;&gt;PAKNYGDPGAP_ -->
<g id="edge5" class="edge">
<title>PAKNYGDPPOTLKN-&gt;PAKNYGDPGAP_</title>
<g id="a_edge5"><a xlink:href="bogus" xlink:title=" PAKNYGDPPOTLKN -&gt; PAKNYGDPGAP_ Min. att. -9203%  max: 3748%">
<path fill="none" stroke="black" stroke-width="8" d="M2112.93,-802.26C2153.65,-798.36 2204.95,-793.45 2246.84,-789.44"/>
<polygon fill="black" stroke="black" stroke-width="8" points="2247.33,-796.42 2256.62,-788.5 2246,-782.48 2247.33,-796.42"/>
</a>
</g>
</g>
<!-- PAKNYGDPPOTLKN&#45;&gt;PAKLMEMPTOTLCN -->
<g id="edge27" class="edge">
<title>PAKNYGDPPOTLKN-&gt;PAKLMEMPTOTLCN</title>
<g id="a_edge27"><a xlink:href="bogus" xlink:title=" PAKNYGDPPOTLKN -&gt; PAKLMEMPTOTLCN Min. att. -19%  max: 73%">
<path fill="none" stroke="black" stroke-width="7.35" d="M2112.62,-806.22C2146.71,-808.09 2186.75,-815.34 2217,-836 2243.31,-853.97 2225.87,-881.29 2253,-898 2310.06,-933.15 2384.34,-939.29 2446.77,-935.99"/>
<polygon fill="black" stroke="black" stroke-width="7.35" points="2446.87,-942.43 2456.42,-935.35 2446.02,-929.6 2446.87,-942.43"/>
</a>
</g>
</g>
<!-- PAKNYGDPMKTPCN -->
<g id="node22" class="node">
<title>PAKNYGDPMKTPCN</title>
<g id="a_node22"><a xlink:title="GDP, Market Prices, LCU mn
FRML  &lt;&gt; PAKNYGDPMKTPCN = PAKNECONPRVTCN+PAKNECONGOVTCN+PAKNEGDIFTOTCN+PAKNEGDISTKBCN+PAKNEEXPGNFSCN-PAKNEIMPGNFSCN+PAKNYGDPDISCCN+PAKADAP*PAKDISPREPCN $">
<polygon fill="#63b8ff" stroke="black" points="620.5,-476 308.5,-476 308.5,-440 620.5,-440 620.5,-476"/>
<text text-anchor="start" x="314.5" y="-453.8" font-family="Times New Roman,serif" font-size="14.00" fill="blue">PAKNYGDPMKTPCN:GDP, Market Prices, LCU mn</text>
</a>
</g>
</g>
<!-- PAKNYGDPMKTPCN&#45;&gt;PAKNYGDPMKTPCD -->
<g id="edge28" class="edge">
<title>PAKNYGDPMKTPCN-&gt;PAKNYGDPMKTPCD</title>
<g id="a_edge28"><a xlink:href="bogus" xlink:title=" PAKNYGDPMKTPCN -&gt; PAKNYGDPMKTPCD Min. att. 91%  max: 93%">
<path fill="none" stroke="black" stroke-width="8" d="M620.94,-458C712.11,-458 824.03,-458 900.46,-458"/>
<polygon fill="black" stroke="black" stroke-width="8" points="900.19,-465 910.19,-458 900.19,-451 900.19,-465"/>
</a>
</g>
</g>
<!-- PAKBXFSTREMTCD&#45;&gt;PAKNECONPRVTKN -->
<g id="edge22" class="edge">
<title>PAKBXFSTREMTCD-&gt;PAKNECONPRVTKN</title>
<g id="a_edge22"><a xlink:href="bogus" xlink:title=" PAKBXFSTREMTCD -&gt; PAKNECONPRVTKN Min. att. -717%  max: 140%">
<path fill="none" stroke="black" stroke-width="8" d="M1568.19,-458C1574.51,-458 1580.8,-458 1587.04,-458"/>
<polygon fill="black" stroke="black" stroke-width="8" points="1586.9,-465 1596.9,-458 1586.9,-451 1586.9,-465"/>
</a>
</g>
</g>
<!-- PAKNECONPRVTXN&#45;&gt;PAKNECONPRVTKN -->
<g id="edge9" class="edge">
<title>PAKNECONPRVTXN-&gt;PAKNECONPRVTKN</title>
<g id="a_edge9"><a xlink:href="bogus" xlink:title=" PAKNECONPRVTXN -&gt; PAKNECONPRVTKN Min. att. -1475%  max: 7662%">
<path fill="none" stroke="black" stroke-width="8" d="M1061.82,-373.86C1212.84,-390.76 1555.58,-429.17 1568,-431 1579.64,-432.72 1591.76,-434.66 1603.83,-436.71"/>
<polygon fill="black" stroke="black" stroke-width="8" points="1602.3,-443.55 1613.35,-438.35 1604.69,-429.75 1602.3,-443.55"/>
</a>
</g>
</g>
<!-- PAKNECONPRVTXN&#45;&gt;PAKFMLBLPOLYXN -->
<g id="edge10" class="edge">
<title>PAKNECONPRVTXN-&gt;PAKFMLBLPOLYXN</title>
<g id="a_edge10"><a xlink:href="bogus" xlink:title=" PAKNECONPRVTXN -&gt; PAKFMLBLPOLYXN Min. att. -48%  max: 90%">
<path fill="none" stroke="black" stroke-width="8" d="M1012.29,-347.56C1094.83,-276.31 1409.84,-23 1716,-23 1716,-23 1716,-23 2042.5,-23 2168.89,-23 2311.85,-33.95 2417.19,-44.09"/>
<polygon fill="black" stroke="black" stroke-width="8" points="2416.19,-51.02 2426.82,-45.03 2417.55,-37.09 2416.19,-51.02"/>
</a>
</g>
</g>
<!-- PAKPANUSATLS -->
<g id="node33" class="node">
<title>PAKPANUSATLS</title>
<g id="a_node33"><a xlink:title="Exchange rate LCU / US$ - Pakistan
FRML &lt;Z,EXO&gt; PAKPANUSATLS = (PAKPANUSATLS(-1)*EXP(PAKPANUSATLS_A+ ((0.295032006650061*((USAINTRXN/100-(( (100 * ( (USANECONPRVTXN) / (USANECONPRVTXN(-1)) -1)) /100+ (100 * ( (USANECONPRVTXN(-1)) / (USANECONPRVTXN(-2)) -1)) /100+ (100 * ( (USANECONPRVTXN(-2)) / (USANECONPRVTXN(-3)) -1)) /100+ (100 * ( (USANECONPRVTXN(-3)) / (USANECONPRVTXN(-4)) -1)) /100)/4.0))-(PAKMPPOLNATRXN/100-PAKINFLEXPT/100))+0.0745339074046556*( (100 * ( (USANECONPRVTXN) / (USANECONPRVTXN(-1)) -1)) /100- (100 * ( (PAKNECONPRVTXN) / (PAKNECONPRVTXN(-1)) -1)) /100))+0.204055946624338*DURING_2009+0.0213) )) * (1-PAKPANUSATLS_D)+ PAKPANUSATLS_X*PAKPANUSATLS_D  $">
<polygon fill="#63b8ff" stroke="black" points="1560.5,-384 1241.5,-384 1241.5,-348 1560.5,-348 1560.5,-384"/>
<text text-anchor="start" x="1248" y="-361.8" font-family="Times New Roman,serif" font-size="14.00" fill="blue">PAKPANUSATLS:Exchange rate LCU / US$ - Pakistan</text>
</a>
</g>
</g>
<!-- PAKNECONPRVTXN&#45;&gt;PAKPANUSATLS -->
<g id="edge19" class="edge">
<title>PAKNECONPRVTXN-&gt;PAKPANUSATLS</title>
<g id="a_edge19"><a xlink:href="bogus" xlink:title=" PAKNECONPRVTXN -&gt; PAKPANUSATLS Min. att. -13%  max: 100%">
<path fill="none" stroke="black" stroke-width="8" d="M1061.72,-366C1106.67,-366 1167.13,-366 1224.5,-366"/>
<polygon fill="black" stroke="black" stroke-width="8" points="1224.4,-373 1234.4,-366 1224.4,-359 1224.4,-373"/>
</a>
</g>
</g>
<!-- PAKNYGDPFCSTXN -->
<g id="node29" class="node">
<title>PAKNYGDPFCSTXN</title>
<g id="a_node29"><a xlink:title="PAKNYGDPFCSTXN
FRML &lt;Z,EXO&gt; PAKNYGDPFCSTXN = (PAKNYGDPFCSTXN(-1)*EXP(PAKNYGDPFCSTXN_A+ (0.6*((LOG(PAKNYGDPFCSTXN(-1)))-(LOG(PAKNYGDPFCSTXN(-2))))+(1-0.6)*(0.7*PAKINFLEXPT/100+(1-0.7)*((LOG(PAKPSTAR(-1)))-(LOG(PAKPSTAR(-2)))))+0.0935726784287011*PAKNYGDPGAP_/100) )) * (1-PAKNYGDPFCSTXN_D)+ PAKNYGDPFCSTXN_X*PAKNYGDPFCSTXN_D  $">
<polygon fill="#63b8ff" stroke="black" points="2396,-889 2255,-889 2255,-853 2396,-853 2396,-889"/>
<text text-anchor="start" x="2261.5" y="-866.8" font-family="Times New Roman,serif" font-size="14.00" fill="blue">PAKNYGDPFCSTXN:</text>
</a>
</g>
</g>
<!-- PAKNYGDPFCSTXN&#45;&gt;PAKLMEMPTOTLCN -->
<g id="edge43" class="edge">
<title>PAKNYGDPFCSTXN-&gt;PAKLMEMPTOTLCN</title>
<g id="a_edge43"><a xlink:href="bogus" xlink:title=" PAKNYGDPFCSTXN -&gt; PAKLMEMPTOTLCN Min. att. -29%  max: 243%">
<path fill="none" stroke="black" stroke-width="8" d="M2396.24,-884.12C2415.06,-887.66 2435.93,-891.59 2456.51,-895.46"/>
<polygon fill="black" stroke="black" stroke-width="8" points="2454.93,-902.29 2466.05,-897.25 2457.52,-888.53 2454.93,-902.29"/>
</a>
</g>
</g>
<!-- PAKNYYWBTOTLCN&#45;&gt;PAKNECONPRVTKN -->
<g id="edge41" class="edge">
<title>PAKNYYWBTOTLCN-&gt;PAKNECONPRVTKN</title>
<g id="a_edge41"><a xlink:href="bogus" xlink:title=" PAKNYYWBTOTLCN -&gt; PAKNECONPRVTKN Min. att. -6135%  max: 1200%">
<path fill="none" stroke="black" stroke-width="8" d="M2746.48,-989.43C2548.12,-1037.97 2002.32,-1158.52 1866,-1052 1775.87,-981.57 1732.67,-609.63 1721.21,-493.01"/>
<polygon fill="black" stroke="black" stroke-width="8" points="1728.19,-492.51 1720.27,-483.23 1714.25,-493.85 1728.19,-492.51"/>
</a>
</g>
</g>
<!-- PAKPANUSATLS&#45;&gt;PAKNECONPRVTKN -->
<g id="edge24" class="edge">
<title>PAKPANUSATLS-&gt;PAKNECONPRVTKN</title>
<g id="a_edge24"><a xlink:href="bogus" xlink:title=" PAKPANUSATLS -&gt; PAKNECONPRVTKN Min. att. -11%  max: 56%">
<path fill="none" stroke="black" stroke-width="5.58" d="M1513.89,-384.47C1532.12,-388.37 1550.69,-392.88 1568,-398 1599.85,-407.43 1634.31,-421.17 1661.95,-433.13"/>
<polygon fill="black" stroke="black" stroke-width="5.58" points="1659.61,-437.44 1670.73,-436.99 1663.54,-428.49 1659.61,-437.44"/>
</a>
</g>
</g>
<!-- PAKNYWRTINFMCN -->
<g id="node34" class="node">
<title>PAKNYWRTINFMCN</title>
<g id="a_node34"><a xlink:title="PAKNYWRTINFMCN
FRML &lt;Z,EXO&gt; PAKNYWRTINFMCN = (PAKNYWRTINFMCN(-1)*EXP(PAKNYWRTINFMCN_A+ (-0.13526463206061-0.3*(LOG(PAKNYWRTINFMCN(-1))-LOG(PAKNYGDPFCSTXN(-1))-LOG(PAKNYGDPPOTLKN(-1)/PAKLMEMPSTRLCN(-1)))+0.2*((LOG(PAKNYWRTINFMCN(-1)))-(LOG(PAKNYWRTINFMCN(-2))))+(1-0.2)*(0.5*((LOG(PAKNYGDPFCSTXN(-1)))-(LOG(PAKNYGDPFCSTXN(-2))))+0.5*(PAKINFLEXPT/100)+((LOG(PAKNYGDPMKTPKN/PAKLMEMPSTRLCN))-(LOG(PAKNYGDPMKTPKN(-1)/PAKLMEMPSTRLCN(-1)))))-0.2*(PAKLMUNRTOTLCN-PAKLMUNRSTRLCN)/100) )) * (1-PAKNYWRTINFMCN_D)+ PAKNYWRTINFMCN_X*PAKNYWRTINFMCN_D  $">
<polygon fill="#63b8ff" stroke="black" points="2114,-989 1969,-989 1969,-953 2114,-953 2114,-989"/>
<text text-anchor="start" x="1975.5" y="-966.8" font-family="Times New Roman,serif" font-size="14.00" fill="blue">PAKNYWRTINFMCN:</text>
</a>
</g>
</g>
<!-- PAKNYWRTINFMCN&#45;&gt;PAKNYWRTTOTLCN -->
<g id="edge7" class="edge">
<title>PAKNYWRTINFMCN-&gt;PAKNYWRTTOTLCN</title>
<g id="a_edge7"><a xlink:href="bogus" xlink:title=" PAKNYWRTINFMCN -&gt; PAKNYWRTTOTLCN Min. att. 79%  max: 80%">
<path fill="none" stroke="black" stroke-width="7.95" d="M2114.39,-971C2151.35,-971 2196.72,-971 2235.84,-971"/>
<polygon fill="black" stroke="black" stroke-width="7.95" points="2235.78,-977.96 2245.78,-971 2235.78,-964.04 2235.78,-977.96"/>
</a>
</g>
</g>
<!-- PAKNECONENGYGN -->
<g id="node36" class="node">
<title>PAKNECONENGYGN</title>
<g id="a_node36"><a xlink:title="PAKNECONENGYGN
FRML  &lt;&gt; PAKNECONENGYGN = (PAKNVCOLPRODSH**(PAKCESENGYPROD)*(PAKNVCOLPRODGN)**(1-PAKCESENGYPROD)+PAKNVGASPRODSH**(PAKCESENGYPROD)*(PAKNVGASPRODGN)**(1-PAKCESENGYPROD)+PAKNVOILPRODSH**(PAKCESENGYPROD)*(PAKNVOILPRODGN)**(1-PAKCESENGYPROD)+PAKNVRENPRODSH**(PAKCESENGYPROD)*(PAKNVRENPRODXN)**(1-PAKCESENGYPROD))**(1/(1-PAKCESENGYPROD)) $">
<polygon fill="#63b8ff" stroke="black" points="146,-403 0,-403 0,-367 146,-367 146,-403"/>
<text text-anchor="start" x="6" y="-380.8" font-family="Times New Roman,serif" font-size="14.00" fill="blue">PAKNECONENGYGN:</text>
</a>
</g>
</g>
<!-- PAKNECONENGYGN&#45;&gt;PAKNECONENGYXN -->
<g id="edge42" class="edge">
<title>PAKNECONENGYGN-&gt;PAKNECONENGYXN</title>
<g id="a_edge42"><a xlink:href="bogus" xlink:title=" PAKNECONENGYGN -&gt; PAKNECONENGYXN Min. att. -39%  max: 100%">
<path fill="none" stroke="black" stroke-width="8" d="M146.35,-385C210.88,-385 305.56,-385 374.67,-385"/>
<polygon fill="black" stroke="black" stroke-width="8" points="374.23,-392 384.23,-385 374.23,-378 374.23,-392"/>
</a>
</g>
</g>
</g>
</svg>