<svg xmlns="http://www.w3.org/2000/svg" xmlns:xlink="http://www.w3.org/1999/xlink" width="432pt" height="326pt" viewBox="0.00 0.00 432.00 326.01">
<g id="graph0" class="graph" transform="scale(0.423945 0.423945) rotate(0) translate(4 765)">
<title>TD</title>
<polygon fill="white" stroke="none" points="-4,4 -4,-765 1015,-765 1015,4 -4,4"/>
<text text-anchor="middle" x="505.5" y="-7.8" font-family="Times New Roman,serif" font-size="14.00">PAKNYGDPMKTPKN</text>
<!-- PAKGDPPCKN -->
<g id="node1" class="node">
<title>PAKGDPPCKN</title>
<g id="a_node1"><a xlink:title="PAKGDPPCKN
FRML  &lt;&gt; PAKGDPPCKN = (PAKNYGDPMKTPKN/PAKSPPOPTOTL) $">
<polygon fill="#63b8ff" stroke="black" points="809.5,-761 703.5,-761 703.5,-725 809.5,-725 809.5,-761"/>
<text text-anchor="start" x="709.5" y="-738.8" font-family="Times New Roman,serif" font-size="14.00" fill="blue">PAKGDPPCKN:</text>
</a>
</g>
</g>
<!-- PAKNYGDPDISCKN -->
<g id="node2" class="node">
<title>PAKNYGDPDISCKN</title>
<g id="a_node2"><a xlink:title="PAKNYGDPDISCKN
Exogen">
<polygon fill="yellow" stroke="black" points="183.5,-626 44.5,-626 44.5,-590 183.5,-590 183.5,-626"/>
<text text-anchor="start" x="51" y="-603.8" font-family="Times New Roman,serif" font-size="14.00" fill="blue">PAKNYGDPDISCKN:</text>
</a>
</g>
</g>
<!-- PAKNYGDPMKTPKN -->
<g id="node15" class="node">
<title>PAKNYGDPMKTPKN</title>
<g id="a_node15"><a xlink:title="Real GDP
FRML  &lt;&gt; PAKNYGDPMKTPKN = PAKNECONPRVTKN+PAKNECONGOVTKN+PAKNEGDIFTOTKN+PAKNEGDISTKBKN+PAKNEEXPGNFSKN-PAKNEIMPGNFSKN+PAKNYGDPDISCKN+PAKADAP*PAKDISPREPKN $">
<polygon fill="red" stroke="black" points="466,-410 264,-410 264,-374 466,-374 466,-410"/>
<text text-anchor="start" x="270" y="-387.8" font-family="Times New Roman,serif" font-size="14.00" fill="blue">PAKNYGDPMKTPKN:Real GDP</text>
</a>
</g>
</g>
<!-- PAKNYGDPDISCKN&#45;&gt;PAKNYGDPMKTPKN -->
<g id="edge21" class="edge">
<title>PAKNYGDPDISCKN-&gt;PAKNYGDPMKTPKN</title>
<g id="a_edge21"><a xlink:href="bogus" xlink:title=" PAKNYGDPDISCKN -&gt; PAKNYGDPMKTPKN Min. att. -0%  max: 0%">
<path fill="none" stroke="black" d="M183.97,-599.7C199.34,-595.69 214.93,-589.76 228,-581 288.71,-540.28 331.51,-462.78 351.41,-420.78"/>
<polygon fill="black" stroke="black" points="354.55,-422.34 355.56,-411.79 348.19,-419.41 354.55,-422.34"/>
</a>
</g>
</g>
<!-- PAKDISPREPKN -->
<g id="node3" class="node">
<title>PAKDISPREPKN</title>
<g id="a_node3"><a xlink:title="PAKDISPREPKN
FRML  &lt;&gt; PAKDISPREPKN = PAKDISPREPCN/PAKNYGDPMKTPXN $">
<polygon fill="#63b8ff" stroke="black" points="172,-572 56,-572 56,-536 172,-536 172,-572"/>
<text text-anchor="start" x="62" y="-549.8" font-family="Times New Roman,serif" font-size="14.00" fill="blue">PAKDISPREPKN:</text>
</a>
</g>
</g>
<!-- PAKDISPREPKN&#45;&gt;PAKNYGDPMKTPKN -->
<g id="edge20" class="edge">
<title>PAKDISPREPKN-&gt;PAKNYGDPMKTPKN</title>
<g id="a_edge20"><a xlink:href="bogus" xlink:title=" PAKDISPREPKN -&gt; PAKNYGDPMKTPKN Min. att. -0%  max: 0%">
<path fill="none" stroke="black" d="M172.42,-546.58C190.96,-542.57 211.08,-536.42 228,-527 276.73,-499.86 319.96,-450.37 344,-419.44"/>
<polygon fill="black" stroke="black" points="346.63,-421.76 349.91,-411.69 341.06,-417.52 346.63,-421.76"/>
</a>
</g>
</g>
<!-- PAKNYGDPGAP_ -->
<g id="node4" class="node">
<title>PAKNYGDPGAP_</title>
<g id="a_node4"><a xlink:title="PAKNYGDPGAP_
FRML  &lt;&gt; PAKNYGDPGAP_ = ((PAKNYGDPMKTPKN/PAKNYGDPPOTLKN-1)*100) $">
<polygon fill="#63b8ff" stroke="black" points="818,-707 695,-707 695,-671 818,-671 818,-707"/>
<text text-anchor="start" x="701.5" y="-684.8" font-family="Times New Roman,serif" font-size="14.00" fill="blue">PAKNYGDPGAP_:</text>
</a>
</g>
</g>
<!-- PAKNEADPKMAXKN -->
<g id="node5" class="node">
<title>PAKNEADPKMAXKN</title>
<g id="a_node5"><a xlink:title="PAKNEADPKMAXKN
FRML &lt;Z,EXO&gt; PAKNEADPKMAXKN = (0*DUMH+((1+0.01)/(0.01+PAKDEPR))*(PAKAVDAMAGE/100)*PAKNYGDPMKTPKN + PAKNEADPKMAXKN_A)* (1-PAKNEADPKMAXKN_D)+ PAKNEADPKMAXKN_X*PAKNEADPKMAXKN_D  $">
<polygon fill="#63b8ff" stroke="black" points="831,-653 682,-653 682,-617 831,-617 831,-653"/>
<text text-anchor="start" x="688.5" y="-630.8" font-family="Times New Roman,serif" font-size="14.00" fill="blue">PAKNEADPKMAXKN:</text>
</a>
</g>
</g>
<!-- PAKNECONPRVTKN -->
<g id="node6" class="node">
<title>PAKNECONPRVTKN</title>
<g id="a_node6"><a xlink:title="HH. Cons Real
FRML &lt;Z,EXO&gt; PAKNECONPRVTKN = (PAKNECONPRVTKN(-1)*EXP(PAKNECONPRVTKN_A+ (-0.2*(LOG(PAKNECONPRVTKN(-1))-LOG(1.21203101101442)-LOG((((PAKBXFSTREMTCD(-1)-PAKBMFSTREMTCD(-1))*PAKPANUSATLS(-1))+PAKGGEXPTRNSCN(-1)+PAKNYYWBTOTLCN(-1)*(1-PAKGGREVDRCTXN(-1)/100))/PAKNECONPRVTXN(-1)))+0.763938860758873*((LOG((((PAKBXFSTREMTCD-PAKBMFSTREMTCD)*PAKPANUSATLS)+PAKGGEXPTRNSCN+PAKNYYWBTOTLCN*(1-PAKGGREVDRCTXN/100))/PAKNECONPRVTXN))-(LOG((((PAKBXFSTREMTCD(-1)-PAKBMFSTREMTCD(-1))*PAKPANUSATLS(-1))+PAKGGEXPTRNSCN(-1)+PAKNYYWBTOTLCN(-1)*(1-PAKGGREVDRCTXN(-1)/100))/PAKNECONPRVTXN(-1))))-0.0634474791568939*DURING_2009-0.3*(PAKFMLBLPOLYXN/100-((LOG(PAKNECONPRVTXN))-(LOG(PAKNECONPRVTXN(-1)))))) )) * (1-PAKNECONPRVTKN_D)+ PAKNECONPRVTKN_X*PAKNECONPRVTKN_D  $">
<polygon fill="#63b8ff" stroke="black" points="227,-518 1,-518 1,-482 227,-482 227,-518"/>
<text text-anchor="start" x="7" y="-495.8" font-family="Times New Roman,serif" font-size="14.00" fill="blue">PAKNECONPRVTKN:HH. Cons Real</text>
</a>
</g>
</g>
<!-- PAKNECONPRVTKN&#45;&gt;PAKNYGDPMKTPKN -->
<g id="edge19" class="edge">
<title>PAKNECONPRVTKN-&gt;PAKNYGDPMKTPKN</title>
<g id="a_edge19"><a xlink:href="bogus" xlink:title=" PAKNECONPRVTKN -&gt; PAKNYGDPMKTPKN Min. att. -7274%  max: 6173%">
<path fill="none" stroke="black" stroke-width="8" d="M203.72,-481.53C212.03,-478.99 220.24,-476.15 228,-473 262.43,-459.02 298.43,-437.21 324.73,-419.74"/>
<polygon fill="black" stroke="black" stroke-width="8" points="328.53,-425.63 332.88,-414.22 320.67,-414.04 328.53,-425.63"/>
</a>
</g>
</g>
<!-- PAKFMLBLMTWOKN_FITTED -->
<g id="node7" class="node">
<title>PAKFMLBLMTWOKN_FITTED</title>
<g id="a_node7"><a xlink:title="Fitted  value:PAKFMLBLMTWOKN
FRML &lt;FIT&gt; PAKFMLBLMTWOKN_FITTED = PAKFMLBLMTWOKN(-1)*EXP( (-0.2*(LOG(PAKFMLBLMTWOKN(-1))-LOG(PAKNYGDPMKTPKN(-1))+0.1*PAKFMLBLPOLYXN(-1)/100-LOG(PAKVELOCITY(-1)))-0.32628131688075+0.7*((LOG(PAKNYGDPMKTPKN))-(LOG(PAKNYGDPMKTPKN(-1))))-1*((PAKFMLBLPOLYXN/100)-(PAKFMLBLPOLYXN(-1)/100))-((LOG(PAKVELOCITY))-(LOG(PAKVELOCITY(-1))))) ) $">
<polygon fill="#63b8ff" stroke="black" points="963,-599 550,-599 550,-563 963,-563 963,-599"/>
<text text-anchor="start" x="556.5" y="-576.8" font-family="Times New Roman,serif" font-size="14.00" fill="blue">PAKFMLBLMTWOKN_FITTED:Fitted  value:PAKFMLBLMTWOKN</text>
</a>
</g>
</g>
<!-- PAKNYGDPMKTPKD -->
<g id="node8" class="node">
<title>PAKNYGDPMKTPKD</title>
<g id="a_node8"><a xlink:title="PAKNYGDPMKTPKD
FRML  &lt;&gt; PAKNYGDPMKTPKD = (PAKNYGDPMKTPKN*((PAKNYGDPMKTPCN_VALUE_2010)/((PAKNYGDPMKTPKN_VALUE_2010))))/(PAKPANUSATLS_VALUE_2010) $">
<polygon fill="#63b8ff" stroke="black" points="830,-545 683,-545 683,-509 830,-509 830,-545"/>
<text text-anchor="start" x="689.5" y="-522.8" font-family="Times New Roman,serif" font-size="14.00" fill="blue">PAKNYGDPMKTPKD:</text>
</a>
</g>
</g>
<!-- PAKHURDAMKN -->
<g id="node9" class="node">
<title>PAKHURDAMKN</title>
<g id="a_node9"><a xlink:title="PAKHURDAMKN
FRML  &lt;&gt; PAKHURDAMKN = (PAKNEHURAVERKN_/100)*PAKNYGDPMKTPKN(-1)*(1-PAKNEHURPTVTKN) $">
<polygon fill="#63b8ff" stroke="black" points="818,-491 695,-491 695,-455 818,-455 818,-491"/>
<text text-anchor="start" x="701.5" y="-468.8" font-family="Times New Roman,serif" font-size="14.00" fill="blue">PAKHURDAMKN:</text>
</a>
</g>
</g>
<!-- PAKNEADPKMAXKN_FITTED -->
<g id="node10" class="node">
<title>PAKNEADPKMAXKN_FITTED</title>
<g id="a_node10"><a xlink:title="Fitted  value:PAKNEADPKMAXKN
FRML &lt;FIT&gt; PAKNEADPKMAXKN_FITTED = 0*DUMH+((1+0.01)/(0.01+PAKDEPR))*(PAKAVDAMAGE/100)*PAKNYGDPMKTPKN $">
<polygon fill="#63b8ff" stroke="black" points="960,-437 553,-437 553,-401 960,-401 960,-437"/>
<text text-anchor="start" x="559.5" y="-414.8" font-family="Times New Roman,serif" font-size="14.00" fill="blue">PAKNEADPKMAXKN_FITTED:Fitted  value:PAKNEADPKMAXKN</text>
</a>
</g>
</g>
<!-- PAKNYGDPMKTPXN -->
<g id="node11" class="node">
<title>PAKNYGDPMKTPXN</title>
<g id="a_node11"><a xlink:title="PAKNYGDPMKTPXN
FRML  &lt;&gt; PAKNYGDPMKTPXN = PAKNYGDPMKTPCN/PAKNYGDPMKTPKN $">
<polygon fill="#63b8ff" stroke="black" points="830,-383 683,-383 683,-347 830,-347 830,-383"/>
<text text-anchor="start" x="689.5" y="-360.8" font-family="Times New Roman,serif" font-size="14.00" fill="blue">PAKNYGDPMKTPXN:</text>
</a>
</g>
</g>
<!-- PAKNYWRTINFMCN_FITTED -->
<g id="node12" class="node">
<title>PAKNYWRTINFMCN_FITTED</title>
<g id="a_node12"><a xlink:title="Fitted  value:PAKNYWRTINFMCN
FRML &lt;FIT&gt; PAKNYWRTINFMCN_FITTED = PAKNYWRTINFMCN(-1)*EXP( (-0.13526463206061-0.3*(LOG(PAKNYWRTINFMCN(-1))-LOG(PAKNYGDPFCSTXN(-1))-LOG(PAKNYGDPPOTLKN(-1)/PAKLMEMPSTRLCN(-1)))+0.2*((LOG(PAKNYWRTINFMCN(-1)))-(LOG(PAKNYWRTINFMCN(-2))))+(1-0.2)*(0.5*((LOG(PAKNYGDPFCSTXN(-1)))-(LOG(PAKNYGDPFCSTXN(-2))))+0.5*(PAKINFLEXPT/100)+((LOG(PAKNYGDPMKTPKN/PAKLMEMPSTRLCN))-(LOG(PAKNYGDPMKTPKN(-1)/PAKLMEMPSTRLCN(-1)))))-0.2*(PAKLMUNRTOTLCN-PAKLMUNRSTRLCN)/100) ) $">
<polygon fill="#63b8ff" stroke="black" points="956.5,-329 556.5,-329 556.5,-293 956.5,-293 956.5,-329"/>
<text text-anchor="start" x="562.5" y="-306.8" font-family="Times New Roman,serif" font-size="14.00" fill="blue">PAKNYWRTINFMCN_FITTED:Fitted  value:PAKNYWRTINFMCN</text>
</a>
</g>
</g>
<!-- PAKNYGDPFCSTKN -->
<g id="node13" class="node">
<title>PAKNYGDPFCSTKN</title>
<g id="a_node13"><a xlink:title="GDP Factor Cost Local Currency units Volumes National base year
FRML  &lt;&gt; PAKNYGDPFCSTKN = PAKNYGDPMKTPKN-PAKNYTAXNINDKN $">
<polygon fill="#63b8ff" stroke="black" points="1011,-275 502,-275 502,-239 1011,-239 1011,-275"/>
<text text-anchor="start" x="508.5" y="-252.8" font-family="Times New Roman,serif" font-size="14.00" fill="blue">PAKNYGDPFCSTKN:GDP Factor Cost Local Currency units Volumes National base year</text>
</a>
</g>
</g>
<!-- PAKFMLBLMTWOKN -->
<g id="node14" class="node">
<title>PAKFMLBLMTWOKN</title>
<g id="a_node14"><a xlink:title="PAKFMLBLMTWOKN
FRML &lt;Z,EXO&gt; PAKFMLBLMTWOKN = (PAKFMLBLMTWOKN(-1)*EXP(PAKFMLBLMTWOKN_A+ (-0.2*(LOG(PAKFMLBLMTWOKN(-1))-LOG(PAKNYGDPMKTPKN(-1))+0.1*PAKFMLBLPOLYXN(-1)/100-LOG(PAKVELOCITY(-1)))-0.32628131688075+0.7*((LOG(PAKNYGDPMKTPKN))-(LOG(PAKNYGDPMKTPKN(-1))))-1*((PAKFMLBLPOLYXN/100)-(PAKFMLBLPOLYXN(-1)/100))-((LOG(PAKVELOCITY))-(LOG(PAKVELOCITY(-1))))) )) * (1-PAKFMLBLMTWOKN_D)+ PAKFMLBLMTWOKN_X*PAKFMLBLMTWOKN_D  $">
<polygon fill="#63b8ff" stroke="black" points="832.5,-221 680.5,-221 680.5,-185 832.5,-185 832.5,-221"/>
<text text-anchor="start" x="686.5" y="-198.8" font-family="Times New Roman,serif" font-size="14.00" fill="blue">PAKFMLBLMTWOKN:</text>
</a>
</g>
</g>
<!-- PAKNYGDPMKTPKN&#45;&gt;PAKGDPPCKN -->
<g id="edge17" class="edge">
<title>PAKNYGDPMKTPKN-&gt;PAKGDPPCKN</title>
<g id="a_edge17"><a xlink:href="bogus" xlink:title=" PAKNYGDPMKTPKN -&gt; PAKGDPPCKN Min. att. 100%  max: 100%">
<path fill="none" stroke="black" stroke-width="8" d="M367.44,-410.18C372.95,-466.45 398,-638.61 502,-716 554.58,-755.13 631.15,-758.02 686.36,-753.51"/>
<polygon fill="black" stroke="black" stroke-width="8" points="686.91,-760.49 696.18,-752.55 685.54,-746.56 686.91,-760.49"/>
</a>
</g>
</g>
<!-- PAKNYGDPMKTPKN&#45;&gt;PAKNYGDPGAP_ -->
<g id="edge14" class="edge">
<title>PAKNYGDPMKTPKN-&gt;PAKNYGDPGAP_</title>
<g id="a_edge14"><a xlink:href="bogus" xlink:title=" PAKNYGDPMKTPKN -&gt; PAKNYGDPGAP_ Min. att. -3641%  max: 9274%">
<path fill="none" stroke="black" stroke-width="8" d="M369.08,-410.37C378.55,-460.47 412.22,-599.89 502,-662 552.91,-697.22 623.86,-702.01 677.75,-699.11"/>
<polygon fill="black" stroke="black" stroke-width="8" points="678.16,-706.1 687.65,-698.42 677.18,-692.14 678.16,-706.1"/>
</a>
</g>
</g>
<!-- PAKNYGDPMKTPKN&#45;&gt;PAKNEADPKMAXKN -->
<g id="edge18" class="edge">
<title>PAKNYGDPMKTPKN-&gt;PAKNEADPKMAXKN</title>
<g id="a_edge18"><a xlink:href="bogus" xlink:title=" PAKNYGDPMKTPKN -&gt; PAKNEADPKMAXKN Min. att. 100%  max: 100%">
<path fill="none" stroke="black" stroke-width="8" d="M371.46,-410.46C385.28,-453.53 426.04,-560.64 502,-608 550.08,-637.98 613.48,-644.73 664.84,-643.98"/>
<polygon fill="black" stroke="black" stroke-width="8" points="665,-650.98 674.78,-643.67 664.57,-636.98 665,-650.98"/>
</a>
</g>
</g>
<!-- PAKNYGDPMKTPKN&#45;&gt;PAKFMLBLMTWOKN_FITTED -->
<g id="edge2" class="edge">
<title>PAKNYGDPMKTPKN-&gt;PAKFMLBLMTWOKN_FITTED</title>
<g id="a_edge2"><a xlink:href="bogus" xlink:title=" PAKNYGDPMKTPKN -&gt; PAKFMLBLMTWOKN_FITTED Min. att. -255%  max: 619%">
<path fill="none" stroke="black" stroke-width="8" d="M375.15,-410.28C393.67,-445.14 439.28,-520.6 502,-554 512.16,-559.41 522.86,-564 533.91,-567.87"/>
<polygon fill="black" stroke="black" stroke-width="8" points="531.42,-574.43 543.07,-570.79 535.66,-561.09 531.42,-574.43"/>
</a>
</g>
</g>
<!-- PAKNYGDPMKTPKN&#45;&gt;PAKNYGDPMKTPKD -->
<g id="edge22" class="edge">
<title>PAKNYGDPMKTPKN-&gt;PAKNYGDPMKTPKD</title>
<g id="a_edge22"><a xlink:href="bogus" xlink:title=" PAKNYGDPMKTPKN -&gt; PAKNYGDPMKTPKD Min. att. 100%  max: 100%">
<path fill="none" stroke="black" stroke-width="8" d="M382.35,-410.31C405.98,-435.39 452.33,-479.66 502,-500 553.68,-521.16 616,-528.02 665.92,-529.54"/>
<polygon fill="black" stroke="black" stroke-width="8" points="665.57,-536.53 675.7,-529.73 665.84,-522.53 665.57,-536.53"/>
</a>
</g>
</g>
<!-- PAKNYGDPMKTPKN&#45;&gt;PAKHURDAMKN -->
<g id="edge11" class="edge">
<title>PAKNYGDPMKTPKN-&gt;PAKHURDAMKN</title>
<g id="a_edge11"><a xlink:href="bogus" xlink:title=" PAKNYGDPMKTPKN -&gt; PAKHURDAMKN Min. att. 0%  max: 0%">
<path fill="none" stroke="black" d="M404.35,-410.49C431.1,-422.56 467.96,-437.6 502,-446 562.02,-460.82 632.02,-467.5 683.23,-470.52"/>
<polygon fill="black" stroke="black" points="682.83,-474 693.01,-471.06 683.21,-467.01 682.83,-474"/>
</a>
</g>
</g>
<!-- PAKNYGDPMKTPKN&#45;&gt;PAKNEADPKMAXKN_FITTED -->
<g id="edge10" class="edge">
<title>PAKNYGDPMKTPKN-&gt;PAKNEADPKMAXKN_FITTED</title>
<g id="a_edge10"><a xlink:href="bogus" xlink:title=" PAKNYGDPMKTPKN -&gt; PAKNEADPKMAXKN_FITTED Min. att. 100%  max: 100%">
<path fill="none" stroke="black" stroke-width="8" d="M466.31,-398.95C487.92,-400.45 511.57,-402.09 535.75,-403.77"/>
<polygon fill="black" stroke="black" stroke-width="8" points="535.14,-410.74 545.6,-404.45 536.11,-396.77 535.14,-410.74"/>
</a>
</g>
</g>
<!-- PAKNYGDPMKTPKN&#45;&gt;PAKNYGDPMKTPXN -->
<g id="edge4" class="edge">
<title>PAKNYGDPMKTPKN-&gt;PAKNYGDPMKTPXN</title>
<g id="a_edge4"><a xlink:href="bogus" xlink:title=" PAKNYGDPMKTPKN -&gt; PAKNYGDPMKTPXN Min. att. -43%  max: 10%">
<path fill="none" stroke="black" stroke-width="4.32" d="M466.31,-385.05C528.25,-380.75 607.01,-375.29 666.69,-371.16"/>
<polygon fill="black" stroke="black" stroke-width="4.32" points="666.79,-374.94 676.5,-370.48 666.26,-367.4 666.79,-374.94"/>
</a>
</g>
</g>
<!-- PAKNYGDPMKTPKN&#45;&gt;PAKNYWRTINFMCN_FITTED -->
<g id="edge8" class="edge">
<title>PAKNYGDPMKTPKN-&gt;PAKNYWRTINFMCN_FITTED</title>
<g id="a_edge8"><a xlink:href="bogus" xlink:title=" PAKNYGDPMKTPKN -&gt; PAKNYWRTINFMCN_FITTED Min. att. -24%  max: 98%">
<path fill="none" stroke="black" stroke-width="8" d="M404.35,-373.51C431.1,-361.44 467.96,-346.4 502,-338 514.24,-334.98 526.89,-332.3 539.71,-329.91"/>
<polygon fill="black" stroke="black" stroke-width="8" points="540.51,-336.88 549.15,-328.26 538.09,-323.09 540.51,-336.88"/>
</a>
</g>
</g>
<!-- PAKNYGDPMKTPKN&#45;&gt;PAKNYGDPFCSTKN -->
<g id="edge15" class="edge">
<title>PAKNYGDPMKTPKN-&gt;PAKNYGDPFCSTKN</title>
<g id="a_edge15"><a xlink:href="bogus" xlink:title=" PAKNYGDPMKTPKN -&gt; PAKNYGDPFCSTKN Min. att. 100%  max: 100%">
<path fill="none" stroke="black" stroke-width="8" d="M382.35,-373.69C405.98,-348.61 452.33,-304.34 502,-284 504.52,-282.97 507.07,-281.97 509.63,-281.01"/>
<polygon fill="black" stroke="black" stroke-width="8" points="511.9,-287.63 519.07,-277.76 507.34,-274.39 511.9,-287.63"/>
</a>
</g>
</g>
<!-- PAKNYGDPMKTPKN&#45;&gt;PAKFMLBLMTWOKN -->
<g id="edge1" class="edge">
<title>PAKNYGDPMKTPKN-&gt;PAKFMLBLMTWOKN</title>
<g id="a_edge1"><a xlink:href="bogus" xlink:title=" PAKNYGDPMKTPKN -&gt; PAKFMLBLMTWOKN Min. att. -255%  max: 619%">
<path fill="none" stroke="black" stroke-width="8" d="M375.15,-373.72C393.67,-338.86 439.28,-263.4 502,-230 551.03,-203.89 612.92,-196.9 663.27,-196.54"/>
<polygon fill="black" stroke="black" stroke-width="8" points="663.18,-203.54 673.24,-196.62 663.29,-189.54 663.18,-203.54"/>
</a>
</g>
</g>
<!-- PAKNYWRTFORMCN_FITTED -->
<g id="node17" class="node">
<title>PAKNYWRTFORMCN_FITTED</title>
<g id="a_node17"><a xlink:title="Fitted  value:PAKNYWRTFORMCN
FRML &lt;FIT&gt; PAKNYWRTFORMCN_FITTED = PAKNYWRTFORMCN(-1)*EXP( (-0.132832689997107-0.3*(LOG(PAKNYWRTFORMCN(-1))-LOG(PAKNYGDPFCSTXN(-1))-LOG(PAKNYGDPPOTLKN(-1)/PAKLMEMPSTRLCN(-1)))+0.2*((LOG(PAKNYWRTFORMCN(-1)))-(LOG(PAKNYWRTFORMCN(-2))))+(1-0.2)*(0.5*((LOG(PAKNYGDPFCSTXN(-1)))-(LOG(PAKNYGDPFCSTXN(-2))))+0.5*(PAKINFLEXPT/100)+((LOG(PAKNYGDPMKTPKN/PAKLMEMPSTRLCN))-(LOG(PAKNYGDPMKTPKN(-1)/PAKLMEMPSTRLCN(-1)))))-0.2*(PAKLMUNRTOTLCN-PAKLMUNRSTRLCN)/100) ) $">
<polygon fill="#63b8ff" stroke="black" points="961,-167 552,-167 552,-131 961,-131 961,-167"/>
<text text-anchor="start" x="558.5" y="-144.8" font-family="Times New Roman,serif" font-size="14.00" fill="blue">PAKNYWRTFORMCN_FITTED:Fitted  value:PAKNYWRTFORMCN</text>
</a>
</g>
</g>
<!-- PAKNYGDPMKTPKN&#45;&gt;PAKNYWRTFORMCN_FITTED -->
<g id="edge13" class="edge">
<title>PAKNYGDPMKTPKN-&gt;PAKNYWRTFORMCN_FITTED</title>
<g id="a_edge13"><a xlink:href="bogus" xlink:title=" PAKNYGDPMKTPKN -&gt; PAKNYWRTFORMCN_FITTED Min. att. -24%  max: 98%">
<path fill="none" stroke="black" stroke-width="8" d="M371.46,-373.54C385.28,-330.47 426.04,-223.36 502,-176 512.64,-169.37 524.03,-163.87 535.88,-159.34"/>
<polygon fill="black" stroke="black" stroke-width="8" points="537.89,-166.05 545.09,-156.19 533.36,-152.8 537.89,-166.05"/>
</a>
</g>
</g>
<!-- PAKNYWRTFORMCN -->
<g id="node18" class="node">
<title>PAKNYWRTFORMCN</title>
<g id="a_node18"><a xlink:title="PAKNYWRTFORMCN
FRML &lt;Z,EXO&gt; PAKNYWRTFORMCN = (PAKNYWRTFORMCN(-1)*EXP(PAKNYWRTFORMCN_A+ (-0.132832689997107-0.3*(LOG(PAKNYWRTFORMCN(-1))-LOG(PAKNYGDPFCSTXN(-1))-LOG(PAKNYGDPPOTLKN(-1)/PAKLMEMPSTRLCN(-1)))+0.2*((LOG(PAKNYWRTFORMCN(-1)))-(LOG(PAKNYWRTFORMCN(-2))))+(1-0.2)*(0.5*((LOG(PAKNYGDPFCSTXN(-1)))-(LOG(PAKNYGDPFCSTXN(-2))))+0.5*(PAKINFLEXPT/100)+((LOG(PAKNYGDPMKTPKN/PAKLMEMPSTRLCN))-(LOG(PAKNYGDPMKTPKN(-1)/PAKLMEMPSTRLCN(-1)))))-0.2*(PAKLMUNRTOTLCN-PAKLMUNRSTRLCN)/100) )) * (1-PAKNYWRTFORMCN_D)+ PAKNYWRTFORMCN_X*PAKNYWRTFORMCN_D  $">
<polygon fill="#63b8ff" stroke="black" points="831.5,-113 681.5,-113 681.5,-77 831.5,-77 831.5,-113"/>
<text text-anchor="start" x="687.5" y="-90.8" font-family="Times New Roman,serif" font-size="14.00" fill="blue">PAKNYWRTFORMCN:</text>
</a>
</g>
</g>
<!-- PAKNYGDPMKTPKN&#45;&gt;PAKNYWRTFORMCN -->
<g id="edge16" class="edge">
<title>PAKNYGDPMKTPKN-&gt;PAKNYWRTFORMCN</title>
<g id="a_edge16"><a xlink:href="bogus" xlink:title=" PAKNYGDPMKTPKN -&gt; PAKNYWRTFORMCN Min. att. -24%  max: 98%">
<path fill="none" stroke="black" stroke-width="8" d="M369.08,-373.63C378.55,-323.53 412.22,-184.11 502,-122 548.78,-89.64 612.49,-82.97 664.34,-84.35"/>
<polygon fill="black" stroke="black" stroke-width="8" points="663.8,-91.33 674.1,-84.77 664.41,-77.34 663.8,-91.33"/>
</a>
</g>
</g>
<!-- PAKNYWRTINFMCN -->
<g id="node23" class="node">
<title>PAKNYWRTINFMCN</title>
<g id="a_node23"><a xlink:title="PAKNYWRTINFMCN
FRML &lt;Z,EXO&gt; PAKNYWRTINFMCN = (PAKNYWRTINFMCN(-1)*EXP(PAKNYWRTINFMCN_A+ (-0.13526463206061-0.3*(LOG(PAKNYWRTINFMCN(-1))-LOG(PAKNYGDPFCSTXN(-1))-LOG(PAKNYGDPPOTLKN(-1)/PAKLMEMPSTRLCN(-1)))+0.2*((LOG(PAKNYWRTINFMCN(-1)))-(LOG(PAKNYWRTINFMCN(-2))))+(1-0.2)*(0.5*((LOG(PAKNYGDPFCSTXN(-1)))-(LOG(PAKNYGDPFCSTXN(-2))))+0.5*(PAKINFLEXPT/100)+((LOG(PAKNYGDPMKTPKN/PAKLMEMPSTRLCN))-(LOG(PAKNYGDPMKTPKN(-1)/PAKLMEMPSTRLCN(-1)))))-0.2*(PAKLMUNRTOTLCN-PAKLMUNRSTRLCN)/100) )) * (1-PAKNYWRTINFMCN_D)+ PAKNYWRTINFMCN_X*PAKNYWRTINFMCN_D  $">
<polygon fill="#63b8ff" stroke="black" points="829,-59 684,-59 684,-23 829,-23 829,-59"/>
<text text-anchor="start" x="690.5" y="-36.8" font-family="Times New Roman,serif" font-size="14.00" fill="blue">PAKNYWRTINFMCN:</text>
</a>
</g>
</g>
<!-- PAKNYGDPMKTPKN&#45;&gt;PAKNYWRTINFMCN -->
<g id="edge7" class="edge">
<title>PAKNYGDPMKTPKN-&gt;PAKNYWRTINFMCN</title>
<g id="a_edge7"><a xlink:href="bogus" xlink:title=" PAKNYGDPMKTPKN -&gt; PAKNYWRTINFMCN Min. att. -24%  max: 98%">
<path fill="none" stroke="black" stroke-width="8" d="M367.44,-373.82C372.95,-317.55 398,-145.39 502,-68 548.7,-33.25 614.32,-27.08 667.1,-29.29"/>
<polygon fill="black" stroke="black" stroke-width="8" points="666.38,-36.26 676.78,-29.87 667.21,-22.29 666.38,-36.26"/>
</a>
</g>
</g>
<!-- PAKNEGDIFTOTKN -->
<g id="node16" class="node">
<title>PAKNEGDIFTOTKN</title>
<g id="a_node16"><a xlink:title="Investment real
FRML  &lt;&gt; PAKNEGDIFTOTKN = PAKNEGDIFGOVKN+PAKNEGDIFPRVKN $">
<polygon fill="#63b8ff" stroke="black" points="225.5,-464 2.5,-464 2.5,-428 225.5,-428 225.5,-464"/>
<text text-anchor="start" x="9" y="-441.8" font-family="Times New Roman,serif" font-size="14.00" fill="blue">PAKNEGDIFTOTKN:Investment real</text>
</a>
</g>
</g>
<!-- PAKNEGDIFTOTKN&#45;&gt;PAKNYGDPMKTPKN -->
<g id="edge23" class="edge">
<title>PAKNEGDIFTOTKN-&gt;PAKNYGDPMKTPKN</title>
<g id="a_edge23"><a xlink:href="bogus" xlink:title=" PAKNEGDIFTOTKN -&gt; PAKNYGDPMKTPKN Min. att. -1388%  max: 1469%">
<path fill="none" stroke="black" stroke-width="8" d="M200,-427.57C220.12,-423.2 241.77,-418.51 262.54,-414"/>
<polygon fill="black" stroke="black" stroke-width="8" points="263.86,-420.88 272.15,-411.92 260.89,-407.2 263.86,-420.88"/>
</a>
</g>
</g>
<!-- PAKNEIMPGNFSKN -->
<g id="node19" class="node">
<title>PAKNEIMPGNFSKN</title>
<g id="a_node19"><a xlink:title="Imports real
FRML &lt;Z,EXO&gt; PAKNEIMPGNFSKN = (PAKNEIMPGNFSKN(-1)*EXP(PAKNEIMPGNFSKN_A+ (-0.324143718656754*(LOG(PAKNEIMPGNFSKN(-1))-LOG(PAKNEGDETTOTKN(-1))+0.8*LOG(PAKNEIMPGNFSXN(-1)/PAKNYGDPFCSTXN(-1)))-0.583459272245018+1*((LOG(PAKNEGDETTOTKN))-(LOG(PAKNEGDETTOTKN(-1))))-0.0921874580409631*((LOG(PAKNEIMPGNFSXN/PAKNYGDPFCSTXN))-(LOG(PAKNEIMPGNFSXN(-1)/PAKNYGDPFCSTXN(-1))))-0.0361746331863615*DURING_2012) )) * (1-PAKNEIMPGNFSKN_D)+ PAKNEIMPGNFSKN_X*PAKNEIMPGNFSKN_D  $">
<polygon fill="#63b8ff" stroke="black" points="217,-410 11,-410 11,-374 217,-374 217,-410"/>
<text text-anchor="start" x="17" y="-387.8" font-family="Times New Roman,serif" font-size="14.00" fill="blue">PAKNEIMPGNFSKN:Imports real</text>
</a>
</g>
</g>
<!-- PAKNEIMPGNFSKN&#45;&gt;PAKNYGDPMKTPKN -->
<g id="edge3" class="edge">
<title>PAKNEIMPGNFSKN-&gt;PAKNYGDPMKTPKN</title>
<g id="a_edge3"><a xlink:href="bogus" xlink:title=" PAKNEIMPGNFSKN -&gt; PAKNYGDPMKTPKN Min. att. -2741%  max: 3279%">
<path fill="none" stroke="black" stroke-width="8" d="M217.36,-392C227.03,-392 236.89,-392 246.69,-392"/>
<polygon fill="black" stroke="black" stroke-width="8" points="246.67,-399 256.67,-392 246.67,-385 246.67,-399"/>
</a>
</g>
</g>
<!-- PAKADAP -->
<g id="node20" class="node">
<title>PAKADAP</title>
<g id="a_node20"><a xlink:title="PAKADAP
Exogen">
<polygon fill="yellow" stroke="black" points="153.5,-356 74.5,-356 74.5,-320 153.5,-320 153.5,-356"/>
<text text-anchor="start" x="81" y="-333.8" font-family="Times New Roman,serif" font-size="14.00" fill="blue">PAKADAP:</text>
</a>
</g>
</g>
<!-- PAKADAP&#45;&gt;PAKNYGDPMKTPKN -->
<g id="edge9" class="edge">
<title>PAKADAP-&gt;PAKNYGDPMKTPKN</title>
<g id="a_edge9"><a xlink:href="bogus" xlink:title=" PAKADAP -&gt; PAKNYGDPMKTPKN Min. att. -0%  max: 0%">
<path fill="none" stroke="black" d="M153.91,-346.44C184.35,-353.04 228.03,-362.51 267.68,-371.11"/>
<polygon fill="black" stroke="black" points="266.75,-374.49 277.26,-373.19 268.23,-367.65 266.75,-374.49"/>
</a>
</g>
</g>
<!-- PAKNECONGOVTKN -->
<g id="node21" class="node">
<title>PAKNECONGOVTKN</title>
<g id="a_node21"><a xlink:title="Gov. Cons real
FRML  &lt;&gt; PAKNECONGOVTKN = PAKNECONGOVTCN/PAKNECONGOVTXN $">
<polygon fill="#63b8ff" stroke="black" points="228,-302 0,-302 0,-266 228,-266 228,-302"/>
<text text-anchor="start" x="6" y="-279.8" font-family="Times New Roman,serif" font-size="14.00" fill="blue">PAKNECONGOVTKN:Gov. Cons real</text>
</a>
</g>
</g>
<!-- PAKNECONGOVTKN&#45;&gt;PAKNYGDPMKTPKN -->
<g id="edge5" class="edge">
<title>PAKNECONGOVTKN-&gt;PAKNYGDPMKTPKN</title>
<g id="a_edge5"><a xlink:href="bogus" xlink:title=" PAKNECONGOVTKN -&gt; PAKNYGDPMKTPKN Min. att. -2281%  max: 2866%">
<path fill="none" stroke="black" stroke-width="8" d="M203.72,-302.47C212.03,-305.01 220.24,-307.85 228,-311 262.43,-324.98 298.43,-346.79 324.73,-364.26"/>
<polygon fill="black" stroke="black" stroke-width="8" points="320.67,-369.96 332.88,-369.78 328.53,-358.37 320.67,-369.96"/>
</a>
</g>
</g>
<!-- PAKNEGDISTKBKN -->
<g id="node22" class="node">
<title>PAKNEGDISTKBKN</title>
<g id="a_node22"><a xlink:title="Stock real
Exogen">
<polygon fill="yellow" stroke="black" points="210.5,-248 17.5,-248 17.5,-212 210.5,-212 210.5,-248"/>
<text text-anchor="start" x="24" y="-225.8" font-family="Times New Roman,serif" font-size="14.00" fill="blue">PAKNEGDISTKBKN:Stock real</text>
</a>
</g>
</g>
<!-- PAKNEGDISTKBKN&#45;&gt;PAKNYGDPMKTPKN -->
<g id="edge12" class="edge">
<title>PAKNEGDISTKBKN-&gt;PAKNYGDPMKTPKN</title>
<g id="a_edge12"><a xlink:href="bogus" xlink:title=" PAKNEGDISTKBKN -&gt; PAKNYGDPMKTPKN Min. att. -0%  max: 0%">
<path fill="none" stroke="black" d="M209.61,-248.4C215.99,-250.91 222.18,-253.76 228,-257 276.73,-284.14 319.96,-333.63 344,-364.56"/>
<polygon fill="black" stroke="black" points="341.06,-366.48 349.91,-372.31 346.63,-362.24 341.06,-366.48"/>
</a>
</g>
</g>
<!-- PAKNEEXPGNFSKN -->
<g id="node24" class="node">
<title>PAKNEEXPGNFSKN</title>
<g id="a_node24"><a xlink:title="Exports real
FRML &lt;Z,EXO&gt; PAKNEEXPGNFSKN = (PAKNEEXPGNFSKN(-1)*EXP(PAKNEEXPGNFSKN_A+ (-0.35*(LOG(PAKNEEXPGNFSKN(-1))-LOG(PAKXMKT(-1))-0.6*LOG(PAKNEEXPGNFSXN(-1)/(PAKNYGDPFCSTXN(-1))))+1*((LOG(PAKXMKT))-(LOG(PAKXMKT(-1))))+0.3*((LOG(PAKNEEXPGNFSXN/(PAKNYGDPFCSTXN)))-(LOG(PAKNEEXPGNFSXN(-1)/(PAKNYGDPFCSTXN(-1)))))+4.38465374402991-0.237469889780178*DURING_1999-0.230689812873392*DURING_1998+0.320967524344658*DURING_1991+0.250252413901575*DURING_1986) )) * (1-PAKNEEXPGNFSKN_D)+ PAKNEEXPGNFSKN_X*PAKNEEXPGNFSKN_D  $">
<polygon fill="#63b8ff" stroke="black" points="217,-194 11,-194 11,-158 217,-158 217,-194"/>
<text text-anchor="start" x="17" y="-171.8" font-family="Times New Roman,serif" font-size="14.00" fill="blue">PAKNEEXPGNFSKN:Exports real</text>
</a>
</g>
</g>
<!-- PAKNEEXPGNFSKN&#45;&gt;PAKNYGDPMKTPKN -->
<g id="edge6" class="edge">
<title>PAKNEEXPGNFSKN-&gt;PAKNYGDPMKTPKN</title>
<g id="a_edge6"><a xlink:href="bogus" xlink:title=" PAKNEEXPGNFSKN -&gt; PAKNYGDPMKTPKN Min. att. -267%  max: 190%">
<path fill="none" stroke="black" stroke-width="8" d="M212.8,-194.48C218.11,-196.97 223.23,-199.8 228,-203 286.39,-242.16 328.21,-315.34 349.03,-358.24"/>
<polygon fill="black" stroke="black" stroke-width="8" points="342.67,-361.17 353.24,-367.26 355.35,-355.24 342.67,-361.17"/>
</a>
</g>
</g>
</g>
</svg>