<svg xmlns="http://www.w3.org/2000/svg" xmlns:xlink="http://www.w3.org/1999/xlink" width="432pt" height="240pt" viewBox="0.00 0.00 432.00 239.53">
<g id="graph0" class="graph" transform="scale(0.2818 0.2818) rotate(0) translate(4 846)">
<title>TD</title>
<polygon fill="white" stroke="transparent" points="-4,4 -4,-846 1529,-846 1529,4 -4,4"/>
<text text-anchor="middle" x="762.5" y="-7.8" font-family="Times New Roman,serif" font-size="14.00">PAKNYGDPMKTPKN</text>
<!-- PAKNYGDPFCSTXN -->
<g id="node1" class="node">
<title>PAKNYGDPFCSTXN</title>
<g id="a_node1"><a xlink:title="GDP Factor Cost Local Currency units Implicit Price deflator
FRML &lt;DAMP,STOC&gt; PAKNYGDPFCSTXN = (PAKNYGDPFCSTXN(-1)*EXP(PAKNYGDPFCSTXN_A+ (0.6*((LOG(PAKNYGDPFCSTXN(-1)))-(LOG(PAKNYGDPFCSTXN(-2))))+(1-0.6)*(0.7*PAKINFLEXPT/100+(1-0.7)*((LOG(PAKPSTAR(-1)))-(LOG(PAKPSTAR(-2)))))+0.0935726784287011*PAKNYGDPGAP_/100) )) * (1-PAKNYGDPFCSTXN_D)+ PAKNYGDPFCSTXN_X*PAKNYGDPFCSTXN_D  $">
<polygon fill="#63b8ff" stroke="black" points="478,-653 0,-653 0,-617 478,-617 478,-653"/>
<text text-anchor="start" x="6" y="-630.8" font-family="Times New Roman,serif" font-size="14.00" fill="blue">PAKNYGDPFCSTXN:GDP Factor Cost Local Currency units Implicit Price deflator</text>
</a>
</g>
</g>
<!-- PAKNEIMPGNFSKN -->
<g id="node9" class="node">
<title>PAKNEIMPGNFSKN</title>
<g id="a_node9"><a xlink:title="Imports real
FRML &lt;DAMP,STOC&gt; PAKNEIMPGNFSKN = (PAKNEIMPGNFSKN(-1)*EXP(PAKNEIMPGNFSKN_A+ (-0.324143718656754*(LOG(PAKNEIMPGNFSKN(-1))-LOG(PAKNEGDETTOTKN(-1))+0.8*LOG(PAKNEIMPGNFSXN(-1)/PAKNYGDPFCSTXN(-1)))-0.583459272245018+1*((LOG(PAKNEGDETTOTKN))-(LOG(PAKNEGDETTOTKN(-1))))-0.0921874580409631*((LOG(PAKNEIMPGNFSXN/PAKNYGDPFCSTXN))-(LOG(PAKNEIMPGNFSXN(-1)/PAKNYGDPFCSTXN(-1))))-0.0361746331863615*DURING_2012) )) * (1-PAKNEIMPGNFSKN_D)+ PAKNEIMPGNFSKN_X*PAKNEIMPGNFSKN_D  $">
<polygon fill="#63b8ff" stroke="black" points="731,-680 525,-680 525,-644 731,-644 731,-680"/>
<text text-anchor="start" x="531" y="-657.8" font-family="Times New Roman,serif" font-size="14.00" fill="blue">PAKNEIMPGNFSKN:Imports real</text>
</a>
</g>
</g>
<!-- PAKNYGDPFCSTXN&#45;&gt;PAKNEIMPGNFSKN -->
<g id="edge3" class="edge">
<title>PAKNYGDPFCSTXN-&gt;PAKNEIMPGNFSKN</title>
<g id="a_edge3"><a xlink:href="bogus" xlink:title=" PAKNYGDPFCSTXN -&gt; PAKNEIMPGNFSKN Min. att. -581%  max: 1556%">
<path fill="none" stroke="black" stroke-width="8" d="M478.21,-651.62C490.74,-652.49 503,-653.35 514.78,-654.17"/>
<polygon fill="black" stroke="black" stroke-width="8" points="514.53,-661.17 524.99,-654.88 515.5,-647.2 514.53,-661.17"/>
</a>
</g>
</g>
<!-- PAKNEEXPGNFSKN -->
<g id="node18" class="node">
<title>PAKNEEXPGNFSKN</title>
<g id="a_node18"><a xlink:title="Exports real
FRML &lt;DAMP,STOC&gt; PAKNEEXPGNFSKN = (PAKNEEXPGNFSKN(-1)*EXP(PAKNEEXPGNFSKN_A+ (-0.35*(LOG(PAKNEEXPGNFSKN(-1))-LOG(PAKXMKT(-1))-0.6*LOG(PAKNEEXPGNFSXN(-1)/(PAKNYGDPFCSTXN(-1))))+1*((LOG(PAKXMKT))-(LOG(PAKXMKT(-1))))+0.3*((LOG(PAKNEEXPGNFSXN/(PAKNYGDPFCSTXN)))-(LOG(PAKNEEXPGNFSXN(-1)/(PAKNYGDPFCSTXN(-1)))))+4.38465374402991-0.237469889780178*DURING_1999-0.230689812873392*DURING_1998+0.320967524344658*DURING_1991+0.250252413901575*DURING_1986) )) * (1-PAKNEEXPGNFSKN_D)+ PAKNEEXPGNFSKN_X*PAKNEEXPGNFSKN_D  $">
<polygon fill="#63b8ff" stroke="black" points="731,-599 525,-599 525,-563 731,-563 731,-599"/>
<text text-anchor="start" x="531" y="-576.8" font-family="Times New Roman,serif" font-size="14.00" fill="blue">PAKNEEXPGNFSKN:Exports real</text>
</a>
</g>
</g>
<!-- PAKNYGDPFCSTXN&#45;&gt;PAKNEEXPGNFSKN -->
<g id="edge28" class="edge">
<title>PAKNYGDPFCSTXN-&gt;PAKNEEXPGNFSKN</title>
<g id="a_edge28"><a xlink:href="bogus" xlink:title=" PAKNYGDPFCSTXN -&gt; PAKNEEXPGNFSKN Min. att. 51%  max: 169%">
<path fill="none" stroke="black" stroke-width="8" d="M411.13,-616.97C433.65,-614.19 456.4,-611.18 478,-608 492.61,-605.85 507.99,-603.34 523.09,-600.74"/>
<polygon fill="black" stroke="black" stroke-width="8" points="524.32,-607.63 532.97,-599.02 521.91,-593.84 524.32,-607.63"/>
</a>
</g>
</g>
<!-- PAKNECONPRVTXN -->
<g id="node2" class="node">
<title>PAKNECONPRVTXN</title>
<g id="a_node2"><a xlink:title="Implicit LCU defl., Pvt. Cons., 2000 = 1
FRML &lt;IDENT&gt; PAKNECONPRVTXN = ((PAKNECONENGYSH**PAKCESENGYCON)*PAKNECONENGYXN**(1-PAKCESENGYCON)+(PAKNECONOTHRSH**PAKCESENGYCON)*PAKNECONOTHRXN**(1-PAKCESENGYCON))**(1/(1-PAKCESENGYCON)) $">
<polygon fill="#63b8ff" stroke="black" points="422.5,-329 55.5,-329 55.5,-293 422.5,-293 422.5,-329"/>
<text text-anchor="start" x="62" y="-306.8" font-family="Times New Roman,serif" font-size="14.00" fill="blue">PAKNECONPRVTXN:Implicit LCU defl., Pvt. Cons., 2000 = 1</text>
</a>
</g>
</g>
<!-- PAKNECONPRVTKN -->
<g id="node28" class="node">
<title>PAKNECONPRVTKN</title>
<g id="a_node28"><a xlink:title="HH. Cons Real
FRML &lt;DAMP,STOC&gt; PAKNECONPRVTKN = (PAKNECONPRVTKN(-1)*EXP(PAKNECONPRVTKN_A+ (-0.2*(LOG(PAKNECONPRVTKN(-1))-LOG(1.21203101101442)-LOG((((PAKBXFSTREMTCD(-1)-PAKBMFSTREMTCD(-1))*PAKPANUSATLS(-1))+PAKGGEXPTRNSCN(-1)+PAKNYYWBTOTLCN(-1)*(1-PAKGGREVDRCTXN(-1)/100))/PAKNECONPRVTXN(-1)))+0.763938860758873*((LOG((((PAKBXFSTREMTCD-PAKBMFSTREMTCD)*PAKPANUSATLS)+PAKGGEXPTRNSCN+PAKNYYWBTOTLCN*(1-PAKGGREVDRCTXN/100))/PAKNECONPRVTXN))-(LOG((((PAKBXFSTREMTCD(-1)-PAKBMFSTREMTCD(-1))*PAKPANUSATLS(-1))+PAKGGEXPTRNSCN(-1)+PAKNYYWBTOTLCN(-1)*(1-PAKGGREVDRCTXN(-1)/100))/PAKNECONPRVTXN(-1))))-0.0634474791568939*DURING_2009-0.3*(PAKFMLBLPOLYXN/100-((LOG(PAKNECONPRVTXN))-(LOG(PAKNECONPRVTXN(-1)))))) )) * (1-PAKNECONPRVTKN_D)+ PAKNECONPRVTKN_X*PAKNECONPRVTKN_D  $">
<polygon fill="#63b8ff" stroke="black" points="741,-221 515,-221 515,-185 741,-185 741,-221"/>
<text text-anchor="start" x="521" y="-198.8" font-family="Times New Roman,serif" font-size="14.00" fill="blue">PAKNECONPRVTKN:HH. Cons Real</text>
</a>
</g>
</g>
<!-- PAKNECONPRVTXN&#45;&gt;PAKNECONPRVTKN -->
<g id="edge9" class="edge">
<title>PAKNECONPRVTXN-&gt;PAKNECONPRVTKN</title>
<g id="a_edge9"><a xlink:href="bogus" xlink:title=" PAKNECONPRVTXN -&gt; PAKNECONPRVTKN Min. att. -1475%  max: 7662%">
<path fill="none" stroke="black" stroke-width="8" d="M422.79,-297.56C441.65,-294.01 460.35,-289.56 478,-284 519.86,-270.8 563.5,-245.51 592.64,-226.68"/>
<polygon fill="black" stroke="black" stroke-width="8" points="596.68,-232.4 601.21,-221.06 589,-220.69 596.68,-232.4"/>
</a>
</g>
</g>
<!-- PAKNYGDPMKTPXN -->
<g id="node3" class="node">
<title>PAKNYGDPMKTPXN</title>
<g id="a_node3"><a xlink:title="GDP, Marker Prices, LCU Price defl., 2000 = 1
FRML &lt;IDENT&gt; PAKNYGDPMKTPXN = PAKNYGDPMKTPCN/PAKNYGDPMKTPKN $">
<polygon fill="#63b8ff" stroke="black" points="1475,-842 1066,-842 1066,-806 1475,-806 1475,-842"/>
<text text-anchor="start" x="1072.5" y="-819.8" font-family="Times New Roman,serif" font-size="14.00" fill="blue">PAKNYGDPMKTPXN:GDP, Marker Prices, LCU Price defl., 2000 = 1</text>
</a>
</g>
</g>
<!-- PAKNEGDETTOTKN -->
<g id="node4" class="node">
<title>PAKNEGDETTOTKN</title>
<g id="a_node4"><a xlink:title="Total demand, constant LCU
FRML &lt;IDENT&gt; PAKNEGDETTOTKN = (PAKNECONPRVTKN+PAKNECONGOVTKN+PAKNEGDIFTOTKN+PAKNEGDISTKBKN+PAKNYGDPDISCKN) $">
<polygon fill="#63b8ff" stroke="black" points="389.5,-761 88.5,-761 88.5,-725 389.5,-725 389.5,-761"/>
<text text-anchor="start" x="95" y="-738.8" font-family="Times New Roman,serif" font-size="14.00" fill="blue">PAKNEGDETTOTKN:Total demand, constant LCU</text>
</a>
</g>
</g>
<!-- PAKNEGDETTOTKN&#45;&gt;PAKNEIMPGNFSKN -->
<g id="edge17" class="edge">
<title>PAKNEGDETTOTKN-&gt;PAKNEIMPGNFSKN</title>
<g id="a_edge17"><a xlink:href="bogus" xlink:title=" PAKNEGDETTOTKN -&gt; PAKNEIMPGNFSKN Min. att. -327%  max: 915%">
<path fill="none" stroke="black" stroke-width="8" d="M389.78,-731.44C419.24,-727.64 449.76,-722.62 478,-716 511.45,-708.16 547.73,-695.11 576.11,-683.81"/>
<polygon fill="black" stroke="black" stroke-width="8" points="578.76,-690.29 585.41,-680.06 573.52,-677.31 578.76,-690.29"/>
</a>
</g>
</g>
<!-- PAKFMLBLMTWOKN_FITTED -->
<g id="node5" class="node">
<title>PAKFMLBLMTWOKN_FITTED</title>
<g id="a_node5"><a xlink:title="Fitted  value:Real Base Money (Mil. Real LCU)
FRML &lt;FIT&gt; PAKFMLBLMTWOKN_FITTED = PAKFMLBLMTWOKN(-1)*EXP( (-0.2*(LOG(PAKFMLBLMTWOKN(-1))-LOG(PAKNYGDPMKTPKN(-1))+0.1*PAKFMLBLPOLYXN(-1)/100-LOG(PAKVELOCITY(-1)))-0.32628131688075+0.7*((LOG(PAKNYGDPMKTPKN))-(LOG(PAKNYGDPMKTPKN(-1))))-1*((PAKFMLBLPOLYXN/100)-(PAKFMLBLPOLYXN(-1)/100))-((LOG(PAKVELOCITY))-(LOG(PAKVELOCITY(-1))))) ) $">
<polygon fill="#63b8ff" stroke="black" points="1506,-788 1035,-788 1035,-752 1506,-752 1506,-788"/>
<text text-anchor="start" x="1041.5" y="-765.8" font-family="Times New Roman,serif" font-size="14.00" fill="blue">PAKFMLBLMTWOKN_FITTED:Fitted  value:Real Base Money (Mil. Real LCU)</text>
</a>
</g>
</g>
<!-- PAKNECONGOVTKN -->
<g id="node6" class="node">
<title>PAKNECONGOVTKN</title>
<g id="a_node6"><a xlink:title="Gov. Cons real
FRML &lt;IDENT&gt; PAKNECONGOVTKN = PAKNECONGOVTCN/PAKNECONGOVTXN $">
<polygon fill="#63b8ff" stroke="black" points="742,-518 514,-518 514,-482 742,-482 742,-518"/>
<text text-anchor="start" x="520" y="-495.8" font-family="Times New Roman,serif" font-size="14.00" fill="blue">PAKNECONGOVTKN:Gov. Cons real</text>
</a>
</g>
</g>
<!-- PAKNYGDPMKTPKN -->
<g id="node25" class="node">
<title>PAKNYGDPMKTPKN</title>
<g id="a_node25"><a xlink:title="Real GDP
FRML &lt;IDENT&gt; PAKNYGDPMKTPKN = PAKNECONPRVTKN+PAKNECONGOVTKN+PAKNEGDIFTOTKN+PAKNEGDISTKBKN+PAKNEEXPGNFSKN-PAKNEIMPGNFSKN+PAKNYGDPDISCKN+PAKADAP*PAKDISPREPKN $">
<polygon fill="red" stroke="black" points="980,-518 778,-518 778,-482 980,-482 980,-518"/>
<text text-anchor="start" x="784" y="-495.8" font-family="Times New Roman,serif" font-size="14.00" fill="blue">PAKNYGDPMKTPKN:Real GDP</text>
</a>
</g>
</g>
<!-- PAKNECONGOVTKN&#45;&gt;PAKNYGDPMKTPKN -->
<g id="edge6" class="edge">
<title>PAKNECONGOVTKN-&gt;PAKNYGDPMKTPKN</title>
<g id="a_edge6"><a xlink:href="bogus" xlink:title=" PAKNECONGOVTKN -&gt; PAKNYGDPMKTPKN Min. att. -2281%  max: 2866%">
<path fill="none" stroke="black" stroke-width="8" d="M742.21,-500C750.61,-500 759.08,-500 767.47,-500"/>
<polygon fill="black" stroke="black" stroke-width="8" points="767.64,-507 777.64,-500 767.64,-493 767.64,-507"/>
</a>
</g>
</g>
<!-- PAKFMLBLPOLYXN -->
<g id="node7" class="node">
<title>PAKFMLBLPOLYXN</title>
<g id="a_node7"><a xlink:title="Key Policy Interest Rate
FRML &lt;DAMP,STOC&gt; PAKFMLBLPOLYXN = (100*PAKFMLBLPOLYXN_A+100* (0.900155952396245*PAKFMLBLPOLYXN(-1)/100+(1-0.900155952396245)*(PAKMPPOLNATRXN/100+1.2*(((LOG(PAKNECONPRVTXN))-(LOG(PAKNECONPRVTXN(-1))))-PAKINFLEXPT/100)+0.5*PAKNYGDPGAP_/100)) ) * (1-PAKFMLBLPOLYXN_D)+ PAKFMLBLPOLYXN_X*PAKFMLBLPOLYXN_D  $">
<polygon fill="#63b8ff" stroke="black" points="377,-275 101,-275 101,-239 377,-239 377,-275"/>
<text text-anchor="start" x="107" y="-252.8" font-family="Times New Roman,serif" font-size="14.00" fill="blue">PAKFMLBLPOLYXN:Key Policy Interest Rate</text>
</a>
</g>
</g>
<!-- PAKFMLBLPOLYXN&#45;&gt;PAKNECONPRVTKN -->
<g id="edge4" class="edge">
<title>PAKFMLBLPOLYXN-&gt;PAKNECONPRVTKN</title>
<g id="a_edge4"><a xlink:href="bogus" xlink:title=" PAKFMLBLPOLYXN -&gt; PAKNECONPRVTKN Min. att. -1054%  max: 201%">
<path fill="none" stroke="black" stroke-width="8" d="M377.07,-243.02C410.17,-239.21 445.4,-234.8 478,-230 492.61,-227.85 507.99,-225.34 523.09,-222.74"/>
<polygon fill="black" stroke="black" stroke-width="8" points="524.32,-229.63 532.97,-221.02 521.91,-215.84 524.32,-229.63"/>
</a>
</g>
</g>
<!-- PAKPANUSATLS -->
<g id="node8" class="node">
<title>PAKPANUSATLS</title>
<g id="a_node8"><a xlink:title="Exchange rate LCU / US$ - Pakistan
FRML &lt;DAMP,STOC&gt; PAKPANUSATLS = (PAKPANUSATLS(-1)*EXP(PAKPANUSATLS_A+ ((0.295032006650061*((USAINTRXN/100-(( (100 * ( (USANECONPRVTXN) / (USANECONPRVTXN(-1)) -1)) /100+ (100 * ( (USANECONPRVTXN(-1)) / (USANECONPRVTXN(-2)) -1)) /100+ (100 * ( (USANECONPRVTXN(-2)) / (USANECONPRVTXN(-3)) -1)) /100+ (100 * ( (USANECONPRVTXN(-3)) / (USANECONPRVTXN(-4)) -1)) /100)/4.0))-(PAKMPPOLNATRXN/100-PAKINFLEXPT/100))+0.0745339074046556*( (100 * ( (USANECONPRVTXN) / (USANECONPRVTXN(-1)) -1)) /100- (100 * ( (PAKNECONPRVTXN) / (PAKNECONPRVTXN(-1)) -1)) /100))+0.204055946624338*DURING_2009+0.0213) )) * (1-PAKPANUSATLS_D)+ PAKPANUSATLS_X*PAKPANUSATLS_D  $">
<polygon fill="#63b8ff" stroke="black" points="398.5,-221 79.5,-221 79.5,-185 398.5,-185 398.5,-221"/>
<text text-anchor="start" x="86" y="-198.8" font-family="Times New Roman,serif" font-size="14.00" fill="blue">PAKPANUSATLS:Exchange rate LCU / US$ - Pakistan</text>
</a>
</g>
</g>
<!-- PAKPANUSATLS&#45;&gt;PAKNECONPRVTKN -->
<g id="edge14" class="edge">
<title>PAKPANUSATLS-&gt;PAKNECONPRVTKN</title>
<g id="a_edge14"><a xlink:href="bogus" xlink:title=" PAKPANUSATLS -&gt; PAKNECONPRVTKN Min. att. -11%  max: 56%">
<path fill="none" stroke="black" stroke-width="5.58" d="M398.52,-203C433.9,-203 470.89,-203 504.55,-203"/>
<polygon fill="black" stroke="black" stroke-width="5.58" points="504.88,-207.89 514.88,-203 504.88,-198.11 504.88,-207.89"/>
</a>
</g>
</g>
<!-- PAKNEIMPGNFSKN&#45;&gt;PAKNYGDPMKTPKN -->
<g id="edge24" class="edge">
<title>PAKNEIMPGNFSKN-&gt;PAKNYGDPMKTPKN</title>
<g id="a_edge24"><a xlink:href="bogus" xlink:title=" PAKNEIMPGNFSKN -&gt; PAKNYGDPMKTPKN Min. att. -2741%  max: 3279%">
<path fill="none" stroke="black" stroke-width="8" d="M672.6,-643.94C694.1,-634.34 720.06,-621.71 742,-608 781.86,-583.1 823.6,-548.48 850.15,-525.21"/>
<polygon fill="black" stroke="black" stroke-width="8" points="855.03,-530.24 857.89,-518.38 845.76,-519.75 855.03,-530.24"/>
</a>
</g>
</g>
<!-- PAKNYGDPGAP_ -->
<g id="node10" class="node">
<title>PAKNYGDPGAP_</title>
<g id="a_node10"><a xlink:title="Output Gap (% of Potential GDP)
FRML &lt;IDENT&gt; PAKNYGDPGAP_ = ((PAKNYGDPMKTPKN/PAKNYGDPPOTLKN-1)*100) $">
<polygon fill="#63b8ff" stroke="black" points="1425,-734 1116,-734 1116,-698 1425,-698 1425,-734"/>
<text text-anchor="start" x="1122.5" y="-711.8" font-family="Times New Roman,serif" font-size="14.00" fill="blue">PAKNYGDPGAP_:Output Gap (% of Potential GDP)</text>
</a>
</g>
</g>
<!-- PAKNEIMPGNFSXN -->
<g id="node11" class="node">
<title>PAKNEIMPGNFSXN</title>
<g id="a_node11"><a xlink:title="Imp., GNFS (NIA), LCU Price defl. 2000 = 1
FRML &lt;IDENT&gt; PAKNEIMPGNFSXN = ((PAKNEIMPENGYSH**PAKCESENGYIMPT)*PAKNVENGNIMPXN**(1-PAKCESENGYIMPT)+(PAKNEIMPOTHRSH**PAKCESENGYIMPT)*PAKNEIMPGSNEXN**(1-PAKCESENGYIMPT))**(1/(1-PAKCESENGYIMPT)) $">
<polygon fill="#63b8ff" stroke="black" points="435,-707 43,-707 43,-671 435,-671 435,-707"/>
<text text-anchor="start" x="49" y="-684.8" font-family="Times New Roman,serif" font-size="14.00" fill="blue">PAKNEIMPGNFSXN:Imp., GNFS (NIA), LCU Price defl. 2000 = 1</text>
</a>
</g>
</g>
<!-- PAKNEIMPGNFSXN&#45;&gt;PAKNEIMPGNFSKN -->
<g id="edge33" class="edge">
<title>PAKNEIMPGNFSXN-&gt;PAKNEIMPGNFSKN</title>
<g id="a_edge33"><a xlink:href="bogus" xlink:title=" PAKNEIMPGNFSXN -&gt; PAKNEIMPGNFSKN Min. att. -2191%  max: 843%">
<path fill="none" stroke="black" stroke-width="8" d="M435.2,-675.38C462.44,-673.48 489.64,-671.58 514.63,-669.84"/>
<polygon fill="black" stroke="black" stroke-width="8" points="515.34,-676.81 524.83,-669.13 514.37,-662.84 515.34,-676.81"/>
</a>
</g>
</g>
<!-- PAKGGEXPTRNSCN -->
<g id="node12" class="node">
<title>PAKGGEXPTRNSCN</title>
<g id="a_node12"><a xlink:title="Current Transfers
FRML &lt;DAMP,STOC&gt; PAKGGEXPTRNSCN = (0.91020884318931*PAKGGEXPTRNSCN(-1)+(1-0.91020884318931)*(0.06*(PAKGGREVTOTLCN-PAKGGEXPINTPCN(-0))) + PAKGGEXPTRNSCN_A)* (1-PAKGGEXPTRNSCN_D)+ PAKGGEXPTRNSCN_X*PAKGGEXPTRNSCN_D  $">
<polygon fill="#63b8ff" stroke="black" points="357,-167 121,-167 121,-131 357,-131 357,-167"/>
<text text-anchor="start" x="127" y="-144.8" font-family="Times New Roman,serif" font-size="14.00" fill="blue">PAKGGEXPTRNSCN:Current Transfers</text>
</a>
</g>
</g>
<!-- PAKGGEXPTRNSCN&#45;&gt;PAKNECONPRVTKN -->
<g id="edge29" class="edge">
<title>PAKGGEXPTRNSCN-&gt;PAKNECONPRVTKN</title>
<g id="a_edge29"><a xlink:href="bogus" xlink:title=" PAKGGEXPTRNSCN -&gt; PAKNECONPRVTKN Min. att. -153%  max: 29%">
<path fill="none" stroke="black" stroke-width="8" d="M357.02,-160.71C395.61,-164.99 438.71,-170.22 478,-176 492.61,-178.15 507.99,-180.66 523.09,-183.26"/>
<polygon fill="black" stroke="black" stroke-width="8" points="521.91,-190.16 532.97,-184.98 524.32,-176.37 521.91,-190.16"/>
</a>
</g>
</g>
<!-- PAKNYWRTINFMCN -->
<g id="node13" class="node">
<title>PAKNYWRTINFMCN</title>
<g id="a_node13"><a xlink:title="PAKNYWRTINFMCN
FRML &lt;DAMP,STOC&gt; PAKNYWRTINFMCN = (PAKNYWRTINFMCN(-1)*EXP(PAKNYWRTINFMCN_A+ (-0.13526463206061-0.3*(LOG(PAKNYWRTINFMCN(-1))-LOG(PAKNYGDPFCSTXN(-1))-LOG(PAKNYGDPPOTLKN(-1)/PAKLMEMPSTRLCN(-1)))+0.2*((LOG(PAKNYWRTINFMCN(-1)))-(LOG(PAKNYWRTINFMCN(-2))))+(1-0.2)*(0.5*((LOG(PAKNYGDPFCSTXN(-1)))-(LOG(PAKNYGDPFCSTXN(-2))))+0.5*(PAKINFLEXPT/100)+((LOG(PAKNYGDPMKTPKN/PAKLMEMPSTRLCN))-(LOG(PAKNYGDPMKTPKN(-1)/PAKLMEMPSTRLCN(-1)))))-0.2*(PAKLMUNRTOTLCN-PAKLMUNRSTRLCN)/100) )) * (1-PAKNYWRTINFMCN_D)+ PAKNYWRTINFMCN_X*PAKNYWRTINFMCN_D  $">
<polygon fill="#63b8ff" stroke="black" points="1343,-680 1198,-680 1198,-644 1343,-644 1343,-680"/>
<text text-anchor="start" x="1204.5" y="-657.8" font-family="Times New Roman,serif" font-size="14.00" fill="blue">PAKNYWRTINFMCN:</text>
</a>
</g>
</g>
<!-- PAKFMLBLMTWOKN -->
<g id="node14" class="node">
<title>PAKFMLBLMTWOKN</title>
<g id="a_node14"><a xlink:title="Real Base Money (Mil. Real LCU)
FRML &lt;DAMP,STOC&gt; PAKFMLBLMTWOKN = (PAKFMLBLMTWOKN(-1)*EXP(PAKFMLBLMTWOKN_A+ (-0.2*(LOG(PAKFMLBLMTWOKN(-1))-LOG(PAKNYGDPMKTPKN(-1))+0.1*PAKFMLBLPOLYXN(-1)/100-LOG(PAKVELOCITY(-1)))-0.32628131688075+0.7*((LOG(PAKNYGDPMKTPKN))-(LOG(PAKNYGDPMKTPKN(-1))))-1*((PAKFMLBLPOLYXN/100)-(PAKFMLBLPOLYXN(-1)/100))-((LOG(PAKVELOCITY))-(LOG(PAKVELOCITY(-1))))) )) * (1-PAKFMLBLMTWOKN_D)+ PAKFMLBLMTWOKN_X*PAKFMLBLMTWOKN_D  $">
<polygon fill="#63b8ff" stroke="black" points="1443.5,-626 1097.5,-626 1097.5,-590 1443.5,-590 1443.5,-626"/>
<text text-anchor="start" x="1103.5" y="-603.8" font-family="Times New Roman,serif" font-size="14.00" fill="blue">PAKFMLBLMTWOKN:Real Base Money (Mil. Real LCU)</text>
</a>
</g>
</g>
<!-- PAKNEGDIFGOVKN -->
<g id="node15" class="node">
<title>PAKNEGDIFGOVKN</title>
<g id="a_node15"><a xlink:title="Pub investment real
FRML &lt;IDENT&gt; PAKNEGDIFGOVKN = PAKNEGDIFGOVCN/PAKNEGDIFGOVXN $">
<polygon fill="#63b8ff" stroke="black" points="364,-437 114,-437 114,-401 364,-401 364,-437"/>
<text text-anchor="start" x="120" y="-414.8" font-family="Times New Roman,serif" font-size="14.00" fill="blue">PAKNEGDIFGOVKN:Pub investment real</text>
</a>
</g>
</g>
<!-- PAKNEGDIFTOTKN -->
<g id="node16" class="node">
<title>PAKNEGDIFTOTKN</title>
<g id="a_node16"><a xlink:title="Investment real
FRML &lt;IDENT&gt; PAKNEGDIFTOTKN = PAKNEGDIFGOVKN+PAKNEGDIFPRVKN $">
<polygon fill="#63b8ff" stroke="black" points="739.5,-437 516.5,-437 516.5,-401 739.5,-401 739.5,-437"/>
<text text-anchor="start" x="523" y="-414.8" font-family="Times New Roman,serif" font-size="14.00" fill="blue">PAKNEGDIFTOTKN:Investment real</text>
</a>
</g>
</g>
<!-- PAKNEGDIFGOVKN&#45;&gt;PAKNEGDIFTOTKN -->
<g id="edge13" class="edge">
<title>PAKNEGDIFGOVKN-&gt;PAKNEGDIFTOTKN</title>
<g id="a_edge13"><a xlink:href="bogus" xlink:title=" PAKNEGDIFGOVKN -&gt; PAKNEGDIFTOTKN Min. att. 10%  max: 232%">
<path fill="none" stroke="black" stroke-width="8" d="M364.05,-419C409.57,-419 461.02,-419 506.25,-419"/>
<polygon fill="black" stroke="black" stroke-width="8" points="506.4,-426 516.4,-419 506.4,-412 506.4,-426"/>
</a>
</g>
</g>
<!-- PAKNEGDIFTOTKN&#45;&gt;PAKNYGDPMKTPKN -->
<g id="edge31" class="edge">
<title>PAKNEGDIFTOTKN-&gt;PAKNYGDPMKTPKN</title>
<g id="a_edge31"><a xlink:href="bogus" xlink:title=" PAKNEGDIFTOTKN -&gt; PAKNYGDPMKTPKN Min. att. -1388%  max: 1469%">
<path fill="none" stroke="black" stroke-width="8" d="M684.57,-437.08C722.57,-449.44 773.09,-465.87 812.97,-478.84"/>
<polygon fill="black" stroke="black" stroke-width="8" points="810.92,-485.54 822.6,-481.98 815.26,-472.23 810.92,-485.54"/>
</a>
</g>
</g>
<!-- PAKNYGDPFCSTKN -->
<g id="node17" class="node">
<title>PAKNYGDPFCSTKN</title>
<g id="a_node17"><a xlink:title="GDP Factor Cost Local Currency units Volumes National base year
FRML &lt;IDENT&gt; PAKNYGDPFCSTKN = PAKNYGDPMKTPKN-PAKNYTAXNINDKN $">
<polygon fill="#63b8ff" stroke="black" points="1525,-572 1016,-572 1016,-536 1525,-536 1525,-572"/>
<text text-anchor="start" x="1022.5" y="-549.8" font-family="Times New Roman,serif" font-size="14.00" fill="blue">PAKNYGDPFCSTKN:GDP Factor Cost Local Currency units Volumes National base year</text>
</a>
</g>
</g>
<!-- PAKNEEXPGNFSKN&#45;&gt;PAKNYGDPMKTPKN -->
<g id="edge16" class="edge">
<title>PAKNEEXPGNFSKN-&gt;PAKNYGDPMKTPKN</title>
<g id="a_edge16"><a xlink:href="bogus" xlink:title=" PAKNEEXPGNFSKN -&gt; PAKNYGDPMKTPKN Min. att. -267%  max: 190%">
<path fill="none" stroke="black" stroke-width="8" d="M684.57,-562.92C722.57,-550.56 773.09,-534.13 812.97,-521.16"/>
<polygon fill="black" stroke="black" stroke-width="8" points="815.26,-527.77 822.6,-518.02 810.92,-514.46 815.26,-527.77"/>
</a>
</g>
</g>
<!-- PAKNYYWBTOTLCN -->
<g id="node19" class="node">
<title>PAKNYYWBTOTLCN</title>
<g id="a_node19"><a xlink:title="Total Wage Bill
FRML &lt;IDENT&gt; PAKNYYWBTOTLCN = PAKNYWRTTOTLCN*PAKLMEMPTOTLCN $">
<polygon fill="#63b8ff" stroke="black" points="355.5,-113 122.5,-113 122.5,-77 355.5,-77 355.5,-113"/>
<text text-anchor="start" x="129" y="-90.8" font-family="Times New Roman,serif" font-size="14.00" fill="blue">PAKNYYWBTOTLCN:Total Wage Bill</text>
</a>
</g>
</g>
<!-- PAKNYYWBTOTLCN&#45;&gt;PAKNECONPRVTKN -->
<g id="edge19" class="edge">
<title>PAKNYYWBTOTLCN-&gt;PAKNECONPRVTKN</title>
<g id="a_edge19"><a xlink:href="bogus" xlink:title=" PAKNYYWBTOTLCN -&gt; PAKNECONPRVTKN Min. att. -6135%  max: 1200%">
<path fill="none" stroke="black" stroke-width="8" d="M355.65,-99.15C395.15,-102.92 439.13,-109.74 478,-122 519.86,-135.2 563.5,-160.49 592.64,-179.32"/>
<polygon fill="black" stroke="black" stroke-width="8" points="589,-185.31 601.21,-184.94 596.68,-173.6 589,-185.31"/>
</a>
</g>
</g>
<!-- PAKNYWRTFORMCN_FITTED -->
<g id="node20" class="node">
<title>PAKNYWRTFORMCN_FITTED</title>
<g id="a_node20"><a xlink:title="Fitted  value:PAKNYWRTFORMCN
FRML &lt;FIT&gt; PAKNYWRTFORMCN_FITTED = PAKNYWRTFORMCN(-1)*EXP( (-0.132832689997107-0.3*(LOG(PAKNYWRTFORMCN(-1))-LOG(PAKNYGDPFCSTXN(-1))-LOG(PAKNYGDPPOTLKN(-1)/PAKLMEMPSTRLCN(-1)))+0.2*((LOG(PAKNYWRTFORMCN(-1)))-(LOG(PAKNYWRTFORMCN(-2))))+(1-0.2)*(0.5*((LOG(PAKNYGDPFCSTXN(-1)))-(LOG(PAKNYGDPFCSTXN(-2))))+0.5*(PAKINFLEXPT/100)+((LOG(PAKNYGDPMKTPKN/PAKLMEMPSTRLCN))-(LOG(PAKNYGDPMKTPKN(-1)/PAKLMEMPSTRLCN(-1)))))-0.2*(PAKLMUNRTOTLCN-PAKLMUNRSTRLCN)/100) ) $">
<polygon fill="#63b8ff" stroke="black" points="1475,-518 1066,-518 1066,-482 1475,-482 1475,-518"/>
<text text-anchor="start" x="1072.5" y="-495.8" font-family="Times New Roman,serif" font-size="14.00" fill="blue">PAKNYWRTFORMCN_FITTED:Fitted  value:PAKNYWRTFORMCN</text>
</a>
</g>
</g>
<!-- PAKNEGDIFPRVKN -->
<g id="node21" class="node">
<title>PAKNEGDIFPRVKN</title>
<g id="a_node21"><a xlink:title="Prvt. Investment real
FRML &lt;DAMP,STOC&gt; PAKNEGDIFPRVKN = (PAKNEGDIFPRVKN_A*PAKNEGDIKSTKKN(-1)+ (0.00212272413966296+0.970234989019907*(PAKNEGDIFPRVKN(-1)/PAKNEGDIKSTKKN(-2))+(1-0.970234989019907)*(((LOG(PAKNYGDPPOTLKN))-(LOG(PAKNYGDPPOTLKN(-1))))+PAKDEPR)+0.0525240494260597*((LOG(PAKNEKRTTOTLCN/PAKNYGDPFCSTXN))-(LOG(PAKNEKRTTOTLCN(-1)/PAKNYGDPFCSTXN(-1))))) *PAKNEGDIKSTKKN(-1)) * (1-PAKNEGDIFPRVKN_D)+ PAKNEGDIFPRVKN_X*PAKNEGDIFPRVKN_D  $">
<polygon fill="#63b8ff" stroke="black" points="365,-383 113,-383 113,-347 365,-347 365,-383"/>
<text text-anchor="start" x="119" y="-360.8" font-family="Times New Roman,serif" font-size="14.00" fill="blue">PAKNEGDIFPRVKN:Prvt. Investment real</text>
</a>
</g>
</g>
<!-- PAKNEGDIFPRVKN&#45;&gt;PAKNEGDIFTOTKN -->
<g id="edge25" class="edge">
<title>PAKNEGDIFPRVKN-&gt;PAKNEGDIFTOTKN</title>
<g id="a_edge25"><a xlink:href="bogus" xlink:title=" PAKNEGDIFPRVKN -&gt; PAKNEGDIFTOTKN Min. att. -132%  max: 90%">
<path fill="none" stroke="black" stroke-width="8" d="M365.27,-377.63C401.69,-381.73 441.49,-386.63 478,-392 492.61,-394.15 507.99,-396.66 523.09,-399.26"/>
<polygon fill="black" stroke="black" stroke-width="8" points="521.91,-406.16 532.97,-400.98 524.32,-392.37 521.91,-406.16"/>
</a>
</g>
</g>
<!-- PAKNEADPKMAXKN -->
<g id="node22" class="node">
<title>PAKNEADPKMAXKN</title>
<g id="a_node22"><a xlink:title="PAKNEADPKMAXKN
FRML &lt;DAMP,STOC&gt; PAKNEADPKMAXKN = (0*DUMH+((1+0.01)/(0.01+PAKDEPR))*(PAKAVDAMAGE/100)*PAKNYGDPMKTPKN + PAKNEADPKMAXKN_A)* (1-PAKNEADPKMAXKN_D)+ PAKNEADPKMAXKN_X*PAKNEADPKMAXKN_D  $">
<polygon fill="#63b8ff" stroke="black" points="1345,-464 1196,-464 1196,-428 1345,-428 1345,-464"/>
<text text-anchor="start" x="1202.5" y="-441.8" font-family="Times New Roman,serif" font-size="14.00" fill="blue">PAKNEADPKMAXKN:</text>
</a>
</g>
</g>
<!-- PAKNEEXPGNFSXN -->
<g id="node23" class="node">
<title>PAKNEEXPGNFSXN</title>
<g id="a_node23"><a xlink:title="Exp., GNFS (NIA), LCU Price defl. 2000 = 1
FRML &lt;DAMP,STOC&gt; PAKNEEXPGNFSXN = (PAKNEEXPGNFSXN(-1)*EXP(PAKNEEXPGNFSXN_A+ (-0.608980890811034*(LOG(PAKNEEXPGNFSXN(-1))-0.57143018302846*LOG(PAKNYGDPFCSTXN(-1))-(1-0.57143018302846)*LOG(PAKPXKEY(-1)*PAKPANUSATLS(-1)))+0.670599481786233*((LOG(PAKNYGDPFCSTXN))-(LOG(PAKNYGDPFCSTXN(-1))))+(1-0.670599481786233)*((LOG(PAKPXKEY*PAKPANUSATLS))-(LOG(PAKPXKEY(-1)*PAKPANUSATLS(-1))))-1.16883722294664) )) * (1-PAKNEEXPGNFSXN_D)+ PAKNEEXPGNFSXN_X*PAKNEEXPGNFSXN_D  $">
<polygon fill="#63b8ff" stroke="black" points="435,-599 43,-599 43,-563 435,-563 435,-599"/>
<text text-anchor="start" x="49" y="-576.8" font-family="Times New Roman,serif" font-size="14.00" fill="blue">PAKNEEXPGNFSXN:Exp., GNFS (NIA), LCU Price defl. 2000 = 1</text>
</a>
</g>
</g>
<!-- PAKNEEXPGNFSXN&#45;&gt;PAKNEEXPGNFSKN -->
<g id="edge22" class="edge">
<title>PAKNEEXPGNFSXN-&gt;PAKNEEXPGNFSKN</title>
<g id="a_edge22"><a xlink:href="bogus" xlink:title=" PAKNEEXPGNFSXN -&gt; PAKNEEXPGNFSKN Min. att. -88%  max: 31%">
<path fill="none" stroke="black" stroke-width="8" d="M435.2,-581C462.44,-581 489.64,-581 514.63,-581"/>
<polygon fill="black" stroke="black" stroke-width="8" points="514.83,-588 524.83,-581 514.83,-574 514.83,-588"/>
</a>
</g>
</g>
<!-- PAKNECONGOVTXN -->
<g id="node24" class="node">
<title>PAKNECONGOVTXN</title>
<g id="a_node24"><a xlink:title="Implicit LCU defl., Govt. Cons., 2000 = 1
FRML &lt;DAMP,STOC&gt; PAKNECONGOVTXN = (PAKNECONGOVTXN(-1)*EXP(PAKNECONGOVTXN_A+ (-0.3*(LOG(PAKNECONGOVTXN(-1))-LOG(PAKNECONPRVTXN(-1)))+0.0752362082122748+0.5*((LOG(PAKNECONGOVTXN(-1)))-(LOG(PAKNECONGOVTXN(-2))))+(1-0.5)*((LOG(PAKNECONPRVTXN))-(LOG(PAKNECONPRVTXN(-1))))) )) * (1-PAKNECONGOVTXN_D)+ PAKNECONGOVTXN_X*PAKNECONGOVTXN_D  $">
<polygon fill="#63b8ff" stroke="black" points="428.5,-545 49.5,-545 49.5,-509 428.5,-509 428.5,-545"/>
<text text-anchor="start" x="56" y="-522.8" font-family="Times New Roman,serif" font-size="14.00" fill="blue">PAKNECONGOVTXN:Implicit LCU defl., Govt. Cons., 2000 = 1</text>
</a>
</g>
</g>
<!-- PAKNECONGOVTXN&#45;&gt;PAKNECONGOVTKN -->
<g id="edge26" class="edge">
<title>PAKNECONGOVTXN-&gt;PAKNECONGOVTKN</title>
<g id="a_edge26"><a xlink:href="bogus" xlink:title=" PAKNECONGOVTXN -&gt; PAKNECONGOVTKN Min. att. -156%  max: -19%">
<path fill="none" stroke="black" stroke-width="8" d="M428.68,-513.84C454.14,-512.06 479.71,-510.28 503.63,-508.61"/>
<polygon fill="black" stroke="black" stroke-width="8" points="504.28,-515.58 513.77,-507.9 503.31,-501.61 504.28,-515.58"/>
</a>
</g>
</g>
<!-- PAKNYGDPMKTPKN&#45;&gt;PAKNYGDPMKTPXN -->
<g id="edge8" class="edge">
<title>PAKNYGDPMKTPKN-&gt;PAKNYGDPMKTPXN</title>
<g id="a_edge8"><a xlink:href="bogus" xlink:title=" PAKNYGDPMKTPKN -&gt; PAKNYGDPMKTPXN Min. att. -43%  max: 10%">
<path fill="none" stroke="black" stroke-width="4.32" d="M882.18,-518.2C889.6,-571.41 919.1,-727.27 1016,-797 1028.38,-805.91 1042.01,-812.9 1056.35,-818.35"/>
<polygon fill="black" stroke="black" stroke-width="4.32" points="1055.17,-821.94 1065.86,-821.7 1057.69,-814.81 1055.17,-821.94"/>
</a>
</g>
</g>
<!-- PAKNYGDPMKTPKN&#45;&gt;PAKFMLBLMTWOKN_FITTED -->
<g id="edge2" class="edge">
<title>PAKNYGDPMKTPKN-&gt;PAKFMLBLMTWOKN_FITTED</title>
<g id="a_edge2"><a xlink:href="bogus" xlink:title=" PAKNYGDPMKTPKN -&gt; PAKFMLBLMTWOKN_FITTED Min. att. -255%  max: 619%">
<path fill="none" stroke="black" stroke-width="8" d="M884.11,-518.25C895.65,-564.83 933.08,-688.28 1016,-743 1019.19,-745.1 1022.45,-747.1 1025.78,-748.99"/>
<polygon fill="black" stroke="black" stroke-width="8" points="1022.61,-755.23 1034.73,-753.74 1029.18,-742.86 1022.61,-755.23"/>
</a>
</g>
</g>
<!-- PAKNYGDPMKTPKN&#45;&gt;PAKNYGDPGAP_ -->
<g id="edge1" class="edge">
<title>PAKNYGDPMKTPKN-&gt;PAKNYGDPGAP_</title>
<g id="a_edge1"><a xlink:href="bogus" xlink:title=" PAKNYGDPMKTPKN -&gt; PAKNYGDPGAP_ Min. att. -3641%  max: 9274%">
<path fill="none" stroke="black" stroke-width="8" d="M887,-518.22C903.07,-557.25 946.63,-648.67 1016,-689 1043.02,-704.71 1074.42,-713.8 1105.72,-718.74"/>
<polygon fill="black" stroke="black" stroke-width="8" points="1104.98,-725.71 1115.88,-720.2 1106.98,-711.85 1104.98,-725.71"/>
</a>
</g>
</g>
<!-- PAKNYGDPMKTPKN&#45;&gt;PAKNYWRTINFMCN -->
<g id="edge18" class="edge">
<title>PAKNYGDPMKTPKN-&gt;PAKNYWRTINFMCN</title>
<g id="a_edge18"><a xlink:href="bogus" xlink:title=" PAKNYGDPMKTPKN -&gt; PAKNYWRTINFMCN Min. att. -24%  max: 98%">
<path fill="none" stroke="black" stroke-width="8" d="M892.07,-518.31C913.15,-548.56 959.82,-608.28 1016,-635 1069.4,-660.39 1136.1,-666.64 1187.68,-666.8"/>
<polygon fill="black" stroke="black" stroke-width="8" points="1187.81,-673.8 1197.78,-666.76 1187.75,-659.8 1187.81,-673.8"/>
</a>
</g>
</g>
<!-- PAKNYGDPMKTPKN&#45;&gt;PAKFMLBLMTWOKN -->
<g id="edge11" class="edge">
<title>PAKNYGDPMKTPKN-&gt;PAKFMLBLMTWOKN</title>
<g id="a_edge11"><a xlink:href="bogus" xlink:title=" PAKNYGDPMKTPKN -&gt; PAKFMLBLMTWOKN Min. att. -255%  max: 619%">
<path fill="none" stroke="black" stroke-width="8" d="M903.5,-518.34C929.45,-537.52 973.24,-566.75 1016,-581 1038.6,-588.53 1062.91,-594.09 1087.21,-598.17"/>
<polygon fill="black" stroke="black" stroke-width="8" points="1086.26,-605.11 1097.24,-599.78 1088.47,-591.29 1086.26,-605.11"/>
</a>
</g>
</g>
<!-- PAKNYGDPMKTPKN&#45;&gt;PAKNYGDPFCSTKN -->
<g id="edge21" class="edge">
<title>PAKNYGDPMKTPKN-&gt;PAKNYGDPFCSTKN</title>
<g id="a_edge21"><a xlink:href="bogus" xlink:title=" PAKNYGDPMKTPKN -&gt; PAKNYGDPFCSTKN Min. att. 100%  max: 100%">
<path fill="none" stroke="black" stroke-width="8" d="M964.67,-518.03C981.62,-521.3 999.34,-524.46 1016,-527 1034.26,-529.78 1053.3,-532.37 1072.38,-534.76"/>
<polygon fill="black" stroke="black" stroke-width="8" points="1071.58,-541.71 1082.36,-535.99 1073.29,-527.82 1071.58,-541.71"/>
</a>
</g>
</g>
<!-- PAKNYGDPMKTPKN&#45;&gt;PAKNYWRTFORMCN_FITTED -->
<g id="edge15" class="edge">
<title>PAKNYGDPMKTPKN-&gt;PAKNYWRTFORMCN_FITTED</title>
<g id="a_edge15"><a xlink:href="bogus" xlink:title=" PAKNYGDPMKTPKN -&gt; PAKNYWRTFORMCN_FITTED Min. att. -24%  max: 98%">
<path fill="none" stroke="black" stroke-width="8" d="M980.05,-500C1003.54,-500 1029.45,-500 1055.83,-500"/>
<polygon fill="black" stroke="black" stroke-width="8" points="1055.96,-507 1065.96,-500 1055.96,-493 1055.96,-507"/>
</a>
</g>
</g>
<!-- PAKNYGDPMKTPKN&#45;&gt;PAKNEADPKMAXKN -->
<g id="edge7" class="edge">
<title>PAKNYGDPMKTPKN-&gt;PAKNEADPKMAXKN</title>
<g id="a_edge7"><a xlink:href="bogus" xlink:title=" PAKNYGDPMKTPKN -&gt; PAKNEADPKMAXKN Min. att. 100%  max: 100%">
<path fill="none" stroke="black" stroke-width="8" d="M964.67,-481.97C981.62,-478.7 999.34,-475.54 1016,-473 1072.39,-464.42 1136.25,-457.63 1185.76,-453.01"/>
<polygon fill="black" stroke="black" stroke-width="8" points="1186.47,-459.98 1195.78,-452.09 1185.18,-446.04 1186.47,-459.98"/>
</a>
</g>
</g>
<!-- PAKNYWRTFORMCN -->
<g id="node27" class="node">
<title>PAKNYWRTFORMCN</title>
<g id="a_node27"><a xlink:title="PAKNYWRTFORMCN
FRML &lt;DAMP,STOC&gt; PAKNYWRTFORMCN = (PAKNYWRTFORMCN(-1)*EXP(PAKNYWRTFORMCN_A+ (-0.132832689997107-0.3*(LOG(PAKNYWRTFORMCN(-1))-LOG(PAKNYGDPFCSTXN(-1))-LOG(PAKNYGDPPOTLKN(-1)/PAKLMEMPSTRLCN(-1)))+0.2*((LOG(PAKNYWRTFORMCN(-1)))-(LOG(PAKNYWRTFORMCN(-2))))+(1-0.2)*(0.5*((LOG(PAKNYGDPFCSTXN(-1)))-(LOG(PAKNYGDPFCSTXN(-2))))+0.5*(PAKINFLEXPT/100)+((LOG(PAKNYGDPMKTPKN/PAKLMEMPSTRLCN))-(LOG(PAKNYGDPMKTPKN(-1)/PAKLMEMPSTRLCN(-1)))))-0.2*(PAKLMUNRTOTLCN-PAKLMUNRSTRLCN)/100) )) * (1-PAKNYWRTFORMCN_D)+ PAKNYWRTFORMCN_X*PAKNYWRTFORMCN_D  $">
<polygon fill="#63b8ff" stroke="black" points="1345.5,-410 1195.5,-410 1195.5,-374 1345.5,-374 1345.5,-410"/>
<text text-anchor="start" x="1201.5" y="-387.8" font-family="Times New Roman,serif" font-size="14.00" fill="blue">PAKNYWRTFORMCN:</text>
</a>
</g>
</g>
<!-- PAKNYGDPMKTPKN&#45;&gt;PAKNYWRTFORMCN -->
<g id="edge27" class="edge">
<title>PAKNYGDPMKTPKN-&gt;PAKNYWRTFORMCN</title>
<g id="a_edge27"><a xlink:href="bogus" xlink:title=" PAKNYGDPMKTPKN -&gt; PAKNYWRTFORMCN Min. att. -24%  max: 98%">
<path fill="none" stroke="black" stroke-width="8" d="M903.5,-481.66C929.45,-462.48 973.24,-433.25 1016,-419 1070.51,-400.84 1134.91,-394.15 1185.17,-391.97"/>
<polygon fill="black" stroke="black" stroke-width="8" points="1185.62,-398.96 1195.34,-391.59 1185.08,-384.97 1185.62,-398.96"/>
</a>
</g>
</g>
<!-- PAKGDPPCKN -->
<g id="node29" class="node">
<title>PAKGDPPCKN</title>
<g id="a_node29"><a xlink:title="GDP per capita, 2005 LCU mn
FRML &lt;IDENT&gt; PAKGDPPCKN = (PAKNYGDPMKTPKN/PAKSPPOPTOTL) $">
<polygon fill="#63b8ff" stroke="black" points="1409,-356 1132,-356 1132,-320 1409,-320 1409,-356"/>
<text text-anchor="start" x="1138.5" y="-333.8" font-family="Times New Roman,serif" font-size="14.00" fill="blue">PAKGDPPCKN:GDP per capita, 2005 LCU mn</text>
</a>
</g>
</g>
<!-- PAKNYGDPMKTPKN&#45;&gt;PAKGDPPCKN -->
<g id="edge30" class="edge">
<title>PAKNYGDPMKTPKN-&gt;PAKGDPPCKN</title>
<g id="a_edge30"><a xlink:href="bogus" xlink:title=" PAKNYGDPMKTPKN -&gt; PAKGDPPCKN Min. att. 100%  max: 100%">
<path fill="none" stroke="black" stroke-width="8" d="M892.07,-481.69C913.15,-451.44 959.82,-391.72 1016,-365 1048.42,-349.58 1085.76,-341.22 1121.63,-337"/>
<polygon fill="black" stroke="black" stroke-width="8" points="1122.51,-343.94 1131.7,-335.91 1121.01,-330.02 1122.51,-343.94"/>
</a>
</g>
</g>
<!-- PAKNYWRTINFMCN_FITTED -->
<g id="node30" class="node">
<title>PAKNYWRTINFMCN_FITTED</title>
<g id="a_node30"><a xlink:title="Fitted  value:PAKNYWRTINFMCN
FRML &lt;FIT&gt; PAKNYWRTINFMCN_FITTED = PAKNYWRTINFMCN(-1)*EXP( (-0.13526463206061-0.3*(LOG(PAKNYWRTINFMCN(-1))-LOG(PAKNYGDPFCSTXN(-1))-LOG(PAKNYGDPPOTLKN(-1)/PAKLMEMPSTRLCN(-1)))+0.2*((LOG(PAKNYWRTINFMCN(-1)))-(LOG(PAKNYWRTINFMCN(-2))))+(1-0.2)*(0.5*((LOG(PAKNYGDPFCSTXN(-1)))-(LOG(PAKNYGDPFCSTXN(-2))))+0.5*(PAKINFLEXPT/100)+((LOG(PAKNYGDPMKTPKN/PAKLMEMPSTRLCN))-(LOG(PAKNYGDPMKTPKN(-1)/PAKLMEMPSTRLCN(-1)))))-0.2*(PAKLMUNRTOTLCN-PAKLMUNRSTRLCN)/100) ) $">
<polygon fill="#63b8ff" stroke="black" points="1470.5,-302 1070.5,-302 1070.5,-266 1470.5,-266 1470.5,-302"/>
<text text-anchor="start" x="1076.5" y="-279.8" font-family="Times New Roman,serif" font-size="14.00" fill="blue">PAKNYWRTINFMCN_FITTED:Fitted  value:PAKNYWRTINFMCN</text>
</a>
</g>
</g>
<!-- PAKNYGDPMKTPKN&#45;&gt;PAKNYWRTINFMCN_FITTED -->
<g id="edge5" class="edge">
<title>PAKNYGDPMKTPKN-&gt;PAKNYWRTINFMCN_FITTED</title>
<g id="a_edge5"><a xlink:href="bogus" xlink:title=" PAKNYGDPMKTPKN -&gt; PAKNYWRTINFMCN_FITTED Min. att. -24%  max: 98%">
<path fill="none" stroke="black" stroke-width="8" d="M887,-481.78C903.07,-442.75 946.63,-351.33 1016,-311 1029.86,-302.94 1044.88,-296.62 1060.45,-291.71"/>
<polygon fill="black" stroke="black" stroke-width="8" points="1062.59,-298.38 1070.2,-288.83 1058.63,-284.95 1062.59,-298.38"/>
</a>
</g>
</g>
<!-- PAKNEADPKMAXKN_FITTED -->
<g id="node31" class="node">
<title>PAKNEADPKMAXKN_FITTED</title>
<g id="a_node31"><a xlink:title="Fitted  value:PAKNEADPKMAXKN
FRML &lt;FIT&gt; PAKNEADPKMAXKN_FITTED = 0*DUMH+((1+0.01)/(0.01+PAKDEPR))*(PAKAVDAMAGE/100)*PAKNYGDPMKTPKN $">
<polygon fill="#63b8ff" stroke="black" points="1474,-248 1067,-248 1067,-212 1474,-212 1474,-248"/>
<text text-anchor="start" x="1073.5" y="-225.8" font-family="Times New Roman,serif" font-size="14.00" fill="blue">PAKNEADPKMAXKN_FITTED:Fitted  value:PAKNEADPKMAXKN</text>
</a>
</g>
</g>
<!-- PAKNYGDPMKTPKN&#45;&gt;PAKNEADPKMAXKN_FITTED -->
<g id="edge32" class="edge">
<title>PAKNYGDPMKTPKN-&gt;PAKNEADPKMAXKN_FITTED</title>
<g id="a_edge32"><a xlink:href="bogus" xlink:title=" PAKNYGDPMKTPKN -&gt; PAKNEADPKMAXKN_FITTED Min. att. 100%  max: 100%">
<path fill="none" stroke="black" stroke-width="8" d="M884.11,-481.75C895.65,-435.17 933.08,-311.72 1016,-257 1028.73,-248.6 1042.62,-241.97 1057.13,-236.79"/>
<polygon fill="black" stroke="black" stroke-width="8" points="1059.48,-243.39 1066.76,-233.59 1055.06,-230.11 1059.48,-243.39"/>
</a>
</g>
</g>
<!-- PAKNYGDPMKTPKD -->
<g id="node32" class="node">
<title>PAKNYGDPMKTPKD</title>
<g id="a_node32"><a xlink:title="GDP, Market Prices, 2000 US$ mn
FRML &lt;IDENT&gt; PAKNYGDPMKTPKD = (PAKNYGDPMKTPKN*((PAKNYGDPMKTPCN_VALUE_2010)/((PAKNYGDPMKTPKN_VALUE_2010))))/(PAKPANUSATLS_VALUE_2010) $">
<polygon fill="#63b8ff" stroke="black" points="1440.5,-194 1100.5,-194 1100.5,-158 1440.5,-158 1440.5,-194"/>
<text text-anchor="start" x="1106.5" y="-171.8" font-family="Times New Roman,serif" font-size="14.00" fill="blue">PAKNYGDPMKTPKD:GDP, Market Prices, 2000 US$ mn</text>
</a>
</g>
</g>
<!-- PAKNYGDPMKTPKN&#45;&gt;PAKNYGDPMKTPKD -->
<g id="edge20" class="edge">
<title>PAKNYGDPMKTPKN-&gt;PAKNYGDPMKTPKD</title>
<g id="a_edge20"><a xlink:href="bogus" xlink:title=" PAKNYGDPMKTPKN -&gt; PAKNYGDPMKTPKD Min. att. 100%  max: 100%">
<path fill="none" stroke="black" stroke-width="8" d="M882.18,-481.8C889.6,-428.59 919.1,-272.73 1016,-203 1037.92,-187.23 1063.78,-177.44 1090.48,-171.68"/>
<polygon fill="black" stroke="black" stroke-width="8" points="1091.88,-178.54 1100.34,-169.74 1089.18,-164.8 1091.88,-178.54"/>
</a>
</g>
</g>
<!-- PAKNECONGOVTCN -->
<g id="node26" class="node">
<title>PAKNECONGOVTCN</title>
<g id="a_node26"><a xlink:title="Govt. Cons., LCU mn
FRML &lt;DAMP,STOC&gt; PAKNECONGOVTCN = (PAKNECONGOVTCN_A*PAKNECONGOVTCN(-1)/100+ ((100 * ( (PAKGGEXPGNFSCN) / (PAKGGEXPGNFSCN(-1)) -1)) +0.764199817873939*DUMH) *PAKNECONGOVTCN(-1)/100+PAKNECONGOVTCN(-1)) * (1-PAKNECONGOVTCN_D)+ PAKNECONGOVTCN_X*PAKNECONGOVTCN_D  $">
<polygon fill="#63b8ff" stroke="black" points="373,-491 105,-491 105,-455 373,-455 373,-491"/>
<text text-anchor="start" x="111" y="-468.8" font-family="Times New Roman,serif" font-size="14.00" fill="blue">PAKNECONGOVTCN:Govt. Cons., LCU mn</text>
</a>
</g>
</g>
<!-- PAKNECONGOVTCN&#45;&gt;PAKNECONGOVTKN -->
<g id="edge23" class="edge">
<title>PAKNECONGOVTCN-&gt;PAKNECONGOVTKN</title>
<g id="a_edge23"><a xlink:href="bogus" xlink:title=" PAKNECONGOVTCN -&gt; PAKNECONGOVTKN Min. att. 117%  max: 255%">
<path fill="none" stroke="black" stroke-width="8" d="M373.18,-482.29C415.5,-485.24 462.09,-488.49 503.68,-491.4"/>
<polygon fill="black" stroke="black" stroke-width="8" points="503.4,-498.39 513.86,-492.11 504.37,-484.43 503.4,-498.39"/>
</a>
</g>
</g>
<!-- PAKNECONPRVTKN&#45;&gt;PAKNYGDPMKTPKN -->
<g id="edge10" class="edge">
<title>PAKNECONPRVTKN-&gt;PAKNYGDPMKTPKN</title>
<g id="a_edge10"><a xlink:href="bogus" xlink:title=" PAKNECONPRVTKN -&gt; PAKNYGDPMKTPKN Min. att. -7274%  max: 6173%">
<path fill="none" stroke="black" stroke-width="8" d="M644.2,-221.13C686.66,-271.77 806.62,-414.86 856.17,-473.96"/>
<polygon fill="black" stroke="black" stroke-width="8" points="850.89,-478.56 862.68,-481.73 861.62,-469.57 850.89,-478.56"/>
</a>
</g>
</g>
<!-- PAKBXFSTREMTCD -->
<g id="node33" class="node">
<title>PAKBXFSTREMTCD</title>
<g id="a_node33"><a xlink:title="Exp., Remittances (BOP), US$ mn
FRML &lt;DAMP,STOC&gt; PAKBXFSTREMTCD = (PAKBXFSTREMTCD_A*PAKNYGDPMKTPCD+PAKNYGDPMKTPCD* (0.053028373687723) ) * (1-PAKBXFSTREMTCD_D)+ PAKBXFSTREMTCD_X*PAKBXFSTREMTCD_D  $">
<polygon fill="#63b8ff" stroke="black" points="406,-59 72,-59 72,-23 406,-23 406,-59"/>
<text text-anchor="start" x="78" y="-36.8" font-family="Times New Roman,serif" font-size="14.00" fill="blue">PAKBXFSTREMTCD:Exp., Remittances (BOP), US$ mn</text>
</a>
</g>
</g>
<!-- PAKBXFSTREMTCD&#45;&gt;PAKNECONPRVTKN -->
<g id="edge12" class="edge">
<title>PAKBXFSTREMTCD-&gt;PAKNECONPRVTKN</title>
<g id="a_edge12"><a xlink:href="bogus" xlink:title=" PAKBXFSTREMTCD -&gt; PAKNECONPRVTKN Min. att. -717%  max: 140%">
<path fill="none" stroke="black" stroke-width="8" d="M406.18,-46.4C430.95,-51.01 455.64,-57.89 478,-68 532.6,-92.68 580.97,-144.96 606.92,-176.73"/>
<polygon fill="black" stroke="black" stroke-width="8" points="601.61,-181.3 613.33,-184.72 612.53,-172.54 601.61,-181.3"/>
</a>
</g>
</g>
</g>
</svg>