<svg xmlns="http://www.w3.org/2000/svg" xmlns:xlink="http://www.w3.org/1999/xlink" width="1012pt" height="257pt" viewBox="0.00 0.00 1012.00 257.00">
<g id="graph0" class="graph" transform="scale(1 1) rotate(0) translate(4 253)">
<title>TD</title>
<polygon fill="white" stroke="none" points="-4,4 -4,-253 1008,-253 1008,4 -4,4"/>
<text text-anchor="middle" x="502" y="-7.8" font-family="Times New Roman,serif" font-size="14.00">Model Structure</text>
<!-- LABOR(&#45;1) -->
<g id="node1" class="node">
<title>LABOR(-1)</title>
<g id="a_node1"><a xlink:title="LABOR
FRML &lt;&gt; LABOR=LABOR(-1)+(LABOR_GROWTH * LABOR(-1))$">
<polygon fill="springgreen" stroke="black" points="128.5,-113 0.5,-113 0.5,-77 128.5,-77 128.5,-113"/>
<text text-anchor="start" x="6.5" y="-90.8" font-family="Times New Roman,serif" font-size="14.00" fill="blue">LABOR(-1):LABOR</text>
</a>
</g>
</g>
<!-- LABOR -->
<g id="node6" class="node">
<title>LABOR</title>
<g id="a_node6"><a xlink:title="LABOR
FRML &lt;&gt; LABOR=LABOR(-1)+(LABOR_GROWTH * LABOR(-1))$">
<polygon fill="#63b8ff" stroke="black" points="227,-113 165,-113 165,-77 227,-77 227,-113"/>
<text text-anchor="start" x="171" y="-90.8" font-family="Times New Roman,serif" font-size="14.00" fill="blue">LABOR:</text>
</a>
</g>
</g>
<!-- LABOR(&#45;1)&#45;&gt;LABOR -->
<g id="edge3" class="edge">
<title>LABOR(-1)-&gt;LABOR</title>
<g id="a_edge3"><a xlink:href="bogus" xlink:title="NA">
<path fill="none" stroke="black" stroke-width="0.5" d="M128.73,-88.25C137.38,-88.23 146.07,-88.37 154.18,-88.68"/>
<polygon fill="black" stroke="black" stroke-width="0.5" points="153.9,-92.17 164.06,-89.15 154.24,-85.18 153.9,-92.17"/>
</a>
</g>
</g>
<!-- INCOME -->
<g id="node2" class="node">
<title>INCOME</title>
<g id="a_node2"><a xlink:title="INCOME
FRML &lt;&gt; INCOME          = A  * CAPITAL**ALFA * LABOR **(1-ALFA)  $">
<polygon fill="#63b8ff" stroke="black" points="351,-176 281,-176 281,-140 351,-140 351,-176"/>
<text text-anchor="start" x="287" y="-153.8" font-family="Times New Roman,serif" font-size="14.00" fill="blue">INCOME:</text>
</a>
</g>
</g>
<!-- INVESTMENT -->
<g id="node8" class="node">
<title>INVESTMENT</title>
<g id="a_node8"><a xlink:title="INVESTMENT
FRML &lt;&gt; INVESTMENT      = INCOME - CONSUMPTION    $">
<polygon fill="#63b8ff" stroke="black" points="684.5,-195 581.5,-195 581.5,-159 684.5,-159 684.5,-195"/>
<text text-anchor="start" x="588" y="-172.8" font-family="Times New Roman,serif" font-size="14.00" fill="blue">INVESTMENT:</text>
</a>
</g>
</g>
<!-- INCOME&#45;&gt;INVESTMENT -->
<g id="edge7" class="edge">
<title>INCOME-&gt;INVESTMENT</title>
<g id="a_edge7"><a xlink:href="bogus" xlink:title=" INCOME -&gt; INVESTMENT Min. att. 2000%  max: 2000%">
<path fill="none" stroke="black" stroke-width="8" d="M351.31,-160.07C402.25,-163.14 498.89,-168.97 564.38,-172.92"/>
<polygon fill="black" stroke="black" stroke-width="8" points="563.77,-179.9 574.17,-173.51 564.61,-165.92 563.77,-179.9"/>
</a>
</g>
</g>
<!-- CONSUMPTION -->
<g id="node13" class="node">
<title>CONSUMPTION</title>
<g id="a_node13"><a xlink:title="CONSUMPTION
FRML &lt;&gt; CONSUMPTION     = (1-SAVING_RATE)  * INCOME  $">
<polygon fill="#63b8ff" stroke="black" points="520,-233 405,-233 405,-197 520,-197 520,-233"/>
<text text-anchor="start" x="411.5" y="-210.8" font-family="Times New Roman,serif" font-size="14.00" fill="blue">CONSUMPTION:</text>
</a>
</g>
</g>
<!-- INCOME&#45;&gt;CONSUMPTION -->
<g id="edge15" class="edge">
<title>INCOME-&gt;CONSUMPTION</title>
<g id="a_edge15"><a xlink:href="bogus" xlink:title=" INCOME -&gt; CONSUMPTION Min. att. 100%  max: 100%">
<path fill="none" stroke="black" stroke-width="8" d="M351.24,-171.51C365.53,-177.14 382.58,-183.87 398.96,-190.33"/>
<polygon fill="black" stroke="black" stroke-width="8" points="396.3,-196.8 408.17,-193.96 401.43,-183.78 396.3,-196.8"/>
</a>
</g>
</g>
<!-- CAPITAL_INTENSITY -->
<g id="node3" class="node">
<title>CAPITAL_INTENSITY</title>
<g id="a_node3"><a xlink:title="CAPITAL_INTENSITY
FRML &lt;&gt; CAPITAL_INTENSITY = CAPITAL/LABOR  $">
<polygon fill="#63b8ff" stroke="black" points="1004,-126 855,-126 855,-90 1004,-90 1004,-126"/>
<text text-anchor="start" x="861.5" y="-103.8" font-family="Times New Roman,serif" font-size="14.00" fill="blue">CAPITAL_INTENSITY:</text>
</a>
</g>
</g>
<!-- CAPITAL(&#45;1) -->
<g id="node4" class="node">
<title>CAPITAL(-1)</title>
<g id="a_node4"><a xlink:title="CAPITAL
FRML &lt;&gt; CAPITAL=CAPITAL(-1)+(INVESTMENT-DEPRECIATION_RATE * CAPITAL(-1))$">
<polygon fill="springgreen" stroke="black" points="1004,-187 855,-187 855,-151 1004,-151 1004,-187"/>
<text text-anchor="start" x="861.5" y="-164.8" font-family="Times New Roman,serif" font-size="14.00" fill="blue">CAPITAL(-1):CAPITAL</text>
</a>
</g>
</g>
<!-- CAPITAL -->
<g id="node12" class="node">
<title>CAPITAL</title>
<g id="a_node12"><a xlink:title="CAPITAL
FRML &lt;&gt; CAPITAL=CAPITAL(-1)+(INVESTMENT-DEPRECIATION_RATE * CAPITAL(-1))$">
<polygon fill="#63b8ff" stroke="black" points="819,-187 746,-187 746,-151 819,-151 819,-187"/>
<text text-anchor="start" x="752.5" y="-164.8" font-family="Times New Roman,serif" font-size="14.00" fill="blue">CAPITAL:</text>
</a>
</g>
</g>
<!-- CAPITAL(&#45;1)&#45;&gt;CAPITAL -->
<g id="edge17" class="edge">
<title>CAPITAL(-1)-&gt;CAPITAL</title>
<g id="a_edge17"><a xlink:href="bogus" xlink:title="NA">
<path fill="none" stroke="black" stroke-width="0.5" d="M854.51,-175.75C846.19,-175.73 837.89,-175.6 830.06,-175.35"/>
<polygon fill="black" stroke="black" stroke-width="0.5" points="830.23,-171.85 820.1,-174.95 829.95,-178.85 830.23,-171.85"/>
</a>
</g>
</g>
<!-- A -->
<g id="node5" class="node">
<title>A</title>
<g id="a_node5"><a xlink:title="A
Exogen">
<polygon fill="yellow" stroke="black" points="223,-169 169,-169 169,-133 223,-133 223,-169"/>
<text text-anchor="start" x="189" y="-146.8" font-family="Times New Roman,serif" font-size="14.00" fill="blue">A:</text>
</a>
</g>
</g>
<!-- A&#45;&gt;INCOME -->
<g id="edge5" class="edge">
<title>A-&gt;INCOME</title>
<g id="a_edge5"><a xlink:href="bogus" xlink:title=" A -&gt; INCOME Min. att. -0%  max: -0%">
<path fill="none" stroke="black" d="M223.48,-152.57C236.91,-153.37 253.61,-154.36 269.05,-155.27"/>
<polygon fill="black" stroke="black" points="268.84,-158.77 279.03,-155.87 269.25,-151.78 268.84,-158.77"/>
</a>
</g>
</g>
<!-- LABOR&#45;&gt;LABOR(&#45;1) -->
<g id="edge11" class="edge">
<title>LABOR-&gt;LABOR(-1)</title>
<g id="a_edge11"><a xlink:href="bogus" xlink:title=" LABOR -&gt; LABOR(-1) Min. att. 0%  max: 100%">
<path fill="none" stroke="black" stroke-width="8" d="M164.81,-100.81C158.8,-101.17 152.23,-101.43 145.42,-101.58"/>
<polygon fill="black" stroke="black" stroke-width="8" points="145.64,-94.58 135.71,-101.68 145.78,-108.58 145.64,-94.58"/>
</a>
</g>
</g>
<!-- LABOR&#45;&gt;INCOME -->
<g id="edge13" class="edge">
<title>LABOR-&gt;INCOME</title>
<g id="a_edge13"><a xlink:href="bogus" xlink:title=" LABOR -&gt; INCOME Min. att. 59%  max: 97%">
<path fill="none" stroke="black" stroke-width="8" d="M227.39,-111.22C239.07,-117.46 252.72,-124.75 265.73,-131.7"/>
<polygon fill="black" stroke="black" stroke-width="8" points="262.27,-137.78 274.39,-136.32 268.87,-125.43 262.27,-137.78"/>
</a>
</g>
</g>
<!-- LABOR&#45;&gt;CAPITAL_INTENSITY -->
<g id="edge6" class="edge">
<title>LABOR-&gt;CAPITAL_INTENSITY</title>
<g id="a_edge6"><a xlink:href="bogus" xlink:title=" LABOR -&gt; CAPITAL_INTENSITY Min. att. 103%  max: 1269%">
<path fill="none" stroke="black" stroke-width="8" d="M227.15,-94.62C276.25,-94.04 376.55,-93 461.5,-93 461.5,-93 461.5,-93 634,-93 702.49,-93 779.84,-97.1 838.07,-101.01"/>
<polygon fill="black" stroke="black" stroke-width="8" points="837.31,-107.97 847.77,-101.68 838.27,-94.01 837.31,-107.97"/>
</a>
</g>
</g>
<!-- LABOR_GROWTH -->
<g id="node7" class="node">
<title>LABOR_GROWTH</title>
<g id="a_node7"><a xlink:title="LABOR_GROWTH
Exogen">
<polygon fill="yellow" stroke="black" points="129,-59 0,-59 0,-23 129,-23 129,-59"/>
<text text-anchor="start" x="6.5" y="-36.8" font-family="Times New Roman,serif" font-size="14.00" fill="blue">LABOR_GROWTH:</text>
</a>
</g>
</g>
<!-- LABOR_GROWTH&#45;&gt;LABOR -->
<g id="edge4" class="edge">
<title>LABOR_GROWTH-&gt;LABOR</title>
<g id="a_edge4"><a xlink:href="bogus" xlink:title=" LABOR_GROWTH -&gt; LABOR Min. att. 0%  max: 100%">
<path fill="none" stroke="black" stroke-width="8" d="M109.7,-59.43C122.48,-64.76 136.45,-70.58 149.31,-75.95"/>
<polygon fill="black" stroke="black" stroke-width="8" points="146.49,-82.35 158.41,-79.74 151.87,-69.43 146.49,-82.35"/>
</a>
</g>
</g>
<!-- INVESTMENT&#45;&gt;CAPITAL -->
<g id="edge12" class="edge">
<title>INVESTMENT-&gt;CAPITAL</title>
<g id="a_edge12"><a xlink:href="bogus" xlink:title=" INVESTMENT -&gt; CAPITAL Min. att. 6%  max: 100%">
<path fill="none" stroke="black" stroke-width="8" d="M684.76,-174.25C698.98,-173.48 714.47,-172.64 728.79,-171.86"/>
<polygon fill="black" stroke="black" stroke-width="8" points="728.96,-178.86 738.57,-171.33 728.21,-164.88 728.96,-178.86"/>
</a>
</g>
</g>
<!-- SAVING_RATE -->
<g id="node9" class="node">
<title>SAVING_RATE</title>
<g id="a_node9"><a xlink:title="SAVING_RATE
Exogen">
<polygon fill="yellow" stroke="black" points="369,-233 263,-233 263,-197 369,-197 369,-233"/>
<text text-anchor="start" x="269" y="-210.8" font-family="Times New Roman,serif" font-size="14.00" fill="blue">SAVING_RATE:</text>
</a>
</g>
</g>
<!-- SAVING_RATE&#45;&gt;CONSUMPTION -->
<g id="edge9" class="edge">
<title>SAVING_RATE-&gt;CONSUMPTION</title>
<g id="a_edge9"><a xlink:href="bogus" xlink:title=" SAVING_RATE -&gt; CONSUMPTION Min. att. 0%  max: 0%">
<path fill="none" stroke="black" d="M369.17,-215C376.97,-215 385.11,-215 393.19,-215"/>
<polygon fill="black" stroke="black" points="393.01,-218.5 403.01,-215 393.01,-211.5 393.01,-218.5"/>
</a>
</g>
</g>
<!-- ALFA -->
<g id="node10" class="node">
<title>ALFA</title>
<g id="a_node10"><a xlink:title="ALFA
Exogen">
<polygon fill="yellow" stroke="black" points="223,-223 169,-223 169,-187 223,-187 223,-223"/>
<text text-anchor="start" x="177" y="-200.8" font-family="Times New Roman,serif" font-size="14.00" fill="blue">ALFA:</text>
</a>
</g>
</g>
<!-- ALFA&#45;&gt;INCOME -->
<g id="edge14" class="edge">
<title>ALFA-&gt;INCOME</title>
<g id="a_edge14"><a xlink:href="bogus" xlink:title=" ALFA -&gt; INCOME Min. att. -0%  max: -0%">
<path fill="none" stroke="black" d="M223.48,-194.45C237.17,-189 254.26,-182.19 269.96,-175.94"/>
<polygon fill="black" stroke="black" points="271.14,-179.24 279.13,-172.29 268.55,-172.74 271.14,-179.24"/>
</a>
</g>
</g>
<!-- DEPRECIATION_RATE -->
<g id="node11" class="node">
<title>DEPRECIATION_RATE</title>
<g id="a_node11"><a xlink:title="DEPRECIATION_RATE
Exogen">
<polygon fill="yellow" stroke="black" points="710,-249 556,-249 556,-213 710,-213 710,-249"/>
<text text-anchor="start" x="562" y="-226.8" font-family="Times New Roman,serif" font-size="14.00" fill="blue">DEPRECIATION_RATE:</text>
</a>
</g>
</g>
<!-- DEPRECIATION_RATE&#45;&gt;CAPITAL -->
<g id="edge1" class="edge">
<title>DEPRECIATION_RATE-&gt;CAPITAL</title>
<g id="a_edge1"><a xlink:href="bogus" xlink:title=" DEPRECIATION_RATE -&gt; CAPITAL Min. att. 0%  max: 0%">
<path fill="none" stroke="black" d="M688.26,-212.57C695.62,-209.83 703.03,-206.93 710,-204 718.42,-200.46 727.26,-196.41 735.75,-192.35"/>
<polygon fill="black" stroke="black" points="737.04,-195.62 744.5,-188.1 733.98,-189.32 737.04,-195.62"/>
</a>
</g>
</g>
<!-- CAPITAL&#45;&gt;INCOME -->
<g id="edge16" class="edge">
<title>CAPITAL-&gt;INCOME</title>
<g id="a_edge16"><a xlink:href="bogus" xlink:title=" CAPITAL -&gt; INCOME Min. att. 3%  max: 54%">
<path fill="none" stroke="black" stroke-width="5.42" d="M745.86,-157.58C734.52,-154.48 721.84,-151.55 710,-150 587.9,-134.05 442.67,-144.56 367.58,-152.15"/>
<polygon fill="black" stroke="black" stroke-width="5.42" points="367.1,-147.43 357.65,-153.2 368.09,-156.87 367.1,-147.43"/>
</a>
</g>
</g>
<!-- CAPITAL&#45;&gt;CAPITAL_INTENSITY -->
<g id="edge8" class="edge">
<title>CAPITAL-&gt;CAPITAL_INTENSITY</title>
<g id="a_edge8"><a xlink:href="bogus" xlink:title=" CAPITAL -&gt; CAPITAL_INTENSITY Min. att. -647%  max: -3%">
<path fill="none" stroke="black" stroke-width="8" d="M819.34,-153.92C834.35,-147.61 852.21,-140.09 869.09,-132.99"/>
<polygon fill="black" stroke="black" stroke-width="8" points="871.59,-139.53 878.1,-129.2 866.16,-126.63 871.59,-139.53"/>
</a>
</g>
</g>
<!-- CAPITAL&#45;&gt;CAPITAL(&#45;1) -->
<g id="edge2" class="edge">
<title>CAPITAL-&gt;CAPITAL(-1)</title>
<g id="a_edge2"><a xlink:href="bogus" xlink:title=" CAPITAL -&gt; CAPITAL(-1) Min. att. 0%  max: 94%">
<path fill="none" stroke="black" stroke-width="8" d="M819.34,-163.08C825.13,-162.8 831.34,-162.58 837.75,-162.44"/>
<polygon fill="black" stroke="black" stroke-width="8" points="837.62,-169.45 847.54,-162.33 837.46,-155.45 837.62,-169.45"/>
</a>
</g>
</g>
<!-- CONSUMPTION&#45;&gt;INVESTMENT -->
<g id="edge10" class="edge">
<title>CONSUMPTION-&gt;INVESTMENT</title>
<g id="a_edge10"><a xlink:href="bogus" xlink:title=" CONSUMPTION -&gt; INVESTMENT Min. att. -1900%  max: -1900%">
<path fill="none" stroke="black" stroke-width="8" d="M520.08,-202.24C534.46,-199 550.05,-195.48 564.89,-192.13"/>
<polygon fill="black" stroke="black" stroke-width="8" points="566.22,-199.01 574.43,-189.98 563.14,-185.35 566.22,-199.01"/>
</a>
</g>
</g>
</g>
</svg>