<svg xmlns="http://www.w3.org/2000/svg" xmlns:xlink="http://www.w3.org/1999/xlink" width="375pt" height="432pt" viewBox="0.00 0.00 375.01 432.00">
<g id="graph0" class="graph" transform="scale(0.48753 0.48753) rotate(0) translate(4 882.1)">
<title>TD</title>
<polygon fill="white" stroke="none" points="-4,4 -4,-882.1 765.2,-882.1 765.2,4 -4,4"/>
<text text-anchor="middle" x="380.6" y="-7.2" font-family="Times New Roman,serif" font-size="14.00">PAKNYGDPMKTPKN</text>
<!-- PAKNECONPRVTKN -->
<g id="node1" class="node">
<title>PAKNECONPRVTKN</title>
<polygon fill="none" stroke="black" points="362.6,-878.1 0,-878.1 0,-678.5 362.6,-678.5 362.6,-878.1"/>
<g id="a_node1_0"><a xlink:href="bogus" xlink:title="HH. Cons Real
FRML &lt;DAMP,STOC&gt; PAKNECONPRVTKN = (PAKNECONPRVTKN(-1)*EXP(PAKNECONPRVTKN_A+ (-0.2*(LOG(PAKNECONPRVTKN(-1))-LOG(1.21203101101442)-LOG((((PAKBXFSTREMTCD(-1)-PAKBMFSTREMTCD(-1))*PAKPANUSATLS(-1))+PAKGGEXPTRNSCN(-1)+PAKNYYWBTOTLCN(-1)*(1-PAKGGREVDRCTXN(-1)/100))/PAKNECONPRVTXN(-1)))+0.763938860758873*((LOG((((PAKBXFSTREMTCD-PAKBMFSTREMTCD)*PAKPANUSATLS)+PAKGGEXPTRNSCN+PAKNYYWBTOTLCN*(1-PAKGGREVDRCTXN/100))/PAKNECONPRVTXN))-(LOG((((PAKBXFSTREMTCD(-1)-PAKBMFSTREMTCD(-1))*PAKPANUSATLS(-1))+PAKGGEXPTRNSCN(-1)+PAKNYYWBTOTLCN(-1)*(1-PAKGGREVDRCTXN(-1)/100))/PAKNECONPRVTXN(-1))))-0.0634474791568939*DURING_2009-0.3*(PAKFMLBLPOLYXN/100-((LOG(PAKNECONPRVTXN))-(LOG(PAKNECONPRVTXN(-1)))))) )) * (1-PAKNECONPRVTKN_D)+ PAKNECONPRVTKN_X*PAKNECONPRVTKN_D  $">
<polygon fill="#ff7f24" stroke="none" points="4.8,-851.3 4.8,-873.3 357.8,-873.3 357.8,-851.3 4.8,-851.3"/>
<polygon fill="none" stroke="black" points="4.8,-851.3 4.8,-873.3 357.8,-873.3 357.8,-851.3 4.8,-851.3"/>
<text text-anchor="start" x="74.8" y="-857" font-family="Times New Roman,serif" font-size="14.00" fill="blue">PAKNECONPRVTKN:HH. Cons Real</text>
</a>
</g>
<polygon fill="none" stroke="black" points="4.8,-827.3 4.8,-849.3 78.8,-849.3 78.8,-827.3 4.8,-827.3"/>
<text text-anchor="start" x="7.8" y="-833" font-family="Times New Roman,serif" font-size="14.00" fill="blue">Per</text>
<polygon fill="none" stroke="black" points="80.8,-827.3 80.8,-849.3 171.8,-849.3 171.8,-827.3 80.8,-827.3"/>
<text text-anchor="start" x="112.8" y="-833" font-family="Times New Roman,serif" font-size="14.00" fill="blue">2025</text>
<polygon fill="none" stroke="black" points="173.8,-827.3 173.8,-849.3 264.8,-849.3 264.8,-827.3 173.8,-827.3"/>
<text text-anchor="start" x="205.8" y="-833" font-family="Times New Roman,serif" font-size="14.00" fill="blue">2026</text>
<polygon fill="none" stroke="black" points="266.8,-827.3 266.8,-849.3 357.8,-849.3 357.8,-827.3 266.8,-827.3"/>
<text text-anchor="start" x="298.8" y="-833" font-family="Times New Roman,serif" font-size="14.00" fill="blue">2027</text>
<g id="a_node1_1"><a xlink:href="bogus" xlink:title="Baseline values">
<polygon fill="none" stroke="black" points="4.8,-803.3 4.8,-825.3 78.8,-825.3 78.8,-803.3 4.8,-803.3"/>
<text text-anchor="start" x="7.8" y="-809" font-family="Times New Roman,serif" font-size="14.00" fill="blue">Base</text>
</a>
</g>
<g id="a_node1_2"><a xlink:href="bogus" xlink:title="Baseline values">
<polygon fill="none" stroke="black" points="80.8,-803.3 80.8,-825.3 171.8,-825.3 171.8,-803.3 80.8,-803.3"/>
<text text-anchor="start" x="83.55" y="-809" font-family="Times New Roman,serif" font-size="14.00" fill="blue">25,323,255.174</text>
</a>
</g>
<g id="a_node1_3"><a xlink:href="bogus" xlink:title="Baseline values">
<polygon fill="none" stroke="black" points="173.8,-803.3 173.8,-825.3 264.8,-825.3 264.8,-803.3 173.8,-803.3"/>
<text text-anchor="start" x="176.55" y="-809" font-family="Times New Roman,serif" font-size="14.00" fill="blue">25,909,810.173</text>
</a>
</g>
<g id="a_node1_4"><a xlink:href="bogus" xlink:title="Baseline values">
<polygon fill="none" stroke="black" points="266.8,-803.3 266.8,-825.3 357.8,-825.3 357.8,-803.3 266.8,-803.3"/>
<text text-anchor="start" x="269.55" y="-809" font-family="Times New Roman,serif" font-size="14.00" fill="blue">26,552,987.587</text>
</a>
</g>
<g id="a_node1_5"><a xlink:href="bogus" xlink:title="Latest run values">
<polygon fill="none" stroke="black" points="4.8,-779.3 4.8,-801.3 78.8,-801.3 78.8,-779.3 4.8,-779.3"/>
<text text-anchor="start" x="7.8" y="-785" font-family="Times New Roman,serif" font-size="14.00" fill="blue">Last</text>
</a>
</g>
<polygon fill="none" stroke="black" points="80.8,-779.3 80.8,-801.3 171.8,-801.3 171.8,-779.3 80.8,-779.3"/>
<text text-anchor="start" x="83.55" y="-785" font-family="Times New Roman,serif" font-size="14.00" fill="blue">25,109,030.996</text>
<polygon fill="none" stroke="black" points="173.8,-779.3 173.8,-801.3 264.8,-801.3 264.8,-779.3 173.8,-779.3"/>
<text text-anchor="start" x="176.55" y="-785" font-family="Times New Roman,serif" font-size="14.00" fill="blue">25,642,724.215</text>
<polygon fill="none" stroke="black" points="266.8,-779.3 266.8,-801.3 357.8,-801.3 357.8,-779.3 266.8,-779.3"/>
<text text-anchor="start" x="269.55" y="-785" font-family="Times New Roman,serif" font-size="14.00" fill="blue">26,235,783.371</text>
<g id="a_node1_6"><a xlink:href="bogus" xlink:title="Difference between baseline and latest run">
<polygon fill="none" stroke="black" points="4.8,-755.3 4.8,-777.3 78.8,-777.3 78.8,-755.3 4.8,-755.3"/>
<text text-anchor="start" x="7.8" y="-761" font-family="Times New Roman,serif" font-size="14.00" fill="blue">Diff</text>
</a>
</g>
<polygon fill="none" stroke="black" points="80.8,-755.3 80.8,-777.3 171.8,-777.3 171.8,-755.3 80.8,-755.3"/>
<text text-anchor="start" x="96.05" y="-761" font-family="Times New Roman,serif" font-size="14.00" fill="blue">-214,224.178</text>
<polygon fill="none" stroke="black" points="173.8,-755.3 173.8,-777.3 264.8,-777.3 264.8,-755.3 173.8,-755.3"/>
<text text-anchor="start" x="189.05" y="-761" font-family="Times New Roman,serif" font-size="14.00" fill="blue">-267,085.958</text>
<polygon fill="none" stroke="black" points="266.8,-755.3 266.8,-777.3 357.8,-777.3 357.8,-755.3 266.8,-755.3"/>
<text text-anchor="start" x="282.05" y="-761" font-family="Times New Roman,serif" font-size="14.00" fill="blue">-317,204.216</text>
<polygon fill="none" stroke="black" points="4.8,-731.3 4.8,-753.3 357.8,-753.3 357.8,-731.3 4.8,-731.3"/>
<text text-anchor="start" x="146.8" y="-737" font-family="Times New Roman,serif" font-size="14.00" fill="blue"> Growth rate</text>
<g id="a_node1_7"><a xlink:href="bogus" xlink:title="Base growth
Exogen">
<polygon fill="none" stroke="black" points="4.8,-707.3 4.8,-729.3 78.8,-729.3 78.8,-707.3 4.8,-707.3"/>
<text text-anchor="start" x="7.67" y="-713" font-family="Times New Roman,serif" font-size="14.00" fill="blue">Base growth</text>
</a>
</g>
<polygon fill="none" stroke="black" points="80.8,-707.3 80.8,-729.3 171.8,-729.3 171.8,-707.3 80.8,-707.3"/>
<text text-anchor="start" x="138.05" y="-713" font-family="Times New Roman,serif" font-size="14.00" fill="blue">2.034</text>
<polygon fill="none" stroke="black" points="173.8,-707.3 173.8,-729.3 264.8,-729.3 264.8,-707.3 173.8,-707.3"/>
<text text-anchor="start" x="231.05" y="-713" font-family="Times New Roman,serif" font-size="14.00" fill="blue">2.316</text>
<polygon fill="none" stroke="black" points="266.8,-707.3 266.8,-729.3 357.8,-729.3 357.8,-707.3 266.8,-707.3"/>
<text text-anchor="start" x="324.05" y="-713" font-family="Times New Roman,serif" font-size="14.00" fill="blue">2.482</text>
<g id="a_node1_8"><a xlink:href="bogus" xlink:title="Last growth
Exogen">
<polygon fill="none" stroke="black" points="4.8,-683.3 4.8,-705.3 78.8,-705.3 78.8,-683.3 4.8,-683.3"/>
<text text-anchor="start" x="7.8" y="-689" font-family="Times New Roman,serif" font-size="14.00" fill="blue">Last growth</text>
</a>
</g>
<polygon fill="none" stroke="black" points="80.8,-683.3 80.8,-705.3 171.8,-705.3 171.8,-683.3 80.8,-683.3"/>
<text text-anchor="start" x="138.05" y="-689" font-family="Times New Roman,serif" font-size="14.00" fill="blue">1.171</text>
<polygon fill="none" stroke="black" points="173.8,-683.3 173.8,-705.3 264.8,-705.3 264.8,-683.3 173.8,-683.3"/>
<text text-anchor="start" x="231.05" y="-689" font-family="Times New Roman,serif" font-size="14.00" fill="blue">2.126</text>
<polygon fill="none" stroke="black" points="266.8,-683.3 266.8,-705.3 357.8,-705.3 357.8,-683.3 266.8,-683.3"/>
<text text-anchor="start" x="324.05" y="-689" font-family="Times New Roman,serif" font-size="14.00" fill="blue">2.313</text>
<polygon fill="none" stroke="black" points="1.8,-680.3 1.8,-876.3 360.8,-876.3 360.8,-680.3 1.8,-680.3"/>
</g>
<!-- PAKNYGDPMKTPKN -->
<g id="node5" class="node">
<title>PAKNYGDPMKTPKN</title>
<polygon fill="none" stroke="black" points="761.2,-551.1 398.6,-551.1 398.6,-351.5 761.2,-351.5 761.2,-551.1"/>
<g id="a_node5_9"><a xlink:href="bogus" xlink:title="Real GDP
FRML &lt;IDENT&gt; PAKNYGDPMKTPKN = PAKNECONPRVTKN+PAKNECONGOVTKN+PAKNEGDIFTOTKN+PAKNEGDISTKBKN+PAKNEEXPGNFSKN-PAKNEIMPGNFSKN+PAKNYGDPDISCKN+PAKADAP*PAKDISPREPKN $">
<polygon fill="red" stroke="none" points="403.4,-524.3 403.4,-546.3 756.4,-546.3 756.4,-524.3 403.4,-524.3"/>
<polygon fill="none" stroke="black" points="403.4,-524.3 403.4,-546.3 756.4,-546.3 756.4,-524.3 403.4,-524.3"/>
<text text-anchor="start" x="485.03" y="-530" font-family="Times New Roman,serif" font-size="14.00" fill="blue">PAKNYGDPMKTPKN:Real GDP</text>
</a>
</g>
<polygon fill="none" stroke="black" points="403.4,-500.3 403.4,-522.3 477.4,-522.3 477.4,-500.3 403.4,-500.3"/>
<text text-anchor="start" x="406.4" y="-506" font-family="Times New Roman,serif" font-size="14.00" fill="blue">Per</text>
<polygon fill="none" stroke="black" points="479.4,-500.3 479.4,-522.3 570.4,-522.3 570.4,-500.3 479.4,-500.3"/>
<text text-anchor="start" x="511.4" y="-506" font-family="Times New Roman,serif" font-size="14.00" fill="blue">2025</text>
<polygon fill="none" stroke="black" points="572.4,-500.3 572.4,-522.3 663.4,-522.3 663.4,-500.3 572.4,-500.3"/>
<text text-anchor="start" x="604.4" y="-506" font-family="Times New Roman,serif" font-size="14.00" fill="blue">2026</text>
<polygon fill="none" stroke="black" points="665.4,-500.3 665.4,-522.3 756.4,-522.3 756.4,-500.3 665.4,-500.3"/>
<text text-anchor="start" x="697.4" y="-506" font-family="Times New Roman,serif" font-size="14.00" fill="blue">2027</text>
<g id="a_node5_10"><a xlink:href="bogus" xlink:title="Baseline values">
<polygon fill="none" stroke="black" points="403.4,-476.3 403.4,-498.3 477.4,-498.3 477.4,-476.3 403.4,-476.3"/>
<text text-anchor="start" x="406.4" y="-482" font-family="Times New Roman,serif" font-size="14.00" fill="blue">Base</text>
</a>
</g>
<g id="a_node5_11"><a xlink:href="bogus" xlink:title="Baseline values">
<polygon fill="none" stroke="black" points="479.4,-476.3 479.4,-498.3 570.4,-498.3 570.4,-476.3 479.4,-476.3"/>
<text text-anchor="start" x="482.15" y="-482" font-family="Times New Roman,serif" font-size="14.00" fill="blue">27,963,231.531</text>
</a>
</g>
<g id="a_node5_12"><a xlink:href="bogus" xlink:title="Baseline values">
<polygon fill="none" stroke="black" points="572.4,-476.3 572.4,-498.3 663.4,-498.3 663.4,-476.3 572.4,-476.3"/>
<text text-anchor="start" x="575.15" y="-482" font-family="Times New Roman,serif" font-size="14.00" fill="blue">28,640,383.896</text>
</a>
</g>
<g id="a_node5_13"><a xlink:href="bogus" xlink:title="Baseline values">
<polygon fill="none" stroke="black" points="665.4,-476.3 665.4,-498.3 756.4,-498.3 756.4,-476.3 665.4,-476.3"/>
<text text-anchor="start" x="668.15" y="-482" font-family="Times New Roman,serif" font-size="14.00" fill="blue">29,396,759.184</text>
</a>
</g>
<g id="a_node5_14"><a xlink:href="bogus" xlink:title="Latest run values">
<polygon fill="none" stroke="black" points="403.4,-452.3 403.4,-474.3 477.4,-474.3 477.4,-452.3 403.4,-452.3"/>
<text text-anchor="start" x="406.4" y="-458" font-family="Times New Roman,serif" font-size="14.00" fill="blue">Last</text>
</a>
</g>
<polygon fill="none" stroke="black" points="479.4,-452.3 479.4,-474.3 570.4,-474.3 570.4,-452.3 479.4,-452.3"/>
<text text-anchor="start" x="482.15" y="-458" font-family="Times New Roman,serif" font-size="14.00" fill="blue">28,063,248.033</text>
<polygon fill="none" stroke="black" points="572.4,-452.3 572.4,-474.3 663.4,-474.3 663.4,-452.3 572.4,-452.3"/>
<text text-anchor="start" x="575.15" y="-458" font-family="Times New Roman,serif" font-size="14.00" fill="blue">28,813,268.051</text>
<polygon fill="none" stroke="black" points="665.4,-452.3 665.4,-474.3 756.4,-474.3 756.4,-452.3 665.4,-452.3"/>
<text text-anchor="start" x="668.15" y="-458" font-family="Times New Roman,serif" font-size="14.00" fill="blue">29,568,459.820</text>
<g id="a_node5_15"><a xlink:href="bogus" xlink:title="Difference between baseline and latest run">
<polygon fill="none" stroke="black" points="403.4,-428.3 403.4,-450.3 477.4,-450.3 477.4,-428.3 403.4,-428.3"/>
<text text-anchor="start" x="406.4" y="-434" font-family="Times New Roman,serif" font-size="14.00" fill="blue">Diff</text>
</a>
</g>
<polygon fill="none" stroke="black" points="479.4,-428.3 479.4,-450.3 570.4,-450.3 570.4,-428.3 479.4,-428.3"/>
<text text-anchor="start" x="499.15" y="-434" font-family="Times New Roman,serif" font-size="14.00" fill="blue">100,016.502</text>
<polygon fill="none" stroke="black" points="572.4,-428.3 572.4,-450.3 663.4,-450.3 663.4,-428.3 572.4,-428.3"/>
<text text-anchor="start" x="592.15" y="-434" font-family="Times New Roman,serif" font-size="14.00" fill="blue">172,884.155</text>
<polygon fill="none" stroke="black" points="665.4,-428.3 665.4,-450.3 756.4,-450.3 756.4,-428.3 665.4,-428.3"/>
<text text-anchor="start" x="685.15" y="-434" font-family="Times New Roman,serif" font-size="14.00" fill="blue">171,700.636</text>
<polygon fill="none" stroke="black" points="403.4,-404.3 403.4,-426.3 756.4,-426.3 756.4,-404.3 403.4,-404.3"/>
<text text-anchor="start" x="545.4" y="-410" font-family="Times New Roman,serif" font-size="14.00" fill="blue"> Growth rate</text>
<g id="a_node5_16"><a xlink:href="bogus" xlink:title="Base growth
Exogen">
<polygon fill="none" stroke="black" points="403.4,-380.3 403.4,-402.3 477.4,-402.3 477.4,-380.3 403.4,-380.3"/>
<text text-anchor="start" x="406.28" y="-386" font-family="Times New Roman,serif" font-size="14.00" fill="blue">Base growth</text>
</a>
</g>
<polygon fill="none" stroke="black" points="479.4,-380.3 479.4,-402.3 570.4,-402.3 570.4,-380.3 479.4,-380.3"/>
<text text-anchor="start" x="536.65" y="-386" font-family="Times New Roman,serif" font-size="14.00" fill="blue">2.081</text>
<polygon fill="none" stroke="black" points="572.4,-380.3 572.4,-402.3 663.4,-402.3 663.4,-380.3 572.4,-380.3"/>
<text text-anchor="start" x="629.65" y="-386" font-family="Times New Roman,serif" font-size="14.00" fill="blue">2.422</text>
<polygon fill="none" stroke="black" points="665.4,-380.3 665.4,-402.3 756.4,-402.3 756.4,-380.3 665.4,-380.3"/>
<text text-anchor="start" x="722.65" y="-386" font-family="Times New Roman,serif" font-size="14.00" fill="blue">2.641</text>
<g id="a_node5_17"><a xlink:href="bogus" xlink:title="Last growth
Exogen">
<polygon fill="none" stroke="black" points="403.4,-356.3 403.4,-378.3 477.4,-378.3 477.4,-356.3 403.4,-356.3"/>
<text text-anchor="start" x="406.4" y="-362" font-family="Times New Roman,serif" font-size="14.00" fill="blue">Last growth</text>
</a>
</g>
<polygon fill="none" stroke="black" points="479.4,-356.3 479.4,-378.3 570.4,-378.3 570.4,-356.3 479.4,-356.3"/>
<text text-anchor="start" x="536.65" y="-362" font-family="Times New Roman,serif" font-size="14.00" fill="blue">2.446</text>
<polygon fill="none" stroke="black" points="572.4,-356.3 572.4,-378.3 663.4,-378.3 663.4,-356.3 572.4,-356.3"/>
<text text-anchor="start" x="629.65" y="-362" font-family="Times New Roman,serif" font-size="14.00" fill="blue">2.673</text>
<polygon fill="none" stroke="black" points="665.4,-356.3 665.4,-378.3 756.4,-378.3 756.4,-356.3 665.4,-356.3"/>
<text text-anchor="start" x="722.65" y="-362" font-family="Times New Roman,serif" font-size="14.00" fill="blue">2.621</text>
<polygon fill="none" stroke="black" points="400.4,-353.3 400.4,-549.3 759.4,-549.3 759.4,-353.3 400.4,-353.3"/>
</g>
<!-- PAKNECONPRVTKN&#45;&gt;PAKNYGDPMKTPKN -->
<g id="edge3" class="edge">
<title>PAKNECONPRVTKN-&gt;PAKNYGDPMKTPKN</title>
<g id="a_edge3"><a xlink:href="bogus" xlink:title=" PAKNECONPRVTKN -&gt; PAKNYGDPMKTPKN Min. att. -214%  max: -154%">
<path fill="none" stroke="black" stroke-width="8" d="M351.15,-678.06C355.04,-675.16 358.86,-672.24 362.6,-669.3 403.04,-637.49 443.74,-598.67 478.74,-562.66"/>
<polygon fill="black" stroke="black" stroke-width="8" points="483.52,-568.65 485.42,-556.59 473.44,-558.93 483.52,-568.65"/>
</a>
</g>
</g>
<!-- PAKNEIMPGNFSKN -->
<g id="node2" class="node">
<title>PAKNEIMPGNFSKN</title>
<polygon fill="none" stroke="black" points="352.1,-660.1 10.5,-660.1 10.5,-460.5 352.1,-460.5 352.1,-660.1"/>
<g id="a_node2_18"><a xlink:href="bogus" xlink:title="Imports real
FRML &lt;DAMP,STOC&gt; PAKNEIMPGNFSKN = (PAKNEIMPGNFSKN(-1)*EXP(PAKNEIMPGNFSKN_A+ (-0.324143718656754*(LOG(PAKNEIMPGNFSKN(-1))-LOG(PAKNEGDETTOTKN(-1))+0.8*LOG(PAKNEIMPGNFSXN(-1)/PAKNYGDPFCSTXN(-1)))-0.583459272245018+1*((LOG(PAKNEGDETTOTKN))-(LOG(PAKNEGDETTOTKN(-1))))-0.0921874580409631*((LOG(PAKNEIMPGNFSXN/PAKNYGDPFCSTXN))-(LOG(PAKNEIMPGNFSXN(-1)/PAKNYGDPFCSTXN(-1))))-0.0361746331863615*DURING_2012) )) * (1-PAKNEIMPGNFSKN_D)+ PAKNEIMPGNFSKN_X*PAKNEIMPGNFSKN_D  $">
<polygon fill="#ff7f24" stroke="none" points="15.3,-633.3 15.3,-655.3 347.3,-655.3 347.3,-633.3 15.3,-633.3"/>
<polygon fill="none" stroke="black" points="15.3,-633.3 15.3,-655.3 347.3,-655.3 347.3,-633.3 15.3,-633.3"/>
<text text-anchor="start" x="84.55" y="-639" font-family="Times New Roman,serif" font-size="14.00" fill="blue">PAKNEIMPGNFSKN:Imports real</text>
</a>
</g>
<polygon fill="none" stroke="black" points="15.3,-609.3 15.3,-631.3 89.3,-631.3 89.3,-609.3 15.3,-609.3"/>
<text text-anchor="start" x="18.3" y="-615" font-family="Times New Roman,serif" font-size="14.00" fill="blue">Per</text>
<polygon fill="none" stroke="black" points="91.3,-609.3 91.3,-631.3 175.3,-631.3 175.3,-609.3 91.3,-609.3"/>
<text text-anchor="start" x="119.8" y="-615" font-family="Times New Roman,serif" font-size="14.00" fill="blue">2025</text>
<polygon fill="none" stroke="black" points="177.3,-609.3 177.3,-631.3 261.3,-631.3 261.3,-609.3 177.3,-609.3"/>
<text text-anchor="start" x="205.8" y="-615" font-family="Times New Roman,serif" font-size="14.00" fill="blue">2026</text>
<polygon fill="none" stroke="black" points="263.3,-609.3 263.3,-631.3 347.3,-631.3 347.3,-609.3 263.3,-609.3"/>
<text text-anchor="start" x="291.8" y="-615" font-family="Times New Roman,serif" font-size="14.00" fill="blue">2027</text>
<g id="a_node2_19"><a xlink:href="bogus" xlink:title="Baseline values">
<polygon fill="none" stroke="black" points="15.3,-585.3 15.3,-607.3 89.3,-607.3 89.3,-585.3 15.3,-585.3"/>
<text text-anchor="start" x="18.3" y="-591" font-family="Times New Roman,serif" font-size="14.00" fill="blue">Base</text>
</a>
</g>
<g id="a_node2_20"><a xlink:href="bogus" xlink:title="Baseline values">
<polygon fill="none" stroke="black" points="91.3,-585.3 91.3,-607.3 175.3,-607.3 175.3,-585.3 91.3,-585.3"/>
<text text-anchor="start" x="93.92" y="-591" font-family="Times New Roman,serif" font-size="14.00" fill="blue">7,341,614.133</text>
</a>
</g>
<g id="a_node2_21"><a xlink:href="bogus" xlink:title="Baseline values">
<polygon fill="none" stroke="black" points="177.3,-585.3 177.3,-607.3 261.3,-607.3 261.3,-585.3 177.3,-585.3"/>
<text text-anchor="start" x="179.92" y="-591" font-family="Times New Roman,serif" font-size="14.00" fill="blue">7,569,481.265</text>
</a>
</g>
<g id="a_node2_22"><a xlink:href="bogus" xlink:title="Baseline values">
<polygon fill="none" stroke="black" points="263.3,-585.3 263.3,-607.3 347.3,-607.3 347.3,-585.3 263.3,-585.3"/>
<text text-anchor="start" x="265.92" y="-591" font-family="Times New Roman,serif" font-size="14.00" fill="blue">7,797,820.681</text>
</a>
</g>
<g id="a_node2_23"><a xlink:href="bogus" xlink:title="Latest run values">
<polygon fill="none" stroke="black" points="15.3,-561.3 15.3,-583.3 89.3,-583.3 89.3,-561.3 15.3,-561.3"/>
<text text-anchor="start" x="18.3" y="-567" font-family="Times New Roman,serif" font-size="14.00" fill="blue">Last</text>
</a>
</g>
<polygon fill="none" stroke="black" points="91.3,-561.3 91.3,-583.3 175.3,-583.3 175.3,-561.3 91.3,-561.3"/>
<text text-anchor="start" x="93.92" y="-567" font-family="Times New Roman,serif" font-size="14.00" fill="blue">7,333,341.116</text>
<polygon fill="none" stroke="black" points="177.3,-561.3 177.3,-583.3 261.3,-583.3 261.3,-561.3 177.3,-561.3"/>
<text text-anchor="start" x="179.92" y="-567" font-family="Times New Roman,serif" font-size="14.00" fill="blue">7,490,351.413</text>
<polygon fill="none" stroke="black" points="263.3,-561.3 263.3,-583.3 347.3,-583.3 347.3,-561.3 263.3,-561.3"/>
<text text-anchor="start" x="265.92" y="-567" font-family="Times New Roman,serif" font-size="14.00" fill="blue">7,664,901.096</text>
<g id="a_node2_24"><a xlink:href="bogus" xlink:title="Difference between baseline and latest run">
<polygon fill="none" stroke="black" points="15.3,-537.3 15.3,-559.3 89.3,-559.3 89.3,-537.3 15.3,-537.3"/>
<text text-anchor="start" x="18.3" y="-543" font-family="Times New Roman,serif" font-size="14.00" fill="blue">Diff</text>
</a>
</g>
<polygon fill="none" stroke="black" points="91.3,-537.3 91.3,-559.3 175.3,-559.3 175.3,-537.3 91.3,-537.3"/>
<text text-anchor="start" x="113.05" y="-543" font-family="Times New Roman,serif" font-size="14.00" fill="blue">-8,273.017</text>
<polygon fill="none" stroke="black" points="177.3,-537.3 177.3,-559.3 261.3,-559.3 261.3,-537.3 177.3,-537.3"/>
<text text-anchor="start" x="192.3" y="-543" font-family="Times New Roman,serif" font-size="14.00" fill="blue">-79,129.852</text>
<polygon fill="none" stroke="black" points="263.3,-537.3 263.3,-559.3 347.3,-559.3 347.3,-537.3 263.3,-537.3"/>
<text text-anchor="start" x="271.55" y="-543" font-family="Times New Roman,serif" font-size="14.00" fill="blue">-132,919.585</text>
<polygon fill="none" stroke="black" points="15.3,-513.3 15.3,-535.3 347.3,-535.3 347.3,-513.3 15.3,-513.3"/>
<text text-anchor="start" x="146.8" y="-519" font-family="Times New Roman,serif" font-size="14.00" fill="blue"> Growth rate</text>
<g id="a_node2_25"><a xlink:href="bogus" xlink:title="Base growth
Exogen">
<polygon fill="none" stroke="black" points="15.3,-489.3 15.3,-511.3 89.3,-511.3 89.3,-489.3 15.3,-489.3"/>
<text text-anchor="start" x="18.17" y="-495" font-family="Times New Roman,serif" font-size="14.00" fill="blue">Base growth</text>
</a>
</g>
<polygon fill="none" stroke="black" points="91.3,-489.3 91.3,-511.3 175.3,-511.3 175.3,-489.3 91.3,-489.3"/>
<text text-anchor="start" x="141.55" y="-495" font-family="Times New Roman,serif" font-size="14.00" fill="blue">3.102</text>
<polygon fill="none" stroke="black" points="177.3,-489.3 177.3,-511.3 261.3,-511.3 261.3,-489.3 177.3,-489.3"/>
<text text-anchor="start" x="227.55" y="-495" font-family="Times New Roman,serif" font-size="14.00" fill="blue">3.104</text>
<polygon fill="none" stroke="black" points="263.3,-489.3 263.3,-511.3 347.3,-511.3 347.3,-489.3 263.3,-489.3"/>
<text text-anchor="start" x="313.55" y="-495" font-family="Times New Roman,serif" font-size="14.00" fill="blue">3.017</text>
<g id="a_node2_26"><a xlink:href="bogus" xlink:title="Last growth
Exogen">
<polygon fill="none" stroke="black" points="15.3,-465.3 15.3,-487.3 89.3,-487.3 89.3,-465.3 15.3,-465.3"/>
<text text-anchor="start" x="18.3" y="-471" font-family="Times New Roman,serif" font-size="14.00" fill="blue">Last growth</text>
</a>
</g>
<polygon fill="none" stroke="black" points="91.3,-465.3 91.3,-487.3 175.3,-487.3 175.3,-465.3 91.3,-465.3"/>
<text text-anchor="start" x="141.55" y="-471" font-family="Times New Roman,serif" font-size="14.00" fill="blue">2.986</text>
<polygon fill="none" stroke="black" points="177.3,-465.3 177.3,-487.3 261.3,-487.3 261.3,-465.3 177.3,-465.3"/>
<text text-anchor="start" x="227.55" y="-471" font-family="Times New Roman,serif" font-size="14.00" fill="blue">2.141</text>
<polygon fill="none" stroke="black" points="263.3,-465.3 263.3,-487.3 347.3,-487.3 347.3,-465.3 263.3,-465.3"/>
<text text-anchor="start" x="313.55" y="-471" font-family="Times New Roman,serif" font-size="14.00" fill="blue">2.330</text>
<polygon fill="none" stroke="black" points="12.3,-462.3 12.3,-658.3 350.3,-658.3 350.3,-462.3 12.3,-462.3"/>
</g>
<!-- PAKNEIMPGNFSKN&#45;&gt;PAKNYGDPMKTPKN -->
<g id="edge2" class="edge">
<title>PAKNEIMPGNFSKN-&gt;PAKNYGDPMKTPKN</title>
<g id="a_edge2"><a xlink:href="bogus" xlink:title=" PAKNEIMPGNFSKN -&gt; PAKNYGDPMKTPKN Min. att. 8%  max: 77%">
<path fill="none" stroke="black" stroke-width="7.74" d="M352.51,-513.52C362.55,-510.76 372.7,-507.97 382.83,-505.19"/>
<polygon fill="black" stroke="black" stroke-width="7.74" points="384.35,-511.15 392.19,-501.96 380.76,-498.08 384.35,-511.15"/>
</a>
</g>
</g>
<!-- PAKNEGDIFTOTKN -->
<g id="node3" class="node">
<title>PAKNEGDIFTOTKN</title>
<polygon fill="none" stroke="black" points="352.1,-442.1 10.5,-442.1 10.5,-242.5 352.1,-242.5 352.1,-442.1"/>
<g id="a_node3_27"><a xlink:href="bogus" xlink:title="Investment real
FRML &lt;IDENT&gt; PAKNEGDIFTOTKN = PAKNEGDIFGOVKN+PAKNEGDIFPRVKN $">
<polygon fill="#ff7f24" stroke="none" points="15.3,-415.3 15.3,-437.3 347.3,-437.3 347.3,-415.3 15.3,-415.3"/>
<polygon fill="none" stroke="black" points="15.3,-415.3 15.3,-437.3 347.3,-437.3 347.3,-415.3 15.3,-415.3"/>
<text text-anchor="start" x="76.3" y="-421" font-family="Times New Roman,serif" font-size="14.00" fill="blue">PAKNEGDIFTOTKN:Investment real</text>
</a>
</g>
<polygon fill="none" stroke="black" points="15.3,-391.3 15.3,-413.3 89.3,-413.3 89.3,-391.3 15.3,-391.3"/>
<text text-anchor="start" x="18.3" y="-397" font-family="Times New Roman,serif" font-size="14.00" fill="blue">Per</text>
<polygon fill="none" stroke="black" points="91.3,-391.3 91.3,-413.3 175.3,-413.3 175.3,-391.3 91.3,-391.3"/>
<text text-anchor="start" x="119.8" y="-397" font-family="Times New Roman,serif" font-size="14.00" fill="blue">2025</text>
<polygon fill="none" stroke="black" points="177.3,-391.3 177.3,-413.3 261.3,-413.3 261.3,-391.3 177.3,-391.3"/>
<text text-anchor="start" x="205.8" y="-397" font-family="Times New Roman,serif" font-size="14.00" fill="blue">2026</text>
<polygon fill="none" stroke="black" points="263.3,-391.3 263.3,-413.3 347.3,-413.3 347.3,-391.3 263.3,-391.3"/>
<text text-anchor="start" x="291.8" y="-397" font-family="Times New Roman,serif" font-size="14.00" fill="blue">2027</text>
<g id="a_node3_28"><a xlink:href="bogus" xlink:title="Baseline values">
<polygon fill="none" stroke="black" points="15.3,-367.3 15.3,-389.3 89.3,-389.3 89.3,-367.3 15.3,-367.3"/>
<text text-anchor="start" x="18.3" y="-373" font-family="Times New Roman,serif" font-size="14.00" fill="blue">Base</text>
</a>
</g>
<g id="a_node3_29"><a xlink:href="bogus" xlink:title="Baseline values">
<polygon fill="none" stroke="black" points="91.3,-367.3 91.3,-389.3 175.3,-389.3 175.3,-367.3 91.3,-367.3"/>
<text text-anchor="start" x="93.92" y="-373" font-family="Times New Roman,serif" font-size="14.00" fill="blue">3,163,965.352</text>
</a>
</g>
<g id="a_node3_30"><a xlink:href="bogus" xlink:title="Baseline values">
<polygon fill="none" stroke="black" points="177.3,-367.3 177.3,-389.3 261.3,-389.3 261.3,-367.3 177.3,-367.3"/>
<text text-anchor="start" x="179.92" y="-373" font-family="Times New Roman,serif" font-size="14.00" fill="blue">3,210,065.336</text>
</a>
</g>
<g id="a_node3_31"><a xlink:href="bogus" xlink:title="Baseline values">
<polygon fill="none" stroke="black" points="263.3,-367.3 263.3,-389.3 347.3,-389.3 347.3,-367.3 263.3,-367.3"/>
<text text-anchor="start" x="265.92" y="-373" font-family="Times New Roman,serif" font-size="14.00" fill="blue">3,268,452.239</text>
</a>
</g>
<g id="a_node3_32"><a xlink:href="bogus" xlink:title="Latest run values">
<polygon fill="none" stroke="black" points="15.3,-343.3 15.3,-365.3 89.3,-365.3 89.3,-343.3 15.3,-343.3"/>
<text text-anchor="start" x="18.3" y="-349" font-family="Times New Roman,serif" font-size="14.00" fill="blue">Last</text>
</a>
</g>
<polygon fill="none" stroke="black" points="91.3,-343.3 91.3,-365.3 175.3,-365.3 175.3,-343.3 91.3,-343.3"/>
<text text-anchor="start" x="93.92" y="-349" font-family="Times New Roman,serif" font-size="14.00" fill="blue">3,285,043.278</text>
<polygon fill="none" stroke="black" points="177.3,-343.3 177.3,-365.3 261.3,-365.3 261.3,-343.3 177.3,-343.3"/>
<text text-anchor="start" x="179.92" y="-349" font-family="Times New Roman,serif" font-size="14.00" fill="blue">3,356,015.827</text>
<polygon fill="none" stroke="black" points="263.3,-343.3 263.3,-365.3 347.3,-365.3 347.3,-343.3 263.3,-343.3"/>
<text text-anchor="start" x="265.92" y="-349" font-family="Times New Roman,serif" font-size="14.00" fill="blue">3,420,600.881</text>
<g id="a_node3_33"><a xlink:href="bogus" xlink:title="Difference between baseline and latest run">
<polygon fill="none" stroke="black" points="15.3,-319.3 15.3,-341.3 89.3,-341.3 89.3,-319.3 15.3,-319.3"/>
<text text-anchor="start" x="18.3" y="-325" font-family="Times New Roman,serif" font-size="14.00" fill="blue">Diff</text>
</a>
</g>
<polygon fill="none" stroke="black" points="91.3,-319.3 91.3,-341.3 175.3,-341.3 175.3,-319.3 91.3,-319.3"/>
<text text-anchor="start" x="104.05" y="-325" font-family="Times New Roman,serif" font-size="14.00" fill="blue">121,077.926</text>
<polygon fill="none" stroke="black" points="177.3,-319.3 177.3,-341.3 261.3,-341.3 261.3,-319.3 177.3,-319.3"/>
<text text-anchor="start" x="190.05" y="-325" font-family="Times New Roman,serif" font-size="14.00" fill="blue">145,950.491</text>
<polygon fill="none" stroke="black" points="263.3,-319.3 263.3,-341.3 347.3,-341.3 347.3,-319.3 263.3,-319.3"/>
<text text-anchor="start" x="276.05" y="-325" font-family="Times New Roman,serif" font-size="14.00" fill="blue">152,148.642</text>
<polygon fill="none" stroke="black" points="15.3,-295.3 15.3,-317.3 347.3,-317.3 347.3,-295.3 15.3,-295.3"/>
<text text-anchor="start" x="146.8" y="-301" font-family="Times New Roman,serif" font-size="14.00" fill="blue"> Growth rate</text>
<g id="a_node3_34"><a xlink:href="bogus" xlink:title="Base growth
Exogen">
<polygon fill="none" stroke="black" points="15.3,-271.3 15.3,-293.3 89.3,-293.3 89.3,-271.3 15.3,-271.3"/>
<text text-anchor="start" x="18.17" y="-277" font-family="Times New Roman,serif" font-size="14.00" fill="blue">Base growth</text>
</a>
</g>
<polygon fill="none" stroke="black" points="91.3,-271.3 91.3,-293.3 175.3,-293.3 175.3,-271.3 91.3,-271.3"/>
<text text-anchor="start" x="141.55" y="-277" font-family="Times New Roman,serif" font-size="14.00" fill="blue">1.099</text>
<polygon fill="none" stroke="black" points="177.3,-271.3 177.3,-293.3 261.3,-293.3 261.3,-271.3 177.3,-271.3"/>
<text text-anchor="start" x="227.55" y="-277" font-family="Times New Roman,serif" font-size="14.00" fill="blue">1.457</text>
<polygon fill="none" stroke="black" points="263.3,-271.3 263.3,-293.3 347.3,-293.3 347.3,-271.3 263.3,-271.3"/>
<text text-anchor="start" x="313.55" y="-277" font-family="Times New Roman,serif" font-size="14.00" fill="blue">1.819</text>
<g id="a_node3_35"><a xlink:href="bogus" xlink:title="Last growth
Exogen">
<polygon fill="none" stroke="black" points="15.3,-247.3 15.3,-269.3 89.3,-269.3 89.3,-247.3 15.3,-247.3"/>
<text text-anchor="start" x="18.3" y="-253" font-family="Times New Roman,serif" font-size="14.00" fill="blue">Last growth</text>
</a>
</g>
<polygon fill="none" stroke="black" points="91.3,-247.3 91.3,-269.3 175.3,-269.3 175.3,-247.3 91.3,-247.3"/>
<text text-anchor="start" x="141.55" y="-253" font-family="Times New Roman,serif" font-size="14.00" fill="blue">4.968</text>
<polygon fill="none" stroke="black" points="177.3,-247.3 177.3,-269.3 261.3,-269.3 261.3,-247.3 177.3,-247.3"/>
<text text-anchor="start" x="227.55" y="-253" font-family="Times New Roman,serif" font-size="14.00" fill="blue">2.160</text>
<polygon fill="none" stroke="black" points="263.3,-247.3 263.3,-269.3 347.3,-269.3 347.3,-247.3 263.3,-247.3"/>
<text text-anchor="start" x="313.55" y="-253" font-family="Times New Roman,serif" font-size="14.00" fill="blue">1.924</text>
<polygon fill="none" stroke="black" points="12.3,-244.3 12.3,-440.3 350.3,-440.3 350.3,-244.3 12.3,-244.3"/>
</g>
<!-- PAKNEGDIFTOTKN&#45;&gt;PAKNYGDPMKTPKN -->
<g id="edge1" class="edge">
<title>PAKNEGDIFTOTKN-&gt;PAKNYGDPMKTPKN</title>
<g id="a_edge1"><a xlink:href="bogus" xlink:title=" PAKNEGDIFTOTKN -&gt; PAKNYGDPMKTPKN Min. att. 84%  max: 121%">
<path fill="none" stroke="black" stroke-width="8" d="M352.51,-389.08C362.55,-391.84 372.7,-394.63 382.83,-397.41"/>
<polygon fill="black" stroke="black" stroke-width="8" points="380.7,-404.74 392.19,-400.64 384.41,-391.24 380.7,-404.74"/>
</a>
</g>
</g>
<!-- PAKNECONGOVTKN -->
<g id="node4" class="node">
<title>PAKNECONGOVTKN</title>
<polygon fill="none" stroke="black" points="352.1,-224.1 10.5,-224.1 10.5,-24.5 352.1,-24.5 352.1,-224.1"/>
<g id="a_node4_36"><a xlink:href="bogus" xlink:title="Gov. Cons real
FRML &lt;IDENT&gt; PAKNECONGOVTKN = PAKNECONGOVTCN/PAKNECONGOVTXN $">
<polygon fill="#ff7f24" stroke="none" points="15.3,-197.3 15.3,-219.3 347.3,-219.3 347.3,-197.3 15.3,-197.3"/>
<polygon fill="none" stroke="black" points="15.3,-197.3 15.3,-219.3 347.3,-219.3 347.3,-197.3 15.3,-197.3"/>
<text text-anchor="start" x="73.67" y="-203" font-family="Times New Roman,serif" font-size="14.00" fill="blue">PAKNECONGOVTKN:Gov. Cons real</text>
</a>
</g>
<polygon fill="none" stroke="black" points="15.3,-173.3 15.3,-195.3 89.3,-195.3 89.3,-173.3 15.3,-173.3"/>
<text text-anchor="start" x="18.3" y="-179" font-family="Times New Roman,serif" font-size="14.00" fill="blue">Per</text>
<polygon fill="none" stroke="black" points="91.3,-173.3 91.3,-195.3 175.3,-195.3 175.3,-173.3 91.3,-173.3"/>
<text text-anchor="start" x="119.8" y="-179" font-family="Times New Roman,serif" font-size="14.00" fill="blue">2025</text>
<polygon fill="none" stroke="black" points="177.3,-173.3 177.3,-195.3 261.3,-195.3 261.3,-173.3 177.3,-173.3"/>
<text text-anchor="start" x="205.8" y="-179" font-family="Times New Roman,serif" font-size="14.00" fill="blue">2026</text>
<polygon fill="none" stroke="black" points="263.3,-173.3 263.3,-195.3 347.3,-195.3 347.3,-173.3 263.3,-173.3"/>
<text text-anchor="start" x="291.8" y="-179" font-family="Times New Roman,serif" font-size="14.00" fill="blue">2027</text>
<g id="a_node4_37"><a xlink:href="bogus" xlink:title="Baseline values">
<polygon fill="none" stroke="black" points="15.3,-149.3 15.3,-171.3 89.3,-171.3 89.3,-149.3 15.3,-149.3"/>
<text text-anchor="start" x="18.3" y="-155" font-family="Times New Roman,serif" font-size="14.00" fill="blue">Base</text>
</a>
</g>
<g id="a_node4_38"><a xlink:href="bogus" xlink:title="Baseline values">
<polygon fill="none" stroke="black" points="91.3,-149.3 91.3,-171.3 175.3,-171.3 175.3,-149.3 91.3,-149.3"/>
<text text-anchor="start" x="93.92" y="-155" font-family="Times New Roman,serif" font-size="14.00" fill="blue">3,278,415.175</text>
</a>
</g>
<g id="a_node4_39"><a xlink:href="bogus" xlink:title="Baseline values">
<polygon fill="none" stroke="black" points="177.3,-149.3 177.3,-171.3 261.3,-171.3 261.3,-149.3 177.3,-149.3"/>
<text text-anchor="start" x="179.92" y="-155" font-family="Times New Roman,serif" font-size="14.00" fill="blue">3,411,351.652</text>
</a>
</g>
<g id="a_node4_40"><a xlink:href="bogus" xlink:title="Baseline values">
<polygon fill="none" stroke="black" points="263.3,-149.3 263.3,-171.3 347.3,-171.3 347.3,-149.3 263.3,-149.3"/>
<text text-anchor="start" x="265.92" y="-155" font-family="Times New Roman,serif" font-size="14.00" fill="blue">3,554,456.759</text>
</a>
</g>
<g id="a_node4_41"><a xlink:href="bogus" xlink:title="Latest run values">
<polygon fill="none" stroke="black" points="15.3,-125.3 15.3,-147.3 89.3,-147.3 89.3,-125.3 15.3,-125.3"/>
<text text-anchor="start" x="18.3" y="-131" font-family="Times New Roman,serif" font-size="14.00" fill="blue">Last</text>
</a>
</g>
<polygon fill="none" stroke="black" points="91.3,-125.3 91.3,-147.3 175.3,-147.3 175.3,-125.3 91.3,-125.3"/>
<text text-anchor="start" x="93.92" y="-131" font-family="Times New Roman,serif" font-size="14.00" fill="blue">3,463,994.197</text>
<polygon fill="none" stroke="black" points="177.3,-125.3 177.3,-147.3 261.3,-147.3 261.3,-125.3 177.3,-125.3"/>
<text text-anchor="start" x="179.92" y="-131" font-family="Times New Roman,serif" font-size="14.00" fill="blue">3,628,623.336</text>
<polygon fill="none" stroke="black" points="263.3,-125.3 263.3,-147.3 347.3,-147.3 347.3,-125.3 263.3,-125.3"/>
<text text-anchor="start" x="265.92" y="-131" font-family="Times New Roman,serif" font-size="14.00" fill="blue">3,762,739.688</text>
<g id="a_node4_42"><a xlink:href="bogus" xlink:title="Difference between baseline and latest run">
<polygon fill="none" stroke="black" points="15.3,-101.3 15.3,-123.3 89.3,-123.3 89.3,-101.3 15.3,-101.3"/>
<text text-anchor="start" x="18.3" y="-107" font-family="Times New Roman,serif" font-size="14.00" fill="blue">Diff</text>
</a>
</g>
<polygon fill="none" stroke="black" points="91.3,-101.3 91.3,-123.3 175.3,-123.3 175.3,-101.3 91.3,-101.3"/>
<text text-anchor="start" x="104.05" y="-107" font-family="Times New Roman,serif" font-size="14.00" fill="blue">185,579.022</text>
<polygon fill="none" stroke="black" points="177.3,-101.3 177.3,-123.3 261.3,-123.3 261.3,-101.3 177.3,-101.3"/>
<text text-anchor="start" x="190.05" y="-107" font-family="Times New Roman,serif" font-size="14.00" fill="blue">217,271.684</text>
<polygon fill="none" stroke="black" points="263.3,-101.3 263.3,-123.3 347.3,-123.3 347.3,-101.3 263.3,-101.3"/>
<text text-anchor="start" x="276.05" y="-107" font-family="Times New Roman,serif" font-size="14.00" fill="blue">208,282.928</text>
<polygon fill="none" stroke="black" points="15.3,-77.3 15.3,-99.3 347.3,-99.3 347.3,-77.3 15.3,-77.3"/>
<text text-anchor="start" x="146.8" y="-83" font-family="Times New Roman,serif" font-size="14.00" fill="blue"> Growth rate</text>
<g id="a_node4_43"><a xlink:href="bogus" xlink:title="Base growth
Exogen">
<polygon fill="none" stroke="black" points="15.3,-53.3 15.3,-75.3 89.3,-75.3 89.3,-53.3 15.3,-53.3"/>
<text text-anchor="start" x="18.17" y="-59" font-family="Times New Roman,serif" font-size="14.00" fill="blue">Base growth</text>
</a>
</g>
<polygon fill="none" stroke="black" points="91.3,-53.3 91.3,-75.3 175.3,-75.3 175.3,-53.3 91.3,-53.3"/>
<text text-anchor="start" x="141.55" y="-59" font-family="Times New Roman,serif" font-size="14.00" fill="blue">3.576</text>
<polygon fill="none" stroke="black" points="177.3,-53.3 177.3,-75.3 261.3,-75.3 261.3,-53.3 177.3,-53.3"/>
<text text-anchor="start" x="227.55" y="-59" font-family="Times New Roman,serif" font-size="14.00" fill="blue">4.055</text>
<polygon fill="none" stroke="black" points="263.3,-53.3 263.3,-75.3 347.3,-75.3 347.3,-53.3 263.3,-53.3"/>
<text text-anchor="start" x="313.55" y="-59" font-family="Times New Roman,serif" font-size="14.00" fill="blue">4.195</text>
<g id="a_node4_44"><a xlink:href="bogus" xlink:title="Last growth
Exogen">
<polygon fill="none" stroke="black" points="15.3,-29.3 15.3,-51.3 89.3,-51.3 89.3,-29.3 15.3,-29.3"/>
<text text-anchor="start" x="18.3" y="-35" font-family="Times New Roman,serif" font-size="14.00" fill="blue">Last growth</text>
</a>
</g>
<polygon fill="none" stroke="black" points="91.3,-29.3 91.3,-51.3 175.3,-51.3 175.3,-29.3 91.3,-29.3"/>
<text text-anchor="start" x="141.55" y="-35" font-family="Times New Roman,serif" font-size="14.00" fill="blue">9.439</text>
<polygon fill="none" stroke="black" points="177.3,-29.3 177.3,-51.3 261.3,-51.3 261.3,-29.3 177.3,-29.3"/>
<text text-anchor="start" x="227.55" y="-35" font-family="Times New Roman,serif" font-size="14.00" fill="blue">4.753</text>
<polygon fill="none" stroke="black" points="263.3,-29.3 263.3,-51.3 347.3,-51.3 347.3,-29.3 263.3,-29.3"/>
<text text-anchor="start" x="313.55" y="-35" font-family="Times New Roman,serif" font-size="14.00" fill="blue">3.696</text>
<polygon fill="none" stroke="black" points="12.3,-26.3 12.3,-222.3 350.3,-222.3 350.3,-26.3 12.3,-26.3"/>
</g>
<!-- PAKNECONGOVTKN&#45;&gt;PAKNYGDPMKTPKN -->
<g id="edge4" class="edge">
<title>PAKNECONGOVTKN-&gt;PAKNYGDPMKTPKN</title>
<g id="a_edge4"><a xlink:href="bogus" xlink:title=" PAKNECONGOVTKN -&gt; PAKNYGDPMKTPKN Min. att. 121%  max: 186%">
<path fill="none" stroke="black" stroke-width="8" d="M351.15,-224.54C355.04,-227.44 358.86,-230.36 362.6,-233.3 403.04,-265.11 443.74,-303.93 478.74,-339.94"/>
<polygon fill="black" stroke="black" stroke-width="8" points="473.44,-343.67 485.42,-346.01 483.52,-333.95 473.44,-343.67"/>
</a>
</g>
</g>
</g>
</svg>