<svg xmlns="http://www.w3.org/2000/svg" xmlns:xlink="http://www.w3.org/1999/xlink" width="432pt" height="115pt" viewBox="0.00 0.00 432.00 114.51">
<g id="graph0" class="graph" transform="scale(0.188646 0.188646) rotate(0) translate(4 603)">
<title>TD</title>
<polygon fill="white" stroke="none" points="-4,4 -4,-603 2286,-603 2286,4 -4,4"/>
<text text-anchor="middle" x="1141" y="-7.8" font-family="Times New Roman,serif" font-size="14.00">PAKNYGDPMKTPKN</text>
<!-- PAKGGEXPGNFSCN -->
<g id="node1" class="node">
<title>PAKGGEXPGNFSCN</title>
<g id="a_node1"><a xlink:title="Expenditure on Goods and Services
FRML &lt;Z,EXO&gt; PAKGGEXPGNFSCN = (0.3*PAKGGEXPGNFSCN(-1)+(1-0.3)*(0.80*(PAKGGREVTOTLCN-PAKGGEXPINTPCN(-0)))+505277.259999999*DURING_2012 + PAKGGEXPGNFSCN_A)* (1-PAKGGEXPGNFSCN_D)+ PAKGGEXPGNFSCN_X*PAKGGEXPGNFSCN_D  $">
<polygon fill="#63b8ff" stroke="black" points="661,-113 325,-113 325,-77 661,-77 661,-113"/>
<text text-anchor="start" x="331" y="-90.8" font-family="Times New Roman,serif" font-size="14.00" fill="blue">PAKGGEXPGNFSCN:Expenditure on Goods and Services</text>
</a>
</g>
</g>
<!-- PAKNECONGOVTCN -->
<g id="node15" class="node">
<title>PAKNECONGOVTCN</title>
<g id="a_node15"><a xlink:title="Government consumption (G&amp;S)
FRML &lt;Z,EXO&gt; PAKNECONGOVTCN = (-PAKNECONGOVTCN_A*PAKNECONGOVTCN(-1)/100+ ((100 * ( (PAKGGEXPGNFSCN) / (PAKGGEXPGNFSCN(-1)) -1)) +0.764199817873939*DUMH) *PAKNECONGOVTCN(-1)/100+PAKNECONGOVTCN(-1)) * (1-PAKNECONGOVTCN_D)+ PAKNECONGOVTCN_X*PAKNECONGOVTCN_D  $">
<polygon fill="#63b8ff" stroke="black" points="1026.5,-113 697.5,-113 697.5,-77 1026.5,-77 1026.5,-113"/>
<text text-anchor="start" x="704" y="-90.8" font-family="Times New Roman,serif" font-size="14.00" fill="blue">PAKNECONGOVTCN:Government consumption (G&amp;S)</text>
</a>
</g>
</g>
<!-- PAKGGEXPGNFSCN&#45;&gt;PAKNECONGOVTCN -->
<g id="edge14" class="edge">
<title>PAKGGEXPGNFSCN-&gt;PAKNECONGOVTCN</title>
<g id="a_edge14"><a xlink:href="bogus" xlink:title=" PAKGGEXPGNFSCN -&gt; PAKNECONGOVTCN Min. att. -18%  max: 100%">
<path fill="none" stroke="black" stroke-width="8" d="M661.39,-95C667.72,-95 674.07,-95 680.42,-95"/>
<polygon fill="black" stroke="black" stroke-width="8" points="680.22,-102 690.22,-95 680.22,-88 680.22,-102"/>
</a>
</g>
</g>
<!-- PAKNEGDIFTOTKN -->
<g id="node2" class="node">
<title>PAKNEGDIFTOTKN</title>
<g id="a_node2"><a xlink:title="Total Gross Capital Formation
FRML  &lt;&gt; PAKNEGDIFTOTKN = PAKNEGDIFGOVKN+PAKNEGDIFPRVKN $">
<polygon fill="#63b8ff" stroke="black" points="1367,-392 1063,-392 1063,-356 1367,-356 1367,-392"/>
<text text-anchor="start" x="1069" y="-369.8" font-family="Times New Roman,serif" font-size="14.00" fill="blue">PAKNEGDIFTOTKN:Total Gross Capital Formation</text>
</a>
</g>
</g>
<!-- PAKNEGDETTOTKN -->
<g id="node3" class="node">
<title>PAKNEGDETTOTKN</title>
<g id="a_node3"><a xlink:title="GDE
FRML  &lt;&gt; PAKNEGDETTOTKN = (PAKNECONPRVTKN+PAKNECONGOVTKN+PAKNEGDIFTOTKN+PAKNEGDISTKBKN+PAKNYGDPDISCKN) $">
<polygon fill="#63b8ff" stroke="black" points="1599.5,-257 1429.5,-257 1429.5,-221 1599.5,-221 1599.5,-257"/>
<text text-anchor="start" x="1435.5" y="-234.8" font-family="Times New Roman,serif" font-size="14.00" fill="blue">PAKNEGDETTOTKN:GDE</text>
</a>
</g>
</g>
<!-- PAKNEGDIFTOTKN&#45;&gt;PAKNEGDETTOTKN -->
<g id="edge15" class="edge">
<title>PAKNEGDIFTOTKN-&gt;PAKNEGDETTOTKN</title>
<g id="a_edge15"><a xlink:href="bogus" xlink:title=" PAKNEGDIFTOTKN -&gt; PAKNEGDETTOTKN Min. att. -1115%  max: 1147%">
<path fill="none" stroke="black" stroke-width="8" d="M1256.74,-355.51C1308.78,-331.9 1399.09,-290.92 1457.55,-264.39"/>
<polygon fill="black" stroke="black" stroke-width="8" points="1460.21,-270.87 1466.42,-260.36 1454.42,-258.12 1460.21,-270.87"/>
</a>
</g>
</g>
<!-- PAKNYGDPMKTPKN -->
<g id="node12" class="node">
<title>PAKNYGDPMKTPKN</title>
<g id="a_node12"><a xlink:title="GDP Expenditure side at market prices
FRML  &lt;&gt; PAKNYGDPMKTPKN = PAKNECONPRVTKN+PAKNECONGOVTKN+PAKNEGDIFTOTKN+PAKNEGDISTKBKN+PAKNEEXPGNFSKN-PAKNEIMPGNFSKN+PAKNYGDPDISCKN+PAKADAP*PAKDISPREPKN $">
<polygon fill="red" stroke="black" points="2282,-257 1921,-257 1921,-221 2282,-221 2282,-257"/>
<text text-anchor="start" x="1927.5" y="-234.8" font-family="Times New Roman,serif" font-size="14.00" fill="blue">PAKNYGDPMKTPKN:GDP Expenditure side at market prices</text>
</a>
</g>
</g>
<!-- PAKNEGDIFTOTKN&#45;&gt;PAKNYGDPMKTPKN -->
<g id="edge29" class="edge">
<title>PAKNEGDIFTOTKN-&gt;PAKNYGDPMKTPKN</title>
<g id="a_edge29"><a xlink:href="bogus" xlink:title=" PAKNEGDIFTOTKN -&gt; PAKNYGDPMKTPKN Min. att. -36%  max: 366%">
<path fill="none" stroke="black" stroke-width="8" d="M1348.79,-355.53C1483.89,-336.51 1699.23,-305.55 1885,-276 1915.67,-271.12 1948.74,-265.58 1979.54,-260.31"/>
<polygon fill="black" stroke="black" stroke-width="8" points="1980.37,-267.27 1989.03,-258.67 1977.99,-253.47 1980.37,-267.27"/>
</a>
</g>
</g>
<!-- PAKNEIMPGNFSKN -->
<g id="node19" class="node">
<title>PAKNEIMPGNFSKN</title>
<g id="a_node19"><a xlink:title="Imports (G&amp;S)
FRML &lt;Z,EXO&gt; PAKNEIMPGNFSKN = (PAKNEIMPGNFSKN(-1)*EXP(-PAKNEIMPGNFSKN_A+ (-0.324143718656754*(LOG(PAKNEIMPGNFSKN(-1))-LOG(PAKNEGDETTOTKN(-1))+0.8*LOG(PAKNEIMPGNFSXN(-1)/PAKNYGDPFCSTXN(-1)))-0.583459272245018+1*((LOG(PAKNEGDETTOTKN))-(LOG(PAKNEGDETTOTKN(-1))))-0.0921874580409631*((LOG(PAKNEIMPGNFSXN/PAKNYGDPFCSTXN))-(LOG(PAKNEIMPGNFSXN(-1)/PAKNYGDPFCSTXN(-1))))-0.0361746331863615*DURING_2012) )) * (1-PAKNEIMPGNFSKN_D)+ PAKNEIMPGNFSKN_X*PAKNEIMPGNFSKN_D  $">
<polygon fill="#63b8ff" stroke="black" points="1885,-163 1662,-163 1662,-127 1885,-127 1885,-163"/>
<text text-anchor="start" x="1668.5" y="-140.8" font-family="Times New Roman,serif" font-size="14.00" fill="blue">PAKNEIMPGNFSKN:Imports (G&amp;S)</text>
</a>
</g>
</g>
<!-- PAKNEGDETTOTKN&#45;&gt;PAKNEIMPGNFSKN -->
<g id="edge11" class="edge">
<title>PAKNEGDETTOTKN-&gt;PAKNEIMPGNFSKN</title>
<g id="a_edge11"><a xlink:href="bogus" xlink:title=" PAKNEGDETTOTKN -&gt; PAKNEIMPGNFSKN Min. att. -755%  max: 207%">
<path fill="none" stroke="black" stroke-width="8" d="M1565.97,-220.54C1606.11,-205.86 1662.6,-185.2 1706.36,-169.19"/>
<polygon fill="black" stroke="black" stroke-width="8" points="1708.61,-175.82 1715.6,-165.81 1703.8,-162.67 1708.61,-175.82"/>
</a>
</g>
</g>
<!-- PAKNECONPRVTXN -->
<g id="node4" class="node">
<title>PAKNECONPRVTXN</title>
<g id="a_node4"><a xlink:title="Household demand
FRML  &lt;&gt; PAKNECONPRVTXN = ((PAKNECONENGYSH**PAKCESENGYCON)*PAKNECONENGYXN**(1-PAKCESENGYCON)+(PAKNECONOTHRSH**PAKCESENGYCON)*PAKNECONOTHRXN**(1-PAKCESENGYCON))**(1/(1-PAKCESENGYCON)) $">
<polygon fill="#63b8ff" stroke="black" points="617,-221 369,-221 369,-185 617,-185 617,-221"/>
<text text-anchor="start" x="375" y="-198.8" font-family="Times New Roman,serif" font-size="14.00" fill="blue">PAKNECONPRVTXN:Household demand</text>
</a>
</g>
</g>
<!-- PAKFMLBLPOLYXN -->
<g id="node7" class="node">
<title>PAKFMLBLPOLYXN</title>
<g id="a_node7"><a xlink:title="Policy Rate
FRML &lt;Z,EXO&gt; PAKFMLBLPOLYXN = (-100*PAKFMLBLPOLYXN_A+100* (0.905129162122953*PAKFMLBLPOLYXN(-1)/100+(1-0.905129162122953)*(PAKMPPOLNATRXN/100+1.2*(((LOG(PAKNECONPRVTXN))-(LOG(PAKNECONPRVTXN(-1))))-PAKINFLEXPT/100)+0.5*PAKNYGDPGAP_/100)) ) * (1-PAKFMLBLPOLYXN_D)+ PAKFMLBLPOLYXN_X*PAKFMLBLPOLYXN_D  $">
<polygon fill="#63b8ff" stroke="black" points="964.5,-221 759.5,-221 759.5,-185 964.5,-185 964.5,-221"/>
<text text-anchor="start" x="766" y="-198.8" font-family="Times New Roman,serif" font-size="14.00" fill="blue">PAKFMLBLPOLYXN:Policy Rate</text>
</a>
</g>
</g>
<!-- PAKNECONPRVTXN&#45;&gt;PAKFMLBLPOLYXN -->
<g id="edge26" class="edge">
<title>PAKNECONPRVTXN-&gt;PAKFMLBLPOLYXN</title>
<g id="a_edge26"><a xlink:href="bogus" xlink:title=" PAKNECONPRVTXN -&gt; PAKFMLBLPOLYXN Min. att. -94%  max: 1459%">
<path fill="none" stroke="black" stroke-width="8" d="M617.48,-203C657.74,-203 702.32,-203 742.22,-203"/>
<polygon fill="black" stroke="black" stroke-width="8" points="742.03,-210 752.03,-203 742.03,-196 742.03,-210"/>
</a>
</g>
</g>
<!-- PAKNECONGOVTXN -->
<g id="node13" class="node">
<title>PAKNECONGOVTXN</title>
<g id="a_node13"><a xlink:title="Government consumption (G&amp;S)
FRML &lt;Z,EXO&gt; PAKNECONGOVTXN = (PAKNECONGOVTXN(-1)*EXP(-PAKNECONGOVTXN_A+ (-0.3*(LOG(PAKNECONGOVTXN(-1))-LOG(PAKNECONPRVTXN(-1)))+0.0752362082122748+0.5*((LOG(PAKNECONGOVTXN(-1)))-(LOG(PAKNECONGOVTXN(-2))))+(1-0.5)*((LOG(PAKNECONPRVTXN))-(LOG(PAKNECONPRVTXN(-1))))) )) * (1-PAKNECONGOVTXN_D)+ PAKNECONGOVTXN_X*PAKNECONGOVTXN_D  $">
<polygon fill="#63b8ff" stroke="black" points="1027,-167 697,-167 697,-131 1027,-131 1027,-167"/>
<text text-anchor="start" x="703" y="-144.8" font-family="Times New Roman,serif" font-size="14.00" fill="blue">PAKNECONGOVTXN:Government consumption (G&amp;S)</text>
</a>
</g>
</g>
<!-- PAKNECONPRVTXN&#45;&gt;PAKNECONGOVTXN -->
<g id="edge16" class="edge">
<title>PAKNECONPRVTXN-&gt;PAKNECONGOVTXN</title>
<g id="a_edge16"><a xlink:href="bogus" xlink:title=" PAKNECONPRVTXN -&gt; PAKNECONGOVTXN Min. att. 26%  max: 100%">
<path fill="none" stroke="black" stroke-width="8" d="M617.48,-184.83C649.98,-180.05 685.3,-174.85 718.71,-169.94"/>
<polygon fill="black" stroke="black" stroke-width="8" points="719.67,-176.87 728.55,-168.49 717.63,-163.02 719.67,-176.87"/>
</a>
</g>
</g>
<!-- PAKNECONPRVTKN -->
<g id="node22" class="node">
<title>PAKNECONPRVTKN</title>
<g id="a_node22"><a xlink:title="Household Consumption
FRML &lt;Z,EXO&gt; PAKNECONPRVTKN = (PAKNECONPRVTKN(-1)*EXP(-PAKNECONPRVTKN_A+ (-0.2*(LOG(PAKNECONPRVTKN(-1))-LOG((PAKNYYWBTOTLCN(-1)*(1-PAKGGREVDRCTXN(-1)/100))/PAKNECONPRVTXN(-1)))+1*((LOG((PAKNYYWBTOTLCN*(1-PAKGGREVDRCTXN/100))/PAKNECONPRVTXN))-(LOG((PAKNYYWBTOTLCN(-1)*(1-PAKGGREVDRCTXN(-1)/100))/PAKNECONPRVTXN(-1))))+0.0303228629698929+0.0163839011059956*DURING_2010-0.3*(PAKFMLBLPOLYXN/100-((LOG(PAKNECONPRVTXN))-(LOG(PAKNECONPRVTXN(-1)))))) )) * (1-PAKNECONPRVTKN_D)+ PAKNECONPRVTKN_X*PAKNECONPRVTKN_D  $">
<polygon fill="#63b8ff" stroke="black" points="1354,-267 1076,-267 1076,-231 1354,-231 1354,-267"/>
<text text-anchor="start" x="1082" y="-244.8" font-family="Times New Roman,serif" font-size="14.00" fill="blue">PAKNECONPRVTKN:Household Consumption</text>
</a>
</g>
</g>
<!-- PAKNECONPRVTXN&#45;&gt;PAKNECONPRVTKN -->
<g id="edge9" class="edge">
<title>PAKNECONPRVTXN-&gt;PAKNECONPRVTKN</title>
<g id="a_edge9"><a xlink:href="bogus" xlink:title=" PAKNECONPRVTXN -&gt; PAKNECONPRVTKN Min. att. -5708%  max: 593%">
<path fill="none" stroke="black" stroke-width="8" d="M617.25,-221.31C643.52,-224.67 671.14,-227.81 697,-230 818.23,-240.27 955.92,-244.99 1058.71,-247.16"/>
<polygon fill="black" stroke="black" stroke-width="8" points="1058.43,-254.15 1068.56,-247.36 1058.71,-240.16 1058.43,-254.15"/>
</a>
</g>
</g>
<!-- PAKNYWRTTOTLCN -->
<g id="node5" class="node">
<title>PAKNYWRTTOTLCN</title>
<g id="a_node5"><a xlink:title="Wages
FRML  &lt;&gt; PAKNYWRTTOTLCN = (PAKNYWBINFMSH**PAKINFCES*(PAKNYWRTINFMCN)**(1-PAKINFCES)+PAKNYWBFORMSH**PAKINFCES*(PAKNYWRTFORMCN*(1+PAKGGREVDRCTXN/100))**(1-PAKINFCES))**(1/(1-PAKINFCES)) $">
<polygon fill="#63b8ff" stroke="black" points="583.5,-329 402.5,-329 402.5,-293 583.5,-293 583.5,-329"/>
<text text-anchor="start" x="409" y="-306.8" font-family="Times New Roman,serif" font-size="14.00" fill="blue">PAKNYWRTTOTLCN:Wages</text>
</a>
</g>
</g>
<!-- PAKNYYWBTOTLCN -->
<g id="node16" class="node">
<title>PAKNYYWBTOTLCN</title>
<g id="a_node16"><a xlink:title="Economy-wide wage bill
FRML  &lt;&gt; PAKNYYWBTOTLCN = PAKNYWRTTOTLCN*PAKLMEMPTOTLCN $">
<polygon fill="#63b8ff" stroke="black" points="1004.5,-313 719.5,-313 719.5,-277 1004.5,-277 1004.5,-313"/>
<text text-anchor="start" x="726" y="-290.8" font-family="Times New Roman,serif" font-size="14.00" fill="blue">PAKNYYWBTOTLCN:Economy-wide wage bill</text>
</a>
</g>
</g>
<!-- PAKNYWRTTOTLCN&#45;&gt;PAKNYYWBTOTLCN -->
<g id="edge1" class="edge">
<title>PAKNYWRTTOTLCN-&gt;PAKNYYWBTOTLCN</title>
<g id="a_edge1"><a xlink:href="bogus" xlink:title=" PAKNYWRTTOTLCN -&gt; PAKNYYWBTOTLCN Min. att. 16%  max: 106%">
<path fill="none" stroke="black" stroke-width="8" d="M583.78,-307.09C619.51,-305.53 661.72,-303.69 702.28,-301.92"/>
<polygon fill="black" stroke="black" stroke-width="8" points="702.59,-308.91 712.27,-301.48 701.98,-294.93 702.59,-308.91"/>
</a>
</g>
</g>
<!-- PAKNEGDIFGOVKN -->
<g id="node6" class="node">
<title>PAKNEGDIFGOVKN</title>
<g id="a_node6"><a xlink:title="Government Investment
FRML  &lt;&gt; PAKNEGDIFGOVKN = PAKNEGDIFGOVCN/PAKNEGDIFGOVXN $">
<polygon fill="#63b8ff" stroke="black" points="999,-545 725,-545 725,-509 999,-509 999,-545"/>
<text text-anchor="start" x="731" y="-522.8" font-family="Times New Roman,serif" font-size="14.00" fill="blue">PAKNEGDIFGOVKN:Government Investment</text>
</a>
</g>
</g>
<!-- PAKNEGDIFGOVKN&#45;&gt;PAKNEGDIFTOTKN -->
<g id="edge17" class="edge">
<title>PAKNEGDIFGOVKN-&gt;PAKNEGDIFTOTKN</title>
<g id="a_edge17"><a xlink:href="bogus" xlink:title=" PAKNEGDIFGOVKN -&gt; PAKNEGDIFTOTKN Min. att. 6%  max: 105%">
<path fill="none" stroke="black" stroke-width="8" d="M905.34,-508.54C968.14,-481.17 1086.14,-429.73 1156.65,-399"/>
<polygon fill="black" stroke="black" stroke-width="8" points="1159.02,-405.6 1165.39,-395.19 1153.43,-392.77 1159.02,-405.6"/>
</a>
</g>
</g>
<!-- PAKFMLBLPOLYXN&#45;&gt;PAKNECONPRVTKN -->
<g id="edge30" class="edge">
<title>PAKFMLBLPOLYXN-&gt;PAKNECONPRVTKN</title>
<g id="a_edge30"><a xlink:href="bogus" xlink:title=" PAKFMLBLPOLYXN -&gt; PAKNECONPRVTKN Min. att. -160%  max: 20%">
<path fill="none" stroke="black" stroke-width="8" d="M965,-216.37C994.38,-220.22 1027.13,-224.51 1058.96,-228.68"/>
<polygon fill="black" stroke="black" stroke-width="8" points="1057.76,-235.58 1068.59,-229.94 1059.58,-221.7 1057.76,-235.58"/>
</a>
</g>
</g>
<!-- PAKLMEMPTOTLCN -->
<g id="node8" class="node">
<title>PAKLMEMPTOTLCN</title>
<g id="a_node8"><a xlink:title="Employment
FRML &lt;Z,EXO&gt; PAKLMEMPTOTLCN = (PAKLMEMPTOTLCN(-1)*EXP(-PAKLMEMPTOTLCN_A+ (-0.345624644563667*(LOG(PAKLMEMPTOTLCN(-1))-LOG(PAKLMEMPSTRLCN(-1)))-0.1*(((LOG(PAKNYWRTTOTLCN/PAKNYGDPFCSTXN))-(LOG(PAKNYWRTTOTLCN(-1)/PAKNYGDPFCSTXN(-1))))-((LOG(PAKNYGDPPOTLKN/PAKLMEMPSTRLCN))-(LOG(PAKNYGDPPOTLKN(-1)/PAKLMEMPSTRLCN(-1)))))-0.0011790007645121+((LOG(PAKLMEMPSTRLCN))-(LOG(PAKLMEMPSTRLCN(-1))))+0.175412878170024*PAKNYGDPGAP_/100+0.0369790799942338*DURING_2010) )) * (1-PAKLMEMPTOTLCN_D)+ PAKLMEMPTOTLCN_X*PAKLMEMPTOTLCN_D  $">
<polygon fill="#63b8ff" stroke="black" points="601.5,-275 384.5,-275 384.5,-239 601.5,-239 601.5,-275"/>
<text text-anchor="start" x="391" y="-252.8" font-family="Times New Roman,serif" font-size="14.00" fill="blue">PAKLMEMPTOTLCN:Employment</text>
</a>
</g>
</g>
<!-- PAKLMEMPTOTLCN&#45;&gt;PAKNYYWBTOTLCN -->
<g id="edge12" class="edge">
<title>PAKLMEMPTOTLCN-&gt;PAKNYYWBTOTLCN</title>
<g id="a_edge12"><a xlink:href="bogus" xlink:title=" PAKLMEMPTOTLCN -&gt; PAKNYYWBTOTLCN Min. att. -6%  max: 84%">
<path fill="none" stroke="black" stroke-width="8" d="M601.63,-268.14C633.26,-271.42 668.54,-275.07 702.63,-278.6"/>
<polygon fill="black" stroke="black" stroke-width="8" points="701.65,-285.54 712.32,-279.6 703.09,-271.61 701.65,-285.54"/>
</a>
</g>
</g>
<!-- PAKNYGDPGAP_ -->
<g id="node9" class="node">
<title>PAKNYGDPGAP_</title>
<g id="a_node9"><a xlink:title="Output Gap (% of Potential GDP)
FRML  &lt;&gt; PAKNYGDPGAP_ = ((PAKNYGDPMKTPKN/PAKNYGDPPOTLKN-1)*100) $">
<polygon fill="#63b8ff" stroke="black" points="647.5,-167 338.5,-167 338.5,-131 647.5,-131 647.5,-167"/>
<text text-anchor="start" x="345" y="-144.8" font-family="Times New Roman,serif" font-size="14.00" fill="blue">PAKNYGDPGAP_:Output Gap (% of Potential GDP)</text>
</a>
</g>
</g>
<!-- PAKNYGDPGAP_&#45;&gt;PAKFMLBLPOLYXN -->
<g id="edge28" class="edge">
<title>PAKNYGDPGAP_-&gt;PAKFMLBLPOLYXN</title>
<g id="a_edge28"><a xlink:href="bogus" xlink:title=" PAKNYGDPGAP_ -&gt; PAKFMLBLPOLYXN Min. att. -15%  max: 83%">
<path fill="none" stroke="black" stroke-width="8" d="M619.53,-167.47C659.4,-173.34 703.33,-179.8 742.68,-185.59"/>
<polygon fill="black" stroke="black" stroke-width="8" points="741.42,-192.48 752.33,-187.01 743.45,-178.63 741.42,-192.48"/>
</a>
</g>
</g>
<!-- PAKNYGDPFCSTXN -->
<g id="node23" class="node">
<title>PAKNYGDPFCSTXN</title>
<g id="a_node23"><a xlink:title="GDP at factor cost
FRML &lt;Z,EXO&gt; PAKNYGDPFCSTXN = (PAKNYGDPFCSTXN(-1)*EXP(-PAKNYGDPFCSTXN_A+ (0.6*((LOG(PAKNYGDPFCSTXN(-1)))-(LOG(PAKNYGDPFCSTXN(-2))))+(1-0.6)*(0.7*PAKINFLEXPT/100+(1-0.7)*((LOG(PAKPSTAR(-1)))-(LOG(PAKPSTAR(-2)))))+0.25*PAKNYGDPGAP_/100+0.262461811660072*DURING_2000-0.205776950553378*DURING_2001) )) * (1-PAKNYGDPFCSTXN_D)+ PAKNYGDPFCSTXN_X*PAKNYGDPFCSTXN_D  $">
<polygon fill="#63b8ff" stroke="black" points="983,-59 741,-59 741,-23 983,-23 983,-59"/>
<text text-anchor="start" x="747" y="-36.8" font-family="Times New Roman,serif" font-size="14.00" fill="blue">PAKNYGDPFCSTXN:GDP at factor cost</text>
</a>
</g>
</g>
<!-- PAKNYGDPGAP_&#45;&gt;PAKNYGDPFCSTXN -->
<g id="edge18" class="edge">
<title>PAKNYGDPGAP_-&gt;PAKNYGDPFCSTXN</title>
<g id="a_edge18"><a xlink:href="bogus" xlink:title=" PAKNYGDPGAP_ -&gt; PAKNYGDPFCSTXN Min. att. -56%  max: 7987%">
<path fill="none" stroke="black" stroke-width="8" d="M645.51,-130.57C650.87,-128.02 656.06,-125.18 661,-122 685.26,-106.4 672.76,-83.64 697,-68 705.57,-62.47 714.9,-57.95 724.61,-54.28"/>
<polygon fill="black" stroke="black" stroke-width="8" points="726.74,-60.94 734.07,-51.18 722.38,-47.64 726.74,-60.94"/>
</a>
</g>
</g>
<!-- PAKNEGDIFGOVXN -->
<g id="node10" class="node">
<title>PAKNEGDIFGOVXN</title>
<g id="a_node10"><a xlink:title="Government Investment
FRML &lt;Z,EXO&gt; PAKNEGDIFGOVXN = (PAKNEGDIFGOVXN(-1)*EXP(-PAKNEGDIFGOVXN_A+ (-0.480254922468272*(LOG(PAKNEGDIFGOVXN(-1))-LOG(PAKNECONPRVTXN(-1)))+0.00720714576835064+0.0731599680348391*((LOG(PAKNEGDIFGOVXN(-1)))-(LOG(PAKNEGDIFGOVXN(-2))))+(1-0.0731599680348391)*((LOG(PAKNECONPRVTXN))-(LOG(PAKNECONPRVTXN(-1))))) )) * (1-PAKNEGDIFGOVXN_D)+ PAKNEGDIFGOVXN_X*PAKNEGDIFGOVXN_D  $">
<polygon fill="#63b8ff" stroke="black" points="630,-545 356,-545 356,-509 630,-509 630,-545"/>
<text text-anchor="start" x="362" y="-522.8" font-family="Times New Roman,serif" font-size="14.00" fill="blue">PAKNEGDIFGOVXN:Government Investment</text>
</a>
</g>
</g>
<!-- PAKNEGDIFGOVXN&#45;&gt;PAKNEGDIFGOVKN -->
<g id="edge21" class="edge">
<title>PAKNEGDIFGOVXN-&gt;PAKNEGDIFGOVKN</title>
<g id="a_edge21"><a xlink:href="bogus" xlink:title=" PAKNEGDIFGOVXN -&gt; PAKNEGDIFGOVKN Min. att. -892%  max: -32%">
<path fill="none" stroke="black" stroke-width="8" d="M630.4,-527C655.65,-527 682.18,-527 707.9,-527"/>
<polygon fill="black" stroke="black" stroke-width="8" points="707.68,-534 717.68,-527 707.68,-520 707.68,-534"/>
</a>
</g>
</g>
<!-- PAKNEKRTTOTLCN -->
<g id="node11" class="node">
<title>PAKNEKRTTOTLCN</title>
<g id="a_node11"><a xlink:title="PAKNEKRTTOTLCN
FRML &lt;Z,EXO&gt; PAKNEKRTTOTLCN = (-PAKNEKRTTOTLCN_A+ (((PAKUCK)-(PAKUCK(-1)))+7.05881784375082E-05*DUMH) +PAKNEKRTTOTLCN(-1)) * (1-PAKNEKRTTOTLCN_D)+ PAKNEKRTTOTLCN_X*PAKNEKRTTOTLCN_D  $">
<polygon fill="#63b8ff" stroke="black" points="563,-437 423,-437 423,-401 563,-401 563,-437"/>
<text text-anchor="start" x="429" y="-414.8" font-family="Times New Roman,serif" font-size="14.00" fill="blue">PAKNEKRTTOTLCN:</text>
</a>
</g>
</g>
<!-- PAKNEGDIFPRVKN -->
<g id="node20" class="node">
<title>PAKNEGDIFPRVKN</title>
<g id="a_node20"><a xlink:title="Private Investment
FRML &lt;Z,EXO&gt; PAKNEGDIFPRVKN = (-PAKNEGDIFPRVKN_A*PAKNEGDIKSTKKN(-1)+ (-0.00526826150713402+0.826734606421746*(PAKNEGDIFPRVKN(-1)/PAKNEGDIKSTKKN(-2))+(1-0.826734606421746)*(((LOG(PAKNYGDPPOTLKN))-(LOG(PAKNYGDPPOTLKN(-1))))+PAKDEPR)-0.00378813564556318*((LOG(PAKNEKRTTOTLCN/PAKNYGDPFCSTXN))-(LOG(PAKNEKRTTOTLCN(-1)/PAKNYGDPFCSTXN(-1))))) *PAKNEGDIKSTKKN(-1)) * (1-PAKNEGDIFPRVKN_D)+ PAKNEGDIFPRVKN_X*PAKNEGDIFPRVKN_D  $">
<polygon fill="#63b8ff" stroke="black" points="982,-410 742,-410 742,-374 982,-374 982,-410"/>
<text text-anchor="start" x="748" y="-387.8" font-family="Times New Roman,serif" font-size="14.00" fill="blue">PAKNEGDIFPRVKN:Private Investment</text>
</a>
</g>
</g>
<!-- PAKNEKRTTOTLCN&#45;&gt;PAKNEGDIFPRVKN -->
<g id="edge7" class="edge">
<title>PAKNEKRTTOTLCN-&gt;PAKNEGDIFPRVKN</title>
<g id="a_edge7"><a xlink:href="bogus" xlink:title=" PAKNEKRTTOTLCN -&gt; PAKNEGDIFPRVKN Min. att. -0%  max: 90%">
<path fill="none" stroke="black" stroke-width="8" d="M563.46,-413.89C608.94,-410.54 669.91,-406.06 724.81,-402.02"/>
<polygon fill="black" stroke="black" stroke-width="8" points="725.21,-409.01 734.67,-401.29 724.19,-395.05 725.21,-409.01"/>
</a>
</g>
</g>
<!-- PAKNECONGOVTKN -->
<g id="node27" class="node">
<title>PAKNECONGOVTKN</title>
<g id="a_node27"><a xlink:title="Government Consumption
FRML  &lt;&gt; PAKNECONGOVTKN = PAKNECONGOVTCN/PAKNECONGOVTXN $">
<polygon fill="#63b8ff" stroke="black" points="1361,-213 1069,-213 1069,-177 1361,-177 1361,-213"/>
<text text-anchor="start" x="1075" y="-190.8" font-family="Times New Roman,serif" font-size="14.00" fill="blue">PAKNECONGOVTKN:Government Consumption</text>
</a>
</g>
</g>
<!-- PAKNECONGOVTXN&#45;&gt;PAKNECONGOVTKN -->
<g id="edge23" class="edge">
<title>PAKNECONGOVTXN-&gt;PAKNECONGOVTKN</title>
<g id="a_edge23"><a xlink:href="bogus" xlink:title=" PAKNECONGOVTXN -&gt; PAKNECONGOVTKN Min. att. -867%  max: -19%">
<path fill="none" stroke="black" stroke-width="8" d="M1004,-167.48C1021.18,-169.73 1038.83,-172.04 1056.25,-174.33"/>
<polygon fill="black" stroke="black" stroke-width="8" points="1055.11,-181.24 1065.93,-175.59 1056.93,-167.35 1055.11,-181.24"/>
</a>
</g>
</g>
<!-- PAKNEIMPGNFSXN -->
<g id="node14" class="node">
<title>PAKNEIMPGNFSXN</title>
<g id="a_node14"><a xlink:title="Imports (G&amp;S)
FRML  &lt;&gt; PAKNEIMPGNFSXN = ((PAKNEIMPENGYSH**PAKCESENGYIMPT)*PAKNVENGNIMPXN**(1-PAKCESENGYIMPT)+(PAKNEIMPOTHRSH**PAKCESENGYIMPT)*PAKNEIMPGSNEXN**(1-PAKCESENGYIMPT))**(1/(1-PAKCESENGYIMPT)) $">
<polygon fill="#63b8ff" stroke="black" points="1626,-159 1403,-159 1403,-123 1626,-123 1626,-159"/>
<text text-anchor="start" x="1409.5" y="-136.8" font-family="Times New Roman,serif" font-size="14.00" fill="blue">PAKNEIMPGNFSXN:Imports (G&amp;S)</text>
</a>
</g>
</g>
<!-- PAKNEIMPGNFSXN&#45;&gt;PAKNEIMPGNFSKN -->
<g id="edge19" class="edge">
<title>PAKNEIMPGNFSXN-&gt;PAKNEIMPGNFSKN</title>
<g id="a_edge19"><a xlink:href="bogus" xlink:title=" PAKNEIMPGNFSXN -&gt; PAKNEIMPGNFSKN Min. att. -390%  max: 1559%">
<path fill="none" stroke="black" stroke-width="8" d="M1626.36,-142.73C1632.47,-142.82 1638.64,-142.92 1644.81,-143.01"/>
<polygon fill="black" stroke="black" stroke-width="8" points="1644.52,-150.01 1654.63,-143.17 1644.74,-136.01 1644.52,-150.01"/>
</a>
</g>
</g>
<!-- PAKNECONGOVTCN&#45;&gt;PAKNECONGOVTKN -->
<g id="edge5" class="edge">
<title>PAKNECONGOVTCN-&gt;PAKNECONGOVTKN</title>
<g id="a_edge5"><a xlink:href="bogus" xlink:title=" PAKNECONGOVTCN -&gt; PAKNECONGOVTKN Min. att. 117%  max: 963%">
<path fill="none" stroke="black" stroke-width="8" d="M1010.29,-113.5C1016.07,-116.02 1021.66,-118.84 1027,-122 1049.33,-135.24 1040.76,-154.61 1063,-168 1063.59,-168.35 1064.18,-168.7 1064.77,-169.05"/>
<polygon fill="black" stroke="black" stroke-width="8" points="1061.54,-175.26 1073.62,-173.49 1067.83,-162.75 1061.54,-175.26"/>
</a>
</g>
</g>
<!-- PAKNYYWBTOTLCN&#45;&gt;PAKNECONPRVTKN -->
<g id="edge33" class="edge">
<title>PAKNYYWBTOTLCN-&gt;PAKNECONPRVTKN</title>
<g id="a_edge33"><a xlink:href="bogus" xlink:title=" PAKNYYWBTOTLCN -&gt; PAKNECONPRVTKN Min. att. -594%  max: 5823%">
<path fill="none" stroke="black" stroke-width="8" d="M1004,-276.52C1022.09,-274.15 1040.7,-271.71 1059,-269.31"/>
<polygon fill="black" stroke="black" stroke-width="8" points="1059.78,-276.27 1068.79,-268.03 1057.96,-262.39 1059.78,-276.27"/>
</a>
</g>
</g>
<!-- PAKNEGDIKSTKKN -->
<g id="node17" class="node">
<title>PAKNEGDIKSTKKN</title>
<g id="a_node17"><a xlink:title="Domestic Capital
FRML  &lt;&gt; PAKNEGDIKSTKKN = (PAKNEGDIKSTKKN(-1)*(1-PAKDEPR))+PAKNEGDIFTOTKN2-2*PAKHURDAMKN $">
<polygon fill="#63b8ff" stroke="black" points="610.5,-383 375.5,-383 375.5,-347 610.5,-347 610.5,-383"/>
<text text-anchor="start" x="382" y="-360.8" font-family="Times New Roman,serif" font-size="14.00" fill="blue">PAKNEGDIKSTKKN:Domestic Capital</text>
</a>
</g>
</g>
<!-- PAKNEGDIKSTKKN&#45;&gt;PAKNEGDIFPRVKN -->
<g id="edge20" class="edge">
<title>PAKNEGDIKSTKKN-&gt;PAKNEGDIFPRVKN</title>
<g id="a_edge20"><a xlink:href="bogus" xlink:title=" PAKNEGDIKSTKKN -&gt; PAKNEGDIFPRVKN Min. att. 0%  max: 76%">
<path fill="none" stroke="black" stroke-width="7.57" d="M610.88,-373.6C647.17,-376.27 687.49,-379.23 724.96,-381.99"/>
<polygon fill="black" stroke="black" stroke-width="7.57" points="724.38,-388.59 734.84,-382.72 725.35,-375.38 724.38,-388.59"/>
</a>
</g>
</g>
<!-- PAKPSTAR -->
<g id="node18" class="node">
<title>PAKPSTAR</title>
<g id="a_node18"><a xlink:title="Nominal marginal cost
FRML  &lt;&gt; PAKPSTAR = (1/PAKNYGDPTFP)*((PAKNEKRTTOTLCN/(1-PAKNYYWBTOTLCN_))**(1-PAKNYYWBTOTLCN_))*((PAKNYWRTTOTLCN/PAKNYYWBTOTLCN_)**PAKNYYWBTOTLCN_) $">
<polygon fill="#63b8ff" stroke="black" points="598,-59 388,-59 388,-23 598,-23 598,-59"/>
<text text-anchor="start" x="394" y="-36.8" font-family="Times New Roman,serif" font-size="14.00" fill="blue">PAKPSTAR:Nominal marginal cost</text>
</a>
</g>
</g>
<!-- PAKPSTAR&#45;&gt;PAKNYGDPFCSTXN -->
<g id="edge4" class="edge">
<title>PAKPSTAR-&gt;PAKNYGDPFCSTXN</title>
<g id="a_edge4"><a xlink:href="bogus" xlink:title=" PAKPSTAR -&gt; PAKNYGDPFCSTXN Min. att. -20%  max: 2191%">
<path fill="none" stroke="black" stroke-width="8" d="M598.19,-41C637.21,-41 682.15,-41 723.71,-41"/>
<polygon fill="black" stroke="black" stroke-width="8" points="723.7,-48 733.7,-41 723.7,-34 723.7,-48"/>
</a>
</g>
</g>
<!-- PAKNEIMPGNFSKN&#45;&gt;PAKNYGDPMKTPKN -->
<g id="edge3" class="edge">
<title>PAKNEIMPGNFSKN-&gt;PAKNYGDPMKTPKN</title>
<g id="a_edge3"><a xlink:href="bogus" xlink:title=" PAKNEIMPGNFSKN -&gt; PAKNYGDPMKTPKN Min. att. -46%  max: 456%">
<path fill="none" stroke="black" stroke-width="8" d="M1838.52,-163.46C1890.58,-178.47 1964.33,-199.74 2020.33,-215.88"/>
<polygon fill="black" stroke="black" stroke-width="8" points="2018.1,-222.53 2029.65,-218.57 2021.98,-209.07 2018.1,-222.53"/>
</a>
</g>
</g>
<!-- PAKNEGDIFPRVKN&#45;&gt;PAKNEGDIFTOTKN -->
<g id="edge34" class="edge">
<title>PAKNEGDIFPRVKN-&gt;PAKNEGDIFTOTKN</title>
<g id="a_edge34"><a xlink:href="bogus" xlink:title=" PAKNEGDIFPRVKN -&gt; PAKNEGDIFTOTKN Min. att. -5%  max: 94%">
<path fill="none" stroke="black" stroke-width="8" d="M982.32,-385.88C1002.81,-384.83 1024.44,-383.72 1045.92,-382.62"/>
<polygon fill="black" stroke="black" stroke-width="8" points="1046.1,-389.62 1055.73,-382.12 1045.38,-375.64 1046.1,-389.62"/>
</a>
</g>
</g>
<!-- PAKNYGDPPOTLKN -->
<g id="node21" class="node">
<title>PAKNYGDPPOTLKN</title>
<g id="a_node21"><a xlink:title="Potential GDP
FRML  &lt;&gt; PAKNYGDPPOTLKN = PAKNYGDPTFP*(PAKLMEMPSTRLCN**PAKNYYWBTOTLCN_)*(PAKNEGDIKSTKKN(-1)**(1-PAKNYYWBTOTLCN_)) $">
<polygon fill="#63b8ff" stroke="black" points="603.5,-491 382.5,-491 382.5,-455 603.5,-455 603.5,-491"/>
<text text-anchor="start" x="389" y="-468.8" font-family="Times New Roman,serif" font-size="14.00" fill="blue">PAKNYGDPPOTLKN:Potential GDP</text>
</a>
</g>
</g>
<!-- PAKNYGDPPOTLKN&#45;&gt;PAKNEGDIFPRVKN -->
<g id="edge27" class="edge">
<title>PAKNYGDPPOTLKN-&gt;PAKNEGDIFPRVKN</title>
<g id="a_edge27"><a xlink:href="bogus" xlink:title=" PAKNYGDPPOTLKN -&gt; PAKNEGDIFPRVKN Min. att. -8%  max: 66%">
<path fill="none" stroke="black" stroke-width="6.61" d="M603.9,-456.89C623,-453.62 642.62,-449.96 661,-446 701.74,-437.23 746.56,-425.34 783.43,-414.95"/>
<polygon fill="black" stroke="black" stroke-width="6.61" points="784.86,-420.56 792.89,-412.26 781.69,-409.43 784.86,-420.56"/>
</a>
</g>
</g>
<!-- PAKNECONPRVTKN&#45;&gt;PAKNEGDETTOTKN -->
<g id="edge24" class="edge">
<title>PAKNECONPRVTKN-&gt;PAKNEGDETTOTKN</title>
<g id="a_edge24"><a xlink:href="bogus" xlink:title=" PAKNECONPRVTKN -&gt; PAKNEGDETTOTKN Min. att. -2284%  max: 2484%">
<path fill="none" stroke="black" stroke-width="8" d="M1354.3,-244.35C1373.93,-243.69 1393.81,-243.02 1412.55,-242.39"/>
<polygon fill="black" stroke="black" stroke-width="8" points="1412.68,-249.39 1422.44,-242.06 1412.21,-235.4 1412.68,-249.39"/>
</a>
</g>
</g>
<!-- PAKNECONPRVTKN&#45;&gt;PAKNYGDPMKTPKN -->
<g id="edge8" class="edge">
<title>PAKNECONPRVTKN-&gt;PAKNYGDPMKTPKN</title>
<g id="a_edge8"><a xlink:href="bogus" xlink:title=" PAKNECONPRVTKN -&gt; PAKNYGDPMKTPKN Min. att. -1557%  max: 290%">
<path fill="none" stroke="black" stroke-width="8" d="M1354.28,-262.99C1370.68,-264.23 1387.21,-265.28 1403,-266 1571.97,-273.66 1764.03,-264.95 1903.77,-255.43"/>
<polygon fill="black" stroke="black" stroke-width="8" points="1904.1,-262.42 1913.59,-254.75 1903.13,-248.46 1904.1,-262.42"/>
</a>
</g>
</g>
<!-- PAKNYGDPFCSTXN&#45;&gt;PAKNEIMPGNFSKN -->
<g id="edge31" class="edge">
<title>PAKNYGDPFCSTXN-&gt;PAKNEIMPGNFSKN</title>
<g id="a_edge31"><a xlink:href="bogus" xlink:title=" PAKNYGDPFCSTXN -&gt; PAKNEIMPGNFSKN Min. att. -1112%  max: 296%">
<path fill="none" stroke="black" stroke-width="8" d="M983.36,-39.88C1085.75,-40.28 1236.52,-44.05 1367,-60 1483.72,-74.27 1510.92,-89.83 1626,-114 1639.96,-116.93 1654.66,-120.03 1669.15,-123.09"/>
<polygon fill="black" stroke="black" stroke-width="8" points="1667.3,-129.85 1678.53,-125.07 1670.2,-116.16 1667.3,-129.85"/>
</a>
</g>
</g>
<!-- PAKNECONOTHRXN -->
<g id="node24" class="node">
<title>PAKNECONOTHRXN</title>
<g id="a_node24"><a xlink:title="Non-Energy Consumption
FRML &lt;Z,EXO&gt; PAKNECONOTHRXN = (PAKNECONOTHRXN(-1)*EXP(-PAKNECONOTHRXN_A+ (0.598859116610832*((LOG(PAKNYGDPFCSTXN))-(LOG(PAKNYGDPFCSTXN(-1))))+((PAKGGREVGNFSXN/100)-(PAKGGREVGNFSXN(-1)/100))+(1-0.598859116610832)*((LOG(PAKNEIMPGNFSXN))-(LOG(PAKNEIMPGNFSXN(-1))))+0.2*PAKNYGDPGAP_/100) )) * (1-PAKNECONOTHRXN_D)+ PAKNECONOTHRXN_X*PAKNECONOTHRXN_D  $">
<polygon fill="#63b8ff" stroke="black" points="289,-248 0,-248 0,-212 289,-212 289,-248"/>
<text text-anchor="start" x="6.5" y="-225.8" font-family="Times New Roman,serif" font-size="14.00" fill="blue">PAKNECONOTHRXN:Non-Energy Consumption</text>
</a>
</g>
</g>
<!-- PAKNECONOTHRXN&#45;&gt;PAKNECONPRVTXN -->
<g id="edge13" class="edge">
<title>PAKNECONOTHRXN-&gt;PAKNECONPRVTXN</title>
<g id="a_edge13"><a xlink:href="bogus" xlink:title=" PAKNECONOTHRXN -&gt; PAKNECONPRVTXN Min. att. 71%  max: 99%">
<path fill="none" stroke="black" stroke-width="8" d="M289.44,-218.78C310.09,-217.17 331.32,-215.52 351.91,-213.92"/>
<polygon fill="black" stroke="black" stroke-width="8" points="352.25,-220.91 361.68,-213.16 351.16,-206.95 352.25,-220.91"/>
</a>
</g>
</g>
<!-- PAKNECONENGYXN -->
<g id="node25" class="node">
<title>PAKNECONENGYXN</title>
<g id="a_node25"><a xlink:title="Energy Consumption
FRML &lt;Z,EXO&gt; PAKNECONENGYXN = (PAKNECONENGYXN(-1)*EXP(-PAKNECONENGYXN_A+ (((LOG(PAKNECONENGYGN))-(LOG(PAKNECONENGYGN(-1))))+0.0550557534575806*DUMH) )) * (1-PAKNECONENGYXN_D)+ PAKNECONENGYXN_X*PAKNECONENGYXN_D  $">
<polygon fill="#63b8ff" stroke="black" points="275.5,-194 13.5,-194 13.5,-158 275.5,-158 275.5,-194"/>
<text text-anchor="start" x="19.5" y="-171.8" font-family="Times New Roman,serif" font-size="14.00" fill="blue">PAKNECONENGYXN:Energy Consumption</text>
</a>
</g>
</g>
<!-- PAKNECONENGYXN&#45;&gt;PAKNECONPRVTXN -->
<g id="edge6" class="edge">
<title>PAKNECONENGYXN-&gt;PAKNECONPRVTXN</title>
<g id="a_edge6"><a xlink:href="bogus" xlink:title=" PAKNECONENGYXN -&gt; PAKNECONPRVTXN Min. att. 1%  max: 29%">
<path fill="none" stroke="black" stroke-width="2.91" d="M275.51,-186.13C301.27,-188.14 328.4,-190.25 354.4,-192.28"/>
<polygon fill="black" stroke="black" stroke-width="2.91" points="354.09,-195.76 364.33,-193.05 354.63,-188.79 354.09,-195.76"/>
</a>
</g>
</g>
<!-- PAKNEIMPGSNEXN -->
<g id="node26" class="node">
<title>PAKNEIMPGSNEXN</title>
<g id="a_node26"><a xlink:title="Imports (Non-energy)
FRML &lt;Z,EXO&gt; PAKNEIMPGSNEXN = (PAKNEIMPGSNEXN(-1)*EXP(-PAKNEIMPGSNEXN_A+ (-0.278529319815428*(LOG(PAKNEIMPGSNEXN(-1))-0.3*LOG(PAKNYGDPFCSTXN(-1))-(1-0.3)*LOG(PAKPMKEY(-1)*PAKPANUSATLS(-1)))+0.4*((LOG(PAKNYGDPFCSTXN))-(LOG(PAKNYGDPFCSTXN(-1))))+(1-0.4)*((LOG(PAKPMKEY*PAKPANUSATLS))-(LOG(PAKPMKEY(-1)*PAKPANUSATLS(-1))))-0.888813883474775+0.135666902654654*DURING_2012+0.216228696118762*DURING_2008) )) * (1-PAKNEIMPGSNEXN_D)+ PAKNEIMPGSNEXN_X*PAKNEIMPGSNEXN_D  $">
<polygon fill="#63b8ff" stroke="black" points="1345,-159 1085,-159 1085,-123 1345,-123 1345,-159"/>
<text text-anchor="start" x="1091" y="-136.8" font-family="Times New Roman,serif" font-size="14.00" fill="blue">PAKNEIMPGSNEXN:Imports (Non-energy)</text>
</a>
</g>
</g>
<!-- PAKNEIMPGSNEXN&#45;&gt;PAKNEIMPGNFSXN -->
<g id="edge25" class="edge">
<title>PAKNEIMPGSNEXN-&gt;PAKNEIMPGNFSXN</title>
<g id="a_edge25"><a xlink:href="bogus" xlink:title=" PAKNEIMPGSNEXN -&gt; PAKNEIMPGNFSXN Min. att. -4%  max: 63%">
<path fill="none" stroke="black" stroke-width="6.33" d="M1345.19,-141C1358.79,-141 1372.61,-141 1386.19,-141"/>
<polygon fill="black" stroke="black" stroke-width="6.33" points="1386.07,-146.54 1396.07,-141 1386.07,-135.46 1386.07,-146.54"/>
</a>
</g>
</g>
<!-- PAKNECONGOVTKN&#45;&gt;PAKNEGDETTOTKN -->
<g id="edge32" class="edge">
<title>PAKNECONGOVTKN-&gt;PAKNEGDETTOTKN</title>
<g id="a_edge32"><a xlink:href="bogus" xlink:title=" PAKNECONGOVTKN -&gt; PAKNEGDETTOTKN Min. att. -1269%  max: 1236%">
<path fill="none" stroke="black" stroke-width="8" d="M1340.87,-213.47C1364.69,-216.99 1389.33,-220.64 1412.3,-224.03"/>
<polygon fill="black" stroke="black" stroke-width="8" points="1411.26,-230.96 1422.18,-225.49 1413.31,-217.11 1411.26,-230.96"/>
</a>
</g>
</g>
<!-- PAKNECONGOVTKN&#45;&gt;PAKNYGDPMKTPKN -->
<g id="edge22" class="edge">
<title>PAKNECONGOVTKN-&gt;PAKNYGDPMKTPKN</title>
<g id="a_edge22"><a xlink:href="bogus" xlink:title=" PAKNECONGOVTKN -&gt; PAKNYGDPMKTPKN Min. att. -108%  max: 835%">
<path fill="none" stroke="black" stroke-width="8" d="M1361.18,-200.47C1439.61,-203.57 1538.12,-207.68 1626,-212 1717.26,-216.49 1818.36,-222.15 1903.71,-227.12"/>
<polygon fill="black" stroke="black" stroke-width="8" points="1903.21,-234.1 1913.6,-227.7 1904.02,-220.13 1903.21,-234.1"/>
</a>
</g>
</g>
<!-- PAKNEGDIFGOVCN -->
<g id="node28" class="node">
<title>PAKNEGDIFGOVCN</title>
<g id="a_node28"><a xlink:title="Government Investment
FRML &lt;Z,EXO&gt; PAKNEGDIFGOVCN = (PAKNEGDIFGOVCN(-1)*EXP(-PAKNEGDIFGOVCN_A+ (((LOG(PAKGGEXPCAPTCN))-(LOG(PAKGGEXPCAPTCN(-1))))-0.00510713331489238*DUMH) )) * (1-PAKNEGDIFGOVCN_D)+ PAKNEGDIFGOVCN_X*PAKNEGDIFGOVCN_D  $">
<polygon fill="#63b8ff" stroke="black" points="629.5,-599 356.5,-599 356.5,-563 629.5,-563 629.5,-599"/>
<text text-anchor="start" x="363" y="-576.8" font-family="Times New Roman,serif" font-size="14.00" fill="blue">PAKNEGDIFGOVCN:Government Investment</text>
</a>
</g>
</g>
<!-- PAKNEGDIFGOVCN&#45;&gt;PAKNEGDIFGOVKN -->
<g id="edge2" class="edge">
<title>PAKNEGDIFGOVCN-&gt;PAKNEGDIFGOVKN</title>
<g id="a_edge2"><a xlink:href="bogus" xlink:title=" PAKNEGDIFGOVCN -&gt; PAKNEGDIFGOVKN Min. att. 129%  max: 988%">
<path fill="none" stroke="black" stroke-width="8" d="M619.53,-562.53C651.58,-557.81 686.26,-552.71 719.07,-547.88"/>
<polygon fill="black" stroke="black" stroke-width="8" points="719.75,-554.86 728.62,-546.48 717.71,-541.01 719.75,-554.86"/>
</a>
</g>
</g>
<!-- PAKNVENGNIMPXN -->
<g id="node29" class="node">
<title>PAKNVENGNIMPXN</title>
<g id="a_node29"><a xlink:title="Energy Imports
FRML  &lt;&gt; PAKNVENGNIMPXN = ((PAKNVCOLNIMPSH**PAKCESENGYIMP)*PAKNVCOLPRODXN**(1-PAKCESENGYIMP)+(PAKNVOILNIMPSH**PAKCESENGYIMP)*PAKNVOILPRODXN**(1-PAKCESENGYIMP)+(PAKNVGASNIMPSH**PAKCESENGYIMP)*PAKNVGASPRODXN**(1-PAKCESENGYIMP)+(PAKNVRENNIMPSH**PAKCESENGYIMP)*PAKNVRENPRODXN**(1-PAKCESENGYIMP))**(1/(1-PAKCESENGYIMP)) $">
<polygon fill="#63b8ff" stroke="black" points="1329.5,-105 1100.5,-105 1100.5,-69 1329.5,-69 1329.5,-105"/>
<text text-anchor="start" x="1107" y="-82.8" font-family="Times New Roman,serif" font-size="14.00" fill="blue">PAKNVENGNIMPXN:Energy Imports</text>
</a>
</g>
</g>
<!-- PAKNVENGNIMPXN&#45;&gt;PAKNEIMPGNFSXN -->
<g id="edge10" class="edge">
<title>PAKNVENGNIMPXN-&gt;PAKNEIMPGNFSXN</title>
<g id="a_edge10"><a xlink:href="bogus" xlink:title=" PAKNVENGNIMPXN -&gt; PAKNEIMPGNFSXN Min. att. 37%  max: 104%">
<path fill="none" stroke="black" stroke-width="8" d="M1319.58,-105.45C1335.46,-108.3 1351.67,-111.22 1367,-114 1376.82,-115.78 1387,-117.64 1397.22,-119.51"/>
<polygon fill="black" stroke="black" stroke-width="8" points="1395.87,-126.38 1406.96,-121.3 1398.39,-112.61 1395.87,-126.38"/>
</a>
</g>
</g>
</g>
</svg>