<svg xmlns="http://www.w3.org/2000/svg" xmlns:xlink="http://www.w3.org/1999/xlink" width="432pt" height="263pt" viewBox="0.00 0.00 432.00 263.21">
<g id="graph0" class="graph" transform="scale(0.527473 0.527473) rotate(0) translate(4 495)">
<title>TD</title>
<polygon fill="white" stroke="none" points="-4,4 -4,-495 815,-495 815,4 -4,4"/>
<text text-anchor="middle" x="405.5" y="-7.8" font-family="Times New Roman,serif" font-size="14.00">PAKNYGDPMKTPKN</text>
<!-- PAKNEEXPGNFSKN -->
<g id="node1" class="node">
<title>PAKNEEXPGNFSKN</title>
<g id="a_node1"><a xlink:title="Exports (G&amp;S)
FRML &lt;Z,EXO&gt; PAKNEEXPGNFSKN = (PAKNEEXPGNFSKN(-1)*EXP(-PAKNEEXPGNFSKN_A+ (-0.35*(LOG(PAKNEEXPGNFSKN(-1))-LOG(PAKXMKT(-1))-0.6*LOG(PAKNEEXPGNFSXN(-1)/(PAKNYGDPFCSTXN(-1))))+1*((LOG(PAKXMKT))-(LOG(PAKXMKT(-1))))+0.3*((LOG(PAKNEEXPGNFSXN/(PAKNYGDPFCSTXN)))-(LOG(PAKNEEXPGNFSXN(-1)/(PAKNYGDPFCSTXN(-1)))))+4.38465374402991-0.237469889780178*DURING_1999-0.230689812873392*DURING_1998+0.320967524344658*DURING_1991+0.250252413901575*DURING_1986) )) * (1-PAKNEEXPGNFSKN_D)+ PAKNEEXPGNFSKN_X*PAKNEEXPGNFSKN_D  $">
<polygon fill="#63b8ff" stroke="black" points="318.5,-491 95.5,-491 95.5,-455 318.5,-455 318.5,-491"/>
<text text-anchor="start" x="102" y="-468.8" font-family="Times New Roman,serif" font-size="14.00" fill="blue">PAKNEEXPGNFSKN:Exports (G&amp;S)</text>
</a>
</g>
</g>
<!-- PAKNYGDPMKTPKN -->
<g id="node5" class="node">
<title>PAKNYGDPMKTPKN</title>
<g id="a_node5"><a xlink:title="GDP Expenditure side at market prices
FRML  &lt;&gt; PAKNYGDPMKTPKN = PAKNECONPRVTKN+PAKNECONGOVTKN+PAKNEGDIFTOTKN+PAKNEGDISTKBKN+PAKNEEXPGNFSKN-PAKNEIMPGNFSKN+PAKNYGDPDISCKN+PAKADAP*PAKDISPREPKN $">
<polygon fill="red" stroke="black" points="811,-275 450,-275 450,-239 811,-239 811,-275"/>
<text text-anchor="start" x="456.5" y="-252.8" font-family="Times New Roman,serif" font-size="14.00" fill="blue">PAKNYGDPMKTPKN:GDP Expenditure side at market prices</text>
</a>
</g>
</g>
<!-- PAKNEEXPGNFSKN&#45;&gt;PAKNYGDPMKTPKN -->
<g id="edge6" class="edge">
<title>PAKNEEXPGNFSKN-&gt;PAKNYGDPMKTPKN</title>
<g id="a_edge6"><a xlink:href="bogus" xlink:title=" PAKNEEXPGNFSKN -&gt; PAKNYGDPMKTPKN Min. att. -10%  max: 0%">
<path fill="none" stroke="black" d="M318.75,-470.49C350.57,-466.62 384.59,-459.32 414,-446 497.62,-408.14 572.63,-326.71 608.01,-284.16"/>
<polygon fill="black" stroke="black" points="610.56,-286.57 614.19,-276.62 605.14,-282.14 610.56,-286.57"/>
</a>
</g>
</g>
<!-- PAKDISPREPKN -->
<g id="node2" class="node">
<title>PAKDISPREPKN</title>
<g id="a_node2"><a xlink:title="Investment in disaster risk preparation, constant prices
FRML  &lt;&gt; PAKDISPREPKN = PAKDISPREPCN/PAKNYGDPMKTPXN $">
<polygon fill="#63b8ff" stroke="black" points="414,-437 0,-437 0,-401 414,-401 414,-437"/>
<text text-anchor="start" x="6" y="-414.8" font-family="Times New Roman,serif" font-size="14.00" fill="blue">PAKDISPREPKN:Investment in disaster risk preparation, constant prices</text>
</a>
</g>
</g>
<!-- PAKDISPREPKN&#45;&gt;PAKNYGDPMKTPKN -->
<g id="edge3" class="edge">
<title>PAKDISPREPKN-&gt;PAKNYGDPMKTPKN</title>
<g id="a_edge3"><a xlink:href="bogus" xlink:title=" PAKDISPREPKN -&gt; PAKNYGDPMKTPKN Min. att. -0%  max: 0%">
<path fill="none" stroke="black" d="M386.42,-400.53C395.84,-398.03 405.09,-395.2 414,-392 485.73,-366.22 558.73,-313.81 598.66,-282.41"/>
<polygon fill="black" stroke="black" points="600.78,-285.2 606.42,-276.23 596.42,-279.72 600.78,-285.2"/>
</a>
</g>
</g>
<!-- PAKNEGDISTKBKN -->
<g id="node3" class="node">
<title>PAKNEGDISTKBKN</title>
<g id="a_node3"><a xlink:title="Change in Inventories
Exogen">
<polygon fill="yellow" stroke="black" points="336.5,-383 77.5,-383 77.5,-347 336.5,-347 336.5,-383"/>
<text text-anchor="start" x="84" y="-360.8" font-family="Times New Roman,serif" font-size="14.00" fill="blue">PAKNEGDISTKBKN:Change in Inventories</text>
</a>
</g>
</g>
<!-- PAKNEGDISTKBKN&#45;&gt;PAKNYGDPMKTPKN -->
<g id="edge4" class="edge">
<title>PAKNEGDISTKBKN-&gt;PAKNYGDPMKTPKN</title>
<g id="a_edge4"><a xlink:href="bogus" xlink:title=" PAKNEGDISTKBKN -&gt; PAKNYGDPMKTPKN Min. att. -0%  max: 0%">
<path fill="none" stroke="black" d="M336.88,-352.73C362.62,-348.98 389.33,-344.17 414,-338 471.91,-323.53 535.59,-298.37 578.61,-279.93"/>
<polygon fill="black" stroke="black" points="579.9,-283.18 587.69,-275.99 577.12,-276.75 579.9,-283.18"/>
</a>
</g>
</g>
<!-- PAKNECONGOVTKN -->
<g id="node4" class="node">
<title>PAKNECONGOVTKN</title>
<g id="a_node4"><a xlink:title="Government Consumption
FRML  &lt;&gt; PAKNECONGOVTKN = PAKNECONGOVTCN/PAKNECONGOVTXN $">
<polygon fill="#63b8ff" stroke="black" points="353,-329 61,-329 61,-293 353,-293 353,-329"/>
<text text-anchor="start" x="67" y="-306.8" font-family="Times New Roman,serif" font-size="14.00" fill="blue">PAKNECONGOVTKN:Government Consumption</text>
</a>
</g>
</g>
<!-- PAKNECONGOVTKN&#45;&gt;PAKNYGDPMKTPKN -->
<g id="edge1" class="edge">
<title>PAKNECONGOVTKN-&gt;PAKNYGDPMKTPKN</title>
<g id="a_edge1"><a xlink:href="bogus" xlink:title=" PAKNECONGOVTKN -&gt; PAKNYGDPMKTPKN Min. att. -108%  max: 835%">
<path fill="none" stroke="black" stroke-width="8" d="M352.17,-292.53C389.66,-287.73 430.27,-282.52 468.56,-277.62"/>
<polygon fill="black" stroke="black" stroke-width="8" points="469.44,-284.56 478.47,-276.35 467.66,-270.68 469.44,-284.56"/>
</a>
</g>
</g>
<!-- PAKNEGDIFTOTKN -->
<g id="node6" class="node">
<title>PAKNEGDIFTOTKN</title>
<g id="a_node6"><a xlink:title="Total Gross Capital Formation
FRML  &lt;&gt; PAKNEGDIFTOTKN = PAKNEGDIFGOVKN+PAKNEGDIFPRVKN $">
<polygon fill="#63b8ff" stroke="black" points="359,-275 55,-275 55,-239 359,-239 359,-275"/>
<text text-anchor="start" x="61" y="-252.8" font-family="Times New Roman,serif" font-size="14.00" fill="blue">PAKNEGDIFTOTKN:Total Gross Capital Formation</text>
</a>
</g>
</g>
<!-- PAKNEGDIFTOTKN&#45;&gt;PAKNYGDPMKTPKN -->
<g id="edge5" class="edge">
<title>PAKNEGDIFTOTKN-&gt;PAKNYGDPMKTPKN</title>
<g id="a_edge5"><a xlink:href="bogus" xlink:title=" PAKNEGDIFTOTKN -&gt; PAKNYGDPMKTPKN Min. att. -36%  max: 366%">
<path fill="none" stroke="black" stroke-width="8" d="M359.28,-257C383.18,-257 408.2,-257 432.95,-257"/>
<polygon fill="black" stroke="black" stroke-width="8" points="432.62,-264 442.62,-257 432.62,-250 432.62,-264"/>
</a>
</g>
</g>
<!-- PAKNYGDPDISCKN -->
<g id="node7" class="node">
<title>PAKNYGDPDISCKN</title>
<g id="a_node7"><a xlink:title="Statistical Discrepency (Expenditure Side)
Exogen">
<polygon fill="yellow" stroke="black" points="392,-221 22,-221 22,-185 392,-185 392,-221"/>
<text text-anchor="start" x="28" y="-198.8" font-family="Times New Roman,serif" font-size="14.00" fill="blue">PAKNYGDPDISCKN:Statistical Discrepency (Expenditure Side)</text>
</a>
</g>
</g>
<!-- PAKNYGDPDISCKN&#45;&gt;PAKNYGDPMKTPKN -->
<g id="edge9" class="edge">
<title>PAKNYGDPDISCKN-&gt;PAKNYGDPMKTPKN</title>
<g id="a_edge9"><a xlink:href="bogus" xlink:title=" PAKNYGDPDISCKN -&gt; PAKNYGDPMKTPKN Min. att. -0%  max: 0%">
<path fill="none" stroke="black" d="M352.17,-221.47C391.51,-226.51 434.29,-231.99 474.21,-237.11"/>
<polygon fill="black" stroke="black" points="473.52,-240.55 483.89,-238.34 474.41,-233.6 473.52,-240.55"/>
</a>
</g>
</g>
<!-- PAKNECONPRVTKN -->
<g id="node8" class="node">
<title>PAKNECONPRVTKN</title>
<g id="a_node8"><a xlink:title="Household Consumption
FRML &lt;Z,EXO&gt; PAKNECONPRVTKN = (PAKNECONPRVTKN(-1)*EXP(-PAKNECONPRVTKN_A+ (-0.2*(LOG(PAKNECONPRVTKN(-1))-LOG((PAKNYYWBTOTLCN(-1)*(1-PAKGGREVDRCTXN(-1)/100))/PAKNECONPRVTXN(-1)))+1*((LOG((PAKNYYWBTOTLCN*(1-PAKGGREVDRCTXN/100))/PAKNECONPRVTXN))-(LOG((PAKNYYWBTOTLCN(-1)*(1-PAKGGREVDRCTXN(-1)/100))/PAKNECONPRVTXN(-1))))+0.0303228629698929+0.0163839011059956*DURING_2010-0.3*(PAKFMLBLPOLYXN/100-((LOG(PAKNECONPRVTXN))-(LOG(PAKNECONPRVTXN(-1)))))) )) * (1-PAKNECONPRVTKN_D)+ PAKNECONPRVTKN_X*PAKNECONPRVTKN_D  $">
<polygon fill="#63b8ff" stroke="black" points="346,-167 68,-167 68,-131 346,-131 346,-167"/>
<text text-anchor="start" x="74" y="-144.8" font-family="Times New Roman,serif" font-size="14.00" fill="blue">PAKNECONPRVTKN:Household Consumption</text>
</a>
</g>
</g>
<!-- PAKNECONPRVTKN&#45;&gt;PAKNYGDPMKTPKN -->
<g id="edge8" class="edge">
<title>PAKNECONPRVTKN-&gt;PAKNYGDPMKTPKN</title>
<g id="a_edge8"><a xlink:href="bogus" xlink:title=" PAKNECONPRVTKN -&gt; PAKNYGDPMKTPKN Min. att. -1557%  max: 290%">
<path fill="none" stroke="black" stroke-width="8" d="M346.23,-162.67C369.03,-166.2 392.3,-170.58 414,-176 469.7,-189.92 530.74,-213.72 573.6,-231.93"/>
<polygon fill="black" stroke="black" stroke-width="8" points="570.72,-238.32 582.67,-235.85 576.26,-225.46 570.72,-238.32"/>
</a>
</g>
</g>
<!-- PAKADAP -->
<g id="node9" class="node">
<title>PAKADAP</title>
<g id="a_node9"><a xlink:title="Switch on adaptation mode (0 or 1)
Exogen">
<polygon fill="yellow" stroke="black" points="344,-113 70,-113 70,-77 344,-77 344,-113"/>
<text text-anchor="start" x="76" y="-90.8" font-family="Times New Roman,serif" font-size="14.00" fill="blue">PAKADAP:Switch on adaptation mode (0 or 1)</text>
</a>
</g>
</g>
<!-- PAKADAP&#45;&gt;PAKNYGDPMKTPKN -->
<g id="edge7" class="edge">
<title>PAKADAP-&gt;PAKNYGDPMKTPKN</title>
<g id="a_edge7"><a xlink:href="bogus" xlink:title=" PAKADAP -&gt; PAKNYGDPMKTPKN Min. att. -0%  max: 0%">
<path fill="none" stroke="black" d="M344.33,-104.47C367.98,-108.47 392.02,-114.1 414,-122 485.73,-147.78 558.73,-200.19 598.66,-231.59"/>
<polygon fill="black" stroke="black" points="596.42,-234.28 606.42,-237.77 600.78,-228.8 596.42,-234.28"/>
</a>
</g>
</g>
<!-- PAKNEIMPGNFSKN -->
<g id="node10" class="node">
<title>PAKNEIMPGNFSKN</title>
<g id="a_node10"><a xlink:title="Imports (G&amp;S)
FRML &lt;Z,EXO&gt; PAKNEIMPGNFSKN = (PAKNEIMPGNFSKN(-1)*EXP(-PAKNEIMPGNFSKN_A+ (-0.324143718656754*(LOG(PAKNEIMPGNFSKN(-1))-LOG(PAKNEGDETTOTKN(-1))+0.8*LOG(PAKNEIMPGNFSXN(-1)/PAKNYGDPFCSTXN(-1)))-0.583459272245018+1*((LOG(PAKNEGDETTOTKN))-(LOG(PAKNEGDETTOTKN(-1))))-0.0921874580409631*((LOG(PAKNEIMPGNFSXN/PAKNYGDPFCSTXN))-(LOG(PAKNEIMPGNFSXN(-1)/PAKNYGDPFCSTXN(-1))))-0.0361746331863615*DURING_2012) )) * (1-PAKNEIMPGNFSKN_D)+ PAKNEIMPGNFSKN_X*PAKNEIMPGNFSKN_D  $">
<polygon fill="#63b8ff" stroke="black" points="318.5,-59 95.5,-59 95.5,-23 318.5,-23 318.5,-59"/>
<text text-anchor="start" x="102" y="-36.8" font-family="Times New Roman,serif" font-size="14.00" fill="blue">PAKNEIMPGNFSKN:Imports (G&amp;S)</text>
</a>
</g>
</g>
<!-- PAKNEIMPGNFSKN&#45;&gt;PAKNYGDPMKTPKN -->
<g id="edge2" class="edge">
<title>PAKNEIMPGNFSKN-&gt;PAKNYGDPMKTPKN</title>
<g id="a_edge2"><a xlink:href="bogus" xlink:title=" PAKNEIMPGNFSKN -&gt; PAKNYGDPMKTPKN Min. att. -46%  max: 456%">
<path fill="none" stroke="black" stroke-width="8" d="M318.75,-43.51C350.57,-47.38 384.59,-54.68 414,-68 494.99,-104.67 567.9,-182.21 604.56,-225.72"/>
<polygon fill="black" stroke="black" stroke-width="8" points="598.95,-229.91 610.71,-233.17 609.74,-221 598.95,-229.91"/>
</a>
</g>
</g>
</g>
</svg>