<svg xmlns="http://www.w3.org/2000/svg" xmlns:xlink="http://www.w3.org/1999/xlink" width="432pt" height="149pt" viewBox="0.00 0.00 432.00 148.63">
<g id="graph0" class="graph" transform="scale(0.386059 0.386059) rotate(0) translate(4 381)">
<title>TD</title>
<polygon fill="white" stroke="none" points="-4,4 -4,-381 1115,-381 1115,4 -4,4"/>
<text text-anchor="middle" x="555.5" y="-7.8" font-family="Times New Roman,serif" font-size="14.00">PAKNYGDPMKTPKN</text>
<!-- PAKNECONGOVTKN -->
<g id="node1" class="node">
<title>PAKNECONGOVTKN</title>
<g id="a_node1"><a xlink:title="Government Consumption
FRML  &lt;&gt; PAKNECONGOVTKN = PAKNECONGOVTCN/PAKNECONGOVTXN $">
<polygon fill="#63b8ff" stroke="black" points="406,-377 114,-377 114,-341 406,-341 406,-377"/>
<text text-anchor="start" x="120" y="-354.8" font-family="Times New Roman,serif" font-size="14.00" fill="blue">PAKNECONGOVTKN:Government Consumption</text>
</a>
</g>
</g>
<!-- PAKNYGDPMKTPKN -->
<g id="node2" class="node">
<title>PAKNYGDPMKTPKN</title>
<polygon fill="none" stroke="black" points="1111,-257 556,-257 556,-65 1111,-65 1111,-257"/>
<g id="a_node2_0"><a xlink:href="bogus" xlink:title="GDP Expenditure side at market prices
FRML  &lt;&gt; PAKNYGDPMKTPKN = PAKNECONPRVTKN+PAKNECONGOVTKN+PAKNEGDIFTOTKN+PAKNEGDISTKBKN+PAKNEEXPGNFSKN-PAKNEIMPGNFSKN+PAKNYGDPDISCKN+PAKADAP*PAKDISPREPKN $">
<polygon fill="red" stroke="none" points="561.5,-231 561.5,-252 1106.5,-252 1106.5,-231 561.5,-231"/>
<polygon fill="none" stroke="black" points="561.5,-231 561.5,-252 1106.5,-252 1106.5,-231 561.5,-231"/>
<text text-anchor="start" x="659.5" y="-237.8" font-family="Times New Roman,serif" font-size="14.00" fill="blue">PAKNYGDPMKTPKN:GDP Expenditure side at market prices</text>
</a>
</g>
<polygon fill="none" stroke="black" points="561.5,-208 561.5,-229 636.5,-229 636.5,-208 561.5,-208"/>
<text text-anchor="start" x="564.5" y="-214.8" font-family="Times New Roman,serif" font-size="14.00" fill="blue">Per</text>
<polygon fill="none" stroke="black" points="638.5,-208 638.5,-229 730.5,-229 730.5,-208 638.5,-208"/>
<text text-anchor="start" x="670.5" y="-214.8" font-family="Times New Roman,serif" font-size="14.00" fill="blue">2020</text>
<polygon fill="none" stroke="black" points="732.5,-208 732.5,-229 824.5,-229 824.5,-208 732.5,-208"/>
<text text-anchor="start" x="764.5" y="-214.8" font-family="Times New Roman,serif" font-size="14.00" fill="blue">2021</text>
<polygon fill="none" stroke="black" points="826.5,-208 826.5,-229 918.5,-229 918.5,-208 826.5,-208"/>
<text text-anchor="start" x="858.5" y="-214.8" font-family="Times New Roman,serif" font-size="14.00" fill="blue">2022</text>
<polygon fill="none" stroke="black" points="920.5,-208 920.5,-229 1012.5,-229 1012.5,-208 920.5,-208"/>
<text text-anchor="start" x="952.5" y="-214.8" font-family="Times New Roman,serif" font-size="14.00" fill="blue">2023</text>
<polygon fill="none" stroke="black" points="1014.5,-208 1014.5,-229 1106.5,-229 1106.5,-208 1014.5,-208"/>
<text text-anchor="start" x="1046.5" y="-214.8" font-family="Times New Roman,serif" font-size="14.00" fill="blue">2024</text>
<g id="a_node2_1"><a xlink:href="bogus" xlink:title="Baseline values">
<polygon fill="none" stroke="black" points="561.5,-185 561.5,-206 636.5,-206 636.5,-185 561.5,-185"/>
<text text-anchor="start" x="564.5" y="-191.8" font-family="Times New Roman,serif" font-size="14.00" fill="blue">Base</text>
</a>
</g>
<g id="a_node2_2"><a xlink:href="bogus" xlink:title="Baseline values">
<polygon fill="none" stroke="black" points="638.5,-185 638.5,-206 730.5,-206 730.5,-185 638.5,-185"/>
<text text-anchor="start" x="641.5" y="-191.8" font-family="Times New Roman,serif" font-size="14.00" fill="blue">26,701,602.431</text>
</a>
</g>
<g id="a_node2_3"><a xlink:href="bogus" xlink:title="Baseline values">
<polygon fill="none" stroke="black" points="732.5,-185 732.5,-206 824.5,-206 824.5,-185 732.5,-185"/>
<text text-anchor="start" x="735.5" y="-191.8" font-family="Times New Roman,serif" font-size="14.00" fill="blue">27,202,580.709</text>
</a>
</g>
<g id="a_node2_4"><a xlink:href="bogus" xlink:title="Baseline values">
<polygon fill="none" stroke="black" points="826.5,-185 826.5,-206 918.5,-206 918.5,-185 826.5,-185"/>
<text text-anchor="start" x="829.5" y="-191.8" font-family="Times New Roman,serif" font-size="14.00" fill="blue">27,801,259.405</text>
</a>
</g>
<g id="a_node2_5"><a xlink:href="bogus" xlink:title="Baseline values">
<polygon fill="none" stroke="black" points="920.5,-185 920.5,-206 1012.5,-206 1012.5,-185 920.5,-185"/>
<text text-anchor="start" x="923.5" y="-191.8" font-family="Times New Roman,serif" font-size="14.00" fill="blue">28,499,818.713</text>
</a>
</g>
<g id="a_node2_6"><a xlink:href="bogus" xlink:title="Baseline values">
<polygon fill="none" stroke="black" points="1014.5,-185 1014.5,-206 1106.5,-206 1106.5,-185 1014.5,-185"/>
<text text-anchor="start" x="1017.5" y="-191.8" font-family="Times New Roman,serif" font-size="14.00" fill="blue">29,256,735.696</text>
</a>
</g>
<g id="a_node2_7"><a xlink:href="bogus" xlink:title="Latest run values">
<polygon fill="none" stroke="black" points="561.5,-162 561.5,-183 636.5,-183 636.5,-162 561.5,-162"/>
<text text-anchor="start" x="564.5" y="-168.8" font-family="Times New Roman,serif" font-size="14.00" fill="blue">Last</text>
</a>
</g>
<polygon fill="none" stroke="black" points="638.5,-162 638.5,-183 730.5,-183 730.5,-162 638.5,-162"/>
<text text-anchor="start" x="641.5" y="-168.8" font-family="Times New Roman,serif" font-size="14.00" fill="blue">26,483,175.564</text>
<polygon fill="none" stroke="black" points="732.5,-162 732.5,-183 824.5,-183 824.5,-162 732.5,-162"/>
<text text-anchor="start" x="735.5" y="-168.8" font-family="Times New Roman,serif" font-size="14.00" fill="blue">27,235,594.386</text>
<polygon fill="none" stroke="black" points="826.5,-162 826.5,-183 918.5,-183 918.5,-162 826.5,-162"/>
<text text-anchor="start" x="829.5" y="-168.8" font-family="Times New Roman,serif" font-size="14.00" fill="blue">27,963,320.841</text>
<polygon fill="none" stroke="black" points="920.5,-162 920.5,-183 1012.5,-183 1012.5,-162 920.5,-162"/>
<text text-anchor="start" x="923.5" y="-168.8" font-family="Times New Roman,serif" font-size="14.00" fill="blue">28,690,715.598</text>
<polygon fill="none" stroke="black" points="1014.5,-162 1014.5,-183 1106.5,-183 1106.5,-162 1014.5,-162"/>
<text text-anchor="start" x="1017.5" y="-168.8" font-family="Times New Roman,serif" font-size="14.00" fill="blue">29,445,700.449</text>
<g id="a_node2_8"><a xlink:href="bogus" xlink:title="Difference between baseline and latest run">
<polygon fill="none" stroke="black" points="561.5,-139 561.5,-160 636.5,-160 636.5,-139 561.5,-139"/>
<text text-anchor="start" x="564.5" y="-145.8" font-family="Times New Roman,serif" font-size="14.00" fill="blue">Diff</text>
</a>
</g>
<polygon fill="none" stroke="black" points="638.5,-139 638.5,-160 730.5,-160 730.5,-139 638.5,-139"/>
<text text-anchor="start" x="654.5" y="-145.8" font-family="Times New Roman,serif" font-size="14.00" fill="blue">-218,426.867</text>
<polygon fill="none" stroke="black" points="732.5,-139 732.5,-160 824.5,-160 824.5,-139 732.5,-139"/>
<text text-anchor="start" x="759.5" y="-145.8" font-family="Times New Roman,serif" font-size="14.00" fill="blue">33,013.677</text>
<polygon fill="none" stroke="black" points="826.5,-139 826.5,-160 918.5,-160 918.5,-139 826.5,-139"/>
<text text-anchor="start" x="846.5" y="-145.8" font-family="Times New Roman,serif" font-size="14.00" fill="blue">162,061.436</text>
<polygon fill="none" stroke="black" points="920.5,-139 920.5,-160 1012.5,-160 1012.5,-139 920.5,-139"/>
<text text-anchor="start" x="940.5" y="-145.8" font-family="Times New Roman,serif" font-size="14.00" fill="blue">190,896.885</text>
<polygon fill="none" stroke="black" points="1014.5,-139 1014.5,-160 1106.5,-160 1106.5,-139 1014.5,-139"/>
<text text-anchor="start" x="1034.5" y="-145.8" font-family="Times New Roman,serif" font-size="14.00" fill="blue">188,964.753</text>
<polygon fill="none" stroke="black" points="561.5,-116 561.5,-137 1106.5,-137 1106.5,-116 561.5,-116"/>
<text text-anchor="start" x="799" y="-122.8" font-family="Times New Roman,serif" font-size="14.00" fill="blue"> Growth rate</text>
<g id="a_node2_9"><a xlink:href="bogus" xlink:title="Base growth
Exogen">
<polygon fill="none" stroke="black" points="561.5,-93 561.5,-114 636.5,-114 636.5,-93 561.5,-93"/>
<text text-anchor="start" x="564.5" y="-99.8" font-family="Times New Roman,serif" font-size="14.00" fill="blue">Base growth</text>
</a>
</g>
<polygon fill="none" stroke="black" points="638.5,-93 638.5,-114 730.5,-114 730.5,-93 638.5,-93"/>
<text text-anchor="start" x="696.5" y="-99.8" font-family="Times New Roman,serif" font-size="14.00" fill="blue">2.087</text>
<polygon fill="none" stroke="black" points="732.5,-93 732.5,-114 824.5,-114 824.5,-93 732.5,-93"/>
<text text-anchor="start" x="790.5" y="-99.8" font-family="Times New Roman,serif" font-size="14.00" fill="blue">1.876</text>
<polygon fill="none" stroke="black" points="826.5,-93 826.5,-114 918.5,-114 918.5,-93 826.5,-93"/>
<text text-anchor="start" x="884.5" y="-99.8" font-family="Times New Roman,serif" font-size="14.00" fill="blue">2.201</text>
<polygon fill="none" stroke="black" points="920.5,-93 920.5,-114 1012.5,-114 1012.5,-93 920.5,-93"/>
<text text-anchor="start" x="978.5" y="-99.8" font-family="Times New Roman,serif" font-size="14.00" fill="blue">2.513</text>
<polygon fill="none" stroke="black" points="1014.5,-93 1014.5,-114 1106.5,-114 1106.5,-93 1014.5,-93"/>
<text text-anchor="start" x="1072.5" y="-99.8" font-family="Times New Roman,serif" font-size="14.00" fill="blue">2.656</text>
<g id="a_node2_10"><a xlink:href="bogus" xlink:title="Last growth
Exogen">
<polygon fill="none" stroke="black" points="561.5,-70 561.5,-91 636.5,-91 636.5,-70 561.5,-70"/>
<text text-anchor="start" x="564.5" y="-76.8" font-family="Times New Roman,serif" font-size="14.00" fill="blue">Last growth</text>
</a>
</g>
<polygon fill="none" stroke="black" points="638.5,-70 638.5,-91 730.5,-91 730.5,-70 638.5,-70"/>
<text text-anchor="start" x="696.5" y="-76.8" font-family="Times New Roman,serif" font-size="14.00" fill="blue">1.252</text>
<polygon fill="none" stroke="black" points="732.5,-70 732.5,-91 824.5,-91 824.5,-70 732.5,-70"/>
<text text-anchor="start" x="790.5" y="-76.8" font-family="Times New Roman,serif" font-size="14.00" fill="blue">2.841</text>
<polygon fill="none" stroke="black" points="826.5,-70 826.5,-91 918.5,-91 918.5,-70 826.5,-70"/>
<text text-anchor="start" x="884.5" y="-76.8" font-family="Times New Roman,serif" font-size="14.00" fill="blue">2.672</text>
<polygon fill="none" stroke="black" points="920.5,-70 920.5,-91 1012.5,-91 1012.5,-70 920.5,-70"/>
<text text-anchor="start" x="978.5" y="-76.8" font-family="Times New Roman,serif" font-size="14.00" fill="blue">2.601</text>
<polygon fill="none" stroke="black" points="1014.5,-70 1014.5,-91 1106.5,-91 1106.5,-70 1014.5,-70"/>
<text text-anchor="start" x="1072.5" y="-76.8" font-family="Times New Roman,serif" font-size="14.00" fill="blue">2.631</text>
<polygon fill="none" stroke="black" points="558,-67 558,-255 1109,-255 1109,-67 558,-67"/>
</g>
<!-- PAKNECONGOVTKN&#45;&gt;PAKNYGDPMKTPKN -->
<g id="edge1" class="edge">
<title>PAKNECONGOVTKN-&gt;PAKNYGDPMKTPKN</title>
<g id="a_edge1"><a xlink:href="bogus" xlink:title=" PAKNECONGOVTKN -&gt; PAKNYGDPMKTPKN Min. att. -108%  max: 835%">
<path fill="none" stroke="black" stroke-width="8" d="M406.22,-354.05C443.88,-350.02 483.96,-343.24 520,-332 571.12,-316.06 623.41,-291.34 670.23,-265.6"/>
<polygon fill="black" stroke="black" stroke-width="8" points="673.5,-271.8 678.81,-260.81 666.67,-259.57 673.5,-271.8"/>
</a>
</g>
</g>
<!-- PAKNEGDIFTOTKN -->
<g id="node3" class="node">
<title>PAKNEGDIFTOTKN</title>
<polygon fill="none" stroke="black" points="520,-323 0,-323 0,-131 520,-131 520,-323"/>
<g id="a_node3_11"><a xlink:href="bogus" xlink:title="Total Gross Capital Formation
FRML  &lt;&gt; PAKNEGDIFTOTKN = PAKNEGDIFGOVKN+PAKNEGDIFPRVKN $">
<polygon fill="#ff7f24" stroke="none" points="5,-297 5,-318 515,-318 515,-297 5,-297"/>
<polygon fill="none" stroke="black" points="5,-297 5,-318 515,-318 515,-297 5,-297"/>
<text text-anchor="start" x="114" y="-303.8" font-family="Times New Roman,serif" font-size="14.00" fill="blue">PAKNEGDIFTOTKN:Total Gross Capital Formation</text>
</a>
</g>
<polygon fill="none" stroke="black" points="5,-274 5,-295 80,-295 80,-274 5,-274"/>
<text text-anchor="start" x="8" y="-280.8" font-family="Times New Roman,serif" font-size="14.00" fill="blue">Per</text>
<polygon fill="none" stroke="black" points="82,-274 82,-295 167,-295 167,-274 82,-274"/>
<text text-anchor="start" x="110.5" y="-280.8" font-family="Times New Roman,serif" font-size="14.00" fill="blue">2020</text>
<polygon fill="none" stroke="black" points="169,-274 169,-295 254,-295 254,-274 169,-274"/>
<text text-anchor="start" x="197.5" y="-280.8" font-family="Times New Roman,serif" font-size="14.00" fill="blue">2021</text>
<polygon fill="none" stroke="black" points="256,-274 256,-295 341,-295 341,-274 256,-274"/>
<text text-anchor="start" x="284.5" y="-280.8" font-family="Times New Roman,serif" font-size="14.00" fill="blue">2022</text>
<polygon fill="none" stroke="black" points="343,-274 343,-295 428,-295 428,-274 343,-274"/>
<text text-anchor="start" x="371.5" y="-280.8" font-family="Times New Roman,serif" font-size="14.00" fill="blue">2023</text>
<polygon fill="none" stroke="black" points="430,-274 430,-295 515,-295 515,-274 430,-274"/>
<text text-anchor="start" x="458.5" y="-280.8" font-family="Times New Roman,serif" font-size="14.00" fill="blue">2024</text>
<g id="a_node3_12"><a xlink:href="bogus" xlink:title="Baseline values">
<polygon fill="none" stroke="black" points="5,-251 5,-272 80,-272 80,-251 5,-251"/>
<text text-anchor="start" x="8" y="-257.8" font-family="Times New Roman,serif" font-size="14.00" fill="blue">Base</text>
</a>
</g>
<g id="a_node3_13"><a xlink:href="bogus" xlink:title="Baseline values">
<polygon fill="none" stroke="black" points="82,-251 82,-272 167,-272 167,-251 82,-251"/>
<text text-anchor="start" x="85" y="-257.8" font-family="Times New Roman,serif" font-size="14.00" fill="blue">3,897,262.074</text>
</a>
</g>
<g id="a_node3_14"><a xlink:href="bogus" xlink:title="Baseline values">
<polygon fill="none" stroke="black" points="169,-251 169,-272 254,-272 254,-251 169,-251"/>
<text text-anchor="start" x="172" y="-257.8" font-family="Times New Roman,serif" font-size="14.00" fill="blue">4,049,448.991</text>
</a>
</g>
<g id="a_node3_15"><a xlink:href="bogus" xlink:title="Baseline values">
<polygon fill="none" stroke="black" points="256,-251 256,-272 341,-272 341,-251 256,-251"/>
<text text-anchor="start" x="259" y="-257.8" font-family="Times New Roman,serif" font-size="14.00" fill="blue">4,210,847.327</text>
</a>
</g>
<g id="a_node3_16"><a xlink:href="bogus" xlink:title="Baseline values">
<polygon fill="none" stroke="black" points="343,-251 343,-272 428,-272 428,-251 343,-251"/>
<text text-anchor="start" x="346" y="-257.8" font-family="Times New Roman,serif" font-size="14.00" fill="blue">4,380,029.522</text>
</a>
</g>
<g id="a_node3_17"><a xlink:href="bogus" xlink:title="Baseline values">
<polygon fill="none" stroke="black" points="430,-251 430,-272 515,-272 515,-251 430,-251"/>
<text text-anchor="start" x="433" y="-257.8" font-family="Times New Roman,serif" font-size="14.00" fill="blue">4,553,907.602</text>
</a>
</g>
<g id="a_node3_18"><a xlink:href="bogus" xlink:title="Latest run values">
<polygon fill="none" stroke="black" points="5,-228 5,-249 80,-249 80,-228 5,-228"/>
<text text-anchor="start" x="8" y="-234.8" font-family="Times New Roman,serif" font-size="14.00" fill="blue">Last</text>
</a>
</g>
<polygon fill="none" stroke="black" points="82,-228 82,-249 167,-249 167,-228 82,-228"/>
<text text-anchor="start" x="85" y="-234.8" font-family="Times New Roman,serif" font-size="14.00" fill="blue">3,975,227.861</text>
<polygon fill="none" stroke="black" points="169,-228 169,-249 254,-249 254,-228 169,-228"/>
<text text-anchor="start" x="172" y="-234.8" font-family="Times New Roman,serif" font-size="14.00" fill="blue">4,170,245.171</text>
<polygon fill="none" stroke="black" points="256,-228 256,-249 341,-249 341,-228 256,-228"/>
<text text-anchor="start" x="259" y="-234.8" font-family="Times New Roman,serif" font-size="14.00" fill="blue">4,354,170.443</text>
<polygon fill="none" stroke="black" points="343,-228 343,-249 428,-249 428,-228 343,-228"/>
<text text-anchor="start" x="346" y="-234.8" font-family="Times New Roman,serif" font-size="14.00" fill="blue">4,535,628.810</text>
<polygon fill="none" stroke="black" points="430,-228 430,-249 515,-249 515,-228 430,-228"/>
<text text-anchor="start" x="433" y="-234.8" font-family="Times New Roman,serif" font-size="14.00" fill="blue">4,717,894.765</text>
<g id="a_node3_19"><a xlink:href="bogus" xlink:title="Difference between baseline and latest run">
<polygon fill="none" stroke="black" points="5,-205 5,-226 80,-226 80,-205 5,-205"/>
<text text-anchor="start" x="8" y="-211.8" font-family="Times New Roman,serif" font-size="14.00" fill="blue">Diff</text>
</a>
</g>
<polygon fill="none" stroke="black" points="82,-205 82,-226 167,-226 167,-205 82,-205"/>
<text text-anchor="start" x="102" y="-211.8" font-family="Times New Roman,serif" font-size="14.00" fill="blue">77,965.787</text>
<polygon fill="none" stroke="black" points="169,-205 169,-226 254,-226 254,-205 169,-205"/>
<text text-anchor="start" x="182" y="-211.8" font-family="Times New Roman,serif" font-size="14.00" fill="blue">120,796.180</text>
<polygon fill="none" stroke="black" points="256,-205 256,-226 341,-226 341,-205 256,-205"/>
<text text-anchor="start" x="269" y="-211.8" font-family="Times New Roman,serif" font-size="14.00" fill="blue">143,323.116</text>
<polygon fill="none" stroke="black" points="343,-205 343,-226 428,-226 428,-205 343,-205"/>
<text text-anchor="start" x="356" y="-211.8" font-family="Times New Roman,serif" font-size="14.00" fill="blue">155,599.288</text>
<polygon fill="none" stroke="black" points="430,-205 430,-226 515,-226 515,-205 430,-205"/>
<text text-anchor="start" x="443" y="-211.8" font-family="Times New Roman,serif" font-size="14.00" fill="blue">163,987.163</text>
<polygon fill="none" stroke="black" points="5,-182 5,-203 515,-203 515,-182 5,-182"/>
<text text-anchor="start" x="225" y="-188.8" font-family="Times New Roman,serif" font-size="14.00" fill="blue"> Growth rate</text>
<g id="a_node3_20"><a xlink:href="bogus" xlink:title="Base growth
Exogen">
<polygon fill="none" stroke="black" points="5,-159 5,-180 80,-180 80,-159 5,-159"/>
<text text-anchor="start" x="8" y="-165.8" font-family="Times New Roman,serif" font-size="14.00" fill="blue">Base growth</text>
</a>
</g>
<polygon fill="none" stroke="black" points="82,-159 82,-180 167,-180 167,-159 82,-159"/>
<text text-anchor="start" x="133" y="-165.8" font-family="Times New Roman,serif" font-size="14.00" fill="blue">3.925</text>
<polygon fill="none" stroke="black" points="169,-159 169,-180 254,-180 254,-159 169,-159"/>
<text text-anchor="start" x="220" y="-165.8" font-family="Times New Roman,serif" font-size="14.00" fill="blue">3.905</text>
<polygon fill="none" stroke="black" points="256,-159 256,-180 341,-180 341,-159 256,-159"/>
<text text-anchor="start" x="307" y="-165.8" font-family="Times New Roman,serif" font-size="14.00" fill="blue">3.986</text>
<polygon fill="none" stroke="black" points="343,-159 343,-180 428,-180 428,-159 343,-159"/>
<text text-anchor="start" x="394" y="-165.8" font-family="Times New Roman,serif" font-size="14.00" fill="blue">4.018</text>
<polygon fill="none" stroke="black" points="430,-159 430,-180 515,-180 515,-159 430,-159"/>
<text text-anchor="start" x="481" y="-165.8" font-family="Times New Roman,serif" font-size="14.00" fill="blue">3.970</text>
<g id="a_node3_21"><a xlink:href="bogus" xlink:title="Last growth
Exogen">
<polygon fill="none" stroke="black" points="5,-136 5,-157 80,-157 80,-136 5,-136"/>
<text text-anchor="start" x="8" y="-142.8" font-family="Times New Roman,serif" font-size="14.00" fill="blue">Last growth</text>
</a>
</g>
<polygon fill="none" stroke="black" points="82,-136 82,-157 167,-157 167,-136 82,-136"/>
<text text-anchor="start" x="133" y="-142.8" font-family="Times New Roman,serif" font-size="14.00" fill="blue">6.005</text>
<polygon fill="none" stroke="black" points="169,-136 169,-157 254,-157 254,-136 169,-136"/>
<text text-anchor="start" x="220" y="-142.8" font-family="Times New Roman,serif" font-size="14.00" fill="blue">4.906</text>
<polygon fill="none" stroke="black" points="256,-136 256,-157 341,-157 341,-136 256,-136"/>
<text text-anchor="start" x="307" y="-142.8" font-family="Times New Roman,serif" font-size="14.00" fill="blue">4.410</text>
<polygon fill="none" stroke="black" points="343,-136 343,-157 428,-157 428,-136 343,-136"/>
<text text-anchor="start" x="394" y="-142.8" font-family="Times New Roman,serif" font-size="14.00" fill="blue">4.167</text>
<polygon fill="none" stroke="black" points="430,-136 430,-157 515,-157 515,-136 430,-136"/>
<text text-anchor="start" x="481" y="-142.8" font-family="Times New Roman,serif" font-size="14.00" fill="blue">4.019</text>
<polygon fill="none" stroke="black" points="2,-133 2,-321 518,-321 518,-133 2,-133"/>
</g>
<!-- PAKNEGDIFTOTKN&#45;&gt;PAKNYGDPMKTPKN -->
<g id="edge3" class="edge">
<title>PAKNEGDIFTOTKN-&gt;PAKNYGDPMKTPKN</title>
<g id="a_edge3"><a xlink:href="bogus" xlink:title=" PAKNEGDIFTOTKN -&gt; PAKNYGDPMKTPKN Min. att. -36%  max: 366%">
<path fill="none" stroke="black" stroke-width="8" d="M520.41,-197.04C526.68,-196.32 532.97,-195.59 539.26,-194.86"/>
<polygon fill="black" stroke="black" stroke-width="8" points="539.86,-201.84 549,-193.74 538.26,-187.93 539.86,-201.84"/>
</a>
</g>
</g>
<!-- PAKNECONPRVTKN -->
<g id="node4" class="node">
<title>PAKNECONPRVTKN</title>
<g id="a_node4"><a xlink:title="Household Consumption
FRML &lt;Z,EXO&gt; PAKNECONPRVTKN = (PAKNECONPRVTKN(-1)*EXP(-PAKNECONPRVTKN_A+ (-0.2*(LOG(PAKNECONPRVTKN(-1))-LOG((PAKNYYWBTOTLCN(-1)*(1-PAKGGREVDRCTXN(-1)/100))/PAKNECONPRVTXN(-1)))+1*((LOG((PAKNYYWBTOTLCN*(1-PAKGGREVDRCTXN/100))/PAKNECONPRVTXN))-(LOG((PAKNYYWBTOTLCN(-1)*(1-PAKGGREVDRCTXN(-1)/100))/PAKNECONPRVTXN(-1))))+0.0303228629698929+0.0163839011059956*DURING_2010-0.3*(PAKFMLBLPOLYXN/100-((LOG(PAKNECONPRVTXN))-(LOG(PAKNECONPRVTXN(-1)))))) )) * (1-PAKNECONPRVTKN_D)+ PAKNECONPRVTKN_X*PAKNECONPRVTKN_D  $">
<polygon fill="#63b8ff" stroke="black" points="399,-113 121,-113 121,-77 399,-77 399,-113"/>
<text text-anchor="start" x="127" y="-90.8" font-family="Times New Roman,serif" font-size="14.00" fill="blue">PAKNECONPRVTKN:Household Consumption</text>
</a>
</g>
</g>
<!-- PAKNECONPRVTKN&#45;&gt;PAKNYGDPMKTPKN -->
<g id="edge2" class="edge">
<title>PAKNECONPRVTKN-&gt;PAKNYGDPMKTPKN</title>
<g id="a_edge2"><a xlink:href="bogus" xlink:title=" PAKNECONPRVTKN -&gt; PAKNYGDPMKTPKN Min. att. -1557%  max: 290%">
<path fill="none" stroke="black" stroke-width="8" d="M399.17,-108.88C438.25,-112.95 480.81,-117.51 520,-122 526.2,-122.71 532.48,-123.44 538.8,-124.17"/>
<polygon fill="black" stroke="black" stroke-width="8" points="537.97,-131.12 548.71,-125.33 539.6,-117.22 537.97,-131.12"/>
</a>
</g>
</g>
<!-- PAKNEIMPGNFSKN -->
<g id="node5" class="node">
<title>PAKNEIMPGNFSKN</title>
<g id="a_node5"><a xlink:title="Imports (G&amp;S)
FRML &lt;Z,EXO&gt; PAKNEIMPGNFSKN = (PAKNEIMPGNFSKN(-1)*EXP(-PAKNEIMPGNFSKN_A+ (-0.324143718656754*(LOG(PAKNEIMPGNFSKN(-1))-LOG(PAKNEGDETTOTKN(-1))+0.8*LOG(PAKNEIMPGNFSXN(-1)/PAKNYGDPFCSTXN(-1)))-0.583459272245018+1*((LOG(PAKNEGDETTOTKN))-(LOG(PAKNEGDETTOTKN(-1))))-0.0921874580409631*((LOG(PAKNEIMPGNFSXN/PAKNYGDPFCSTXN))-(LOG(PAKNEIMPGNFSXN(-1)/PAKNYGDPFCSTXN(-1))))-0.0361746331863615*DURING_2012) )) * (1-PAKNEIMPGNFSKN_D)+ PAKNEIMPGNFSKN_X*PAKNEIMPGNFSKN_D  $">
<polygon fill="#63b8ff" stroke="black" points="371.5,-59 148.5,-59 148.5,-23 371.5,-23 371.5,-59"/>
<text text-anchor="start" x="155" y="-36.8" font-family="Times New Roman,serif" font-size="14.00" fill="blue">PAKNEIMPGNFSKN:Imports (G&amp;S)</text>
</a>
</g>
</g>
<!-- PAKNEIMPGNFSKN&#45;&gt;PAKNYGDPMKTPKN -->
<g id="edge4" class="edge">
<title>PAKNEIMPGNFSKN-&gt;PAKNYGDPMKTPKN</title>
<g id="a_edge4"><a xlink:href="bogus" xlink:title=" PAKNEIMPGNFSKN -&gt; PAKNYGDPMKTPKN Min. att. -46%  max: 456%">
<path fill="none" stroke="black" stroke-width="8" d="M371.95,-48.02C418.04,-52.11 471.89,-58.42 520,-68 526.45,-69.28 532.96,-70.64 539.51,-72.07"/>
<polygon fill="black" stroke="black" stroke-width="8" points="537.76,-78.85 549.06,-74.21 540.83,-65.19 537.76,-78.85"/>
</a>
</g>
</g>
</g>
</svg>