<svg xmlns="http://www.w3.org/2000/svg" xmlns:xlink="http://www.w3.org/1999/xlink" width="432pt" height="182pt" viewBox="0.00 0.00 432.00 182.29">
<g id="graph0" class="graph" transform="scale(0.167767 0.167767) rotate(0) translate(4 1082.55)">
<title>TD</title>
<polygon fill="white" stroke="none" points="-4,4 -4,-1082.55 2571,-1082.55 2571,4 -4,4"/>
<text text-anchor="middle" x="1283.5" y="-7.8" font-family="Times New Roman,serif" font-size="14.00">PAKNECONPRVTKN</text>
<!-- PAKNECONENGYGN -->
<g id="node1" class="node">
<title>PAKNECONENGYGN</title>
<g id="a_node1"><a xlink:title="Net consumption deflator
FRML  &lt;&gt; PAKNECONENGYGN = (PAKNVCOLPRODSH**(PAKCESENGYPROD)*(PAKNVCOLPRODGN)**(1-PAKCESENGYPROD)+PAKNVGASPRODSH**(PAKCESENGYPROD)*(PAKNVGASPRODGN)**(1-PAKCESENGYPROD)+PAKNVOILPRODSH**(PAKCESENGYPROD)*(PAKNVOILPRODGN)**(1-PAKCESENGYPROD)+PAKNVRENPRODSH**(PAKCESENGYPROD)*(PAKNVRENPRODXN)**(1-PAKCESENGYPROD))**(1/(1-PAKCESENGYPROD)) $">
<polygon fill="#63b8ff" stroke="black" points="286,-269.55 0,-269.55 0,-233.55 286,-233.55 286,-269.55"/>
<text text-anchor="start" x="6" y="-247.35" font-family="Times New Roman,serif" font-size="14.00" fill="blue">PAKNECONENGYGN:Net consumption deflator</text>
</a>
</g>
</g>
<!-- PAKNECONENGYXN -->
<g id="node17" class="node">
<title>PAKNECONENGYXN</title>
<g id="a_node17"><a xlink:title="Energy Consumption
FRML &lt;Z,EXO&gt; PAKNECONENGYXN = (PAKNECONENGYXN(-1)*EXP(-PAKNECONENGYXN_A+ (((LOG(PAKNECONENGYGN))-(LOG(PAKNECONENGYGN(-1))))+0.0550557534575806*DUMH) )) * (1-PAKNECONENGYXN_D)+ PAKNECONENGYXN_X*PAKNECONENGYXN_D  $">
<polygon fill="#63b8ff" stroke="black" points="597.5,-269.55 335.5,-269.55 335.5,-233.55 597.5,-233.55 597.5,-269.55"/>
<text text-anchor="start" x="341.5" y="-247.35" font-family="Times New Roman,serif" font-size="14.00" fill="blue">PAKNECONENGYXN:Energy Consumption</text>
</a>
</g>
</g>
<!-- PAKNECONENGYGN&#45;&gt;PAKNECONENGYXN -->
<g id="edge18" class="edge">
<title>PAKNECONENGYGN-&gt;PAKNECONENGYXN</title>
<g id="a_edge18"><a xlink:href="bogus" xlink:title=" PAKNECONENGYGN -&gt; PAKNECONENGYXN Min. att. -39%  max: 100%">
<path fill="none" stroke="black" stroke-width="8" d="M286.42,-251.55C297.11,-251.55 307.91,-251.55 318.63,-251.55"/>
<polygon fill="black" stroke="black" stroke-width="8" points="318.4,-258.55 328.4,-251.55 318.4,-244.55 318.4,-258.55"/>
</a>
</g>
</g>
<!-- PAKNEIMPGNFSXN -->
<g id="node2" class="node">
<title>PAKNEIMPGNFSXN</title>
<g id="a_node2"><a xlink:title="Imports (G&amp;S)
FRML  &lt;&gt; PAKNEIMPGNFSXN = ((PAKNEIMPENGYSH**PAKCESENGYIMPT)*PAKNVENGNIMPXN**(1-PAKCESENGYIMPT)+(PAKNEIMPOTHRSH**PAKCESENGYIMPT)*PAKNEIMPGSNEXN**(1-PAKCESENGYIMPT))**(1/(1-PAKCESENGYIMPT)) $">
<polygon fill="#63b8ff" stroke="black" points="254.5,-215.55 31.5,-215.55 31.5,-179.55 254.5,-179.55 254.5,-215.55"/>
<text text-anchor="start" x="38" y="-193.35" font-family="Times New Roman,serif" font-size="14.00" fill="blue">PAKNEIMPGNFSXN:Imports (G&amp;S)</text>
</a>
</g>
</g>
<!-- PAKNECONOTHRXN -->
<g id="node8" class="node">
<title>PAKNECONOTHRXN</title>
<g id="a_node8"><a xlink:title="Non-Energy Consumption
FRML &lt;Z,EXO&gt; PAKNECONOTHRXN = (PAKNECONOTHRXN(-1)*EXP(-PAKNECONOTHRXN_A+ (0.598859116610832*((LOG(PAKNYGDPFCSTXN))-(LOG(PAKNYGDPFCSTXN(-1))))+((PAKGGREVGNFSXN/100)-(PAKGGREVGNFSXN(-1)/100))+(1-0.598859116610832)*((LOG(PAKNEIMPGNFSXN))-(LOG(PAKNEIMPGNFSXN(-1))))+0.2*PAKNYGDPGAP_/100) )) * (1-PAKNECONOTHRXN_D)+ PAKNECONOTHRXN_X*PAKNECONOTHRXN_D  $">
<polygon fill="#63b8ff" stroke="black" points="611,-215.55 322,-215.55 322,-179.55 611,-179.55 611,-215.55"/>
<text text-anchor="start" x="328.5" y="-193.35" font-family="Times New Roman,serif" font-size="14.00" fill="blue">PAKNECONOTHRXN:Non-Energy Consumption</text>
</a>
</g>
</g>
<!-- PAKNEIMPGNFSXN&#45;&gt;PAKNECONOTHRXN -->
<g id="edge8" class="edge">
<title>PAKNEIMPGNFSXN-&gt;PAKNECONOTHRXN</title>
<g id="a_edge8"><a xlink:href="bogus" xlink:title=" PAKNEIMPGNFSXN -&gt; PAKNECONOTHRXN Min. att. -10%  max: 114%">
<path fill="none" stroke="black" stroke-width="8" d="M254.64,-197.55C270.85,-197.55 287.82,-197.55 304.79,-197.55"/>
<polygon fill="black" stroke="black" stroke-width="8" points="304.75,-204.55 314.75,-197.55 304.75,-190.55 304.75,-204.55"/>
</a>
</g>
</g>
<!-- PAKSMINDOTHRTKN -->
<g id="node3" class="node">
<title>PAKSMINDOTHRTKN</title>
<g id="a_node3"><a xlink:title="PAKSMINDOTHRTKN
FRML  &lt;&gt; PAKSMINDOTHRTKN = ((1+0.483473985412524)*(0.40172973397176*PAKNECONPRVTKN+0*PAKNECONGOVTKN+0.560459287907094*PAKNEGDIFTOTKN+0.719299486591763*PAKNEEXPGNFSKN+0.620970563578771*PAKNEGDISTKBKN)-0.606734386430279*PAKNEIMPGNFSKN-0.866045585295928*PAKNYTAXNINDKN-2983275.63714814)/(1+2.46379868577176) $">
<polygon fill="#63b8ff" stroke="black" points="1522,-446.55 1371,-446.55 1371,-410.55 1522,-410.55 1522,-446.55"/>
<text text-anchor="start" x="1377.5" y="-424.35" font-family="Times New Roman,serif" font-size="14.00" fill="blue">PAKSMINDOTHRTKN:</text>
</a>
</g>
</g>
<!-- PAKNYGDPGAP_ -->
<g id="node4" class="node">
<title>PAKNYGDPGAP_</title>
<g id="a_node4"><a xlink:title="Output Gap (% of Potential GDP)
FRML  &lt;&gt; PAKNYGDPGAP_ = ((PAKNYGDPMKTPKN/PAKNYGDPPOTLKN-1)*100) $">
<polygon fill="#63b8ff" stroke="black" points="1993,-747.55 1684,-747.55 1684,-711.55 1993,-711.55 1993,-747.55"/>
<text text-anchor="start" x="1690.5" y="-725.35" font-family="Times New Roman,serif" font-size="14.00" fill="blue">PAKNYGDPGAP_:Output Gap (% of Potential GDP)</text>
</a>
</g>
</g>
<!-- PAKLMEMPTOTLCN -->
<g id="node6" class="node">
<title>PAKLMEMPTOTLCN</title>
<g id="a_node6"><a xlink:title="Employment
FRML &lt;Z,EXO&gt; PAKLMEMPTOTLCN = (PAKLMEMPTOTLCN(-1)*EXP(-PAKLMEMPTOTLCN_A+ (-0.345624644563667*(LOG(PAKLMEMPTOTLCN(-1))-LOG(PAKLMEMPSTRLCN(-1)))-0.1*(((LOG(PAKNYWRTTOTLCN/PAKNYGDPFCSTXN))-(LOG(PAKNYWRTTOTLCN(-1)/PAKNYGDPFCSTXN(-1))))-((LOG(PAKNYGDPPOTLKN/PAKLMEMPSTRLCN))-(LOG(PAKNYGDPPOTLKN(-1)/PAKLMEMPSTRLCN(-1)))))-0.0011790007645121+((LOG(PAKLMEMPSTRLCN))-(LOG(PAKLMEMPSTRLCN(-1))))+0.175412878170024*PAKNYGDPGAP_/100+0.0369790799942338*DURING_2010) )) * (1-PAKLMEMPTOTLCN_D)+ PAKLMEMPTOTLCN_X*PAKLMEMPTOTLCN_D  $">
<polygon fill="#63b8ff" stroke="black" points="2246,-870.55 2029,-870.55 2029,-834.55 2246,-834.55 2246,-870.55"/>
<text text-anchor="start" x="2035.5" y="-848.35" font-family="Times New Roman,serif" font-size="14.00" fill="blue">PAKLMEMPTOTLCN:Employment</text>
</a>
</g>
</g>
<!-- PAKNYGDPGAP_&#45;&gt;PAKLMEMPTOTLCN -->
<g id="edge34" class="edge">
<title>PAKNYGDPGAP_-&gt;PAKLMEMPTOTLCN</title>
<g id="a_edge34"><a xlink:href="bogus" xlink:title=" PAKNYGDPGAP_ -&gt; PAKLMEMPTOTLCN Min. att. -362%  max: 147%">
<path fill="none" stroke="black" stroke-width="8" d="M1884.53,-747.94C1915.14,-760.47 1956.54,-777.45 1993,-792.55 2020.68,-804.02 2051.33,-816.82 2077.17,-827.64"/>
<polygon fill="black" stroke="black" stroke-width="8" points="2074.21,-833.99 2086.13,-831.4 2079.62,-821.08 2074.21,-833.99"/>
</a>
</g>
</g>
<!-- PAKFMLBLPOLYXN -->
<g id="node28" class="node">
<title>PAKFMLBLPOLYXN</title>
<g id="a_node28"><a xlink:title="Policy Rate
FRML &lt;Z,EXO&gt; PAKFMLBLPOLYXN = (-100*PAKFMLBLPOLYXN_A+100* (0.905129162122953*PAKFMLBLPOLYXN(-1)/100+(1-0.905129162122953)*(PAKMPPOLNATRXN/100+1.2*(((LOG(PAKNECONPRVTXN))-(LOG(PAKNECONPRVTXN(-1))))-PAKINFLEXPT/100)+0.5*PAKNYGDPGAP_/100)) ) * (1-PAKFMLBLPOLYXN_D)+ PAKFMLBLPOLYXN_X*PAKFMLBLPOLYXN_D  $">
<polygon fill="#63b8ff" stroke="black" points="2240,-184.55 2035,-184.55 2035,-148.55 2240,-148.55 2240,-184.55"/>
<text text-anchor="start" x="2041.5" y="-162.35" font-family="Times New Roman,serif" font-size="14.00" fill="blue">PAKFMLBLPOLYXN:Policy Rate</text>
</a>
</g>
</g>
<!-- PAKNYGDPGAP_&#45;&gt;PAKFMLBLPOLYXN -->
<g id="edge19" class="edge">
<title>PAKNYGDPGAP_-&gt;PAKFMLBLPOLYXN</title>
<g id="a_edge19"><a xlink:href="bogus" xlink:title=" PAKNYGDPGAP_ -&gt; PAKFMLBLPOLYXN Min. att. -15%  max: 83%">
<path fill="none" stroke="black" stroke-width="8" d="M1849.21,-711.14C1891.92,-630.19 2063.32,-305.27 2118.96,-199.8"/>
<polygon fill="black" stroke="black" stroke-width="8" points="2125.13,-203.1 2123.61,-190.99 2112.75,-196.57 2125.13,-203.1"/>
</a>
</g>
</g>
<!-- PAKNYWRTFORMCN -->
<g id="node5" class="node">
<title>PAKNYWRTFORMCN</title>
<g id="a_node5"><a xlink:title="Formal wage
FRML &lt;Z,EXO&gt; PAKNYWRTFORMCN = (PAKNYWRTFORMCN(-1)*EXP(-PAKNYWRTFORMCN_A+ (-0.120164450250183-0.3*(LOG(PAKNYWRTFORMCN(-1))-LOG(PAKNYGDPFCSTXN(-1))-LOG(PAKNYGDPPOTLKN(-1)/PAKLMEMPSTRLCN(-1)))+0.2*((LOG(PAKNYWRTFORMCN(-1)))-(LOG(PAKNYWRTFORMCN(-2))))+(1-0.2)*(0.5*((LOG(PAKNYGDPFCSTXN(-1)))-(LOG(PAKNYGDPFCSTXN(-2))))+0.5*(PAKINFLEXPT/100)+((LOG(PAKNYGDPMKTPKN/PAKLMEMPSTRLCN))-(LOG(PAKNYGDPMKTPKN(-1)/PAKLMEMPSTRLCN(-1)))))-0.2*(PAKLMUNRTOTLCN-PAKLMUNRSTRLCN)/100+0.15233813938029*DURING_2000-0.183411483907703*DURING_2001) )) * (1-PAKNYWRTFORMCN_D)+ PAKNYWRTFORMCN_X*PAKNYWRTFORMCN_D  $">
<polygon fill="#63b8ff" stroke="black" points="1557.5,-878.55 1335.5,-878.55 1335.5,-842.55 1557.5,-842.55 1557.5,-878.55"/>
<text text-anchor="start" x="1341.5" y="-856.35" font-family="Times New Roman,serif" font-size="14.00" fill="blue">PAKNYWRTFORMCN:Formal wage</text>
</a>
</g>
</g>
<!-- PAKNYWRTTOTLCN -->
<g id="node27" class="node">
<title>PAKNYWRTTOTLCN</title>
<g id="a_node27"><a xlink:title="Wages
FRML  &lt;&gt; PAKNYWRTTOTLCN = (PAKNYWBINFMSH**PAKINFCES*(PAKNYWRTINFMCN)**(1-PAKINFCES)+PAKNYWBFORMSH**PAKINFCES*(PAKNYWRTFORMCN*(1+PAKGGREVDRCTXN/100))**(1-PAKINFCES))**(1/(1-PAKINFCES)) $">
<polygon fill="#63b8ff" stroke="black" points="1929,-924.55 1748,-924.55 1748,-888.55 1929,-888.55 1929,-924.55"/>
<text text-anchor="start" x="1754.5" y="-902.35" font-family="Times New Roman,serif" font-size="14.00" fill="blue">PAKNYWRTTOTLCN:Wages</text>
</a>
</g>
</g>
<!-- PAKNYWRTFORMCN&#45;&gt;PAKNYWRTTOTLCN -->
<g id="edge32" class="edge">
<title>PAKNYWRTFORMCN-&gt;PAKNYWRTTOTLCN</title>
<g id="a_edge32"><a xlink:href="bogus" xlink:title=" PAKNYWRTFORMCN -&gt; PAKNYWRTTOTLCN Min. att. 21%  max: 21%">
<path fill="none" stroke="black" stroke-width="2.13" d="M1557.95,-873.58C1613.52,-880.13 1680.45,-888.03 1734.88,-894.45"/>
<polygon fill="black" stroke="black" stroke-width="2.13" points="1734.18,-897.89 1744.52,-895.59 1735,-890.94 1734.18,-897.89"/>
</a>
</g>
</g>
<!-- PAKNYYWBTOTLCN -->
<g id="node25" class="node">
<title>PAKNYYWBTOTLCN</title>
<g id="a_node25"><a xlink:title="Economy-wide wage bill
FRML  &lt;&gt; PAKNYYWBTOTLCN = PAKNYWRTTOTLCN*PAKLMEMPTOTLCN $">
<polygon fill="#63b8ff" stroke="black" points="2567,-924.55 2282,-924.55 2282,-888.55 2567,-888.55 2567,-924.55"/>
<text text-anchor="start" x="2288.5" y="-902.35" font-family="Times New Roman,serif" font-size="14.00" fill="blue">PAKNYYWBTOTLCN:Economy-wide wage bill</text>
</a>
</g>
</g>
<!-- PAKLMEMPTOTLCN&#45;&gt;PAKNYYWBTOTLCN -->
<g id="edge29" class="edge">
<title>PAKLMEMPTOTLCN-&gt;PAKNYYWBTOTLCN</title>
<g id="a_edge29"><a xlink:href="bogus" xlink:title=" PAKLMEMPTOTLCN -&gt; PAKNYYWBTOTLCN Min. att. -6%  max: 84%">
<path fill="none" stroke="black" stroke-width="8" d="M2235.78,-870.98C2259.61,-875.5 2285.32,-880.37 2309.84,-885.02"/>
<polygon fill="black" stroke="black" stroke-width="8" points="2308.19,-891.83 2319.32,-886.81 2310.8,-878.07 2308.19,-891.83"/>
</a>
</g>
</g>
<!-- PAKNECONPRVTCN -->
<g id="node7" class="node">
<title>PAKNECONPRVTCN</title>
<g id="a_node7"><a xlink:title="Household demand
FRML  &lt;&gt; PAKNECONPRVTCN = PAKNECONPRVTKN*PAKNECONPRVTXN $">
<polygon fill="#63b8ff" stroke="black" points="1570,-392.55 1323,-392.55 1323,-356.55 1570,-356.55 1570,-392.55"/>
<text text-anchor="start" x="1329.5" y="-370.35" font-family="Times New Roman,serif" font-size="14.00" fill="blue">PAKNECONPRVTCN:Household demand</text>
</a>
</g>
</g>
<!-- PAKNECONPRVTXN -->
<g id="node15" class="node">
<title>PAKNECONPRVTXN</title>
<g id="a_node15"><a xlink:title="Household demand
FRML  &lt;&gt; PAKNECONPRVTXN = ((PAKNECONENGYSH**PAKCESENGYCON)*PAKNECONENGYXN**(1-PAKCESENGYCON)+(PAKNECONOTHRSH**PAKCESENGYCON)*PAKNECONOTHRXN**(1-PAKCESENGYCON))**(1/(1-PAKCESENGYCON)) $">
<polygon fill="#63b8ff" stroke="black" points="895,-242.55 647,-242.55 647,-206.55 895,-206.55 895,-242.55"/>
<text text-anchor="start" x="653" y="-220.35" font-family="Times New Roman,serif" font-size="14.00" fill="blue">PAKNECONPRVTXN:Household demand</text>
</a>
</g>
</g>
<!-- PAKNECONOTHRXN&#45;&gt;PAKNECONPRVTXN -->
<g id="edge28" class="edge">
<title>PAKNECONOTHRXN-&gt;PAKNECONPRVTXN</title>
<g id="a_edge28"><a xlink:href="bogus" xlink:title=" PAKNECONOTHRXN -&gt; PAKNECONPRVTXN Min. att. 71%  max: 99%">
<path fill="none" stroke="black" stroke-width="8" d="M611.22,-210.38C617.44,-210.93 623.68,-211.49 629.9,-212.05"/>
<polygon fill="black" stroke="black" stroke-width="8" points="629.25,-219.02 639.84,-212.93 630.5,-205.07 629.25,-219.02"/>
</a>
</g>
</g>
<!-- PAKNYWRTINFMCN -->
<g id="node9" class="node">
<title>PAKNYWRTINFMCN</title>
<g id="a_node9"><a xlink:title="Informal wage
FRML &lt;Z,EXO&gt; PAKNYWRTINFMCN = (PAKNYWRTINFMCN(-1)*EXP(-PAKNYWRTINFMCN_A+ (-0.122614247140616-0.3*(LOG(PAKNYWRTINFMCN(-1))-LOG(PAKNYGDPFCSTXN(-1))-LOG(PAKNYGDPPOTLKN(-1)/PAKLMEMPSTRLCN(-1)))+0.2*((LOG(PAKNYWRTINFMCN(-1)))-(LOG(PAKNYWRTINFMCN(-2))))+(1-0.2)*(0.5*((LOG(PAKNYGDPFCSTXN(-1)))-(LOG(PAKNYGDPFCSTXN(-2))))+0.5*(PAKINFLEXPT/100)+((LOG(PAKNYGDPMKTPKN/PAKLMEMPSTRLCN))-(LOG(PAKNYGDPMKTPKN(-1)/PAKLMEMPSTRLCN(-1)))))-0.2*(PAKLMUNRTOTLCN-PAKLMUNRSTRLCN)/100+0.15347529018182*DURING_2000-0.183372342445734*DURING_2001) )) * (1-PAKNYWRTINFMCN_D)+ PAKNYWRTINFMCN_X*PAKNYWRTINFMCN_D  $">
<polygon fill="#63b8ff" stroke="black" points="1559.5,-932.55 1333.5,-932.55 1333.5,-896.55 1559.5,-896.55 1559.5,-932.55"/>
<text text-anchor="start" x="1339.5" y="-910.35" font-family="Times New Roman,serif" font-size="14.00" fill="blue">PAKNYWRTINFMCN:Informal wage</text>
</a>
</g>
</g>
<!-- PAKNYWRTINFMCN&#45;&gt;PAKNYWRTTOTLCN -->
<g id="edge15" class="edge">
<title>PAKNYWRTINFMCN-&gt;PAKNYWRTTOTLCN</title>
<g id="a_edge15"><a xlink:href="bogus" xlink:title=" PAKNYWRTINFMCN -&gt; PAKNYWRTTOTLCN Min. att. 79%  max: 80%">
<path fill="none" stroke="black" stroke-width="7.95" d="M1559.78,-912.25C1613.59,-911.14 1677.71,-909.83 1730.78,-908.74"/>
<polygon fill="black" stroke="black" stroke-width="7.95" points="1730.78,-915.7 1740.63,-908.54 1730.49,-901.79 1730.78,-915.7"/>
</a>
</g>
</g>
<!-- PAKNEGDETTOTKN -->
<g id="node10" class="node">
<title>PAKNEGDETTOTKN</title>
<g id="a_node10"><a xlink:title="GDE
FRML  &lt;&gt; PAKNEGDETTOTKN = (PAKNECONPRVTKN+PAKNECONGOVTKN+PAKNEGDIFTOTKN+PAKNEGDISTKBKN+PAKNYGDPDISCKN) $">
<polygon fill="#63b8ff" stroke="black" points="1531.5,-338.55 1361.5,-338.55 1361.5,-302.55 1531.5,-302.55 1531.5,-338.55"/>
<text text-anchor="start" x="1367.5" y="-316.35" font-family="Times New Roman,serif" font-size="14.00" fill="blue">PAKNEGDETTOTKN:GDE</text>
</a>
</g>
</g>
<!-- PAKSMINDMNGSKN -->
<g id="node11" class="node">
<title>PAKSMINDMNGSKN</title>
<g id="a_node11"><a xlink:title="PAKSMINDMNGSKN
FRML  &lt;&gt; PAKSMINDMNGSKN = ((1+6.96158341862144)*(0.0132800565666619*PAKNECONPRVTKN+0*PAKNECONGOVTKN+0*PAKNEGDIFTOTKN+0.00704674623894759*PAKNEEXPGNFSKN+0.024122890632682*PAKNEGDISTKBKN)-0.134221966110302*PAKNEIMPGNFSKN-0.500981557895139*PAKNYTAXNINDKN-123652.869264758)/(1+0.200800622280983) $">
<polygon fill="#63b8ff" stroke="black" points="1519.5,-284.55 1373.5,-284.55 1373.5,-248.55 1519.5,-248.55 1519.5,-284.55"/>
<text text-anchor="start" x="1379.5" y="-262.35" font-family="Times New Roman,serif" font-size="14.00" fill="blue">PAKSMINDMNGSKN:</text>
</a>
</g>
</g>
<!-- PAKNECONOTHRKN -->
<g id="node12" class="node">
<title>PAKNECONOTHRKN</title>
<g id="a_node12"><a xlink:title="Other Consumption
FRML  &lt;&gt; PAKNECONOTHRKN = PAKNECONOTHRSH**(PAKCESENGYCON)*(PAKNECONPRVTKN*(PAKNECONPRVTXN/PAKNECONOTHRXN)**(PAKCESENGYCON)) $">
<polygon fill="#63b8ff" stroke="black" points="1573,-230.55 1320,-230.55 1320,-194.55 1573,-194.55 1573,-230.55"/>
<text text-anchor="start" x="1326.5" y="-208.35" font-family="Times New Roman,serif" font-size="14.00" fill="blue">PAKNECONOTHRKN:Other Consumption</text>
</a>
</g>
</g>
<!-- PAKNYGDPMKTPKN -->
<g id="node13" class="node">
<title>PAKNYGDPMKTPKN</title>
<g id="a_node13"><a xlink:title="GDP Expenditure side at market prices
FRML  &lt;&gt; PAKNYGDPMKTPKN = PAKNECONPRVTKN+PAKNECONGOVTKN+PAKNEGDIFTOTKN+PAKNEGDISTKBKN+PAKNEEXPGNFSKN-PAKNEIMPGNFSKN+PAKNYGDPDISCKN+PAKADAP*PAKDISPREPKN $">
<polygon fill="#63b8ff" stroke="black" points="1627,-716.55 1266,-716.55 1266,-680.55 1627,-680.55 1627,-716.55"/>
<text text-anchor="start" x="1272.5" y="-694.35" font-family="Times New Roman,serif" font-size="14.00" fill="blue">PAKNYGDPMKTPKN:GDP Expenditure side at market prices</text>
</a>
</g>
</g>
<!-- PAKNYGDPMKTPKN&#45;&gt;PAKNYGDPGAP_ -->
<g id="edge33" class="edge">
<title>PAKNYGDPMKTPKN-&gt;PAKNYGDPGAP_</title>
<g id="a_edge33"><a xlink:href="bogus" xlink:title=" PAKNYGDPMKTPKN -&gt; PAKNYGDPGAP_ Min. att. -78553%  max: 128142%">
<path fill="none" stroke="black" stroke-width="8" d="M1627.37,-712.85C1640.58,-713.9 1653.87,-714.96 1667.02,-716"/>
<polygon fill="black" stroke="black" stroke-width="8" points="1666.09,-722.95 1676.61,-716.76 1667.2,-708.99 1666.09,-722.95"/>
</a>
</g>
</g>
<!-- PAKSMAGRFSNGKN -->
<g id="node14" class="node">
<title>PAKSMAGRFSNGKN</title>
<g id="a_node14"><a xlink:title="PAKSMAGRFSNGKN
FRML  &lt;&gt; PAKSMAGRFSNGKN = ((1+1.92407325889309)*(0.00246195499563977*PAKNECONPRVTKN+0*PAKNECONGOVTKN+0*PAKNEGDIFTOTKN+0.00130433854799597*PAKNEEXPGNFSKN+0.00497657560072267*PAKNEGDISTKBKN)-1.14989260682794E-05*PAKNEIMPGNFSKN-2.46467171367829E-07*PAKNYTAXNINDKN-26993)/(1+0.506095544048804) $">
<polygon fill="#63b8ff" stroke="black" points="1519,-138.55 1374,-138.55 1374,-102.55 1519,-102.55 1519,-138.55"/>
<text text-anchor="start" x="1380.5" y="-116.35" font-family="Times New Roman,serif" font-size="14.00" fill="blue">PAKSMAGRFSNGKN:</text>
</a>
</g>
</g>
<!-- PAKNECONPRVTKN -->
<g id="node24" class="node">
<title>PAKNECONPRVTKN</title>
<g id="a_node24"><a xlink:title="Household Consumption
FRML &lt;Z,EXO&gt; PAKNECONPRVTKN = (PAKNECONPRVTKN(-1)*EXP(-PAKNECONPRVTKN_A+ (-0.2*(LOG(PAKNECONPRVTKN(-1))-LOG((PAKNYYWBTOTLCN(-1)*(1-PAKGGREVDRCTXN(-1)/100))/PAKNECONPRVTXN(-1)))+1*((LOG((PAKNYYWBTOTLCN*(1-PAKGGREVDRCTXN/100))/PAKNECONPRVTXN))-(LOG((PAKNYYWBTOTLCN(-1)*(1-PAKGGREVDRCTXN(-1)/100))/PAKNECONPRVTXN(-1))))+0.0303228629698929+0.0163839011059956*DURING_2010-0.3*(PAKFMLBLPOLYXN/100-((LOG(PAKNECONPRVTXN))-(LOG(PAKNECONPRVTXN(-1)))))) )) * (1-PAKNECONPRVTKN_D)+ PAKNECONPRVTKN_X*PAKNECONPRVTKN_D  $">
<polygon fill="red" stroke="black" points="1209,-473.55 931,-473.55 931,-437.55 1209,-437.55 1209,-473.55"/>
<text text-anchor="start" x="937" y="-451.35" font-family="Times New Roman,serif" font-size="14.00" fill="blue">PAKNECONPRVTKN:Household Consumption</text>
</a>
</g>
</g>
<!-- PAKNECONPRVTXN&#45;&gt;PAKNECONPRVTKN -->
<g id="edge24" class="edge">
<title>PAKNECONPRVTXN-&gt;PAKNECONPRVTKN</title>
<g id="a_edge24"><a xlink:href="bogus" xlink:title=" PAKNECONPRVTXN -&gt; PAKNECONPRVTKN Min. att. -5706%  max: 593%">
<path fill="none" stroke="black" stroke-width="8" d="M795.55,-242.87C847.1,-282.97 970.26,-378.75 1032.16,-426.9"/>
<polygon fill="black" stroke="black" stroke-width="8" points="1027.75,-432.33 1039.94,-432.95 1036.34,-421.28 1027.75,-432.33"/>
</a>
</g>
</g>
<!-- PAKNECONPRVTXN&#45;&gt;PAKFMLBLPOLYXN -->
<g id="edge3" class="edge">
<title>PAKNECONPRVTXN-&gt;PAKFMLBLPOLYXN</title>
<g id="a_edge3"><a xlink:href="bogus" xlink:title=" PAKNECONPRVTXN -&gt; PAKFMLBLPOLYXN Min. att. -94%  max: 1462%">
<path fill="none" stroke="black" stroke-width="8" d="M805.97,-206.11C881.92,-166.06 1072.35,-72.11 1245,-39.55 1552.26,18.4 1923.56,-91.72 2071.3,-142.66"/>
<polygon fill="black" stroke="black" stroke-width="8" points="2068.62,-149.14 2080.37,-145.83 2073.24,-135.92 2068.62,-149.14"/>
</a>
</g>
</g>
<!-- PAKSMSRVFINSKN -->
<g id="node16" class="node">
<title>PAKSMSRVFINSKN</title>
<g id="a_node16"><a xlink:title="PAKSMSRVFINSKN
FRML  &lt;&gt; PAKSMSRVFINSKN = ((1+1.04148314760779)*(0.0520379651885469*PAKNECONPRVTKN+0*PAKNECONGOVTKN+0*PAKNEGDIFTOTKN+0.00879145012359898*PAKNEEXPGNFSKN+0*PAKNEGDISTKBKN)-0.00594416979264236*PAKNEIMPGNFSKN-0.000103762679145856*PAKNYTAXNINDKN-0)/(1+0.24687745523084) $">
<polygon fill="#63b8ff" stroke="black" points="1515,-84.55 1378,-84.55 1378,-48.55 1515,-48.55 1515,-84.55"/>
<text text-anchor="start" x="1384.5" y="-62.35" font-family="Times New Roman,serif" font-size="14.00" fill="blue">PAKSMSRVFINSKN:</text>
</a>
</g>
</g>
<!-- PAKNECONENGYXN&#45;&gt;PAKNECONPRVTXN -->
<g id="edge12" class="edge">
<title>PAKNECONENGYXN-&gt;PAKNECONPRVTXN</title>
<g id="a_edge12"><a xlink:href="bogus" xlink:title=" PAKNECONENGYXN -&gt; PAKNECONPRVTXN Min. att. 1%  max: 29%">
<path fill="none" stroke="black" stroke-width="2.91" d="M597.98,-239.91C609.46,-238.88 621.11,-237.84 632.64,-236.81"/>
<polygon fill="black" stroke="black" stroke-width="2.91" points="632.61,-240.33 642.26,-235.95 631.99,-233.36 632.61,-240.33"/>
</a>
</g>
</g>
<!-- PAKNYGDPPOTLKN -->
<g id="node18" class="node">
<title>PAKNYGDPPOTLKN</title>
<g id="a_node18"><a xlink:title="Potential GDP
FRML  &lt;&gt; PAKNYGDPPOTLKN = PAKNYGDPTFP*(PAKLMEMPSTRLCN**PAKNYYWBTOTLCN_)*(PAKNEGDIKSTKKN(-1)**(1-PAKNYYWBTOTLCN_)) $">
<polygon fill="#63b8ff" stroke="black" points="1557,-824.55 1336,-824.55 1336,-788.55 1557,-788.55 1557,-824.55"/>
<text text-anchor="start" x="1342.5" y="-802.35" font-family="Times New Roman,serif" font-size="14.00" fill="blue">PAKNYGDPPOTLKN:Potential GDP</text>
</a>
</g>
</g>
<!-- PAKNYGDPPOTLKN&#45;&gt;PAKNYGDPGAP_ -->
<g id="edge1" class="edge">
<title>PAKNYGDPPOTLKN-&gt;PAKNYGDPGAP_</title>
<g id="a_edge1"><a xlink:href="bogus" xlink:title=" PAKNYGDPPOTLKN -&gt; PAKNYGDPGAP_ Min. att. -129220%  max: 79383%">
<path fill="none" stroke="black" stroke-width="8" d="M1557.43,-794.25C1586.96,-790.26 1618.8,-785.35 1648,-779.55 1685,-772.21 1725.49,-761.85 1759.51,-752.46"/>
<polygon fill="black" stroke="black" stroke-width="8" points="1761.18,-759.26 1768.93,-749.83 1757.41,-745.78 1761.18,-759.26"/>
</a>
</g>
</g>
<!-- PAKNYGDPPOTLKN&#45;&gt;PAKLMEMPTOTLCN -->
<g id="edge14" class="edge">
<title>PAKNYGDPPOTLKN-&gt;PAKLMEMPTOTLCN</title>
<g id="a_edge14"><a xlink:href="bogus" xlink:title=" PAKNYGDPPOTLKN -&gt; PAKLMEMPTOTLCN Min. att. -92%  max: 605%">
<path fill="none" stroke="black" stroke-width="8" d="M1557.3,-805.52C1667.71,-805.62 1842.66,-808.89 1993,-825.55 2006.17,-827.01 2019.94,-829 2033.51,-831.24"/>
<polygon fill="black" stroke="black" stroke-width="8" points="2032.01,-838.08 2043.06,-832.89 2034.4,-824.29 2032.01,-838.08"/>
</a>
</g>
</g>
<!-- PAKSMAGRFSTYKN -->
<g id="node19" class="node">
<title>PAKSMAGRFSTYKN</title>
<g id="a_node19"><a xlink:title="PAKSMAGRFSTYKN
FRML  &lt;&gt; PAKSMAGRFSTYKN = ((1+0.195965019358753)*(0.010131919293849*PAKNECONPRVTKN+0*PAKNECONGOVTKN+0*PAKNEGDIFTOTKN+0.000136733767007103*PAKNEEXPGNFSKN+0.0199955288980741*PAKNEGDISTKBKN)-0.00076829563200478*PAKNEIMPGNFSKN-0.00172030587371022*PAKNYTAXNINDKN-65421)/(1+0.319587584852584) $">
<polygon fill="#63b8ff" stroke="black" points="1518.5,-1078.55 1374.5,-1078.55 1374.5,-1042.55 1518.5,-1042.55 1518.5,-1078.55"/>
<text text-anchor="start" x="1380.5" y="-1056.35" font-family="Times New Roman,serif" font-size="14.00" fill="blue">PAKSMAGRFSTYKN:</text>
</a>
</g>
</g>
<!-- PAKNYGDPFCSTXN -->
<g id="node20" class="node">
<title>PAKNYGDPFCSTXN</title>
<g id="a_node20"><a xlink:title="GDP at factor cost
FRML &lt;Z,EXO&gt; PAKNYGDPFCSTXN = (PAKNYGDPFCSTXN(-1)*EXP(-PAKNYGDPFCSTXN_A+ (0.6*((LOG(PAKNYGDPFCSTXN(-1)))-(LOG(PAKNYGDPFCSTXN(-2))))+(1-0.6)*(0.7*PAKINFLEXPT/100+(1-0.7)*((LOG(PAKPSTAR(-1)))-(LOG(PAKPSTAR(-2)))))+0.25*PAKNYGDPGAP_/100+0.262461811660072*DURING_2000-0.205776950553378*DURING_2001) )) * (1-PAKNYGDPFCSTXN_D)+ PAKNYGDPFCSTXN_X*PAKNYGDPFCSTXN_D  $">
<polygon fill="#63b8ff" stroke="black" points="1959.5,-870.55 1717.5,-870.55 1717.5,-834.55 1959.5,-834.55 1959.5,-870.55"/>
<text text-anchor="start" x="1723.5" y="-848.35" font-family="Times New Roman,serif" font-size="14.00" fill="blue">PAKNYGDPFCSTXN:GDP at factor cost</text>
</a>
</g>
</g>
<!-- PAKNYGDPFCSTXN&#45;&gt;PAKLMEMPTOTLCN -->
<g id="edge10" class="edge">
<title>PAKNYGDPFCSTXN-&gt;PAKLMEMPTOTLCN</title>
<g id="a_edge10"><a xlink:href="bogus" xlink:title=" PAKNYGDPFCSTXN -&gt; PAKLMEMPTOTLCN Min. att. -128%  max: 59%">
<path fill="none" stroke="black" stroke-width="8" d="M1959.87,-852.55C1977.09,-852.55 1994.82,-852.55 2012.11,-852.55"/>
<polygon fill="black" stroke="black" stroke-width="8" points="2011.89,-859.55 2021.89,-852.55 2011.89,-845.55 2011.89,-859.55"/>
</a>
</g>
</g>
<!-- PAKNECONENGYKN -->
<g id="node21" class="node">
<title>PAKNECONENGYKN</title>
<g id="a_node21"><a xlink:title="Energy Consumption
FRML  &lt;&gt; PAKNECONENGYKN = PAKNECONENGYSH**(PAKCESENGYCON)*(PAKNECONPRVTKN*(PAKNECONPRVTXN/PAKNECONENGYXN)**(PAKCESENGYCON)) $">
<polygon fill="#63b8ff" stroke="black" points="1577.5,-1024.55 1315.5,-1024.55 1315.5,-988.55 1577.5,-988.55 1577.5,-1024.55"/>
<text text-anchor="start" x="1321.5" y="-1002.35" font-family="Times New Roman,serif" font-size="14.00" fill="blue">PAKNECONENGYKN:Energy Consumption</text>
</a>
</g>
</g>
<!-- PAKNECONPRVTKN_FITTED -->
<g id="node22" class="node">
<title>PAKNECONPRVTKN_FITTED</title>
<g id="a_node22"><a xlink:title="Fitted  value:Household Consumption
FRML &lt;FIT&gt; PAKNECONPRVTKN_FITTED = PAKNECONPRVTKN(-1)*EXP( (-0.2*(LOG(PAKNECONPRVTKN(-1))-LOG((PAKNYYWBTOTLCN(-1)*(1-PAKGGREVDRCTXN(-1)/100))/PAKNECONPRVTXN(-1)))+1*((LOG((PAKNYYWBTOTLCN*(1-PAKGGREVDRCTXN/100))/PAKNECONPRVTXN))-(LOG((PAKNYYWBTOTLCN(-1)*(1-PAKGGREVDRCTXN(-1)/100))/PAKNECONPRVTXN(-1))))+0.0303228629698929+0.0163839011059956*DURING_2010-0.3*(PAKFMLBLPOLYXN/100-((LOG(PAKNECONPRVTXN))-(LOG(PAKNECONPRVTXN(-1)))))) ) $">
<polygon fill="#63b8ff" stroke="black" points="1648,-770.55 1245,-770.55 1245,-734.55 1648,-734.55 1648,-770.55"/>
<text text-anchor="start" x="1251.5" y="-748.35" font-family="Times New Roman,serif" font-size="14.00" fill="blue">PAKNECONPRVTKN_FITTED:Fitted  value:Household Consumption</text>
</a>
</g>
</g>
<!-- PAKSMAGRCRPSKN -->
<g id="node23" class="node">
<title>PAKSMAGRCRPSKN</title>
<g id="a_node23"><a xlink:title="PAKSMAGRCRPSKN
FRML  &lt;&gt; PAKSMAGRCRPSKN = ((1+2.09928590574241)*(0.144287620838506*PAKNECONPRVTKN+0*PAKNECONGOVTKN+0*PAKNEGDIFTOTKN+0.0572678299039023*PAKNEEXPGNFSKN+0.267381669083985*PAKNEGDISTKBKN)-0.0736247088197363*PAKNEIMPGNFSKN-0.0407034395686347*PAKNYTAXNINDKN-906311)/(1+0.396041694659877) $">
<polygon fill="#63b8ff" stroke="black" points="1518.5,-662.55 1374.5,-662.55 1374.5,-626.55 1518.5,-626.55 1518.5,-662.55"/>
<text text-anchor="start" x="1380.5" y="-640.35" font-family="Times New Roman,serif" font-size="14.00" fill="blue">PAKSMAGRCRPSKN:</text>
</a>
</g>
</g>
<!-- PAKNECONPRVTKN&#45;&gt;PAKSMINDOTHRTKN -->
<g id="edge21" class="edge">
<title>PAKNECONPRVTKN-&gt;PAKSMINDOTHRTKN</title>
<g id="a_edge21"><a xlink:href="bogus" xlink:title=" PAKNECONPRVTKN -&gt; PAKSMINDOTHRTKN Min. att. -11779%  max: 971%">
<path fill="none" stroke="black" stroke-width="8" d="M1209.39,-445.57C1257.58,-442.1 1310.42,-438.29 1353.87,-435.16"/>
<polygon fill="black" stroke="black" stroke-width="8" points="1354.21,-442.15 1363.68,-434.45 1353.2,-428.19 1354.21,-442.15"/>
</a>
</g>
</g>
<!-- PAKNECONPRVTKN&#45;&gt;PAKNECONPRVTCN -->
<g id="edge9" class="edge">
<title>PAKNECONPRVTKN-&gt;PAKNECONPRVTCN</title>
<g id="a_edge9"><a xlink:href="bogus" xlink:title=" PAKNECONPRVTKN -&gt; PAKNECONPRVTCN Min. att. -720%  max: 6450%">
<path fill="none" stroke="black" stroke-width="8" d="M1122.55,-437.07C1156.86,-425.38 1203.15,-410.8 1245,-401.55 1264.59,-397.22 1285.42,-393.48 1305.96,-390.28"/>
<polygon fill="black" stroke="black" stroke-width="8" points="1306.97,-397.21 1315.83,-388.81 1304.9,-383.36 1306.97,-397.21"/>
</a>
</g>
</g>
<!-- PAKNECONPRVTKN&#45;&gt;PAKNEGDETTOTKN -->
<g id="edge11" class="edge">
<title>PAKNECONPRVTKN-&gt;PAKNEGDETTOTKN</title>
<g id="a_edge11"><a xlink:href="bogus" xlink:title=" PAKNECONPRVTKN -&gt; PAKNEGDETTOTKN Min. att. -2284%  max: 2484%">
<path fill="none" stroke="black" stroke-width="8" d="M1093.56,-437.12C1125.26,-412.3 1185.77,-368.82 1245,-347.55 1276.39,-336.28 1312.07,-329.66 1344.55,-325.78"/>
<polygon fill="black" stroke="black" stroke-width="8" points="1345.07,-332.77 1354.27,-324.74 1343.58,-318.85 1345.07,-332.77"/>
</a>
</g>
</g>
<!-- PAKNECONPRVTKN&#45;&gt;PAKSMINDMNGSKN -->
<g id="edge31" class="edge">
<title>PAKNECONPRVTKN-&gt;PAKSMINDMNGSKN</title>
<g id="a_edge31"><a xlink:href="bogus" xlink:title=" PAKNECONPRVTKN -&gt; PAKSMINDMNGSKN Min. att. -1229%  max: 1716%">
<path fill="none" stroke="black" stroke-width="8" d="M1084.34,-437.14C1110.66,-402.39 1172.99,-327.61 1245,-293.55 1279.4,-277.28 1320.59,-269.95 1356.67,-266.9"/>
<polygon fill="black" stroke="black" stroke-width="8" points="1356.92,-273.9 1366.42,-266.23 1355.96,-259.93 1356.92,-273.9"/>
</a>
</g>
</g>
<!-- PAKNECONPRVTKN&#45;&gt;PAKNECONOTHRKN -->
<g id="edge25" class="edge">
<title>PAKNECONPRVTKN-&gt;PAKNECONOTHRKN</title>
<g id="a_edge25"><a xlink:href="bogus" xlink:title=" PAKNECONPRVTKN -&gt; PAKNECONOTHRKN Min. att. -12063%  max: 323%">
<path fill="none" stroke="black" stroke-width="8" d="M1079.65,-437.15C1100.92,-394.19 1160.26,-287.31 1245,-239.55 1262.81,-229.52 1282.88,-222.65 1303.26,-218.02"/>
<polygon fill="black" stroke="black" stroke-width="8" points="1304.35,-224.94 1312.8,-216.14 1301.63,-211.21 1304.35,-224.94"/>
</a>
</g>
</g>
<!-- PAKNECONPRVTKN&#45;&gt;PAKNYGDPMKTPKN -->
<g id="edge23" class="edge">
<title>PAKNECONPRVTKN-&gt;PAKNYGDPMKTPKN</title>
<g id="a_edge23"><a xlink:href="bogus" xlink:title=" PAKNECONPRVTKN -&gt; PAKNYGDPMKTPKN Min. att. -1557%  max: 290%">
<path fill="none" stroke="black" stroke-width="8" d="M1079.65,-473.95C1100.92,-516.92 1160.26,-623.79 1245,-671.55 1246.75,-672.54 1248.52,-673.49 1250.31,-674.42"/>
<polygon fill="black" stroke="black" stroke-width="8" points="1247.22,-680.7 1259.23,-678.51 1253.06,-667.98 1247.22,-680.7"/>
</a>
</g>
</g>
<!-- PAKNECONPRVTKN&#45;&gt;PAKSMAGRFSNGKN -->
<g id="edge4" class="edge">
<title>PAKNECONPRVTKN-&gt;PAKSMAGRFSNGKN</title>
<g id="a_edge4"><a xlink:href="bogus" xlink:title=" PAKNECONPRVTKN -&gt; PAKSMAGRFSNGKN Min. att. -29%  max: 170%">
<path fill="none" stroke="black" stroke-width="8" d="M1075.58,-437.11C1089.99,-383.19 1139.89,-225.06 1245,-152.55 1277.33,-130.25 1319.51,-121.3 1356.83,-118.3"/>
<polygon fill="black" stroke="black" stroke-width="8" points="1357.05,-125.3 1366.62,-117.73 1356.23,-111.32 1357.05,-125.3"/>
</a>
</g>
</g>
<!-- PAKNECONPRVTKN&#45;&gt;PAKSMSRVFINSKN -->
<g id="edge26" class="edge">
<title>PAKNECONPRVTKN-&gt;PAKSMSRVFINSKN</title>
<g id="a_edge26"><a xlink:href="bogus" xlink:title=" PAKNECONPRVTKN -&gt; PAKSMSRVFINSKN Min. att. -104%  max: 125%">
<path fill="none" stroke="black" stroke-width="8" d="M1073.63,-437.45C1083.42,-377.11 1123.71,-181.67 1245,-93.55 1277.97,-69.6 1322.24,-61.81 1360.8,-60.46"/>
<polygon fill="black" stroke="black" stroke-width="8" points="1360.88,-67.46 1370.79,-60.34 1360.71,-53.46 1360.88,-67.46"/>
</a>
</g>
</g>
<!-- PAKNECONPRVTKN&#45;&gt;PAKSMAGRFSTYKN -->
<g id="edge2" class="edge">
<title>PAKNECONPRVTKN-&gt;PAKSMAGRFSTYKN</title>
<g id="a_edge2"><a xlink:href="bogus" xlink:title=" PAKNECONPRVTKN -&gt; PAKSMAGRFSTYKN Min. att. 96%  max: 371%">
<path fill="none" stroke="black" stroke-width="8" d="M1073.85,-474.04C1088.13,-564.21 1154.8,-956.63 1245,-1033.55 1275.61,-1059.66 1318.97,-1067.81 1357.54,-1068.84"/>
<polygon fill="black" stroke="black" stroke-width="8" points="1357.31,-1075.84 1367.32,-1068.86 1357.33,-1061.84 1357.31,-1075.84"/>
</a>
</g>
</g>
<!-- PAKNECONPRVTKN&#45;&gt;PAKNECONENGYKN -->
<g id="edge5" class="edge">
<title>PAKNECONPRVTKN-&gt;PAKNECONENGYKN</title>
<g id="a_edge5"><a xlink:href="bogus" xlink:title=" PAKNECONPRVTKN -&gt; PAKNECONENGYKN Min. att. -699%  max: 3890%">
<path fill="none" stroke="black" stroke-width="8" d="M1070.88,-473.88C1071.45,-549.34 1084.38,-838.5 1245,-974.55 1260.52,-987.7 1279.23,-996.55 1298.91,-1002.36"/>
<polygon fill="black" stroke="black" stroke-width="8" points="1297.06,-1009.11 1308.47,-1004.77 1300.49,-995.54 1297.06,-1009.11"/>
</a>
</g>
</g>
<!-- PAKNECONPRVTKN&#45;&gt;PAKNECONPRVTKN_FITTED -->
<g id="edge7" class="edge">
<title>PAKNECONPRVTKN-&gt;PAKNECONPRVTKN_FITTED</title>
<g id="a_edge7"><a xlink:href="bogus" xlink:title=" PAKNECONPRVTKN -&gt; PAKNECONPRVTKN_FITTED Min. att. -786%  max: 175%">
<path fill="none" stroke="black" stroke-width="8" d="M1076.73,-473.91C1093.42,-523.98 1147.1,-663.34 1245,-725.55 1245.31,-725.75 1245.63,-725.95 1245.95,-726.15"/>
<polygon fill="black" stroke="black" stroke-width="8" points="1242.46,-732.22 1254.6,-730.91 1249.21,-719.95 1242.46,-732.22"/>
</a>
</g>
</g>
<!-- PAKNECONPRVTKN&#45;&gt;PAKSMAGRCRPSKN -->
<g id="edge20" class="edge">
<title>PAKNECONPRVTKN-&gt;PAKSMAGRCRPSKN</title>
<g id="a_edge20"><a xlink:href="bogus" xlink:title=" PAKNECONPRVTKN -&gt; PAKSMAGRCRPSKN Min. att. -25%  max: 208%">
<path fill="none" stroke="black" stroke-width="8" d="M1084.34,-473.97C1110.66,-508.71 1172.99,-583.49 1245,-617.55 1279.67,-633.95 1321.25,-641.27 1357.53,-644.28"/>
<polygon fill="black" stroke="black" stroke-width="8" points="1356.92,-651.25 1367.36,-644.93 1357.85,-637.28 1356.92,-651.25"/>
</a>
</g>
</g>
<!-- PAKSMSRVTRNSKN -->
<g id="node26" class="node">
<title>PAKSMSRVTRNSKN</title>
<g id="a_node26"><a xlink:title="PAKSMSRVTRNSKN
FRML  &lt;&gt; PAKSMSRVTRNSKN = ((1+0.301074862860981)*(0.204687752761289*PAKNECONPRVTKN+0*PAKNECONGOVTKN+0*PAKNEGDIFTOTKN+0.0551862611209703*PAKNEEXPGNFSKN+0*PAKNEGDISTKBKN)--0.0392641863572605*PAKNEIMPGNFSKN-0.0174996684619017*PAKNYTAXNINDKN-0)/(1+1.11680986862739) $">
<polygon fill="#63b8ff" stroke="black" points="1517.5,-608.55 1375.5,-608.55 1375.5,-572.55 1517.5,-572.55 1517.5,-608.55"/>
<text text-anchor="start" x="1381.5" y="-586.35" font-family="Times New Roman,serif" font-size="14.00" fill="blue">PAKSMSRVTRNSKN:</text>
</a>
</g>
</g>
<!-- PAKNECONPRVTKN&#45;&gt;PAKSMSRVTRNSKN -->
<g id="edge16" class="edge">
<title>PAKNECONPRVTKN-&gt;PAKSMSRVTRNSKN</title>
<g id="a_edge16"><a xlink:href="bogus" xlink:title=" PAKNECONPRVTKN -&gt; PAKSMSRVTRNSKN Min. att. 87%  max: 592%">
<path fill="none" stroke="black" stroke-width="8" d="M1093.56,-473.98C1125.26,-498.8 1185.77,-542.29 1245,-563.55 1280.96,-576.46 1322.56,-583.27 1358.51,-586.84"/>
<polygon fill="black" stroke="black" stroke-width="8" points="1357.6,-593.79 1368.18,-587.69 1358.83,-579.84 1357.6,-593.79"/>
</a>
</g>
</g>
<!-- PAKSMENGTOTLKN -->
<g id="node29" class="node">
<title>PAKSMENGTOTLKN</title>
<g id="a_node29"><a xlink:title="PAKSMENGTOTLKN
FRML  &lt;&gt; PAKSMENGTOTLKN = ((1+1.65868473220397)*(0.0775261497897936*PAKNECONPRVTKN+0*PAKNECONGOVTKN+0*PAKNEGDIFTOTKN+0.0217448978257548*PAKNEEXPGNFSKN+0.0458991644104248*PAKNEGDISTKBKN)-0.11894699850705*PAKNEIMPGNFSKN--0.50579180838529*PAKNYTAXNINDKN-0)/(1+5.65663938581514) $">
<polygon fill="#63b8ff" stroke="black" points="1519,-554.55 1374,-554.55 1374,-518.55 1519,-518.55 1519,-554.55"/>
<text text-anchor="start" x="1380.5" y="-532.35" font-family="Times New Roman,serif" font-size="14.00" fill="blue">PAKSMENGTOTLKN:</text>
</a>
</g>
</g>
<!-- PAKNECONPRVTKN&#45;&gt;PAKSMENGTOTLKN -->
<g id="edge22" class="edge">
<title>PAKNECONPRVTKN-&gt;PAKSMENGTOTLKN</title>
<g id="a_edge22"><a xlink:href="bogus" xlink:title=" PAKNECONPRVTKN -&gt; PAKSMENGTOTLKN Min. att. -14%  max: 2186%">
<path fill="none" stroke="black" stroke-width="8" d="M1122.55,-474.04C1156.86,-485.72 1203.15,-500.31 1245,-509.55 1281.25,-517.56 1321.75,-523.56 1356.81,-527.84"/>
<polygon fill="black" stroke="black" stroke-width="8" points="1355.86,-534.78 1366.61,-528.99 1357.5,-520.87 1355.86,-534.78"/>
</a>
</g>
</g>
<!-- PAKSMSRVHSNGKN -->
<g id="node30" class="node">
<title>PAKSMSRVHSNGKN</title>
<g id="a_node30"><a xlink:title="PAKSMSRVHSNGKN
FRML  &lt;&gt; PAKSMSRVHSNGKN = ((1+0.782809577554843)*(0.0647364660896117*PAKNECONPRVTKN+0*PAKNECONGOVTKN+0.00605333595533851*PAKNEGDIFTOTKN+0.03048358523237*PAKNEEXPGNFSKN+0*PAKNEGDISTKBKN)-0.0244768173208691*PAKNEIMPGNFSKN-0.0684093628903126*PAKNYTAXNINDKN-0)/(1+0.150771193398883) $">
<polygon fill="#63b8ff" stroke="black" points="1519,-500.55 1374,-500.55 1374,-464.55 1519,-464.55 1519,-500.55"/>
<text text-anchor="start" x="1380.5" y="-478.35" font-family="Times New Roman,serif" font-size="14.00" fill="blue">PAKSMSRVHSNGKN:</text>
</a>
</g>
</g>
<!-- PAKNECONPRVTKN&#45;&gt;PAKSMSRVHSNGKN -->
<g id="edge17" class="edge">
<title>PAKNECONPRVTKN-&gt;PAKSMSRVHSNGKN</title>
<g id="a_edge17"><a xlink:href="bogus" xlink:title=" PAKNECONPRVTKN -&gt; PAKSMSRVHSNGKN Min. att. 34%  max: 147%">
<path fill="none" stroke="black" stroke-width="8" d="M1209.39,-465.53C1258.7,-469.08 1312.88,-472.99 1356.88,-476.16"/>
<polygon fill="black" stroke="black" stroke-width="8" points="1356.09,-483.12 1366.57,-476.86 1357.1,-469.16 1356.09,-483.12"/>
</a>
</g>
</g>
<!-- PAKNYYWBTOTLCN&#45;&gt;PAKNECONPRVTKN -->
<g id="edge30" class="edge">
<title>PAKNYYWBTOTLCN-&gt;PAKNECONPRVTKN</title>
<g id="a_edge30"><a xlink:href="bogus" xlink:title=" PAKNYYWBTOTLCN -&gt; PAKNECONPRVTKN Min. att. -594%  max: 5821%">
<path fill="none" stroke="black" stroke-width="8" d="M2281.63,-920.16C1986.69,-947.11 1327.79,-999.85 1245,-941.55 1093.5,-834.87 1073.22,-583.5 1071.02,-490.74"/>
<polygon fill="black" stroke="black" stroke-width="8" points="1078.02,-490.8 1070.88,-480.9 1064.02,-491 1078.02,-490.8"/>
</a>
</g>
</g>
<!-- PAKNYWRTTOTLCN&#45;&gt;PAKLMEMPTOTLCN -->
<g id="edge13" class="edge">
<title>PAKNYWRTTOTLCN-&gt;PAKLMEMPTOTLCN</title>
<g id="a_edge13"><a xlink:href="bogus" xlink:title=" PAKNYWRTTOTLCN -&gt; PAKLMEMPTOTLCN Min. att. -1554%  max: 236%">
<path fill="none" stroke="black" stroke-width="8" d="M1929.22,-890.95C1950.16,-887.26 1972.37,-883.31 1993,-879.55 2002.7,-877.79 2012.77,-875.93 2022.87,-874.06"/>
<polygon fill="black" stroke="black" stroke-width="8" points="2023.86,-881 2032.41,-872.28 2021.3,-867.23 2023.86,-881"/>
</a>
</g>
</g>
<!-- PAKNYWRTTOTLCN&#45;&gt;PAKNYYWBTOTLCN -->
<g id="edge27" class="edge">
<title>PAKNYWRTTOTLCN-&gt;PAKNYYWBTOTLCN</title>
<g id="a_edge27"><a xlink:href="bogus" xlink:title=" PAKNYWRTTOTLCN -&gt; PAKNYYWBTOTLCN Min. att. 16%  max: 106%">
<path fill="none" stroke="black" stroke-width="8" d="M1929.47,-906.55C2018.7,-906.55 2157.3,-906.55 2265.01,-906.55"/>
<polygon fill="black" stroke="black" stroke-width="8" points="2264.7,-913.55 2274.7,-906.55 2264.7,-899.55 2264.7,-913.55"/>
</a>
</g>
</g>
<!-- PAKFMLBLPOLYXN&#45;&gt;PAKNECONPRVTKN -->
<g id="edge6" class="edge">
<title>PAKFMLBLPOLYXN-&gt;PAKNECONPRVTKN</title>
<g id="a_edge6"><a xlink:href="bogus" xlink:title=" PAKFMLBLPOLYXN -&gt; PAKNECONPRVTKN Min. att. -160%  max: 20%">
<path fill="none" stroke="black" stroke-width="8" d="M2034.83,-163.4C1815.53,-157.37 1312.35,-147.89 1245,-185.55 1152.41,-237.32 1101.35,-361.23 1081.22,-421.49"/>
<polygon fill="black" stroke="black" stroke-width="8" points="1074.65,-419.04 1078.28,-430.7 1087.99,-423.3 1074.65,-419.04"/>
</a>
</g>
</g>
</g>
</svg>