<svg xmlns="http://www.w3.org/2000/svg" xmlns:xlink="http://www.w3.org/1999/xlink" width="432pt" height="263pt" viewBox="0.00 0.00 432.00 263.24">
<g id="graph0" class="graph" transform="scale(0.342314 0.342314) rotate(0) translate(4 765)">
<title>TD</title>
<polygon fill="white" stroke="none" points="-4,4 -4,-765 1258,-765 1258,4 -4,4"/>
<text text-anchor="middle" x="627" y="-7.8" font-family="Times New Roman,serif" font-size="14.00">PAKNYGDPMKTPKN</text>
<!-- PAKNYWRTINFMCN -->
<g id="node1" class="node">
<title>PAKNYWRTINFMCN</title>
<g id="a_node1"><a xlink:title="Informal wage
FRML &lt;Z,EXO&gt; PAKNYWRTINFMCN = (PAKNYWRTINFMCN(-1)*EXP(-PAKNYWRTINFMCN_A+ (-0.122614247140616-0.3*(LOG(PAKNYWRTINFMCN(-1))-LOG(PAKNYGDPFCSTXN(-1))-LOG(PAKNYGDPPOTLKN(-1)/PAKLMEMPSTRLCN(-1)))+0.2*((LOG(PAKNYWRTINFMCN(-1)))-(LOG(PAKNYWRTINFMCN(-2))))+(1-0.2)*(0.5*((LOG(PAKNYGDPFCSTXN(-1)))-(LOG(PAKNYGDPFCSTXN(-2))))+0.5*(PAKINFLEXPT/100)+((LOG(PAKNYGDPMKTPKN/PAKLMEMPSTRLCN))-(LOG(PAKNYGDPMKTPKN(-1)/PAKLMEMPSTRLCN(-1)))))-0.2*(PAKLMUNRTOTLCN-PAKLMUNRSTRLCN)/100+0.15347529018182*DURING_2000-0.183372342445734*DURING_2001) )) * (1-PAKNYWRTINFMCN_D)+ PAKNYWRTINFMCN_X*PAKNYWRTINFMCN_D  $">
<polygon fill="#63b8ff" stroke="black" points="1163.5,-761 937.5,-761 937.5,-725 1163.5,-725 1163.5,-761"/>
<text text-anchor="start" x="943.5" y="-738.8" font-family="Times New Roman,serif" font-size="14.00" fill="blue">PAKNYWRTINFMCN:Informal wage</text>
</a>
</g>
</g>
<!-- PAKNECONPRVTKN -->
<g id="node2" class="node">
<title>PAKNECONPRVTKN</title>
<g id="a_node2"><a xlink:title="Household Consumption
FRML &lt;Z,EXO&gt; PAKNECONPRVTKN = (PAKNECONPRVTKN(-1)*EXP(-PAKNECONPRVTKN_A+ (-0.2*(LOG(PAKNECONPRVTKN(-1))-LOG((PAKNYYWBTOTLCN(-1)*(1-PAKGGREVDRCTXN(-1)/100))/PAKNECONPRVTXN(-1)))+1*((LOG((PAKNYYWBTOTLCN*(1-PAKGGREVDRCTXN/100))/PAKNECONPRVTXN))-(LOG((PAKNYYWBTOTLCN(-1)*(1-PAKGGREVDRCTXN(-1)/100))/PAKNECONPRVTXN(-1))))+0.0303228629698929+0.0163839011059956*DURING_2010-0.3*(PAKFMLBLPOLYXN/100-((LOG(PAKNECONPRVTXN))-(LOG(PAKNECONPRVTXN(-1)))))) )) * (1-PAKNECONPRVTKN_D)+ PAKNECONPRVTKN_X*PAKNECONPRVTKN_D  $">
<polygon fill="#63b8ff" stroke="black" points="346,-626 68,-626 68,-590 346,-590 346,-626"/>
<text text-anchor="start" x="74" y="-603.8" font-family="Times New Roman,serif" font-size="14.00" fill="blue">PAKNECONPRVTKN:Household Consumption</text>
</a>
</g>
</g>
<!-- PAKNYGDPMKTPKN -->
<g id="node10" class="node">
<title>PAKNYGDPMKTPKN</title>
<g id="a_node10"><a xlink:title="GDP Expenditure side at market prices
FRML  &lt;&gt; PAKNYGDPMKTPKN = PAKNECONPRVTKN+PAKNECONGOVTKN+PAKNEGDIFTOTKN+PAKNEGDISTKBKN+PAKNEEXPGNFSKN-PAKNEIMPGNFSKN+PAKNYGDPDISCKN+PAKADAP*PAKDISPREPKN $">
<polygon fill="red" stroke="black" points="811,-410 450,-410 450,-374 811,-374 811,-410"/>
<text text-anchor="start" x="456.5" y="-387.8" font-family="Times New Roman,serif" font-size="14.00" fill="blue">PAKNYGDPMKTPKN:GDP Expenditure side at market prices</text>
</a>
</g>
</g>
<!-- PAKNECONPRVTKN&#45;&gt;PAKNYGDPMKTPKN -->
<g id="edge10" class="edge">
<title>PAKNECONPRVTKN-&gt;PAKNYGDPMKTPKN</title>
<g id="a_edge10"><a xlink:href="bogus" xlink:title=" PAKNECONPRVTKN -&gt; PAKNYGDPMKTPKN Min. att. -1557%  max: 290%">
<path fill="none" stroke="black" stroke-width="8" d="M346.33,-601.29C369.58,-596.97 392.97,-590.52 414,-581 494.99,-544.33 567.9,-466.79 604.56,-423.28"/>
<polygon fill="black" stroke="black" stroke-width="8" points="609.74,-428 610.71,-415.83 598.95,-419.09 609.74,-428"/>
</a>
</g>
</g>
<!-- PAKNEIMPGNFSKN -->
<g id="node3" class="node">
<title>PAKNEIMPGNFSKN</title>
<g id="a_node3"><a xlink:title="Imports (G&amp;S)
FRML &lt;Z,EXO&gt; PAKNEIMPGNFSKN = (PAKNEIMPGNFSKN(-1)*EXP(-PAKNEIMPGNFSKN_A+ (-0.324143718656754*(LOG(PAKNEIMPGNFSKN(-1))-LOG(PAKNEGDETTOTKN(-1))+0.8*LOG(PAKNEIMPGNFSXN(-1)/PAKNYGDPFCSTXN(-1)))-0.583459272245018+1*((LOG(PAKNEGDETTOTKN))-(LOG(PAKNEGDETTOTKN(-1))))-0.0921874580409631*((LOG(PAKNEIMPGNFSXN/PAKNYGDPFCSTXN))-(LOG(PAKNEIMPGNFSXN(-1)/PAKNYGDPFCSTXN(-1))))-0.0361746331863615*DURING_2012) )) * (1-PAKNEIMPGNFSKN_D)+ PAKNEIMPGNFSKN_X*PAKNEIMPGNFSKN_D  $">
<polygon fill="#63b8ff" stroke="black" points="318.5,-572 95.5,-572 95.5,-536 318.5,-536 318.5,-572"/>
<text text-anchor="start" x="102" y="-549.8" font-family="Times New Roman,serif" font-size="14.00" fill="blue">PAKNEIMPGNFSKN:Imports (G&amp;S)</text>
</a>
</g>
</g>
<!-- PAKNEIMPGNFSKN&#45;&gt;PAKNYGDPMKTPKN -->
<g id="edge1" class="edge">
<title>PAKNEIMPGNFSKN-&gt;PAKNYGDPMKTPKN</title>
<g id="a_edge1"><a xlink:href="bogus" xlink:title=" PAKNEIMPGNFSKN -&gt; PAKNYGDPMKTPKN Min. att. -46%  max: 456%">
<path fill="none" stroke="black" stroke-width="8" d="M318.85,-548.28C350.26,-544.32 384.04,-537.76 414,-527 483.31,-502.09 553.81,-452.32 594.51,-420.66"/>
<polygon fill="black" stroke="black" stroke-width="8" points="598.64,-426.31 602.14,-414.62 589.95,-415.34 598.64,-426.31"/>
</a>
</g>
</g>
<!-- PAKDISPREPKN -->
<g id="node4" class="node">
<title>PAKDISPREPKN</title>
<g id="a_node4"><a xlink:title="Investment in disaster risk preparation, constant prices
FRML  &lt;&gt; PAKDISPREPKN = PAKDISPREPCN/PAKNYGDPMKTPXN $">
<polygon fill="#63b8ff" stroke="black" points="414,-518 0,-518 0,-482 414,-482 414,-518"/>
<text text-anchor="start" x="6" y="-495.8" font-family="Times New Roman,serif" font-size="14.00" fill="blue">PAKDISPREPKN:Investment in disaster risk preparation, constant prices</text>
</a>
</g>
</g>
<!-- PAKDISPREPKN&#45;&gt;PAKNYGDPMKTPKN -->
<g id="edge5" class="edge">
<title>PAKDISPREPKN-&gt;PAKNYGDPMKTPKN</title>
<g id="a_edge5"><a xlink:href="bogus" xlink:title=" PAKDISPREPKN -&gt; PAKNYGDPMKTPKN Min. att. -0%  max: 0%">
<path fill="none" stroke="black" d="M374.46,-481.53C387.91,-479.02 401.23,-476.19 414,-473 471.91,-458.53 535.59,-433.37 578.61,-414.93"/>
<polygon fill="black" stroke="black" points="579.9,-418.18 587.69,-410.99 577.12,-411.75 579.9,-418.18"/>
</a>
</g>
</g>
<!-- PAKNYWRTFORMCN_FITTED -->
<g id="node5" class="node">
<title>PAKNYWRTFORMCN_FITTED</title>
<g id="a_node5"><a xlink:title="Fitted  value:Formal wage
FRML &lt;FIT&gt; PAKNYWRTFORMCN_FITTED = PAKNYWRTFORMCN(-1)*EXP( (-0.120164450250183-0.3*(LOG(PAKNYWRTFORMCN(-1))-LOG(PAKNYGDPFCSTXN(-1))-LOG(PAKNYGDPPOTLKN(-1)/PAKLMEMPSTRLCN(-1)))+0.2*((LOG(PAKNYWRTFORMCN(-1)))-(LOG(PAKNYWRTFORMCN(-2))))+(1-0.2)*(0.5*((LOG(PAKNYGDPFCSTXN(-1)))-(LOG(PAKNYGDPFCSTXN(-2))))+0.5*(PAKINFLEXPT/100)+((LOG(PAKNYGDPMKTPKN/PAKLMEMPSTRLCN))-(LOG(PAKNYGDPMKTPKN(-1)/PAKLMEMPSTRLCN(-1)))))-0.2*(PAKLMUNRTOTLCN-PAKLMUNRSTRLCN)/100+0.15233813938029*DURING_2000-0.183411483907703*DURING_2001) ) $">
<polygon fill="#63b8ff" stroke="black" points="1224,-707 877,-707 877,-671 1224,-671 1224,-707"/>
<text text-anchor="start" x="883.5" y="-684.8" font-family="Times New Roman,serif" font-size="14.00" fill="blue">PAKNYWRTFORMCN_FITTED:Fitted  value:Formal wage</text>
</a>
</g>
</g>
<!-- PAKNEEXPGNFSKN -->
<g id="node6" class="node">
<title>PAKNEEXPGNFSKN</title>
<g id="a_node6"><a xlink:title="Exports (G&amp;S)
FRML &lt;Z,EXO&gt; PAKNEEXPGNFSKN = (PAKNEEXPGNFSKN(-1)*EXP(-PAKNEEXPGNFSKN_A+ (-0.35*(LOG(PAKNEEXPGNFSKN(-1))-LOG(PAKXMKT(-1))-0.6*LOG(PAKNEEXPGNFSXN(-1)/(PAKNYGDPFCSTXN(-1))))+1*((LOG(PAKXMKT))-(LOG(PAKXMKT(-1))))+0.3*((LOG(PAKNEEXPGNFSXN/(PAKNYGDPFCSTXN)))-(LOG(PAKNEEXPGNFSXN(-1)/(PAKNYGDPFCSTXN(-1)))))+4.38465374402991-0.237469889780178*DURING_1999-0.230689812873392*DURING_1998+0.320967524344658*DURING_1991+0.250252413901575*DURING_1986) )) * (1-PAKNEEXPGNFSKN_D)+ PAKNEEXPGNFSKN_X*PAKNEEXPGNFSKN_D  $">
<polygon fill="#63b8ff" stroke="black" points="318.5,-464 95.5,-464 95.5,-428 318.5,-428 318.5,-464"/>
<text text-anchor="start" x="102" y="-441.8" font-family="Times New Roman,serif" font-size="14.00" fill="blue">PAKNEEXPGNFSKN:Exports (G&amp;S)</text>
</a>
</g>
</g>
<!-- PAKNEEXPGNFSKN&#45;&gt;PAKNYGDPMKTPKN -->
<g id="edge12" class="edge">
<title>PAKNEEXPGNFSKN-&gt;PAKNYGDPMKTPKN</title>
<g id="a_edge12"><a xlink:href="bogus" xlink:title=" PAKNEEXPGNFSKN -&gt; PAKNYGDPMKTPKN Min. att. -10%  max: 0%">
<path fill="none" stroke="black" d="M318.74,-431.81C366.24,-425.73 422.55,-418.51 474.11,-411.91"/>
<polygon fill="black" stroke="black" points="474.4,-415.4 483.87,-410.66 473.51,-408.46 474.4,-415.4"/>
</a>
</g>
</g>
<!-- PAKNEGDISTKBKN -->
<g id="node7" class="node">
<title>PAKNEGDISTKBKN</title>
<g id="a_node7"><a xlink:title="Change in Inventories
Exogen">
<polygon fill="yellow" stroke="black" points="336.5,-410 77.5,-410 77.5,-374 336.5,-374 336.5,-410"/>
<text text-anchor="start" x="84" y="-387.8" font-family="Times New Roman,serif" font-size="14.00" fill="blue">PAKNEGDISTKBKN:Change in Inventories</text>
</a>
</g>
</g>
<!-- PAKNEGDISTKBKN&#45;&gt;PAKNYGDPMKTPKN -->
<g id="edge16" class="edge">
<title>PAKNEGDISTKBKN-&gt;PAKNYGDPMKTPKN</title>
<g id="a_edge16"><a xlink:href="bogus" xlink:title=" PAKNEGDISTKBKN -&gt; PAKNYGDPMKTPKN Min. att. -0%  max: 0%">
<path fill="none" stroke="black" d="M336.75,-392C368.87,-392 403.99,-392 438.41,-392"/>
<polygon fill="black" stroke="black" points="438.04,-395.5 448.04,-392 438.04,-388.5 438.04,-395.5"/>
</a>
</g>
</g>
<!-- PAKNYGDPGAP_ -->
<g id="node8" class="node">
<title>PAKNYGDPGAP_</title>
<g id="a_node8"><a xlink:title="Output Gap (% of Potential GDP)
FRML  &lt;&gt; PAKNYGDPGAP_ = ((PAKNYGDPMKTPKN/PAKNYGDPPOTLKN-1)*100) $">
<polygon fill="#63b8ff" stroke="black" points="1205,-653 896,-653 896,-617 1205,-617 1205,-653"/>
<text text-anchor="start" x="902.5" y="-630.8" font-family="Times New Roman,serif" font-size="14.00" fill="blue">PAKNYGDPGAP_:Output Gap (% of Potential GDP)</text>
</a>
</g>
</g>
<!-- PAKNECONGOVTKN -->
<g id="node9" class="node">
<title>PAKNECONGOVTKN</title>
<g id="a_node9"><a xlink:title="Government Consumption
FRML  &lt;&gt; PAKNECONGOVTKN = PAKNECONGOVTCN/PAKNECONGOVTXN $">
<polygon fill="#63b8ff" stroke="black" points="353,-356 61,-356 61,-320 353,-320 353,-356"/>
<text text-anchor="start" x="67" y="-333.8" font-family="Times New Roman,serif" font-size="14.00" fill="blue">PAKNECONGOVTKN:Government Consumption</text>
</a>
</g>
</g>
<!-- PAKNECONGOVTKN&#45;&gt;PAKNYGDPMKTPKN -->
<g id="edge8" class="edge">
<title>PAKNECONGOVTKN-&gt;PAKNYGDPMKTPKN</title>
<g id="a_edge8"><a xlink:href="bogus" xlink:title=" PAKNECONGOVTKN -&gt; PAKNYGDPMKTPKN Min. att. -108%  max: 835%">
<path fill="none" stroke="black" stroke-width="8" d="M352.17,-356.47C389.66,-361.27 430.27,-366.48 468.56,-371.38"/>
<polygon fill="black" stroke="black" stroke-width="8" points="467.66,-378.32 478.47,-372.65 469.44,-364.44 467.66,-378.32"/>
</a>
</g>
</g>
<!-- PAKNYGDPMKTPKN&#45;&gt;PAKNYWRTINFMCN -->
<g id="edge7" class="edge">
<title>PAKNYGDPMKTPKN-&gt;PAKNYWRTINFMCN</title>
<g id="a_edge7"><a xlink:href="bogus" xlink:title=" PAKNYGDPMKTPKN -&gt; PAKNYWRTINFMCN Min. att. -3148%  max: 101%">
<path fill="none" stroke="black" stroke-width="8" d="M637.5,-410.3C657.13,-466.91 725.23,-639.96 847,-716 868.94,-729.7 894.82,-737.79 920.61,-742.35"/>
<polygon fill="black" stroke="black" stroke-width="8" points="919.24,-749.22 930.16,-743.77 921.31,-735.37 919.24,-749.22"/>
</a>
</g>
</g>
<!-- PAKNYGDPMKTPKN&#45;&gt;PAKNYWRTFORMCN_FITTED -->
<g id="edge14" class="edge">
<title>PAKNYGDPMKTPKN-&gt;PAKNYWRTFORMCN_FITTED</title>
<g id="a_edge14"><a xlink:href="bogus" xlink:title=" PAKNYGDPMKTPKN -&gt; PAKNYWRTFORMCN_FITTED Min. att. -3148%  max: 101%">
<path fill="none" stroke="black" stroke-width="8" d="M639.94,-410.44C664.02,-460.72 738.42,-600.57 847,-662 851.52,-664.56 856.19,-666.91 860.97,-669.08"/>
<polygon fill="black" stroke="black" stroke-width="8" points="858.24,-675.52 870.13,-672.76 863.46,-662.54 858.24,-675.52"/>
</a>
</g>
</g>
<!-- PAKNYGDPMKTPKN&#45;&gt;PAKNYGDPGAP_ -->
<g id="edge9" class="edge">
<title>PAKNYGDPMKTPKN-&gt;PAKNYGDPGAP_</title>
<g id="a_edge9"><a xlink:href="bogus" xlink:title=" PAKNYGDPMKTPKN -&gt; PAKNYGDPGAP_ Min. att. -78553%  max: 128142%">
<path fill="none" stroke="black" stroke-width="8" d="M643.42,-410.44C672.37,-453.49 751.1,-560.54 847,-608 857.32,-613.11 868.27,-617.35 879.54,-620.87"/>
<polygon fill="black" stroke="black" stroke-width="8" points="877.41,-627.54 888.92,-623.5 881.18,-614.06 877.41,-627.54"/>
</a>
</g>
</g>
<!-- PAKNYWRTINFMCN_FITTED -->
<g id="node12" class="node">
<title>PAKNYWRTINFMCN_FITTED</title>
<g id="a_node12"><a xlink:title="Fitted  value:Informal wage
FRML &lt;FIT&gt; PAKNYWRTINFMCN_FITTED = PAKNYWRTINFMCN(-1)*EXP( (-0.122614247140616-0.3*(LOG(PAKNYWRTINFMCN(-1))-LOG(PAKNYGDPFCSTXN(-1))-LOG(PAKNYGDPPOTLKN(-1)/PAKLMEMPSTRLCN(-1)))+0.2*((LOG(PAKNYWRTINFMCN(-1)))-(LOG(PAKNYWRTINFMCN(-2))))+(1-0.2)*(0.5*((LOG(PAKNYGDPFCSTXN(-1)))-(LOG(PAKNYGDPFCSTXN(-2))))+0.5*(PAKINFLEXPT/100)+((LOG(PAKNYGDPMKTPKN/PAKLMEMPSTRLCN))-(LOG(PAKNYGDPMKTPKN(-1)/PAKLMEMPSTRLCN(-1)))))-0.2*(PAKLMUNRTOTLCN-PAKLMUNRSTRLCN)/100+0.15347529018182*DURING_2000-0.183372342445734*DURING_2001) ) $">
<polygon fill="#63b8ff" stroke="black" points="1226,-599 875,-599 875,-563 1226,-563 1226,-599"/>
<text text-anchor="start" x="881.5" y="-576.8" font-family="Times New Roman,serif" font-size="14.00" fill="blue">PAKNYWRTINFMCN_FITTED:Fitted  value:Informal wage</text>
</a>
</g>
</g>
<!-- PAKNYGDPMKTPKN&#45;&gt;PAKNYWRTINFMCN_FITTED -->
<g id="edge19" class="edge">
<title>PAKNYGDPMKTPKN-&gt;PAKNYWRTINFMCN_FITTED</title>
<g id="a_edge19"><a xlink:href="bogus" xlink:title=" PAKNYGDPMKTPKN -&gt; PAKNYWRTINFMCN_FITTED Min. att. -3148%  max: 101%">
<path fill="none" stroke="black" stroke-width="8" d="M649.04,-410.39C683.37,-445.08 763.4,-519.77 847,-554 850.74,-555.53 854.55,-556.98 858.41,-558.35"/>
<polygon fill="black" stroke="black" stroke-width="8" points="856.25,-565.01 867.92,-561.41 860.54,-551.68 856.25,-565.01"/>
</a>
</g>
</g>
<!-- PAKFMLBLMTWOKN_FITTED -->
<g id="node14" class="node">
<title>PAKFMLBLMTWOKN_FITTED</title>
<g id="a_node14"><a xlink:title="Fitted  value:Real money supply
FRML &lt;FIT&gt; PAKFMLBLMTWOKN_FITTED = PAKFMLBLMTWOKN(-1)*EXP( (-0.2*(LOG(PAKFMLBLMTWOKN(-1))-LOG(PAKNYGDPMKTPKN(-1))+0.1*PAKFMLBLPOLYXN(-1)/100-LOG(PAKVELOCITY(-1)))-0.32628131688075+0.7*((LOG(PAKNYGDPMKTPKN))-(LOG(PAKNYGDPMKTPKN(-1))))-1*((PAKFMLBLPOLYXN/100)-(PAKFMLBLPOLYXN(-1)/100))-((LOG(PAKVELOCITY))-(LOG(PAKVELOCITY(-1))))) ) $">
<polygon fill="#63b8ff" stroke="black" points="1242,-545 859,-545 859,-509 1242,-509 1242,-545"/>
<text text-anchor="start" x="865.5" y="-522.8" font-family="Times New Roman,serif" font-size="14.00" fill="blue">PAKFMLBLMTWOKN_FITTED:Fitted  value:Real money supply</text>
</a>
</g>
</g>
<!-- PAKNYGDPMKTPKN&#45;&gt;PAKFMLBLMTWOKN_FITTED -->
<g id="edge20" class="edge">
<title>PAKNYGDPMKTPKN-&gt;PAKFMLBLMTWOKN_FITTED</title>
<g id="a_edge20"><a xlink:href="bogus" xlink:title=" PAKNYGDPMKTPKN -&gt; PAKFMLBLMTWOKN_FITTED Min. att. -360%  max: 149%">
<path fill="none" stroke="black" stroke-width="8" d="M660.52,-410.49C700.72,-435.17 776.4,-478.27 847,-500 852.21,-501.6 857.53,-503.11 862.92,-504.53"/>
<polygon fill="black" stroke="black" stroke-width="8" points="861.12,-511.3 872.5,-506.87 864.44,-497.7 861.12,-511.3"/>
</a>
</g>
</g>
<!-- PAKNYWRTFORMCN -->
<g id="node16" class="node">
<title>PAKNYWRTFORMCN</title>
<g id="a_node16"><a xlink:title="Formal wage
FRML &lt;Z,EXO&gt; PAKNYWRTFORMCN = (PAKNYWRTFORMCN(-1)*EXP(-PAKNYWRTFORMCN_A+ (-0.120164450250183-0.3*(LOG(PAKNYWRTFORMCN(-1))-LOG(PAKNYGDPFCSTXN(-1))-LOG(PAKNYGDPPOTLKN(-1)/PAKLMEMPSTRLCN(-1)))+0.2*((LOG(PAKNYWRTFORMCN(-1)))-(LOG(PAKNYWRTFORMCN(-2))))+(1-0.2)*(0.5*((LOG(PAKNYGDPFCSTXN(-1)))-(LOG(PAKNYGDPFCSTXN(-2))))+0.5*(PAKINFLEXPT/100)+((LOG(PAKNYGDPMKTPKN/PAKLMEMPSTRLCN))-(LOG(PAKNYGDPMKTPKN(-1)/PAKLMEMPSTRLCN(-1)))))-0.2*(PAKLMUNRTOTLCN-PAKLMUNRSTRLCN)/100+0.15233813938029*DURING_2000-0.183411483907703*DURING_2001) )) * (1-PAKNYWRTFORMCN_D)+ PAKNYWRTFORMCN_X*PAKNYWRTFORMCN_D  $">
<polygon fill="#63b8ff" stroke="black" points="1161.5,-491 939.5,-491 939.5,-455 1161.5,-455 1161.5,-491"/>
<text text-anchor="start" x="945.5" y="-468.8" font-family="Times New Roman,serif" font-size="14.00" fill="blue">PAKNYWRTFORMCN:Formal wage</text>
</a>
</g>
</g>
<!-- PAKNYGDPMKTPKN&#45;&gt;PAKNYWRTFORMCN -->
<g id="edge2" class="edge">
<title>PAKNYGDPMKTPKN-&gt;PAKNYWRTFORMCN</title>
<g id="a_edge2"><a xlink:href="bogus" xlink:title=" PAKNYGDPMKTPKN -&gt; PAKNYWRTFORMCN Min. att. -3148%  max: 101%">
<path fill="none" stroke="black" stroke-width="8" d="M697.09,-410.49C739.57,-421.95 796.24,-436.29 847,-446 871.25,-450.64 897.27,-454.75 922.33,-458.28"/>
<polygon fill="black" stroke="black" stroke-width="8" points="921.28,-465.2 932.14,-459.62 923.18,-451.33 921.28,-465.2"/>
</a>
</g>
</g>
<!-- PAKHURDAMKN -->
<g id="node17" class="node">
<title>PAKHURDAMKN</title>
<g id="a_node17"><a xlink:title="Hurricane damage, constant prices
FRML  &lt;&gt; PAKHURDAMKN = (PAKNEHURAVERKN_/100)*PAKNYGDPMKTPKN(-1)*(1-PAKNEHURPTVTKN) $">
<polygon fill="#63b8ff" stroke="black" points="1206.5,-437 894.5,-437 894.5,-401 1206.5,-401 1206.5,-437"/>
<text text-anchor="start" x="900.5" y="-414.8" font-family="Times New Roman,serif" font-size="14.00" fill="blue">PAKHURDAMKN:Hurricane damage, constant prices</text>
</a>
</g>
</g>
<!-- PAKNYGDPMKTPKN&#45;&gt;PAKHURDAMKN -->
<g id="edge15" class="edge">
<title>PAKNYGDPMKTPKN-&gt;PAKHURDAMKN</title>
<g id="a_edge15"><a xlink:href="bogus" xlink:title=" PAKNYGDPMKTPKN -&gt; PAKHURDAMKN Min. att. 0%  max: 0%">
<path fill="none" stroke="black" d="M811.5,-403.63C835.16,-405.15 859.32,-406.72 882.74,-408.23"/>
<polygon fill="black" stroke="black" points="882.46,-411.72 892.67,-408.87 882.92,-404.73 882.46,-411.72"/>
</a>
</g>
</g>
<!-- PAKGDPPCKN -->
<g id="node18" class="node">
<title>PAKGDPPCKN</title>
<g id="a_node18"><a xlink:title="PAKGDPPCKN
FRML  &lt;&gt; PAKGDPPCKN = (PAKNYGDPMKTPKN/PAKSPPOPTOTL) $">
<polygon fill="#63b8ff" stroke="black" points="1103.5,-383 997.5,-383 997.5,-347 1103.5,-347 1103.5,-383"/>
<text text-anchor="start" x="1003.5" y="-360.8" font-family="Times New Roman,serif" font-size="14.00" fill="blue">PAKGDPPCKN:</text>
</a>
</g>
</g>
<!-- PAKNYGDPMKTPKN&#45;&gt;PAKGDPPCKN -->
<g id="edge18" class="edge">
<title>PAKNYGDPMKTPKN-&gt;PAKGDPPCKN</title>
<g id="a_edge18"><a xlink:href="bogus" xlink:title=" PAKNYGDPMKTPKN -&gt; PAKGDPPCKN Min. att. 100%  max: 100%">
<path fill="none" stroke="black" stroke-width="8" d="M811.5,-380.37C871.3,-376.51 934.33,-372.44 980.49,-369.46"/>
<polygon fill="black" stroke="black" stroke-width="8" points="980.83,-376.45 990.36,-368.82 979.93,-362.48 980.83,-376.45"/>
</a>
</g>
</g>
<!-- PAKFMLBLMTWOKN -->
<g id="node19" class="node">
<title>PAKFMLBLMTWOKN</title>
<g id="a_node19"><a xlink:title="Real money supply
FRML &lt;Z,EXO&gt; PAKFMLBLMTWOKN = (PAKFMLBLMTWOKN(-1)*EXP(-PAKFMLBLMTWOKN_A+ (-0.2*(LOG(PAKFMLBLMTWOKN(-1))-LOG(PAKNYGDPMKTPKN(-1))+0.1*PAKFMLBLPOLYXN(-1)/100-LOG(PAKVELOCITY(-1)))-0.32628131688075+0.7*((LOG(PAKNYGDPMKTPKN))-(LOG(PAKNYGDPMKTPKN(-1))))-1*((PAKFMLBLPOLYXN/100)-(PAKFMLBLPOLYXN(-1)/100))-((LOG(PAKVELOCITY))-(LOG(PAKVELOCITY(-1))))) )) * (1-PAKFMLBLMTWOKN_D)+ PAKFMLBLMTWOKN_X*PAKFMLBLMTWOKN_D  $">
<polygon fill="#63b8ff" stroke="black" points="1179.5,-329 921.5,-329 921.5,-293 1179.5,-293 1179.5,-329"/>
<text text-anchor="start" x="927.5" y="-306.8" font-family="Times New Roman,serif" font-size="14.00" fill="blue">PAKFMLBLMTWOKN:Real money supply</text>
</a>
</g>
</g>
<!-- PAKNYGDPMKTPKN&#45;&gt;PAKFMLBLMTWOKN -->
<g id="edge11" class="edge">
<title>PAKNYGDPMKTPKN-&gt;PAKFMLBLMTWOKN</title>
<g id="a_edge11"><a xlink:href="bogus" xlink:title=" PAKNYGDPMKTPKN -&gt; PAKFMLBLMTWOKN Min. att. -360%  max: 149%">
<path fill="none" stroke="black" stroke-width="8" d="M697.09,-373.51C739.57,-362.05 796.24,-347.71 847,-338 865.55,-334.45 885.14,-331.21 904.54,-328.3"/>
<polygon fill="black" stroke="black" stroke-width="8" points="905.35,-335.26 914.24,-326.89 903.33,-321.41 905.35,-335.26"/>
</a>
</g>
</g>
<!-- PAKNYGDPMKTPXN -->
<g id="node20" class="node">
<title>PAKNYGDPMKTPXN</title>
<g id="a_node20"><a xlink:title="GDP deflator
FRML  &lt;&gt; PAKNYGDPMKTPXN = PAKNYGDPMKTPCN/PAKNYGDPMKTPKN $">
<polygon fill="#63b8ff" stroke="black" points="1160.5,-275 940.5,-275 940.5,-239 1160.5,-239 1160.5,-275"/>
<text text-anchor="start" x="946.5" y="-252.8" font-family="Times New Roman,serif" font-size="14.00" fill="blue">PAKNYGDPMKTPXN:GDP deflator</text>
</a>
</g>
</g>
<!-- PAKNYGDPMKTPKN&#45;&gt;PAKNYGDPMKTPXN -->
<g id="edge17" class="edge">
<title>PAKNYGDPMKTPKN-&gt;PAKNYGDPMKTPXN</title>
<g id="a_edge17"><a xlink:href="bogus" xlink:title=" PAKNYGDPMKTPKN -&gt; PAKNYGDPMKTPXN Min. att. -81%  max: 46%">
<path fill="none" stroke="black" stroke-width="8" d="M660.52,-373.51C700.72,-348.83 776.4,-305.73 847,-284 871.26,-276.53 897.79,-271.13 923.41,-267.22"/>
<polygon fill="black" stroke="black" stroke-width="8" points="924.26,-274.17 933.18,-265.84 922.3,-260.31 924.26,-274.17"/>
</a>
</g>
</g>
<!-- PAKNYGDPFCSTKN -->
<g id="node21" class="node">
<title>PAKNYGDPFCSTKN</title>
<g id="a_node21"><a xlink:title="GDP at factor cost
FRML  &lt;&gt; PAKNYGDPFCSTKN = PAKNYGDPMKTPKN-PAKNYTAXNINDKN $">
<polygon fill="#63b8ff" stroke="black" points="1171.5,-221 929.5,-221 929.5,-185 1171.5,-185 1171.5,-221"/>
<text text-anchor="start" x="935.5" y="-198.8" font-family="Times New Roman,serif" font-size="14.00" fill="blue">PAKNYGDPFCSTKN:GDP at factor cost</text>
</a>
</g>
</g>
<!-- PAKNYGDPMKTPKN&#45;&gt;PAKNYGDPFCSTKN -->
<g id="edge22" class="edge">
<title>PAKNYGDPMKTPKN-&gt;PAKNYGDPFCSTKN</title>
<g id="a_edge22"><a xlink:href="bogus" xlink:title=" PAKNYGDPMKTPKN -&gt; PAKNYGDPFCSTKN Min. att. 100%  max: 100%">
<path fill="none" stroke="black" stroke-width="8" d="M649.04,-373.61C683.37,-338.92 763.4,-264.23 847,-230 867.5,-221.61 890.05,-215.7 912.44,-211.57"/>
<polygon fill="black" stroke="black" stroke-width="8" points="913.48,-218.49 922.19,-209.95 911.18,-204.68 913.48,-218.49"/>
</a>
</g>
</g>
<!-- PAKNYGDPMKTPKD -->
<g id="node22" class="node">
<title>PAKNYGDPMKTPKD</title>
<g id="a_node22"><a xlink:title="PAKNYGDPMKTPKD
FRML  &lt;&gt; PAKNYGDPMKTPKD = (PAKNYGDPMKTPKN*((PAKNYGDPMKTPCN_VALUE_2010)/((PAKNYGDPMKTPKN_VALUE_2010))))/(PAKPANUSATLS_VALUE_2010) $">
<polygon fill="#63b8ff" stroke="black" points="1124,-167 977,-167 977,-131 1124,-131 1124,-167"/>
<text text-anchor="start" x="983.5" y="-144.8" font-family="Times New Roman,serif" font-size="14.00" fill="blue">PAKNYGDPMKTPKD:</text>
</a>
</g>
</g>
<!-- PAKNYGDPMKTPKN&#45;&gt;PAKNYGDPMKTPKD -->
<g id="edge23" class="edge">
<title>PAKNYGDPMKTPKN-&gt;PAKNYGDPMKTPKD</title>
<g id="a_edge23"><a xlink:href="bogus" xlink:title=" PAKNYGDPMKTPKN -&gt; PAKNYGDPMKTPKD Min. att. 100%  max: 100%">
<path fill="none" stroke="black" stroke-width="8" d="M643.42,-373.56C672.37,-330.51 751.1,-223.46 847,-176 881.73,-158.81 923.71,-151.38 960.41,-148.5"/>
<polygon fill="black" stroke="black" stroke-width="8" points="960.35,-155.52 969.9,-147.91 959.49,-141.54 960.35,-155.52"/>
</a>
</g>
</g>
<!-- PAKNEADPKMAXKN_FITTED -->
<g id="node23" class="node">
<title>PAKNEADPKMAXKN_FITTED</title>
<g id="a_node23"><a xlink:title="Fitted  value:PAKNEADPKMAXKN
FRML &lt;FIT&gt; PAKNEADPKMAXKN_FITTED = 0*DUMH+((1+0.01)/(0.01+PAKDEPR))*(PAKAVDAMAGE/100)*PAKNYGDPMKTPKN $">
<polygon fill="#63b8ff" stroke="black" points="1254,-113 847,-113 847,-77 1254,-77 1254,-113"/>
<text text-anchor="start" x="853.5" y="-90.8" font-family="Times New Roman,serif" font-size="14.00" fill="blue">PAKNEADPKMAXKN_FITTED:Fitted  value:PAKNEADPKMAXKN</text>
</a>
</g>
</g>
<!-- PAKNYGDPMKTPKN&#45;&gt;PAKNEADPKMAXKN_FITTED -->
<g id="edge13" class="edge">
<title>PAKNYGDPMKTPKN-&gt;PAKNEADPKMAXKN_FITTED</title>
<g id="a_edge13"><a xlink:href="bogus" xlink:title=" PAKNYGDPMKTPKN -&gt; PAKNEADPKMAXKN_FITTED Min. att. 100%  max: 100%">
<path fill="none" stroke="black" stroke-width="8" d="M639.94,-373.56C664.02,-323.28 738.42,-183.43 847,-122 847.69,-121.61 848.39,-121.22 849.09,-120.84"/>
<polygon fill="black" stroke="black" stroke-width="8" points="852.06,-127.18 858,-116.51 845.94,-114.58 852.06,-127.18"/>
</a>
</g>
</g>
<!-- PAKNEADPKMAXKN -->
<g id="node24" class="node">
<title>PAKNEADPKMAXKN</title>
<g id="a_node24"><a xlink:title="PAKNEADPKMAXKN
FRML &lt;Z,EXO&gt; PAKNEADPKMAXKN = (0*DUMH+((1+0.01)/(0.01+PAKDEPR))*(PAKAVDAMAGE/100)*PAKNYGDPMKTPKN + PAKNEADPKMAXKN_A)* (1-PAKNEADPKMAXKN_D)+ PAKNEADPKMAXKN_X*PAKNEADPKMAXKN_D  $">
<polygon fill="#63b8ff" stroke="black" points="1125,-59 976,-59 976,-23 1125,-23 1125,-59"/>
<text text-anchor="start" x="982.5" y="-36.8" font-family="Times New Roman,serif" font-size="14.00" fill="blue">PAKNEADPKMAXKN:</text>
</a>
</g>
</g>
<!-- PAKNYGDPMKTPKN&#45;&gt;PAKNEADPKMAXKN -->
<g id="edge21" class="edge">
<title>PAKNYGDPMKTPKN-&gt;PAKNEADPKMAXKN</title>
<g id="a_edge21"><a xlink:href="bogus" xlink:title=" PAKNYGDPMKTPKN -&gt; PAKNEADPKMAXKN Min. att. 100%  max: 100%">
<path fill="none" stroke="black" stroke-width="8" d="M637.5,-373.7C657.13,-317.09 725.23,-144.04 847,-68 879.93,-47.44 921.71,-39.52 958.77,-37.2"/>
<polygon fill="black" stroke="black" stroke-width="8" points="959.02,-44.2 968.72,-36.78 958.43,-30.21 959.02,-44.2"/>
</a>
</g>
</g>
<!-- PAKNYGDPDISCKN -->
<g id="node11" class="node">
<title>PAKNYGDPDISCKN</title>
<g id="a_node11"><a xlink:title="Statistical Discrepency (Expenditure Side)
Exogen">
<polygon fill="yellow" stroke="black" points="392,-302 22,-302 22,-266 392,-266 392,-302"/>
<text text-anchor="start" x="28" y="-279.8" font-family="Times New Roman,serif" font-size="14.00" fill="blue">PAKNYGDPDISCKN:Statistical Discrepency (Expenditure Side)</text>
</a>
</g>
</g>
<!-- PAKNYGDPDISCKN&#45;&gt;PAKNYGDPMKTPKN -->
<g id="edge3" class="edge">
<title>PAKNYGDPDISCKN-&gt;PAKNYGDPMKTPKN</title>
<g id="a_edge3"><a xlink:href="bogus" xlink:title=" PAKNYGDPDISCKN -&gt; PAKNYGDPMKTPKN Min. att. -0%  max: 0%">
<path fill="none" stroke="black" d="M374.46,-302.47C387.91,-304.98 401.23,-307.81 414,-311 471.91,-325.47 535.59,-350.63 578.61,-369.07"/>
<polygon fill="black" stroke="black" points="577.12,-372.25 587.69,-373.01 579.9,-365.82 577.12,-372.25"/>
</a>
</g>
</g>
<!-- PAKADAP -->
<g id="node13" class="node">
<title>PAKADAP</title>
<g id="a_node13"><a xlink:title="Switch on adaptation mode (0 or 1)
Exogen">
<polygon fill="yellow" stroke="black" points="344,-248 70,-248 70,-212 344,-212 344,-248"/>
<text text-anchor="start" x="76" y="-225.8" font-family="Times New Roman,serif" font-size="14.00" fill="blue">PAKADAP:Switch on adaptation mode (0 or 1)</text>
</a>
</g>
</g>
<!-- PAKADAP&#45;&gt;PAKNYGDPMKTPKN -->
<g id="edge6" class="edge">
<title>PAKADAP-&gt;PAKNYGDPMKTPKN</title>
<g id="a_edge6"><a xlink:href="bogus" xlink:title=" PAKADAP -&gt; PAKNYGDPMKTPKN Min. att. -0%  max: 0%">
<path fill="none" stroke="black" d="M344.33,-239.47C367.98,-243.47 392.02,-249.1 414,-257 485.73,-282.78 558.73,-335.19 598.66,-366.59"/>
<polygon fill="black" stroke="black" points="596.42,-369.28 606.42,-372.77 600.78,-363.8 596.42,-369.28"/>
</a>
</g>
</g>
<!-- PAKNEGDIFTOTKN -->
<g id="node15" class="node">
<title>PAKNEGDIFTOTKN</title>
<g id="a_node15"><a xlink:title="Total Gross Capital Formation
FRML  &lt;&gt; PAKNEGDIFTOTKN = PAKNEGDIFGOVKN+PAKNEGDIFPRVKN $">
<polygon fill="#63b8ff" stroke="black" points="359,-194 55,-194 55,-158 359,-158 359,-194"/>
<text text-anchor="start" x="61" y="-171.8" font-family="Times New Roman,serif" font-size="14.00" fill="blue">PAKNEGDIFTOTKN:Total Gross Capital Formation</text>
</a>
</g>
</g>
<!-- PAKNEGDIFTOTKN&#45;&gt;PAKNYGDPMKTPKN -->
<g id="edge4" class="edge">
<title>PAKNEGDIFTOTKN-&gt;PAKNYGDPMKTPKN</title>
<g id="a_edge4"><a xlink:href="bogus" xlink:title=" PAKNEGDIFTOTKN -&gt; PAKNYGDPMKTPKN Min. att. -36%  max: 366%">
<path fill="none" stroke="black" stroke-width="8" d="M359.4,-185.37C378.27,-189.56 396.91,-195.26 414,-203 494.99,-239.67 567.9,-317.21 604.56,-360.72"/>
<polygon fill="black" stroke="black" stroke-width="8" points="598.95,-364.91 610.71,-368.17 609.74,-356 598.95,-364.91"/>
</a>
</g>
</g>
</g>
</svg>