<svg xmlns="http://www.w3.org/2000/svg" xmlns:xlink="http://www.w3.org/1999/xlink" width="432pt" height="377pt" viewBox="0.00 0.00 432.00 377.23">
<g id="graph0" class="graph" transform="scale(0.382979 0.382979) rotate(0) translate(4 981)">
<title>TD</title>
<polygon fill="white" stroke="none" points="-4,4 -4,-981 1124,-981 1124,4 -4,4"/>
<text text-anchor="middle" x="560" y="-7.8" font-family="Times New Roman,serif" font-size="14.00">PAKNECONPRVTKN</text>
<!-- PAKSMSRVHSNGKN -->
<g id="node1" class="node">
<title>PAKSMSRVHSNGKN</title>
<g id="a_node1"><a xlink:title="PAKSMSRVHSNGKN
FRML  &lt;&gt; PAKSMSRVHSNGKN = ((1+0.782809577554843)*(0.0647364660896117*PAKNECONPRVTKN+0*PAKNECONGOVTKN+0.00605333595533851*PAKNEGDIFTOTKN+0.03048358523237*PAKNEEXPGNFSKN+0*PAKNEGDISTKBKN)-0.0244768173208691*PAKNEIMPGNFSKN-0.0684093628903126*PAKNYTAXNINDKN-0)/(1+0.150771193398883) $">
<polygon fill="#63b8ff" stroke="black" points="991,-977 846,-977 846,-941 991,-941 991,-977"/>
<text text-anchor="start" x="852.5" y="-954.8" font-family="Times New Roman,serif" font-size="14.00" fill="blue">PAKSMSRVHSNGKN:</text>
</a>
</g>
</g>
<!-- PAKSMSRVGOVSKN -->
<g id="node2" class="node">
<title>PAKSMSRVGOVSKN</title>
<g id="a_node2"><a xlink:title="PAKSMSRVGOVSKN
FRML  &lt;&gt; PAKSMSRVGOVSKN = ((1+0)*(0*PAKNECONPRVTKN+0.789129947325563*PAKNECONGOVTKN+0*PAKNEGDIFTOTKN+0*PAKNEEXPGNFSKN+0*PAKNEGDISTKBKN)-0*PAKNEIMPGNFSKN-0*PAKNYTAXNINDKN-0)/(1+0.947258014252215) $">
<polygon fill="#63b8ff" stroke="black" points="991,-923 846,-923 846,-887 991,-887 991,-923"/>
<text text-anchor="start" x="852.5" y="-900.8" font-family="Times New Roman,serif" font-size="14.00" fill="blue">PAKSMSRVGOVSKN:</text>
</a>
</g>
</g>
<!-- PAKSMSRVWHSLKN -->
<g id="node3" class="node">
<title>PAKSMSRVWHSLKN</title>
<g id="a_node3"><a xlink:title="PAKSMSRVWHSLKN
FRML  &lt;&gt; PAKSMSRVWHSLKN = ((1+1.17766663382018E-08)*(0*PAKNECONPRVTKN+0*PAKNECONGOVTKN+0*PAKNEGDIFTOTKN+0*PAKNEEXPGNFSKN+0*PAKNEGDISTKBKN)-0*PAKNEIMPGNFSKN-0*PAKNYTAXNINDKN--4160770)/(1+0.265916086910196) $">
<polygon fill="#63b8ff" stroke="black" points="992,-869 845,-869 845,-833 992,-833 992,-869"/>
<text text-anchor="start" x="851.5" y="-846.8" font-family="Times New Roman,serif" font-size="14.00" fill="blue">PAKSMSRVWHSLKN:</text>
</a>
</g>
</g>
<!-- PAKNEGDETTOTKN -->
<g id="node4" class="node">
<title>PAKNEGDETTOTKN</title>
<g id="a_node4"><a xlink:title="GDE
FRML  &lt;&gt; PAKNEGDETTOTKN = (PAKNECONPRVTKN+PAKNECONGOVTKN+PAKNEGDIFTOTKN+PAKNEGDISTKBKN+PAKNYGDPDISCKN) $">
<polygon fill="#63b8ff" stroke="black" points="1003.5,-815 833.5,-815 833.5,-779 1003.5,-779 1003.5,-815"/>
<text text-anchor="start" x="839.5" y="-792.8" font-family="Times New Roman,serif" font-size="14.00" fill="blue">PAKNEGDETTOTKN:GDE</text>
</a>
</g>
</g>
<!-- PAKSMINDCNSTKN -->
<g id="node5" class="node">
<title>PAKSMINDCNSTKN</title>
<g id="a_node5"><a xlink:title="PAKSMINDCNSTKN
FRML  &lt;&gt; PAKSMINDCNSTKN = ((1+0.0370651228196874)*(0*PAKNECONPRVTKN+0*PAKNECONGOVTKN+0.433487212699245*PAKNEGDIFTOTKN+0.00170061231445462*PAKNEEXPGNFSKN+0.0166541213494276*PAKNEGDISTKBKN)-0.00444968266528859*PAKNEIMPGNFSKN-0*PAKNYTAXNINDKN-55116.3653855153)/(1+1.91367284458402) $">
<polygon fill="#63b8ff" stroke="black" points="989,-761 848,-761 848,-725 989,-725 989,-761"/>
<text text-anchor="start" x="854.5" y="-738.8" font-family="Times New Roman,serif" font-size="14.00" fill="blue">PAKSMINDCNSTKN:</text>
</a>
</g>
</g>
<!-- PAKNYYWBTOTLCN -->
<g id="node6" class="node">
<title>PAKNYYWBTOTLCN</title>
<g id="a_node6"><a xlink:title="Economy-wide wage bill
FRML  &lt;&gt; PAKNYYWBTOTLCN = PAKNYWRTTOTLCN*PAKLMEMPTOTLCN $">
<polygon fill="#63b8ff" stroke="black" points="326,-707 41,-707 41,-671 326,-671 326,-707"/>
<text text-anchor="start" x="47.5" y="-684.8" font-family="Times New Roman,serif" font-size="14.00" fill="blue">PAKNYYWBTOTLCN:Economy-wide wage bill</text>
</a>
</g>
</g>
<!-- PAKNECONPRVTKN -->
<g id="node12" class="node">
<title>PAKNECONPRVTKN</title>
<g id="a_node12"><a xlink:title="Household Consumption
FRML &lt;Z,EXO&gt; PAKNECONPRVTKN = (PAKNECONPRVTKN(-1)*EXP(-PAKNECONPRVTKN_A+ (-0.2*(LOG(PAKNECONPRVTKN(-1))-LOG((PAKNYYWBTOTLCN(-1)*(1-PAKGGREVDRCTXN(-1)/100))/PAKNECONPRVTXN(-1)))+1*((LOG((PAKNYYWBTOTLCN*(1-PAKGGREVDRCTXN/100))/PAKNECONPRVTXN))-(LOG((PAKNYYWBTOTLCN(-1)*(1-PAKGGREVDRCTXN(-1)/100))/PAKNECONPRVTXN(-1))))+0.0303228629698929+0.0163839011059956*DURING_2010-0.3*(PAKFMLBLPOLYXN/100-((LOG(PAKNECONPRVTXN))-(LOG(PAKNECONPRVTXN(-1)))))) )) * (1-PAKNECONPRVTKN_D)+ PAKNECONPRVTKN_X*PAKNECONPRVTKN_D  $">
<polygon fill="red" stroke="black" points="681,-518 403,-518 403,-482 681,-482 681,-518"/>
<text text-anchor="start" x="409" y="-495.8" font-family="Times New Roman,serif" font-size="14.00" fill="blue">PAKNECONPRVTKN:Household Consumption</text>
</a>
</g>
</g>
<!-- PAKNYYWBTOTLCN&#45;&gt;PAKNECONPRVTKN -->
<g id="edge16" class="edge">
<title>PAKNYYWBTOTLCN-&gt;PAKNECONPRVTKN</title>
<g id="a_edge16"><a xlink:href="bogus" xlink:title=" PAKNYYWBTOTLCN -&gt; PAKNECONPRVTKN Min. att. -594%  max: 5821%">
<path fill="none" stroke="black" stroke-width="8" d="M326.07,-676.81C340.26,-673.02 354.16,-668.18 367,-662 430.66,-631.38 486.96,-569.31 517.3,-531.51"/>
<polygon fill="black" stroke="black" stroke-width="8" points="522.67,-536.01 523.32,-523.82 511.64,-527.38 522.67,-536.01"/>
</a>
</g>
</g>
<!-- PAKNECONOTHRKN -->
<g id="node7" class="node">
<title>PAKNECONOTHRKN</title>
<g id="a_node7"><a xlink:title="Other Consumption
FRML  &lt;&gt; PAKNECONOTHRKN = PAKNECONOTHRSH**(PAKCESENGYCON)*(PAKNECONPRVTKN*(PAKNECONPRVTXN/PAKNECONOTHRXN)**(PAKCESENGYCON)) $">
<polygon fill="#63b8ff" stroke="black" points="1045,-707 792,-707 792,-671 1045,-671 1045,-707"/>
<text text-anchor="start" x="798.5" y="-684.8" font-family="Times New Roman,serif" font-size="14.00" fill="blue">PAKNECONOTHRKN:Other Consumption</text>
</a>
</g>
</g>
<!-- PAKNECONPRVTCN -->
<g id="node8" class="node">
<title>PAKNECONPRVTCN</title>
<g id="a_node8"><a xlink:title="Household demand
FRML  &lt;&gt; PAKNECONPRVTCN = PAKNECONPRVTKN*PAKNECONPRVTXN $">
<polygon fill="#63b8ff" stroke="black" points="1042,-653 795,-653 795,-617 1042,-617 1042,-653"/>
<text text-anchor="start" x="801.5" y="-630.8" font-family="Times New Roman,serif" font-size="14.00" fill="blue">PAKNECONPRVTCN:Household demand</text>
</a>
</g>
</g>
<!-- PAKSMINDMNGSKN -->
<g id="node9" class="node">
<title>PAKSMINDMNGSKN</title>
<g id="a_node9"><a xlink:title="PAKSMINDMNGSKN
FRML  &lt;&gt; PAKSMINDMNGSKN = ((1+6.96158341862144)*(0.0132800565666619*PAKNECONPRVTKN+0*PAKNECONGOVTKN+0*PAKNEGDIFTOTKN+0.00704674623894759*PAKNEEXPGNFSKN+0.024122890632682*PAKNEGDISTKBKN)-0.134221966110302*PAKNEIMPGNFSKN-0.500981557895139*PAKNYTAXNINDKN-123652.869264758)/(1+0.200800622280983) $">
<polygon fill="#63b8ff" stroke="black" points="991.5,-599 845.5,-599 845.5,-563 991.5,-563 991.5,-599"/>
<text text-anchor="start" x="851.5" y="-576.8" font-family="Times New Roman,serif" font-size="14.00" fill="blue">PAKSMINDMNGSKN:</text>
</a>
</g>
</g>
<!-- PAKSMENGTOTLKN -->
<g id="node10" class="node">
<title>PAKSMENGTOTLKN</title>
<g id="a_node10"><a xlink:title="PAKSMENGTOTLKN
FRML  &lt;&gt; PAKSMENGTOTLKN = ((1+1.65868473220397)*(0.0775261497897936*PAKNECONPRVTKN+0*PAKNECONGOVTKN+0*PAKNEGDIFTOTKN+0.0217448978257548*PAKNEEXPGNFSKN+0.0458991644104248*PAKNEGDISTKBKN)-0.11894699850705*PAKNEIMPGNFSKN--0.50579180838529*PAKNYTAXNINDKN-0)/(1+5.65663938581514) $">
<polygon fill="#63b8ff" stroke="black" points="991,-545 846,-545 846,-509 991,-509 991,-545"/>
<text text-anchor="start" x="852.5" y="-522.8" font-family="Times New Roman,serif" font-size="14.00" fill="blue">PAKSMENGTOTLKN:</text>
</a>
</g>
</g>
<!-- PAKSMAGRFSNGKN -->
<g id="node11" class="node">
<title>PAKSMAGRFSNGKN</title>
<g id="a_node11"><a xlink:title="PAKSMAGRFSNGKN
FRML  &lt;&gt; PAKSMAGRFSNGKN = ((1+1.92407325889309)*(0.00246195499563977*PAKNECONPRVTKN+0*PAKNECONGOVTKN+0*PAKNEGDIFTOTKN+0.00130433854799597*PAKNEEXPGNFSKN+0.00497657560072267*PAKNEGDISTKBKN)-1.14989260682794E-05*PAKNEIMPGNFSKN-2.46467171367829E-07*PAKNYTAXNINDKN-26993)/(1+0.506095544048804) $">
<polygon fill="#63b8ff" stroke="black" points="991,-491 846,-491 846,-455 991,-455 991,-491"/>
<text text-anchor="start" x="852.5" y="-468.8" font-family="Times New Roman,serif" font-size="14.00" fill="blue">PAKSMAGRFSNGKN:</text>
</a>
</g>
</g>
<!-- PAKNECONPRVTKN&#45;&gt;PAKSMSRVHSNGKN -->
<g id="edge3" class="edge">
<title>PAKNECONPRVTKN-&gt;PAKSMSRVHSNGKN</title>
<g id="a_edge3"><a xlink:href="bogus" xlink:title=" PAKNECONPRVTKN -&gt; PAKSMSRVHSNGKN Min. att. 34%  max: 147%">
<path fill="none" stroke="black" stroke-width="8" d="M544.13,-518.11C549.38,-585.52 577.53,-823.56 717,-932 748.33,-956.36 791.06,-964.48 829.03,-965.94"/>
<polygon fill="black" stroke="black" stroke-width="8" points="828.72,-972.94 838.82,-966.08 828.92,-958.94 828.72,-972.94"/>
</a>
</g>
</g>
<!-- PAKNECONPRVTKN&#45;&gt;PAKSMSRVGOVSKN -->
<g id="edge7" class="edge">
<title>PAKNECONPRVTKN-&gt;PAKSMSRVGOVSKN</title>
<g id="a_edge7"><a xlink:href="bogus" xlink:title=" PAKNECONPRVTKN -&gt; PAKSMSRVGOVSKN Min. att. 0%  max: 0%">
<path fill="none" stroke="black" d="M545.29,-518.44C554.09,-580.86 591.81,-785.45 717,-878 750.29,-902.61 795.43,-910.28 834.44,-911.4"/>
<polygon fill="black" stroke="black" points="834.25,-914.89 844.29,-911.52 834.34,-907.89 834.25,-914.89"/>
</a>
</g>
</g>
<!-- PAKNECONPRVTKN&#45;&gt;PAKSMSRVWHSLKN -->
<g id="edge5" class="edge">
<title>PAKNECONPRVTKN-&gt;PAKSMSRVWHSLKN</title>
<g id="a_edge5"><a xlink:href="bogus" xlink:title=" PAKNECONPRVTKN -&gt; PAKSMSRVWHSLKN Min. att. 0%  max: 0%">
<path fill="none" stroke="black" d="M546.7,-518.19C559.21,-574.49 605.48,-746.73 717,-824 750.63,-847.3 795.18,-854.99 833.74,-856.44"/>
<polygon fill="black" stroke="black" points="833.37,-859.94 843.45,-856.67 833.54,-852.94 833.37,-859.94"/>
</a>
</g>
</g>
<!-- PAKNECONPRVTKN&#45;&gt;PAKNEGDETTOTKN -->
<g id="edge14" class="edge">
<title>PAKNECONPRVTKN-&gt;PAKNEGDETTOTKN</title>
<g id="a_edge14"><a xlink:href="bogus" xlink:title=" PAKNECONPRVTKN -&gt; PAKNEGDETTOTKN Min. att. -2284%  max: 2484%">
<path fill="none" stroke="black" stroke-width="8" d="M548.73,-518.36C565.42,-568.43 619.1,-707.79 717,-770 746.16,-788.53 782.52,-796.81 816.24,-799.97"/>
<polygon fill="black" stroke="black" stroke-width="8" points="815.63,-806.95 826.1,-800.67 816.62,-792.98 815.63,-806.95"/>
</a>
</g>
</g>
<!-- PAKNECONPRVTKN&#45;&gt;PAKSMINDCNSTKN -->
<g id="edge8" class="edge">
<title>PAKNECONPRVTKN-&gt;PAKSMINDCNSTKN</title>
<g id="a_edge8"><a xlink:href="bogus" xlink:title=" PAKNECONPRVTKN -&gt; PAKSMINDCNSTKN Min. att. 0%  max: 0%">
<path fill="none" stroke="black" d="M551.65,-518.4C572.92,-561.36 632.26,-668.24 717,-716 752.92,-736.25 798.07,-743.6 836.42,-745.63"/>
<polygon fill="black" stroke="black" points="835.92,-749.11 846.05,-746.02 836.2,-742.12 835.92,-749.11"/>
</a>
</g>
</g>
<!-- PAKNECONPRVTKN&#45;&gt;PAKNECONOTHRKN -->
<g id="edge2" class="edge">
<title>PAKNECONPRVTKN-&gt;PAKNECONOTHRKN</title>
<g id="a_edge2"><a xlink:href="bogus" xlink:title=" PAKNECONPRVTKN -&gt; PAKNECONOTHRKN Min. att. -12063%  max: 323%">
<path fill="none" stroke="black" stroke-width="8" d="M556.34,-518.42C582.66,-553.16 644.99,-627.94 717,-662 735.07,-670.55 755.02,-676.63 775.12,-680.92"/>
<polygon fill="black" stroke="black" stroke-width="8" points="773.63,-687.76 784.76,-682.75 776.25,-674.01 773.63,-687.76"/>
</a>
</g>
</g>
<!-- PAKNECONPRVTKN&#45;&gt;PAKNECONPRVTCN -->
<g id="edge10" class="edge">
<title>PAKNECONPRVTKN-&gt;PAKNECONPRVTCN</title>
<g id="a_edge10"><a xlink:href="bogus" xlink:title=" PAKNECONPRVTKN -&gt; PAKNECONPRVTCN Min. att. -720%  max: 6450%">
<path fill="none" stroke="black" stroke-width="8" d="M565.56,-518.43C597.26,-543.25 657.77,-586.74 717,-608 736.3,-614.93 757.23,-620.1 778.04,-623.96"/>
<polygon fill="black" stroke="black" stroke-width="8" points="776.76,-630.84 787.79,-625.61 779.1,-617.04 776.76,-630.84"/>
</a>
</g>
</g>
<!-- PAKNECONPRVTKN&#45;&gt;PAKSMINDMNGSKN -->
<g id="edge17" class="edge">
<title>PAKNECONPRVTKN-&gt;PAKSMINDMNGSKN</title>
<g id="a_edge17"><a xlink:href="bogus" xlink:title=" PAKNECONPRVTKN -&gt; PAKSMINDMNGSKN Min. att. -1229%  max: 1716%">
<path fill="none" stroke="black" stroke-width="8" d="M594.55,-518.49C628.86,-530.17 675.15,-544.76 717,-554 753.11,-561.97 793.42,-567.96 828.38,-572.24"/>
<polygon fill="black" stroke="black" stroke-width="8" points="827.39,-579.17 838.14,-573.39 829.03,-565.26 827.39,-579.17"/>
</a>
</g>
</g>
<!-- PAKNECONPRVTKN&#45;&gt;PAKSMENGTOTLKN -->
<g id="edge1" class="edge">
<title>PAKNECONPRVTKN-&gt;PAKSMENGTOTLKN</title>
<g id="a_edge1"><a xlink:href="bogus" xlink:title=" PAKNECONPRVTKN -&gt; PAKSMENGTOTLKN Min. att. -14%  max: 2186%">
<path fill="none" stroke="black" stroke-width="8" d="M681.39,-509.98C730.7,-513.53 784.88,-517.44 828.88,-520.61"/>
<polygon fill="black" stroke="black" stroke-width="8" points="828.09,-527.57 838.57,-521.31 829.1,-513.61 828.09,-527.57"/>
</a>
</g>
</g>
<!-- PAKNECONPRVTKN&#45;&gt;PAKSMAGRFSNGKN -->
<g id="edge9" class="edge">
<title>PAKNECONPRVTKN-&gt;PAKSMAGRFSNGKN</title>
<g id="a_edge9"><a xlink:href="bogus" xlink:title=" PAKNECONPRVTKN -&gt; PAKSMAGRFSNGKN Min. att. -29%  max: 170%">
<path fill="none" stroke="black" stroke-width="8" d="M681.39,-490.02C730.7,-486.47 784.88,-482.56 828.88,-479.39"/>
<polygon fill="black" stroke="black" stroke-width="8" points="829.1,-486.39 838.57,-478.69 828.09,-472.43 829.1,-486.39"/>
</a>
</g>
</g>
<!-- PAKSMSRVFINSKN -->
<g id="node13" class="node">
<title>PAKSMSRVFINSKN</title>
<g id="a_node13"><a xlink:title="PAKSMSRVFINSKN
FRML  &lt;&gt; PAKSMSRVFINSKN = ((1+1.04148314760779)*(0.0520379651885469*PAKNECONPRVTKN+0*PAKNECONGOVTKN+0*PAKNEGDIFTOTKN+0.00879145012359898*PAKNEEXPGNFSKN+0*PAKNEGDISTKBKN)-0.00594416979264236*PAKNEIMPGNFSKN-0.000103762679145856*PAKNYTAXNINDKN-0)/(1+0.24687745523084) $">
<polygon fill="#63b8ff" stroke="black" points="987,-437 850,-437 850,-401 987,-401 987,-437"/>
<text text-anchor="start" x="856.5" y="-414.8" font-family="Times New Roman,serif" font-size="14.00" fill="blue">PAKSMSRVFINSKN:</text>
</a>
</g>
</g>
<!-- PAKNECONPRVTKN&#45;&gt;PAKSMSRVFINSKN -->
<g id="edge18" class="edge">
<title>PAKNECONPRVTKN-&gt;PAKSMSRVFINSKN</title>
<g id="a_edge18"><a xlink:href="bogus" xlink:title=" PAKNECONPRVTKN -&gt; PAKSMSRVFINSKN Min. att. -104%  max: 125%">
<path fill="none" stroke="black" stroke-width="8" d="M594.55,-481.51C628.86,-469.83 675.15,-455.24 717,-446 754.75,-437.66 797.1,-431.5 833.12,-427.19"/>
<polygon fill="black" stroke="black" stroke-width="8" points="833.65,-434.18 842.79,-426.08 832.05,-420.27 833.65,-434.18"/>
</a>
</g>
</g>
<!-- PAKNECONENGYKN -->
<g id="node14" class="node">
<title>PAKNECONENGYKN</title>
<g id="a_node14"><a xlink:title="Energy Consumption
FRML  &lt;&gt; PAKNECONENGYKN = PAKNECONENGYSH**(PAKCESENGYCON)*(PAKNECONPRVTKN*(PAKNECONPRVTXN/PAKNECONENGYXN)**(PAKCESENGYCON)) $">
<polygon fill="#63b8ff" stroke="black" points="1049.5,-383 787.5,-383 787.5,-347 1049.5,-347 1049.5,-383"/>
<text text-anchor="start" x="793.5" y="-360.8" font-family="Times New Roman,serif" font-size="14.00" fill="blue">PAKNECONENGYKN:Energy Consumption</text>
</a>
</g>
</g>
<!-- PAKNECONPRVTKN&#45;&gt;PAKNECONENGYKN -->
<g id="edge12" class="edge">
<title>PAKNECONPRVTKN-&gt;PAKNECONENGYKN</title>
<g id="a_edge12"><a xlink:href="bogus" xlink:title=" PAKNECONPRVTKN -&gt; PAKNECONENGYKN Min. att. -699%  max: 3890%">
<path fill="none" stroke="black" stroke-width="8" d="M565.56,-481.57C597.26,-456.75 657.77,-413.26 717,-392 734.04,-385.88 752.36,-381.13 770.73,-377.45"/>
<polygon fill="black" stroke="black" stroke-width="8" points="771.8,-384.37 780.37,-375.68 769.27,-370.6 771.8,-384.37"/>
</a>
</g>
</g>
<!-- PAKSMAGRFSTYKN -->
<g id="node17" class="node">
<title>PAKSMAGRFSTYKN</title>
<g id="a_node17"><a xlink:title="PAKSMAGRFSTYKN
FRML  &lt;&gt; PAKSMAGRFSTYKN = ((1+0.195965019358753)*(0.010131919293849*PAKNECONPRVTKN+0*PAKNECONGOVTKN+0*PAKNEGDIFTOTKN+0.000136733767007103*PAKNEEXPGNFSKN+0.0199955288980741*PAKNEGDISTKBKN)-0.00076829563200478*PAKNEIMPGNFSKN-0.00172030587371022*PAKNYTAXNINDKN-65421)/(1+0.319587584852584) $">
<polygon fill="#63b8ff" stroke="black" points="990.5,-329 846.5,-329 846.5,-293 990.5,-293 990.5,-329"/>
<text text-anchor="start" x="852.5" y="-306.8" font-family="Times New Roman,serif" font-size="14.00" fill="blue">PAKSMAGRFSTYKN:</text>
</a>
</g>
</g>
<!-- PAKNECONPRVTKN&#45;&gt;PAKSMAGRFSTYKN -->
<g id="edge6" class="edge">
<title>PAKNECONPRVTKN-&gt;PAKSMAGRFSTYKN</title>
<g id="a_edge6"><a xlink:href="bogus" xlink:title=" PAKNECONPRVTKN -&gt; PAKSMAGRFSTYKN Min. att. 96%  max: 371%">
<path fill="none" stroke="black" stroke-width="8" d="M556.34,-481.58C582.66,-446.84 644.99,-372.06 717,-338 751.67,-321.6 793.25,-314.28 829.53,-311.28"/>
<polygon fill="black" stroke="black" stroke-width="8" points="829.85,-318.27 839.36,-310.62 828.92,-304.3 829.85,-318.27"/>
</a>
</g>
</g>
<!-- PAKSMINDOTHRTKN -->
<g id="node18" class="node">
<title>PAKSMINDOTHRTKN</title>
<g id="a_node18"><a xlink:title="PAKSMINDOTHRTKN
FRML  &lt;&gt; PAKSMINDOTHRTKN = ((1+0.483473985412524)*(0.40172973397176*PAKNECONPRVTKN+0*PAKNECONGOVTKN+0.560459287907094*PAKNEGDIFTOTKN+0.719299486591763*PAKNEEXPGNFSKN+0.620970563578771*PAKNEGDISTKBKN)-0.606734386430279*PAKNEIMPGNFSKN-0.866045585295928*PAKNYTAXNINDKN-2983275.63714814)/(1+2.46379868577176) $">
<polygon fill="#63b8ff" stroke="black" points="994,-275 843,-275 843,-239 994,-239 994,-275"/>
<text text-anchor="start" x="849.5" y="-252.8" font-family="Times New Roman,serif" font-size="14.00" fill="blue">PAKSMINDOTHRTKN:</text>
</a>
</g>
</g>
<!-- PAKNECONPRVTKN&#45;&gt;PAKSMINDOTHRTKN -->
<g id="edge24" class="edge">
<title>PAKNECONPRVTKN-&gt;PAKSMINDOTHRTKN</title>
<g id="a_edge24"><a xlink:href="bogus" xlink:title=" PAKNECONPRVTKN -&gt; PAKSMINDOTHRTKN Min. att. -11779%  max: 971%">
<path fill="none" stroke="black" stroke-width="8" d="M551.65,-481.6C572.92,-438.64 632.26,-331.76 717,-284 749.75,-265.54 790.17,-257.8 826.12,-255.03"/>
<polygon fill="black" stroke="black" stroke-width="8" points="826.27,-262.04 835.85,-254.48 825.47,-248.06 826.27,-262.04"/>
</a>
</g>
</g>
<!-- PAKSMAGRCRPSKN -->
<g id="node19" class="node">
<title>PAKSMAGRCRPSKN</title>
<g id="a_node19"><a xlink:title="PAKSMAGRCRPSKN
FRML  &lt;&gt; PAKSMAGRCRPSKN = ((1+2.09928590574241)*(0.144287620838506*PAKNECONPRVTKN+0*PAKNECONGOVTKN+0*PAKNEGDIFTOTKN+0.0572678299039023*PAKNEEXPGNFSKN+0.267381669083985*PAKNEGDISTKBKN)-0.0736247088197363*PAKNEIMPGNFSKN-0.0407034395686347*PAKNYTAXNINDKN-906311)/(1+0.396041694659877) $">
<polygon fill="#63b8ff" stroke="black" points="990.5,-221 846.5,-221 846.5,-185 990.5,-185 990.5,-221"/>
<text text-anchor="start" x="852.5" y="-198.8" font-family="Times New Roman,serif" font-size="14.00" fill="blue">PAKSMAGRCRPSKN:</text>
</a>
</g>
</g>
<!-- PAKNECONPRVTKN&#45;&gt;PAKSMAGRCRPSKN -->
<g id="edge25" class="edge">
<title>PAKNECONPRVTKN-&gt;PAKSMAGRCRPSKN</title>
<g id="a_edge25"><a xlink:href="bogus" xlink:title=" PAKNECONPRVTKN -&gt; PAKSMAGRCRPSKN Min. att. -25%  max: 208%">
<path fill="none" stroke="black" stroke-width="8" d="M548.73,-481.64C565.42,-431.57 619.1,-292.21 717,-230 749.96,-209.06 792.11,-201.21 829.25,-199.04"/>
<polygon fill="black" stroke="black" stroke-width="8" points="829.48,-206.03 839.21,-198.67 828.96,-192.04 829.48,-206.03"/>
</a>
</g>
</g>
<!-- PAKNYGDPMKTPKN -->
<g id="node20" class="node">
<title>PAKNYGDPMKTPKN</title>
<g id="a_node20"><a xlink:title="GDP Expenditure side at market prices
FRML  &lt;&gt; PAKNYGDPMKTPKN = PAKNECONPRVTKN+PAKNECONGOVTKN+PAKNEGDIFTOTKN+PAKNEGDISTKBKN+PAKNEEXPGNFSKN-PAKNEIMPGNFSKN+PAKNYGDPDISCKN+PAKADAP*PAKDISPREPKN $">
<polygon fill="#63b8ff" stroke="black" points="1099,-167 738,-167 738,-131 1099,-131 1099,-167"/>
<text text-anchor="start" x="744.5" y="-144.8" font-family="Times New Roman,serif" font-size="14.00" fill="blue">PAKNYGDPMKTPKN:GDP Expenditure side at market prices</text>
</a>
</g>
</g>
<!-- PAKNECONPRVTKN&#45;&gt;PAKNYGDPMKTPKN -->
<g id="edge21" class="edge">
<title>PAKNECONPRVTKN-&gt;PAKNYGDPMKTPKN</title>
<g id="a_edge21"><a xlink:href="bogus" xlink:title=" PAKNECONPRVTKN -&gt; PAKNYGDPMKTPKN Min. att. -1557%  max: 290%">
<path fill="none" stroke="black" stroke-width="8" d="M546.7,-481.81C559.21,-425.51 605.48,-253.27 717,-176 718.93,-174.66 720.89,-173.38 722.89,-172.14"/>
<polygon fill="black" stroke="black" stroke-width="8" points="726,-178.42 731.45,-167.5 719.33,-166.11 726,-178.42"/>
</a>
</g>
</g>
<!-- PAKNECONPRVTKN_FITTED -->
<g id="node22" class="node">
<title>PAKNECONPRVTKN_FITTED</title>
<g id="a_node22"><a xlink:title="Fitted  value:Household Consumption
FRML &lt;FIT&gt; PAKNECONPRVTKN_FITTED = PAKNECONPRVTKN(-1)*EXP( (-0.2*(LOG(PAKNECONPRVTKN(-1))-LOG((PAKNYYWBTOTLCN(-1)*(1-PAKGGREVDRCTXN(-1)/100))/PAKNECONPRVTXN(-1)))+1*((LOG((PAKNYYWBTOTLCN*(1-PAKGGREVDRCTXN/100))/PAKNECONPRVTXN))-(LOG((PAKNYYWBTOTLCN(-1)*(1-PAKGGREVDRCTXN(-1)/100))/PAKNECONPRVTXN(-1))))+0.0303228629698929+0.0163839011059956*DURING_2010-0.3*(PAKFMLBLPOLYXN/100-((LOG(PAKNECONPRVTXN))-(LOG(PAKNECONPRVTXN(-1)))))) ) $">
<polygon fill="#63b8ff" stroke="black" points="1120,-113 717,-113 717,-77 1120,-77 1120,-113"/>
<text text-anchor="start" x="723.5" y="-90.8" font-family="Times New Roman,serif" font-size="14.00" fill="blue">PAKNECONPRVTKN_FITTED:Fitted  value:Household Consumption</text>
</a>
</g>
</g>
<!-- PAKNECONPRVTKN&#45;&gt;PAKNECONPRVTKN_FITTED -->
<g id="edge15" class="edge">
<title>PAKNECONPRVTKN-&gt;PAKNECONPRVTKN_FITTED</title>
<g id="a_edge15"><a xlink:href="bogus" xlink:title=" PAKNECONPRVTKN -&gt; PAKNECONPRVTKN_FITTED Min. att. -786%  max: 175%">
<path fill="none" stroke="black" stroke-width="8" d="M545.29,-481.56C553.81,-421.15 589.41,-227.59 717.18,-123.5"/>
<polygon fill="black" stroke="black" stroke-width="8" points="721.09,-129.32 724.73,-117.67 712.53,-118.24 721.09,-129.32"/>
</a>
</g>
</g>
<!-- PAKSMSRVTRNSKN -->
<g id="node24" class="node">
<title>PAKSMSRVTRNSKN</title>
<g id="a_node24"><a xlink:title="PAKSMSRVTRNSKN
FRML  &lt;&gt; PAKSMSRVTRNSKN = ((1+0.301074862860981)*(0.204687752761289*PAKNECONPRVTKN+0*PAKNECONGOVTKN+0*PAKNEGDIFTOTKN+0.0551862611209703*PAKNEEXPGNFSKN+0*PAKNEGDISTKBKN)--0.0392641863572605*PAKNEIMPGNFSKN-0.0174996684619017*PAKNYTAXNINDKN-0)/(1+1.11680986862739) $">
<polygon fill="#63b8ff" stroke="black" points="989.5,-59 847.5,-59 847.5,-23 989.5,-23 989.5,-59"/>
<text text-anchor="start" x="853.5" y="-36.8" font-family="Times New Roman,serif" font-size="14.00" fill="blue">PAKSMSRVTRNSKN:</text>
</a>
</g>
</g>
<!-- PAKNECONPRVTKN&#45;&gt;PAKSMSRVTRNSKN -->
<g id="edge19" class="edge">
<title>PAKNECONPRVTKN-&gt;PAKSMSRVTRNSKN</title>
<g id="a_edge19"><a xlink:href="bogus" xlink:title=" PAKNECONPRVTKN -&gt; PAKSMSRVTRNSKN Min. att. 87%  max: 592%">
<path fill="none" stroke="black" stroke-width="8" d="M544.13,-481.89C549.38,-414.48 577.53,-176.44 717,-68 748.69,-43.36 792.05,-35.34 830.34,-34.01"/>
<polygon fill="black" stroke="black" stroke-width="8" points="830.33,-41.01 840.26,-33.9 830.18,-27.01 830.33,-41.01"/>
</a>
</g>
</g>
<!-- PAKNECONPRVTXN -->
<g id="node15" class="node">
<title>PAKNECONPRVTXN</title>
<g id="a_node15"><a xlink:title="Household demand
FRML  &lt;&gt; PAKNECONPRVTXN = ((PAKNECONENGYSH**PAKCESENGYCON)*PAKNECONENGYXN**(1-PAKCESENGYCON)+(PAKNECONOTHRSH**PAKCESENGYCON)*PAKNECONOTHRXN**(1-PAKCESENGYCON))**(1/(1-PAKCESENGYCON)) $">
<polygon fill="#63b8ff" stroke="black" points="307.5,-653 59.5,-653 59.5,-617 307.5,-617 307.5,-653"/>
<text text-anchor="start" x="65.5" y="-630.8" font-family="Times New Roman,serif" font-size="14.00" fill="blue">PAKNECONPRVTXN:Household demand</text>
</a>
</g>
</g>
<!-- PAKNECONPRVTXN&#45;&gt;PAKNECONPRVTKN -->
<g id="edge26" class="edge">
<title>PAKNECONPRVTXN-&gt;PAKNECONPRVTKN</title>
<g id="a_edge26"><a xlink:href="bogus" xlink:title=" PAKNECONPRVTXN -&gt; PAKNECONPRVTKN Min. att. -5706%  max: 593%">
<path fill="none" stroke="black" stroke-width="8" d="M307.95,-623.75C328.04,-619.94 348.35,-614.83 367,-608 418.7,-589.06 471.53,-553.51 505.2,-528.38"/>
<polygon fill="black" stroke="black" stroke-width="8" points="509.14,-534.18 512.85,-522.55 500.65,-523.04 509.14,-534.18"/>
</a>
</g>
</g>
<!-- PAKNECONPRVTKN_X -->
<g id="node16" class="node">
<title>PAKNECONPRVTKN_X</title>
<g id="a_node16"><a xlink:title="Exo value:Household Consumption
Exogen">
<polygon fill="yellow" stroke="black" points="360,-599 7,-599 7,-563 360,-563 360,-599"/>
<text text-anchor="start" x="13.5" y="-576.8" font-family="Times New Roman,serif" font-size="14.00" fill="blue">PAKNECONPRVTKN_X:Exo value:Household Consumption</text>
</a>
</g>
</g>
<!-- PAKNECONPRVTKN_X&#45;&gt;PAKNECONPRVTKN -->
<g id="edge23" class="edge">
<title>PAKNECONPRVTKN_X-&gt;PAKNECONPRVTKN</title>
<g id="a_edge23"><a xlink:href="bogus" xlink:title=" PAKNECONPRVTKN_X -&gt; PAKNECONPRVTKN Min. att. 0%  max: 0%">
<path fill="none" stroke="black" d="M324.41,-562.56C338.85,-559.98 353.26,-557.13 367,-554 404.41,-545.48 445.43,-532.91 478.24,-522.05"/>
<polygon fill="black" stroke="black" points="479.23,-525.41 487.6,-518.91 477,-518.77 479.23,-525.41"/>
</a>
</g>
</g>
<!-- PAKNECONPRVTKN_A -->
<g id="node21" class="node">
<title>PAKNECONPRVTKN_A</title>
<g id="a_node21"><a xlink:title="Add factor:Household Consumption
Exogen">
<polygon fill="yellow" stroke="black" points="362,-545 5,-545 5,-509 362,-509 362,-545"/>
<text text-anchor="start" x="11.5" y="-522.8" font-family="Times New Roman,serif" font-size="14.00" fill="blue">PAKNECONPRVTKN_A:Add factor:Household Consumption</text>
</a>
</g>
</g>
<!-- PAKNECONPRVTKN_A&#45;&gt;PAKNECONPRVTKN -->
<g id="edge4" class="edge">
<title>PAKNECONPRVTKN_A-&gt;PAKNECONPRVTKN</title>
<g id="a_edge4"><a xlink:href="bogus" xlink:title=" PAKNECONPRVTKN_A -&gt; PAKNECONPRVTKN Min. att. 0%  max: 0%">
<path fill="none" stroke="black" d="M362.49,-513.52C372.19,-512.78 381.9,-512.05 391.49,-511.32"/>
<polygon fill="black" stroke="black" points="391.48,-514.83 401.19,-510.59 390.95,-507.85 391.48,-514.83"/>
</a>
</g>
</g>
<!-- PAKFMLBLPOLYXN -->
<g id="node23" class="node">
<title>PAKFMLBLPOLYXN</title>
<g id="a_node23"><a xlink:title="Policy Rate
FRML &lt;Z,EXO&gt; PAKFMLBLPOLYXN = (-100*PAKFMLBLPOLYXN_A+100* (0.905129162122953*PAKFMLBLPOLYXN(-1)/100+(1-0.905129162122953)*(PAKMPPOLNATRXN/100+1.2*(((LOG(PAKNECONPRVTXN))-(LOG(PAKNECONPRVTXN(-1))))-PAKINFLEXPT/100)+0.5*PAKNYGDPGAP_/100)) ) * (1-PAKFMLBLPOLYXN_D)+ PAKFMLBLPOLYXN_X*PAKFMLBLPOLYXN_D  $">
<polygon fill="#63b8ff" stroke="black" points="286,-491 81,-491 81,-455 286,-455 286,-491"/>
<text text-anchor="start" x="87.5" y="-468.8" font-family="Times New Roman,serif" font-size="14.00" fill="blue">PAKFMLBLPOLYXN:Policy Rate</text>
</a>
</g>
</g>
<!-- PAKFMLBLPOLYXN&#45;&gt;PAKNECONPRVTKN -->
<g id="edge20" class="edge">
<title>PAKFMLBLPOLYXN-&gt;PAKNECONPRVTKN</title>
<g id="a_edge20"><a xlink:href="bogus" xlink:title=" PAKFMLBLPOLYXN -&gt; PAKNECONPRVTKN Min. att. -160%  max: 20%">
<path fill="none" stroke="black" stroke-width="8" d="M286.18,-480.7C317.31,-483.06 352.28,-485.71 386.12,-488.27"/>
<polygon fill="black" stroke="black" stroke-width="8" points="385.15,-495.22 395.65,-488.99 386.21,-481.26 385.15,-495.22"/>
</a>
</g>
</g>
<!-- PAKNECONPRVTKN_D -->
<g id="node25" class="node">
<title>PAKNECONPRVTKN_D</title>
<g id="a_node25"><a xlink:title="Exo dummy:Household Consumption
Exogen">
<polygon fill="yellow" stroke="black" points="367,-437 0,-437 0,-401 367,-401 367,-437"/>
<text text-anchor="start" x="6.5" y="-414.8" font-family="Times New Roman,serif" font-size="14.00" fill="blue">PAKNECONPRVTKN_D:Exo dummy:Household Consumption</text>
</a>
</g>
</g>
<!-- PAKNECONPRVTKN_D&#45;&gt;PAKNECONPRVTKN -->
<g id="edge13" class="edge">
<title>PAKNECONPRVTKN_D-&gt;PAKNECONPRVTKN</title>
<g id="a_edge13"><a xlink:href="bogus" xlink:title=" PAKNECONPRVTKN_D -&gt; PAKNECONPRVTKN Min. att. 0%  max: 0%">
<path fill="none" stroke="black" d="M324.41,-437.44C338.85,-440.02 353.26,-442.87 367,-446 404.41,-454.52 445.43,-467.09 478.24,-477.95"/>
<polygon fill="black" stroke="black" points="477,-481.23 487.6,-481.09 479.23,-474.59 477,-481.23"/>
</a>
</g>
</g>
<!-- PAKGGREVDRCTXN -->
<g id="node26" class="node">
<title>PAKGGREVDRCTXN</title>
<g id="a_node26"><a xlink:title="Effective tax rates
Exogen">
<polygon fill="yellow" stroke="black" points="305.5,-383 61.5,-383 61.5,-347 305.5,-347 305.5,-383"/>
<text text-anchor="start" x="67.5" y="-360.8" font-family="Times New Roman,serif" font-size="14.00" fill="blue">PAKGGREVDRCTXN:Effective tax rates</text>
</a>
</g>
</g>
<!-- PAKGGREVDRCTXN&#45;&gt;PAKNECONPRVTKN -->
<g id="edge11" class="edge">
<title>PAKGGREVDRCTXN-&gt;PAKNECONPRVTKN</title>
<g id="a_edge11"><a xlink:href="bogus" xlink:title=" PAKGGREVDRCTXN -&gt; PAKNECONPRVTKN Min. att. 0%  max: 0%">
<path fill="none" stroke="black" d="M305.52,-375.79C326.39,-379.65 347.6,-384.89 367,-392 421.01,-411.79 476.25,-449.7 509.59,-474.93"/>
<polygon fill="black" stroke="black" points="507.13,-477.45 517.2,-480.76 511.39,-471.89 507.13,-477.45"/>
</a>
</g>
</g>
<!-- DURING_2010 -->
<g id="node27" class="node">
<title>DURING_2010</title>
<g id="a_node27"><a xlink:title="DURING_2010
Exogen">
<polygon fill="yellow" stroke="black" points="235,-329 132,-329 132,-293 235,-293 235,-329"/>
<text text-anchor="start" x="138.5" y="-306.8" font-family="Times New Roman,serif" font-size="14.00" fill="blue">DURING_2010:</text>
</a>
</g>
</g>
<!-- DURING_2010&#45;&gt;PAKNECONPRVTKN -->
<g id="edge22" class="edge">
<title>DURING_2010-&gt;PAKNECONPRVTKN</title>
<g id="a_edge22"><a xlink:href="bogus" xlink:title=" DURING_2010 -&gt; PAKNECONPRVTKN Min. att. 0%  max: 0%">
<path fill="none" stroke="black" d="M235.26,-310.52C273.25,-312.01 325.58,-318.08 367,-338 433.18,-369.83 491.42,-435.67 520.78,-472.87"/>
<polygon fill="black" stroke="black" points="517.79,-474.72 526.69,-480.47 523.32,-470.43 517.79,-474.72"/>
</a>
</g>
</g>
</g>
</svg>