<svg xmlns="http://www.w3.org/2000/svg" xmlns:xlink="http://www.w3.org/1999/xlink" width="394pt" height="432pt" viewBox="0.00 0.00 394.02 432.00">
<g id="graph0" class="graph" transform="scale(0.506448 0.506448) rotate(0) translate(4 849)">
<title>TD</title>
<polygon fill="white" stroke="transparent" points="-4,4 -4,-849 774,-849 774,4 -4,4"/>
<text text-anchor="middle" x="385" y="-7.8" font-family="Times New Roman,serif" font-size="14.00">PAKNYGDPMKTPKN</text>
<!-- PAKNEIMPGNFSKN -->
<g id="node1" class="node">
<title>PAKNEIMPGNFSKN</title>
<polygon fill="transparent" stroke="black" points="356.5,-845 10.5,-845 10.5,-653 356.5,-653 356.5,-845"/>
<g id="a_node1_0"><a xlink:href="bogus" xlink:title="Imports real
FRML &lt;DAMP,STOC&gt; PAKNEIMPGNFSKN = (PAKNEIMPGNFSKN(-1)*EXP(PAKNEIMPGNFSKN_A+ (-0.324143718656754*(LOG(PAKNEIMPGNFSKN(-1))-LOG(PAKNEGDETTOTKN(-1))+0.8*LOG(PAKNEIMPGNFSXN(-1)/PAKNYGDPFCSTXN(-1)))-0.583459272245018+1*((LOG(PAKNEGDETTOTKN))-(LOG(PAKNEGDETTOTKN(-1))))-0.0921874580409631*((LOG(PAKNEIMPGNFSXN/PAKNYGDPFCSTXN))-(LOG(PAKNEIMPGNFSXN(-1)/PAKNYGDPFCSTXN(-1))))-0.0361746331863615*DURING_2012) )) * (1-PAKNEIMPGNFSKN_D)+ PAKNEIMPGNFSKN_X*PAKNEIMPGNFSKN_D  $">
<polygon fill="#ff7f24" stroke="transparent" points="15.5,-819 15.5,-840 351.5,-840 351.5,-819 15.5,-819"/>
<polygon fill="none" stroke="black" points="15.5,-819 15.5,-840 351.5,-840 351.5,-819 15.5,-819"/>
<text text-anchor="start" x="86.5" y="-825.8" font-family="Times New Roman,serif" font-size="14.00" fill="blue">PAKNEIMPGNFSKN:Imports real</text>
</a>
</g>
<polygon fill="none" stroke="black" points="15.5,-796 15.5,-817 90.5,-817 90.5,-796 15.5,-796"/>
<text text-anchor="start" x="18.5" y="-802.8" font-family="Times New Roman,serif" font-size="14.00" fill="blue">Per</text>
<polygon fill="none" stroke="black" points="92.5,-796 92.5,-817 177.5,-817 177.5,-796 92.5,-796"/>
<text text-anchor="start" x="121" y="-802.8" font-family="Times New Roman,serif" font-size="14.00" fill="blue">2025</text>
<polygon fill="none" stroke="black" points="179.5,-796 179.5,-817 264.5,-817 264.5,-796 179.5,-796"/>
<text text-anchor="start" x="208" y="-802.8" font-family="Times New Roman,serif" font-size="14.00" fill="blue">2026</text>
<polygon fill="none" stroke="black" points="266.5,-796 266.5,-817 351.5,-817 351.5,-796 266.5,-796"/>
<text text-anchor="start" x="295" y="-802.8" font-family="Times New Roman,serif" font-size="14.00" fill="blue">2027</text>
<g id="a_node1_1"><a xlink:href="bogus" xlink:title="Baseline values">
<polygon fill="none" stroke="black" points="15.5,-773 15.5,-794 90.5,-794 90.5,-773 15.5,-773"/>
<text text-anchor="start" x="18.5" y="-779.8" font-family="Times New Roman,serif" font-size="14.00" fill="blue">Base</text>
</a>
</g>
<g id="a_node1_2"><a xlink:href="bogus" xlink:title="Baseline values">
<polygon fill="none" stroke="black" points="92.5,-773 92.5,-794 177.5,-794 177.5,-773 92.5,-773"/>
<text text-anchor="start" x="95.5" y="-779.8" font-family="Times New Roman,serif" font-size="14.00" fill="blue">7,341,614.133</text>
</a>
</g>
<g id="a_node1_3"><a xlink:href="bogus" xlink:title="Baseline values">
<polygon fill="none" stroke="black" points="179.5,-773 179.5,-794 264.5,-794 264.5,-773 179.5,-773"/>
<text text-anchor="start" x="182.5" y="-779.8" font-family="Times New Roman,serif" font-size="14.00" fill="blue">7,569,481.265</text>
</a>
</g>
<g id="a_node1_4"><a xlink:href="bogus" xlink:title="Baseline values">
<polygon fill="none" stroke="black" points="266.5,-773 266.5,-794 351.5,-794 351.5,-773 266.5,-773"/>
<text text-anchor="start" x="269.5" y="-779.8" font-family="Times New Roman,serif" font-size="14.00" fill="blue">7,797,820.681</text>
</a>
</g>
<g id="a_node1_5"><a xlink:href="bogus" xlink:title="Latest run values">
<polygon fill="none" stroke="black" points="15.5,-750 15.5,-771 90.5,-771 90.5,-750 15.5,-750"/>
<text text-anchor="start" x="18.5" y="-756.8" font-family="Times New Roman,serif" font-size="14.00" fill="blue">Last</text>
</a>
</g>
<polygon fill="none" stroke="black" points="92.5,-750 92.5,-771 177.5,-771 177.5,-750 92.5,-750"/>
<text text-anchor="start" x="95.5" y="-756.8" font-family="Times New Roman,serif" font-size="14.00" fill="blue">7,333,341.116</text>
<polygon fill="none" stroke="black" points="179.5,-750 179.5,-771 264.5,-771 264.5,-750 179.5,-750"/>
<text text-anchor="start" x="182.5" y="-756.8" font-family="Times New Roman,serif" font-size="14.00" fill="blue">7,490,351.413</text>
<polygon fill="none" stroke="black" points="266.5,-750 266.5,-771 351.5,-771 351.5,-750 266.5,-750"/>
<text text-anchor="start" x="269.5" y="-756.8" font-family="Times New Roman,serif" font-size="14.00" fill="blue">7,664,901.096</text>
<g id="a_node1_6"><a xlink:href="bogus" xlink:title="Difference between baseline and latest run">
<polygon fill="none" stroke="black" points="15.5,-727 15.5,-748 90.5,-748 90.5,-727 15.5,-727"/>
<text text-anchor="start" x="18.5" y="-733.8" font-family="Times New Roman,serif" font-size="14.00" fill="blue">Diff</text>
</a>
</g>
<polygon fill="none" stroke="black" points="92.5,-727 92.5,-748 177.5,-748 177.5,-727 92.5,-727"/>
<text text-anchor="start" x="114.5" y="-733.8" font-family="Times New Roman,serif" font-size="14.00" fill="blue">-8,273.017</text>
<polygon fill="none" stroke="black" points="179.5,-727 179.5,-748 264.5,-748 264.5,-727 179.5,-727"/>
<text text-anchor="start" x="194.5" y="-733.8" font-family="Times New Roman,serif" font-size="14.00" fill="blue">-79,129.852</text>
<polygon fill="none" stroke="black" points="266.5,-727 266.5,-748 351.5,-748 351.5,-727 266.5,-727"/>
<text text-anchor="start" x="275.5" y="-733.8" font-family="Times New Roman,serif" font-size="14.00" fill="blue">-132,919.585</text>
<polygon fill="none" stroke="black" points="15.5,-704 15.5,-725 351.5,-725 351.5,-704 15.5,-704"/>
<text text-anchor="start" x="148.5" y="-710.8" font-family="Times New Roman,serif" font-size="14.00" fill="blue"> Growth rate</text>
<g id="a_node1_7"><a xlink:href="bogus" xlink:title="Base growth
Exogen">
<polygon fill="none" stroke="black" points="15.5,-681 15.5,-702 90.5,-702 90.5,-681 15.5,-681"/>
<text text-anchor="start" x="18.5" y="-687.8" font-family="Times New Roman,serif" font-size="14.00" fill="blue">Base growth</text>
</a>
</g>
<polygon fill="none" stroke="black" points="92.5,-681 92.5,-702 177.5,-702 177.5,-681 92.5,-681"/>
<text text-anchor="start" x="143.5" y="-687.8" font-family="Times New Roman,serif" font-size="14.00" fill="blue">3.102</text>
<polygon fill="none" stroke="black" points="179.5,-681 179.5,-702 264.5,-702 264.5,-681 179.5,-681"/>
<text text-anchor="start" x="230.5" y="-687.8" font-family="Times New Roman,serif" font-size="14.00" fill="blue">3.104</text>
<polygon fill="none" stroke="black" points="266.5,-681 266.5,-702 351.5,-702 351.5,-681 266.5,-681"/>
<text text-anchor="start" x="317.5" y="-687.8" font-family="Times New Roman,serif" font-size="14.00" fill="blue">3.017</text>
<g id="a_node1_8"><a xlink:href="bogus" xlink:title="Last growth
Exogen">
<polygon fill="none" stroke="black" points="15.5,-658 15.5,-679 90.5,-679 90.5,-658 15.5,-658"/>
<text text-anchor="start" x="18.5" y="-664.8" font-family="Times New Roman,serif" font-size="14.00" fill="blue">Last growth</text>
</a>
</g>
<polygon fill="none" stroke="black" points="92.5,-658 92.5,-679 177.5,-679 177.5,-658 92.5,-658"/>
<text text-anchor="start" x="143.5" y="-664.8" font-family="Times New Roman,serif" font-size="14.00" fill="blue">2.986</text>
<polygon fill="none" stroke="black" points="179.5,-658 179.5,-679 264.5,-679 264.5,-658 179.5,-658"/>
<text text-anchor="start" x="230.5" y="-664.8" font-family="Times New Roman,serif" font-size="14.00" fill="blue">2.141</text>
<polygon fill="none" stroke="black" points="266.5,-658 266.5,-679 351.5,-679 351.5,-658 266.5,-658"/>
<text text-anchor="start" x="317.5" y="-664.8" font-family="Times New Roman,serif" font-size="14.00" fill="blue">2.330</text>
<polygon fill="none" stroke="black" points="12.5,-655 12.5,-843 354.5,-843 354.5,-655 12.5,-655"/>
</g>
<!-- PAKNYGDPMKTPKN -->
<g id="node5" class="node">
<title>PAKNYGDPMKTPKN</title>
<polygon fill="transparent" stroke="black" points="770,-530 403,-530 403,-338 770,-338 770,-530"/>
<g id="a_node5_9"><a xlink:href="bogus" xlink:title="Real GDP
FRML &lt;IDENT&gt; PAKNYGDPMKTPKN = PAKNECONPRVTKN+PAKNECONGOVTKN+PAKNEGDIFTOTKN+PAKNEGDISTKBKN+PAKNEEXPGNFSKN-PAKNEIMPGNFSKN+PAKNYGDPDISCKN+PAKADAP*PAKDISPREPKN $">
<polygon fill="red" stroke="transparent" points="408.5,-504 408.5,-525 765.5,-525 765.5,-504 408.5,-504"/>
<polygon fill="none" stroke="black" points="408.5,-504 408.5,-525 765.5,-525 765.5,-504 408.5,-504"/>
<text text-anchor="start" x="492" y="-510.8" font-family="Times New Roman,serif" font-size="14.00" fill="blue">PAKNYGDPMKTPKN:Real GDP</text>
</a>
</g>
<polygon fill="none" stroke="black" points="408.5,-481 408.5,-502 483.5,-502 483.5,-481 408.5,-481"/>
<text text-anchor="start" x="411.5" y="-487.8" font-family="Times New Roman,serif" font-size="14.00" fill="blue">Per</text>
<polygon fill="none" stroke="black" points="485.5,-481 485.5,-502 577.5,-502 577.5,-481 485.5,-481"/>
<text text-anchor="start" x="517.5" y="-487.8" font-family="Times New Roman,serif" font-size="14.00" fill="blue">2025</text>
<polygon fill="none" stroke="black" points="579.5,-481 579.5,-502 671.5,-502 671.5,-481 579.5,-481"/>
<text text-anchor="start" x="611.5" y="-487.8" font-family="Times New Roman,serif" font-size="14.00" fill="blue">2026</text>
<polygon fill="none" stroke="black" points="673.5,-481 673.5,-502 765.5,-502 765.5,-481 673.5,-481"/>
<text text-anchor="start" x="705.5" y="-487.8" font-family="Times New Roman,serif" font-size="14.00" fill="blue">2027</text>
<g id="a_node5_10"><a xlink:href="bogus" xlink:title="Baseline values">
<polygon fill="none" stroke="black" points="408.5,-458 408.5,-479 483.5,-479 483.5,-458 408.5,-458"/>
<text text-anchor="start" x="411.5" y="-464.8" font-family="Times New Roman,serif" font-size="14.00" fill="blue">Base</text>
</a>
</g>
<g id="a_node5_11"><a xlink:href="bogus" xlink:title="Baseline values">
<polygon fill="none" stroke="black" points="485.5,-458 485.5,-479 577.5,-479 577.5,-458 485.5,-458"/>
<text text-anchor="start" x="488.5" y="-464.8" font-family="Times New Roman,serif" font-size="14.00" fill="blue">27,963,231.531</text>
</a>
</g>
<g id="a_node5_12"><a xlink:href="bogus" xlink:title="Baseline values">
<polygon fill="none" stroke="black" points="579.5,-458 579.5,-479 671.5,-479 671.5,-458 579.5,-458"/>
<text text-anchor="start" x="582.5" y="-464.8" font-family="Times New Roman,serif" font-size="14.00" fill="blue">28,640,383.896</text>
</a>
</g>
<g id="a_node5_13"><a xlink:href="bogus" xlink:title="Baseline values">
<polygon fill="none" stroke="black" points="673.5,-458 673.5,-479 765.5,-479 765.5,-458 673.5,-458"/>
<text text-anchor="start" x="676.5" y="-464.8" font-family="Times New Roman,serif" font-size="14.00" fill="blue">29,396,759.184</text>
</a>
</g>
<g id="a_node5_14"><a xlink:href="bogus" xlink:title="Latest run values">
<polygon fill="none" stroke="black" points="408.5,-435 408.5,-456 483.5,-456 483.5,-435 408.5,-435"/>
<text text-anchor="start" x="411.5" y="-441.8" font-family="Times New Roman,serif" font-size="14.00" fill="blue">Last</text>
</a>
</g>
<polygon fill="none" stroke="black" points="485.5,-435 485.5,-456 577.5,-456 577.5,-435 485.5,-435"/>
<text text-anchor="start" x="488.5" y="-441.8" font-family="Times New Roman,serif" font-size="14.00" fill="blue">28,063,248.033</text>
<polygon fill="none" stroke="black" points="579.5,-435 579.5,-456 671.5,-456 671.5,-435 579.5,-435"/>
<text text-anchor="start" x="582.5" y="-441.8" font-family="Times New Roman,serif" font-size="14.00" fill="blue">28,813,268.051</text>
<polygon fill="none" stroke="black" points="673.5,-435 673.5,-456 765.5,-456 765.5,-435 673.5,-435"/>
<text text-anchor="start" x="676.5" y="-441.8" font-family="Times New Roman,serif" font-size="14.00" fill="blue">29,568,459.820</text>
<g id="a_node5_15"><a xlink:href="bogus" xlink:title="Difference between baseline and latest run">
<polygon fill="none" stroke="black" points="408.5,-412 408.5,-433 483.5,-433 483.5,-412 408.5,-412"/>
<text text-anchor="start" x="411.5" y="-418.8" font-family="Times New Roman,serif" font-size="14.00" fill="blue">Diff</text>
</a>
</g>
<polygon fill="none" stroke="black" points="485.5,-412 485.5,-433 577.5,-433 577.5,-412 485.5,-412"/>
<text text-anchor="start" x="505.5" y="-418.8" font-family="Times New Roman,serif" font-size="14.00" fill="blue">100,016.502</text>
<polygon fill="none" stroke="black" points="579.5,-412 579.5,-433 671.5,-433 671.5,-412 579.5,-412"/>
<text text-anchor="start" x="599.5" y="-418.8" font-family="Times New Roman,serif" font-size="14.00" fill="blue">172,884.155</text>
<polygon fill="none" stroke="black" points="673.5,-412 673.5,-433 765.5,-433 765.5,-412 673.5,-412"/>
<text text-anchor="start" x="693.5" y="-418.8" font-family="Times New Roman,serif" font-size="14.00" fill="blue">171,700.636</text>
<polygon fill="none" stroke="black" points="408.5,-389 408.5,-410 765.5,-410 765.5,-389 408.5,-389"/>
<text text-anchor="start" x="552" y="-395.8" font-family="Times New Roman,serif" font-size="14.00" fill="blue"> Growth rate</text>
<g id="a_node5_16"><a xlink:href="bogus" xlink:title="Base growth
Exogen">
<polygon fill="none" stroke="black" points="408.5,-366 408.5,-387 483.5,-387 483.5,-366 408.5,-366"/>
<text text-anchor="start" x="411.5" y="-372.8" font-family="Times New Roman,serif" font-size="14.00" fill="blue">Base growth</text>
</a>
</g>
<polygon fill="none" stroke="black" points="485.5,-366 485.5,-387 577.5,-387 577.5,-366 485.5,-366"/>
<text text-anchor="start" x="543.5" y="-372.8" font-family="Times New Roman,serif" font-size="14.00" fill="blue">2.081</text>
<polygon fill="none" stroke="black" points="579.5,-366 579.5,-387 671.5,-387 671.5,-366 579.5,-366"/>
<text text-anchor="start" x="637.5" y="-372.8" font-family="Times New Roman,serif" font-size="14.00" fill="blue">2.422</text>
<polygon fill="none" stroke="black" points="673.5,-366 673.5,-387 765.5,-387 765.5,-366 673.5,-366"/>
<text text-anchor="start" x="731.5" y="-372.8" font-family="Times New Roman,serif" font-size="14.00" fill="blue">2.641</text>
<g id="a_node5_17"><a xlink:href="bogus" xlink:title="Last growth
Exogen">
<polygon fill="none" stroke="black" points="408.5,-343 408.5,-364 483.5,-364 483.5,-343 408.5,-343"/>
<text text-anchor="start" x="411.5" y="-349.8" font-family="Times New Roman,serif" font-size="14.00" fill="blue">Last growth</text>
</a>
</g>
<polygon fill="none" stroke="black" points="485.5,-343 485.5,-364 577.5,-364 577.5,-343 485.5,-343"/>
<text text-anchor="start" x="543.5" y="-349.8" font-family="Times New Roman,serif" font-size="14.00" fill="blue">2.446</text>
<polygon fill="none" stroke="black" points="579.5,-343 579.5,-364 671.5,-364 671.5,-343 579.5,-343"/>
<text text-anchor="start" x="637.5" y="-349.8" font-family="Times New Roman,serif" font-size="14.00" fill="blue">2.673</text>
<polygon fill="none" stroke="black" points="673.5,-343 673.5,-364 765.5,-364 765.5,-343 673.5,-343"/>
<text text-anchor="start" x="731.5" y="-349.8" font-family="Times New Roman,serif" font-size="14.00" fill="blue">2.621</text>
<polygon fill="none" stroke="black" points="405,-340 405,-528 768,-528 768,-340 405,-340"/>
</g>
<!-- PAKNEIMPGNFSKN&#45;&gt;PAKNYGDPMKTPKN -->
<g id="edge2" class="edge">
<title>PAKNEIMPGNFSKN-&gt;PAKNYGDPMKTPKN</title>
<g id="a_edge2"><a xlink:href="bogus" xlink:title=" PAKNEIMPGNFSKN -&gt; PAKNYGDPMKTPKN Min. att. 8%  max: 77%">
<path fill="none" stroke="black" stroke-width="7.74" d="M354.91,-652.82C359.02,-649.9 363.05,-646.96 367,-644 409.31,-612.25 452.09,-573.04 488.45,-537.13"/>
<polygon fill="black" stroke="black" stroke-width="7.74" points="493.31,-541.85 495.63,-530 483.76,-532.24 493.31,-541.85"/>
</a>
</g>
</g>
<!-- PAKNECONPRVTKN -->
<g id="node2" class="node">
<title>PAKNECONPRVTKN</title>
<polygon fill="transparent" stroke="black" points="367,-635 0,-635 0,-443 367,-443 367,-635"/>
<g id="a_node2_18"><a xlink:href="bogus" xlink:title="HH. Cons Real
FRML &lt;DAMP,STOC&gt; PAKNECONPRVTKN = (PAKNECONPRVTKN(-1)*EXP(PAKNECONPRVTKN_A+ (-0.2*(LOG(PAKNECONPRVTKN(-1))-LOG(1.21203101101442)-LOG((((PAKBXFSTREMTCD(-1)-PAKBMFSTREMTCD(-1))*PAKPANUSATLS(-1))+PAKGGEXPTRNSCN(-1)+PAKNYYWBTOTLCN(-1)*(1-PAKGGREVDRCTXN(-1)/100))/PAKNECONPRVTXN(-1)))+0.763938860758873*((LOG((((PAKBXFSTREMTCD-PAKBMFSTREMTCD)*PAKPANUSATLS)+PAKGGEXPTRNSCN+PAKNYYWBTOTLCN*(1-PAKGGREVDRCTXN/100))/PAKNECONPRVTXN))-(LOG((((PAKBXFSTREMTCD(-1)-PAKBMFSTREMTCD(-1))*PAKPANUSATLS(-1))+PAKGGEXPTRNSCN(-1)+PAKNYYWBTOTLCN(-1)*(1-PAKGGREVDRCTXN(-1)/100))/PAKNECONPRVTXN(-1))))-0.0634474791568939*DURING_2009-0.3*(PAKFMLBLPOLYXN/100-((LOG(PAKNECONPRVTXN))-(LOG(PAKNECONPRVTXN(-1)))))) )) * (1-PAKNECONPRVTKN_D)+ PAKNECONPRVTKN_X*PAKNECONPRVTKN_D  $">
<polygon fill="#ff7f24" stroke="transparent" points="5.5,-609 5.5,-630 362.5,-630 362.5,-609 5.5,-609"/>
<polygon fill="none" stroke="black" points="5.5,-609 5.5,-630 362.5,-630 362.5,-609 5.5,-609"/>
<text text-anchor="start" x="77" y="-615.8" font-family="Times New Roman,serif" font-size="14.00" fill="blue">PAKNECONPRVTKN:HH. Cons Real</text>
</a>
</g>
<polygon fill="none" stroke="black" points="5.5,-586 5.5,-607 80.5,-607 80.5,-586 5.5,-586"/>
<text text-anchor="start" x="8.5" y="-592.8" font-family="Times New Roman,serif" font-size="14.00" fill="blue">Per</text>
<polygon fill="none" stroke="black" points="82.5,-586 82.5,-607 174.5,-607 174.5,-586 82.5,-586"/>
<text text-anchor="start" x="114.5" y="-592.8" font-family="Times New Roman,serif" font-size="14.00" fill="blue">2025</text>
<polygon fill="none" stroke="black" points="176.5,-586 176.5,-607 268.5,-607 268.5,-586 176.5,-586"/>
<text text-anchor="start" x="208.5" y="-592.8" font-family="Times New Roman,serif" font-size="14.00" fill="blue">2026</text>
<polygon fill="none" stroke="black" points="270.5,-586 270.5,-607 362.5,-607 362.5,-586 270.5,-586"/>
<text text-anchor="start" x="302.5" y="-592.8" font-family="Times New Roman,serif" font-size="14.00" fill="blue">2027</text>
<g id="a_node2_19"><a xlink:href="bogus" xlink:title="Baseline values">
<polygon fill="none" stroke="black" points="5.5,-563 5.5,-584 80.5,-584 80.5,-563 5.5,-563"/>
<text text-anchor="start" x="8.5" y="-569.8" font-family="Times New Roman,serif" font-size="14.00" fill="blue">Base</text>
</a>
</g>
<g id="a_node2_20"><a xlink:href="bogus" xlink:title="Baseline values">
<polygon fill="none" stroke="black" points="82.5,-563 82.5,-584 174.5,-584 174.5,-563 82.5,-563"/>
<text text-anchor="start" x="85.5" y="-569.8" font-family="Times New Roman,serif" font-size="14.00" fill="blue">25,323,255.174</text>
</a>
</g>
<g id="a_node2_21"><a xlink:href="bogus" xlink:title="Baseline values">
<polygon fill="none" stroke="black" points="176.5,-563 176.5,-584 268.5,-584 268.5,-563 176.5,-563"/>
<text text-anchor="start" x="179.5" y="-569.8" font-family="Times New Roman,serif" font-size="14.00" fill="blue">25,909,810.173</text>
</a>
</g>
<g id="a_node2_22"><a xlink:href="bogus" xlink:title="Baseline values">
<polygon fill="none" stroke="black" points="270.5,-563 270.5,-584 362.5,-584 362.5,-563 270.5,-563"/>
<text text-anchor="start" x="273.5" y="-569.8" font-family="Times New Roman,serif" font-size="14.00" fill="blue">26,552,987.587</text>
</a>
</g>
<g id="a_node2_23"><a xlink:href="bogus" xlink:title="Latest run values">
<polygon fill="none" stroke="black" points="5.5,-540 5.5,-561 80.5,-561 80.5,-540 5.5,-540"/>
<text text-anchor="start" x="8.5" y="-546.8" font-family="Times New Roman,serif" font-size="14.00" fill="blue">Last</text>
</a>
</g>
<polygon fill="none" stroke="black" points="82.5,-540 82.5,-561 174.5,-561 174.5,-540 82.5,-540"/>
<text text-anchor="start" x="85.5" y="-546.8" font-family="Times New Roman,serif" font-size="14.00" fill="blue">25,109,030.996</text>
<polygon fill="none" stroke="black" points="176.5,-540 176.5,-561 268.5,-561 268.5,-540 176.5,-540"/>
<text text-anchor="start" x="179.5" y="-546.8" font-family="Times New Roman,serif" font-size="14.00" fill="blue">25,642,724.215</text>
<polygon fill="none" stroke="black" points="270.5,-540 270.5,-561 362.5,-561 362.5,-540 270.5,-540"/>
<text text-anchor="start" x="273.5" y="-546.8" font-family="Times New Roman,serif" font-size="14.00" fill="blue">26,235,783.371</text>
<g id="a_node2_24"><a xlink:href="bogus" xlink:title="Difference between baseline and latest run">
<polygon fill="none" stroke="black" points="5.5,-517 5.5,-538 80.5,-538 80.5,-517 5.5,-517"/>
<text text-anchor="start" x="8.5" y="-523.8" font-family="Times New Roman,serif" font-size="14.00" fill="blue">Diff</text>
</a>
</g>
<polygon fill="none" stroke="black" points="82.5,-517 82.5,-538 174.5,-538 174.5,-517 82.5,-517"/>
<text text-anchor="start" x="98.5" y="-523.8" font-family="Times New Roman,serif" font-size="14.00" fill="blue">-214,224.178</text>
<polygon fill="none" stroke="black" points="176.5,-517 176.5,-538 268.5,-538 268.5,-517 176.5,-517"/>
<text text-anchor="start" x="192.5" y="-523.8" font-family="Times New Roman,serif" font-size="14.00" fill="blue">-267,085.958</text>
<polygon fill="none" stroke="black" points="270.5,-517 270.5,-538 362.5,-538 362.5,-517 270.5,-517"/>
<text text-anchor="start" x="286.5" y="-523.8" font-family="Times New Roman,serif" font-size="14.00" fill="blue">-317,204.216</text>
<polygon fill="none" stroke="black" points="5.5,-494 5.5,-515 362.5,-515 362.5,-494 5.5,-494"/>
<text text-anchor="start" x="149" y="-500.8" font-family="Times New Roman,serif" font-size="14.00" fill="blue"> Growth rate</text>
<g id="a_node2_25"><a xlink:href="bogus" xlink:title="Base growth
Exogen">
<polygon fill="none" stroke="black" points="5.5,-471 5.5,-492 80.5,-492 80.5,-471 5.5,-471"/>
<text text-anchor="start" x="8.5" y="-477.8" font-family="Times New Roman,serif" font-size="14.00" fill="blue">Base growth</text>
</a>
</g>
<polygon fill="none" stroke="black" points="82.5,-471 82.5,-492 174.5,-492 174.5,-471 82.5,-471"/>
<text text-anchor="start" x="140.5" y="-477.8" font-family="Times New Roman,serif" font-size="14.00" fill="blue">2.034</text>
<polygon fill="none" stroke="black" points="176.5,-471 176.5,-492 268.5,-492 268.5,-471 176.5,-471"/>
<text text-anchor="start" x="234.5" y="-477.8" font-family="Times New Roman,serif" font-size="14.00" fill="blue">2.316</text>
<polygon fill="none" stroke="black" points="270.5,-471 270.5,-492 362.5,-492 362.5,-471 270.5,-471"/>
<text text-anchor="start" x="328.5" y="-477.8" font-family="Times New Roman,serif" font-size="14.00" fill="blue">2.482</text>
<g id="a_node2_26"><a xlink:href="bogus" xlink:title="Last growth
Exogen">
<polygon fill="none" stroke="black" points="5.5,-448 5.5,-469 80.5,-469 80.5,-448 5.5,-448"/>
<text text-anchor="start" x="8.5" y="-454.8" font-family="Times New Roman,serif" font-size="14.00" fill="blue">Last growth</text>
</a>
</g>
<polygon fill="none" stroke="black" points="82.5,-448 82.5,-469 174.5,-469 174.5,-448 82.5,-448"/>
<text text-anchor="start" x="140.5" y="-454.8" font-family="Times New Roman,serif" font-size="14.00" fill="blue">1.171</text>
<polygon fill="none" stroke="black" points="176.5,-448 176.5,-469 268.5,-469 268.5,-448 176.5,-448"/>
<text text-anchor="start" x="234.5" y="-454.8" font-family="Times New Roman,serif" font-size="14.00" fill="blue">2.126</text>
<polygon fill="none" stroke="black" points="270.5,-448 270.5,-469 362.5,-469 362.5,-448 270.5,-448"/>
<text text-anchor="start" x="328.5" y="-454.8" font-family="Times New Roman,serif" font-size="14.00" fill="blue">2.313</text>
<polygon fill="none" stroke="black" points="2,-445 2,-633 365,-633 365,-445 2,-445"/>
</g>
<!-- PAKNECONPRVTKN&#45;&gt;PAKNYGDPMKTPKN -->
<g id="edge4" class="edge">
<title>PAKNECONPRVTKN-&gt;PAKNYGDPMKTPKN</title>
<g id="a_edge4"><a xlink:href="bogus" xlink:title=" PAKNECONPRVTKN -&gt; PAKNYGDPMKTPKN Min. att. -214%  max: -154%">
<path fill="none" stroke="black" stroke-width="8" d="M367.11,-491.19C375.74,-488.92 384.42,-486.65 393.08,-484.38"/>
<polygon fill="black" stroke="black" stroke-width="8" points="394.95,-491.13 402.85,-481.83 391.4,-477.59 394.95,-491.13"/>
</a>
</g>
</g>
<!-- PAKNECONGOVTKN -->
<g id="node3" class="node">
<title>PAKNECONGOVTKN</title>
<polygon fill="transparent" stroke="black" points="356.5,-425 10.5,-425 10.5,-233 356.5,-233 356.5,-425"/>
<g id="a_node3_27"><a xlink:href="bogus" xlink:title="Gov. Cons real
FRML &lt;IDENT&gt; PAKNECONGOVTKN = PAKNECONGOVTCN/PAKNECONGOVTXN $">
<polygon fill="#ff7f24" stroke="transparent" points="15.5,-399 15.5,-420 351.5,-420 351.5,-399 15.5,-399"/>
<polygon fill="none" stroke="black" points="15.5,-399 15.5,-420 351.5,-420 351.5,-399 15.5,-399"/>
<text text-anchor="start" x="75.5" y="-405.8" font-family="Times New Roman,serif" font-size="14.00" fill="blue">PAKNECONGOVTKN:Gov. Cons real</text>
</a>
</g>
<polygon fill="none" stroke="black" points="15.5,-376 15.5,-397 90.5,-397 90.5,-376 15.5,-376"/>
<text text-anchor="start" x="18.5" y="-382.8" font-family="Times New Roman,serif" font-size="14.00" fill="blue">Per</text>
<polygon fill="none" stroke="black" points="92.5,-376 92.5,-397 177.5,-397 177.5,-376 92.5,-376"/>
<text text-anchor="start" x="121" y="-382.8" font-family="Times New Roman,serif" font-size="14.00" fill="blue">2025</text>
<polygon fill="none" stroke="black" points="179.5,-376 179.5,-397 264.5,-397 264.5,-376 179.5,-376"/>
<text text-anchor="start" x="208" y="-382.8" font-family="Times New Roman,serif" font-size="14.00" fill="blue">2026</text>
<polygon fill="none" stroke="black" points="266.5,-376 266.5,-397 351.5,-397 351.5,-376 266.5,-376"/>
<text text-anchor="start" x="295" y="-382.8" font-family="Times New Roman,serif" font-size="14.00" fill="blue">2027</text>
<g id="a_node3_28"><a xlink:href="bogus" xlink:title="Baseline values">
<polygon fill="none" stroke="black" points="15.5,-353 15.5,-374 90.5,-374 90.5,-353 15.5,-353"/>
<text text-anchor="start" x="18.5" y="-359.8" font-family="Times New Roman,serif" font-size="14.00" fill="blue">Base</text>
</a>
</g>
<g id="a_node3_29"><a xlink:href="bogus" xlink:title="Baseline values">
<polygon fill="none" stroke="black" points="92.5,-353 92.5,-374 177.5,-374 177.5,-353 92.5,-353"/>
<text text-anchor="start" x="95.5" y="-359.8" font-family="Times New Roman,serif" font-size="14.00" fill="blue">3,278,415.175</text>
</a>
</g>
<g id="a_node3_30"><a xlink:href="bogus" xlink:title="Baseline values">
<polygon fill="none" stroke="black" points="179.5,-353 179.5,-374 264.5,-374 264.5,-353 179.5,-353"/>
<text text-anchor="start" x="182.5" y="-359.8" font-family="Times New Roman,serif" font-size="14.00" fill="blue">3,411,351.652</text>
</a>
</g>
<g id="a_node3_31"><a xlink:href="bogus" xlink:title="Baseline values">
<polygon fill="none" stroke="black" points="266.5,-353 266.5,-374 351.5,-374 351.5,-353 266.5,-353"/>
<text text-anchor="start" x="269.5" y="-359.8" font-family="Times New Roman,serif" font-size="14.00" fill="blue">3,554,456.759</text>
</a>
</g>
<g id="a_node3_32"><a xlink:href="bogus" xlink:title="Latest run values">
<polygon fill="none" stroke="black" points="15.5,-330 15.5,-351 90.5,-351 90.5,-330 15.5,-330"/>
<text text-anchor="start" x="18.5" y="-336.8" font-family="Times New Roman,serif" font-size="14.00" fill="blue">Last</text>
</a>
</g>
<polygon fill="none" stroke="black" points="92.5,-330 92.5,-351 177.5,-351 177.5,-330 92.5,-330"/>
<text text-anchor="start" x="95.5" y="-336.8" font-family="Times New Roman,serif" font-size="14.00" fill="blue">3,463,994.197</text>
<polygon fill="none" stroke="black" points="179.5,-330 179.5,-351 264.5,-351 264.5,-330 179.5,-330"/>
<text text-anchor="start" x="182.5" y="-336.8" font-family="Times New Roman,serif" font-size="14.00" fill="blue">3,628,623.336</text>
<polygon fill="none" stroke="black" points="266.5,-330 266.5,-351 351.5,-351 351.5,-330 266.5,-330"/>
<text text-anchor="start" x="269.5" y="-336.8" font-family="Times New Roman,serif" font-size="14.00" fill="blue">3,762,739.688</text>
<g id="a_node3_33"><a xlink:href="bogus" xlink:title="Difference between baseline and latest run">
<polygon fill="none" stroke="black" points="15.5,-307 15.5,-328 90.5,-328 90.5,-307 15.5,-307"/>
<text text-anchor="start" x="18.5" y="-313.8" font-family="Times New Roman,serif" font-size="14.00" fill="blue">Diff</text>
</a>
</g>
<polygon fill="none" stroke="black" points="92.5,-307 92.5,-328 177.5,-328 177.5,-307 92.5,-307"/>
<text text-anchor="start" x="105.5" y="-313.8" font-family="Times New Roman,serif" font-size="14.00" fill="blue">185,579.022</text>
<polygon fill="none" stroke="black" points="179.5,-307 179.5,-328 264.5,-328 264.5,-307 179.5,-307"/>
<text text-anchor="start" x="192.5" y="-313.8" font-family="Times New Roman,serif" font-size="14.00" fill="blue">217,271.684</text>
<polygon fill="none" stroke="black" points="266.5,-307 266.5,-328 351.5,-328 351.5,-307 266.5,-307"/>
<text text-anchor="start" x="279.5" y="-313.8" font-family="Times New Roman,serif" font-size="14.00" fill="blue">208,282.928</text>
<polygon fill="none" stroke="black" points="15.5,-284 15.5,-305 351.5,-305 351.5,-284 15.5,-284"/>
<text text-anchor="start" x="148.5" y="-290.8" font-family="Times New Roman,serif" font-size="14.00" fill="blue"> Growth rate</text>
<g id="a_node3_34"><a xlink:href="bogus" xlink:title="Base growth
Exogen">
<polygon fill="none" stroke="black" points="15.5,-261 15.5,-282 90.5,-282 90.5,-261 15.5,-261"/>
<text text-anchor="start" x="18.5" y="-267.8" font-family="Times New Roman,serif" font-size="14.00" fill="blue">Base growth</text>
</a>
</g>
<polygon fill="none" stroke="black" points="92.5,-261 92.5,-282 177.5,-282 177.5,-261 92.5,-261"/>
<text text-anchor="start" x="143.5" y="-267.8" font-family="Times New Roman,serif" font-size="14.00" fill="blue">3.576</text>
<polygon fill="none" stroke="black" points="179.5,-261 179.5,-282 264.5,-282 264.5,-261 179.5,-261"/>
<text text-anchor="start" x="230.5" y="-267.8" font-family="Times New Roman,serif" font-size="14.00" fill="blue">4.055</text>
<polygon fill="none" stroke="black" points="266.5,-261 266.5,-282 351.5,-282 351.5,-261 266.5,-261"/>
<text text-anchor="start" x="317.5" y="-267.8" font-family="Times New Roman,serif" font-size="14.00" fill="blue">4.195</text>
<g id="a_node3_35"><a xlink:href="bogus" xlink:title="Last growth
Exogen">
<polygon fill="none" stroke="black" points="15.5,-238 15.5,-259 90.5,-259 90.5,-238 15.5,-238"/>
<text text-anchor="start" x="18.5" y="-244.8" font-family="Times New Roman,serif" font-size="14.00" fill="blue">Last growth</text>
</a>
</g>
<polygon fill="none" stroke="black" points="92.5,-238 92.5,-259 177.5,-259 177.5,-238 92.5,-238"/>
<text text-anchor="start" x="143.5" y="-244.8" font-family="Times New Roman,serif" font-size="14.00" fill="blue">9.439</text>
<polygon fill="none" stroke="black" points="179.5,-238 179.5,-259 264.5,-259 264.5,-238 179.5,-238"/>
<text text-anchor="start" x="230.5" y="-244.8" font-family="Times New Roman,serif" font-size="14.00" fill="blue">4.753</text>
<polygon fill="none" stroke="black" points="266.5,-238 266.5,-259 351.5,-259 351.5,-238 266.5,-238"/>
<text text-anchor="start" x="317.5" y="-244.8" font-family="Times New Roman,serif" font-size="14.00" fill="blue">3.696</text>
<polygon fill="none" stroke="black" points="12.5,-235 12.5,-423 354.5,-423 354.5,-235 12.5,-235"/>
</g>
<!-- PAKNECONGOVTKN&#45;&gt;PAKNYGDPMKTPKN -->
<g id="edge1" class="edge">
<title>PAKNECONGOVTKN-&gt;PAKNYGDPMKTPKN</title>
<g id="a_edge1"><a xlink:href="bogus" xlink:title=" PAKNECONGOVTKN -&gt; PAKNYGDPMKTPKN Min. att. 121%  max: 186%">
<path fill="none" stroke="black" stroke-width="8" d="M356.6,-374.06C368.66,-377.22 380.87,-380.42 393.04,-383.61"/>
<polygon fill="black" stroke="black" stroke-width="8" points="391.34,-390.4 402.79,-386.16 394.89,-376.85 391.34,-390.4"/>
</a>
</g>
</g>
<!-- PAKNEGDIFTOTKN -->
<g id="node4" class="node">
<title>PAKNEGDIFTOTKN</title>
<polygon fill="transparent" stroke="black" points="356.5,-215 10.5,-215 10.5,-23 356.5,-23 356.5,-215"/>
<g id="a_node4_36"><a xlink:href="bogus" xlink:title="Investment real
FRML &lt;IDENT&gt; PAKNEGDIFTOTKN = PAKNEGDIFGOVKN+PAKNEGDIFPRVKN $">
<polygon fill="#ff7f24" stroke="transparent" points="15.5,-189 15.5,-210 351.5,-210 351.5,-189 15.5,-189"/>
<polygon fill="none" stroke="black" points="15.5,-189 15.5,-210 351.5,-210 351.5,-189 15.5,-189"/>
<text text-anchor="start" x="78" y="-195.8" font-family="Times New Roman,serif" font-size="14.00" fill="blue">PAKNEGDIFTOTKN:Investment real</text>
</a>
</g>
<polygon fill="none" stroke="black" points="15.5,-166 15.5,-187 90.5,-187 90.5,-166 15.5,-166"/>
<text text-anchor="start" x="18.5" y="-172.8" font-family="Times New Roman,serif" font-size="14.00" fill="blue">Per</text>
<polygon fill="none" stroke="black" points="92.5,-166 92.5,-187 177.5,-187 177.5,-166 92.5,-166"/>
<text text-anchor="start" x="121" y="-172.8" font-family="Times New Roman,serif" font-size="14.00" fill="blue">2025</text>
<polygon fill="none" stroke="black" points="179.5,-166 179.5,-187 264.5,-187 264.5,-166 179.5,-166"/>
<text text-anchor="start" x="208" y="-172.8" font-family="Times New Roman,serif" font-size="14.00" fill="blue">2026</text>
<polygon fill="none" stroke="black" points="266.5,-166 266.5,-187 351.5,-187 351.5,-166 266.5,-166"/>
<text text-anchor="start" x="295" y="-172.8" font-family="Times New Roman,serif" font-size="14.00" fill="blue">2027</text>
<g id="a_node4_37"><a xlink:href="bogus" xlink:title="Baseline values">
<polygon fill="none" stroke="black" points="15.5,-143 15.5,-164 90.5,-164 90.5,-143 15.5,-143"/>
<text text-anchor="start" x="18.5" y="-149.8" font-family="Times New Roman,serif" font-size="14.00" fill="blue">Base</text>
</a>
</g>
<g id="a_node4_38"><a xlink:href="bogus" xlink:title="Baseline values">
<polygon fill="none" stroke="black" points="92.5,-143 92.5,-164 177.5,-164 177.5,-143 92.5,-143"/>
<text text-anchor="start" x="95.5" y="-149.8" font-family="Times New Roman,serif" font-size="14.00" fill="blue">3,163,965.352</text>
</a>
</g>
<g id="a_node4_39"><a xlink:href="bogus" xlink:title="Baseline values">
<polygon fill="none" stroke="black" points="179.5,-143 179.5,-164 264.5,-164 264.5,-143 179.5,-143"/>
<text text-anchor="start" x="182.5" y="-149.8" font-family="Times New Roman,serif" font-size="14.00" fill="blue">3,210,065.336</text>
</a>
</g>
<g id="a_node4_40"><a xlink:href="bogus" xlink:title="Baseline values">
<polygon fill="none" stroke="black" points="266.5,-143 266.5,-164 351.5,-164 351.5,-143 266.5,-143"/>
<text text-anchor="start" x="269.5" y="-149.8" font-family="Times New Roman,serif" font-size="14.00" fill="blue">3,268,452.239</text>
</a>
</g>
<g id="a_node4_41"><a xlink:href="bogus" xlink:title="Latest run values">
<polygon fill="none" stroke="black" points="15.5,-120 15.5,-141 90.5,-141 90.5,-120 15.5,-120"/>
<text text-anchor="start" x="18.5" y="-126.8" font-family="Times New Roman,serif" font-size="14.00" fill="blue">Last</text>
</a>
</g>
<polygon fill="none" stroke="black" points="92.5,-120 92.5,-141 177.5,-141 177.5,-120 92.5,-120"/>
<text text-anchor="start" x="95.5" y="-126.8" font-family="Times New Roman,serif" font-size="14.00" fill="blue">3,285,043.278</text>
<polygon fill="none" stroke="black" points="179.5,-120 179.5,-141 264.5,-141 264.5,-120 179.5,-120"/>
<text text-anchor="start" x="182.5" y="-126.8" font-family="Times New Roman,serif" font-size="14.00" fill="blue">3,356,015.827</text>
<polygon fill="none" stroke="black" points="266.5,-120 266.5,-141 351.5,-141 351.5,-120 266.5,-120"/>
<text text-anchor="start" x="269.5" y="-126.8" font-family="Times New Roman,serif" font-size="14.00" fill="blue">3,420,600.881</text>
<g id="a_node4_42"><a xlink:href="bogus" xlink:title="Difference between baseline and latest run">
<polygon fill="none" stroke="black" points="15.5,-97 15.5,-118 90.5,-118 90.5,-97 15.5,-97"/>
<text text-anchor="start" x="18.5" y="-103.8" font-family="Times New Roman,serif" font-size="14.00" fill="blue">Diff</text>
</a>
</g>
<polygon fill="none" stroke="black" points="92.5,-97 92.5,-118 177.5,-118 177.5,-97 92.5,-97"/>
<text text-anchor="start" x="105.5" y="-103.8" font-family="Times New Roman,serif" font-size="14.00" fill="blue">121,077.926</text>
<polygon fill="none" stroke="black" points="179.5,-97 179.5,-118 264.5,-118 264.5,-97 179.5,-97"/>
<text text-anchor="start" x="192.5" y="-103.8" font-family="Times New Roman,serif" font-size="14.00" fill="blue">145,950.491</text>
<polygon fill="none" stroke="black" points="266.5,-97 266.5,-118 351.5,-118 351.5,-97 266.5,-97"/>
<text text-anchor="start" x="279.5" y="-103.8" font-family="Times New Roman,serif" font-size="14.00" fill="blue">152,148.642</text>
<polygon fill="none" stroke="black" points="15.5,-74 15.5,-95 351.5,-95 351.5,-74 15.5,-74"/>
<text text-anchor="start" x="148.5" y="-80.8" font-family="Times New Roman,serif" font-size="14.00" fill="blue"> Growth rate</text>
<g id="a_node4_43"><a xlink:href="bogus" xlink:title="Base growth
Exogen">
<polygon fill="none" stroke="black" points="15.5,-51 15.5,-72 90.5,-72 90.5,-51 15.5,-51"/>
<text text-anchor="start" x="18.5" y="-57.8" font-family="Times New Roman,serif" font-size="14.00" fill="blue">Base growth</text>
</a>
</g>
<polygon fill="none" stroke="black" points="92.5,-51 92.5,-72 177.5,-72 177.5,-51 92.5,-51"/>
<text text-anchor="start" x="143.5" y="-57.8" font-family="Times New Roman,serif" font-size="14.00" fill="blue">1.099</text>
<polygon fill="none" stroke="black" points="179.5,-51 179.5,-72 264.5,-72 264.5,-51 179.5,-51"/>
<text text-anchor="start" x="230.5" y="-57.8" font-family="Times New Roman,serif" font-size="14.00" fill="blue">1.457</text>
<polygon fill="none" stroke="black" points="266.5,-51 266.5,-72 351.5,-72 351.5,-51 266.5,-51"/>
<text text-anchor="start" x="317.5" y="-57.8" font-family="Times New Roman,serif" font-size="14.00" fill="blue">1.819</text>
<g id="a_node4_44"><a xlink:href="bogus" xlink:title="Last growth
Exogen">
<polygon fill="none" stroke="black" points="15.5,-28 15.5,-49 90.5,-49 90.5,-28 15.5,-28"/>
<text text-anchor="start" x="18.5" y="-34.8" font-family="Times New Roman,serif" font-size="14.00" fill="blue">Last growth</text>
</a>
</g>
<polygon fill="none" stroke="black" points="92.5,-28 92.5,-49 177.5,-49 177.5,-28 92.5,-28"/>
<text text-anchor="start" x="143.5" y="-34.8" font-family="Times New Roman,serif" font-size="14.00" fill="blue">4.968</text>
<polygon fill="none" stroke="black" points="179.5,-28 179.5,-49 264.5,-49 264.5,-28 179.5,-28"/>
<text text-anchor="start" x="230.5" y="-34.8" font-family="Times New Roman,serif" font-size="14.00" fill="blue">2.160</text>
<polygon fill="none" stroke="black" points="266.5,-28 266.5,-49 351.5,-49 351.5,-28 266.5,-28"/>
<text text-anchor="start" x="317.5" y="-34.8" font-family="Times New Roman,serif" font-size="14.00" fill="blue">1.924</text>
<polygon fill="none" stroke="black" points="12.5,-25 12.5,-213 354.5,-213 354.5,-25 12.5,-25"/>
</g>
<!-- PAKNEGDIFTOTKN&#45;&gt;PAKNYGDPMKTPKN -->
<g id="edge3" class="edge">
<title>PAKNEGDIFTOTKN-&gt;PAKNYGDPMKTPKN</title>
<g id="a_edge3"><a xlink:href="bogus" xlink:title=" PAKNEGDIFTOTKN -&gt; PAKNYGDPMKTPKN Min. att. 84%  max: 121%">
<path fill="none" stroke="black" stroke-width="8" d="M354.91,-215.18C359.02,-218.1 363.05,-221.04 367,-224 409.31,-255.75 452.09,-294.96 488.45,-330.87"/>
<polygon fill="black" stroke="black" stroke-width="8" points="483.6,-335.92 495.63,-338 493.47,-325.99 483.6,-335.92"/>
</a>
</g>
</g>
</g>
</svg>