<?xml version="1.0" encoding="utf-8" standalone="no"?>
<!DOCTYPE svg PUBLIC "-//W3C//DTD SVG 1.1//EN"
  "http://www.w3.org/Graphics/SVG/1.1/DTD/svg11.dtd">
<svg xmlns:xlink="http://www.w3.org/1999/xlink" width="720pt" height="432pt" viewBox="0 0 720 432" xmlns="http://www.w3.org/2000/svg" version="1.1">
 <metadata>
  <rdf:RDF xmlns:dc="http://purl.org/dc/elements/1.1/" xmlns:cc="http://creativecommons.org/ns#" xmlns:rdf="http://www.w3.org/1999/02/22-rdf-syntax-ns#">
   <cc:Work>
    <dc:type rdf:resource="http://purl.org/dc/dcmitype/StillImage"/>
    <dc:date>2023-04-11T13:00:57.956398</dc:date>
    <dc:format>image/svg+xml</dc:format>
    <dc:creator>
     <cc:Agent>
      <dc:title>Matplotlib v3.5.1, https://matplotlib.org/</dc:title>
     </cc:Agent>
    </dc:creator>
   </cc:Work>
  </rdf:RDF>
 </metadata>
 <defs>
  <style type="text/css">*{stroke-linejoin: round; stroke-linecap: butt}</style>
 </defs>
 <g id="figure_1">
  <g id="patch_1">
   <path d="M 0 432 
L 720 432 
L 720 0 
L 0 0 
L 0 432 
z
" style="fill: none"/>
  </g>
  <g id="axes_1">
   <g id="patch_2">
    <path d="M 90 378 
L 648 378 
L 648 51.84 
L 90 51.84 
z
" style="fill: #ffffff"/>
   </g>
   <g id="matplotlib.axis_1">
    <g id="xtick_1">
     <g id="line2d_1">
      <defs>
       <path id="m833a0e805a" d="M 0 0 
L 0 3.5 
" style="stroke: #000000; stroke-width: 0.8"/>
      </defs>
      <g>
       <use xlink:href="#m833a0e805a" x="115.363636" y="378" style="stroke: #000000; stroke-width: 0.8"/>
      </g>
     </g>
     <g id="text_1">
      <!-- 2020.0 -->
      <g transform="translate(97.868324 392.598437)scale(0.1 -0.1)">
       <defs>
        <path id="DejaVuSans-32" d="M 1228 531 
L 3431 531 
L 3431 0 
L 469 0 
L 469 531 
Q 828 903 1448 1529 
Q 2069 2156 2228 2338 
Q 2531 2678 2651 2914 
Q 2772 3150 2772 3378 
Q 2772 3750 2511 3984 
Q 2250 4219 1831 4219 
Q 1534 4219 1204 4116 
Q 875 4013 500 3803 
L 500 4441 
Q 881 4594 1212 4672 
Q 1544 4750 1819 4750 
Q 2544 4750 2975 4387 
Q 3406 4025 3406 3419 
Q 3406 3131 3298 2873 
Q 3191 2616 2906 2266 
Q 2828 2175 2409 1742 
Q 1991 1309 1228 531 
z
" transform="scale(0.015625)"/>
        <path id="DejaVuSans-30" d="M 2034 4250 
Q 1547 4250 1301 3770 
Q 1056 3291 1056 2328 
Q 1056 1369 1301 889 
Q 1547 409 2034 409 
Q 2525 409 2770 889 
Q 3016 1369 3016 2328 
Q 3016 3291 2770 3770 
Q 2525 4250 2034 4250 
z
M 2034 4750 
Q 2819 4750 3233 4129 
Q 3647 3509 3647 2328 
Q 3647 1150 3233 529 
Q 2819 -91 2034 -91 
Q 1250 -91 836 529 
Q 422 1150 422 2328 
Q 422 3509 836 4129 
Q 1250 4750 2034 4750 
z
" transform="scale(0.015625)"/>
        <path id="DejaVuSans-2e" d="M 684 794 
L 1344 794 
L 1344 0 
L 684 0 
L 684 794 
z
" transform="scale(0.015625)"/>
       </defs>
       <use xlink:href="#DejaVuSans-32"/>
       <use xlink:href="#DejaVuSans-30" x="63.623047"/>
       <use xlink:href="#DejaVuSans-32" x="127.246094"/>
       <use xlink:href="#DejaVuSans-30" x="190.869141"/>
       <use xlink:href="#DejaVuSans-2e" x="254.492188"/>
       <use xlink:href="#DejaVuSans-30" x="286.279297"/>
      </g>
     </g>
    </g>
    <g id="xtick_2">
     <g id="line2d_2">
      <g>
       <use xlink:href="#m833a0e805a" x="178.772727" y="378" style="stroke: #000000; stroke-width: 0.8"/>
      </g>
     </g>
     <g id="text_2">
      <!-- 2022.5 -->
      <g transform="translate(161.277415 392.598437)scale(0.1 -0.1)">
       <defs>
        <path id="DejaVuSans-35" d="M 691 4666 
L 3169 4666 
L 3169 4134 
L 1269 4134 
L 1269 2991 
Q 1406 3038 1543 3061 
Q 1681 3084 1819 3084 
Q 2600 3084 3056 2656 
Q 3513 2228 3513 1497 
Q 3513 744 3044 326 
Q 2575 -91 1722 -91 
Q 1428 -91 1123 -41 
Q 819 9 494 109 
L 494 744 
Q 775 591 1075 516 
Q 1375 441 1709 441 
Q 2250 441 2565 725 
Q 2881 1009 2881 1497 
Q 2881 1984 2565 2268 
Q 2250 2553 1709 2553 
Q 1456 2553 1204 2497 
Q 953 2441 691 2322 
L 691 4666 
z
" transform="scale(0.015625)"/>
       </defs>
       <use xlink:href="#DejaVuSans-32"/>
       <use xlink:href="#DejaVuSans-30" x="63.623047"/>
       <use xlink:href="#DejaVuSans-32" x="127.246094"/>
       <use xlink:href="#DejaVuSans-32" x="190.869141"/>
       <use xlink:href="#DejaVuSans-2e" x="254.492188"/>
       <use xlink:href="#DejaVuSans-35" x="286.279297"/>
      </g>
     </g>
    </g>
    <g id="xtick_3">
     <g id="line2d_3">
      <g>
       <use xlink:href="#m833a0e805a" x="242.181818" y="378" style="stroke: #000000; stroke-width: 0.8"/>
      </g>
     </g>
     <g id="text_3">
      <!-- 2025.0 -->
      <g transform="translate(224.686506 392.598437)scale(0.1 -0.1)">
       <use xlink:href="#DejaVuSans-32"/>
       <use xlink:href="#DejaVuSans-30" x="63.623047"/>
       <use xlink:href="#DejaVuSans-32" x="127.246094"/>
       <use xlink:href="#DejaVuSans-35" x="190.869141"/>
       <use xlink:href="#DejaVuSans-2e" x="254.492188"/>
       <use xlink:href="#DejaVuSans-30" x="286.279297"/>
      </g>
     </g>
    </g>
    <g id="xtick_4">
     <g id="line2d_4">
      <g>
       <use xlink:href="#m833a0e805a" x="305.590909" y="378" style="stroke: #000000; stroke-width: 0.8"/>
      </g>
     </g>
     <g id="text_4">
      <!-- 2027.5 -->
      <g transform="translate(288.095597 392.598437)scale(0.1 -0.1)">
       <defs>
        <path id="DejaVuSans-37" d="M 525 4666 
L 3525 4666 
L 3525 4397 
L 1831 0 
L 1172 0 
L 2766 4134 
L 525 4134 
L 525 4666 
z
" transform="scale(0.015625)"/>
       </defs>
       <use xlink:href="#DejaVuSans-32"/>
       <use xlink:href="#DejaVuSans-30" x="63.623047"/>
       <use xlink:href="#DejaVuSans-32" x="127.246094"/>
       <use xlink:href="#DejaVuSans-37" x="190.869141"/>
       <use xlink:href="#DejaVuSans-2e" x="254.492188"/>
       <use xlink:href="#DejaVuSans-35" x="286.279297"/>
      </g>
     </g>
    </g>
    <g id="xtick_5">
     <g id="line2d_5">
      <g>
       <use xlink:href="#m833a0e805a" x="369" y="378" style="stroke: #000000; stroke-width: 0.8"/>
      </g>
     </g>
     <g id="text_5">
      <!-- 2030.0 -->
      <g transform="translate(351.504687 392.598437)scale(0.1 -0.1)">
       <defs>
        <path id="DejaVuSans-33" d="M 2597 2516 
Q 3050 2419 3304 2112 
Q 3559 1806 3559 1356 
Q 3559 666 3084 287 
Q 2609 -91 1734 -91 
Q 1441 -91 1130 -33 
Q 819 25 488 141 
L 488 750 
Q 750 597 1062 519 
Q 1375 441 1716 441 
Q 2309 441 2620 675 
Q 2931 909 2931 1356 
Q 2931 1769 2642 2001 
Q 2353 2234 1838 2234 
L 1294 2234 
L 1294 2753 
L 1863 2753 
Q 2328 2753 2575 2939 
Q 2822 3125 2822 3475 
Q 2822 3834 2567 4026 
Q 2313 4219 1838 4219 
Q 1578 4219 1281 4162 
Q 984 4106 628 3988 
L 628 4550 
Q 988 4650 1302 4700 
Q 1616 4750 1894 4750 
Q 2613 4750 3031 4423 
Q 3450 4097 3450 3541 
Q 3450 3153 3228 2886 
Q 3006 2619 2597 2516 
z
" transform="scale(0.015625)"/>
       </defs>
       <use xlink:href="#DejaVuSans-32"/>
       <use xlink:href="#DejaVuSans-30" x="63.623047"/>
       <use xlink:href="#DejaVuSans-33" x="127.246094"/>
       <use xlink:href="#DejaVuSans-30" x="190.869141"/>
       <use xlink:href="#DejaVuSans-2e" x="254.492188"/>
       <use xlink:href="#DejaVuSans-30" x="286.279297"/>
      </g>
     </g>
    </g>
    <g id="xtick_6">
     <g id="line2d_6">
      <g>
       <use xlink:href="#m833a0e805a" x="432.409091" y="378" style="stroke: #000000; stroke-width: 0.8"/>
      </g>
     </g>
     <g id="text_6">
      <!-- 2032.5 -->
      <g transform="translate(414.913778 392.598437)scale(0.1 -0.1)">
       <use xlink:href="#DejaVuSans-32"/>
       <use xlink:href="#DejaVuSans-30" x="63.623047"/>
       <use xlink:href="#DejaVuSans-33" x="127.246094"/>
       <use xlink:href="#DejaVuSans-32" x="190.869141"/>
       <use xlink:href="#DejaVuSans-2e" x="254.492188"/>
       <use xlink:href="#DejaVuSans-35" x="286.279297"/>
      </g>
     </g>
    </g>
    <g id="xtick_7">
     <g id="line2d_7">
      <g>
       <use xlink:href="#m833a0e805a" x="495.818182" y="378" style="stroke: #000000; stroke-width: 0.8"/>
      </g>
     </g>
     <g id="text_7">
      <!-- 2035.0 -->
      <g transform="translate(478.322869 392.598437)scale(0.1 -0.1)">
       <use xlink:href="#DejaVuSans-32"/>
       <use xlink:href="#DejaVuSans-30" x="63.623047"/>
       <use xlink:href="#DejaVuSans-33" x="127.246094"/>
       <use xlink:href="#DejaVuSans-35" x="190.869141"/>
       <use xlink:href="#DejaVuSans-2e" x="254.492188"/>
       <use xlink:href="#DejaVuSans-30" x="286.279297"/>
      </g>
     </g>
    </g>
    <g id="xtick_8">
     <g id="line2d_8">
      <g>
       <use xlink:href="#m833a0e805a" x="559.227273" y="378" style="stroke: #000000; stroke-width: 0.8"/>
      </g>
     </g>
     <g id="text_8">
      <!-- 2037.5 -->
      <g transform="translate(541.73196 392.598437)scale(0.1 -0.1)">
       <use xlink:href="#DejaVuSans-32"/>
       <use xlink:href="#DejaVuSans-30" x="63.623047"/>
       <use xlink:href="#DejaVuSans-33" x="127.246094"/>
       <use xlink:href="#DejaVuSans-37" x="190.869141"/>
       <use xlink:href="#DejaVuSans-2e" x="254.492188"/>
       <use xlink:href="#DejaVuSans-35" x="286.279297"/>
      </g>
     </g>
    </g>
    <g id="xtick_9">
     <g id="line2d_9">
      <g>
       <use xlink:href="#m833a0e805a" x="622.636364" y="378" style="stroke: #000000; stroke-width: 0.8"/>
      </g>
     </g>
     <g id="text_9">
      <!-- 2040.0 -->
      <g transform="translate(605.141051 392.598437)scale(0.1 -0.1)">
       <defs>
        <path id="DejaVuSans-34" d="M 2419 4116 
L 825 1625 
L 2419 1625 
L 2419 4116 
z
M 2253 4666 
L 3047 4666 
L 3047 1625 
L 3713 1625 
L 3713 1100 
L 3047 1100 
L 3047 0 
L 2419 0 
L 2419 1100 
L 313 1100 
L 313 1709 
L 2253 4666 
z
" transform="scale(0.015625)"/>
       </defs>
       <use xlink:href="#DejaVuSans-32"/>
       <use xlink:href="#DejaVuSans-30" x="63.623047"/>
       <use xlink:href="#DejaVuSans-34" x="127.246094"/>
       <use xlink:href="#DejaVuSans-30" x="190.869141"/>
       <use xlink:href="#DejaVuSans-2e" x="254.492188"/>
       <use xlink:href="#DejaVuSans-30" x="286.279297"/>
      </g>
     </g>
    </g>
   </g>
   <g id="matplotlib.axis_2">
    <g id="ytick_1">
     <g id="line2d_10">
      <defs>
       <path id="mb2c2abf1cb" d="M 0 0 
L -3.5 0 
" style="stroke: #000000; stroke-width: 0.8"/>
      </defs>
      <g>
       <use xlink:href="#mb2c2abf1cb" x="90" y="321.972329" style="stroke: #000000; stroke-width: 0.8"/>
      </g>
     </g>
     <g id="text_10">
      <!-- -2.00  -->
      <g transform="translate(53.948437 325.771548)scale(0.1 -0.1)">
       <defs>
        <path id="DejaVuSans-2d" d="M 313 2009 
L 1997 2009 
L 1997 1497 
L 313 1497 
L 313 2009 
z
" transform="scale(0.015625)"/>
        <path id="DejaVuSans-20" transform="scale(0.015625)"/>
       </defs>
       <use xlink:href="#DejaVuSans-2d"/>
       <use xlink:href="#DejaVuSans-32" x="36.083984"/>
       <use xlink:href="#DejaVuSans-2e" x="99.707031"/>
       <use xlink:href="#DejaVuSans-30" x="131.494141"/>
       <use xlink:href="#DejaVuSans-30" x="195.117188"/>
       <use xlink:href="#DejaVuSans-20" x="258.740234"/>
      </g>
     </g>
    </g>
    <g id="ytick_2">
     <g id="line2d_11">
      <g>
       <use xlink:href="#mb2c2abf1cb" x="90" y="252.622742" style="stroke: #000000; stroke-width: 0.8"/>
      </g>
     </g>
     <g id="text_11">
      <!-- 0.00  -->
      <g transform="translate(57.55625 256.421961)scale(0.1 -0.1)">
       <use xlink:href="#DejaVuSans-30"/>
       <use xlink:href="#DejaVuSans-2e" x="63.623047"/>
       <use xlink:href="#DejaVuSans-30" x="95.410156"/>
       <use xlink:href="#DejaVuSans-30" x="159.033203"/>
       <use xlink:href="#DejaVuSans-20" x="222.65625"/>
      </g>
     </g>
    </g>
    <g id="ytick_3">
     <g id="line2d_12">
      <g>
       <use xlink:href="#mb2c2abf1cb" x="90" y="183.273156" style="stroke: #000000; stroke-width: 0.8"/>
      </g>
     </g>
     <g id="text_12">
      <!-- 2.00  -->
      <g transform="translate(57.55625 187.072374)scale(0.1 -0.1)">
       <use xlink:href="#DejaVuSans-32"/>
       <use xlink:href="#DejaVuSans-2e" x="63.623047"/>
       <use xlink:href="#DejaVuSans-30" x="95.410156"/>
       <use xlink:href="#DejaVuSans-30" x="159.033203"/>
       <use xlink:href="#DejaVuSans-20" x="222.65625"/>
      </g>
     </g>
    </g>
    <g id="ytick_4">
     <g id="line2d_13">
      <g>
       <use xlink:href="#mb2c2abf1cb" x="90" y="113.923569" style="stroke: #000000; stroke-width: 0.8"/>
      </g>
     </g>
     <g id="text_13">
      <!-- 4.00  -->
      <g transform="translate(57.55625 117.722788)scale(0.1 -0.1)">
       <use xlink:href="#DejaVuSans-34"/>
       <use xlink:href="#DejaVuSans-2e" x="63.623047"/>
       <use xlink:href="#DejaVuSans-30" x="95.410156"/>
       <use xlink:href="#DejaVuSans-30" x="159.033203"/>
       <use xlink:href="#DejaVuSans-20" x="222.65625"/>
      </g>
     </g>
    </g>
   </g>
   <g id="line2d_14">
    <path d="M 115.363636 252.622731 
L 140.727273 252.622735 
L 166.090909 252.622734 
L 191.454545 252.622733 
L 216.818182 252.622724 
L 242.181818 304.230242 
L 267.545455 344.623653 
L 292.909091 363.174545 
L 318.272727 327.795433 
L 343.636364 295.978224 
L 369 280.258091 
L 394.363636 256.153365 
L 419.727273 252.871996 
L 445.090909 251.571714 
L 470.454545 251.082045 
L 495.818182 250.860986 
L 521.181818 250.749938 
L 546.545455 250.769359 
L 571.909091 250.972158 
L 597.272727 251.368826 
L 622.636364 251.913935 
" clip-path="url(#p654d67bb9f)" style="fill: none; stroke: #1f77b4; stroke-width: 3; stroke-linecap: square"/>
   </g>
   <g id="line2d_15">
    <path d="M 115.363636 252.622737 
L 140.727273 252.622738 
L 166.090909 252.622736 
L 191.454545 252.622735 
L 216.818182 252.62273 
L 242.181818 174.013059 
L 267.545455 168.332043 
L 292.909091 162.695673 
L 318.272727 156.244269 
L 343.636364 148.891455 
L 369 141.100137 
L 394.363636 113.006963 
L 419.727273 107.637765 
L 445.090909 102.174072 
L 470.454545 96.639615 
L 495.818182 91.128245 
L 521.181818 85.749951 
L 546.545455 80.567311 
L 571.909091 75.63444 
L 597.272727 70.991671 
L 622.636364 66.665455 
" clip-path="url(#p654d67bb9f)" style="fill: none; stroke: #ff7f0e; stroke-width: 3; stroke-linecap: square"/>
   </g>
   <g id="line2d_16">
    <path d="M 115.363636 252.622737 
L 140.727273 252.622738 
L 166.090909 252.622736 
L 191.454545 252.622735 
L 216.818182 252.62273 
L 242.181818 174.013059 
L 267.545455 168.332043 
L 292.909091 162.695673 
L 318.272727 234.975273 
L 343.636364 233.318957 
L 369 231.113852 
L 394.363636 209.956461 
L 419.727273 211.858119 
L 445.090909 214.108123 
L 470.454545 216.687344 
L 495.818182 219.522993 
L 521.181818 222.525533 
L 546.545455 225.568534 
L 571.909091 228.553772 
L 597.272727 231.407815 
L 622.636364 234.078553 
" clip-path="url(#p654d67bb9f)" style="fill: none; stroke: #2ca02c; stroke-width: 3; stroke-linecap: square"/>
   </g>
   <g id="line2d_17">
    <path d="M 115.363636 252.622737 
L 140.727273 252.622738 
L 166.090909 252.622736 
L 191.454545 252.622735 
L 216.818182 252.62273 
L 242.181818 174.013059 
L 267.545455 168.332043 
L 292.909091 162.695673 
L 318.272727 156.244269 
L 343.636364 148.891455 
L 369 141.100137 
L 394.363636 113.006963 
L 419.727273 107.637765 
L 445.090909 102.174072 
L 470.454545 96.639615 
L 495.818182 91.128245 
L 521.181818 85.749951 
L 546.545455 80.567311 
L 571.909091 75.63444 
L 597.272727 70.991671 
L 622.636364 66.665455 
" clip-path="url(#p654d67bb9f)" style="fill: none; stroke: #d62728; stroke-width: 3; stroke-linecap: square"/>
   </g>
   <g id="line2d_18">
    <path d="M 115.363636 252.622731 
L 140.727273 252.622735 
L 166.090909 252.622734 
L 191.454545 252.622733 
L 216.818182 252.622724 
L 242.181818 174.013059 
L 267.545455 168.332042 
L 292.909091 162.695672 
L 318.272727 191.548801 
L 343.636364 216.345805 
L 369 232.490576 
L 394.363636 224.138745 
L 419.727273 227.627024 
L 445.090909 228.470801 
L 470.454545 228.389444 
L 495.818182 228.432473 
L 521.181818 229.074728 
L 546.545455 230.396853 
L 571.909091 232.271846 
L 597.272727 234.503657 
L 622.636364 236.906849 
" clip-path="url(#p654d67bb9f)" style="fill: none; stroke: #9467bd; stroke-width: 3; stroke-linecap: square"/>
   </g>
   <g id="line2d_19">
    <path d="M 115.363636 252.622731 
L 140.727273 252.622735 
L 166.090909 252.622734 
L 191.454545 252.622733 
L 216.818182 252.622724 
L 242.181818 252.622716 
L 267.545455 252.622709 
L 292.909091 252.622704 
L 318.272727 243.191539 
L 343.636364 242.897118 
L 369 243.886907 
L 394.363636 228.344108 
L 419.727273 229.455201 
L 445.090909 230.462645 
L 470.454545 231.370021 
L 495.818182 232.228222 
L 521.181818 233.080645 
L 546.545455 233.939879 
L 571.909091 234.786641 
L 597.272727 235.583637 
L 622.636364 236.291422 
" clip-path="url(#p654d67bb9f)" style="fill: none; stroke: #8c564b; stroke-width: 3; stroke-linecap: square"/>
   </g>
   <g id="patch_3">
    <path d="M 90 378 
L 90 51.84 
" style="fill: none; stroke: #000000; stroke-width: 0.8; stroke-linejoin: miter; stroke-linecap: square"/>
   </g>
   <g id="patch_4">
    <path d="M 90 378 
L 648 378 
" style="fill: none; stroke: #000000; stroke-width: 0.8; stroke-linejoin: miter; stroke-linecap: square"/>
   </g>
   <g id="text_14">
    <!--  $25 increase in oil prices 2025-27 -->
    <g transform="translate(622.636364 251.913935)scale(0.14 -0.14)">
     <defs>
      <path id="DejaVuSans-24" d="M 2163 -941 
L 1850 -941 
L 1847 0 
Q 1519 6 1191 76 
Q 863 147 531 288 
L 531 850 
Q 850 650 1176 548 
Q 1503 447 1850 444 
L 1850 1869 
Q 1159 1981 845 2250 
Q 531 2519 531 2988 
Q 531 3497 872 3790 
Q 1213 4084 1850 4128 
L 1850 4863 
L 2163 4863 
L 2163 4138 
Q 2453 4125 2725 4076 
Q 2997 4028 3256 3944 
L 3256 3397 
Q 2997 3528 2723 3600 
Q 2450 3672 2163 3684 
L 2163 2350 
Q 2872 2241 3206 1959 
Q 3541 1678 3541 1191 
Q 3541 663 3186 358 
Q 2831 53 2163 6 
L 2163 -941 
z
M 1850 2406 
L 1850 3688 
Q 1488 3647 1297 3481 
Q 1106 3316 1106 3041 
Q 1106 2772 1282 2622 
Q 1459 2472 1850 2406 
z
M 2163 1806 
L 2163 453 
Q 2559 506 2761 678 
Q 2963 850 2963 1131 
Q 2963 1406 2770 1568 
Q 2578 1731 2163 1806 
z
" transform="scale(0.015625)"/>
      <path id="DejaVuSans-69" d="M 603 3500 
L 1178 3500 
L 1178 0 
L 603 0 
L 603 3500 
z
M 603 4863 
L 1178 4863 
L 1178 4134 
L 603 4134 
L 603 4863 
z
" transform="scale(0.015625)"/>
      <path id="DejaVuSans-6e" d="M 3513 2113 
L 3513 0 
L 2938 0 
L 2938 2094 
Q 2938 2591 2744 2837 
Q 2550 3084 2163 3084 
Q 1697 3084 1428 2787 
Q 1159 2491 1159 1978 
L 1159 0 
L 581 0 
L 581 3500 
L 1159 3500 
L 1159 2956 
Q 1366 3272 1645 3428 
Q 1925 3584 2291 3584 
Q 2894 3584 3203 3211 
Q 3513 2838 3513 2113 
z
" transform="scale(0.015625)"/>
      <path id="DejaVuSans-63" d="M 3122 3366 
L 3122 2828 
Q 2878 2963 2633 3030 
Q 2388 3097 2138 3097 
Q 1578 3097 1268 2742 
Q 959 2388 959 1747 
Q 959 1106 1268 751 
Q 1578 397 2138 397 
Q 2388 397 2633 464 
Q 2878 531 3122 666 
L 3122 134 
Q 2881 22 2623 -34 
Q 2366 -91 2075 -91 
Q 1284 -91 818 406 
Q 353 903 353 1747 
Q 353 2603 823 3093 
Q 1294 3584 2113 3584 
Q 2378 3584 2631 3529 
Q 2884 3475 3122 3366 
z
" transform="scale(0.015625)"/>
      <path id="DejaVuSans-72" d="M 2631 2963 
Q 2534 3019 2420 3045 
Q 2306 3072 2169 3072 
Q 1681 3072 1420 2755 
Q 1159 2438 1159 1844 
L 1159 0 
L 581 0 
L 581 3500 
L 1159 3500 
L 1159 2956 
Q 1341 3275 1631 3429 
Q 1922 3584 2338 3584 
Q 2397 3584 2469 3576 
Q 2541 3569 2628 3553 
L 2631 2963 
z
" transform="scale(0.015625)"/>
      <path id="DejaVuSans-65" d="M 3597 1894 
L 3597 1613 
L 953 1613 
Q 991 1019 1311 708 
Q 1631 397 2203 397 
Q 2534 397 2845 478 
Q 3156 559 3463 722 
L 3463 178 
Q 3153 47 2828 -22 
Q 2503 -91 2169 -91 
Q 1331 -91 842 396 
Q 353 884 353 1716 
Q 353 2575 817 3079 
Q 1281 3584 2069 3584 
Q 2775 3584 3186 3129 
Q 3597 2675 3597 1894 
z
M 3022 2063 
Q 3016 2534 2758 2815 
Q 2500 3097 2075 3097 
Q 1594 3097 1305 2825 
Q 1016 2553 972 2059 
L 3022 2063 
z
" transform="scale(0.015625)"/>
      <path id="DejaVuSans-61" d="M 2194 1759 
Q 1497 1759 1228 1600 
Q 959 1441 959 1056 
Q 959 750 1161 570 
Q 1363 391 1709 391 
Q 2188 391 2477 730 
Q 2766 1069 2766 1631 
L 2766 1759 
L 2194 1759 
z
M 3341 1997 
L 3341 0 
L 2766 0 
L 2766 531 
Q 2569 213 2275 61 
Q 1981 -91 1556 -91 
Q 1019 -91 701 211 
Q 384 513 384 1019 
Q 384 1609 779 1909 
Q 1175 2209 1959 2209 
L 2766 2209 
L 2766 2266 
Q 2766 2663 2505 2880 
Q 2244 3097 1772 3097 
Q 1472 3097 1187 3025 
Q 903 2953 641 2809 
L 641 3341 
Q 956 3463 1253 3523 
Q 1550 3584 1831 3584 
Q 2591 3584 2966 3190 
Q 3341 2797 3341 1997 
z
" transform="scale(0.015625)"/>
      <path id="DejaVuSans-73" d="M 2834 3397 
L 2834 2853 
Q 2591 2978 2328 3040 
Q 2066 3103 1784 3103 
Q 1356 3103 1142 2972 
Q 928 2841 928 2578 
Q 928 2378 1081 2264 
Q 1234 2150 1697 2047 
L 1894 2003 
Q 2506 1872 2764 1633 
Q 3022 1394 3022 966 
Q 3022 478 2636 193 
Q 2250 -91 1575 -91 
Q 1294 -91 989 -36 
Q 684 19 347 128 
L 347 722 
Q 666 556 975 473 
Q 1284 391 1588 391 
Q 1994 391 2212 530 
Q 2431 669 2431 922 
Q 2431 1156 2273 1281 
Q 2116 1406 1581 1522 
L 1381 1569 
Q 847 1681 609 1914 
Q 372 2147 372 2553 
Q 372 3047 722 3315 
Q 1072 3584 1716 3584 
Q 2034 3584 2315 3537 
Q 2597 3491 2834 3397 
z
" transform="scale(0.015625)"/>
      <path id="DejaVuSans-6f" d="M 1959 3097 
Q 1497 3097 1228 2736 
Q 959 2375 959 1747 
Q 959 1119 1226 758 
Q 1494 397 1959 397 
Q 2419 397 2687 759 
Q 2956 1122 2956 1747 
Q 2956 2369 2687 2733 
Q 2419 3097 1959 3097 
z
M 1959 3584 
Q 2709 3584 3137 3096 
Q 3566 2609 3566 1747 
Q 3566 888 3137 398 
Q 2709 -91 1959 -91 
Q 1206 -91 779 398 
Q 353 888 353 1747 
Q 353 2609 779 3096 
Q 1206 3584 1959 3584 
z
" transform="scale(0.015625)"/>
      <path id="DejaVuSans-6c" d="M 603 4863 
L 1178 4863 
L 1178 0 
L 603 0 
L 603 4863 
z
" transform="scale(0.015625)"/>
      <path id="DejaVuSans-70" d="M 1159 525 
L 1159 -1331 
L 581 -1331 
L 581 3500 
L 1159 3500 
L 1159 2969 
Q 1341 3281 1617 3432 
Q 1894 3584 2278 3584 
Q 2916 3584 3314 3078 
Q 3713 2572 3713 1747 
Q 3713 922 3314 415 
Q 2916 -91 2278 -91 
Q 1894 -91 1617 61 
Q 1341 213 1159 525 
z
M 3116 1747 
Q 3116 2381 2855 2742 
Q 2594 3103 2138 3103 
Q 1681 3103 1420 2742 
Q 1159 2381 1159 1747 
Q 1159 1113 1420 752 
Q 1681 391 2138 391 
Q 2594 391 2855 752 
Q 3116 1113 3116 1747 
z
" transform="scale(0.015625)"/>
     </defs>
     <use xlink:href="#DejaVuSans-20"/>
     <use xlink:href="#DejaVuSans-24" x="31.787109"/>
     <use xlink:href="#DejaVuSans-32" x="95.410156"/>
     <use xlink:href="#DejaVuSans-35" x="159.033203"/>
     <use xlink:href="#DejaVuSans-20" x="222.65625"/>
     <use xlink:href="#DejaVuSans-69" x="254.443359"/>
     <use xlink:href="#DejaVuSans-6e" x="282.226562"/>
     <use xlink:href="#DejaVuSans-63" x="345.605469"/>
     <use xlink:href="#DejaVuSans-72" x="400.585938"/>
     <use xlink:href="#DejaVuSans-65" x="439.449219"/>
     <use xlink:href="#DejaVuSans-61" x="500.972656"/>
     <use xlink:href="#DejaVuSans-73" x="562.251953"/>
     <use xlink:href="#DejaVuSans-65" x="614.351562"/>
     <use xlink:href="#DejaVuSans-20" x="675.875"/>
     <use xlink:href="#DejaVuSans-69" x="707.662109"/>
     <use xlink:href="#DejaVuSans-6e" x="735.445312"/>
     <use xlink:href="#DejaVuSans-20" x="798.824219"/>
     <use xlink:href="#DejaVuSans-6f" x="830.611328"/>
     <use xlink:href="#DejaVuSans-69" x="891.792969"/>
     <use xlink:href="#DejaVuSans-6c" x="919.576172"/>
     <use xlink:href="#DejaVuSans-20" x="947.359375"/>
     <use xlink:href="#DejaVuSans-70" x="979.146484"/>
     <use xlink:href="#DejaVuSans-72" x="1042.623047"/>
     <use xlink:href="#DejaVuSans-69" x="1083.736328"/>
     <use xlink:href="#DejaVuSans-63" x="1111.519531"/>
     <use xlink:href="#DejaVuSans-65" x="1166.5"/>
     <use xlink:href="#DejaVuSans-73" x="1228.023438"/>
     <use xlink:href="#DejaVuSans-20" x="1280.123047"/>
     <use xlink:href="#DejaVuSans-32" x="1311.910156"/>
     <use xlink:href="#DejaVuSans-30" x="1375.533203"/>
     <use xlink:href="#DejaVuSans-32" x="1439.15625"/>
     <use xlink:href="#DejaVuSans-35" x="1502.779297"/>
     <use xlink:href="#DejaVuSans-2d" x="1566.402344"/>
     <use xlink:href="#DejaVuSans-32" x="1602.486328"/>
     <use xlink:href="#DejaVuSans-37" x="1666.109375"/>
    </g>
   </g>
   <g id="text_15">
    <!--  2.5% increase in C 2025-40 -->
    <g transform="translate(622.636364 66.665455)scale(0.14 -0.14)">
     <defs>
      <path id="DejaVuSans-25" d="M 4653 2053 
Q 4381 2053 4226 1822 
Q 4072 1591 4072 1178 
Q 4072 772 4226 539 
Q 4381 306 4653 306 
Q 4919 306 5073 539 
Q 5228 772 5228 1178 
Q 5228 1588 5073 1820 
Q 4919 2053 4653 2053 
z
M 4653 2450 
Q 5147 2450 5437 2106 
Q 5728 1763 5728 1178 
Q 5728 594 5436 251 
Q 5144 -91 4653 -91 
Q 4153 -91 3862 251 
Q 3572 594 3572 1178 
Q 3572 1766 3864 2108 
Q 4156 2450 4653 2450 
z
M 1428 4353 
Q 1159 4353 1004 4120 
Q 850 3888 850 3481 
Q 850 3069 1003 2837 
Q 1156 2606 1428 2606 
Q 1700 2606 1854 2837 
Q 2009 3069 2009 3481 
Q 2009 3884 1853 4118 
Q 1697 4353 1428 4353 
z
M 4250 4750 
L 4750 4750 
L 1831 -91 
L 1331 -91 
L 4250 4750 
z
M 1428 4750 
Q 1922 4750 2215 4408 
Q 2509 4066 2509 3481 
Q 2509 2891 2217 2550 
Q 1925 2209 1428 2209 
Q 931 2209 642 2551 
Q 353 2894 353 3481 
Q 353 4063 643 4406 
Q 934 4750 1428 4750 
z
" transform="scale(0.015625)"/>
      <path id="DejaVuSans-43" d="M 4122 4306 
L 4122 3641 
Q 3803 3938 3442 4084 
Q 3081 4231 2675 4231 
Q 1875 4231 1450 3742 
Q 1025 3253 1025 2328 
Q 1025 1406 1450 917 
Q 1875 428 2675 428 
Q 3081 428 3442 575 
Q 3803 722 4122 1019 
L 4122 359 
Q 3791 134 3420 21 
Q 3050 -91 2638 -91 
Q 1578 -91 968 557 
Q 359 1206 359 2328 
Q 359 3453 968 4101 
Q 1578 4750 2638 4750 
Q 3056 4750 3426 4639 
Q 3797 4528 4122 4306 
z
" transform="scale(0.015625)"/>
     </defs>
     <use xlink:href="#DejaVuSans-20"/>
     <use xlink:href="#DejaVuSans-32" x="31.787109"/>
     <use xlink:href="#DejaVuSans-2e" x="95.410156"/>
     <use xlink:href="#DejaVuSans-35" x="127.197266"/>
     <use xlink:href="#DejaVuSans-25" x="190.820312"/>
     <use xlink:href="#DejaVuSans-20" x="285.839844"/>
     <use xlink:href="#DejaVuSans-69" x="317.626953"/>
     <use xlink:href="#DejaVuSans-6e" x="345.410156"/>
     <use xlink:href="#DejaVuSans-63" x="408.789062"/>
     <use xlink:href="#DejaVuSans-72" x="463.769531"/>
     <use xlink:href="#DejaVuSans-65" x="502.632812"/>
     <use xlink:href="#DejaVuSans-61" x="564.15625"/>
     <use xlink:href="#DejaVuSans-73" x="625.435547"/>
     <use xlink:href="#DejaVuSans-65" x="677.535156"/>
     <use xlink:href="#DejaVuSans-20" x="739.058594"/>
     <use xlink:href="#DejaVuSans-69" x="770.845703"/>
     <use xlink:href="#DejaVuSans-6e" x="798.628906"/>
     <use xlink:href="#DejaVuSans-20" x="862.007812"/>
     <use xlink:href="#DejaVuSans-43" x="893.794922"/>
     <use xlink:href="#DejaVuSans-20" x="963.619141"/>
     <use xlink:href="#DejaVuSans-32" x="995.40625"/>
     <use xlink:href="#DejaVuSans-30" x="1059.029297"/>
     <use xlink:href="#DejaVuSans-32" x="1122.652344"/>
     <use xlink:href="#DejaVuSans-35" x="1186.275391"/>
     <use xlink:href="#DejaVuSans-2d" x="1249.898438"/>
     <use xlink:href="#DejaVuSans-34" x="1285.982422"/>
     <use xlink:href="#DejaVuSans-30" x="1349.605469"/>
    </g>
   </g>
   <g id="text_16">
    <!--  2.5% increase in C 2025-27 - - exog whole period -->
    <g transform="translate(622.636364 234.078553)scale(0.14 -0.14)">
     <defs>
      <path id="DejaVuSans-78" d="M 3513 3500 
L 2247 1797 
L 3578 0 
L 2900 0 
L 1881 1375 
L 863 0 
L 184 0 
L 1544 1831 
L 300 3500 
L 978 3500 
L 1906 2253 
L 2834 3500 
L 3513 3500 
z
" transform="scale(0.015625)"/>
      <path id="DejaVuSans-67" d="M 2906 1791 
Q 2906 2416 2648 2759 
Q 2391 3103 1925 3103 
Q 1463 3103 1205 2759 
Q 947 2416 947 1791 
Q 947 1169 1205 825 
Q 1463 481 1925 481 
Q 2391 481 2648 825 
Q 2906 1169 2906 1791 
z
M 3481 434 
Q 3481 -459 3084 -895 
Q 2688 -1331 1869 -1331 
Q 1566 -1331 1297 -1286 
Q 1028 -1241 775 -1147 
L 775 -588 
Q 1028 -725 1275 -790 
Q 1522 -856 1778 -856 
Q 2344 -856 2625 -561 
Q 2906 -266 2906 331 
L 2906 616 
Q 2728 306 2450 153 
Q 2172 0 1784 0 
Q 1141 0 747 490 
Q 353 981 353 1791 
Q 353 2603 747 3093 
Q 1141 3584 1784 3584 
Q 2172 3584 2450 3431 
Q 2728 3278 2906 2969 
L 2906 3500 
L 3481 3500 
L 3481 434 
z
" transform="scale(0.015625)"/>
      <path id="DejaVuSans-77" d="M 269 3500 
L 844 3500 
L 1563 769 
L 2278 3500 
L 2956 3500 
L 3675 769 
L 4391 3500 
L 4966 3500 
L 4050 0 
L 3372 0 
L 2619 2869 
L 1863 0 
L 1184 0 
L 269 3500 
z
" transform="scale(0.015625)"/>
      <path id="DejaVuSans-68" d="M 3513 2113 
L 3513 0 
L 2938 0 
L 2938 2094 
Q 2938 2591 2744 2837 
Q 2550 3084 2163 3084 
Q 1697 3084 1428 2787 
Q 1159 2491 1159 1978 
L 1159 0 
L 581 0 
L 581 4863 
L 1159 4863 
L 1159 2956 
Q 1366 3272 1645 3428 
Q 1925 3584 2291 3584 
Q 2894 3584 3203 3211 
Q 3513 2838 3513 2113 
z
" transform="scale(0.015625)"/>
      <path id="DejaVuSans-64" d="M 2906 2969 
L 2906 4863 
L 3481 4863 
L 3481 0 
L 2906 0 
L 2906 525 
Q 2725 213 2448 61 
Q 2172 -91 1784 -91 
Q 1150 -91 751 415 
Q 353 922 353 1747 
Q 353 2572 751 3078 
Q 1150 3584 1784 3584 
Q 2172 3584 2448 3432 
Q 2725 3281 2906 2969 
z
M 947 1747 
Q 947 1113 1208 752 
Q 1469 391 1925 391 
Q 2381 391 2643 752 
Q 2906 1113 2906 1747 
Q 2906 2381 2643 2742 
Q 2381 3103 1925 3103 
Q 1469 3103 1208 2742 
Q 947 2381 947 1747 
z
" transform="scale(0.015625)"/>
     </defs>
     <use xlink:href="#DejaVuSans-20"/>
     <use xlink:href="#DejaVuSans-32" x="31.787109"/>
     <use xlink:href="#DejaVuSans-2e" x="95.410156"/>
     <use xlink:href="#DejaVuSans-35" x="127.197266"/>
     <use xlink:href="#DejaVuSans-25" x="190.820312"/>
     <use xlink:href="#DejaVuSans-20" x="285.839844"/>
     <use xlink:href="#DejaVuSans-69" x="317.626953"/>
     <use xlink:href="#DejaVuSans-6e" x="345.410156"/>
     <use xlink:href="#DejaVuSans-63" x="408.789062"/>
     <use xlink:href="#DejaVuSans-72" x="463.769531"/>
     <use xlink:href="#DejaVuSans-65" x="502.632812"/>
     <use xlink:href="#DejaVuSans-61" x="564.15625"/>
     <use xlink:href="#DejaVuSans-73" x="625.435547"/>
     <use xlink:href="#DejaVuSans-65" x="677.535156"/>
     <use xlink:href="#DejaVuSans-20" x="739.058594"/>
     <use xlink:href="#DejaVuSans-69" x="770.845703"/>
     <use xlink:href="#DejaVuSans-6e" x="798.628906"/>
     <use xlink:href="#DejaVuSans-20" x="862.007812"/>
     <use xlink:href="#DejaVuSans-43" x="893.794922"/>
     <use xlink:href="#DejaVuSans-20" x="963.619141"/>
     <use xlink:href="#DejaVuSans-32" x="995.40625"/>
     <use xlink:href="#DejaVuSans-30" x="1059.029297"/>
     <use xlink:href="#DejaVuSans-32" x="1122.652344"/>
     <use xlink:href="#DejaVuSans-35" x="1186.275391"/>
     <use xlink:href="#DejaVuSans-2d" x="1249.898438"/>
     <use xlink:href="#DejaVuSans-32" x="1285.982422"/>
     <use xlink:href="#DejaVuSans-37" x="1349.605469"/>
     <use xlink:href="#DejaVuSans-20" x="1413.228516"/>
     <use xlink:href="#DejaVuSans-2d" x="1445.015625"/>
     <use xlink:href="#DejaVuSans-2d" x="1481.099609"/>
     <use xlink:href="#DejaVuSans-20" x="1517.183594"/>
     <use xlink:href="#DejaVuSans-65" x="1548.970703"/>
     <use xlink:href="#DejaVuSans-78" x="1608.744141"/>
     <use xlink:href="#DejaVuSans-6f" x="1664.798828"/>
     <use xlink:href="#DejaVuSans-67" x="1725.980469"/>
     <use xlink:href="#DejaVuSans-20" x="1789.457031"/>
     <use xlink:href="#DejaVuSans-77" x="1821.244141"/>
     <use xlink:href="#DejaVuSans-68" x="1903.03125"/>
     <use xlink:href="#DejaVuSans-6f" x="1966.410156"/>
     <use xlink:href="#DejaVuSans-6c" x="2027.591797"/>
     <use xlink:href="#DejaVuSans-65" x="2055.375"/>
     <use xlink:href="#DejaVuSans-20" x="2116.898438"/>
     <use xlink:href="#DejaVuSans-70" x="2148.685547"/>
     <use xlink:href="#DejaVuSans-65" x="2212.162109"/>
     <use xlink:href="#DejaVuSans-72" x="2273.685547"/>
     <use xlink:href="#DejaVuSans-69" x="2314.798828"/>
     <use xlink:href="#DejaVuSans-6f" x="2342.582031"/>
     <use xlink:href="#DejaVuSans-64" x="2403.763672"/>
    </g>
   </g>
   <g id="text_17">
    <!--  2.5% increase in C 2025-27 - - exog whole period - -keep_growth=True -->
    <g transform="translate(622.636364 66.665455)scale(0.14 -0.14)">
     <defs>
      <path id="DejaVuSans-6b" d="M 581 4863 
L 1159 4863 
L 1159 1991 
L 2875 3500 
L 3609 3500 
L 1753 1863 
L 3688 0 
L 2938 0 
L 1159 1709 
L 1159 0 
L 581 0 
L 581 4863 
z
" transform="scale(0.015625)"/>
      <path id="DejaVuSans-5f" d="M 3263 -1063 
L 3263 -1509 
L -63 -1509 
L -63 -1063 
L 3263 -1063 
z
" transform="scale(0.015625)"/>
      <path id="DejaVuSans-74" d="M 1172 4494 
L 1172 3500 
L 2356 3500 
L 2356 3053 
L 1172 3053 
L 1172 1153 
Q 1172 725 1289 603 
Q 1406 481 1766 481 
L 2356 481 
L 2356 0 
L 1766 0 
Q 1100 0 847 248 
Q 594 497 594 1153 
L 594 3053 
L 172 3053 
L 172 3500 
L 594 3500 
L 594 4494 
L 1172 4494 
z
" transform="scale(0.015625)"/>
      <path id="DejaVuSans-3d" d="M 678 2906 
L 4684 2906 
L 4684 2381 
L 678 2381 
L 678 2906 
z
M 678 1631 
L 4684 1631 
L 4684 1100 
L 678 1100 
L 678 1631 
z
" transform="scale(0.015625)"/>
      <path id="DejaVuSans-54" d="M -19 4666 
L 3928 4666 
L 3928 4134 
L 2272 4134 
L 2272 0 
L 1638 0 
L 1638 4134 
L -19 4134 
L -19 4666 
z
" transform="scale(0.015625)"/>
      <path id="DejaVuSans-75" d="M 544 1381 
L 544 3500 
L 1119 3500 
L 1119 1403 
Q 1119 906 1312 657 
Q 1506 409 1894 409 
Q 2359 409 2629 706 
Q 2900 1003 2900 1516 
L 2900 3500 
L 3475 3500 
L 3475 0 
L 2900 0 
L 2900 538 
Q 2691 219 2414 64 
Q 2138 -91 1772 -91 
Q 1169 -91 856 284 
Q 544 659 544 1381 
z
M 1991 3584 
L 1991 3584 
z
" transform="scale(0.015625)"/>
     </defs>
     <use xlink:href="#DejaVuSans-20"/>
     <use xlink:href="#DejaVuSans-32" x="31.787109"/>
     <use xlink:href="#DejaVuSans-2e" x="95.410156"/>
     <use xlink:href="#DejaVuSans-35" x="127.197266"/>
     <use xlink:href="#DejaVuSans-25" x="190.820312"/>
     <use xlink:href="#DejaVuSans-20" x="285.839844"/>
     <use xlink:href="#DejaVuSans-69" x="317.626953"/>
     <use xlink:href="#DejaVuSans-6e" x="345.410156"/>
     <use xlink:href="#DejaVuSans-63" x="408.789062"/>
     <use xlink:href="#DejaVuSans-72" x="463.769531"/>
     <use xlink:href="#DejaVuSans-65" x="502.632812"/>
     <use xlink:href="#DejaVuSans-61" x="564.15625"/>
     <use xlink:href="#DejaVuSans-73" x="625.435547"/>
     <use xlink:href="#DejaVuSans-65" x="677.535156"/>
     <use xlink:href="#DejaVuSans-20" x="739.058594"/>
     <use xlink:href="#DejaVuSans-69" x="770.845703"/>
     <use xlink:href="#DejaVuSans-6e" x="798.628906"/>
     <use xlink:href="#DejaVuSans-20" x="862.007812"/>
     <use xlink:href="#DejaVuSans-43" x="893.794922"/>
     <use xlink:href="#DejaVuSans-20" x="963.619141"/>
     <use xlink:href="#DejaVuSans-32" x="995.40625"/>
     <use xlink:href="#DejaVuSans-30" x="1059.029297"/>
     <use xlink:href="#DejaVuSans-32" x="1122.652344"/>
     <use xlink:href="#DejaVuSans-35" x="1186.275391"/>
     <use xlink:href="#DejaVuSans-2d" x="1249.898438"/>
     <use xlink:href="#DejaVuSans-32" x="1285.982422"/>
     <use xlink:href="#DejaVuSans-37" x="1349.605469"/>
     <use xlink:href="#DejaVuSans-20" x="1413.228516"/>
     <use xlink:href="#DejaVuSans-2d" x="1445.015625"/>
     <use xlink:href="#DejaVuSans-2d" x="1481.099609"/>
     <use xlink:href="#DejaVuSans-20" x="1517.183594"/>
     <use xlink:href="#DejaVuSans-65" x="1548.970703"/>
     <use xlink:href="#DejaVuSans-78" x="1608.744141"/>
     <use xlink:href="#DejaVuSans-6f" x="1664.798828"/>
     <use xlink:href="#DejaVuSans-67" x="1725.980469"/>
     <use xlink:href="#DejaVuSans-20" x="1789.457031"/>
     <use xlink:href="#DejaVuSans-77" x="1821.244141"/>
     <use xlink:href="#DejaVuSans-68" x="1903.03125"/>
     <use xlink:href="#DejaVuSans-6f" x="1966.410156"/>
     <use xlink:href="#DejaVuSans-6c" x="2027.591797"/>
     <use xlink:href="#DejaVuSans-65" x="2055.375"/>
     <use xlink:href="#DejaVuSans-20" x="2116.898438"/>
     <use xlink:href="#DejaVuSans-70" x="2148.685547"/>
     <use xlink:href="#DejaVuSans-65" x="2212.162109"/>
     <use xlink:href="#DejaVuSans-72" x="2273.685547"/>
     <use xlink:href="#DejaVuSans-69" x="2314.798828"/>
     <use xlink:href="#DejaVuSans-6f" x="2342.582031"/>
     <use xlink:href="#DejaVuSans-64" x="2403.763672"/>
     <use xlink:href="#DejaVuSans-20" x="2467.240234"/>
     <use xlink:href="#DejaVuSans-2d" x="2499.027344"/>
     <use xlink:href="#DejaVuSans-2d" x="2535.111328"/>
     <use xlink:href="#DejaVuSans-6b" x="2571.195312"/>
     <use xlink:href="#DejaVuSans-65" x="2625.480469"/>
     <use xlink:href="#DejaVuSans-65" x="2687.003906"/>
     <use xlink:href="#DejaVuSans-70" x="2748.527344"/>
     <use xlink:href="#DejaVuSans-5f" x="2812.003906"/>
     <use xlink:href="#DejaVuSans-67" x="2862.003906"/>
     <use xlink:href="#DejaVuSans-72" x="2925.480469"/>
     <use xlink:href="#DejaVuSans-6f" x="2964.34375"/>
     <use xlink:href="#DejaVuSans-77" x="3025.525391"/>
     <use xlink:href="#DejaVuSans-74" x="3107.3125"/>
     <use xlink:href="#DejaVuSans-68" x="3146.521484"/>
     <use xlink:href="#DejaVuSans-3d" x="3209.900391"/>
     <use xlink:href="#DejaVuSans-54" x="3293.689453"/>
     <use xlink:href="#DejaVuSans-72" x="3340.023438"/>
     <use xlink:href="#DejaVuSans-75" x="3381.136719"/>
     <use xlink:href="#DejaVuSans-65" x="3444.515625"/>
    </g>
   </g>
   <g id="text_18">
    <!--  2.5% increase in C 2025-27 - - temporarily exogenized -->
    <g transform="translate(622.636364 236.906849)scale(0.14 -0.14)">
     <defs>
      <path id="DejaVuSans-6d" d="M 3328 2828 
Q 3544 3216 3844 3400 
Q 4144 3584 4550 3584 
Q 5097 3584 5394 3201 
Q 5691 2819 5691 2113 
L 5691 0 
L 5113 0 
L 5113 2094 
Q 5113 2597 4934 2840 
Q 4756 3084 4391 3084 
Q 3944 3084 3684 2787 
Q 3425 2491 3425 1978 
L 3425 0 
L 2847 0 
L 2847 2094 
Q 2847 2600 2669 2842 
Q 2491 3084 2119 3084 
Q 1678 3084 1418 2786 
Q 1159 2488 1159 1978 
L 1159 0 
L 581 0 
L 581 3500 
L 1159 3500 
L 1159 2956 
Q 1356 3278 1631 3431 
Q 1906 3584 2284 3584 
Q 2666 3584 2933 3390 
Q 3200 3197 3328 2828 
z
" transform="scale(0.015625)"/>
      <path id="DejaVuSans-79" d="M 2059 -325 
Q 1816 -950 1584 -1140 
Q 1353 -1331 966 -1331 
L 506 -1331 
L 506 -850 
L 844 -850 
Q 1081 -850 1212 -737 
Q 1344 -625 1503 -206 
L 1606 56 
L 191 3500 
L 800 3500 
L 1894 763 
L 2988 3500 
L 3597 3500 
L 2059 -325 
z
" transform="scale(0.015625)"/>
      <path id="DejaVuSans-7a" d="M 353 3500 
L 3084 3500 
L 3084 2975 
L 922 459 
L 3084 459 
L 3084 0 
L 275 0 
L 275 525 
L 2438 3041 
L 353 3041 
L 353 3500 
z
" transform="scale(0.015625)"/>
     </defs>
     <use xlink:href="#DejaVuSans-20"/>
     <use xlink:href="#DejaVuSans-32" x="31.787109"/>
     <use xlink:href="#DejaVuSans-2e" x="95.410156"/>
     <use xlink:href="#DejaVuSans-35" x="127.197266"/>
     <use xlink:href="#DejaVuSans-25" x="190.820312"/>
     <use xlink:href="#DejaVuSans-20" x="285.839844"/>
     <use xlink:href="#DejaVuSans-69" x="317.626953"/>
     <use xlink:href="#DejaVuSans-6e" x="345.410156"/>
     <use xlink:href="#DejaVuSans-63" x="408.789062"/>
     <use xlink:href="#DejaVuSans-72" x="463.769531"/>
     <use xlink:href="#DejaVuSans-65" x="502.632812"/>
     <use xlink:href="#DejaVuSans-61" x="564.15625"/>
     <use xlink:href="#DejaVuSans-73" x="625.435547"/>
     <use xlink:href="#DejaVuSans-65" x="677.535156"/>
     <use xlink:href="#DejaVuSans-20" x="739.058594"/>
     <use xlink:href="#DejaVuSans-69" x="770.845703"/>
     <use xlink:href="#DejaVuSans-6e" x="798.628906"/>
     <use xlink:href="#DejaVuSans-20" x="862.007812"/>
     <use xlink:href="#DejaVuSans-43" x="893.794922"/>
     <use xlink:href="#DejaVuSans-20" x="963.619141"/>
     <use xlink:href="#DejaVuSans-32" x="995.40625"/>
     <use xlink:href="#DejaVuSans-30" x="1059.029297"/>
     <use xlink:href="#DejaVuSans-32" x="1122.652344"/>
     <use xlink:href="#DejaVuSans-35" x="1186.275391"/>
     <use xlink:href="#DejaVuSans-2d" x="1249.898438"/>
     <use xlink:href="#DejaVuSans-32" x="1285.982422"/>
     <use xlink:href="#DejaVuSans-37" x="1349.605469"/>
     <use xlink:href="#DejaVuSans-20" x="1413.228516"/>
     <use xlink:href="#DejaVuSans-2d" x="1445.015625"/>
     <use xlink:href="#DejaVuSans-2d" x="1481.099609"/>
     <use xlink:href="#DejaVuSans-20" x="1517.183594"/>
     <use xlink:href="#DejaVuSans-74" x="1548.970703"/>
     <use xlink:href="#DejaVuSans-65" x="1588.179688"/>
     <use xlink:href="#DejaVuSans-6d" x="1649.703125"/>
     <use xlink:href="#DejaVuSans-70" x="1747.115234"/>
     <use xlink:href="#DejaVuSans-6f" x="1810.591797"/>
     <use xlink:href="#DejaVuSans-72" x="1871.773438"/>
     <use xlink:href="#DejaVuSans-61" x="1912.886719"/>
     <use xlink:href="#DejaVuSans-72" x="1974.166016"/>
     <use xlink:href="#DejaVuSans-69" x="2015.279297"/>
     <use xlink:href="#DejaVuSans-6c" x="2043.0625"/>
     <use xlink:href="#DejaVuSans-79" x="2070.845703"/>
     <use xlink:href="#DejaVuSans-20" x="2130.025391"/>
     <use xlink:href="#DejaVuSans-65" x="2161.8125"/>
     <use xlink:href="#DejaVuSans-78" x="2221.585938"/>
     <use xlink:href="#DejaVuSans-6f" x="2277.640625"/>
     <use xlink:href="#DejaVuSans-67" x="2338.822266"/>
     <use xlink:href="#DejaVuSans-65" x="2402.298828"/>
     <use xlink:href="#DejaVuSans-6e" x="2463.822266"/>
     <use xlink:href="#DejaVuSans-69" x="2527.201172"/>
     <use xlink:href="#DejaVuSans-7a" x="2554.984375"/>
     <use xlink:href="#DejaVuSans-65" x="2607.474609"/>
     <use xlink:href="#DejaVuSans-64" x="2668.998047"/>
    </g>
   </g>
   <g id="text_19">
    <!--  1 % of GDP increase in FDI and private investment (AF shock) -->
    <g transform="translate(622.636364 236.291422)scale(0.14 -0.14)">
     <defs>
      <path id="DejaVuSans-31" d="M 794 531 
L 1825 531 
L 1825 4091 
L 703 3866 
L 703 4441 
L 1819 4666 
L 2450 4666 
L 2450 531 
L 3481 531 
L 3481 0 
L 794 0 
L 794 531 
z
" transform="scale(0.015625)"/>
      <path id="DejaVuSans-66" d="M 2375 4863 
L 2375 4384 
L 1825 4384 
Q 1516 4384 1395 4259 
Q 1275 4134 1275 3809 
L 1275 3500 
L 2222 3500 
L 2222 3053 
L 1275 3053 
L 1275 0 
L 697 0 
L 697 3053 
L 147 3053 
L 147 3500 
L 697 3500 
L 697 3744 
Q 697 4328 969 4595 
Q 1241 4863 1831 4863 
L 2375 4863 
z
" transform="scale(0.015625)"/>
      <path id="DejaVuSans-47" d="M 3809 666 
L 3809 1919 
L 2778 1919 
L 2778 2438 
L 4434 2438 
L 4434 434 
Q 4069 175 3628 42 
Q 3188 -91 2688 -91 
Q 1594 -91 976 548 
Q 359 1188 359 2328 
Q 359 3472 976 4111 
Q 1594 4750 2688 4750 
Q 3144 4750 3555 4637 
Q 3966 4525 4313 4306 
L 4313 3634 
Q 3963 3931 3569 4081 
Q 3175 4231 2741 4231 
Q 1884 4231 1454 3753 
Q 1025 3275 1025 2328 
Q 1025 1384 1454 906 
Q 1884 428 2741 428 
Q 3075 428 3337 486 
Q 3600 544 3809 666 
z
" transform="scale(0.015625)"/>
      <path id="DejaVuSans-44" d="M 1259 4147 
L 1259 519 
L 2022 519 
Q 2988 519 3436 956 
Q 3884 1394 3884 2338 
Q 3884 3275 3436 3711 
Q 2988 4147 2022 4147 
L 1259 4147 
z
M 628 4666 
L 1925 4666 
Q 3281 4666 3915 4102 
Q 4550 3538 4550 2338 
Q 4550 1131 3912 565 
Q 3275 0 1925 0 
L 628 0 
L 628 4666 
z
" transform="scale(0.015625)"/>
      <path id="DejaVuSans-50" d="M 1259 4147 
L 1259 2394 
L 2053 2394 
Q 2494 2394 2734 2622 
Q 2975 2850 2975 3272 
Q 2975 3691 2734 3919 
Q 2494 4147 2053 4147 
L 1259 4147 
z
M 628 4666 
L 2053 4666 
Q 2838 4666 3239 4311 
Q 3641 3956 3641 3272 
Q 3641 2581 3239 2228 
Q 2838 1875 2053 1875 
L 1259 1875 
L 1259 0 
L 628 0 
L 628 4666 
z
" transform="scale(0.015625)"/>
      <path id="DejaVuSans-46" d="M 628 4666 
L 3309 4666 
L 3309 4134 
L 1259 4134 
L 1259 2759 
L 3109 2759 
L 3109 2228 
L 1259 2228 
L 1259 0 
L 628 0 
L 628 4666 
z
" transform="scale(0.015625)"/>
      <path id="DejaVuSans-49" d="M 628 4666 
L 1259 4666 
L 1259 0 
L 628 0 
L 628 4666 
z
" transform="scale(0.015625)"/>
      <path id="DejaVuSans-76" d="M 191 3500 
L 800 3500 
L 1894 563 
L 2988 3500 
L 3597 3500 
L 2284 0 
L 1503 0 
L 191 3500 
z
" transform="scale(0.015625)"/>
      <path id="DejaVuSans-28" d="M 1984 4856 
Q 1566 4138 1362 3434 
Q 1159 2731 1159 2009 
Q 1159 1288 1364 580 
Q 1569 -128 1984 -844 
L 1484 -844 
Q 1016 -109 783 600 
Q 550 1309 550 2009 
Q 550 2706 781 3412 
Q 1013 4119 1484 4856 
L 1984 4856 
z
" transform="scale(0.015625)"/>
      <path id="DejaVuSans-41" d="M 2188 4044 
L 1331 1722 
L 3047 1722 
L 2188 4044 
z
M 1831 4666 
L 2547 4666 
L 4325 0 
L 3669 0 
L 3244 1197 
L 1141 1197 
L 716 0 
L 50 0 
L 1831 4666 
z
" transform="scale(0.015625)"/>
      <path id="DejaVuSans-29" d="M 513 4856 
L 1013 4856 
Q 1481 4119 1714 3412 
Q 1947 2706 1947 2009 
Q 1947 1309 1714 600 
Q 1481 -109 1013 -844 
L 513 -844 
Q 928 -128 1133 580 
Q 1338 1288 1338 2009 
Q 1338 2731 1133 3434 
Q 928 4138 513 4856 
z
" transform="scale(0.015625)"/>
     </defs>
     <use xlink:href="#DejaVuSans-20"/>
     <use xlink:href="#DejaVuSans-31" x="31.787109"/>
     <use xlink:href="#DejaVuSans-20" x="95.410156"/>
     <use xlink:href="#DejaVuSans-25" x="127.197266"/>
     <use xlink:href="#DejaVuSans-20" x="222.216797"/>
     <use xlink:href="#DejaVuSans-6f" x="254.003906"/>
     <use xlink:href="#DejaVuSans-66" x="315.185547"/>
     <use xlink:href="#DejaVuSans-20" x="350.390625"/>
     <use xlink:href="#DejaVuSans-47" x="382.177734"/>
     <use xlink:href="#DejaVuSans-44" x="459.667969"/>
     <use xlink:href="#DejaVuSans-50" x="536.669922"/>
     <use xlink:href="#DejaVuSans-20" x="596.972656"/>
     <use xlink:href="#DejaVuSans-69" x="628.759766"/>
     <use xlink:href="#DejaVuSans-6e" x="656.542969"/>
     <use xlink:href="#DejaVuSans-63" x="719.921875"/>
     <use xlink:href="#DejaVuSans-72" x="774.902344"/>
     <use xlink:href="#DejaVuSans-65" x="813.765625"/>
     <use xlink:href="#DejaVuSans-61" x="875.289062"/>
     <use xlink:href="#DejaVuSans-73" x="936.568359"/>
     <use xlink:href="#DejaVuSans-65" x="988.667969"/>
     <use xlink:href="#DejaVuSans-20" x="1050.191406"/>
     <use xlink:href="#DejaVuSans-69" x="1081.978516"/>
     <use xlink:href="#DejaVuSans-6e" x="1109.761719"/>
     <use xlink:href="#DejaVuSans-20" x="1173.140625"/>
     <use xlink:href="#DejaVuSans-46" x="1204.927734"/>
     <use xlink:href="#DejaVuSans-44" x="1262.447266"/>
     <use xlink:href="#DejaVuSans-49" x="1339.449219"/>
     <use xlink:href="#DejaVuSans-20" x="1368.941406"/>
     <use xlink:href="#DejaVuSans-61" x="1400.728516"/>
     <use xlink:href="#DejaVuSans-6e" x="1462.007812"/>
     <use xlink:href="#DejaVuSans-64" x="1525.386719"/>
     <use xlink:href="#DejaVuSans-20" x="1588.863281"/>
     <use xlink:href="#DejaVuSans-70" x="1620.650391"/>
     <use xlink:href="#DejaVuSans-72" x="1684.126953"/>
     <use xlink:href="#DejaVuSans-69" x="1725.240234"/>
     <use xlink:href="#DejaVuSans-76" x="1753.023438"/>
     <use xlink:href="#DejaVuSans-61" x="1812.203125"/>
     <use xlink:href="#DejaVuSans-74" x="1873.482422"/>
     <use xlink:href="#DejaVuSans-65" x="1912.691406"/>
     <use xlink:href="#DejaVuSans-20" x="1974.214844"/>
     <use xlink:href="#DejaVuSans-69" x="2006.001953"/>
     <use xlink:href="#DejaVuSans-6e" x="2033.785156"/>
     <use xlink:href="#DejaVuSans-76" x="2097.164062"/>
     <use xlink:href="#DejaVuSans-65" x="2156.34375"/>
     <use xlink:href="#DejaVuSans-73" x="2217.867188"/>
     <use xlink:href="#DejaVuSans-74" x="2269.966797"/>
     <use xlink:href="#DejaVuSans-6d" x="2309.175781"/>
     <use xlink:href="#DejaVuSans-65" x="2406.587891"/>
     <use xlink:href="#DejaVuSans-6e" x="2468.111328"/>
     <use xlink:href="#DejaVuSans-74" x="2531.490234"/>
     <use xlink:href="#DejaVuSans-20" x="2570.699219"/>
     <use xlink:href="#DejaVuSans-28" x="2602.486328"/>
     <use xlink:href="#DejaVuSans-41" x="2641.5"/>
     <use xlink:href="#DejaVuSans-46" x="2709.908203"/>
     <use xlink:href="#DejaVuSans-20" x="2767.427734"/>
     <use xlink:href="#DejaVuSans-73" x="2799.214844"/>
     <use xlink:href="#DejaVuSans-68" x="2851.314453"/>
     <use xlink:href="#DejaVuSans-6f" x="2914.693359"/>
     <use xlink:href="#DejaVuSans-63" x="2975.875"/>
     <use xlink:href="#DejaVuSans-6b" x="3030.855469"/>
     <use xlink:href="#DejaVuSans-29" x="3088.765625"/>
    </g>
   </g>
   <g id="text_20">
    <!-- Difference in percent to "Baseline" for Level: Imports real -->
    <g transform="translate(168.07375 45.84)scale(0.14 -0.14)">
     <defs>
      <path id="DejaVuSans-22" d="M 1147 4666 
L 1147 2931 
L 616 2931 
L 616 4666 
L 1147 4666 
z
M 2328 4666 
L 2328 2931 
L 1797 2931 
L 1797 4666 
L 2328 4666 
z
" transform="scale(0.015625)"/>
      <path id="DejaVuSans-42" d="M 1259 2228 
L 1259 519 
L 2272 519 
Q 2781 519 3026 730 
Q 3272 941 3272 1375 
Q 3272 1813 3026 2020 
Q 2781 2228 2272 2228 
L 1259 2228 
z
M 1259 4147 
L 1259 2741 
L 2194 2741 
Q 2656 2741 2882 2914 
Q 3109 3088 3109 3444 
Q 3109 3797 2882 3972 
Q 2656 4147 2194 4147 
L 1259 4147 
z
M 628 4666 
L 2241 4666 
Q 2963 4666 3353 4366 
Q 3744 4066 3744 3513 
Q 3744 3084 3544 2831 
Q 3344 2578 2956 2516 
Q 3422 2416 3680 2098 
Q 3938 1781 3938 1306 
Q 3938 681 3513 340 
Q 3088 0 2303 0 
L 628 0 
L 628 4666 
z
" transform="scale(0.015625)"/>
      <path id="DejaVuSans-4c" d="M 628 4666 
L 1259 4666 
L 1259 531 
L 3531 531 
L 3531 0 
L 628 0 
L 628 4666 
z
" transform="scale(0.015625)"/>
      <path id="DejaVuSans-3a" d="M 750 794 
L 1409 794 
L 1409 0 
L 750 0 
L 750 794 
z
M 750 3309 
L 1409 3309 
L 1409 2516 
L 750 2516 
L 750 3309 
z
" transform="scale(0.015625)"/>
     </defs>
     <use xlink:href="#DejaVuSans-44"/>
     <use xlink:href="#DejaVuSans-69" x="77.001953"/>
     <use xlink:href="#DejaVuSans-66" x="104.785156"/>
     <use xlink:href="#DejaVuSans-66" x="139.990234"/>
     <use xlink:href="#DejaVuSans-65" x="175.195312"/>
     <use xlink:href="#DejaVuSans-72" x="236.71875"/>
     <use xlink:href="#DejaVuSans-65" x="275.582031"/>
     <use xlink:href="#DejaVuSans-6e" x="337.105469"/>
     <use xlink:href="#DejaVuSans-63" x="400.484375"/>
     <use xlink:href="#DejaVuSans-65" x="455.464844"/>
     <use xlink:href="#DejaVuSans-20" x="516.988281"/>
     <use xlink:href="#DejaVuSans-69" x="548.775391"/>
     <use xlink:href="#DejaVuSans-6e" x="576.558594"/>
     <use xlink:href="#DejaVuSans-20" x="639.9375"/>
     <use xlink:href="#DejaVuSans-70" x="671.724609"/>
     <use xlink:href="#DejaVuSans-65" x="735.201172"/>
     <use xlink:href="#DejaVuSans-72" x="796.724609"/>
     <use xlink:href="#DejaVuSans-63" x="835.587891"/>
     <use xlink:href="#DejaVuSans-65" x="890.568359"/>
     <use xlink:href="#DejaVuSans-6e" x="952.091797"/>
     <use xlink:href="#DejaVuSans-74" x="1015.470703"/>
     <use xlink:href="#DejaVuSans-20" x="1054.679688"/>
     <use xlink:href="#DejaVuSans-74" x="1086.466797"/>
     <use xlink:href="#DejaVuSans-6f" x="1125.675781"/>
     <use xlink:href="#DejaVuSans-20" x="1186.857422"/>
     <use xlink:href="#DejaVuSans-22" x="1218.644531"/>
     <use xlink:href="#DejaVuSans-42" x="1264.640625"/>
     <use xlink:href="#DejaVuSans-61" x="1333.244141"/>
     <use xlink:href="#DejaVuSans-73" x="1394.523438"/>
     <use xlink:href="#DejaVuSans-65" x="1446.623047"/>
     <use xlink:href="#DejaVuSans-6c" x="1508.146484"/>
     <use xlink:href="#DejaVuSans-69" x="1535.929688"/>
     <use xlink:href="#DejaVuSans-6e" x="1563.712891"/>
     <use xlink:href="#DejaVuSans-65" x="1627.091797"/>
     <use xlink:href="#DejaVuSans-22" x="1688.615234"/>
     <use xlink:href="#DejaVuSans-20" x="1734.611328"/>
     <use xlink:href="#DejaVuSans-66" x="1766.398438"/>
     <use xlink:href="#DejaVuSans-6f" x="1801.603516"/>
     <use xlink:href="#DejaVuSans-72" x="1862.785156"/>
     <use xlink:href="#DejaVuSans-20" x="1903.898438"/>
     <use xlink:href="#DejaVuSans-4c" x="1935.685547"/>
     <use xlink:href="#DejaVuSans-65" x="1989.648438"/>
     <use xlink:href="#DejaVuSans-76" x="2051.171875"/>
     <use xlink:href="#DejaVuSans-65" x="2110.351562"/>
     <use xlink:href="#DejaVuSans-6c" x="2171.875"/>
     <use xlink:href="#DejaVuSans-3a" x="2199.658203"/>
     <use xlink:href="#DejaVuSans-20" x="2233.349609"/>
     <use xlink:href="#DejaVuSans-49" x="2265.136719"/>
     <use xlink:href="#DejaVuSans-6d" x="2294.628906"/>
     <use xlink:href="#DejaVuSans-70" x="2392.041016"/>
     <use xlink:href="#DejaVuSans-6f" x="2455.517578"/>
     <use xlink:href="#DejaVuSans-72" x="2516.699219"/>
     <use xlink:href="#DejaVuSans-74" x="2557.8125"/>
     <use xlink:href="#DejaVuSans-73" x="2597.021484"/>
     <use xlink:href="#DejaVuSans-20" x="2649.121094"/>
     <use xlink:href="#DejaVuSans-72" x="2680.908203"/>
     <use xlink:href="#DejaVuSans-65" x="2719.771484"/>
     <use xlink:href="#DejaVuSans-61" x="2781.294922"/>
     <use xlink:href="#DejaVuSans-6c" x="2842.574219"/>
    </g>
   </g>
  </g>
 </g>
 <defs>
  <clipPath id="p654d67bb9f">
   <rect x="90" y="51.84" width="558" height="326.16"/>
  </clipPath>
 </defs>
</svg>
