<?xml version="1.0" encoding="UTF-8" standalone="no"?>
<!DOCTYPE svg PUBLIC "-//W3C//DTD SVG 1.1//EN"
 "http://www.w3.org/Graphics/SVG/1.1/DTD/svg11.dtd">
<!-- Generated by graphviz version 6.0.1 (0)
 -->
<!-- Title: TD Pages: 1 -->
<svg width="432pt" height="377pt"
 viewBox="0.00 0.00 432.00 377.23" xmlns="http://www.w3.org/2000/svg" xmlns:xlink="http://www.w3.org/1999/xlink">
<g id="graph0" class="graph" transform="scale(0.382979 0.382979) rotate(0) translate(4 981)">
<title>TD</title>
<polygon fill="white" stroke="none" points="-4,4 -4,-981 1124,-981 1124,4 -4,4"/>
<text text-anchor="middle" x="560" y="-7.8" font-family="Times New Roman,serif" font-size="14.00">PAKNECONPRVTKN</text>
<!-- PAKSMSRVWHSLKN -->
<g id="node1" class="node">
<title>PAKSMSRVWHSLKN</title>
<g id="a_node1"><a xlink:title="PAKSMSRVWHSLKN&#10;FRML &#160;&lt;&gt; PAKSMSRVWHSLKN = ((1+1.17766663382018E&#45;08)*(0*PAKNECONPRVTKN+0*PAKNECONGOVTKN+0*PAKNEGDIFTOTKN+0*PAKNEEXPGNFSKN+0*PAKNEGDISTKBKN)&#45;0*PAKNEIMPGNFSKN&#45;0*PAKNYTAXNINDKN&#45;&#45;4160770)/(1+0.265916086910196) $">
<polygon fill="#63b8ff" stroke="black" points="992,-977 845,-977 845,-941 992,-941 992,-977"/>
<text text-anchor="start" x="851.5" y="-954.8" font-family="Times New Roman,serif" font-size="14.00" fill="blue">PAKSMSRVWHSLKN:</text>
</a>
</g>
</g>
<!-- PAKNYGDPMKTPKN -->
<g id="node2" class="node">
<title>PAKNYGDPMKTPKN</title>
<g id="a_node2"><a xlink:title="GDP Expenditure side at market prices&#10;FRML &#160;&lt;&gt; PAKNYGDPMKTPKN = PAKNECONPRVTKN+PAKNECONGOVTKN+PAKNEGDIFTOTKN+PAKNEGDISTKBKN+PAKNEEXPGNFSKN&#45;PAKNEIMPGNFSKN+PAKNYGDPDISCKN+PAKADAP*PAKDISPREPKN $">
<polygon fill="#63b8ff" stroke="black" points="1099,-923 738,-923 738,-887 1099,-887 1099,-923"/>
<text text-anchor="start" x="744.5" y="-900.8" font-family="Times New Roman,serif" font-size="14.00" fill="blue">PAKNYGDPMKTPKN:GDP Expenditure side at market prices</text>
</a>
</g>
</g>
<!-- PAKSMSRVFINSKN -->
<g id="node3" class="node">
<title>PAKSMSRVFINSKN</title>
<g id="a_node3"><a xlink:title="PAKSMSRVFINSKN&#10;FRML &#160;&lt;&gt; PAKSMSRVFINSKN = ((1+1.04148314760779)*(0.0520379651885469*PAKNECONPRVTKN+0*PAKNECONGOVTKN+0*PAKNEGDIFTOTKN+0.00879145012359898*PAKNEEXPGNFSKN+0*PAKNEGDISTKBKN)&#45;0.00594416979264236*PAKNEIMPGNFSKN&#45;0.000103762679145856*PAKNYTAXNINDKN&#45;0)/(1+0.24687745523084) $">
<polygon fill="#63b8ff" stroke="black" points="987,-869 850,-869 850,-833 987,-833 987,-869"/>
<text text-anchor="start" x="856.5" y="-846.8" font-family="Times New Roman,serif" font-size="14.00" fill="blue">PAKSMSRVFINSKN:</text>
</a>
</g>
</g>
<!-- PAKSMINDMNGSKN -->
<g id="node4" class="node">
<title>PAKSMINDMNGSKN</title>
<g id="a_node4"><a xlink:title="PAKSMINDMNGSKN&#10;FRML &#160;&lt;&gt; PAKSMINDMNGSKN = ((1+6.96158341862144)*(0.0132800565666619*PAKNECONPRVTKN+0*PAKNECONGOVTKN+0*PAKNEGDIFTOTKN+0.00704674623894759*PAKNEEXPGNFSKN+0.024122890632682*PAKNEGDISTKBKN)&#45;0.134221966110302*PAKNEIMPGNFSKN&#45;0.500981557895139*PAKNYTAXNINDKN&#45;123652.869264758)/(1+0.200800622280983) $">
<polygon fill="#63b8ff" stroke="black" points="991.5,-815 845.5,-815 845.5,-779 991.5,-779 991.5,-815"/>
<text text-anchor="start" x="851.5" y="-792.8" font-family="Times New Roman,serif" font-size="14.00" fill="blue">PAKSMINDMNGSKN:</text>
</a>
</g>
</g>
<!-- PAKNECONPRVTCN -->
<g id="node5" class="node">
<title>PAKNECONPRVTCN</title>
<g id="a_node5"><a xlink:title="Household demand&#10;FRML &#160;&lt;&gt; PAKNECONPRVTCN = PAKNECONPRVTKN*PAKNECONPRVTXN $">
<polygon fill="#63b8ff" stroke="black" points="1042,-761 795,-761 795,-725 1042,-725 1042,-761"/>
<text text-anchor="start" x="801.5" y="-738.8" font-family="Times New Roman,serif" font-size="14.00" fill="blue">PAKNECONPRVTCN:Household demand</text>
</a>
</g>
</g>
<!-- PAKSMENGTOTLKN -->
<g id="node6" class="node">
<title>PAKSMENGTOTLKN</title>
<g id="a_node6"><a xlink:title="PAKSMENGTOTLKN&#10;FRML &#160;&lt;&gt; PAKSMENGTOTLKN = ((1+1.65868473220397)*(0.0775261497897936*PAKNECONPRVTKN+0*PAKNECONGOVTKN+0*PAKNEGDIFTOTKN+0.0217448978257548*PAKNEEXPGNFSKN+0.0458991644104248*PAKNEGDISTKBKN)&#45;0.11894699850705*PAKNEIMPGNFSKN&#45;&#45;0.50579180838529*PAKNYTAXNINDKN&#45;0)/(1+5.65663938581514) $">
<polygon fill="#63b8ff" stroke="black" points="991,-707 846,-707 846,-671 991,-671 991,-707"/>
<text text-anchor="start" x="852.5" y="-684.8" font-family="Times New Roman,serif" font-size="14.00" fill="blue">PAKSMENGTOTLKN:</text>
</a>
</g>
</g>
<!-- PAKNECONPRVTKN_A -->
<g id="node7" class="node">
<title>PAKNECONPRVTKN_A</title>
<g id="a_node7"><a xlink:title="Add factor:Household Consumption&#10;Exogen">
<polygon fill="yellow" stroke="black" points="362,-707 5,-707 5,-671 362,-671 362,-707"/>
<text text-anchor="start" x="11.5" y="-684.8" font-family="Times New Roman,serif" font-size="14.00" fill="blue">PAKNECONPRVTKN_A:Add factor:Household Consumption</text>
</a>
</g>
</g>
<!-- PAKNECONPRVTKN -->
<g id="node14" class="node">
<title>PAKNECONPRVTKN</title>
<g id="a_node14"><a xlink:title="Household Consumption&#10;FRML &lt;Z,EXO&gt; PAKNECONPRVTKN = (PAKNECONPRVTKN(&#45;1)*EXP(&#45;PAKNECONPRVTKN_A+ (&#45;0.2*(LOG(PAKNECONPRVTKN(&#45;1))&#45;LOG((PAKNYYWBTOTLCN(&#45;1)*(1&#45;PAKGGREVDRCTXN(&#45;1)/100))/PAKNECONPRVTXN(&#45;1)))+1*((LOG((PAKNYYWBTOTLCN*(1&#45;PAKGGREVDRCTXN/100))/PAKNECONPRVTXN))&#45;(LOG((PAKNYYWBTOTLCN(&#45;1)*(1&#45;PAKGGREVDRCTXN(&#45;1)/100))/PAKNECONPRVTXN(&#45;1))))+0.0303228629698929+0.0163839011059956*DURING_2010&#45;0.3*(PAKFMLBLPOLYXN/100&#45;((LOG(PAKNECONPRVTXN))&#45;(LOG(PAKNECONPRVTXN(&#45;1)))))) )) * (1&#45;PAKNECONPRVTKN_D)+ PAKNECONPRVTKN_X*PAKNECONPRVTKN_D &#160;$">
<polygon fill="red" stroke="black" points="681,-518 403,-518 403,-482 681,-482 681,-518"/>
<text text-anchor="start" x="409" y="-495.8" font-family="Times New Roman,serif" font-size="14.00" fill="blue">PAKNECONPRVTKN:Household Consumption</text>
</a>
</g>
</g>
<!-- PAKNECONPRVTKN_A&#45;&gt;PAKNECONPRVTKN -->
<g id="edge8" class="edge">
<title>PAKNECONPRVTKN_A&#45;&gt;PAKNECONPRVTKN</title>
<g id="a_edge8"><a xlink:href="bogus" xlink:title=" PAKNECONPRVTKN_A &#45;&gt; PAKNECONPRVTKN Min. att. &#45;0% &#160;max: 0%">
<path fill="none" stroke="black" d="M345.42,-670.88C352.84,-668.28 360.07,-665.33 367,-662 433.63,-629.95 492.21,-563.43 521.38,-526.37"/>
<polygon fill="black" stroke="black" points="524.46,-528.11 527.82,-518.06 518.93,-523.83 524.46,-528.11"/>
</a>
</g>
</g>
<!-- PAKNECONENGYKN -->
<g id="node8" class="node">
<title>PAKNECONENGYKN</title>
<g id="a_node8"><a xlink:title="Energy Consumption&#10;FRML &#160;&lt;&gt; PAKNECONENGYKN = PAKNECONENGYSH**(PAKCESENGYCON)*(PAKNECONPRVTKN*(PAKNECONPRVTXN/PAKNECONENGYXN)**(PAKCESENGYCON)) $">
<polygon fill="#63b8ff" stroke="black" points="1049.5,-653 787.5,-653 787.5,-617 1049.5,-617 1049.5,-653"/>
<text text-anchor="start" x="793.5" y="-630.8" font-family="Times New Roman,serif" font-size="14.00" fill="blue">PAKNECONENGYKN:Energy Consumption</text>
</a>
</g>
</g>
<!-- PAKNECONPRVTXN -->
<g id="node9" class="node">
<title>PAKNECONPRVTXN</title>
<g id="a_node9"><a xlink:title="Household demand&#10;FRML &#160;&lt;&gt; PAKNECONPRVTXN = ((PAKNECONENGYSH**PAKCESENGYCON)*PAKNECONENGYXN**(1&#45;PAKCESENGYCON)+(PAKNECONOTHRSH**PAKCESENGYCON)*PAKNECONOTHRXN**(1&#45;PAKCESENGYCON))**(1/(1&#45;PAKCESENGYCON)) $">
<polygon fill="#63b8ff" stroke="black" points="307.5,-653 59.5,-653 59.5,-617 307.5,-617 307.5,-653"/>
<text text-anchor="start" x="65.5" y="-630.8" font-family="Times New Roman,serif" font-size="14.00" fill="blue">PAKNECONPRVTXN:Household demand</text>
</a>
</g>
</g>
<!-- PAKNECONPRVTXN&#45;&gt;PAKNECONPRVTKN -->
<g id="edge23" class="edge">
<title>PAKNECONPRVTXN&#45;&gt;PAKNECONPRVTKN</title>
<g id="a_edge23"><a xlink:href="bogus" xlink:title=" PAKNECONPRVTXN &#45;&gt; PAKNECONPRVTKN Min. att. &#45;5708% &#160;max: 593%">
<path fill="none" stroke="black" stroke-width="8" d="M307.95,-623.75C328.04,-619.94 348.35,-614.83 367,-608 421.63,-587.99 477.51,-549.43 510.73,-524.22"/>
<polygon fill="black" stroke="black" stroke-width="8" points="515,-529.76 518.67,-518.11 506.47,-518.66 515,-529.76"/>
</a>
</g>
</g>
<!-- PAKSMAGRFSTYKN -->
<g id="node10" class="node">
<title>PAKSMAGRFSTYKN</title>
<g id="a_node10"><a xlink:title="PAKSMAGRFSTYKN&#10;FRML &#160;&lt;&gt; PAKSMAGRFSTYKN = ((1+0.195965019358753)*(0.010131919293849*PAKNECONPRVTKN+0*PAKNECONGOVTKN+0*PAKNEGDIFTOTKN+0.000136733767007103*PAKNEEXPGNFSKN+0.0199955288980741*PAKNEGDISTKBKN)&#45;0.00076829563200478*PAKNEIMPGNFSKN&#45;0.00172030587371022*PAKNYTAXNINDKN&#45;65421)/(1+0.319587584852584) $">
<polygon fill="#63b8ff" stroke="black" points="990.5,-599 846.5,-599 846.5,-563 990.5,-563 990.5,-599"/>
<text text-anchor="start" x="852.5" y="-576.8" font-family="Times New Roman,serif" font-size="14.00" fill="blue">PAKSMAGRFSTYKN:</text>
</a>
</g>
</g>
<!-- PAKNEGDETTOTKN -->
<g id="node11" class="node">
<title>PAKNEGDETTOTKN</title>
<g id="a_node11"><a xlink:title="GDE&#10;FRML &#160;&lt;&gt; PAKNEGDETTOTKN = (PAKNECONPRVTKN+PAKNECONGOVTKN+PAKNEGDIFTOTKN+PAKNEGDISTKBKN+PAKNYGDPDISCKN) $">
<polygon fill="#63b8ff" stroke="black" points="1003.5,-545 833.5,-545 833.5,-509 1003.5,-509 1003.5,-545"/>
<text text-anchor="start" x="839.5" y="-522.8" font-family="Times New Roman,serif" font-size="14.00" fill="blue">PAKNEGDETTOTKN:GDE</text>
</a>
</g>
</g>
<!-- PAKSMINDCNSTKN -->
<g id="node12" class="node">
<title>PAKSMINDCNSTKN</title>
<g id="a_node12"><a xlink:title="PAKSMINDCNSTKN&#10;FRML &#160;&lt;&gt; PAKSMINDCNSTKN = ((1+0.0370651228196874)*(0*PAKNECONPRVTKN+0*PAKNECONGOVTKN+0.433487212699245*PAKNEGDIFTOTKN+0.00170061231445462*PAKNEEXPGNFSKN+0.0166541213494276*PAKNEGDISTKBKN)&#45;0.00444968266528859*PAKNEIMPGNFSKN&#45;0*PAKNYTAXNINDKN&#45;55116.3653855153)/(1+1.91367284458402) $">
<polygon fill="#63b8ff" stroke="black" points="989,-491 848,-491 848,-455 989,-455 989,-491"/>
<text text-anchor="start" x="854.5" y="-468.8" font-family="Times New Roman,serif" font-size="14.00" fill="blue">PAKSMINDCNSTKN:</text>
</a>
</g>
</g>
<!-- PAKNECONPRVTKN_D -->
<g id="node13" class="node">
<title>PAKNECONPRVTKN_D</title>
<g id="a_node13"><a xlink:title="Exo dummy:Household Consumption&#10;Exogen">
<polygon fill="yellow" stroke="black" points="367,-599 0,-599 0,-563 367,-563 367,-599"/>
<text text-anchor="start" x="6.5" y="-576.8" font-family="Times New Roman,serif" font-size="14.00" fill="blue">PAKNECONPRVTKN_D:Exo dummy:Household Consumption</text>
</a>
</g>
</g>
<!-- PAKNECONPRVTKN_D&#45;&gt;PAKNECONPRVTKN -->
<g id="edge13" class="edge">
<title>PAKNECONPRVTKN_D&#45;&gt;PAKNECONPRVTKN</title>
<g id="a_edge13"><a xlink:href="bogus" xlink:title=" PAKNECONPRVTKN_D &#45;&gt; PAKNECONPRVTKN Min. att. &#45;0% &#160;max: 0%">
<path fill="none" stroke="black" d="M321.95,-562.99C337.21,-560.3 352.48,-557.31 367,-554 405.31,-545.28 447.42,-532.3 480.61,-521.26"/>
<polygon fill="black" stroke="black" points="481.81,-524.55 490.17,-518.05 479.58,-517.91 481.81,-524.55"/>
</a>
</g>
</g>
<!-- PAKNECONPRVTKN&#45;&gt;PAKSMSRVWHSLKN -->
<g id="edge7" class="edge">
<title>PAKNECONPRVTKN&#45;&gt;PAKSMSRVWHSLKN</title>
<g id="a_edge7"><a xlink:href="bogus" xlink:title=" PAKNECONPRVTKN &#45;&gt; PAKSMSRVWHSLKN Min. att. 0% &#160;max: 0%">
<path fill="none" stroke="black" d="M544.13,-518.11C549.38,-585.52 577.53,-823.56 717,-932 749.9,-957.58 795.39,-965.25 834.72,-966.11"/>
<polygon fill="black" stroke="black" points="834.81,-969.61 844.83,-966.19 834.86,-962.61 834.81,-969.61"/>
</a>
</g>
</g>
<!-- PAKNECONPRVTKN&#45;&gt;PAKNYGDPMKTPKN -->
<g id="edge14" class="edge">
<title>PAKNECONPRVTKN&#45;&gt;PAKNYGDPMKTPKN</title>
<g id="a_edge14"><a xlink:href="bogus" xlink:title=" PAKNECONPRVTKN &#45;&gt; PAKNYGDPMKTPKN Min. att. &#45;1557% &#160;max: 290%">
<path fill="none" stroke="black" stroke-width="8" d="M545.23,-518.01C553.92,-579.91 591.52,-785.23 717,-878 720.76,-880.78 724.66,-883.34 728.69,-885.7"/>
<polygon fill="black" stroke="black" stroke-width="8" points="725.58,-891.97 737.71,-890.55 732.22,-879.65 725.58,-891.97"/>
</a>
</g>
</g>
<!-- PAKNECONPRVTKN&#45;&gt;PAKSMSRVFINSKN -->
<g id="edge10" class="edge">
<title>PAKNECONPRVTKN&#45;&gt;PAKSMSRVFINSKN</title>
<g id="a_edge10"><a xlink:href="bogus" xlink:title=" PAKNECONPRVTKN &#45;&gt; PAKSMSRVFINSKN Min. att. &#45;104% &#160;max: 125%">
<path fill="none" stroke="black" stroke-width="8" d="M546.7,-518.19C559.21,-574.49 605.48,-746.73 717,-824 752.32,-848.47 799.68,-855.72 839.5,-856.62"/>
<polygon fill="black" stroke="black" stroke-width="8" points="839.65,-863.62 849.71,-856.72 839.78,-849.62 839.65,-863.62"/>
</a>
</g>
</g>
<!-- PAKNECONPRVTKN&#45;&gt;PAKSMINDMNGSKN -->
<g id="edge4" class="edge">
<title>PAKNECONPRVTKN&#45;&gt;PAKSMINDMNGSKN</title>
<g id="a_edge4"><a xlink:href="bogus" xlink:title=" PAKNECONPRVTKN &#45;&gt; PAKSMINDMNGSKN Min. att. &#45;1229% &#160;max: 1716%">
<path fill="none" stroke="black" stroke-width="8" d="M548.73,-518.36C565.42,-568.43 619.1,-707.79 717,-770 751.7,-792.05 796.58,-799.58 835.08,-801.26"/>
<polygon fill="black" stroke="black" stroke-width="8" points="835.02,-808.26 845.23,-801.58 835.45,-794.27 835.02,-808.26"/>
</a>
</g>
</g>
<!-- PAKNECONPRVTKN&#45;&gt;PAKNECONPRVTCN -->
<g id="edge6" class="edge">
<title>PAKNECONPRVTKN&#45;&gt;PAKNECONPRVTCN</title>
<g id="a_edge6"><a xlink:href="bogus" xlink:title=" PAKNECONPRVTKN &#45;&gt; PAKNECONPRVTCN Min. att. &#45;720% &#160;max: 6450%">
<path fill="none" stroke="black" stroke-width="8" d="M551.49,-518.08C572.62,-560.83 632.05,-668.12 717,-716 737.55,-727.58 761.11,-734.95 784.7,-739.51"/>
<polygon fill="black" stroke="black" stroke-width="8" points="783.73,-746.44 794.8,-741.29 786.17,-732.66 783.73,-746.44"/>
</a>
</g>
</g>
<!-- PAKNECONPRVTKN&#45;&gt;PAKSMENGTOTLKN -->
<g id="edge15" class="edge">
<title>PAKNECONPRVTKN&#45;&gt;PAKSMENGTOTLKN</title>
<g id="a_edge15"><a xlink:href="bogus" xlink:title=" PAKNECONPRVTKN &#45;&gt; PAKSMENGTOTLKN Min. att. &#45;14% &#160;max: 2187%">
<path fill="none" stroke="black" stroke-width="8" d="M556.14,-518.15C582.34,-552.77 644.8,-627.85 717,-662 753.57,-679.3 797.81,-686.49 835.43,-689.18"/>
<polygon fill="black" stroke="black" stroke-width="8" points="835.44,-696.19 845.85,-689.82 836.3,-682.22 835.44,-696.19"/>
</a>
</g>
</g>
<!-- PAKNECONPRVTKN&#45;&gt;PAKNECONENGYKN -->
<g id="edge9" class="edge">
<title>PAKNECONPRVTKN&#45;&gt;PAKNECONENGYKN</title>
<g id="a_edge9"><a xlink:href="bogus" xlink:title=" PAKNECONPRVTKN &#45;&gt; PAKNECONENGYKN Min. att. &#45;699% &#160;max: 3894%">
<path fill="none" stroke="black" stroke-width="8" d="M565.03,-518.01C596.58,-542.76 657.44,-586.62 717,-608 736.1,-614.86 756.8,-620 777.4,-623.84"/>
<polygon fill="black" stroke="black" stroke-width="8" points="776.43,-630.78 787.5,-625.63 778.87,-616.99 776.43,-630.78"/>
</a>
</g>
</g>
<!-- PAKNECONPRVTKN&#45;&gt;PAKSMAGRFSTYKN -->
<g id="edge20" class="edge">
<title>PAKNECONPRVTKN&#45;&gt;PAKSMAGRFSTYKN</title>
<g id="a_edge20"><a xlink:href="bogus" xlink:title=" PAKNECONPRVTKN &#45;&gt; PAKSMAGRFSTYKN Min. att. 96% &#160;max: 372%">
<path fill="none" stroke="black" stroke-width="8" d="M593.41,-518.1C627.83,-529.85 674.69,-544.65 717,-554 755.87,-562.59 799.63,-568.86 836.32,-573.19"/>
<polygon fill="black" stroke="black" stroke-width="8" points="835.74,-580.17 846.47,-574.36 837.34,-566.26 835.74,-580.17"/>
</a>
</g>
</g>
<!-- PAKNECONPRVTKN&#45;&gt;PAKNEGDETTOTKN -->
<g id="edge25" class="edge">
<title>PAKNECONPRVTKN&#45;&gt;PAKNEGDETTOTKN</title>
<g id="a_edge25"><a xlink:href="bogus" xlink:title=" PAKNECONPRVTKN &#45;&gt; PAKNEGDETTOTKN Min. att. &#45;2284% &#160;max: 2484%">
<path fill="none" stroke="black" stroke-width="8" d="M681.12,-509.96C728.4,-513.37 780.18,-517.1 823.2,-520.2"/>
<polygon fill="black" stroke="black" stroke-width="8" points="822.89,-527.2 833.36,-520.93 823.89,-513.23 822.89,-527.2"/>
</a>
</g>
</g>
<!-- PAKNECONPRVTKN&#45;&gt;PAKSMINDCNSTKN -->
<g id="edge2" class="edge">
<title>PAKNECONPRVTKN&#45;&gt;PAKSMINDCNSTKN</title>
<g id="a_edge2"><a xlink:href="bogus" xlink:title=" PAKNECONPRVTKN &#45;&gt; PAKSMINDCNSTKN Min. att. 0% &#160;max: 0%">
<path fill="none" stroke="black" d="M681.12,-490.04C733.83,-486.24 792.14,-482.04 837.65,-478.76"/>
<polygon fill="black" stroke="black" points="838.03,-482.24 847.75,-478.03 837.53,-475.26 838.03,-482.24"/>
</a>
</g>
</g>
<!-- PAKSMAGRCRPSKN -->
<g id="node18" class="node">
<title>PAKSMAGRCRPSKN</title>
<g id="a_node18"><a xlink:title="PAKSMAGRCRPSKN&#10;FRML &#160;&lt;&gt; PAKSMAGRCRPSKN = ((1+2.09928590574241)*(0.144287620838506*PAKNECONPRVTKN+0*PAKNECONGOVTKN+0*PAKNEGDIFTOTKN+0.0572678299039023*PAKNEEXPGNFSKN+0.267381669083985*PAKNEGDISTKBKN)&#45;0.0736247088197363*PAKNEIMPGNFSKN&#45;0.0407034395686347*PAKNYTAXNINDKN&#45;906311)/(1+0.396041694659877) $">
<polygon fill="#63b8ff" stroke="black" points="990.5,-437 846.5,-437 846.5,-401 990.5,-401 990.5,-437"/>
<text text-anchor="start" x="852.5" y="-414.8" font-family="Times New Roman,serif" font-size="14.00" fill="blue">PAKSMAGRCRPSKN:</text>
</a>
</g>
</g>
<!-- PAKNECONPRVTKN&#45;&gt;PAKSMAGRCRPSKN -->
<g id="edge17" class="edge">
<title>PAKNECONPRVTKN&#45;&gt;PAKSMAGRCRPSKN</title>
<g id="a_edge17"><a xlink:href="bogus" xlink:title=" PAKNECONPRVTKN &#45;&gt; PAKSMAGRCRPSKN Min. att. &#45;25% &#160;max: 208%">
<path fill="none" stroke="black" stroke-width="8" d="M593.41,-481.9C627.83,-470.15 674.69,-455.35 717,-446 755.87,-437.41 799.63,-431.14 836.32,-426.81"/>
<polygon fill="black" stroke="black" stroke-width="8" points="837.34,-433.74 846.47,-425.64 835.74,-419.83 837.34,-433.74"/>
</a>
</g>
</g>
<!-- PAKNECONOTHRKN -->
<g id="node19" class="node">
<title>PAKNECONOTHRKN</title>
<g id="a_node19"><a xlink:title="Other Consumption&#10;FRML &#160;&lt;&gt; PAKNECONOTHRKN = PAKNECONOTHRSH**(PAKCESENGYCON)*(PAKNECONPRVTKN*(PAKNECONPRVTXN/PAKNECONOTHRXN)**(PAKCESENGYCON)) $">
<polygon fill="#63b8ff" stroke="black" points="1045,-383 792,-383 792,-347 1045,-347 1045,-383"/>
<text text-anchor="start" x="798.5" y="-360.8" font-family="Times New Roman,serif" font-size="14.00" fill="blue">PAKNECONOTHRKN:Other Consumption</text>
</a>
</g>
</g>
<!-- PAKNECONPRVTKN&#45;&gt;PAKNECONOTHRKN -->
<g id="edge5" class="edge">
<title>PAKNECONPRVTKN&#45;&gt;PAKNECONOTHRKN</title>
<g id="a_edge5"><a xlink:href="bogus" xlink:title=" PAKNECONPRVTKN &#45;&gt; PAKNECONOTHRKN Min. att. &#45;12062% &#160;max: 323%">
<path fill="none" stroke="black" stroke-width="8" d="M565.03,-481.99C596.58,-457.24 657.44,-413.38 717,-392 737.43,-384.67 759.67,-379.3 781.67,-375.38"/>
<polygon fill="black" stroke="black" stroke-width="8" points="783.05,-382.24 791.75,-373.68 780.72,-368.44 783.05,-382.24"/>
</a>
</g>
</g>
<!-- PAKNECONPRVTKN_FITTED -->
<g id="node22" class="node">
<title>PAKNECONPRVTKN_FITTED</title>
<g id="a_node22"><a xlink:title="Fitted &#160;value:Household Consumption&#10;FRML &lt;FIT&gt; PAKNECONPRVTKN_FITTED = PAKNECONPRVTKN(&#45;1)*EXP( (&#45;0.2*(LOG(PAKNECONPRVTKN(&#45;1))&#45;LOG((PAKNYYWBTOTLCN(&#45;1)*(1&#45;PAKGGREVDRCTXN(&#45;1)/100))/PAKNECONPRVTXN(&#45;1)))+1*((LOG((PAKNYYWBTOTLCN*(1&#45;PAKGGREVDRCTXN/100))/PAKNECONPRVTXN))&#45;(LOG((PAKNYYWBTOTLCN(&#45;1)*(1&#45;PAKGGREVDRCTXN(&#45;1)/100))/PAKNECONPRVTXN(&#45;1))))+0.0303228629698929+0.0163839011059956*DURING_2010&#45;0.3*(PAKFMLBLPOLYXN/100&#45;((LOG(PAKNECONPRVTXN))&#45;(LOG(PAKNECONPRVTXN(&#45;1)))))) ) $">
<polygon fill="#63b8ff" stroke="black" points="1120,-329 717,-329 717,-293 1120,-293 1120,-329"/>
<text text-anchor="start" x="723.5" y="-306.8" font-family="Times New Roman,serif" font-size="14.00" fill="blue">PAKNECONPRVTKN_FITTED:Fitted &#160;value:Household Consumption</text>
</a>
</g>
</g>
<!-- PAKNECONPRVTKN&#45;&gt;PAKNECONPRVTKN_FITTED -->
<g id="edge11" class="edge">
<title>PAKNECONPRVTKN&#45;&gt;PAKNECONPRVTKN_FITTED</title>
<g id="a_edge11"><a xlink:href="bogus" xlink:title=" PAKNECONPRVTKN &#45;&gt; PAKNECONPRVTKN_FITTED Min. att. &#45;786% &#160;max: 175%">
<path fill="none" stroke="black" stroke-width="8" d="M556.14,-481.85C582.34,-447.23 644.8,-372.15 717,-338 721.08,-336.07 725.26,-334.26 729.52,-332.58"/>
<polygon fill="black" stroke="black" stroke-width="8" points="732.02,-339.11 738.95,-329.07 727.14,-325.99 732.02,-339.11"/>
</a>
</g>
</g>
<!-- PAKSMSRVHSNGKN -->
<g id="node23" class="node">
<title>PAKSMSRVHSNGKN</title>
<g id="a_node23"><a xlink:title="PAKSMSRVHSNGKN&#10;FRML &#160;&lt;&gt; PAKSMSRVHSNGKN = ((1+0.782809577554843)*(0.0647364660896117*PAKNECONPRVTKN+0*PAKNECONGOVTKN+0.00605333595533851*PAKNEGDIFTOTKN+0.03048358523237*PAKNEEXPGNFSKN+0*PAKNEGDISTKBKN)&#45;0.0244768173208691*PAKNEIMPGNFSKN&#45;0.0684093628903126*PAKNYTAXNINDKN&#45;0)/(1+0.150771193398883) $">
<polygon fill="#63b8ff" stroke="black" points="991,-275 846,-275 846,-239 991,-239 991,-275"/>
<text text-anchor="start" x="852.5" y="-252.8" font-family="Times New Roman,serif" font-size="14.00" fill="blue">PAKSMSRVHSNGKN:</text>
</a>
</g>
</g>
<!-- PAKNECONPRVTKN&#45;&gt;PAKSMSRVHSNGKN -->
<g id="edge18" class="edge">
<title>PAKNECONPRVTKN&#45;&gt;PAKSMSRVHSNGKN</title>
<g id="a_edge18"><a xlink:href="bogus" xlink:title=" PAKNECONPRVTKN &#45;&gt; PAKSMSRVHSNGKN Min. att. 34% &#160;max: 147%">
<path fill="none" stroke="black" stroke-width="8" d="M551.49,-481.92C572.62,-439.17 632.05,-331.88 717,-284 752.67,-263.89 797.43,-256.5 835.61,-254.41"/>
<polygon fill="black" stroke="black" stroke-width="8" points="835.99,-261.4 845.68,-253.97 835.38,-247.42 835.99,-261.4"/>
</a>
</g>
</g>
<!-- PAKSMSRVTRNSKN -->
<g id="node24" class="node">
<title>PAKSMSRVTRNSKN</title>
<g id="a_node24"><a xlink:title="PAKSMSRVTRNSKN&#10;FRML &#160;&lt;&gt; PAKSMSRVTRNSKN = ((1+0.301074862860981)*(0.204687752761289*PAKNECONPRVTKN+0*PAKNECONGOVTKN+0*PAKNEGDIFTOTKN+0.0551862611209703*PAKNEEXPGNFSKN+0*PAKNEGDISTKBKN)&#45;&#45;0.0392641863572605*PAKNEIMPGNFSKN&#45;0.0174996684619017*PAKNYTAXNINDKN&#45;0)/(1+1.11680986862739) $">
<polygon fill="#63b8ff" stroke="black" points="989.5,-221 847.5,-221 847.5,-185 989.5,-185 989.5,-221"/>
<text text-anchor="start" x="853.5" y="-198.8" font-family="Times New Roman,serif" font-size="14.00" fill="blue">PAKSMSRVTRNSKN:</text>
</a>
</g>
</g>
<!-- PAKNECONPRVTKN&#45;&gt;PAKSMSRVTRNSKN -->
<g id="edge24" class="edge">
<title>PAKNECONPRVTKN&#45;&gt;PAKSMSRVTRNSKN</title>
<g id="a_edge24"><a xlink:href="bogus" xlink:title=" PAKNECONPRVTKN &#45;&gt; PAKSMSRVTRNSKN Min. att. 87% &#160;max: 593%">
<path fill="none" stroke="black" stroke-width="8" d="M548.73,-481.64C565.42,-431.57 619.1,-292.21 717,-230 752.24,-207.61 797.99,-200.19 836.88,-198.67"/>
<polygon fill="black" stroke="black" stroke-width="8" points="837.32,-205.66 847.13,-198.39 836.95,-191.66 837.32,-205.66"/>
</a>
</g>
</g>
<!-- PAKSMSRVGOVSKN -->
<g id="node25" class="node">
<title>PAKSMSRVGOVSKN</title>
<g id="a_node25"><a xlink:title="PAKSMSRVGOVSKN&#10;FRML &#160;&lt;&gt; PAKSMSRVGOVSKN = ((1+0)*(0*PAKNECONPRVTKN+0.789129947325563*PAKNECONGOVTKN+0*PAKNEGDIFTOTKN+0*PAKNEEXPGNFSKN+0*PAKNEGDISTKBKN)&#45;0*PAKNEIMPGNFSKN&#45;0*PAKNYTAXNINDKN&#45;0)/(1+0.947258014252215) $">
<polygon fill="#63b8ff" stroke="black" points="991,-167 846,-167 846,-131 991,-131 991,-167"/>
<text text-anchor="start" x="852.5" y="-144.8" font-family="Times New Roman,serif" font-size="14.00" fill="blue">PAKSMSRVGOVSKN:</text>
</a>
</g>
</g>
<!-- PAKNECONPRVTKN&#45;&gt;PAKSMSRVGOVSKN -->
<g id="edge3" class="edge">
<title>PAKNECONPRVTKN&#45;&gt;PAKSMSRVGOVSKN</title>
<g id="a_edge3"><a xlink:href="bogus" xlink:title=" PAKNECONPRVTKN &#45;&gt; PAKSMSRVGOVSKN Min. att. 0% &#160;max: 0%">
<path fill="none" stroke="black" d="M546.7,-481.81C559.21,-425.51 605.48,-253.27 717,-176 751.19,-152.31 796.65,-144.76 835.64,-143.49"/>
<polygon fill="black" stroke="black" points="835.99,-146.98 845.92,-143.29 835.86,-139.98 835.99,-146.98"/>
</a>
</g>
</g>
<!-- PAKSMAGRFSNGKN -->
<g id="node26" class="node">
<title>PAKSMAGRFSNGKN</title>
<g id="a_node26"><a xlink:title="PAKSMAGRFSNGKN&#10;FRML &#160;&lt;&gt; PAKSMAGRFSNGKN = ((1+1.92407325889309)*(0.00246195499563977*PAKNECONPRVTKN+0*PAKNECONGOVTKN+0*PAKNEGDIFTOTKN+0.00130433854799597*PAKNEEXPGNFSKN+0.00497657560072267*PAKNEGDISTKBKN)&#45;1.14989260682794E&#45;05*PAKNEIMPGNFSKN&#45;2.46467171367829E&#45;07*PAKNYTAXNINDKN&#45;26993)/(1+0.506095544048804) $">
<polygon fill="#63b8ff" stroke="black" points="991,-113 846,-113 846,-77 991,-77 991,-113"/>
<text text-anchor="start" x="852.5" y="-90.8" font-family="Times New Roman,serif" font-size="14.00" fill="blue">PAKSMAGRFSNGKN:</text>
</a>
</g>
</g>
<!-- PAKNECONPRVTKN&#45;&gt;PAKSMAGRFSNGKN -->
<g id="edge21" class="edge">
<title>PAKNECONPRVTKN&#45;&gt;PAKSMAGRFSNGKN</title>
<g id="a_edge21"><a xlink:href="bogus" xlink:title=" PAKNECONPRVTKN &#45;&gt; PAKSMAGRFSNGKN Min. att. &#45;29% &#160;max: 170%">
<path fill="none" stroke="black" stroke-width="8" d="M545.23,-481.99C553.92,-420.09 591.52,-214.77 717,-122 750.65,-97.13 796.4,-89.55 835.7,-88.57"/>
<polygon fill="black" stroke="black" stroke-width="8" points="835.88,-95.57 845.8,-88.46 835.73,-81.57 835.88,-95.57"/>
</a>
</g>
</g>
<!-- PAKSMINDOTHRTKN -->
<g id="node27" class="node">
<title>PAKSMINDOTHRTKN</title>
<g id="a_node27"><a xlink:title="PAKSMINDOTHRTKN&#10;FRML &#160;&lt;&gt; PAKSMINDOTHRTKN = ((1+0.483473985412524)*(0.40172973397176*PAKNECONPRVTKN+0*PAKNECONGOVTKN+0.560459287907094*PAKNEGDIFTOTKN+0.719299486591763*PAKNEEXPGNFSKN+0.620970563578771*PAKNEGDISTKBKN)&#45;0.606734386430279*PAKNEIMPGNFSKN&#45;0.866045585295928*PAKNYTAXNINDKN&#45;2983275.63714814)/(1+2.46379868577176) $">
<polygon fill="#63b8ff" stroke="black" points="994,-59 843,-59 843,-23 994,-23 994,-59"/>
<text text-anchor="start" x="849.5" y="-36.8" font-family="Times New Roman,serif" font-size="14.00" fill="blue">PAKSMINDOTHRTKN:</text>
</a>
</g>
</g>
<!-- PAKNECONPRVTKN&#45;&gt;PAKSMINDOTHRTKN -->
<g id="edge16" class="edge">
<title>PAKNECONPRVTKN&#45;&gt;PAKSMINDOTHRTKN</title>
<g id="a_edge16"><a xlink:href="bogus" xlink:title=" PAKNECONPRVTKN &#45;&gt; PAKSMINDOTHRTKN Min. att. &#45;11779% &#160;max: 971%">
<path fill="none" stroke="black" stroke-width="8" d="M544.13,-481.89C549.38,-414.48 577.53,-176.44 717,-68 749.33,-42.87 793.79,-35.02 832.63,-33.94"/>
<polygon fill="black" stroke="black" stroke-width="8" points="832.99,-40.93 842.9,-33.8 832.81,-26.94 832.99,-40.93"/>
</a>
</g>
</g>
<!-- DURING_2010 -->
<g id="node15" class="node">
<title>DURING_2010</title>
<g id="a_node15"><a xlink:title="DURING_2010&#10;Exogen">
<polygon fill="yellow" stroke="black" points="235,-545 132,-545 132,-509 235,-509 235,-545"/>
<text text-anchor="start" x="138.5" y="-522.8" font-family="Times New Roman,serif" font-size="14.00" fill="blue">DURING_2010:</text>
</a>
</g>
</g>
<!-- DURING_2010&#45;&gt;PAKNECONPRVTKN -->
<g id="edge19" class="edge">
<title>DURING_2010&#45;&gt;PAKNECONPRVTKN</title>
<g id="a_edge19"><a xlink:href="bogus" xlink:title=" DURING_2010 &#45;&gt; PAKNECONPRVTKN Min. att. &#45;0% &#160;max: 0%">
<path fill="none" stroke="black" d="M235.2,-523.16C276.36,-520.04 336.59,-515.48 392.73,-511.23"/>
<polygon fill="black" stroke="black" points="393.09,-514.71 402.79,-510.47 392.56,-507.73 393.09,-514.71"/>
</a>
</g>
</g>
<!-- PAKNECONPRVTKN_X -->
<g id="node16" class="node">
<title>PAKNECONPRVTKN_X</title>
<g id="a_node16"><a xlink:title="Exo value:Household Consumption&#10;Exogen">
<polygon fill="yellow" stroke="black" points="360,-491 7,-491 7,-455 360,-455 360,-491"/>
<text text-anchor="start" x="13.5" y="-468.8" font-family="Times New Roman,serif" font-size="14.00" fill="blue">PAKNECONPRVTKN_X:Exo value:Household Consumption</text>
</a>
</g>
</g>
<!-- PAKNECONPRVTKN_X&#45;&gt;PAKNECONPRVTKN -->
<g id="edge26" class="edge">
<title>PAKNECONPRVTKN_X&#45;&gt;PAKNECONPRVTKN</title>
<g id="a_edge26"><a xlink:href="bogus" xlink:title=" PAKNECONPRVTKN_X &#45;&gt; PAKNECONPRVTKN Min. att. &#45;0% &#160;max: 0%">
<path fill="none" stroke="black" d="M360.14,-486.3C370.99,-487.12 381.86,-487.95 392.58,-488.76"/>
<polygon fill="black" stroke="black" points="392.57,-492.27 402.81,-489.53 393.1,-485.29 392.57,-492.27"/>
</a>
</g>
</g>
<!-- PAKNYYWBTOTLCN -->
<g id="node17" class="node">
<title>PAKNYYWBTOTLCN</title>
<g id="a_node17"><a xlink:title="Economy&#45;wide wage bill&#10;FRML &#160;&lt;&gt; PAKNYYWBTOTLCN = PAKNYWRTTOTLCN*PAKLMEMPTOTLCN $">
<polygon fill="#63b8ff" stroke="black" points="326,-437 41,-437 41,-401 326,-401 326,-437"/>
<text text-anchor="start" x="47.5" y="-414.8" font-family="Times New Roman,serif" font-size="14.00" fill="blue">PAKNYYWBTOTLCN:Economy&#45;wide wage bill</text>
</a>
</g>
</g>
<!-- PAKNYYWBTOTLCN&#45;&gt;PAKNECONPRVTKN -->
<g id="edge22" class="edge">
<title>PAKNYYWBTOTLCN&#45;&gt;PAKNECONPRVTKN</title>
<g id="a_edge22"><a xlink:href="bogus" xlink:title=" PAKNYYWBTOTLCN &#45;&gt; PAKNECONPRVTKN Min. att. &#45;594% &#160;max: 5823%">
<path fill="none" stroke="black" stroke-width="8" d="M321.95,-437.01C337.21,-439.7 352.48,-442.69 367,-446 405.31,-454.72 447.42,-467.7 480.61,-478.74"/>
<polygon fill="black" stroke="black" stroke-width="8" points="478.46,-485.41 490.17,-481.95 482.92,-472.13 478.46,-485.41"/>
</a>
</g>
</g>
<!-- PAKGGREVDRCTXN -->
<g id="node20" class="node">
<title>PAKGGREVDRCTXN</title>
<g id="a_node20"><a xlink:title="Effective tax rates&#10;Exogen">
<polygon fill="yellow" stroke="black" points="305.5,-383 61.5,-383 61.5,-347 305.5,-347 305.5,-383"/>
<text text-anchor="start" x="67.5" y="-360.8" font-family="Times New Roman,serif" font-size="14.00" fill="blue">PAKGGREVDRCTXN:Effective tax rates</text>
</a>
</g>
</g>
<!-- PAKGGREVDRCTXN&#45;&gt;PAKNECONPRVTKN -->
<g id="edge1" class="edge">
<title>PAKGGREVDRCTXN&#45;&gt;PAKNECONPRVTKN</title>
<g id="a_edge1"><a xlink:href="bogus" xlink:title=" PAKGGREVDRCTXN &#45;&gt; PAKNECONPRVTKN Min. att. &#45;0% &#160;max: 0%">
<path fill="none" stroke="black" d="M305.52,-375.79C326.39,-379.65 347.6,-384.89 367,-392 421.63,-412.01 477.51,-450.57 510.73,-475.78"/>
<polygon fill="black" stroke="black" points="508.6,-478.57 518.67,-481.89 512.87,-473.02 508.6,-478.57"/>
</a>
</g>
</g>
<!-- PAKFMLBLPOLYXN -->
<g id="node21" class="node">
<title>PAKFMLBLPOLYXN</title>
<g id="a_node21"><a xlink:title="Policy Rate&#10;FRML &lt;Z,EXO&gt; PAKFMLBLPOLYXN = (&#45;100*PAKFMLBLPOLYXN_A+100* (0.905129162122953*PAKFMLBLPOLYXN(&#45;1)/100+(1&#45;0.905129162122953)*(PAKMPPOLNATRXN/100+1.2*(((LOG(PAKNECONPRVTXN))&#45;(LOG(PAKNECONPRVTXN(&#45;1))))&#45;PAKINFLEXPT/100)+0.5*PAKNYGDPGAP_/100)) ) * (1&#45;PAKFMLBLPOLYXN_D)+ PAKFMLBLPOLYXN_X*PAKFMLBLPOLYXN_D &#160;$">
<polygon fill="#63b8ff" stroke="black" points="286,-329 81,-329 81,-293 286,-293 286,-329"/>
<text text-anchor="start" x="87.5" y="-306.8" font-family="Times New Roman,serif" font-size="14.00" fill="blue">PAKFMLBLPOLYXN:Policy Rate</text>
</a>
</g>
</g>
<!-- PAKFMLBLPOLYXN&#45;&gt;PAKNECONPRVTKN -->
<g id="edge12" class="edge">
<title>PAKFMLBLPOLYXN&#45;&gt;PAKNECONPRVTKN</title>
<g id="a_edge12"><a xlink:href="bogus" xlink:title=" PAKFMLBLPOLYXN &#45;&gt; PAKNECONPRVTKN Min. att. &#45;160% &#160;max: 20%">
<path fill="none" stroke="black" stroke-width="8" d="M286.21,-315.11C313.44,-319.1 342.18,-326.06 367,-338 433.63,-370.05 492.21,-436.57 521.38,-473.63"/>
<polygon fill="black" stroke="black" stroke-width="8" points="516.16,-478.32 527.82,-481.94 527.23,-469.74 516.16,-478.32"/>
</a>
</g>
</g>
</g>
</svg>
