<?xml version="1.0" encoding="UTF-8" standalone="no"?>
<!DOCTYPE svg PUBLIC "-//W3C//DTD SVG 1.1//EN"
 "http://www.w3.org/Graphics/SVG/1.1/DTD/svg11.dtd">
<!-- Generated by graphviz version 6.0.1 (0)
 -->
<!-- Title: TD Pages: 1 -->
<svg width="749pt" height="351pt"
 viewBox="0.00 0.00 749.00 351.00" xmlns="http://www.w3.org/2000/svg" xmlns:xlink="http://www.w3.org/1999/xlink">
<g id="graph0" class="graph" transform="scale(1 1) rotate(0) translate(4 347)">
<title>TD</title>
<polygon fill="white" stroke="none" points="-4,4 -4,-347 745,-347 745,4 -4,4"/>
<text text-anchor="middle" x="370.5" y="-7.8" font-family="Times New Roman,serif" font-size="14.00">Model Structure</text>
<!-- SAVING_RATE -->
<g id="node1" class="node">
<title>SAVING_RATE</title>
<g id="a_node1"><a xlink:title="SAVING_RATE&#10;Exogen">
<polygon fill="yellow" stroke="black" points="106,-209 0,-209 0,-173 106,-173 106,-209"/>
<text text-anchor="start" x="6" y="-186.8" font-family="Times New Roman,serif" font-size="14.00" fill="blue">SAVING_RATE:</text>
</a>
</g>
</g>
<!-- CONSUMPTION -->
<g id="node10" class="node">
<title>CONSUMPTION</title>
<g id="a_node10"><a xlink:title="CONSUMPTION&#10;FRML &lt;&gt; CONSUMPTION &#160;&#160;&#160;&#160;= (1&#45;SAVING_RATE) &#160;* INCOME &#160;$">
<polygon fill="#63b8ff" stroke="black" points="257,-209 142,-209 142,-173 257,-173 257,-209"/>
<text text-anchor="start" x="148.5" y="-186.8" font-family="Times New Roman,serif" font-size="14.00" fill="blue">CONSUMPTION:</text>
</a>
</g>
</g>
<!-- SAVING_RATE&#45;&gt;CONSUMPTION -->
<g id="edge13" class="edge">
<title>SAVING_RATE&#45;&gt;CONSUMPTION</title>
<g id="a_edge13"><a xlink:href="bogus" xlink:title=" SAVING_RATE &#45;&gt; CONSUMPTION Min. att. 0% &#160;max: 0%">
<path fill="none" stroke="black" d="M106.17,-191C114.33,-191 122.86,-191 131.3,-191"/>
<polygon fill="black" stroke="black" points="131.52,-194.5 141.52,-191 131.52,-187.5 131.52,-194.5"/>
</a>
</g>
</g>
<!-- CAPITAL(&#45;1) -->
<g id="node2" class="node">
<title>CAPITAL(&#45;1)</title>
<g id="a_node2"><a xlink:title="CAPITAL&#10;FRML &lt;&gt; CAPITAL=CAPITAL(&#45;1)+(INVESTMENT&#45;DEPRECIATION_RATE * CAPITAL(&#45;1))$">
<polygon fill="springgreen" stroke="black" points="741,-343 592,-343 592,-307 741,-307 741,-343"/>
<text text-anchor="start" x="598.5" y="-320.8" font-family="Times New Roman,serif" font-size="14.00" fill="blue">CAPITAL(&#45;1):CAPITAL</text>
</a>
</g>
</g>
<!-- CAPITAL -->
<g id="node13" class="node">
<title>CAPITAL</title>
<g id="a_node13"><a xlink:title="CAPITAL&#10;FRML &lt;&gt; CAPITAL=CAPITAL(&#45;1)+(INVESTMENT&#45;DEPRECIATION_RATE * CAPITAL(&#45;1))$">
<polygon fill="#63b8ff" stroke="black" points="556,-305 483,-305 483,-269 556,-269 556,-305"/>
<text text-anchor="start" x="489.5" y="-282.8" font-family="Times New Roman,serif" font-size="14.00" fill="blue">CAPITAL:</text>
</a>
</g>
</g>
<!-- CAPITAL(&#45;1)&#45;&gt;CAPITAL -->
<g id="edge4" class="edge">
<title>CAPITAL(&#45;1)&#45;&gt;CAPITAL</title>
<g id="a_edge4"><a xlink:href="bogus" xlink:title="NA">
<path fill="none" stroke="black" stroke-width="0.5" d="M591.8,-312.43C583.03,-310.12 574.27,-307.69 566.06,-305.26"/>
<polygon fill="black" stroke="black" stroke-width="0.5" points="566.93,-301.86 556.34,-302.31 564.9,-308.56 566.93,-301.86"/>
</a>
</g>
</g>
<!-- CAPITAL_INTENSITY -->
<g id="node3" class="node">
<title>CAPITAL_INTENSITY</title>
<g id="a_node3"><a xlink:title="CAPITAL_INTENSITY&#10;FRML &lt;&gt; CAPITAL_INTENSITY = CAPITAL/LABOR &#160;$">
<polygon fill="#63b8ff" stroke="black" points="741,-289 592,-289 592,-253 741,-253 741,-289"/>
<text text-anchor="start" x="598.5" y="-266.8" font-family="Times New Roman,serif" font-size="14.00" fill="blue">CAPITAL_INTENSITY:</text>
</a>
</g>
</g>
<!-- INVESTMENT -->
<g id="node4" class="node">
<title>INVESTMENT</title>
<g id="a_node4"><a xlink:title="INVESTMENT&#10;FRML &lt;&gt; INVESTMENT &#160;&#160;&#160;&#160;&#160;= INCOME &#45; CONSUMPTION &#160;&#160;&#160;$">
<polygon fill="#63b8ff" stroke="black" points="421.5,-259 318.5,-259 318.5,-223 421.5,-223 421.5,-259"/>
<text text-anchor="start" x="325" y="-236.8" font-family="Times New Roman,serif" font-size="14.00" fill="blue">INVESTMENT:</text>
</a>
</g>
</g>
<!-- INVESTMENT&#45;&gt;CAPITAL -->
<g id="edge1" class="edge">
<title>INVESTMENT&#45;&gt;CAPITAL</title>
<g id="a_edge1"><a xlink:href="bogus" xlink:title=" INVESTMENT &#45;&gt; CAPITAL Min. att. 6% &#160;max: 100%">
<path fill="none" stroke="black" stroke-width="8" d="M421.76,-256.83C438.46,-262.04 456.91,-267.79 473.18,-272.87"/>
<polygon fill="black" stroke="black" stroke-width="8" points="471.36,-279.63 482.99,-275.93 475.53,-266.27 471.36,-279.63"/>
</a>
</g>
</g>
<!-- ALFA -->
<g id="node5" class="node">
<title>ALFA</title>
<g id="a_node5"><a xlink:title="ALFA&#10;Exogen">
<polygon fill="yellow" stroke="black" points="546.5,-113 492.5,-113 492.5,-77 546.5,-77 546.5,-113"/>
<text text-anchor="start" x="500.5" y="-90.8" font-family="Times New Roman,serif" font-size="14.00" fill="blue">ALFA:</text>
</a>
</g>
</g>
<!-- INCOME -->
<g id="node12" class="node">
<title>INCOME</title>
<g id="a_node12"><a xlink:title="INCOME&#10;FRML &lt;&gt; INCOME &#160;&#160;&#160;&#160;&#160;&#160;&#160;&#160;&#160;= A &#160;* CAPITAL**ALFA * LABOR **(1&#45;ALFA) &#160;$">
<polygon fill="#63b8ff" stroke="black" points="701.5,-174 631.5,-174 631.5,-138 701.5,-138 701.5,-174"/>
<text text-anchor="start" x="637.5" y="-151.8" font-family="Times New Roman,serif" font-size="14.00" fill="blue">INCOME:</text>
</a>
</g>
</g>
<!-- ALFA&#45;&gt;INCOME -->
<g id="edge7" class="edge">
<title>ALFA&#45;&gt;INCOME</title>
<g id="a_edge7"><a xlink:href="bogus" xlink:title=" ALFA &#45;&gt; INCOME Min. att. &#45;0% &#160;max: &#45;0%">
<path fill="none" stroke="black" d="M546.76,-106.05C567.65,-114.84 597.34,-127.33 621.8,-137.62"/>
<polygon fill="black" stroke="black" points="620.66,-140.93 631.24,-141.59 623.38,-134.48 620.66,-140.93"/>
</a>
</g>
</g>
<!-- DEPRECIATION_RATE -->
<g id="node6" class="node">
<title>DEPRECIATION_RATE</title>
<g id="a_node6"><a xlink:title="DEPRECIATION_RATE&#10;Exogen">
<polygon fill="yellow" stroke="black" points="447,-313 293,-313 293,-277 447,-277 447,-313"/>
<text text-anchor="start" x="299" y="-290.8" font-family="Times New Roman,serif" font-size="14.00" fill="blue">DEPRECIATION_RATE:</text>
</a>
</g>
</g>
<!-- DEPRECIATION_RATE&#45;&gt;CAPITAL -->
<g id="edge17" class="edge">
<title>DEPRECIATION_RATE&#45;&gt;CAPITAL</title>
<g id="a_edge17"><a xlink:href="bogus" xlink:title=" DEPRECIATION_RATE &#45;&gt; CAPITAL Min. att. 0% &#160;max: 0%">
<path fill="none" stroke="black" d="M447.34,-290.86C455.94,-290.39 464.5,-289.93 472.54,-289.49"/>
<polygon fill="black" stroke="black" points="472.98,-292.97 482.77,-288.94 472.6,-285.98 472.98,-292.97"/>
</a>
</g>
</g>
<!-- A -->
<g id="node7" class="node">
<title>A</title>
<g id="a_node7"><a xlink:title="A&#10;Exogen">
<polygon fill="yellow" stroke="black" points="546.5,-59 492.5,-59 492.5,-23 546.5,-23 546.5,-59"/>
<text text-anchor="start" x="512.5" y="-36.8" font-family="Times New Roman,serif" font-size="14.00" fill="blue">A:</text>
</a>
</g>
</g>
<!-- A&#45;&gt;INCOME -->
<g id="edge5" class="edge">
<title>A&#45;&gt;INCOME</title>
<g id="a_edge5"><a xlink:href="bogus" xlink:title=" A &#45;&gt; INCOME Min. att. &#45;0% &#160;max: &#45;0%">
<path fill="none" stroke="black" d="M544.63,-59.21C548.45,-62.13 552.34,-65.14 556,-68 583.09,-89.18 613.55,-113.72 635.46,-131.5"/>
<polygon fill="black" stroke="black" points="633.44,-134.37 643.41,-137.96 637.85,-128.94 633.44,-134.37"/>
</a>
</g>
</g>
<!-- LABOR -->
<g id="node8" class="node">
<title>LABOR</title>
<g id="a_node8"><a xlink:title="LABOR&#10;FRML &lt;&gt; LABOR=LABOR(&#45;1)+(LABOR_GROWTH * LABOR(&#45;1))$">
<polygon fill="#63b8ff" stroke="black" points="550.5,-243 488.5,-243 488.5,-207 550.5,-207 550.5,-243"/>
<text text-anchor="start" x="494.5" y="-220.8" font-family="Times New Roman,serif" font-size="14.00" fill="blue">LABOR:</text>
</a>
</g>
</g>
<!-- LABOR&#45;&gt;CAPITAL_INTENSITY -->
<g id="edge2" class="edge">
<title>LABOR&#45;&gt;CAPITAL_INTENSITY</title>
<g id="a_edge2"><a xlink:href="bogus" xlink:title=" LABOR &#45;&gt; CAPITAL_INTENSITY Min. att. 103% &#160;max: 1269%">
<path fill="none" stroke="black" stroke-width="8" d="M550.54,-234.53C564.55,-238.97 581.82,-244.45 598.68,-249.8"/>
<polygon fill="black" stroke="black" stroke-width="8" points="596.88,-256.58 608.53,-252.93 601.12,-243.23 596.88,-256.58"/>
</a>
</g>
</g>
<!-- LABOR(&#45;1) -->
<g id="node9" class="node">
<title>LABOR(&#45;1)</title>
<g id="a_node9"><a xlink:title="LABOR&#10;FRML &lt;&gt; LABOR=LABOR(&#45;1)+(LABOR_GROWTH * LABOR(&#45;1))$">
<polygon fill="springgreen" stroke="black" points="730.5,-235 602.5,-235 602.5,-199 730.5,-199 730.5,-235"/>
<text text-anchor="start" x="608.5" y="-212.8" font-family="Times New Roman,serif" font-size="14.00" fill="blue">LABOR(&#45;1):LABOR</text>
</a>
</g>
</g>
<!-- LABOR&#45;&gt;LABOR(&#45;1) -->
<g id="edge11" class="edge">
<title>LABOR&#45;&gt;LABOR(&#45;1)</title>
<g id="a_edge11"><a xlink:href="bogus" xlink:title=" LABOR &#45;&gt; LABOR(&#45;1) Min. att. 0% &#160;max: 100%">
<path fill="none" stroke="black" stroke-width="8" d="M550.54,-217.75C562.74,-216.32 577.42,-215.12 592.14,-214.3"/>
<polygon fill="black" stroke="black" stroke-width="8" points="592.68,-221.28 602.31,-213.79 591.97,-207.3 592.68,-221.28"/>
</a>
</g>
</g>
<!-- LABOR&#45;&gt;INCOME -->
<g id="edge6" class="edge">
<title>LABOR&#45;&gt;INCOME</title>
<g id="a_edge6"><a xlink:href="bogus" xlink:title=" LABOR &#45;&gt; INCOME Min. att. 59% &#160;max: 97%">
<path fill="none" stroke="black" stroke-width="8" d="M550.7,-210.04C563.42,-203.78 578.4,-196.47 592,-190 601.72,-185.38 612.19,-180.48 622.11,-175.88"/>
<polygon fill="black" stroke="black" stroke-width="8" points="625.26,-182.14 631.4,-171.59 619.38,-169.43 625.26,-182.14"/>
</a>
</g>
</g>
<!-- LABOR(&#45;1)&#45;&gt;LABOR -->
<g id="edge14" class="edge">
<title>LABOR(&#45;1)&#45;&gt;LABOR</title>
<g id="a_edge14"><a xlink:href="bogus" xlink:title="NA">
<path fill="none" stroke="black" stroke-width="0.5" d="M602.31,-227.19C588.26,-228.11 573.73,-228.72 560.89,-228.89"/>
<polygon fill="black" stroke="black" stroke-width="0.5" points="560.53,-225.4 550.54,-228.94 560.56,-232.4 560.53,-225.4"/>
</a>
</g>
</g>
<!-- CONSUMPTION&#45;&gt;INVESTMENT -->
<g id="edge9" class="edge">
<title>CONSUMPTION&#45;&gt;INVESTMENT</title>
<g id="a_edge9"><a xlink:href="bogus" xlink:title=" CONSUMPTION &#45;&gt; INVESTMENT Min. att. &#45;1900% &#160;max: &#45;1900%">
<path fill="none" stroke="black" stroke-width="8" d="M257.08,-207.79C273.62,-212.7 291.77,-218.08 308.54,-223.06"/>
<polygon fill="black" stroke="black" stroke-width="8" points="306.66,-229.8 318.24,-225.94 310.64,-216.38 306.66,-229.8"/>
</a>
</g>
</g>
<!-- LABOR_GROWTH -->
<g id="node11" class="node">
<title>LABOR_GROWTH</title>
<g id="a_node11"><a xlink:title="LABOR_GROWTH&#10;Exogen">
<polygon fill="yellow" stroke="black" points="434.5,-205 305.5,-205 305.5,-169 434.5,-169 434.5,-205"/>
<text text-anchor="start" x="312" y="-182.8" font-family="Times New Roman,serif" font-size="14.00" fill="blue">LABOR_GROWTH:</text>
</a>
</g>
</g>
<!-- LABOR_GROWTH&#45;&gt;LABOR -->
<g id="edge3" class="edge">
<title>LABOR_GROWTH&#45;&gt;LABOR</title>
<g id="a_edge3"><a xlink:href="bogus" xlink:title=" LABOR_GROWTH &#45;&gt; LABOR Min. att. 0% &#160;max: 100%">
<path fill="none" stroke="black" stroke-width="8" d="M434.84,-203.45C449.6,-207.25 464.91,-211.19 478.33,-214.65"/>
<polygon fill="black" stroke="black" stroke-width="8" points="476.75,-221.47 488.19,-217.19 480.25,-207.92 476.75,-221.47"/>
</a>
</g>
</g>
<!-- INCOME&#45;&gt;INVESTMENT -->
<g id="edge15" class="edge">
<title>INCOME&#45;&gt;INVESTMENT</title>
<g id="a_edge15"><a xlink:href="bogus" xlink:title=" INCOME &#45;&gt; INVESTMENT Min. att. 2000% &#160;max: 2000%">
<path fill="none" stroke="black" stroke-width="8" d="M631.33,-161.83C594.25,-168.63 533.58,-181.12 483,-198 466.39,-203.54 463.26,-207.51 447,-214 441.96,-216.01 436.71,-218.03 431.42,-220.01"/>
<polygon fill="black" stroke="black" stroke-width="8" points="428.85,-213.5 421.89,-223.53 433.7,-226.63 428.85,-213.5"/>
</a>
</g>
</g>
<!-- INCOME&#45;&gt;CONSUMPTION -->
<g id="edge12" class="edge">
<title>INCOME&#45;&gt;CONSUMPTION</title>
<g id="a_edge12"><a xlink:href="bogus" xlink:title=" INCOME &#45;&gt; CONSUMPTION Min. att. 100% &#160;max: 100%">
<path fill="none" stroke="black" stroke-width="8" d="M631.29,-152.84C565.3,-147.51 416.08,-139.25 293,-160 280.35,-162.13 267.09,-165.72 254.68,-169.71"/>
<polygon fill="black" stroke="black" stroke-width="8" points="252.2,-163.16 244.94,-172.98 256.65,-176.43 252.2,-163.16"/>
</a>
</g>
</g>
<!-- CAPITAL&#45;&gt;CAPITAL(&#45;1) -->
<g id="edge10" class="edge">
<title>CAPITAL&#45;&gt;CAPITAL(&#45;1)</title>
<g id="a_edge10"><a xlink:href="bogus" xlink:title=" CAPITAL &#45;&gt; CAPITAL(&#45;1) Min. att. 0% &#160;max: 94%">
<path fill="none" stroke="black" stroke-width="8" d="M556.34,-290.48C572.84,-293.98 592.76,-298.99 611.05,-304.17"/>
<polygon fill="black" stroke="black" stroke-width="8" points="609.17,-310.91 620.73,-306.98 613.07,-297.47 609.17,-310.91"/>
</a>
</g>
</g>
<!-- CAPITAL&#45;&gt;CAPITAL_INTENSITY -->
<g id="edge16" class="edge">
<title>CAPITAL&#45;&gt;CAPITAL_INTENSITY</title>
<g id="a_edge16"><a xlink:href="bogus" xlink:title=" CAPITAL &#45;&gt; CAPITAL_INTENSITY Min. att. &#45;647% &#160;max: &#45;3%">
<path fill="none" stroke="black" stroke-width="8" d="M556.34,-283.04C564.2,-282.18 572.84,-281.22 581.72,-280.25"/>
<polygon fill="black" stroke="black" stroke-width="8" points="582.63,-287.19 591.8,-279.13 581.09,-273.27 582.63,-287.19"/>
</a>
</g>
</g>
<!-- CAPITAL&#45;&gt;INCOME -->
<g id="edge8" class="edge">
<title>CAPITAL&#45;&gt;INCOME</title>
<g id="a_edge8"><a xlink:href="bogus" xlink:title=" CAPITAL &#45;&gt; INCOME Min. att. 3% &#160;max: 54%">
<path fill="none" stroke="black" stroke-width="5.42" d="M540.64,-268.98C545.94,-263.76 551.44,-257.88 556,-252 575.52,-226.81 568.45,-211.46 592,-190 600.68,-182.09 611.52,-175.72 622.19,-170.73"/>
<polygon fill="black" stroke="black" stroke-width="5.42" points="624.18,-175.04 631.46,-166.7 620.4,-166.34 624.18,-175.04"/>
</a>
</g>
</g>
</g>
</svg>
