<?xml version="1.0" encoding="UTF-8" standalone="no"?>
<!DOCTYPE svg PUBLIC "-//W3C//DTD SVG 1.1//EN"
 "http://www.w3.org/Graphics/SVG/1.1/DTD/svg11.dtd">
<!-- Generated by graphviz version 6.0.1 (0)
 -->
<!-- Title: TD Pages: 1 -->
<svg width="1012pt" height="202pt"
 viewBox="0.00 0.00 1012.00 202.00" xmlns="http://www.w3.org/2000/svg" xmlns:xlink="http://www.w3.org/1999/xlink">
<g id="graph0" class="graph" transform="scale(1 1) rotate(0) translate(4 198)">
<title>TD</title>
<polygon fill="white" stroke="none" points="-4,4 -4,-198 1008,-198 1008,4 -4,4"/>
<text text-anchor="middle" x="502" y="-7.8" font-family="Times New Roman,serif" font-size="14.00">Model Structure</text>
<!-- LABOR(&#45;1) -->
<g id="node1" class="node">
<title>LABOR(&#45;1)</title>
<g id="a_node1"><a xlink:title="LABOR&#10;FRML &lt;&gt; LABOR=LABOR(&#45;1)+(LABOR_GROWTH * LABOR(&#45;1))$">
<polygon fill="springgreen" stroke="black" points="128.5,-194 0.5,-194 0.5,-158 128.5,-158 128.5,-194"/>
<text text-anchor="start" x="6.5" y="-171.8" font-family="Times New Roman,serif" font-size="14.00" fill="blue">LABOR(&#45;1):LABOR</text>
</a>
</g>
</g>
<!-- LABOR -->
<g id="node6" class="node">
<title>LABOR</title>
<g id="a_node6"><a xlink:title="LABOR&#10;FRML &lt;&gt; LABOR=LABOR(&#45;1)+(LABOR_GROWTH * LABOR(&#45;1))$">
<polygon fill="#63b8ff" stroke="black" points="227,-194 165,-194 165,-158 227,-158 227,-194"/>
<text text-anchor="start" x="171" y="-171.8" font-family="Times New Roman,serif" font-size="14.00" fill="blue">LABOR:</text>
</a>
</g>
</g>
<!-- LABOR(&#45;1)&#45;&gt;LABOR -->
<g id="edge10" class="edge">
<title>LABOR(&#45;1)&#45;&gt;LABOR</title>
<g id="a_edge10"><a xlink:href="bogus" xlink:title="NA">
<path fill="none" stroke="black" stroke-width="0.5" d="M128.73,-169.25C137.58,-169.23 146.47,-169.38 154.73,-169.7"/>
<polygon fill="black" stroke="black" stroke-width="0.5" points="154.65,-173.2 164.81,-170.19 154.99,-166.21 154.65,-173.2"/>
</a>
</g>
</g>
<!-- CAPITAL_INTENSITY -->
<g id="node2" class="node">
<title>CAPITAL_INTENSITY</title>
<g id="a_node2"><a xlink:title="CAPITAL_INTENSITY&#10;FRML &lt;&gt; CAPITAL_INTENSITY = CAPITAL/LABOR &#160;$">
<polygon fill="#63b8ff" stroke="black" points="1004,-190 855,-190 855,-154 1004,-154 1004,-190"/>
<text text-anchor="start" x="861.5" y="-167.8" font-family="Times New Roman,serif" font-size="14.00" fill="blue">CAPITAL_INTENSITY:</text>
</a>
</g>
</g>
<!-- SAVING_RATE -->
<g id="node3" class="node">
<title>SAVING_RATE</title>
<g id="a_node3"><a xlink:title="SAVING_RATE&#10;Exogen">
<polygon fill="yellow" stroke="black" points="369,-75 263,-75 263,-39 369,-39 369,-75"/>
<text text-anchor="start" x="269" y="-52.8" font-family="Times New Roman,serif" font-size="14.00" fill="blue">SAVING_RATE:</text>
</a>
</g>
</g>
<!-- CONSUMPTION -->
<g id="node12" class="node">
<title>CONSUMPTION</title>
<g id="a_node12"><a xlink:title="CONSUMPTION&#10;FRML &lt;&gt; CONSUMPTION &#160;&#160;&#160;&#160;= (1&#45;SAVING_RATE) &#160;* INCOME &#160;$">
<polygon fill="#63b8ff" stroke="black" points="520,-75 405,-75 405,-39 520,-39 520,-75"/>
<text text-anchor="start" x="411.5" y="-52.8" font-family="Times New Roman,serif" font-size="14.00" fill="blue">CONSUMPTION:</text>
</a>
</g>
</g>
<!-- SAVING_RATE&#45;&gt;CONSUMPTION -->
<g id="edge5" class="edge">
<title>SAVING_RATE&#45;&gt;CONSUMPTION</title>
<g id="a_edge5"><a xlink:href="bogus" xlink:title=" SAVING_RATE &#45;&gt; CONSUMPTION Min. att. 0% &#160;max: 0%">
<path fill="none" stroke="black" d="M369.17,-57C377.33,-57 385.86,-57 394.3,-57"/>
<polygon fill="black" stroke="black" points="394.52,-60.5 404.52,-57 394.52,-53.5 394.52,-60.5"/>
</a>
</g>
</g>
<!-- CAPITAL -->
<g id="node4" class="node">
<title>CAPITAL</title>
<g id="a_node4"><a xlink:title="CAPITAL&#10;FRML &lt;&gt; CAPITAL=CAPITAL(&#45;1)+(INVESTMENT&#45;DEPRECIATION_RATE * CAPITAL(&#45;1))$">
<polygon fill="#63b8ff" stroke="black" points="819,-128 746,-128 746,-92 819,-92 819,-128"/>
<text text-anchor="start" x="752.5" y="-105.8" font-family="Times New Roman,serif" font-size="14.00" fill="blue">CAPITAL:</text>
</a>
</g>
</g>
<!-- CAPITAL&#45;&gt;CAPITAL_INTENSITY -->
<g id="edge17" class="edge">
<title>CAPITAL&#45;&gt;CAPITAL_INTENSITY</title>
<g id="a_edge17"><a xlink:href="bogus" xlink:title=" CAPITAL &#45;&gt; CAPITAL_INTENSITY Min. att. &#45;647% &#160;max: &#45;3%">
<path fill="none" stroke="black" stroke-width="8" d="M819.34,-125.33C836.7,-132.75 857.87,-141.8 876.93,-149.95"/>
<polygon fill="black" stroke="black" stroke-width="8" points="874.43,-156.49 886.38,-153.99 879.94,-143.62 874.43,-156.49"/>
</a>
</g>
</g>
<!-- CAPITAL(&#45;1) -->
<g id="node8" class="node">
<title>CAPITAL(&#45;1)</title>
<g id="a_node8"><a xlink:title="CAPITAL&#10;FRML &lt;&gt; CAPITAL=CAPITAL(&#45;1)+(INVESTMENT&#45;DEPRECIATION_RATE * CAPITAL(&#45;1))$">
<polygon fill="springgreen" stroke="black" points="1004,-128 855,-128 855,-92 1004,-92 1004,-128"/>
<text text-anchor="start" x="861.5" y="-105.8" font-family="Times New Roman,serif" font-size="14.00" fill="blue">CAPITAL(&#45;1):CAPITAL</text>
</a>
</g>
</g>
<!-- CAPITAL&#45;&gt;CAPITAL(&#45;1) -->
<g id="edge16" class="edge">
<title>CAPITAL&#45;&gt;CAPITAL(&#45;1)</title>
<g id="a_edge16"><a xlink:href="bogus" xlink:title=" CAPITAL &#45;&gt; CAPITAL(&#45;1) Min. att. 0% &#160;max: 94%">
<path fill="none" stroke="black" stroke-width="8" d="M819.34,-104.08C827.2,-103.69 835.84,-103.44 844.72,-103.32"/>
<polygon fill="black" stroke="black" stroke-width="8" points="844.85,-110.32 854.8,-103.25 844.75,-96.32 844.85,-110.32"/>
</a>
</g>
</g>
<!-- INCOME -->
<g id="node11" class="node">
<title>INCOME</title>
<g id="a_node11"><a xlink:title="INCOME&#10;FRML &lt;&gt; INCOME &#160;&#160;&#160;&#160;&#160;&#160;&#160;&#160;&#160;= A &#160;* CAPITAL**ALFA * LABOR **(1&#45;ALFA) &#160;$">
<polygon fill="#63b8ff" stroke="black" points="351,-136 281,-136 281,-100 351,-100 351,-136"/>
<text text-anchor="start" x="287" y="-113.8" font-family="Times New Roman,serif" font-size="14.00" fill="blue">INCOME:</text>
</a>
</g>
</g>
<!-- CAPITAL&#45;&gt;INCOME -->
<g id="edge14" class="edge">
<title>CAPITAL&#45;&gt;INCOME</title>
<g id="a_edge14"><a xlink:href="bogus" xlink:title=" CAPITAL &#45;&gt; INCOME Min. att. 3% &#160;max: 54%">
<path fill="none" stroke="black" stroke-width="5.42" d="M745.64,-117.22C734.29,-119.18 721.67,-121.03 710,-122 574.91,-133.26 540.53,-123.76 405,-121 390.87,-120.71 375.47,-120.24 361.56,-119.76"/>
<polygon fill="black" stroke="black" stroke-width="5.42" points="361.43,-115 351.26,-119.39 361.09,-124.49 361.43,-115"/>
</a>
</g>
</g>
<!-- INVESTMENT -->
<g id="node5" class="node">
<title>INVESTMENT</title>
<g id="a_node5"><a xlink:title="INVESTMENT&#10;FRML &lt;&gt; INVESTMENT &#160;&#160;&#160;&#160;&#160;= INCOME &#45; CONSUMPTION &#160;&#160;&#160;$">
<polygon fill="#63b8ff" stroke="black" points="684.5,-113 581.5,-113 581.5,-77 684.5,-77 684.5,-113"/>
<text text-anchor="start" x="588" y="-90.8" font-family="Times New Roman,serif" font-size="14.00" fill="blue">INVESTMENT:</text>
</a>
</g>
</g>
<!-- INVESTMENT&#45;&gt;CAPITAL -->
<g id="edge6" class="edge">
<title>INVESTMENT&#45;&gt;CAPITAL</title>
<g id="a_edge6"><a xlink:href="bogus" xlink:title=" INVESTMENT &#45;&gt; CAPITAL Min. att. 6% &#160;max: 100%">
<path fill="none" stroke="black" stroke-width="8" d="M684.76,-100.16C701.3,-101.84 719.56,-103.7 735.72,-105.34"/>
<polygon fill="black" stroke="black" stroke-width="8" points="735.33,-112.34 745.99,-106.39 736.75,-98.41 735.33,-112.34"/>
</a>
</g>
</g>
<!-- LABOR&#45;&gt;LABOR(&#45;1) -->
<g id="edge2" class="edge">
<title>LABOR&#45;&gt;LABOR(&#45;1)</title>
<g id="a_edge2"><a xlink:href="bogus" xlink:title=" LABOR &#45;&gt; LABOR(&#45;1) Min. att. 0% &#160;max: 100%">
<path fill="none" stroke="black" stroke-width="8" d="M164.81,-181.81C156.86,-182.29 147.91,-182.59 138.74,-182.7"/>
<polygon fill="black" stroke="black" stroke-width="8" points="138.7,-175.7 128.73,-182.75 138.77,-189.7 138.7,-175.7"/>
</a>
</g>
</g>
<!-- LABOR&#45;&gt;CAPITAL_INTENSITY -->
<g id="edge9" class="edge">
<title>LABOR&#45;&gt;CAPITAL_INTENSITY</title>
<g id="a_edge9"><a xlink:href="bogus" xlink:title=" LABOR &#45;&gt; CAPITAL_INTENSITY Min. att. 103% &#160;max: 1269%">
<path fill="none" stroke="black" stroke-width="8" d="M227.15,-176.56C276.24,-177.43 376.54,-179 461.5,-179 461.5,-179 461.5,-179 634,-179 705.19,-179 786.03,-176.93 844.98,-175.04"/>
<polygon fill="black" stroke="black" stroke-width="8" points="845.22,-182.04 854.99,-174.72 844.76,-168.05 845.22,-182.04"/>
</a>
</g>
</g>
<!-- LABOR&#45;&gt;INCOME -->
<g id="edge4" class="edge">
<title>LABOR&#45;&gt;INCOME</title>
<g id="a_edge4"><a xlink:href="bogus" xlink:title=" LABOR &#45;&gt; INCOME Min. att. 59% &#160;max: 97%">
<path fill="none" stroke="black" stroke-width="8" d="M227.08,-161.21C240.65,-154.54 256.94,-146.54 271.78,-139.24"/>
<polygon fill="black" stroke="black" stroke-width="8" points="274.91,-145.5 280.8,-134.81 268.74,-132.94 274.91,-145.5"/>
</a>
</g>
</g>
<!-- ALFA -->
<g id="node7" class="node">
<title>ALFA</title>
<g id="a_node7"><a xlink:title="ALFA&#10;Exogen">
<polygon fill="yellow" stroke="black" points="223,-138 169,-138 169,-102 223,-102 223,-138"/>
<text text-anchor="start" x="177" y="-115.8" font-family="Times New Roman,serif" font-size="14.00" fill="blue">ALFA:</text>
</a>
</g>
</g>
<!-- ALFA&#45;&gt;INCOME -->
<g id="edge8" class="edge">
<title>ALFA&#45;&gt;INCOME</title>
<g id="a_edge8"><a xlink:href="bogus" xlink:title=" ALFA &#45;&gt; INCOME Min. att. &#45;0% &#160;max: &#45;0%">
<path fill="none" stroke="black" d="M223.19,-119.56C237.11,-119.32 254.61,-119.02 270.59,-118.75"/>
<polygon fill="black" stroke="black" points="270.88,-122.25 280.82,-118.58 270.76,-115.25 270.88,-122.25"/>
</a>
</g>
</g>
<!-- CAPITAL(&#45;1)&#45;&gt;CAPITAL -->
<g id="edge15" class="edge">
<title>CAPITAL(&#45;1)&#45;&gt;CAPITAL</title>
<g id="a_edge15"><a xlink:href="bogus" xlink:title="NA">
<path fill="none" stroke="black" stroke-width="0.5" d="M854.8,-116.75C846.22,-116.74 837.66,-116.6 829.6,-116.34"/>
<polygon fill="black" stroke="black" stroke-width="0.5" points="829.48,-112.83 819.34,-115.92 829.19,-119.82 829.48,-112.83"/>
</a>
</g>
</g>
<!-- A -->
<g id="node9" class="node">
<title>A</title>
<g id="a_node9"><a xlink:title="A&#10;Exogen">
<polygon fill="yellow" stroke="black" points="223,-84 169,-84 169,-48 223,-48 223,-84"/>
<text text-anchor="start" x="189" y="-61.8" font-family="Times New Roman,serif" font-size="14.00" fill="blue">A:</text>
</a>
</g>
</g>
<!-- A&#45;&gt;INCOME -->
<g id="edge1" class="edge">
<title>A&#45;&gt;INCOME</title>
<g id="a_edge1"><a xlink:href="bogus" xlink:title=" A &#45;&gt; INCOME Min. att. &#45;0% &#160;max: &#45;0%">
<path fill="none" stroke="black" d="M223.19,-77.54C237.38,-83.79 255.28,-91.68 271.5,-98.83"/>
<polygon fill="black" stroke="black" points="270.25,-102.11 280.82,-102.94 273.08,-95.7 270.25,-102.11"/>
</a>
</g>
</g>
<!-- LABOR_GROWTH -->
<g id="node10" class="node">
<title>LABOR_GROWTH</title>
<g id="a_node10"><a xlink:title="LABOR_GROWTH&#10;Exogen">
<polygon fill="yellow" stroke="black" points="129,-140 0,-140 0,-104 129,-104 129,-140"/>
<text text-anchor="start" x="6.5" y="-117.8" font-family="Times New Roman,serif" font-size="14.00" fill="blue">LABOR_GROWTH:</text>
</a>
</g>
</g>
<!-- LABOR_GROWTH&#45;&gt;LABOR -->
<g id="edge3" class="edge">
<title>LABOR_GROWTH&#45;&gt;LABOR</title>
<g id="a_edge3"><a xlink:href="bogus" xlink:title=" LABOR_GROWTH &#45;&gt; LABOR Min. att. 0% &#160;max: 100%">
<path fill="none" stroke="black" stroke-width="8" d="M108.98,-140.13C124.05,-146.41 140.85,-153.42 155.57,-159.56"/>
<polygon fill="black" stroke="black" stroke-width="8" points="152.99,-166.06 164.91,-163.45 158.37,-153.14 152.99,-166.06"/>
</a>
</g>
</g>
<!-- INCOME&#45;&gt;INVESTMENT -->
<g id="edge13" class="edge">
<title>INCOME&#45;&gt;INVESTMENT</title>
<g id="a_edge13"><a xlink:href="bogus" xlink:title=" INCOME &#45;&gt; INVESTMENT Min. att. 2000% &#160;max: 2000%">
<path fill="none" stroke="black" stroke-width="8" d="M351.01,-115.52C403.64,-111.67 505.56,-104.23 571.1,-99.45"/>
<polygon fill="black" stroke="black" stroke-width="8" points="571.84,-106.41 581.3,-98.7 570.82,-92.45 571.84,-106.41"/>
</a>
</g>
</g>
<!-- INCOME&#45;&gt;CONSUMPTION -->
<g id="edge12" class="edge">
<title>INCOME&#45;&gt;CONSUMPTION</title>
<g id="a_edge12"><a xlink:href="bogus" xlink:title=" INCOME &#45;&gt; CONSUMPTION Min. att. 100% &#160;max: 100%">
<path fill="none" stroke="black" stroke-width="8" d="M351.24,-103.54C368.6,-96.22 390.05,-87.16 409.4,-78.99"/>
<polygon fill="black" stroke="black" stroke-width="8" points="412.21,-85.4 418.7,-75.07 406.77,-72.51 412.21,-85.4"/>
</a>
</g>
</g>
<!-- CONSUMPTION&#45;&gt;INVESTMENT -->
<g id="edge7" class="edge">
<title>CONSUMPTION&#45;&gt;INVESTMENT</title>
<g id="a_edge7"><a xlink:href="bogus" xlink:title=" CONSUMPTION &#45;&gt; INVESTMENT Min. att. &#45;1900% &#160;max: &#45;1900%">
<path fill="none" stroke="black" stroke-width="8" d="M520.08,-69.76C536.47,-73.46 554.43,-77.51 571.07,-81.26"/>
<polygon fill="black" stroke="black" stroke-width="8" points="569.94,-88.18 581.24,-83.55 573.02,-74.52 569.94,-88.18"/>
</a>
</g>
</g>
<!-- DEPRECIATION_RATE -->
<g id="node13" class="node">
<title>DEPRECIATION_RATE</title>
<g id="a_node13"><a xlink:title="DEPRECIATION_RATE&#10;Exogen">
<polygon fill="yellow" stroke="black" points="710,-59 556,-59 556,-23 710,-23 710,-59"/>
<text text-anchor="start" x="562" y="-36.8" font-family="Times New Roman,serif" font-size="14.00" fill="blue">DEPRECIATION_RATE:</text>
</a>
</g>
</g>
<!-- DEPRECIATION_RATE&#45;&gt;CAPITAL -->
<g id="edge11" class="edge">
<title>DEPRECIATION_RATE&#45;&gt;CAPITAL</title>
<g id="a_edge11"><a xlink:href="bogus" xlink:title=" DEPRECIATION_RATE &#45;&gt; CAPITAL Min. att. 0% &#160;max: 0%">
<path fill="none" stroke="black" d="M688.89,-59.09C696.08,-61.87 703.27,-64.86 710,-68 721.62,-73.42 733.81,-80.15 744.77,-86.62"/>
<polygon fill="black" stroke="black" points="743.27,-89.81 753.64,-91.97 746.88,-83.81 743.27,-89.81"/>
</a>
</g>
</g>
</g>
</svg>
