<?xml version="1.0" encoding="UTF-8" standalone="no"?>
<!DOCTYPE svg PUBLIC "-//W3C//DTD SVG 1.1//EN"
 "http://www.w3.org/Graphics/SVG/1.1/DTD/svg11.dtd">
<!-- Generated by graphviz version 6.0.1 (0)
 -->
<!-- Title: TD Pages: 1 -->
<svg width="746pt" height="301pt"
 viewBox="0.00 0.00 746.00 300.74" xmlns="http://www.w3.org/2000/svg" xmlns:xlink="http://www.w3.org/1999/xlink">
<g id="graph0" class="graph" transform="scale(1 1) rotate(0) translate(4 296.74)">
<title>TD</title>
<polygon fill="white" stroke="none" points="-4,4 -4,-296.74 742,-296.74 742,4 -4,4"/>
<text text-anchor="middle" x="369" y="-7.8" font-family="Times New Roman,serif" font-size="14.00">Model Structure</text>
<!-- CAPITAL_INTENSITY -->
<g id="node1" class="node">
<title>CAPITAL_INTENSITY</title>
<g id="a_node1"><a xlink:title="CAPITAL_INTENSITY&#10;FRML &lt;&gt; CAPITAL_INTENSITY = CAPITAL/LABOR &#160;$">
<polygon fill="#63b8ff" stroke="black" points="448,-113 299,-113 299,-77 448,-77 448,-113"/>
<text text-anchor="start" x="305.5" y="-90.8" font-family="Times New Roman,serif" font-size="14.00" fill="blue">CAPITAL_INTENSITY:</text>
</a>
</g>
</g>
<!-- DEPRECIATION_RATE -->
<g id="node2" class="node">
<title>DEPRECIATION_RATE</title>
<g id="a_node2"><a xlink:title="DEPRECIATION_RATE&#10;Exogen">
<polygon fill="yellow" stroke="black" points="154,-275 0,-275 0,-239 154,-239 154,-275"/>
<text text-anchor="start" x="6" y="-252.8" font-family="Times New Roman,serif" font-size="14.00" fill="blue">DEPRECIATION_RATE:</text>
</a>
</g>
</g>
<!-- CAPITAL -->
<g id="node5" class="node">
<title>CAPITAL</title>
<g id="a_node5"><a xlink:title="CAPITAL&#10;FRML &lt;&gt; CAPITAL=CAPITAL(&#45;1)+(INVESTMENT&#45;DEPRECIATION_RATE * CAPITAL(&#45;1))$">
<polygon fill="#63b8ff" stroke="black" points="263,-275 190,-275 190,-239 263,-239 263,-275"/>
<text text-anchor="start" x="196.5" y="-252.8" font-family="Times New Roman,serif" font-size="14.00" fill="blue">CAPITAL:</text>
</a>
</g>
</g>
<!-- DEPRECIATION_RATE&#45;&gt;CAPITAL -->
<g id="edge10" class="edge">
<title>DEPRECIATION_RATE&#45;&gt;CAPITAL</title>
<g id="a_edge10"><a xlink:href="bogus" xlink:title=" DEPRECIATION_RATE &#45;&gt; CAPITAL Min. att. 0% &#160;max: 0%">
<path fill="none" stroke="black" d="M154.34,-257C162.94,-257 171.5,-257 179.54,-257"/>
<polygon fill="black" stroke="black" points="179.77,-260.5 189.77,-257 179.77,-253.5 179.77,-260.5"/>
</a>
</g>
</g>
<!-- INVESTMENT -->
<g id="node3" class="node">
<title>INVESTMENT</title>
<g id="a_node3"><a xlink:title="INVESTMENT&#10;FRML &lt;&gt; INVESTMENT &#160;&#160;&#160;&#160;&#160;= INCOME &#45; CONSUMPTION &#160;&#160;&#160;$">
<polygon fill="#63b8ff" stroke="black" points="738,-217 635,-217 635,-181 738,-181 738,-217"/>
<text text-anchor="start" x="641.5" y="-194.8" font-family="Times New Roman,serif" font-size="14.00" fill="blue">INVESTMENT:</text>
</a>
</g>
</g>
<!-- INVESTMENT&#45;&gt;CAPITAL -->
<g id="edge1" class="edge">
<title>INVESTMENT&#45;&gt;CAPITAL</title>
<g id="a_edge1"><a xlink:href="bogus" xlink:title=" INVESTMENT &#45;&gt; CAPITAL Min. att. 6% &#160;max: 100%">
<path fill="none" stroke="black" stroke-width="8" d="M647.93,-217.02C602.02,-237.96 521.35,-271.27 448,-284 382.75,-295.32 364.15,-295.89 299,-284 290.27,-282.41 281.23,-279.81 272.63,-276.83"/>
<polygon fill="black" stroke="black" stroke-width="8" points="274.95,-270.23 263.15,-273.35 270.12,-283.37 274.95,-270.23"/>
</a>
</g>
</g>
<!-- A -->
<g id="node4" class="node">
<title>A</title>
<g id="a_node4"><a xlink:title="A&#10;Exogen">
<polygon fill="yellow" stroke="black" points="253.5,-208 199.5,-208 199.5,-172 253.5,-172 253.5,-208"/>
<text text-anchor="start" x="219.5" y="-185.8" font-family="Times New Roman,serif" font-size="14.00" fill="blue">A:</text>
</a>
</g>
</g>
<!-- INCOME -->
<g id="node13" class="node">
<title>INCOME</title>
<g id="a_node13"><a xlink:title="INCOME&#10;FRML &lt;&gt; INCOME &#160;&#160;&#160;&#160;&#160;&#160;&#160;&#160;&#160;= A &#160;* CAPITAL**ALFA * LABOR **(1&#45;ALFA) &#160;$">
<polygon fill="#63b8ff" stroke="black" points="408.5,-167 338.5,-167 338.5,-131 408.5,-131 408.5,-167"/>
<text text-anchor="start" x="344.5" y="-144.8" font-family="Times New Roman,serif" font-size="14.00" fill="blue">INCOME:</text>
</a>
</g>
</g>
<!-- A&#45;&gt;INCOME -->
<g id="edge13" class="edge">
<title>A&#45;&gt;INCOME</title>
<g id="a_edge13"><a xlink:href="bogus" xlink:title=" A &#45;&gt; INCOME Min. att. &#45;0% &#160;max: &#45;0%">
<path fill="none" stroke="black" d="M253.76,-182.58C274.56,-176.69 304.08,-168.35 328.48,-161.45"/>
<polygon fill="black" stroke="black" points="329.57,-164.78 338.24,-158.69 327.66,-158.04 329.57,-164.78"/>
</a>
</g>
</g>
<!-- CAPITAL&#45;&gt;CAPITAL_INTENSITY -->
<g id="edge2" class="edge">
<title>CAPITAL&#45;&gt;CAPITAL_INTENSITY</title>
<g id="a_edge2"><a xlink:href="bogus" xlink:title=" CAPITAL &#45;&gt; CAPITAL_INTENSITY Min. att. &#45;647% &#160;max: &#45;3%">
<path fill="none" stroke="black" stroke-width="8" d="M245.99,-238.99C251.98,-232.47 258.29,-224.79 263,-217 286.37,-178.37 266.91,-153.76 299,-122 299.95,-121.06 300.94,-120.15 301.96,-119.27"/>
<polygon fill="black" stroke="black" stroke-width="8" points="306.39,-124.7 310.31,-113.14 298.1,-113.42 306.39,-124.7"/>
</a>
</g>
</g>
<!-- CAPITAL(&#45;1) -->
<g id="node7" class="node">
<title>CAPITAL(&#45;1)</title>
<g id="a_node7"><a xlink:title="CAPITAL&#10;FRML &lt;&gt; CAPITAL=CAPITAL(&#45;1)+(INVESTMENT&#45;DEPRECIATION_RATE * CAPITAL(&#45;1))$">
<polygon fill="springgreen" stroke="black" points="448,-275 299,-275 299,-239 448,-239 448,-275"/>
<text text-anchor="start" x="305.5" y="-252.8" font-family="Times New Roman,serif" font-size="14.00" fill="blue">CAPITAL(&#45;1):CAPITAL</text>
</a>
</g>
</g>
<!-- CAPITAL&#45;&gt;CAPITAL(&#45;1) -->
<g id="edge9" class="edge">
<title>CAPITAL&#45;&gt;CAPITAL(&#45;1)</title>
<g id="a_edge9"><a xlink:href="bogus" xlink:title=" CAPITAL &#45;&gt; CAPITAL(&#45;1) Min. att. 0% &#160;max: 94%">
<path fill="none" stroke="black" stroke-width="8" d="M263.34,-251.08C271.2,-250.69 279.84,-250.44 288.72,-250.32"/>
<polygon fill="black" stroke="black" stroke-width="8" points="288.85,-257.32 298.8,-250.25 288.75,-243.32 288.85,-257.32"/>
</a>
</g>
</g>
<!-- CAPITAL&#45;&gt;INCOME -->
<g id="edge17" class="edge">
<title>CAPITAL&#45;&gt;INCOME</title>
<g id="a_edge17"><a xlink:href="bogus" xlink:title=" CAPITAL &#45;&gt; INCOME Min. att. 3% &#160;max: 54%">
<path fill="none" stroke="black" stroke-width="5.42" d="M243.78,-238.7C249.82,-231.89 256.73,-224.1 263,-217 279.05,-198.82 279,-189.72 299,-176 307.92,-169.88 318.4,-164.96 328.6,-161.08"/>
<polygon fill="black" stroke="black" stroke-width="5.42" points="330.39,-165.48 338.24,-157.67 327.23,-156.53 330.39,-165.48"/>
</a>
</g>
</g>
<!-- SAVING_RATE -->
<g id="node6" class="node">
<title>SAVING_RATE</title>
<g id="a_node6"><a xlink:title="SAVING_RATE&#10;Exogen">
<polygon fill="yellow" stroke="black" points="426.5,-221 320.5,-221 320.5,-185 426.5,-185 426.5,-221"/>
<text text-anchor="start" x="326.5" y="-198.8" font-family="Times New Roman,serif" font-size="14.00" fill="blue">SAVING_RATE:</text>
</a>
</g>
</g>
<!-- CONSUMPTION -->
<g id="node9" class="node">
<title>CONSUMPTION</title>
<g id="a_node9"><a xlink:title="CONSUMPTION&#10;FRML &lt;&gt; CONSUMPTION &#160;&#160;&#160;&#160;= (1&#45;SAVING_RATE) &#160;* INCOME &#160;$">
<polygon fill="#63b8ff" stroke="black" points="599,-217 484,-217 484,-181 599,-181 599,-217"/>
<text text-anchor="start" x="490.5" y="-194.8" font-family="Times New Roman,serif" font-size="14.00" fill="blue">CONSUMPTION:</text>
</a>
</g>
</g>
<!-- SAVING_RATE&#45;&gt;CONSUMPTION -->
<g id="edge16" class="edge">
<title>SAVING_RATE&#45;&gt;CONSUMPTION</title>
<g id="a_edge16"><a xlink:href="bogus" xlink:title=" SAVING_RATE &#45;&gt; CONSUMPTION Min. att. 0% &#160;max: 0%">
<path fill="none" stroke="black" d="M426.57,-201.75C441.47,-201.39 457.91,-200.99 473.57,-200.61"/>
<polygon fill="black" stroke="black" points="473.81,-204.11 483.72,-200.37 473.64,-197.11 473.81,-204.11"/>
</a>
</g>
</g>
<!-- CAPITAL(&#45;1)&#45;&gt;CAPITAL -->
<g id="edge5" class="edge">
<title>CAPITAL(&#45;1)&#45;&gt;CAPITAL</title>
<g id="a_edge5"><a xlink:href="bogus" xlink:title="NA">
<path fill="none" stroke="black" stroke-width="0.5" d="M298.8,-263.75C290.22,-263.74 281.66,-263.6 273.6,-263.34"/>
<polygon fill="black" stroke="black" stroke-width="0.5" points="273.48,-259.83 263.34,-262.92 273.19,-266.82 273.48,-259.83"/>
</a>
</g>
</g>
<!-- LABOR_GROWTH -->
<g id="node8" class="node">
<title>LABOR_GROWTH</title>
<g id="a_node8"><a xlink:title="LABOR_GROWTH&#10;Exogen">
<polygon fill="yellow" stroke="black" points="141.5,-86 12.5,-86 12.5,-50 141.5,-50 141.5,-86"/>
<text text-anchor="start" x="19" y="-63.8" font-family="Times New Roman,serif" font-size="14.00" fill="blue">LABOR_GROWTH:</text>
</a>
</g>
</g>
<!-- LABOR -->
<g id="node10" class="node">
<title>LABOR</title>
<g id="a_node10"><a xlink:title="LABOR&#10;FRML &lt;&gt; LABOR=LABOR(&#45;1)+(LABOR_GROWTH * LABOR(&#45;1))$">
<polygon fill="#63b8ff" stroke="black" points="257.5,-86 195.5,-86 195.5,-50 257.5,-50 257.5,-86"/>
<text text-anchor="start" x="201.5" y="-63.8" font-family="Times New Roman,serif" font-size="14.00" fill="blue">LABOR:</text>
</a>
</g>
</g>
<!-- LABOR_GROWTH&#45;&gt;LABOR -->
<g id="edge7" class="edge">
<title>LABOR_GROWTH&#45;&gt;LABOR</title>
<g id="a_edge7"><a xlink:href="bogus" xlink:title=" LABOR_GROWTH &#45;&gt; LABOR Min. att. 0% &#160;max: 100%">
<path fill="none" stroke="black" stroke-width="8" d="M141.84,-68C156.46,-68 171.61,-68 184.94,-68"/>
<polygon fill="black" stroke="black" stroke-width="8" points="185.19,-75 195.19,-68 185.19,-61 185.19,-75"/>
</a>
</g>
</g>
<!-- CONSUMPTION&#45;&gt;INVESTMENT -->
<g id="edge8" class="edge">
<title>CONSUMPTION&#45;&gt;INVESTMENT</title>
<g id="a_edge8"><a xlink:href="bogus" xlink:title=" CONSUMPTION &#45;&gt; INVESTMENT Min. att. &#45;1900% &#160;max: &#45;1900%">
<path fill="none" stroke="black" stroke-width="8" d="M599.02,-199C607.45,-199 616.18,-199 624.7,-199"/>
<polygon fill="black" stroke="black" stroke-width="8" points="624.96,-206 634.96,-199 624.96,-192 624.96,-206"/>
</a>
</g>
</g>
<!-- LABOR&#45;&gt;CAPITAL_INTENSITY -->
<g id="edge14" class="edge">
<title>LABOR&#45;&gt;CAPITAL_INTENSITY</title>
<g id="a_edge14"><a xlink:href="bogus" xlink:title=" LABOR &#45;&gt; CAPITAL_INTENSITY Min. att. 103% &#160;max: 1269%">
<path fill="none" stroke="black" stroke-width="8" d="M257.54,-73.59C266.91,-75.34 277.74,-77.35 288.93,-79.44"/>
<polygon fill="black" stroke="black" stroke-width="8" points="287.71,-86.33 298.82,-81.28 290.27,-72.57 287.71,-86.33"/>
</a>
</g>
</g>
<!-- LABOR(&#45;1) -->
<g id="node11" class="node">
<title>LABOR(&#45;1)</title>
<g id="a_node11"><a xlink:title="LABOR&#10;FRML &lt;&gt; LABOR=LABOR(&#45;1)+(LABOR_GROWTH * LABOR(&#45;1))$">
<polygon fill="springgreen" stroke="black" points="437.5,-59 309.5,-59 309.5,-23 437.5,-23 437.5,-59"/>
<text text-anchor="start" x="315.5" y="-36.8" font-family="Times New Roman,serif" font-size="14.00" fill="blue">LABOR(&#45;1):LABOR</text>
</a>
</g>
</g>
<!-- LABOR&#45;&gt;LABOR(&#45;1) -->
<g id="edge3" class="edge">
<title>LABOR&#45;&gt;LABOR(&#45;1)</title>
<g id="a_edge3"><a xlink:href="bogus" xlink:title=" LABOR &#45;&gt; LABOR(&#45;1) Min. att. 0% &#160;max: 100%">
<path fill="none" stroke="black" stroke-width="8" d="M257.54,-56.81C269.74,-53.78 284.42,-50.67 299.14,-47.91"/>
<polygon fill="black" stroke="black" stroke-width="8" points="300.72,-54.74 309.31,-46.07 298.22,-40.96 300.72,-54.74"/>
</a>
</g>
</g>
<!-- LABOR&#45;&gt;INCOME -->
<g id="edge12" class="edge">
<title>LABOR&#45;&gt;INCOME</title>
<g id="a_edge12"><a xlink:href="bogus" xlink:title=" LABOR &#45;&gt; INCOME Min. att. 59% &#160;max: 97%">
<path fill="none" stroke="black" stroke-width="8" d="M247.97,-86.05C261.69,-97.48 280.57,-111.94 299,-122 308.31,-127.08 318.78,-131.57 328.83,-135.37"/>
<polygon fill="black" stroke="black" stroke-width="8" points="326.51,-141.97 338.29,-138.78 331.26,-128.8 326.51,-141.97"/>
</a>
</g>
</g>
<!-- LABOR(&#45;1)&#45;&gt;LABOR -->
<g id="edge6" class="edge">
<title>LABOR(&#45;1)&#45;&gt;LABOR</title>
<g id="a_edge6"><a xlink:href="bogus" xlink:title="NA">
<path fill="none" stroke="black" stroke-width="0.5" d="M311.39,-59.05C296.56,-62.01 281.08,-64.71 267.51,-66.66"/>
<polygon fill="black" stroke="black" stroke-width="0.5" points="266.99,-63.2 257.54,-68 267.92,-70.13 266.99,-63.2"/>
</a>
</g>
</g>
<!-- ALFA -->
<g id="node12" class="node">
<title>ALFA</title>
<g id="a_node12"><a xlink:title="ALFA&#10;Exogen">
<polygon fill="yellow" stroke="black" points="253.5,-154 199.5,-154 199.5,-118 253.5,-118 253.5,-154"/>
<text text-anchor="start" x="207.5" y="-131.8" font-family="Times New Roman,serif" font-size="14.00" fill="blue">ALFA:</text>
</a>
</g>
</g>
<!-- ALFA&#45;&gt;INCOME -->
<g id="edge11" class="edge">
<title>ALFA&#45;&gt;INCOME</title>
<g id="a_edge11"><a xlink:href="bogus" xlink:title=" ALFA &#45;&gt; INCOME Min. att. &#45;0% &#160;max: &#45;0%">
<path fill="none" stroke="black" d="M253.76,-138.35C274.47,-140.21 303.82,-142.84 328.15,-145.02"/>
<polygon fill="black" stroke="black" points="327.96,-148.52 338.24,-145.93 328.59,-141.55 327.96,-148.52"/>
</a>
</g>
</g>
<!-- INCOME&#45;&gt;INVESTMENT -->
<g id="edge15" class="edge">
<title>INCOME&#45;&gt;INVESTMENT</title>
<g id="a_edge15"><a xlink:href="bogus" xlink:title=" INCOME &#45;&gt; INVESTMENT Min. att. 2000% &#160;max: 2000%">
<path fill="none" stroke="black" stroke-width="8" d="M408.67,-150.37C452.96,-152.63 532.41,-158.34 599,-172 607.51,-173.75 616.37,-175.99 625.04,-178.45"/>
<polygon fill="black" stroke="black" stroke-width="8" points="623.15,-185.19 634.72,-181.29 627.09,-171.76 623.15,-185.19"/>
</a>
</g>
</g>
<!-- INCOME&#45;&gt;CONSUMPTION -->
<g id="edge4" class="edge">
<title>INCOME&#45;&gt;CONSUMPTION</title>
<g id="a_edge4"><a xlink:href="bogus" xlink:title=" INCOME &#45;&gt; CONSUMPTION Min. att. 100% &#160;max: 100%">
<path fill="none" stroke="black" stroke-width="8" d="M408.9,-159.36C427.76,-165.04 451.79,-172.28 474.14,-179.01"/>
<polygon fill="black" stroke="black" stroke-width="8" points="472.34,-185.78 483.93,-181.96 476.37,-172.37 472.34,-185.78"/>
</a>
</g>
</g>
</g>
</svg>
