<?xml version="1.0" encoding="UTF-8" standalone="no"?>
<!DOCTYPE svg PUBLIC "-//W3C//DTD SVG 1.1//EN"
 "http://www.w3.org/Graphics/SVG/1.1/DTD/svg11.dtd">
<!-- Generated by graphviz version 6.0.1 (0)
 -->
<!-- Title: TD Pages: 1 -->
<svg width="1034pt" height="208pt"
 viewBox="0.00 0.00 1034.00 208.03" xmlns="http://www.w3.org/2000/svg" xmlns:xlink="http://www.w3.org/1999/xlink">
<g id="graph0" class="graph" transform="scale(1 1) rotate(0) translate(4 204.03)">
<title>TD</title>
<polygon fill="white" stroke="none" points="-4,4 -4,-204.03 1030,-204.03 1030,4 -4,4"/>
<text text-anchor="middle" x="513" y="-7.8" font-family="Times New Roman,serif" font-size="14.00">Model Structure</text>
<!-- LABOR -->
<g id="node1" class="node">
<title>LABOR</title>
<g id="a_node1"><a xlink:title="LABOR&#10;FRML &lt;&gt; LABOR=LABOR(&#45;1)+(LABOR_GROWTH * LABOR(&#45;1))$">
<polygon fill="#63b8ff" stroke="black" points="227,-88.03 165,-88.03 165,-52.03 227,-52.03 227,-88.03"/>
<text text-anchor="start" x="171" y="-65.83" font-family="Times New Roman,serif" font-size="14.00" fill="blue">LABOR:</text>
</a>
</g>
</g>
<!-- INCOME -->
<g id="node5" class="node">
<title>INCOME</title>
<g id="a_node5"><a xlink:title="INCOME&#10;FRML &lt;&gt; INCOME &#160;&#160;&#160;&#160;&#160;&#160;&#160;&#160;&#160;= A &#160;* CAPITAL**ALFA * LABOR **(1&#45;ALFA) &#160;$">
<polygon fill="#63b8ff" stroke="black" points="362,-142.03 292,-142.03 292,-106.03 362,-106.03 362,-142.03"/>
<text text-anchor="start" x="298" y="-119.83" font-family="Times New Roman,serif" font-size="14.00" fill="blue">INCOME:</text>
</a>
</g>
</g>
<!-- LABOR&#45;&gt;INCOME -->
<g id="edge14" class="edge">
<title>LABOR&#45;&gt;INCOME</title>
<g id="a_edge14"><a xlink:href="bogus" xlink:title=" LABOR &#45;&gt; INCOME Min. att. 59% &#160;max: 97%">
<path fill="none" stroke="black" stroke-width="8" d="M227.24,-82.69C243.73,-89.59 264.43,-98.25 282.61,-105.86"/>
<polygon fill="black" stroke="black" stroke-width="8" points="279.92,-112.33 291.85,-109.73 285.33,-99.41 279.92,-112.33"/>
</a>
</g>
</g>
<!-- LABOR(&#45;1) -->
<g id="node10" class="node">
<title>LABOR(&#45;1)</title>
<g id="a_node10"><a xlink:title="LABOR&#10;FRML &lt;&gt; LABOR=LABOR(&#45;1)+(LABOR_GROWTH * LABOR(&#45;1))$">
<polygon fill="springgreen" stroke="black" points="391,-88.03 263,-88.03 263,-52.03 391,-52.03 391,-88.03"/>
<text text-anchor="start" x="269" y="-65.83" font-family="Times New Roman,serif" font-size="14.00" fill="blue">LABOR(&#45;1):LABOR</text>
</a>
</g>
</g>
<!-- LABOR&#45;&gt;LABOR(&#45;1) -->
<g id="edge17" class="edge">
<title>LABOR&#45;&gt;LABOR(&#45;1)</title>
<g id="a_edge17"><a xlink:href="bogus" xlink:title=" LABOR &#45;&gt; LABOR(&#45;1) Min. att. 0% &#160;max: 100%">
<path fill="none" stroke="black" stroke-width="8" d="M227.24,-64.21C235.04,-63.74 243.77,-63.45 252.73,-63.33"/>
<polygon fill="black" stroke="black" stroke-width="8" points="252.94,-70.33 262.91,-63.28 252.87,-56.33 252.94,-70.33"/>
</a>
</g>
</g>
<!-- CAPITAL_INTENSITY -->
<g id="node12" class="node">
<title>CAPITAL_INTENSITY</title>
<g id="a_node12"><a xlink:title="CAPITAL_INTENSITY&#10;FRML &lt;&gt; CAPITAL_INTENSITY = CAPITAL/LABOR &#160;$">
<polygon fill="#63b8ff" stroke="black" points="1026,-65.03 877,-65.03 877,-29.03 1026,-29.03 1026,-65.03"/>
<text text-anchor="start" x="883.5" y="-42.83" font-family="Times New Roman,serif" font-size="14.00" fill="blue">CAPITAL_INTENSITY:</text>
</a>
</g>
</g>
<!-- LABOR&#45;&gt;CAPITAL_INTENSITY -->
<g id="edge6" class="edge">
<title>LABOR&#45;&gt;CAPITAL_INTENSITY</title>
<g id="a_edge6"><a xlink:href="bogus" xlink:title=" LABOR &#45;&gt; CAPITAL_INTENSITY Min. att. 103% &#160;max: 1269%">
<path fill="none" stroke="black" stroke-width="8" d="M227.25,-55.41C238.26,-50.69 250.97,-45.94 263,-43.03 358.61,-19.92 385.14,-24.03 483.5,-24.03 483.5,-24.03 483.5,-24.03 656,-24.03 727.26,-24.03 807.94,-30.8 866.8,-37"/>
<polygon fill="black" stroke="black" stroke-width="8" points="866.11,-43.97 876.8,-38.07 867.6,-30.05 866.11,-43.97"/>
</a>
</g>
</g>
<!-- CAPITAL -->
<g id="node2" class="node">
<title>CAPITAL</title>
<g id="a_node2"><a xlink:title="CAPITAL&#10;FRML &lt;&gt; CAPITAL=CAPITAL(&#45;1)+(INVESTMENT&#45;DEPRECIATION_RATE * CAPITAL(&#45;1))$">
<polygon fill="#63b8ff" stroke="black" points="841,-123.03 768,-123.03 768,-87.03 841,-87.03 841,-123.03"/>
<text text-anchor="start" x="774.5" y="-100.83" font-family="Times New Roman,serif" font-size="14.00" fill="blue">CAPITAL:</text>
</a>
</g>
</g>
<!-- CAPITAL&#45;&gt;INCOME -->
<g id="edge10" class="edge">
<title>CAPITAL&#45;&gt;INCOME</title>
<g id="a_edge10"><a xlink:href="bogus" xlink:title=" CAPITAL &#45;&gt; INCOME Min. att. 3% &#160;max: 54%">
<path fill="none" stroke="black" stroke-width="5.42" d="M767.88,-102.64C756.43,-101.98 743.68,-101.35 732,-101.03 663.58,-99.11 646.37,-97.89 578,-101.03 505.85,-104.34 422.35,-113 372.43,-118.7"/>
<polygon fill="black" stroke="black" stroke-width="5.42" points="371.69,-114.01 362.3,-119.87 372.78,-123.43 371.69,-114.01"/>
</a>
</g>
</g>
<!-- CAPITAL&#45;&gt;CAPITAL_INTENSITY -->
<g id="edge15" class="edge">
<title>CAPITAL&#45;&gt;CAPITAL_INTENSITY</title>
<g id="a_edge15"><a xlink:href="bogus" xlink:title=" CAPITAL &#45;&gt; CAPITAL_INTENSITY Min. att. &#45;647% &#160;max: &#45;3%">
<path fill="none" stroke="black" stroke-width="8" d="M841.34,-90.69C857.84,-84.09 877.77,-76.12 896.07,-68.8"/>
<polygon fill="black" stroke="black" stroke-width="8" points="898.77,-75.26 905.46,-65.04 893.57,-62.26 898.77,-75.26"/>
</a>
</g>
</g>
<!-- CAPITAL(&#45;1) -->
<g id="node13" class="node">
<title>CAPITAL(&#45;1)</title>
<g id="a_node13"><a xlink:title="CAPITAL&#10;FRML &lt;&gt; CAPITAL=CAPITAL(&#45;1)+(INVESTMENT&#45;DEPRECIATION_RATE * CAPITAL(&#45;1))$">
<polygon fill="springgreen" stroke="black" points="1026,-123.03 877,-123.03 877,-87.03 1026,-87.03 1026,-123.03"/>
<text text-anchor="start" x="883.5" y="-100.83" font-family="Times New Roman,serif" font-size="14.00" fill="blue">CAPITAL(&#45;1):CAPITAL</text>
</a>
</g>
</g>
<!-- CAPITAL&#45;&gt;CAPITAL(&#45;1) -->
<g id="edge5" class="edge">
<title>CAPITAL&#45;&gt;CAPITAL(&#45;1)</title>
<g id="a_edge5"><a xlink:href="bogus" xlink:title=" CAPITAL &#45;&gt; CAPITAL(&#45;1) Min. att. 0% &#160;max: 94%">
<path fill="none" stroke="black" stroke-width="8" d="M841.34,-99.11C849.2,-98.72 857.84,-98.47 866.72,-98.35"/>
<polygon fill="black" stroke="black" stroke-width="8" points="866.85,-105.35 876.8,-98.28 866.75,-91.35 866.85,-105.35"/>
</a>
</g>
</g>
<!-- ALFA -->
<g id="node3" class="node">
<title>ALFA</title>
<g id="a_node3"><a xlink:title="ALFA&#10;Exogen">
<polygon fill="yellow" stroke="black" points="223,-196.03 169,-196.03 169,-160.03 223,-160.03 223,-196.03"/>
<text text-anchor="start" x="177" y="-173.83" font-family="Times New Roman,serif" font-size="14.00" fill="blue">ALFA:</text>
</a>
</g>
</g>
<!-- ALFA&#45;&gt;INCOME -->
<g id="edge4" class="edge">
<title>ALFA&#45;&gt;INCOME</title>
<g id="a_edge4"><a xlink:href="bogus" xlink:title=" ALFA &#45;&gt; INCOME Min. att. &#45;0% &#160;max: &#45;0%">
<path fill="none" stroke="black" d="M223.11,-167.1C240.06,-160 262.58,-150.57 282.23,-142.35"/>
<polygon fill="black" stroke="black" points="283.74,-145.51 291.61,-138.42 281.03,-139.06 283.74,-145.51"/>
</a>
</g>
</g>
<!-- LABOR_GROWTH -->
<g id="node4" class="node">
<title>LABOR_GROWTH</title>
<g id="a_node4"><a xlink:title="LABOR_GROWTH&#10;Exogen">
<polygon fill="yellow" stroke="black" points="129,-88.03 0,-88.03 0,-52.03 129,-52.03 129,-88.03"/>
<text text-anchor="start" x="6.5" y="-65.83" font-family="Times New Roman,serif" font-size="14.00" fill="blue">LABOR_GROWTH:</text>
</a>
</g>
</g>
<!-- LABOR_GROWTH&#45;&gt;LABOR -->
<g id="edge8" class="edge">
<title>LABOR_GROWTH&#45;&gt;LABOR</title>
<g id="a_edge8"><a xlink:href="bogus" xlink:title=" LABOR_GROWTH &#45;&gt; LABOR Min. att. 0% &#160;max: 100%">
<path fill="none" stroke="black" stroke-width="8" d="M129.11,-70.03C137.74,-70.03 146.4,-70.03 154.46,-70.03"/>
<polygon fill="black" stroke="black" stroke-width="8" points="154.68,-77.03 164.68,-70.03 154.68,-63.03 154.68,-77.03"/>
</a>
</g>
</g>
<!-- CONSUMPTION -->
<g id="node9" class="node">
<title>CONSUMPTION</title>
<g id="a_node9"><a xlink:title="CONSUMPTION&#10;FRML &lt;&gt; CONSUMPTION &#160;&#160;&#160;&#160;= (1&#45;SAVING_RATE) &#160;* INCOME &#160;$">
<polygon fill="#63b8ff" stroke="black" points="542,-188.03 427,-188.03 427,-152.03 542,-152.03 542,-188.03"/>
<text text-anchor="start" x="433.5" y="-165.83" font-family="Times New Roman,serif" font-size="14.00" fill="blue">CONSUMPTION:</text>
</a>
</g>
</g>
<!-- INCOME&#45;&gt;CONSUMPTION -->
<g id="edge3" class="edge">
<title>INCOME&#45;&gt;CONSUMPTION</title>
<g id="a_edge3"><a xlink:href="bogus" xlink:title=" INCOME &#45;&gt; CONSUMPTION Min. att. 100% &#160;max: 100%">
<path fill="none" stroke="black" stroke-width="8" d="M362.13,-134.12C378.27,-138.9 398.11,-144.77 417.05,-150.37"/>
<polygon fill="black" stroke="black" stroke-width="8" points="415.27,-157.14 426.84,-153.27 419.24,-143.72 415.27,-157.14"/>
</a>
</g>
</g>
<!-- INVESTMENT -->
<g id="node11" class="node">
<title>INVESTMENT</title>
<g id="a_node11"><a xlink:title="INVESTMENT&#10;FRML &lt;&gt; INVESTMENT &#160;&#160;&#160;&#160;&#160;= INCOME &#45; CONSUMPTION &#160;&#160;&#160;$">
<polygon fill="#63b8ff" stroke="black" points="706.5,-146.03 603.5,-146.03 603.5,-110.03 706.5,-110.03 706.5,-146.03"/>
<text text-anchor="start" x="610" y="-123.83" font-family="Times New Roman,serif" font-size="14.00" fill="blue">INVESTMENT:</text>
</a>
</g>
</g>
<!-- INCOME&#45;&gt;INVESTMENT -->
<g id="edge1" class="edge">
<title>INCOME&#45;&gt;INVESTMENT</title>
<g id="a_edge1"><a xlink:href="bogus" xlink:title=" INCOME &#45;&gt; INVESTMENT Min. att. 2000% &#160;max: 2000%">
<path fill="none" stroke="black" stroke-width="8" d="M362.27,-124.45C417.08,-125.12 525.21,-126.45 593.32,-127.28"/>
<polygon fill="black" stroke="black" stroke-width="8" points="593.4,-134.28 603.48,-127.41 593.57,-120.28 593.4,-134.28"/>
</a>
</g>
</g>
<!-- DEPRECIATION_RATE -->
<g id="node6" class="node">
<title>DEPRECIATION_RATE</title>
<g id="a_node6"><a xlink:title="DEPRECIATION_RATE&#10;Exogen">
<polygon fill="yellow" stroke="black" points="732,-200.03 578,-200.03 578,-164.03 732,-164.03 732,-200.03"/>
<text text-anchor="start" x="584" y="-177.83" font-family="Times New Roman,serif" font-size="14.00" fill="blue">DEPRECIATION_RATE:</text>
</a>
</g>
</g>
<!-- DEPRECIATION_RATE&#45;&gt;CAPITAL -->
<g id="edge9" class="edge">
<title>DEPRECIATION_RATE&#45;&gt;CAPITAL</title>
<g id="a_edge9"><a xlink:href="bogus" xlink:title=" DEPRECIATION_RATE &#45;&gt; CAPITAL Min. att. 0% &#160;max: 0%">
<path fill="none" stroke="black" d="M712.35,-163.94C719.08,-161.22 725.78,-158.23 732,-155.03 746.11,-147.75 760.65,-138.06 772.91,-129.14"/>
<polygon fill="black" stroke="black" points="775.06,-131.9 780.99,-123.13 770.88,-126.28 775.06,-131.9"/>
</a>
</g>
</g>
<!-- A -->
<g id="node7" class="node">
<title>A</title>
<g id="a_node7"><a xlink:title="A&#10;Exogen">
<polygon fill="yellow" stroke="black" points="223,-142.03 169,-142.03 169,-106.03 223,-106.03 223,-142.03"/>
<text text-anchor="start" x="189" y="-119.83" font-family="Times New Roman,serif" font-size="14.00" fill="blue">A:</text>
</a>
</g>
</g>
<!-- A&#45;&gt;INCOME -->
<g id="edge16" class="edge">
<title>A&#45;&gt;INCOME</title>
<g id="a_edge16"><a xlink:href="bogus" xlink:title=" A &#45;&gt; INCOME Min. att. &#45;0% &#160;max: &#45;0%">
<path fill="none" stroke="black" d="M223.11,-124.03C239.83,-124.03 261.97,-124.03 281.43,-124.03"/>
<polygon fill="black" stroke="black" points="281.61,-127.53 291.61,-124.03 281.61,-120.53 281.61,-127.53"/>
</a>
</g>
</g>
<!-- SAVING_RATE -->
<g id="node8" class="node">
<title>SAVING_RATE</title>
<g id="a_node8"><a xlink:title="SAVING_RATE&#10;Exogen">
<polygon fill="yellow" stroke="black" points="380,-196.03 274,-196.03 274,-160.03 380,-160.03 380,-196.03"/>
<text text-anchor="start" x="280" y="-173.83" font-family="Times New Roman,serif" font-size="14.00" fill="blue">SAVING_RATE:</text>
</a>
</g>
</g>
<!-- SAVING_RATE&#45;&gt;CONSUMPTION -->
<g id="edge2" class="edge">
<title>SAVING_RATE&#45;&gt;CONSUMPTION</title>
<g id="a_edge2"><a xlink:href="bogus" xlink:title=" SAVING_RATE &#45;&gt; CONSUMPTION Min. att. 0% &#160;max: 0%">
<path fill="none" stroke="black" d="M380.21,-175.34C391.93,-174.74 404.52,-174.09 416.74,-173.46"/>
<polygon fill="black" stroke="black" points="417.08,-176.95 426.89,-172.94 416.72,-169.96 417.08,-176.95"/>
</a>
</g>
</g>
<!-- CONSUMPTION&#45;&gt;INVESTMENT -->
<g id="edge12" class="edge">
<title>CONSUMPTION&#45;&gt;INVESTMENT</title>
<g id="a_edge12"><a xlink:href="bogus" xlink:title=" CONSUMPTION &#45;&gt; INVESTMENT Min. att. &#45;1900% &#160;max: &#45;1900%">
<path fill="none" stroke="black" stroke-width="8" d="M542.08,-155.92C558.47,-151.84 576.43,-147.36 593.07,-143.21"/>
<polygon fill="black" stroke="black" stroke-width="8" points="595.23,-149.89 603.24,-140.68 591.84,-136.31 595.23,-149.89"/>
</a>
</g>
</g>
<!-- LABOR(&#45;1)&#45;&gt;LABOR -->
<g id="edge13" class="edge">
<title>LABOR(&#45;1)&#45;&gt;LABOR</title>
<g id="a_edge13"><a xlink:href="bogus" xlink:title="NA">
<path fill="none" stroke="black" stroke-width="0.5" d="M262.91,-76.78C254.26,-76.79 245.58,-76.65 237.49,-76.34"/>
<polygon fill="black" stroke="black" stroke-width="0.5" points="237.4,-72.83 227.24,-75.85 237.06,-79.83 237.4,-72.83"/>
</a>
</g>
</g>
<!-- INVESTMENT&#45;&gt;CAPITAL -->
<g id="edge11" class="edge">
<title>INVESTMENT&#45;&gt;CAPITAL</title>
<g id="a_edge11"><a xlink:href="bogus" xlink:title=" INVESTMENT &#45;&gt; CAPITAL Min. att. 6% &#160;max: 100%">
<path fill="none" stroke="black" stroke-width="8" d="M706.76,-120.11C723.3,-117.53 741.56,-114.69 757.72,-112.17"/>
<polygon fill="black" stroke="black" stroke-width="8" points="759.19,-119.02 767.99,-110.56 757.03,-105.19 759.19,-119.02"/>
</a>
</g>
</g>
<!-- CAPITAL(&#45;1)&#45;&gt;CAPITAL -->
<g id="edge7" class="edge">
<title>CAPITAL(&#45;1)&#45;&gt;CAPITAL</title>
<g id="a_edge7"><a xlink:href="bogus" xlink:title="NA">
<path fill="none" stroke="black" stroke-width="0.5" d="M876.8,-111.78C868.22,-111.76 859.66,-111.63 851.6,-111.36"/>
<polygon fill="black" stroke="black" stroke-width="0.5" points="851.48,-107.85 841.34,-110.94 851.19,-114.85 851.48,-107.85"/>
</a>
</g>
</g>
</g>
</svg>
