<?xml version="1.0" encoding="UTF-8" standalone="no"?>
<!DOCTYPE svg PUBLIC "-//W3C//DTD SVG 1.1//EN"
 "http://www.w3.org/Graphics/SVG/1.1/DTD/svg11.dtd">
<!-- Generated by graphviz version 6.0.1 (0)
 -->
<!-- Title: TD Pages: 1 -->
<svg width="746pt" height="321pt"
 viewBox="0.00 0.00 746.00 321.00" xmlns="http://www.w3.org/2000/svg" xmlns:xlink="http://www.w3.org/1999/xlink">
<g id="graph0" class="graph" transform="scale(1 1) rotate(0) translate(4 317)">
<title>TD</title>
<polygon fill="white" stroke="none" points="-4,4 -4,-317 742,-317 742,4 -4,4"/>
<text text-anchor="middle" x="369" y="-7.8" font-family="Times New Roman,serif" font-size="14.00">Model Structure</text>
<!-- CAPITAL_INTENSITY -->
<g id="node1" class="node">
<title>CAPITAL_INTENSITY</title>
<g id="a_node1"><a xlink:title="CAPITAL_INTENSITY&#10;FRML &lt;&gt; CAPITAL_INTENSITY = CAPITAL/LABOR &#160;$">
<polygon fill="#63b8ff" stroke="black" points="448,-221 299,-221 299,-185 448,-185 448,-221"/>
<text text-anchor="start" x="305.5" y="-198.8" font-family="Times New Roman,serif" font-size="14.00" fill="blue">CAPITAL_INTENSITY:</text>
</a>
</g>
</g>
<!-- ALFA -->
<g id="node2" class="node">
<title>ALFA</title>
<g id="a_node2"><a xlink:title="ALFA&#10;Exogen">
<polygon fill="yellow" stroke="black" points="253.5,-202 199.5,-202 199.5,-166 253.5,-166 253.5,-202"/>
<text text-anchor="start" x="207.5" y="-179.8" font-family="Times New Roman,serif" font-size="14.00" fill="blue">ALFA:</text>
</a>
</g>
</g>
<!-- INCOME -->
<g id="node4" class="node">
<title>INCOME</title>
<g id="a_node4"><a xlink:title="INCOME&#10;FRML &lt;&gt; INCOME &#160;&#160;&#160;&#160;&#160;&#160;&#160;&#160;&#160;= A &#160;* CAPITAL**ALFA * LABOR **(1&#45;ALFA) &#160;$">
<polygon fill="#63b8ff" stroke="black" points="408.5,-167 338.5,-167 338.5,-131 408.5,-131 408.5,-167"/>
<text text-anchor="start" x="344.5" y="-144.8" font-family="Times New Roman,serif" font-size="14.00" fill="blue">INCOME:</text>
</a>
</g>
</g>
<!-- ALFA&#45;&gt;INCOME -->
<g id="edge1" class="edge">
<title>ALFA&#45;&gt;INCOME</title>
<g id="a_edge1"><a xlink:href="bogus" xlink:title=" ALFA &#45;&gt; INCOME Min. att. &#45;0% &#160;max: &#45;0%">
<path fill="none" stroke="black" d="M253.76,-177.66C274.56,-172.64 304.08,-165.52 328.48,-159.63"/>
<polygon fill="black" stroke="black" points="329.34,-163.02 338.24,-157.27 327.69,-156.21 329.34,-163.02"/>
</a>
</g>
</g>
<!-- CAPITAL(&#45;1) -->
<g id="node3" class="node">
<title>CAPITAL(&#45;1)</title>
<g id="a_node3"><a xlink:title="CAPITAL&#10;FRML &lt;&gt; CAPITAL=CAPITAL(&#45;1)+(INVESTMENT&#45;DEPRECIATION_RATE * CAPITAL(&#45;1))$">
<polygon fill="springgreen" stroke="black" points="448,-313 299,-313 299,-277 448,-277 448,-313"/>
<text text-anchor="start" x="305.5" y="-290.8" font-family="Times New Roman,serif" font-size="14.00" fill="blue">CAPITAL(&#45;1):CAPITAL</text>
</a>
</g>
</g>
<!-- CAPITAL -->
<g id="node6" class="node">
<title>CAPITAL</title>
<g id="a_node6"><a xlink:title="CAPITAL&#10;FRML &lt;&gt; CAPITAL=CAPITAL(&#45;1)+(INVESTMENT&#45;DEPRECIATION_RATE * CAPITAL(&#45;1))$">
<polygon fill="#63b8ff" stroke="black" points="263,-267 190,-267 190,-231 263,-231 263,-267"/>
<text text-anchor="start" x="196.5" y="-244.8" font-family="Times New Roman,serif" font-size="14.00" fill="blue">CAPITAL:</text>
</a>
</g>
</g>
<!-- CAPITAL(&#45;1)&#45;&gt;CAPITAL -->
<g id="edge15" class="edge">
<title>CAPITAL(&#45;1)&#45;&gt;CAPITAL</title>
<g id="a_edge15"><a xlink:href="bogus" xlink:title="NA">
<path fill="none" stroke="black" stroke-width="0.5" d="M298.8,-278.37C289.93,-275.54 281.08,-272.59 272.79,-269.68"/>
<polygon fill="black" stroke="black" stroke-width="0.5" points="273.94,-266.37 263.34,-266.29 271.57,-272.96 273.94,-266.37"/>
</a>
</g>
</g>
<!-- INVESTMENT -->
<g id="node9" class="node">
<title>INVESTMENT</title>
<g id="a_node9"><a xlink:title="INVESTMENT&#10;FRML &lt;&gt; INVESTMENT &#160;&#160;&#160;&#160;&#160;= INCOME &#45; CONSUMPTION &#160;&#160;&#160;$">
<polygon fill="#63b8ff" stroke="black" points="738,-190 635,-190 635,-154 738,-154 738,-190"/>
<text text-anchor="start" x="641.5" y="-167.8" font-family="Times New Roman,serif" font-size="14.00" fill="blue">INVESTMENT:</text>
</a>
</g>
</g>
<!-- INCOME&#45;&gt;INVESTMENT -->
<g id="edge17" class="edge">
<title>INCOME&#45;&gt;INVESTMENT</title>
<g id="a_edge17"><a xlink:href="bogus" xlink:title=" INCOME &#45;&gt; INVESTMENT Min. att. 2000% &#160;max: 2000%">
<path fill="none" stroke="black" stroke-width="8" d="M408.67,-151.53C460.65,-155.37 560.32,-162.74 624.8,-167.51"/>
<polygon fill="black" stroke="black" stroke-width="8" points="624.35,-174.5 634.84,-168.25 625.38,-160.53 624.35,-174.5"/>
</a>
</g>
</g>
<!-- CONSUMPTION -->
<g id="node12" class="node">
<title>CONSUMPTION</title>
<g id="a_node12"><a xlink:title="CONSUMPTION&#10;FRML &lt;&gt; CONSUMPTION &#160;&#160;&#160;&#160;= (1&#45;SAVING_RATE) &#160;* INCOME &#160;$">
<polygon fill="#63b8ff" stroke="black" points="599,-144 484,-144 484,-108 599,-108 599,-144"/>
<text text-anchor="start" x="490.5" y="-121.8" font-family="Times New Roman,serif" font-size="14.00" fill="blue">CONSUMPTION:</text>
</a>
</g>
</g>
<!-- INCOME&#45;&gt;CONSUMPTION -->
<g id="edge10" class="edge">
<title>INCOME&#45;&gt;CONSUMPTION</title>
<g id="a_edge10"><a xlink:href="bogus" xlink:title=" INCOME &#45;&gt; CONSUMPTION Min. att. 100% &#160;max: 100%">
<path fill="none" stroke="black" stroke-width="8" d="M408.9,-144.23C427.67,-141.63 451.57,-138.32 473.84,-135.24"/>
<polygon fill="black" stroke="black" stroke-width="8" points="474.99,-142.14 483.93,-133.84 473.06,-128.28 474.99,-142.14"/>
</a>
</g>
</g>
<!-- LABOR_GROWTH -->
<g id="node5" class="node">
<title>LABOR_GROWTH</title>
<g id="a_node5"><a xlink:title="LABOR_GROWTH&#10;Exogen">
<polygon fill="yellow" stroke="black" points="141.5,-82 12.5,-82 12.5,-46 141.5,-46 141.5,-82"/>
<text text-anchor="start" x="19" y="-59.8" font-family="Times New Roman,serif" font-size="14.00" fill="blue">LABOR_GROWTH:</text>
</a>
</g>
</g>
<!-- LABOR -->
<g id="node10" class="node">
<title>LABOR</title>
<g id="a_node10"><a xlink:title="LABOR&#10;FRML &lt;&gt; LABOR=LABOR(&#45;1)+(LABOR_GROWTH * LABOR(&#45;1))$">
<polygon fill="#63b8ff" stroke="black" points="257.5,-82 195.5,-82 195.5,-46 257.5,-46 257.5,-82"/>
<text text-anchor="start" x="201.5" y="-59.8" font-family="Times New Roman,serif" font-size="14.00" fill="blue">LABOR:</text>
</a>
</g>
</g>
<!-- LABOR_GROWTH&#45;&gt;LABOR -->
<g id="edge12" class="edge">
<title>LABOR_GROWTH&#45;&gt;LABOR</title>
<g id="a_edge12"><a xlink:href="bogus" xlink:title=" LABOR_GROWTH &#45;&gt; LABOR Min. att. 0% &#160;max: 100%">
<path fill="none" stroke="black" stroke-width="8" d="M141.84,-64C156.46,-64 171.61,-64 184.94,-64"/>
<polygon fill="black" stroke="black" stroke-width="8" points="185.19,-71 195.19,-64 185.19,-57 185.19,-71"/>
</a>
</g>
</g>
<!-- CAPITAL&#45;&gt;CAPITAL_INTENSITY -->
<g id="edge3" class="edge">
<title>CAPITAL&#45;&gt;CAPITAL_INTENSITY</title>
<g id="a_edge3"><a xlink:href="bogus" xlink:title=" CAPITAL &#45;&gt; CAPITAL_INTENSITY Min. att. &#45;647% &#160;max: &#45;3%">
<path fill="none" stroke="black" stroke-width="8" d="M263.34,-237.63C276.28,-233.53 291.32,-228.75 306.03,-224.09"/>
<polygon fill="black" stroke="black" stroke-width="8" points="308.21,-230.74 315.63,-221.04 303.98,-217.39 308.21,-230.74"/>
</a>
</g>
</g>
<!-- CAPITAL&#45;&gt;CAPITAL(&#45;1) -->
<g id="edge16" class="edge">
<title>CAPITAL&#45;&gt;CAPITAL(&#45;1)</title>
<g id="a_edge16"><a xlink:href="bogus" xlink:title=" CAPITAL &#45;&gt; CAPITAL(&#45;1) Min. att. 0% &#160;max: 94%">
<path fill="none" stroke="black" stroke-width="8" d="M263.34,-254.46C281.94,-259.43 304.9,-266.56 324.95,-273.54"/>
<polygon fill="black" stroke="black" stroke-width="8" points="322.77,-280.19 334.54,-276.94 327.46,-267 322.77,-280.19"/>
</a>
</g>
</g>
<!-- CAPITAL&#45;&gt;INCOME -->
<g id="edge5" class="edge">
<title>CAPITAL&#45;&gt;INCOME</title>
<g id="a_edge5"><a xlink:href="bogus" xlink:title=" CAPITAL &#45;&gt; INCOME Min. att. 3% &#160;max: 54%">
<path fill="none" stroke="black" stroke-width="5.42" d="M244.48,-230.85C263.56,-210.58 292.71,-180.07 299,-176 308.08,-170.13 318.62,-165.3 328.83,-161.43"/>
<polygon fill="black" stroke="black" stroke-width="5.42" points="330.63,-165.83 338.46,-158.01 327.45,-156.88 330.63,-165.83"/>
</a>
</g>
</g>
<!-- SAVING_RATE -->
<g id="node7" class="node">
<title>SAVING_RATE</title>
<g id="a_node7"><a xlink:title="SAVING_RATE&#10;Exogen">
<polygon fill="yellow" stroke="black" points="426.5,-113 320.5,-113 320.5,-77 426.5,-77 426.5,-113"/>
<text text-anchor="start" x="326.5" y="-90.8" font-family="Times New Roman,serif" font-size="14.00" fill="blue">SAVING_RATE:</text>
</a>
</g>
</g>
<!-- SAVING_RATE&#45;&gt;CONSUMPTION -->
<g id="edge9" class="edge">
<title>SAVING_RATE&#45;&gt;CONSUMPTION</title>
<g id="a_edge9"><a xlink:href="bogus" xlink:title=" SAVING_RATE &#45;&gt; CONSUMPTION Min. att. 0% &#160;max: 0%">
<path fill="none" stroke="black" d="M426.57,-104.72C441.47,-107.51 457.91,-110.58 473.57,-113.5"/>
<polygon fill="black" stroke="black" points="473.25,-117 483.72,-115.4 474.53,-110.12 473.25,-117"/>
</a>
</g>
</g>
<!-- A -->
<g id="node8" class="node">
<title>A</title>
<g id="a_node8"><a xlink:title="A&#10;Exogen">
<polygon fill="yellow" stroke="black" points="253.5,-148 199.5,-148 199.5,-112 253.5,-112 253.5,-148"/>
<text text-anchor="start" x="219.5" y="-125.8" font-family="Times New Roman,serif" font-size="14.00" fill="blue">A:</text>
</a>
</g>
</g>
<!-- A&#45;&gt;INCOME -->
<g id="edge2" class="edge">
<title>A&#45;&gt;INCOME</title>
<g id="a_edge2"><a xlink:href="bogus" xlink:title=" A &#45;&gt; INCOME Min. att. &#45;0% &#160;max: &#45;0%">
<path fill="none" stroke="black" d="M253.76,-133.44C274.47,-136.15 303.82,-140 328.15,-143.19"/>
<polygon fill="black" stroke="black" points="327.87,-146.68 338.24,-144.51 328.78,-139.74 327.87,-146.68"/>
</a>
</g>
</g>
<!-- INVESTMENT&#45;&gt;CAPITAL -->
<g id="edge4" class="edge">
<title>INVESTMENT&#45;&gt;CAPITAL</title>
<g id="a_edge4"><a xlink:href="bogus" xlink:title=" INVESTMENT &#45;&gt; CAPITAL Min. att. 6% &#160;max: 100%">
<path fill="none" stroke="black" stroke-width="8" d="M634.54,-186.85C586.76,-200.2 513.13,-219.31 448,-230 388.15,-239.83 318.28,-244.76 273.49,-247.1"/>
<polygon fill="black" stroke="black" stroke-width="8" points="272.86,-240.12 263.23,-247.61 273.56,-254.1 272.86,-240.12"/>
</a>
</g>
</g>
<!-- LABOR&#45;&gt;CAPITAL_INTENSITY -->
<g id="edge7" class="edge">
<title>LABOR&#45;&gt;CAPITAL_INTENSITY</title>
<g id="a_edge7"><a xlink:href="bogus" xlink:title=" LABOR &#45;&gt; CAPITAL_INTENSITY Min. att. 103% &#160;max: 1269%">
<path fill="none" stroke="black" stroke-width="8" d="M245.97,-82.15C251.82,-88.44 258.05,-95.74 263,-103 283.38,-132.89 272.1,-151.81 299,-176 300.29,-177.16 301.63,-178.26 303.01,-179.33"/>
<polygon fill="black" stroke="black" stroke-width="8" points="299.17,-185.18 311.37,-184.91 306.95,-173.54 299.17,-185.18"/>
</a>
</g>
</g>
<!-- LABOR&#45;&gt;INCOME -->
<g id="edge13" class="edge">
<title>LABOR&#45;&gt;INCOME</title>
<g id="a_edge13"><a xlink:href="bogus" xlink:title=" LABOR &#45;&gt; INCOME Min. att. 59% &#160;max: 97%">
<path fill="none" stroke="black" stroke-width="8" d="M246.25,-82.12C259.99,-94.63 279.54,-110.94 299,-122 308.23,-127.24 318.66,-131.8 328.7,-135.6"/>
<polygon fill="black" stroke="black" stroke-width="8" points="326.38,-142.2 338.17,-139.01 331.13,-129.03 326.38,-142.2"/>
</a>
</g>
</g>
<!-- LABOR(&#45;1) -->
<g id="node13" class="node">
<title>LABOR(&#45;1)</title>
<g id="a_node13"><a xlink:title="LABOR&#10;FRML &lt;&gt; LABOR=LABOR(&#45;1)+(LABOR_GROWTH * LABOR(&#45;1))$">
<polygon fill="springgreen" stroke="black" points="437.5,-59 309.5,-59 309.5,-23 437.5,-23 437.5,-59"/>
<text text-anchor="start" x="315.5" y="-36.8" font-family="Times New Roman,serif" font-size="14.00" fill="blue">LABOR(&#45;1):LABOR</text>
</a>
</g>
</g>
<!-- LABOR&#45;&gt;LABOR(&#45;1) -->
<g id="edge11" class="edge">
<title>LABOR&#45;&gt;LABOR(&#45;1)</title>
<g id="a_edge11"><a xlink:href="bogus" xlink:title=" LABOR &#45;&gt; LABOR(&#45;1) Min. att. 0% &#160;max: 100%">
<path fill="none" stroke="black" stroke-width="8" d="M257.54,-53.64C269.74,-50.95 284.42,-48.24 299.14,-45.89"/>
<polygon fill="black" stroke="black" stroke-width="8" points="300.49,-52.76 309.31,-44.32 298.36,-38.92 300.49,-52.76"/>
</a>
</g>
</g>
<!-- DEPRECIATION_RATE -->
<g id="node11" class="node">
<title>DEPRECIATION_RATE</title>
<g id="a_node11"><a xlink:title="DEPRECIATION_RATE&#10;Exogen">
<polygon fill="yellow" stroke="black" points="154,-267 0,-267 0,-231 154,-231 154,-267"/>
<text text-anchor="start" x="6" y="-244.8" font-family="Times New Roman,serif" font-size="14.00" fill="blue">DEPRECIATION_RATE:</text>
</a>
</g>
</g>
<!-- DEPRECIATION_RATE&#45;&gt;CAPITAL -->
<g id="edge8" class="edge">
<title>DEPRECIATION_RATE&#45;&gt;CAPITAL</title>
<g id="a_edge8"><a xlink:href="bogus" xlink:title=" DEPRECIATION_RATE &#45;&gt; CAPITAL Min. att. 0% &#160;max: 0%">
<path fill="none" stroke="black" d="M154.34,-249C162.94,-249 171.5,-249 179.54,-249"/>
<polygon fill="black" stroke="black" points="179.77,-252.5 189.77,-249 179.77,-245.5 179.77,-252.5"/>
</a>
</g>
</g>
<!-- CONSUMPTION&#45;&gt;INVESTMENT -->
<g id="edge14" class="edge">
<title>CONSUMPTION&#45;&gt;INVESTMENT</title>
<g id="a_edge14"><a xlink:href="bogus" xlink:title=" CONSUMPTION &#45;&gt; INVESTMENT Min. att. &#45;1900% &#160;max: &#45;1900%">
<path fill="none" stroke="black" stroke-width="8" d="M598.61,-144.05C607.25,-146.83 616.2,-149.71 624.94,-152.52"/>
<polygon fill="black" stroke="black" stroke-width="8" points="623.01,-159.25 634.67,-155.65 627.3,-145.92 623.01,-159.25"/>
</a>
</g>
</g>
<!-- LABOR(&#45;1)&#45;&gt;LABOR -->
<g id="edge6" class="edge">
<title>LABOR(&#45;1)&#45;&gt;LABOR</title>
<g id="a_edge6"><a xlink:href="bogus" xlink:title="NA">
<path fill="none" stroke="black" stroke-width="0.5" d="M309.31,-57.72C295.12,-60.13 280.44,-62.26 267.5,-63.76"/>
<polygon fill="black" stroke="black" stroke-width="0.5" points="267.12,-60.28 257.54,-64.83 267.86,-67.24 267.12,-60.28"/>
</a>
</g>
</g>
</g>
</svg>
