<?xml version="1.0" encoding="UTF-8" standalone="no"?>
<!DOCTYPE svg PUBLIC "-//W3C//DTD SVG 1.1//EN"
 "http://www.w3.org/Graphics/SVG/1.1/DTD/svg11.dtd">
<!-- Generated by graphviz version 6.0.1 (0)
 -->
<!-- Title: TD Pages: 1 -->
<svg width="432pt" height="194pt"
 viewBox="0.00 0.00 432.00 194.34" xmlns="http://www.w3.org/2000/svg" xmlns:xlink="http://www.w3.org/1999/xlink">
<g id="graph0" class="graph" transform="scale(0.167767 0.167767) rotate(0) translate(4 1154.4)">
<title>TD</title>
<polygon fill="white" stroke="none" points="-4,4 -4,-1154.4 2571,-1154.4 2571,4 -4,4"/>
<text text-anchor="middle" x="1283.5" y="-7.8" font-family="Times New Roman,serif" font-size="14.00">PAKNECONPRVTKN</text>
<!-- PAKSMAGRFSNGKN -->
<g id="node1" class="node">
<title>PAKSMAGRFSNGKN</title>
<g id="a_node1"><a xlink:title="PAKSMAGRFSNGKN&#10;FRML &#160;&lt;&gt; PAKSMAGRFSNGKN = ((1+1.92407325889309)*(0.00246195499563977*PAKNECONPRVTKN+0*PAKNECONGOVTKN+0*PAKNEGDIFTOTKN+0.00130433854799597*PAKNEEXPGNFSKN+0.00497657560072267*PAKNEGDISTKBKN)&#45;1.14989260682794E&#45;05*PAKNEIMPGNFSKN&#45;2.46467171367829E&#45;07*PAKNYTAXNINDKN&#45;26993)/(1+0.506095544048804) $">
<polygon fill="#63b8ff" stroke="black" points="1519,-184.77 1374,-184.77 1374,-148.77 1519,-148.77 1519,-184.77"/>
<text text-anchor="start" x="1380.5" y="-162.57" font-family="Times New Roman,serif" font-size="14.00" fill="blue">PAKSMAGRFSNGKN:</text>
</a>
</g>
</g>
<!-- PAKSMSRVTRNSKN -->
<g id="node2" class="node">
<title>PAKSMSRVTRNSKN</title>
<g id="a_node2"><a xlink:title="PAKSMSRVTRNSKN&#10;FRML &#160;&lt;&gt; PAKSMSRVTRNSKN = ((1+0.301074862860981)*(0.204687752761289*PAKNECONPRVTKN+0*PAKNECONGOVTKN+0*PAKNEGDIFTOTKN+0.0551862611209703*PAKNEEXPGNFSKN+0*PAKNEGDISTKBKN)&#45;&#45;0.0392641863572605*PAKNEIMPGNFSKN&#45;0.0174996684619017*PAKNYTAXNINDKN&#45;0)/(1+1.11680986862739) $">
<polygon fill="#63b8ff" stroke="black" points="1517.5,-130.77 1375.5,-130.77 1375.5,-94.77 1517.5,-94.77 1517.5,-130.77"/>
<text text-anchor="start" x="1381.5" y="-108.57" font-family="Times New Roman,serif" font-size="14.00" fill="blue">PAKSMSRVTRNSKN:</text>
</a>
</g>
</g>
<!-- PAKNYGDPFCSTXN -->
<g id="node3" class="node">
<title>PAKNYGDPFCSTXN</title>
<g id="a_node3"><a xlink:title="GDP at factor cost&#10;FRML &lt;Z,EXO&gt; PAKNYGDPFCSTXN = (PAKNYGDPFCSTXN(&#45;1)*EXP(&#45;PAKNYGDPFCSTXN_A+ (0.6*((LOG(PAKNYGDPFCSTXN(&#45;1)))&#45;(LOG(PAKNYGDPFCSTXN(&#45;2))))+(1&#45;0.6)*(0.7*PAKINFLEXPT/100+(1&#45;0.7)*((LOG(PAKPSTAR(&#45;1)))&#45;(LOG(PAKPSTAR(&#45;2)))))+0.25*PAKNYGDPGAP_/100+0.262461811660072*DURING_2000&#45;0.205776950553378*DURING_2001) )) * (1&#45;PAKNYGDPFCSTXN_D)+ PAKNYGDPFCSTXN_X*PAKNYGDPFCSTXN_D &#160;$">
<polygon fill="#63b8ff" stroke="black" points="1959.5,-682.77 1717.5,-682.77 1717.5,-646.77 1959.5,-646.77 1959.5,-682.77"/>
<text text-anchor="start" x="1723.5" y="-660.57" font-family="Times New Roman,serif" font-size="14.00" fill="blue">PAKNYGDPFCSTXN:GDP at factor cost</text>
</a>
</g>
</g>
<!-- PAKLMEMPTOTLCN -->
<g id="node20" class="node">
<title>PAKLMEMPTOTLCN</title>
<g id="a_node20"><a xlink:title="Employment&#10;FRML &lt;Z,EXO&gt; PAKLMEMPTOTLCN = (PAKLMEMPTOTLCN(&#45;1)*EXP(&#45;PAKLMEMPTOTLCN_A+ (&#45;0.345624644563667*(LOG(PAKLMEMPTOTLCN(&#45;1))&#45;LOG(PAKLMEMPSTRLCN(&#45;1)))&#45;0.1*(((LOG(PAKNYWRTTOTLCN/PAKNYGDPFCSTXN))&#45;(LOG(PAKNYWRTTOTLCN(&#45;1)/PAKNYGDPFCSTXN(&#45;1))))&#45;((LOG(PAKNYGDPPOTLKN/PAKLMEMPSTRLCN))&#45;(LOG(PAKNYGDPPOTLKN(&#45;1)/PAKLMEMPSTRLCN(&#45;1)))))&#45;0.0011790007645121+((LOG(PAKLMEMPSTRLCN))&#45;(LOG(PAKLMEMPSTRLCN(&#45;1))))+0.175412878170024*PAKNYGDPGAP_/100+0.0369790799942338*DURING_2010) )) * (1&#45;PAKLMEMPTOTLCN_D)+ PAKLMEMPTOTLCN_X*PAKLMEMPTOTLCN_D &#160;$">
<polygon fill="#63b8ff" stroke="black" points="2246,-682.77 2029,-682.77 2029,-646.77 2246,-646.77 2246,-682.77"/>
<text text-anchor="start" x="2035.5" y="-660.57" font-family="Times New Roman,serif" font-size="14.00" fill="blue">PAKLMEMPTOTLCN:Employment</text>
</a>
</g>
</g>
<!-- PAKNYGDPFCSTXN&#45;&gt;PAKLMEMPTOTLCN -->
<g id="edge4" class="edge">
<title>PAKNYGDPFCSTXN&#45;&gt;PAKLMEMPTOTLCN</title>
<g id="a_edge4"><a xlink:href="bogus" xlink:title=" PAKNYGDPFCSTXN &#45;&gt; PAKLMEMPTOTLCN Min. att. &#45;128% &#160;max: 59%">
<path fill="none" stroke="black" stroke-width="8" d="M1959.87,-664.77C1979.32,-664.77 1999.43,-664.77 2018.81,-664.77"/>
<polygon fill="black" stroke="black" stroke-width="8" points="2018.87,-671.77 2028.87,-664.77 2018.87,-657.77 2018.87,-671.77"/>
</a>
</g>
</g>
<!-- PAKNECONENGYXN -->
<g id="node4" class="node">
<title>PAKNECONENGYXN</title>
<g id="a_node4"><a xlink:title="Energy Consumption&#10;FRML &lt;Z,EXO&gt; PAKNECONENGYXN = (PAKNECONENGYXN(&#45;1)*EXP(&#45;PAKNECONENGYXN_A+ (((LOG(PAKNECONENGYGN))&#45;(LOG(PAKNECONENGYGN(&#45;1))))+0.0550557534575806*DUMH) )) * (1&#45;PAKNECONENGYXN_D)+ PAKNECONENGYXN_X*PAKNECONENGYXN_D &#160;$">
<polygon fill="#63b8ff" stroke="black" points="597.5,-277.77 335.5,-277.77 335.5,-241.77 597.5,-241.77 597.5,-277.77"/>
<text text-anchor="start" x="341.5" y="-255.57" font-family="Times New Roman,serif" font-size="14.00" fill="blue">PAKNECONENGYXN:Energy Consumption</text>
</a>
</g>
</g>
<!-- PAKNECONPRVTXN -->
<g id="node6" class="node">
<title>PAKNECONPRVTXN</title>
<g id="a_node6"><a xlink:title="Household demand&#10;FRML &#160;&lt;&gt; PAKNECONPRVTXN = ((PAKNECONENGYSH**PAKCESENGYCON)*PAKNECONENGYXN**(1&#45;PAKCESENGYCON)+(PAKNECONOTHRSH**PAKCESENGYCON)*PAKNECONOTHRXN**(1&#45;PAKCESENGYCON))**(1/(1&#45;PAKCESENGYCON)) $">
<polygon fill="#63b8ff" stroke="black" points="895,-250.77 647,-250.77 647,-214.77 895,-214.77 895,-250.77"/>
<text text-anchor="start" x="653" y="-228.57" font-family="Times New Roman,serif" font-size="14.00" fill="blue">PAKNECONPRVTXN:Household demand</text>
</a>
</g>
</g>
<!-- PAKNECONENGYXN&#45;&gt;PAKNECONPRVTXN -->
<g id="edge15" class="edge">
<title>PAKNECONENGYXN&#45;&gt;PAKNECONPRVTXN</title>
<g id="a_edge15"><a xlink:href="bogus" xlink:title=" PAKNECONENGYXN &#45;&gt; PAKNECONPRVTXN Min. att. 1% &#160;max: 29%">
<path fill="none" stroke="black" stroke-width="2.91" d="M597.54,-248.16C610.43,-247.01 623.53,-245.84 636.45,-244.69"/>
<polygon fill="black" stroke="black" stroke-width="2.91" points="637.12,-248.14 646.77,-243.77 636.5,-241.17 637.12,-248.14"/>
</a>
</g>
</g>
<!-- PAKNYGDPMKTPKN -->
<g id="node5" class="node">
<title>PAKNYGDPMKTPKN</title>
<g id="a_node5"><a xlink:title="GDP Expenditure side at market prices&#10;FRML &#160;&lt;&gt; PAKNYGDPMKTPKN = PAKNECONPRVTKN+PAKNECONGOVTKN+PAKNEGDIFTOTKN+PAKNEGDISTKBKN+PAKNEEXPGNFSKN&#45;PAKNEIMPGNFSKN+PAKNYGDPDISCKN+PAKADAP*PAKDISPREPKN $">
<polygon fill="#63b8ff" stroke="black" points="1627,-292.77 1266,-292.77 1266,-256.77 1627,-256.77 1627,-292.77"/>
<text text-anchor="start" x="1272.5" y="-270.57" font-family="Times New Roman,serif" font-size="14.00" fill="blue">PAKNYGDPMKTPKN:GDP Expenditure side at market prices</text>
</a>
</g>
</g>
<!-- PAKNYGDPGAP_ -->
<g id="node23" class="node">
<title>PAKNYGDPGAP_</title>
<g id="a_node23"><a xlink:title="Output Gap (% of Potential GDP)&#10;FRML &#160;&lt;&gt; PAKNYGDPGAP_ = ((PAKNYGDPMKTPKN/PAKNYGDPPOTLKN&#45;1)*100) $">
<polygon fill="#63b8ff" stroke="black" points="1993,-400.77 1684,-400.77 1684,-364.77 1993,-364.77 1993,-400.77"/>
<text text-anchor="start" x="1690.5" y="-378.57" font-family="Times New Roman,serif" font-size="14.00" fill="blue">PAKNYGDPGAP_:Output Gap (% of Potential GDP)</text>
</a>
</g>
</g>
<!-- PAKNYGDPMKTPKN&#45;&gt;PAKNYGDPGAP_ -->
<g id="edge20" class="edge">
<title>PAKNYGDPMKTPKN&#45;&gt;PAKNYGDPGAP_</title>
<g id="a_edge20"><a xlink:href="bogus" xlink:title=" PAKNYGDPMKTPKN &#45;&gt; PAKNYGDPGAP_ Min. att. &#45;78553% &#160;max: 128142%">
<path fill="none" stroke="black" stroke-width="8" d="M1609.94,-292.82C1622.91,-295.42 1635.73,-298.39 1648,-301.77 1699.83,-316.05 1756.11,-341.47 1793.75,-360.04"/>
<polygon fill="black" stroke="black" stroke-width="8" points="1790.83,-366.41 1802.9,-364.6 1797.07,-353.87 1790.83,-366.41"/>
</a>
</g>
</g>
<!-- PAKFMLBLPOLYXN -->
<g id="node15" class="node">
<title>PAKFMLBLPOLYXN</title>
<g id="a_node15"><a xlink:title="Policy Rate&#10;FRML &lt;Z,EXO&gt; PAKFMLBLPOLYXN = (&#45;100*PAKFMLBLPOLYXN_A+100* (0.905129162122953*PAKFMLBLPOLYXN(&#45;1)/100+(1&#45;0.905129162122953)*(PAKMPPOLNATRXN/100+1.2*(((LOG(PAKNECONPRVTXN))&#45;(LOG(PAKNECONPRVTXN(&#45;1))))&#45;PAKINFLEXPT/100)+0.5*PAKNYGDPGAP_/100)) ) * (1&#45;PAKFMLBLPOLYXN_D)+ PAKFMLBLPOLYXN_X*PAKFMLBLPOLYXN_D &#160;$">
<polygon fill="#63b8ff" stroke="black" points="2240,-84.77 2035,-84.77 2035,-48.77 2240,-48.77 2240,-84.77"/>
<text text-anchor="start" x="2041.5" y="-62.57" font-family="Times New Roman,serif" font-size="14.00" fill="blue">PAKFMLBLPOLYXN:Policy Rate</text>
</a>
</g>
</g>
<!-- PAKNECONPRVTXN&#45;&gt;PAKFMLBLPOLYXN -->
<g id="edge19" class="edge">
<title>PAKNECONPRVTXN&#45;&gt;PAKFMLBLPOLYXN</title>
<g id="a_edge19"><a xlink:href="bogus" xlink:title=" PAKNECONPRVTXN &#45;&gt; PAKFMLBLPOLYXN Min. att. &#45;94% &#160;max: 1462%">
<path fill="none" stroke="black" stroke-width="8" d="M806.03,-214.72C882.09,-175.53 1072.73,-83.6 1245,-51.77 1521.66,-0.64 1854.85,-29.67 2024.85,-50.81"/>
<polygon fill="black" stroke="black" stroke-width="8" points="2024.02,-57.76 2034.81,-52.07 2025.76,-43.87 2024.02,-57.76"/>
</a>
</g>
</g>
<!-- PAKNECONPRVTKN -->
<g id="node18" class="node">
<title>PAKNECONPRVTKN</title>
<g id="a_node18"><a xlink:title="Household Consumption&#10;FRML &lt;Z,EXO&gt; PAKNECONPRVTKN = (PAKNECONPRVTKN(&#45;1)*EXP(&#45;PAKNECONPRVTKN_A+ (&#45;0.2*(LOG(PAKNECONPRVTKN(&#45;1))&#45;LOG((PAKNYYWBTOTLCN(&#45;1)*(1&#45;PAKGGREVDRCTXN(&#45;1)/100))/PAKNECONPRVTXN(&#45;1)))+1*((LOG((PAKNYYWBTOTLCN*(1&#45;PAKGGREVDRCTXN/100))/PAKNECONPRVTXN))&#45;(LOG((PAKNYYWBTOTLCN(&#45;1)*(1&#45;PAKGGREVDRCTXN(&#45;1)/100))/PAKNECONPRVTXN(&#45;1))))+0.0303228629698929+0.0163839011059956*DURING_2010&#45;0.3*(PAKFMLBLPOLYXN/100&#45;((LOG(PAKNECONPRVTXN))&#45;(LOG(PAKNECONPRVTXN(&#45;1)))))) )) * (1&#45;PAKNECONPRVTKN_D)+ PAKNECONPRVTKN_X*PAKNECONPRVTKN_D &#160;$">
<polygon fill="red" stroke="black" points="1209,-508.77 931,-508.77 931,-472.77 1209,-472.77 1209,-508.77"/>
<text text-anchor="start" x="937" y="-486.57" font-family="Times New Roman,serif" font-size="14.00" fill="blue">PAKNECONPRVTKN:Household Consumption</text>
</a>
</g>
</g>
<!-- PAKNECONPRVTXN&#45;&gt;PAKNECONPRVTKN -->
<g id="edge27" class="edge">
<title>PAKNECONPRVTXN&#45;&gt;PAKNECONPRVTKN</title>
<g id="a_edge27"><a xlink:href="bogus" xlink:title=" PAKNECONPRVTXN &#45;&gt; PAKNECONPRVTKN Min. att. &#45;5706% &#160;max: 593%">
<path fill="none" stroke="black" stroke-width="8" d="M792.88,-250.91C844.97,-296.15 980.68,-414.05 1040.25,-465.8"/>
<polygon fill="black" stroke="black" stroke-width="8" points="1036,-471.37 1048.14,-472.65 1045.18,-460.8 1036,-471.37"/>
</a>
</g>
</g>
<!-- PAKSMSRVHSNGKN -->
<g id="node7" class="node">
<title>PAKSMSRVHSNGKN</title>
<g id="a_node7"><a xlink:title="PAKSMSRVHSNGKN&#10;FRML &#160;&lt;&gt; PAKSMSRVHSNGKN = ((1+0.782809577554843)*(0.0647364660896117*PAKNECONPRVTKN+0*PAKNECONGOVTKN+0.00605333595533851*PAKNEGDIFTOTKN+0.03048358523237*PAKNEEXPGNFSKN+0*PAKNEGDISTKBKN)&#45;0.0244768173208691*PAKNEIMPGNFSKN&#45;0.0684093628903126*PAKNYTAXNINDKN&#45;0)/(1+0.150771193398883) $">
<polygon fill="#63b8ff" stroke="black" points="1519,-1048.77 1374,-1048.77 1374,-1012.77 1519,-1012.77 1519,-1048.77"/>
<text text-anchor="start" x="1380.5" y="-1026.57" font-family="Times New Roman,serif" font-size="14.00" fill="blue">PAKSMSRVHSNGKN:</text>
</a>
</g>
</g>
<!-- PAKNYWRTTOTLCN -->
<g id="node8" class="node">
<title>PAKNYWRTTOTLCN</title>
<g id="a_node8"><a xlink:title="Wages&#10;FRML &#160;&lt;&gt; PAKNYWRTTOTLCN = (PAKNYWBINFMSH**PAKINFCES*(PAKNYWRTINFMCN)**(1&#45;PAKINFCES)+PAKNYWBFORMSH**PAKINFCES*(PAKNYWRTFORMCN*(1+PAKGGREVDRCTXN/100))**(1&#45;PAKINFCES))**(1/(1&#45;PAKINFCES)) $">
<polygon fill="#63b8ff" stroke="black" points="1929,-778.77 1748,-778.77 1748,-742.77 1929,-742.77 1929,-778.77"/>
<text text-anchor="start" x="1754.5" y="-756.57" font-family="Times New Roman,serif" font-size="14.00" fill="blue">PAKNYWRTTOTLCN:Wages</text>
</a>
</g>
</g>
<!-- PAKNYYWBTOTLCN -->
<g id="node17" class="node">
<title>PAKNYYWBTOTLCN</title>
<g id="a_node17"><a xlink:title="Economy&#45;wide wage bill&#10;FRML &#160;&lt;&gt; PAKNYYWBTOTLCN = PAKNYWRTTOTLCN*PAKLMEMPTOTLCN $">
<polygon fill="#63b8ff" stroke="black" points="2567,-778.77 2282,-778.77 2282,-742.77 2567,-742.77 2567,-778.77"/>
<text text-anchor="start" x="2288.5" y="-756.57" font-family="Times New Roman,serif" font-size="14.00" fill="blue">PAKNYYWBTOTLCN:Economy&#45;wide wage bill</text>
</a>
</g>
</g>
<!-- PAKNYWRTTOTLCN&#45;&gt;PAKNYYWBTOTLCN -->
<g id="edge9" class="edge">
<title>PAKNYWRTTOTLCN&#45;&gt;PAKNYYWBTOTLCN</title>
<g id="a_edge9"><a xlink:href="bogus" xlink:title=" PAKNYWRTTOTLCN &#45;&gt; PAKNYYWBTOTLCN Min. att. 16% &#160;max: 106%">
<path fill="none" stroke="black" stroke-width="8" d="M1929.15,-760.77C2020.23,-760.77 2162.98,-760.77 2271.72,-760.77"/>
<polygon fill="black" stroke="black" stroke-width="8" points="2271.8,-767.77 2281.8,-760.77 2271.8,-753.77 2271.8,-767.77"/>
</a>
</g>
</g>
<!-- PAKNYWRTTOTLCN&#45;&gt;PAKLMEMPTOTLCN -->
<g id="edge16" class="edge">
<title>PAKNYWRTTOTLCN&#45;&gt;PAKLMEMPTOTLCN</title>
<g id="a_edge16"><a xlink:href="bogus" xlink:title=" PAKNYWRTTOTLCN &#45;&gt; PAKLMEMPTOTLCN Min. att. &#45;1554% &#160;max: 236%">
<path fill="none" stroke="black" stroke-width="8" d="M1895.36,-742.71C1945.27,-726.58 2018.42,-702.93 2071.06,-685.92"/>
<polygon fill="black" stroke="black" stroke-width="8" points="2073.27,-692.56 2080.64,-682.83 2068.97,-679.24 2073.27,-692.56"/>
</a>
</g>
</g>
<!-- PAKSMAGRFSTYKN -->
<g id="node9" class="node">
<title>PAKSMAGRFSTYKN</title>
<g id="a_node9"><a xlink:title="PAKSMAGRFSTYKN&#10;FRML &#160;&lt;&gt; PAKSMAGRFSTYKN = ((1+0.195965019358753)*(0.010131919293849*PAKNECONPRVTKN+0*PAKNECONGOVTKN+0*PAKNEGDIFTOTKN+0.000136733767007103*PAKNEEXPGNFSKN+0.0199955288980741*PAKNEGDISTKBKN)&#45;0.00076829563200478*PAKNEIMPGNFSKN&#45;0.00172030587371022*PAKNYTAXNINDKN&#45;65421)/(1+0.319587584852584) $">
<polygon fill="#63b8ff" stroke="black" points="1518.5,-994.77 1374.5,-994.77 1374.5,-958.77 1518.5,-958.77 1518.5,-994.77"/>
<text text-anchor="start" x="1380.5" y="-972.57" font-family="Times New Roman,serif" font-size="14.00" fill="blue">PAKSMAGRFSTYKN:</text>
</a>
</g>
</g>
<!-- PAKNECONOTHRKN -->
<g id="node10" class="node">
<title>PAKNECONOTHRKN</title>
<g id="a_node10"><a xlink:title="Other Consumption&#10;FRML &#160;&lt;&gt; PAKNECONOTHRKN = PAKNECONOTHRSH**(PAKCESENGYCON)*(PAKNECONPRVTKN*(PAKNECONPRVTXN/PAKNECONOTHRXN)**(PAKCESENGYCON)) $">
<polygon fill="#63b8ff" stroke="black" points="1573,-940.77 1320,-940.77 1320,-904.77 1573,-904.77 1573,-940.77"/>
<text text-anchor="start" x="1326.5" y="-918.57" font-family="Times New Roman,serif" font-size="14.00" fill="blue">PAKNECONOTHRKN:Other Consumption</text>
</a>
</g>
</g>
<!-- PAKNECONENGYGN -->
<g id="node11" class="node">
<title>PAKNECONENGYGN</title>
<g id="a_node11"><a xlink:title="Net consumption deflator&#10;FRML &#160;&lt;&gt; PAKNECONENGYGN = (PAKNVCOLPRODSH**(PAKCESENGYPROD)*(PAKNVCOLPRODGN)**(1&#45;PAKCESENGYPROD)+PAKNVGASPRODSH**(PAKCESENGYPROD)*(PAKNVGASPRODGN)**(1&#45;PAKCESENGYPROD)+PAKNVOILPRODSH**(PAKCESENGYPROD)*(PAKNVOILPRODGN)**(1&#45;PAKCESENGYPROD)+PAKNVRENPRODSH**(PAKCESENGYPROD)*(PAKNVRENPRODXN)**(1&#45;PAKCESENGYPROD))**(1/(1&#45;PAKCESENGYPROD)) $">
<polygon fill="#63b8ff" stroke="black" points="286,-277.77 0,-277.77 0,-241.77 286,-241.77 286,-277.77"/>
<text text-anchor="start" x="6" y="-255.57" font-family="Times New Roman,serif" font-size="14.00" fill="blue">PAKNECONENGYGN:Net consumption deflator</text>
</a>
</g>
</g>
<!-- PAKNECONENGYGN&#45;&gt;PAKNECONENGYXN -->
<g id="edge31" class="edge">
<title>PAKNECONENGYGN&#45;&gt;PAKNECONENGYXN</title>
<g id="a_edge31"><a xlink:href="bogus" xlink:title=" PAKNECONENGYGN &#45;&gt; PAKNECONENGYXN Min. att. &#45;39% &#160;max: 100%">
<path fill="none" stroke="black" stroke-width="8" d="M286.42,-259.77C299.27,-259.77 312.29,-259.77 325.13,-259.77"/>
<polygon fill="black" stroke="black" stroke-width="8" points="325.38,-266.77 335.38,-259.77 325.38,-252.77 325.38,-266.77"/>
</a>
</g>
</g>
<!-- PAKNECONPRVTCN -->
<g id="node12" class="node">
<title>PAKNECONPRVTCN</title>
<g id="a_node12"><a xlink:title="Household demand&#10;FRML &#160;&lt;&gt; PAKNECONPRVTCN = PAKNECONPRVTKN*PAKNECONPRVTXN $">
<polygon fill="#63b8ff" stroke="black" points="1570,-886.77 1323,-886.77 1323,-850.77 1570,-850.77 1570,-886.77"/>
<text text-anchor="start" x="1329.5" y="-864.57" font-family="Times New Roman,serif" font-size="14.00" fill="blue">PAKNECONPRVTCN:Household demand</text>
</a>
</g>
</g>
<!-- PAKSMSRVFINSKN -->
<g id="node13" class="node">
<title>PAKSMSRVFINSKN</title>
<g id="a_node13"><a xlink:title="PAKSMSRVFINSKN&#10;FRML &#160;&lt;&gt; PAKSMSRVFINSKN = ((1+1.04148314760779)*(0.0520379651885469*PAKNECONPRVTKN+0*PAKNECONGOVTKN+0*PAKNEGDIFTOTKN+0.00879145012359898*PAKNEEXPGNFSKN+0*PAKNEGDISTKBKN)&#45;0.00594416979264236*PAKNEIMPGNFSKN&#45;0.000103762679145856*PAKNYTAXNINDKN&#45;0)/(1+0.24687745523084) $">
<polygon fill="#63b8ff" stroke="black" points="1515,-724.77 1378,-724.77 1378,-688.77 1515,-688.77 1515,-724.77"/>
<text text-anchor="start" x="1384.5" y="-702.57" font-family="Times New Roman,serif" font-size="14.00" fill="blue">PAKSMSRVFINSKN:</text>
</a>
</g>
</g>
<!-- PAKNECONOTHRXN -->
<g id="node14" class="node">
<title>PAKNECONOTHRXN</title>
<g id="a_node14"><a xlink:title="Non&#45;Energy Consumption&#10;FRML &lt;Z,EXO&gt; PAKNECONOTHRXN = (PAKNECONOTHRXN(&#45;1)*EXP(&#45;PAKNECONOTHRXN_A+ (0.598859116610832*((LOG(PAKNYGDPFCSTXN))&#45;(LOG(PAKNYGDPFCSTXN(&#45;1))))+((PAKGGREVGNFSXN/100)&#45;(PAKGGREVGNFSXN(&#45;1)/100))+(1&#45;0.598859116610832)*((LOG(PAKNEIMPGNFSXN))&#45;(LOG(PAKNEIMPGNFSXN(&#45;1))))+0.2*PAKNYGDPGAP_/100) )) * (1&#45;PAKNECONOTHRXN_D)+ PAKNECONOTHRXN_X*PAKNECONOTHRXN_D &#160;$">
<polygon fill="#63b8ff" stroke="black" points="611,-223.77 322,-223.77 322,-187.77 611,-187.77 611,-223.77"/>
<text text-anchor="start" x="328.5" y="-201.57" font-family="Times New Roman,serif" font-size="14.00" fill="blue">PAKNECONOTHRXN:Non&#45;Energy Consumption</text>
</a>
</g>
</g>
<!-- PAKNECONOTHRXN&#45;&gt;PAKNECONPRVTXN -->
<g id="edge7" class="edge">
<title>PAKNECONOTHRXN&#45;&gt;PAKNECONPRVTXN</title>
<g id="a_edge7"><a xlink:href="bogus" xlink:title=" PAKNECONOTHRXN &#45;&gt; PAKNECONPRVTXN Min. att. 71% &#160;max: 99%">
<path fill="none" stroke="black" stroke-width="8" d="M611.22,-218.6C619.67,-219.35 628.16,-220.11 636.57,-220.86"/>
<polygon fill="black" stroke="black" stroke-width="8" points="636.2,-227.85 646.78,-221.77 637.44,-213.91 636.2,-227.85"/>
</a>
</g>
</g>
<!-- PAKFMLBLPOLYXN&#45;&gt;PAKNECONPRVTKN -->
<g id="edge13" class="edge">
<title>PAKFMLBLPOLYXN&#45;&gt;PAKNECONPRVTKN</title>
<g id="a_edge13"><a xlink:href="bogus" xlink:title=" PAKFMLBLPOLYXN &#45;&gt; PAKNECONPRVTKN Min. att. &#45;160% &#160;max: 20%">
<path fill="none" stroke="black" stroke-width="8" d="M2034.75,-62.83C1814.67,-55.18 1309.02,-42.61 1245,-85.77 1113.46,-174.45 1080.86,-385.08 1073.21,-462.01"/>
<polygon fill="black" stroke="black" stroke-width="8" points="1066.21,-461.75 1072.26,-472.36 1080.15,-463.04 1066.21,-461.75"/>
</a>
</g>
</g>
<!-- PAKNECONENGYKN -->
<g id="node16" class="node">
<title>PAKNECONENGYKN</title>
<g id="a_node16"><a xlink:title="Energy Consumption&#10;FRML &#160;&lt;&gt; PAKNECONENGYKN = PAKNECONENGYSH**(PAKCESENGYCON)*(PAKNECONPRVTKN*(PAKNECONPRVTXN/PAKNECONENGYXN)**(PAKCESENGYCON)) $">
<polygon fill="#63b8ff" stroke="black" points="1577.5,-670.77 1315.5,-670.77 1315.5,-634.77 1577.5,-634.77 1577.5,-670.77"/>
<text text-anchor="start" x="1321.5" y="-648.57" font-family="Times New Roman,serif" font-size="14.00" fill="blue">PAKNECONENGYKN:Energy Consumption</text>
</a>
</g>
</g>
<!-- PAKNYYWBTOTLCN&#45;&gt;PAKNECONPRVTKN -->
<g id="edge6" class="edge">
<title>PAKNYYWBTOTLCN&#45;&gt;PAKNECONPRVTKN</title>
<g id="a_edge6"><a xlink:href="bogus" xlink:title=" PAKNYYWBTOTLCN &#45;&gt; PAKNECONPRVTKN Min. att. &#45;594% &#160;max: 5821%">
<path fill="none" stroke="black" stroke-width="8" d="M2400.75,-778.91C2272.76,-878.66 1634.41,-1345.6 1245,-1057.77 1154.43,-990.82 1091.59,-624.26 1075.23,-519.02"/>
<polygon fill="black" stroke="black" stroke-width="8" points="1082.1,-517.68 1073.66,-508.86 1068.26,-519.81 1082.1,-517.68"/>
</a>
</g>
</g>
<!-- PAKNECONPRVTKN&#45;&gt;PAKSMAGRFSNGKN -->
<g id="edge5" class="edge">
<title>PAKNECONPRVTKN&#45;&gt;PAKSMAGRFSNGKN</title>
<g id="a_edge5"><a xlink:href="bogus" xlink:title=" PAKNECONPRVTKN &#45;&gt; PAKSMAGRFSNGKN Min. att. &#45;29% &#160;max: 170%">
<path fill="none" stroke="black" stroke-width="8" d="M1075.61,-472.56C1090.13,-419.36 1140.29,-263.48 1245,-193.77 1279.49,-170.81 1324.76,-163.27 1363.56,-161.83"/>
<polygon fill="black" stroke="black" stroke-width="8" points="1363.97,-168.82 1373.79,-161.58 1363.63,-154.82 1363.97,-168.82"/>
</a>
</g>
</g>
<!-- PAKNECONPRVTKN&#45;&gt;PAKSMSRVTRNSKN -->
<g id="edge28" class="edge">
<title>PAKNECONPRVTKN&#45;&gt;PAKSMSRVTRNSKN</title>
<g id="a_edge28"><a xlink:href="bogus" xlink:title=" PAKNECONPRVTKN &#45;&gt; PAKSMSRVTRNSKN Min. att. 87% &#160;max: 592%">
<path fill="none" stroke="black" stroke-width="8" d="M1073.96,-472.37C1084.6,-412.88 1126.73,-224.6 1245,-139.77 1279.26,-115.19 1325.48,-107.73 1364.91,-106.73"/>
<polygon fill="black" stroke="black" stroke-width="8" points="1365.12,-113.73 1375.04,-106.61 1364.96,-99.73 1365.12,-113.73"/>
</a>
</g>
</g>
<!-- PAKNECONPRVTKN&#45;&gt;PAKNYGDPMKTPKN -->
<g id="edge1" class="edge">
<title>PAKNECONPRVTKN&#45;&gt;PAKNYGDPMKTPKN</title>
<g id="a_edge1"><a xlink:href="bogus" xlink:title=" PAKNECONPRVTKN &#45;&gt; PAKNYGDPMKTPKN Min. att. &#45;1557% &#160;max: 290%">
<path fill="none" stroke="black" stroke-width="8" d="M1081.51,-472.64C1105.11,-433.78 1166.48,-342.67 1245,-301.77 1248.77,-299.81 1252.63,-297.97 1256.56,-296.25"/>
<polygon fill="black" stroke="black" stroke-width="8" points="1259.25,-302.71 1265.86,-292.45 1253.96,-289.75 1259.25,-302.71"/>
</a>
</g>
</g>
<!-- PAKNECONPRVTKN&#45;&gt;PAKSMSRVHSNGKN -->
<g id="edge17" class="edge">
<title>PAKNECONPRVTKN&#45;&gt;PAKSMSRVHSNGKN</title>
<g id="a_edge17"><a xlink:href="bogus" xlink:title=" PAKNECONPRVTKN &#45;&gt; PAKSMSRVHSNGKN Min. att. 34% &#160;max: 147%">
<path fill="none" stroke="black" stroke-width="8" d="M1070.87,-508.99C1071.39,-584.03 1084.18,-871.36 1245,-1003.77 1277.55,-1030.57 1323.66,-1038.17 1363.46,-1038.69"/>
<polygon fill="black" stroke="black" stroke-width="8" points="1363.71,-1045.69 1373.7,-1038.67 1363.69,-1031.69 1363.71,-1045.69"/>
</a>
</g>
</g>
<!-- PAKNECONPRVTKN&#45;&gt;PAKSMAGRFSTYKN -->
<g id="edge22" class="edge">
<title>PAKNECONPRVTKN&#45;&gt;PAKSMAGRFSTYKN</title>
<g id="a_edge22"><a xlink:href="bogus" xlink:title=" PAKNECONPRVTKN &#45;&gt; PAKSMAGRFSTYKN Min. att. 96% &#160;max: 371%">
<path fill="none" stroke="black" stroke-width="8" d="M1071.67,-509C1075.31,-579.15 1098.51,-833.44 1245,-949.77 1278.02,-975.99 1324.16,-983.56 1363.86,-984.2"/>
<polygon fill="black" stroke="black" stroke-width="8" points="1364.05,-991.2 1374.07,-984.21 1364.08,-977.2 1364.05,-991.2"/>
</a>
</g>
</g>
<!-- PAKNECONPRVTKN&#45;&gt;PAKNECONOTHRKN -->
<g id="edge24" class="edge">
<title>PAKNECONPRVTKN&#45;&gt;PAKNECONOTHRKN</title>
<g id="a_edge24"><a xlink:href="bogus" xlink:title=" PAKNECONPRVTKN &#45;&gt; PAKNECONOTHRKN Min. att. &#45;12063% &#160;max: 323%">
<path fill="none" stroke="black" stroke-width="8" d="M1072.68,-509.11C1079.68,-574.17 1112.74,-795.34 1245,-895.77 1263.79,-910.03 1286.51,-918.67 1309.82,-923.65"/>
<polygon fill="black" stroke="black" stroke-width="8" points="1308.7,-930.57 1319.84,-925.57 1311.33,-916.81 1308.7,-930.57"/>
</a>
</g>
</g>
<!-- PAKNECONPRVTKN&#45;&gt;PAKNECONPRVTCN -->
<g id="edge8" class="edge">
<title>PAKNECONPRVTKN&#45;&gt;PAKNECONPRVTCN</title>
<g id="a_edge8"><a xlink:href="bogus" xlink:title=" PAKNECONPRVTKN &#45;&gt; PAKNECONPRVTCN Min. att. &#45;720% &#160;max: 6450%">
<path fill="none" stroke="black" stroke-width="8" d="M1073.96,-509.16C1084.6,-568.66 1126.73,-756.94 1245,-841.77 1264.82,-855.98 1288.63,-864.47 1312.82,-869.3"/>
<polygon fill="black" stroke="black" stroke-width="8" points="1311.76,-876.22 1322.83,-871.09 1314.22,-862.44 1311.76,-876.22"/>
</a>
</g>
</g>
<!-- PAKNECONPRVTKN&#45;&gt;PAKSMSRVFINSKN -->
<g id="edge33" class="edge">
<title>PAKNECONPRVTKN&#45;&gt;PAKSMSRVFINSKN</title>
<g id="a_edge33"><a xlink:href="bogus" xlink:title=" PAKNECONPRVTKN &#45;&gt; PAKSMSRVFINSKN Min. att. &#45;104% &#160;max: 125%">
<path fill="none" stroke="black" stroke-width="8" d="M1081.51,-508.9C1105.11,-547.76 1166.48,-638.86 1245,-679.77 1282.46,-699.28 1328.97,-706.42 1367.76,-708.5"/>
<polygon fill="black" stroke="black" stroke-width="8" points="1367.67,-715.51 1377.96,-708.95 1368.27,-701.52 1367.67,-715.51"/>
</a>
</g>
</g>
<!-- PAKNECONPRVTKN&#45;&gt;PAKNECONENGYKN -->
<g id="edge23" class="edge">
<title>PAKNECONPRVTKN&#45;&gt;PAKNECONENGYKN</title>
<g id="a_edge23"><a xlink:href="bogus" xlink:title=" PAKNECONPRVTKN &#45;&gt; PAKNECONENGYKN Min. att. &#45;699% &#160;max: 3890%">
<path fill="none" stroke="black" stroke-width="8" d="M1087.74,-508.88C1116.61,-538.84 1179.06,-598.13 1245,-625.77 1263.95,-633.71 1284.7,-639.43 1305.45,-643.53"/>
<polygon fill="black" stroke="black" stroke-width="8" points="1304.19,-650.42 1315.3,-645.36 1306.74,-636.65 1304.19,-650.42"/>
</a>
</g>
</g>
<!-- PAKSMINDMNGSKN -->
<g id="node21" class="node">
<title>PAKSMINDMNGSKN</title>
<g id="a_node21"><a xlink:title="PAKSMINDMNGSKN&#10;FRML &#160;&lt;&gt; PAKSMINDMNGSKN = ((1+6.96158341862144)*(0.0132800565666619*PAKNECONPRVTKN+0*PAKNECONGOVTKN+0*PAKNEGDIFTOTKN+0.00704674623894759*PAKNEEXPGNFSKN+0.024122890632682*PAKNEGDISTKBKN)&#45;0.134221966110302*PAKNEIMPGNFSKN&#45;0.500981557895139*PAKNYTAXNINDKN&#45;123652.869264758)/(1+0.200800622280983) $">
<polygon fill="#63b8ff" stroke="black" points="1519.5,-616.77 1373.5,-616.77 1373.5,-580.77 1519.5,-580.77 1519.5,-616.77"/>
<text text-anchor="start" x="1379.5" y="-594.57" font-family="Times New Roman,serif" font-size="14.00" fill="blue">PAKSMINDMNGSKN:</text>
</a>
</g>
</g>
<!-- PAKNECONPRVTKN&#45;&gt;PAKSMINDMNGSKN -->
<g id="edge10" class="edge">
<title>PAKNECONPRVTKN&#45;&gt;PAKSMINDMNGSKN</title>
<g id="a_edge10"><a xlink:href="bogus" xlink:title=" PAKNECONPRVTKN &#45;&gt; PAKSMINDMNGSKN Min. att. &#45;1229% &#160;max: 1716%">
<path fill="none" stroke="black" stroke-width="8" d="M1102.26,-508.86C1136.24,-527.67 1192.71,-556.46 1245,-571.77 1283.05,-582.91 1326.53,-589.47 1363.25,-593.33"/>
<polygon fill="black" stroke="black" stroke-width="8" points="1362.77,-600.32 1373.42,-594.35 1364.17,-586.39 1362.77,-600.32"/>
</a>
</g>
</g>
<!-- PAKNECONPRVTKN_FITTED -->
<g id="node22" class="node">
<title>PAKNECONPRVTKN_FITTED</title>
<g id="a_node22"><a xlink:title="Fitted &#160;value:Household Consumption&#10;FRML &lt;FIT&gt; PAKNECONPRVTKN_FITTED = PAKNECONPRVTKN(&#45;1)*EXP( (&#45;0.2*(LOG(PAKNECONPRVTKN(&#45;1))&#45;LOG((PAKNYYWBTOTLCN(&#45;1)*(1&#45;PAKGGREVDRCTXN(&#45;1)/100))/PAKNECONPRVTXN(&#45;1)))+1*((LOG((PAKNYYWBTOTLCN*(1&#45;PAKGGREVDRCTXN/100))/PAKNECONPRVTXN))&#45;(LOG((PAKNYYWBTOTLCN(&#45;1)*(1&#45;PAKGGREVDRCTXN(&#45;1)/100))/PAKNECONPRVTXN(&#45;1))))+0.0303228629698929+0.0163839011059956*DURING_2010&#45;0.3*(PAKFMLBLPOLYXN/100&#45;((LOG(PAKNECONPRVTXN))&#45;(LOG(PAKNECONPRVTXN(&#45;1)))))) ) $">
<polygon fill="#63b8ff" stroke="black" points="1648,-562.77 1245,-562.77 1245,-526.77 1648,-526.77 1648,-562.77"/>
<text text-anchor="start" x="1251.5" y="-540.57" font-family="Times New Roman,serif" font-size="14.00" fill="blue">PAKNECONPRVTKN_FITTED:Fitted &#160;value:Household Consumption</text>
</a>
</g>
</g>
<!-- PAKNECONPRVTKN&#45;&gt;PAKNECONPRVTKN_FITTED -->
<g id="edge29" class="edge">
<title>PAKNECONPRVTKN&#45;&gt;PAKNECONPRVTKN_FITTED</title>
<g id="a_edge29"><a xlink:href="bogus" xlink:title=" PAKNECONPRVTKN &#45;&gt; PAKNECONPRVTKN_FITTED Min. att. &#45;786% &#160;max: 175%">
<path fill="none" stroke="black" stroke-width="8" d="M1185.14,-508.81C1205.08,-511.87 1225.64,-514.96 1245,-517.77 1262.45,-520.3 1280.77,-522.87 1298.94,-525.38"/>
<polygon fill="black" stroke="black" stroke-width="8" points="1298.15,-532.34 1309.01,-526.76 1300.06,-518.47 1298.15,-532.34"/>
</a>
</g>
</g>
<!-- PAKSMINDOTHRTKN -->
<g id="node24" class="node">
<title>PAKSMINDOTHRTKN</title>
<g id="a_node24"><a xlink:title="PAKSMINDOTHRTKN&#10;FRML &#160;&lt;&gt; PAKSMINDOTHRTKN = ((1+0.483473985412524)*(0.40172973397176*PAKNECONPRVTKN+0*PAKNECONGOVTKN+0.560459287907094*PAKNEGDIFTOTKN+0.719299486591763*PAKNEEXPGNFSKN+0.620970563578771*PAKNEGDISTKBKN)&#45;0.606734386430279*PAKNEIMPGNFSKN&#45;0.866045585295928*PAKNYTAXNINDKN&#45;2983275.63714814)/(1+2.46379868577176) $">
<polygon fill="#63b8ff" stroke="black" points="1522,-454.77 1371,-454.77 1371,-418.77 1522,-418.77 1522,-454.77"/>
<text text-anchor="start" x="1377.5" y="-432.57" font-family="Times New Roman,serif" font-size="14.00" fill="blue">PAKSMINDOTHRTKN:</text>
</a>
</g>
</g>
<!-- PAKNECONPRVTKN&#45;&gt;PAKSMINDOTHRTKN -->
<g id="edge11" class="edge">
<title>PAKNECONPRVTKN&#45;&gt;PAKSMINDOTHRTKN</title>
<g id="a_edge11"><a xlink:href="bogus" xlink:title=" PAKNECONPRVTKN &#45;&gt; PAKSMINDOTHRTKN Min. att. &#45;11779% &#160;max: 971%">
<path fill="none" stroke="black" stroke-width="8" d="M1185.14,-472.72C1205.08,-469.66 1225.64,-466.57 1245,-463.77 1282.81,-458.29 1324.68,-452.59 1360.34,-447.85"/>
<polygon fill="black" stroke="black" stroke-width="8" points="1361.71,-454.73 1370.71,-446.48 1359.87,-440.85 1361.71,-454.73"/>
</a>
</g>
</g>
<!-- PAKSMAGRCRPSKN -->
<g id="node25" class="node">
<title>PAKSMAGRCRPSKN</title>
<g id="a_node25"><a xlink:title="PAKSMAGRCRPSKN&#10;FRML &#160;&lt;&gt; PAKSMAGRCRPSKN = ((1+2.09928590574241)*(0.144287620838506*PAKNECONPRVTKN+0*PAKNECONGOVTKN+0*PAKNEGDIFTOTKN+0.0572678299039023*PAKNEEXPGNFSKN+0.267381669083985*PAKNEGDISTKBKN)&#45;0.0736247088197363*PAKNEIMPGNFSKN&#45;0.0407034395686347*PAKNYTAXNINDKN&#45;906311)/(1+0.396041694659877) $">
<polygon fill="#63b8ff" stroke="black" points="1518.5,-400.77 1374.5,-400.77 1374.5,-364.77 1518.5,-364.77 1518.5,-400.77"/>
<text text-anchor="start" x="1380.5" y="-378.57" font-family="Times New Roman,serif" font-size="14.00" fill="blue">PAKSMAGRCRPSKN:</text>
</a>
</g>
</g>
<!-- PAKNECONPRVTKN&#45;&gt;PAKSMAGRCRPSKN -->
<g id="edge30" class="edge">
<title>PAKNECONPRVTKN&#45;&gt;PAKSMAGRCRPSKN</title>
<g id="a_edge30"><a xlink:href="bogus" xlink:title=" PAKNECONPRVTKN &#45;&gt; PAKSMAGRCRPSKN Min. att. &#45;25% &#160;max: 208%">
<path fill="none" stroke="black" stroke-width="8" d="M1102.26,-472.68C1136.24,-453.87 1192.71,-425.07 1245,-409.77 1283.36,-398.54 1327.24,-391.96 1364.14,-388.11"/>
<polygon fill="black" stroke="black" stroke-width="8" points="1365.1,-395.05 1374.36,-387.1 1363.72,-381.12 1365.1,-395.05"/>
</a>
</g>
</g>
<!-- PAKSMENGTOTLKN -->
<g id="node26" class="node">
<title>PAKSMENGTOTLKN</title>
<g id="a_node26"><a xlink:title="PAKSMENGTOTLKN&#10;FRML &#160;&lt;&gt; PAKSMENGTOTLKN = ((1+1.65868473220397)*(0.0775261497897936*PAKNECONPRVTKN+0*PAKNECONGOVTKN+0*PAKNEGDIFTOTKN+0.0217448978257548*PAKNEEXPGNFSKN+0.0458991644104248*PAKNEGDISTKBKN)&#45;0.11894699850705*PAKNEIMPGNFSKN&#45;&#45;0.50579180838529*PAKNYTAXNINDKN&#45;0)/(1+5.65663938581514) $">
<polygon fill="#63b8ff" stroke="black" points="1519,-346.77 1374,-346.77 1374,-310.77 1519,-310.77 1519,-346.77"/>
<text text-anchor="start" x="1380.5" y="-324.57" font-family="Times New Roman,serif" font-size="14.00" fill="blue">PAKSMENGTOTLKN:</text>
</a>
</g>
</g>
<!-- PAKNECONPRVTKN&#45;&gt;PAKSMENGTOTLKN -->
<g id="edge18" class="edge">
<title>PAKNECONPRVTKN&#45;&gt;PAKSMENGTOTLKN</title>
<g id="a_edge18"><a xlink:href="bogus" xlink:title=" PAKNECONPRVTKN &#45;&gt; PAKSMENGTOTLKN Min. att. &#45;14% &#160;max: 2186%">
<path fill="none" stroke="black" stroke-width="8" d="M1087.74,-472.66C1116.61,-442.7 1179.06,-383.4 1245,-355.77 1282.01,-340.26 1325.93,-333.21 1363.21,-330.17"/>
<polygon fill="black" stroke="black" stroke-width="8" points="1364.07,-337.12 1373.54,-329.41 1363.05,-323.16 1364.07,-337.12"/>
</a>
</g>
</g>
<!-- PAKNEGDETTOTKN -->
<g id="node30" class="node">
<title>PAKNEGDETTOTKN</title>
<g id="a_node30"><a xlink:title="GDE&#10;FRML &#160;&lt;&gt; PAKNEGDETTOTKN = (PAKNECONPRVTKN+PAKNECONGOVTKN+PAKNEGDIFTOTKN+PAKNEGDISTKBKN+PAKNYGDPDISCKN) $">
<polygon fill="#63b8ff" stroke="black" points="1531.5,-238.77 1361.5,-238.77 1361.5,-202.77 1531.5,-202.77 1531.5,-238.77"/>
<text text-anchor="start" x="1367.5" y="-216.57" font-family="Times New Roman,serif" font-size="14.00" fill="blue">PAKNEGDETTOTKN:GDE</text>
</a>
</g>
</g>
<!-- PAKNECONPRVTKN&#45;&gt;PAKNEGDETTOTKN -->
<g id="edge32" class="edge">
<title>PAKNECONPRVTKN&#45;&gt;PAKNEGDETTOTKN</title>
<g id="a_edge32"><a xlink:href="bogus" xlink:title=" PAKNECONPRVTKN &#45;&gt; PAKNEGDETTOTKN Min. att. &#45;2284% &#160;max: 2484%">
<path fill="none" stroke="black" stroke-width="8" d="M1077.98,-472.55C1096.83,-426.04 1153.63,-302.74 1245,-247.77 1276.36,-228.9 1315.42,-220.92 1350.7,-218.09"/>
<polygon fill="black" stroke="black" stroke-width="8" points="1351.52,-225.05 1361.03,-217.39 1350.59,-211.08 1351.52,-225.05"/>
</a>
</g>
</g>
<!-- PAKNYWRTINFMCN -->
<g id="node19" class="node">
<title>PAKNYWRTINFMCN</title>
<g id="a_node19"><a xlink:title="Informal wage&#10;FRML &lt;Z,EXO&gt; PAKNYWRTINFMCN = (PAKNYWRTINFMCN(&#45;1)*EXP(&#45;PAKNYWRTINFMCN_A+ (&#45;0.122614247140616&#45;0.3*(LOG(PAKNYWRTINFMCN(&#45;1))&#45;LOG(PAKNYGDPFCSTXN(&#45;1))&#45;LOG(PAKNYGDPPOTLKN(&#45;1)/PAKLMEMPSTRLCN(&#45;1)))+0.2*((LOG(PAKNYWRTINFMCN(&#45;1)))&#45;(LOG(PAKNYWRTINFMCN(&#45;2))))+(1&#45;0.2)*(0.5*((LOG(PAKNYGDPFCSTXN(&#45;1)))&#45;(LOG(PAKNYGDPFCSTXN(&#45;2))))+0.5*(PAKINFLEXPT/100)+((LOG(PAKNYGDPMKTPKN/PAKLMEMPSTRLCN))&#45;(LOG(PAKNYGDPMKTPKN(&#45;1)/PAKLMEMPSTRLCN(&#45;1)))))&#45;0.2*(PAKLMUNRTOTLCN&#45;PAKLMUNRSTRLCN)/100+0.15347529018182*DURING_2000&#45;0.183372342445734*DURING_2001) )) * (1&#45;PAKNYWRTINFMCN_D)+ PAKNYWRTINFMCN_X*PAKNYWRTINFMCN_D &#160;$">
<polygon fill="#63b8ff" stroke="black" points="1559.5,-832.77 1333.5,-832.77 1333.5,-796.77 1559.5,-796.77 1559.5,-832.77"/>
<text text-anchor="start" x="1339.5" y="-810.57" font-family="Times New Roman,serif" font-size="14.00" fill="blue">PAKNYWRTINFMCN:Informal wage</text>
</a>
</g>
</g>
<!-- PAKNYWRTINFMCN&#45;&gt;PAKNYWRTTOTLCN -->
<g id="edge34" class="edge">
<title>PAKNYWRTINFMCN&#45;&gt;PAKNYWRTTOTLCN</title>
<g id="a_edge34"><a xlink:href="bogus" xlink:title=" PAKNYWRTINFMCN &#45;&gt; PAKNYWRTTOTLCN Min. att. 79% &#160;max: 80%">
<path fill="none" stroke="black" stroke-width="7.95" d="M1559.66,-799.82C1588.46,-795.94 1619.38,-791.73 1648,-787.77 1677.15,-783.73 1708.81,-779.25 1737.75,-775.13"/>
<polygon fill="black" stroke="black" stroke-width="7.95" points="1738.95,-781.98 1747.87,-773.68 1736.99,-768.21 1738.95,-781.98"/>
</a>
</g>
</g>
<!-- PAKLMEMPTOTLCN&#45;&gt;PAKNYYWBTOTLCN -->
<g id="edge2" class="edge">
<title>PAKLMEMPTOTLCN&#45;&gt;PAKNYYWBTOTLCN</title>
<g id="a_edge2"><a xlink:href="bogus" xlink:title=" PAKLMEMPTOTLCN &#45;&gt; PAKNYYWBTOTLCN Min. att. &#45;6% &#160;max: 84%">
<path fill="none" stroke="black" stroke-width="8" d="M2192.11,-682.82C2239.82,-698.9 2309.68,-722.43 2360.15,-739.43"/>
<polygon fill="black" stroke="black" stroke-width="8" points="2357.94,-746.07 2369.65,-742.63 2362.41,-732.8 2357.94,-746.07"/>
</a>
</g>
</g>
<!-- PAKNYGDPGAP_&#45;&gt;PAKFMLBLPOLYXN -->
<g id="edge14" class="edge">
<title>PAKNYGDPGAP_&#45;&gt;PAKFMLBLPOLYXN</title>
<g id="a_edge14"><a xlink:href="bogus" xlink:title=" PAKNYGDPGAP_ &#45;&gt; PAKFMLBLPOLYXN Min. att. &#45;15% &#160;max: 83%">
<path fill="none" stroke="black" stroke-width="8" d="M1856.75,-364.41C1907.21,-310.73 2054.6,-153.9 2112.63,-92.16"/>
<polygon fill="black" stroke="black" stroke-width="8" points="2117.82,-96.86 2119.57,-84.78 2107.62,-87.27 2117.82,-96.86"/>
</a>
</g>
</g>
<!-- PAKNYGDPGAP_&#45;&gt;PAKLMEMPTOTLCN -->
<g id="edge3" class="edge">
<title>PAKNYGDPGAP_&#45;&gt;PAKLMEMPTOTLCN</title>
<g id="a_edge3"><a xlink:href="bogus" xlink:title=" PAKNYGDPGAP_ &#45;&gt; PAKLMEMPTOTLCN Min. att. &#45;362% &#160;max: 147%">
<path fill="none" stroke="black" stroke-width="8" d="M1860.73,-400.98C1890.7,-426.85 1946.9,-475.98 1993,-519.77 2035.9,-560.52 2083.93,-609.84 2112.11,-639.18"/>
<polygon fill="black" stroke="black" stroke-width="8" points="2107.2,-644.18 2119.18,-646.55 2117.31,-634.49 2107.2,-644.18"/>
</a>
</g>
</g>
<!-- PAKNEIMPGNFSXN -->
<g id="node27" class="node">
<title>PAKNEIMPGNFSXN</title>
<g id="a_node27"><a xlink:title="Imports (G&amp;S)&#10;FRML &#160;&lt;&gt; PAKNEIMPGNFSXN = ((PAKNEIMPENGYSH**PAKCESENGYIMPT)*PAKNVENGNIMPXN**(1&#45;PAKCESENGYIMPT)+(PAKNEIMPOTHRSH**PAKCESENGYIMPT)*PAKNEIMPGSNEXN**(1&#45;PAKCESENGYIMPT))**(1/(1&#45;PAKCESENGYIMPT)) $">
<polygon fill="#63b8ff" stroke="black" points="254.5,-223.77 31.5,-223.77 31.5,-187.77 254.5,-187.77 254.5,-223.77"/>
<text text-anchor="start" x="38" y="-201.57" font-family="Times New Roman,serif" font-size="14.00" fill="blue">PAKNEIMPGNFSXN:Imports (G&amp;S)</text>
</a>
</g>
</g>
<!-- PAKNEIMPGNFSXN&#45;&gt;PAKNECONOTHRXN -->
<g id="edge21" class="edge">
<title>PAKNEIMPGNFSXN&#45;&gt;PAKNECONOTHRXN</title>
<g id="a_edge21"><a xlink:href="bogus" xlink:title=" PAKNEIMPGNFSXN &#45;&gt; PAKNECONOTHRXN Min. att. &#45;10% &#160;max: 114%">
<path fill="none" stroke="black" stroke-width="8" d="M254.64,-205.77C273.05,-205.77 292.43,-205.77 311.68,-205.77"/>
<polygon fill="black" stroke="black" stroke-width="8" points="311.72,-212.77 321.72,-205.77 311.72,-198.77 311.72,-212.77"/>
</a>
</g>
</g>
<!-- PAKNYGDPPOTLKN -->
<g id="node28" class="node">
<title>PAKNYGDPPOTLKN</title>
<g id="a_node28"><a xlink:title="Potential GDP&#10;FRML &#160;&lt;&gt; PAKNYGDPPOTLKN = PAKNYGDPTFP*(PAKLMEMPSTRLCN**PAKNYYWBTOTLCN_)*(PAKNEGDIKSTKKN(&#45;1)**(1&#45;PAKNYYWBTOTLCN_)) $">
<polygon fill="#63b8ff" stroke="black" points="1557,-508.77 1336,-508.77 1336,-472.77 1557,-472.77 1557,-508.77"/>
<text text-anchor="start" x="1342.5" y="-486.57" font-family="Times New Roman,serif" font-size="14.00" fill="blue">PAKNYGDPPOTLKN:Potential GDP</text>
</a>
</g>
</g>
<!-- PAKNYGDPPOTLKN&#45;&gt;PAKLMEMPTOTLCN -->
<g id="edge26" class="edge">
<title>PAKNYGDPPOTLKN&#45;&gt;PAKLMEMPTOTLCN</title>
<g id="a_edge26"><a xlink:href="bogus" xlink:title=" PAKNYGDPPOTLKN &#45;&gt; PAKLMEMPTOTLCN Min. att. &#45;92% &#160;max: 605%">
<path fill="none" stroke="black" stroke-width="8" d="M1557.05,-502.33C1586.73,-506.33 1618.73,-511.44 1648,-517.77 1805.23,-551.79 1985.25,-611.53 2076.58,-643.37"/>
<polygon fill="black" stroke="black" stroke-width="8" points="2074.46,-650.04 2086.21,-646.74 2079.08,-636.83 2074.46,-650.04"/>
</a>
</g>
</g>
<!-- PAKNYGDPPOTLKN&#45;&gt;PAKNYGDPGAP_ -->
<g id="edge25" class="edge">
<title>PAKNYGDPPOTLKN&#45;&gt;PAKNYGDPGAP_</title>
<g id="a_edge25"><a xlink:href="bogus" xlink:title=" PAKNYGDPPOTLKN &#45;&gt; PAKNYGDPGAP_ Min. att. &#45;129220% &#160;max: 79383%">
<path fill="none" stroke="black" stroke-width="8" d="M1557.06,-481.44C1586.88,-477.44 1618.96,-471.77 1648,-463.77 1699.83,-449.48 1756.11,-424.06 1793.75,-405.5"/>
<polygon fill="black" stroke="black" stroke-width="8" points="1797.07,-411.66 1802.9,-400.94 1790.83,-399.13 1797.07,-411.66"/>
</a>
</g>
</g>
<!-- PAKNYWRTFORMCN -->
<g id="node29" class="node">
<title>PAKNYWRTFORMCN</title>
<g id="a_node29"><a xlink:title="Formal wage&#10;FRML &lt;Z,EXO&gt; PAKNYWRTFORMCN = (PAKNYWRTFORMCN(&#45;1)*EXP(&#45;PAKNYWRTFORMCN_A+ (&#45;0.120164450250183&#45;0.3*(LOG(PAKNYWRTFORMCN(&#45;1))&#45;LOG(PAKNYGDPFCSTXN(&#45;1))&#45;LOG(PAKNYGDPPOTLKN(&#45;1)/PAKLMEMPSTRLCN(&#45;1)))+0.2*((LOG(PAKNYWRTFORMCN(&#45;1)))&#45;(LOG(PAKNYWRTFORMCN(&#45;2))))+(1&#45;0.2)*(0.5*((LOG(PAKNYGDPFCSTXN(&#45;1)))&#45;(LOG(PAKNYGDPFCSTXN(&#45;2))))+0.5*(PAKINFLEXPT/100)+((LOG(PAKNYGDPMKTPKN/PAKLMEMPSTRLCN))&#45;(LOG(PAKNYGDPMKTPKN(&#45;1)/PAKLMEMPSTRLCN(&#45;1)))))&#45;0.2*(PAKLMUNRTOTLCN&#45;PAKLMUNRSTRLCN)/100+0.15233813938029*DURING_2000&#45;0.183411483907703*DURING_2001) )) * (1&#45;PAKNYWRTFORMCN_D)+ PAKNYWRTFORMCN_X*PAKNYWRTFORMCN_D &#160;$">
<polygon fill="#63b8ff" stroke="black" points="1557.5,-778.77 1335.5,-778.77 1335.5,-742.77 1557.5,-742.77 1557.5,-778.77"/>
<text text-anchor="start" x="1341.5" y="-756.57" font-family="Times New Roman,serif" font-size="14.00" fill="blue">PAKNYWRTFORMCN:Formal wage</text>
</a>
</g>
</g>
<!-- PAKNYWRTFORMCN&#45;&gt;PAKNYWRTTOTLCN -->
<g id="edge12" class="edge">
<title>PAKNYWRTFORMCN&#45;&gt;PAKNYWRTTOTLCN</title>
<g id="a_edge12"><a xlink:href="bogus" xlink:title=" PAKNYWRTFORMCN &#45;&gt; PAKNYWRTTOTLCN Min. att. 21% &#160;max: 21%">
<path fill="none" stroke="black" stroke-width="2.13" d="M1557.69,-760.77C1614.31,-760.77 1682.78,-760.77 1737.81,-760.77"/>
<polygon fill="black" stroke="black" stroke-width="2.13" points="1737.92,-764.27 1747.92,-760.77 1737.92,-757.27 1737.92,-764.27"/>
</a>
</g>
</g>
</g>
</svg>
