<?xml version="1.0" encoding="UTF-8" standalone="no"?>
<!DOCTYPE svg PUBLIC "-//W3C//DTD SVG 1.1//EN"
 "http://www.w3.org/Graphics/SVG/1.1/DTD/svg11.dtd">
<!-- Generated by graphviz version 6.0.1 (0)
 -->
<!-- Title: TD Pages: 1 -->
<svg width="432pt" height="167pt"
 viewBox="0.00 0.00 432.00 166.54" xmlns="http://www.w3.org/2000/svg" xmlns:xlink="http://www.w3.org/1999/xlink">
<g id="graph0" class="graph" transform="scale(0.170012 0.170012) rotate(0) translate(4 975.6)">
<title>TD</title>
<polygon fill="white" stroke="none" points="-4,4 -4,-975.6 2537,-975.6 2537,4 -4,4"/>
<text text-anchor="middle" x="1266.5" y="-7.8" font-family="Times New Roman,serif" font-size="14.00">PAKNECONPRVTKN</text>
<!-- PAKNYWRTFORMCN -->
<g id="node1" class="node">
<title>PAKNYWRTFORMCN</title>
<g id="a_node1"><a xlink:title="Formal wage&#10;FRML &lt;Z,EXO&gt; PAKNYWRTFORMCN = (PAKNYWRTFORMCN(&#45;1)*EXP(&#45;PAKNYWRTFORMCN_A+ (&#45;0.120164450250183&#45;0.3*(LOG(PAKNYWRTFORMCN(&#45;1))&#45;LOG(PAKNYGDPFCSTXN(&#45;1))&#45;LOG(PAKNYGDPPOTLKN(&#45;1)/PAKLMEMPSTRLCN(&#45;1)))+0.2*((LOG(PAKNYWRTFORMCN(&#45;1)))&#45;(LOG(PAKNYWRTFORMCN(&#45;2))))+(1&#45;0.2)*(0.5*((LOG(PAKNYGDPFCSTXN(&#45;1)))&#45;(LOG(PAKNYGDPFCSTXN(&#45;2))))+0.5*(PAKINFLEXPT/100)+((LOG(PAKNYGDPMKTPKN/PAKLMEMPSTRLCN))&#45;(LOG(PAKNYGDPMKTPKN(&#45;1)/PAKLMEMPSTRLCN(&#45;1)))))&#45;0.2*(PAKLMUNRTOTLCN&#45;PAKLMUNRSTRLCN)/100+0.15233813938029*DURING_2000&#45;0.183411483907703*DURING_2001) )) * (1&#45;PAKNYWRTFORMCN_D)+ PAKNYWRTFORMCN_X*PAKNYWRTFORMCN_D &#160;$">
<polygon fill="#63b8ff" stroke="black" points="224,-890.6 2,-890.6 2,-854.6 224,-854.6 224,-890.6"/>
<text text-anchor="start" x="8" y="-868.4" font-family="Times New Roman,serif" font-size="14.00" fill="blue">PAKNYWRTFORMCN:Formal wage</text>
</a>
</g>
</g>
<!-- PAKNYWRTTOTLCN -->
<g id="node7" class="node">
<title>PAKNYWRTTOTLCN</title>
<g id="a_node7"><a xlink:title="Wages&#10;FRML &#160;&lt;&gt; PAKNYWRTTOTLCN = (PAKNYWBINFMSH**PAKINFCES*(PAKNYWRTINFMCN)**(1&#45;PAKINFCES)+PAKNYWBFORMSH**PAKINFCES*(PAKNYWRTFORMCN*(1+PAKGGREVDRCTXN/100))**(1&#45;PAKINFCES))**(1/(1&#45;PAKINFCES)) $">
<polygon fill="#63b8ff" stroke="black" points="495.5,-863.6 314.5,-863.6 314.5,-827.6 495.5,-827.6 495.5,-863.6"/>
<text text-anchor="start" x="321" y="-841.4" font-family="Times New Roman,serif" font-size="14.00" fill="blue">PAKNYWRTTOTLCN:Wages</text>
</a>
</g>
</g>
<!-- PAKNYWRTFORMCN&#45;&gt;PAKNYWRTTOTLCN -->
<g id="edge24" class="edge">
<title>PAKNYWRTFORMCN&#45;&gt;PAKNYWRTTOTLCN</title>
<g id="a_edge24"><a xlink:href="bogus" xlink:title=" PAKNYWRTFORMCN &#45;&gt; PAKNYWRTTOTLCN Min. att. 21% &#160;max: 21%">
<path fill="none" stroke="black" stroke-width="2.13" d="M224.05,-862.35C250.36,-859.91 278.3,-857.3 304.13,-854.9"/>
<polygon fill="black" stroke="black" stroke-width="2.13" points="304.66,-858.37 314.29,-853.95 304.01,-851.4 304.66,-858.37"/>
</a>
</g>
</g>
<!-- PAKNECONENGYGN -->
<g id="node2" class="node">
<title>PAKNECONENGYGN</title>
<g id="a_node2"><a xlink:title="Net consumption deflator&#10;FRML &#160;&lt;&gt; PAKNECONENGYGN = (PAKNVCOLPRODSH**(PAKCESENGYPROD)*(PAKNVCOLPRODGN)**(1&#45;PAKCESENGYPROD)+PAKNVGASPRODSH**(PAKCESENGYPROD)*(PAKNVGASPRODGN)**(1&#45;PAKCESENGYPROD)+PAKNVOILPRODSH**(PAKCESENGYPROD)*(PAKNVOILPRODGN)**(1&#45;PAKCESENGYPROD)+PAKNVRENPRODSH**(PAKCESENGYPROD)*(PAKNVRENPRODXN)**(1&#45;PAKCESENGYPROD))**(1/(1&#45;PAKCESENGYPROD)) $">
<polygon fill="#63b8ff" stroke="black" points="548,-292.6 262,-292.6 262,-256.6 548,-256.6 548,-292.6"/>
<text text-anchor="start" x="268" y="-270.4" font-family="Times New Roman,serif" font-size="14.00" fill="blue">PAKNECONENGYGN:Net consumption deflator</text>
</a>
</g>
</g>
<!-- PAKNECONENGYXN -->
<g id="node14" class="node">
<title>PAKNECONENGYXN</title>
<g id="a_node14"><a xlink:title="Energy Consumption&#10;FRML &lt;Z,EXO&gt; PAKNECONENGYXN = (PAKNECONENGYXN(&#45;1)*EXP(&#45;PAKNECONENGYXN_A+ (((LOG(PAKNECONENGYGN))&#45;(LOG(PAKNECONENGYGN(&#45;1))))+0.0550557534575806*DUMH) )) * (1&#45;PAKNECONENGYXN_D)+ PAKNECONENGYXN_X*PAKNECONENGYXN_D &#160;$">
<polygon fill="#63b8ff" stroke="black" points="859.5,-292.6 597.5,-292.6 597.5,-256.6 859.5,-256.6 859.5,-292.6"/>
<text text-anchor="start" x="603.5" y="-270.4" font-family="Times New Roman,serif" font-size="14.00" fill="blue">PAKNECONENGYXN:Energy Consumption</text>
</a>
</g>
</g>
<!-- PAKNECONENGYGN&#45;&gt;PAKNECONENGYXN -->
<g id="edge18" class="edge">
<title>PAKNECONENGYGN&#45;&gt;PAKNECONENGYXN</title>
<g id="a_edge18"><a xlink:href="bogus" xlink:title=" PAKNECONENGYGN &#45;&gt; PAKNECONENGYXN Min. att. &#45;39% &#160;max: 100%">
<path fill="none" stroke="black" stroke-width="8" d="M548.42,-274.6C561.27,-274.6 574.29,-274.6 587.13,-274.6"/>
<polygon fill="black" stroke="black" stroke-width="8" points="587.38,-281.6 597.38,-274.6 587.38,-267.6 587.38,-281.6"/>
</a>
</g>
</g>
<!-- PAKSMINDOTHRTKN -->
<g id="node3" class="node">
<title>PAKSMINDOTHRTKN</title>
<g id="a_node3"><a xlink:title="PAKSMINDOTHRTKN&#10;FRML &#160;&lt;&gt; PAKSMINDOTHRTKN = ((1+0.483473985412524)*(0.40172973397176*PAKNECONPRVTKN+0*PAKNECONGOVTKN+0.560459287907094*PAKNEGDIFTOTKN+0.719299486591763*PAKNEEXPGNFSKN+0.620970563578771*PAKNEGDISTKBKN)&#45;0.606734386430279*PAKNEIMPGNFSKN&#45;0.866045585295928*PAKNYTAXNINDKN&#45;2983275.63714814)/(1+2.46379868577176) $">
<polygon fill="#63b8ff" stroke="black" points="1821,-671.6 1670,-671.6 1670,-635.6 1821,-635.6 1821,-671.6"/>
<text text-anchor="start" x="1676.5" y="-649.4" font-family="Times New Roman,serif" font-size="14.00" fill="blue">PAKSMINDOTHRTKN:</text>
</a>
</g>
</g>
<!-- PAKNYWRTINFMCN -->
<g id="node4" class="node">
<title>PAKNYWRTINFMCN</title>
<g id="a_node4"><a xlink:title="Informal wage&#10;FRML &lt;Z,EXO&gt; PAKNYWRTINFMCN = (PAKNYWRTINFMCN(&#45;1)*EXP(&#45;PAKNYWRTINFMCN_A+ (&#45;0.122614247140616&#45;0.3*(LOG(PAKNYWRTINFMCN(&#45;1))&#45;LOG(PAKNYGDPFCSTXN(&#45;1))&#45;LOG(PAKNYGDPPOTLKN(&#45;1)/PAKLMEMPSTRLCN(&#45;1)))+0.2*((LOG(PAKNYWRTINFMCN(&#45;1)))&#45;(LOG(PAKNYWRTINFMCN(&#45;2))))+(1&#45;0.2)*(0.5*((LOG(PAKNYGDPFCSTXN(&#45;1)))&#45;(LOG(PAKNYGDPFCSTXN(&#45;2))))+0.5*(PAKINFLEXPT/100)+((LOG(PAKNYGDPMKTPKN/PAKLMEMPSTRLCN))&#45;(LOG(PAKNYGDPMKTPKN(&#45;1)/PAKLMEMPSTRLCN(&#45;1)))))&#45;0.2*(PAKLMUNRTOTLCN&#45;PAKLMUNRSTRLCN)/100+0.15347529018182*DURING_2000&#45;0.183372342445734*DURING_2001) )) * (1&#45;PAKNYWRTINFMCN_D)+ PAKNYWRTINFMCN_X*PAKNYWRTINFMCN_D &#160;$">
<polygon fill="#63b8ff" stroke="black" points="226,-836.6 0,-836.6 0,-800.6 226,-800.6 226,-836.6"/>
<text text-anchor="start" x="6" y="-814.4" font-family="Times New Roman,serif" font-size="14.00" fill="blue">PAKNYWRTINFMCN:Informal wage</text>
</a>
</g>
</g>
<!-- PAKNYWRTINFMCN&#45;&gt;PAKNYWRTTOTLCN -->
<g id="edge17" class="edge">
<title>PAKNYWRTINFMCN&#45;&gt;PAKNYWRTTOTLCN</title>
<g id="a_edge17"><a xlink:href="bogus" xlink:title=" PAKNYWRTINFMCN &#45;&gt; PAKNYWRTTOTLCN Min. att. 79% &#160;max: 80%">
<path fill="none" stroke="black" stroke-width="7.95" d="M226.12,-829.04C251.76,-831.43 278.84,-833.95 303.93,-836.28"/>
<polygon fill="black" stroke="black" stroke-width="7.95" points="303.58,-843.24 314.18,-837.24 304.87,-829.38 303.58,-843.24"/>
</a>
</g>
</g>
<!-- PAKSMINDMNGSKN -->
<g id="node5" class="node">
<title>PAKSMINDMNGSKN</title>
<g id="a_node5"><a xlink:title="PAKSMINDMNGSKN&#10;FRML &#160;&lt;&gt; PAKSMINDMNGSKN = ((1+6.96158341862144)*(0.0132800565666619*PAKNECONPRVTKN+0*PAKNECONGOVTKN+0*PAKNEGDIFTOTKN+0.00704674623894759*PAKNEEXPGNFSKN+0.024122890632682*PAKNEGDISTKBKN)&#45;0.134221966110302*PAKNEIMPGNFSKN&#45;0.500981557895139*PAKNYTAXNINDKN&#45;123652.869264758)/(1+0.200800622280983) $">
<polygon fill="#63b8ff" stroke="black" points="1818.5,-617.6 1672.5,-617.6 1672.5,-581.6 1818.5,-581.6 1818.5,-617.6"/>
<text text-anchor="start" x="1678.5" y="-595.4" font-family="Times New Roman,serif" font-size="14.00" fill="blue">PAKSMINDMNGSKN:</text>
</a>
</g>
</g>
<!-- PAKNYGDPGAP_ -->
<g id="node6" class="node">
<title>PAKNYGDPGAP_</title>
<g id="a_node6"><a xlink:title="Output Gap (% of Potential GDP)&#10;FRML &#160;&lt;&gt; PAKNYGDPGAP_ = ((PAKNYGDPMKTPKN/PAKNYGDPPOTLKN&#45;1)*100) $">
<polygon fill="#63b8ff" stroke="black" points="2292,-910.6 1983,-910.6 1983,-874.6 2292,-874.6 2292,-910.6"/>
<text text-anchor="start" x="1989.5" y="-888.4" font-family="Times New Roman,serif" font-size="14.00" fill="blue">PAKNYGDPGAP_:Output Gap (% of Potential GDP)</text>
</a>
</g>
</g>
<!-- PAKLMEMPTOTLCN -->
<g id="node11" class="node">
<title>PAKLMEMPTOTLCN</title>
<g id="a_node11"><a xlink:title="Employment&#10;FRML &lt;Z,EXO&gt; PAKLMEMPTOTLCN = (PAKLMEMPTOTLCN(&#45;1)*EXP(&#45;PAKLMEMPTOTLCN_A+ (&#45;0.345624644563667*(LOG(PAKLMEMPTOTLCN(&#45;1))&#45;LOG(PAKLMEMPSTRLCN(&#45;1)))&#45;0.1*(((LOG(PAKNYWRTTOTLCN/PAKNYGDPFCSTXN))&#45;(LOG(PAKNYWRTTOTLCN(&#45;1)/PAKNYGDPFCSTXN(&#45;1))))&#45;((LOG(PAKNYGDPPOTLKN/PAKLMEMPSTRLCN))&#45;(LOG(PAKNYGDPPOTLKN(&#45;1)/PAKLMEMPSTRLCN(&#45;1)))))&#45;0.0011790007645121+((LOG(PAKLMEMPSTRLCN))&#45;(LOG(PAKLMEMPSTRLCN(&#45;1))))+0.175412878170024*PAKNYGDPGAP_/100+0.0369790799942338*DURING_2010) )) * (1&#45;PAKLMEMPTOTLCN_D)+ PAKLMEMPTOTLCN_X*PAKLMEMPTOTLCN_D &#160;$">
<polygon fill="#63b8ff" stroke="black" points="837,-917.6 620,-917.6 620,-881.6 837,-881.6 837,-917.6"/>
<text text-anchor="start" x="626.5" y="-895.4" font-family="Times New Roman,serif" font-size="14.00" fill="blue">PAKLMEMPTOTLCN:Employment</text>
</a>
</g>
</g>
<!-- PAKNYGDPGAP_&#45;&gt;PAKLMEMPTOTLCN -->
<g id="edge23" class="edge">
<title>PAKNYGDPGAP_&#45;&gt;PAKLMEMPTOTLCN</title>
<g id="a_edge23"><a xlink:href="bogus" xlink:title=" PAKNYGDPGAP_ &#45;&gt; PAKLMEMPTOTLCN Min. att. &#45;362% &#160;max: 147%">
<path fill="none" stroke="black" stroke-width="8" d="M1982.92,-896.09C1970.77,-896.29 1958.68,-896.46 1947,-896.6 1543.63,-901.35 1065.05,-900.69 847.56,-900.04"/>
<polygon fill="black" stroke="black" stroke-width="8" points="847.43,-893.04 837.41,-900.01 847.38,-907.04 847.43,-893.04"/>
</a>
</g>
</g>
<!-- PAKFMLBLPOLYXN -->
<g id="node23" class="node">
<title>PAKFMLBLPOLYXN</title>
<g id="a_node23"><a xlink:title="Policy Rate&#10;FRML &lt;Z,EXO&gt; PAKFMLBLPOLYXN = (&#45;100*PAKFMLBLPOLYXN_A+100* (0.905129162122953*PAKFMLBLPOLYXN(&#45;1)/100+(1&#45;0.905129162122953)*(PAKMPPOLNATRXN/100+1.2*(((LOG(PAKNECONPRVTXN))&#45;(LOG(PAKNECONPRVTXN(&#45;1))))&#45;PAKINFLEXPT/100)+0.5*PAKNYGDPGAP_/100)) ) * (1&#45;PAKFMLBLPOLYXN_D)+ PAKFMLBLPOLYXN_X*PAKFMLBLPOLYXN_D &#160;$">
<polygon fill="#63b8ff" stroke="black" points="2533,-85.6 2328,-85.6 2328,-49.6 2533,-49.6 2533,-85.6"/>
<text text-anchor="start" x="2334.5" y="-63.4" font-family="Times New Roman,serif" font-size="14.00" fill="blue">PAKFMLBLPOLYXN:Policy Rate</text>
</a>
</g>
</g>
<!-- PAKNYGDPGAP_&#45;&gt;PAKFMLBLPOLYXN -->
<g id="edge1" class="edge">
<title>PAKNYGDPGAP_&#45;&gt;PAKFMLBLPOLYXN</title>
<g id="a_edge1"><a xlink:href="bogus" xlink:title=" PAKNYGDPGAP_ &#45;&gt; PAKFMLBLPOLYXN Min. att. &#45;15% &#160;max: 83%">
<path fill="none" stroke="black" stroke-width="8" d="M2144.99,-874.21C2182.75,-767.15 2374.17,-224.48 2419.75,-95.25"/>
<polygon fill="black" stroke="black" stroke-width="8" points="2426.4,-97.44 2423.12,-85.68 2413.2,-92.78 2426.4,-97.44"/>
</a>
</g>
</g>
<!-- PAKNYWRTTOTLCN&#45;&gt;PAKLMEMPTOTLCN -->
<g id="edge20" class="edge">
<title>PAKNYWRTTOTLCN&#45;&gt;PAKLMEMPTOTLCN</title>
<g id="a_edge20"><a xlink:href="bogus" xlink:title=" PAKNYWRTTOTLCN &#45;&gt; PAKLMEMPTOTLCN Min. att. &#45;1554% &#160;max: 236%">
<path fill="none" stroke="black" stroke-width="8" d="M495.56,-860.64C531.03,-866.6 572.31,-873.53 610.12,-879.89"/>
<polygon fill="black" stroke="black" stroke-width="8" points="609.14,-886.82 620.17,-881.57 611.46,-873.01 609.14,-886.82"/>
</a>
</g>
</g>
<!-- PAKNYYWBTOTLCN -->
<g id="node13" class="node">
<title>PAKNYYWBTOTLCN</title>
<g id="a_node13"><a xlink:title="Economy&#45;wide wage bill&#10;FRML &#160;&lt;&gt; PAKNYYWBTOTLCN = PAKNYWRTTOTLCN*PAKLMEMPTOTLCN $">
<polygon fill="#63b8ff" stroke="black" points="1194,-863.6 909,-863.6 909,-827.6 1194,-827.6 1194,-863.6"/>
<text text-anchor="start" x="915.5" y="-841.4" font-family="Times New Roman,serif" font-size="14.00" fill="blue">PAKNYYWBTOTLCN:Economy&#45;wide wage bill</text>
</a>
</g>
</g>
<!-- PAKNYWRTTOTLCN&#45;&gt;PAKNYYWBTOTLCN -->
<g id="edge22" class="edge">
<title>PAKNYWRTTOTLCN&#45;&gt;PAKNYYWBTOTLCN</title>
<g id="a_edge22"><a xlink:href="bogus" xlink:title=" PAKNYWRTTOTLCN &#45;&gt; PAKNYYWBTOTLCN Min. att. 16% &#160;max: 106%">
<path fill="none" stroke="black" stroke-width="8" d="M495.61,-845.6C599.84,-845.6 773.59,-845.6 898.93,-845.6"/>
<polygon fill="black" stroke="black" stroke-width="8" points="899,-852.6 909,-845.6 899,-838.6 899,-852.6"/>
</a>
</g>
</g>
<!-- PAKNYGDPMKTPKN -->
<g id="node8" class="node">
<title>PAKNYGDPMKTPKN</title>
<g id="a_node8"><a xlink:title="GDP Expenditure side at market prices&#10;FRML &#160;&lt;&gt; PAKNYGDPMKTPKN = PAKNECONPRVTKN+PAKNECONGOVTKN+PAKNEGDIFTOTKN+PAKNEGDISTKBKN+PAKNEEXPGNFSKN&#45;PAKNEIMPGNFSKN+PAKNYGDPDISCKN+PAKADAP*PAKDISPREPKN $">
<polygon fill="#63b8ff" stroke="black" points="1926,-887.6 1565,-887.6 1565,-851.6 1926,-851.6 1926,-887.6"/>
<text text-anchor="start" x="1571.5" y="-865.4" font-family="Times New Roman,serif" font-size="14.00" fill="blue">PAKNYGDPMKTPKN:GDP Expenditure side at market prices</text>
</a>
</g>
</g>
<!-- PAKNYGDPMKTPKN&#45;&gt;PAKNYGDPGAP_ -->
<g id="edge14" class="edge">
<title>PAKNYGDPMKTPKN&#45;&gt;PAKNYGDPGAP_</title>
<g id="a_edge14"><a xlink:href="bogus" xlink:title=" PAKNYGDPMKTPKN &#45;&gt; PAKNYGDPGAP_ Min. att. &#45;78553% &#160;max: 128142%">
<path fill="none" stroke="black" stroke-width="8" d="M1926.09,-880.19C1941.67,-881.11 1957.38,-882.04 1972.82,-882.95"/>
<polygon fill="black" stroke="black" stroke-width="8" points="1972.53,-889.94 1982.93,-883.54 1973.36,-875.97 1972.53,-889.94"/>
</a>
</g>
</g>
<!-- PAKNECONENGYKN -->
<g id="node9" class="node">
<title>PAKNECONENGYKN</title>
<g id="a_node9"><a xlink:title="Energy Consumption&#10;FRML &#160;&lt;&gt; PAKNECONENGYKN = PAKNECONENGYSH**(PAKCESENGYCON)*(PAKNECONPRVTKN*(PAKNECONPRVTXN/PAKNECONENGYXN)**(PAKCESENGYCON)) $">
<polygon fill="#63b8ff" stroke="black" points="1876.5,-563.6 1614.5,-563.6 1614.5,-527.6 1876.5,-527.6 1876.5,-563.6"/>
<text text-anchor="start" x="1620.5" y="-541.4" font-family="Times New Roman,serif" font-size="14.00" fill="blue">PAKNECONENGYKN:Energy Consumption</text>
</a>
</g>
</g>
<!-- PAKSMAGRFSNGKN -->
<g id="node10" class="node">
<title>PAKSMAGRFSNGKN</title>
<g id="a_node10"><a xlink:title="PAKSMAGRFSNGKN&#10;FRML &#160;&lt;&gt; PAKSMAGRFSNGKN = ((1+1.92407325889309)*(0.00246195499563977*PAKNECONPRVTKN+0*PAKNECONGOVTKN+0*PAKNEGDIFTOTKN+0.00130433854799597*PAKNEEXPGNFSKN+0.00497657560072267*PAKNEGDISTKBKN)&#45;1.14989260682794E&#45;05*PAKNEIMPGNFSKN&#45;2.46467171367829E&#45;07*PAKNYTAXNINDKN&#45;26993)/(1+0.506095544048804) $">
<polygon fill="#63b8ff" stroke="black" points="1818,-509.6 1673,-509.6 1673,-473.6 1818,-473.6 1818,-509.6"/>
<text text-anchor="start" x="1679.5" y="-487.4" font-family="Times New Roman,serif" font-size="14.00" fill="blue">PAKSMAGRFSNGKN:</text>
</a>
</g>
</g>
<!-- PAKLMEMPTOTLCN&#45;&gt;PAKNYYWBTOTLCN -->
<g id="edge15" class="edge">
<title>PAKLMEMPTOTLCN&#45;&gt;PAKNYYWBTOTLCN</title>
<g id="a_edge15"><a xlink:href="bogus" xlink:title=" PAKLMEMPTOTLCN &#45;&gt; PAKNYYWBTOTLCN Min. att. &#45;6% &#160;max: 84%">
<path fill="none" stroke="black" stroke-width="8" d="M836.83,-881.54C867.75,-876.34 901.64,-870.64 933.13,-865.34"/>
<polygon fill="black" stroke="black" stroke-width="8" points="934.57,-872.2 943.27,-863.64 932.24,-858.4 934.57,-872.2"/>
</a>
</g>
</g>
<!-- PAKSMAGRFSTYKN -->
<g id="node12" class="node">
<title>PAKSMAGRFSTYKN</title>
<g id="a_node12"><a xlink:title="PAKSMAGRFSTYKN&#10;FRML &#160;&lt;&gt; PAKSMAGRFSTYKN = ((1+0.195965019358753)*(0.010131919293849*PAKNECONPRVTKN+0*PAKNECONGOVTKN+0*PAKNEGDIFTOTKN+0.000136733767007103*PAKNEEXPGNFSKN+0.0199955288980741*PAKNEGDISTKBKN)&#45;0.00076829563200478*PAKNEIMPGNFSKN&#45;0.00172030587371022*PAKNYTAXNINDKN&#45;65421)/(1+0.319587584852584) $">
<polygon fill="#63b8ff" stroke="black" points="1817.5,-455.6 1673.5,-455.6 1673.5,-419.6 1817.5,-419.6 1817.5,-455.6"/>
<text text-anchor="start" x="1679.5" y="-433.4" font-family="Times New Roman,serif" font-size="14.00" fill="blue">PAKSMAGRFSTYKN:</text>
</a>
</g>
</g>
<!-- PAKNECONPRVTKN -->
<g id="node29" class="node">
<title>PAKNECONPRVTKN</title>
<g id="a_node29"><a xlink:title="Household Consumption&#10;FRML &lt;Z,EXO&gt; PAKNECONPRVTKN = (PAKNECONPRVTKN(&#45;1)*EXP(&#45;PAKNECONPRVTKN_A+ (&#45;0.2*(LOG(PAKNECONPRVTKN(&#45;1))&#45;LOG((PAKNYYWBTOTLCN(&#45;1)*(1&#45;PAKGGREVDRCTXN(&#45;1)/100))/PAKNECONPRVTXN(&#45;1)))+1*((LOG((PAKNYYWBTOTLCN*(1&#45;PAKGGREVDRCTXN/100))/PAKNECONPRVTXN))&#45;(LOG((PAKNYYWBTOTLCN(&#45;1)*(1&#45;PAKGGREVDRCTXN(&#45;1)/100))/PAKNECONPRVTXN(&#45;1))))+0.0303228629698929+0.0163839011059956*DURING_2010&#45;0.3*(PAKFMLBLPOLYXN/100&#45;((LOG(PAKNECONPRVTXN))&#45;(LOG(PAKNECONPRVTXN(&#45;1)))))) )) * (1&#45;PAKNECONPRVTKN_D)+ PAKNECONPRVTKN_X*PAKNECONPRVTKN_D &#160;$">
<polygon fill="red" stroke="black" points="1508,-482.6 1230,-482.6 1230,-446.6 1508,-446.6 1508,-482.6"/>
<text text-anchor="start" x="1236" y="-460.4" font-family="Times New Roman,serif" font-size="14.00" fill="blue">PAKNECONPRVTKN:Household Consumption</text>
</a>
</g>
</g>
<!-- PAKNYYWBTOTLCN&#45;&gt;PAKNECONPRVTKN -->
<g id="edge16" class="edge">
<title>PAKNYYWBTOTLCN&#45;&gt;PAKNECONPRVTKN</title>
<g id="a_edge16"><a xlink:href="bogus" xlink:title=" PAKNYYWBTOTLCN &#45;&gt; PAKNECONPRVTKN Min. att. &#45;594% &#160;max: 5821%">
<path fill="none" stroke="black" stroke-width="8" d="M1067.5,-827.48C1118.68,-765.68 1286.5,-563.02 1346.46,-490.61"/>
<polygon fill="black" stroke="black" stroke-width="8" points="1351.92,-495 1352.9,-482.83 1341.13,-486.07 1351.92,-495"/>
</a>
</g>
</g>
<!-- PAKNECONPRVTXN -->
<g id="node15" class="node">
<title>PAKNECONPRVTXN</title>
<g id="a_node15"><a xlink:title="Household demand&#10;FRML &#160;&lt;&gt; PAKNECONPRVTXN = ((PAKNECONENGYSH**PAKCESENGYCON)*PAKNECONENGYXN**(1&#45;PAKCESENGYCON)+(PAKNECONOTHRSH**PAKCESENGYCON)*PAKNECONOTHRXN**(1&#45;PAKCESENGYCON))**(1/(1&#45;PAKCESENGYCON)) $">
<polygon fill="#63b8ff" stroke="black" points="1175.5,-265.6 927.5,-265.6 927.5,-229.6 1175.5,-229.6 1175.5,-265.6"/>
<text text-anchor="start" x="933.5" y="-243.4" font-family="Times New Roman,serif" font-size="14.00" fill="blue">PAKNECONPRVTXN:Household demand</text>
</a>
</g>
</g>
<!-- PAKNECONENGYXN&#45;&gt;PAKNECONPRVTXN -->
<g id="edge32" class="edge">
<title>PAKNECONENGYXN&#45;&gt;PAKNECONPRVTXN</title>
<g id="a_edge32"><a xlink:href="bogus" xlink:title=" PAKNECONENGYXN &#45;&gt; PAKNECONPRVTXN Min. att. 1% &#160;max: 29%">
<path fill="none" stroke="black" stroke-width="2.91" d="M859.6,-263.66C878.6,-262.06 898.2,-260.41 917.26,-258.81"/>
<polygon fill="black" stroke="black" stroke-width="2.91" points="917.81,-262.27 927.48,-257.95 917.23,-255.3 917.81,-262.27"/>
</a>
</g>
</g>
<!-- PAKNECONPRVTXN&#45;&gt;PAKFMLBLPOLYXN -->
<g id="edge13" class="edge">
<title>PAKNECONPRVTXN&#45;&gt;PAKFMLBLPOLYXN</title>
<g id="a_edge13"><a xlink:href="bogus" xlink:title=" PAKNECONPRVTXN &#45;&gt; PAKFMLBLPOLYXN Min. att. &#45;94% &#160;max: 1462%">
<path fill="none" stroke="black" stroke-width="8" d="M1085.14,-229.57C1162.14,-188.2 1362.31,-87.33 1544,-52.6 1817.98,-0.24 2148.35,-29.62 2317.58,-51.19"/>
<polygon fill="black" stroke="black" stroke-width="8" points="2316.94,-58.16 2327.75,-52.5 2318.73,-44.28 2316.94,-58.16"/>
</a>
</g>
</g>
<!-- PAKNECONPRVTXN&#45;&gt;PAKNECONPRVTKN -->
<g id="edge6" class="edge">
<title>PAKNECONPRVTXN&#45;&gt;PAKNECONPRVTKN</title>
<g id="a_edge6"><a xlink:href="bogus" xlink:title=" PAKNECONPRVTXN &#45;&gt; PAKNECONPRVTKN Min. att. &#45;5706% &#160;max: 593%">
<path fill="none" stroke="black" stroke-width="8" d="M1078.86,-265.73C1135.58,-304.74 1269.23,-396.67 1332.98,-440.51"/>
<polygon fill="black" stroke="black" stroke-width="8" points="1329.29,-446.47 1341.5,-446.37 1337.22,-434.94 1329.29,-446.47"/>
</a>
</g>
</g>
<!-- PAKNYGDPPOTLKN -->
<g id="node16" class="node">
<title>PAKNYGDPPOTLKN</title>
<g id="a_node16"><a xlink:title="Potential GDP&#10;FRML &#160;&lt;&gt; PAKNYGDPPOTLKN = PAKNYGDPTFP*(PAKLMEMPSTRLCN**PAKNYYWBTOTLCN_)*(PAKNEGDIKSTKKN(&#45;1)**(1&#45;PAKNYYWBTOTLCN_)) $">
<polygon fill="#63b8ff" stroke="black" points="515.5,-971.6 294.5,-971.6 294.5,-935.6 515.5,-935.6 515.5,-971.6"/>
<text text-anchor="start" x="301" y="-949.4" font-family="Times New Roman,serif" font-size="14.00" fill="blue">PAKNYGDPPOTLKN:Potential GDP</text>
</a>
</g>
</g>
<!-- PAKNYGDPPOTLKN&#45;&gt;PAKNYGDPGAP_ -->
<g id="edge19" class="edge">
<title>PAKNYGDPPOTLKN&#45;&gt;PAKNYGDPGAP_</title>
<g id="a_edge19"><a xlink:href="bogus" xlink:title=" PAKNYGDPPOTLKN &#45;&gt; PAKNYGDPGAP_ Min. att. &#45;129220% &#160;max: 79383%">
<path fill="none" stroke="black" stroke-width="8" d="M515.76,-953.6C644.03,-953.6 862.66,-953.6 1050.5,-953.6 1050.5,-953.6 1050.5,-953.6 1370,-953.6 1584.06,-953.6 1830.7,-929.67 1985.11,-911.78"/>
<polygon fill="black" stroke="black" stroke-width="8" points="1986.02,-918.72 1995.14,-910.61 1984.4,-904.82 1986.02,-918.72"/>
</a>
</g>
</g>
<!-- PAKNYGDPPOTLKN&#45;&gt;PAKLMEMPTOTLCN -->
<g id="edge34" class="edge">
<title>PAKNYGDPPOTLKN&#45;&gt;PAKLMEMPTOTLCN</title>
<g id="a_edge34"><a xlink:href="bogus" xlink:title=" PAKNYGDPPOTLKN &#45;&gt; PAKLMEMPTOTLCN Min. att. &#45;92% &#160;max: 605%">
<path fill="none" stroke="black" stroke-width="8" d="M513.5,-935.54C544.47,-930.34 578.41,-924.64 609.95,-919.34"/>
<polygon fill="black" stroke="black" stroke-width="8" points="611.4,-926.2 620.1,-917.64 609.08,-912.39 611.4,-926.2"/>
</a>
</g>
</g>
<!-- PAKSMENGTOTLKN -->
<g id="node17" class="node">
<title>PAKSMENGTOTLKN</title>
<g id="a_node17"><a xlink:title="PAKSMENGTOTLKN&#10;FRML &#160;&lt;&gt; PAKSMENGTOTLKN = ((1+1.65868473220397)*(0.0775261497897936*PAKNECONPRVTKN+0*PAKNECONGOVTKN+0*PAKNEGDIFTOTKN+0.0217448978257548*PAKNEEXPGNFSKN+0.0458991644104248*PAKNEGDISTKBKN)&#45;0.11894699850705*PAKNEIMPGNFSKN&#45;&#45;0.50579180838529*PAKNYTAXNINDKN&#45;0)/(1+5.65663938581514) $">
<polygon fill="#63b8ff" stroke="black" points="1818,-401.6 1673,-401.6 1673,-365.6 1818,-365.6 1818,-401.6"/>
<text text-anchor="start" x="1679.5" y="-379.4" font-family="Times New Roman,serif" font-size="14.00" fill="blue">PAKSMENGTOTLKN:</text>
</a>
</g>
</g>
<!-- PAKNECONOTHRXN -->
<g id="node18" class="node">
<title>PAKNECONOTHRXN</title>
<g id="a_node18"><a xlink:title="Non&#45;Energy Consumption&#10;FRML &lt;Z,EXO&gt; PAKNECONOTHRXN = (PAKNECONOTHRXN(&#45;1)*EXP(&#45;PAKNECONOTHRXN_A+ (0.598859116610832*((LOG(PAKNYGDPFCSTXN))&#45;(LOG(PAKNYGDPFCSTXN(&#45;1))))+((PAKGGREVGNFSXN/100)&#45;(PAKGGREVGNFSXN(&#45;1)/100))+(1&#45;0.598859116610832)*((LOG(PAKNEIMPGNFSXN))&#45;(LOG(PAKNEIMPGNFSXN(&#45;1))))+0.2*PAKNYGDPGAP_/100) )) * (1&#45;PAKNECONOTHRXN_D)+ PAKNECONOTHRXN_X*PAKNECONOTHRXN_D &#160;$">
<polygon fill="#63b8ff" stroke="black" points="873,-238.6 584,-238.6 584,-202.6 873,-202.6 873,-238.6"/>
<text text-anchor="start" x="590.5" y="-216.4" font-family="Times New Roman,serif" font-size="14.00" fill="blue">PAKNECONOTHRXN:Non&#45;Energy Consumption</text>
</a>
</g>
</g>
<!-- PAKNECONOTHRXN&#45;&gt;PAKNECONPRVTXN -->
<g id="edge5" class="edge">
<title>PAKNECONOTHRXN&#45;&gt;PAKNECONPRVTXN</title>
<g id="a_edge5"><a xlink:href="bogus" xlink:title=" PAKNECONOTHRXN &#45;&gt; PAKNECONPRVTXN Min. att. 71% &#160;max: 99%">
<path fill="none" stroke="black" stroke-width="8" d="M873.1,-232.68C887.75,-233.91 902.59,-235.16 917.12,-236.38"/>
<polygon fill="black" stroke="black" stroke-width="8" points="916.57,-243.36 927.12,-237.22 917.75,-229.41 916.57,-243.36"/>
</a>
</g>
</g>
<!-- PAKNECONPRVTCN -->
<g id="node19" class="node">
<title>PAKNECONPRVTCN</title>
<g id="a_node19"><a xlink:title="Household demand&#10;FRML &#160;&lt;&gt; PAKNECONPRVTCN = PAKNECONPRVTKN*PAKNECONPRVTXN $">
<polygon fill="#63b8ff" stroke="black" points="1869,-347.6 1622,-347.6 1622,-311.6 1869,-311.6 1869,-347.6"/>
<text text-anchor="start" x="1628.5" y="-325.4" font-family="Times New Roman,serif" font-size="14.00" fill="blue">PAKNECONPRVTCN:Household demand</text>
</a>
</g>
</g>
<!-- PAKNEGDETTOTKN -->
<g id="node20" class="node">
<title>PAKNEGDETTOTKN</title>
<g id="a_node20"><a xlink:title="GDE&#10;FRML &#160;&lt;&gt; PAKNEGDETTOTKN = (PAKNECONPRVTKN+PAKNECONGOVTKN+PAKNEGDIFTOTKN+PAKNEGDISTKBKN+PAKNYGDPDISCKN) $">
<polygon fill="#63b8ff" stroke="black" points="1830.5,-293.6 1660.5,-293.6 1660.5,-257.6 1830.5,-257.6 1830.5,-293.6"/>
<text text-anchor="start" x="1666.5" y="-271.4" font-family="Times New Roman,serif" font-size="14.00" fill="blue">PAKNEGDETTOTKN:GDE</text>
</a>
</g>
</g>
<!-- PAKNYGDPFCSTXN -->
<g id="node21" class="node">
<title>PAKNYGDPFCSTXN</title>
<g id="a_node21"><a xlink:title="GDP at factor cost&#10;FRML &lt;Z,EXO&gt; PAKNYGDPFCSTXN = (PAKNYGDPFCSTXN(&#45;1)*EXP(&#45;PAKNYGDPFCSTXN_A+ (0.6*((LOG(PAKNYGDPFCSTXN(&#45;1)))&#45;(LOG(PAKNYGDPFCSTXN(&#45;2))))+(1&#45;0.6)*(0.7*PAKINFLEXPT/100+(1&#45;0.7)*((LOG(PAKPSTAR(&#45;1)))&#45;(LOG(PAKPSTAR(&#45;2)))))+0.25*PAKNYGDPGAP_/100+0.262461811660072*DURING_2000&#45;0.205776950553378*DURING_2001) )) * (1&#45;PAKNYGDPFCSTXN_D)+ PAKNYGDPFCSTXN_X*PAKNYGDPFCSTXN_D &#160;$">
<polygon fill="#63b8ff" stroke="black" points="526,-917.6 284,-917.6 284,-881.6 526,-881.6 526,-917.6"/>
<text text-anchor="start" x="290" y="-895.4" font-family="Times New Roman,serif" font-size="14.00" fill="blue">PAKNYGDPFCSTXN:GDP at factor cost</text>
</a>
</g>
</g>
<!-- PAKNYGDPFCSTXN&#45;&gt;PAKLMEMPTOTLCN -->
<g id="edge2" class="edge">
<title>PAKNYGDPFCSTXN&#45;&gt;PAKLMEMPTOTLCN</title>
<g id="a_edge2"><a xlink:href="bogus" xlink:title=" PAKNYGDPFCSTXN &#45;&gt; PAKLMEMPTOTLCN Min. att. &#45;128% &#160;max: 59%">
<path fill="none" stroke="black" stroke-width="8" d="M526.17,-899.6C553.45,-899.6 582.4,-899.6 609.59,-899.6"/>
<polygon fill="black" stroke="black" stroke-width="8" points="609.91,-906.6 619.91,-899.6 609.91,-892.6 609.91,-906.6"/>
</a>
</g>
</g>
<!-- PAKNECONOTHRKN -->
<g id="node22" class="node">
<title>PAKNECONOTHRKN</title>
<g id="a_node22"><a xlink:title="Other Consumption&#10;FRML &#160;&lt;&gt; PAKNECONOTHRKN = PAKNECONOTHRSH**(PAKCESENGYCON)*(PAKNECONPRVTKN*(PAKNECONPRVTXN/PAKNECONOTHRXN)**(PAKCESENGYCON)) $">
<polygon fill="#63b8ff" stroke="black" points="1872,-239.6 1619,-239.6 1619,-203.6 1872,-203.6 1872,-239.6"/>
<text text-anchor="start" x="1625.5" y="-217.4" font-family="Times New Roman,serif" font-size="14.00" fill="blue">PAKNECONOTHRKN:Other Consumption</text>
</a>
</g>
</g>
<!-- PAKFMLBLPOLYXN&#45;&gt;PAKNECONPRVTKN -->
<g id="edge31" class="edge">
<title>PAKFMLBLPOLYXN&#45;&gt;PAKNECONPRVTKN</title>
<g id="a_edge31"><a xlink:href="bogus" xlink:title=" PAKFMLBLPOLYXN &#45;&gt; PAKNECONPRVTKN Min. att. &#45;160% &#160;max: 20%">
<path fill="none" stroke="black" stroke-width="8" d="M2327.69,-63.8C2108.82,-56.47 1608.05,-44.6 1544,-86.6 1419.59,-168.18 1382.74,-363.11 1373.09,-436.24"/>
<polygon fill="black" stroke="black" stroke-width="8" points="1366.1,-435.72 1371.81,-446.51 1379.99,-437.45 1366.1,-435.72"/>
</a>
</g>
</g>
<!-- PAKSMSRVFINSKN -->
<g id="node24" class="node">
<title>PAKSMSRVFINSKN</title>
<g id="a_node24"><a xlink:title="PAKSMSRVFINSKN&#10;FRML &#160;&lt;&gt; PAKSMSRVFINSKN = ((1+1.04148314760779)*(0.0520379651885469*PAKNECONPRVTKN+0*PAKNECONGOVTKN+0*PAKNEGDIFTOTKN+0.00879145012359898*PAKNEEXPGNFSKN+0*PAKNEGDISTKBKN)&#45;0.00594416979264236*PAKNEIMPGNFSKN&#45;0.000103762679145856*PAKNYTAXNINDKN&#45;0)/(1+0.24687745523084) $">
<polygon fill="#63b8ff" stroke="black" points="1814,-185.6 1677,-185.6 1677,-149.6 1814,-149.6 1814,-185.6"/>
<text text-anchor="start" x="1683.5" y="-163.4" font-family="Times New Roman,serif" font-size="14.00" fill="blue">PAKSMSRVFINSKN:</text>
</a>
</g>
</g>
<!-- PAKNECONPRVTKN_FITTED -->
<g id="node25" class="node">
<title>PAKNECONPRVTKN_FITTED</title>
<g id="a_node25"><a xlink:title="Fitted &#160;value:Household Consumption&#10;FRML &lt;FIT&gt; PAKNECONPRVTKN_FITTED = PAKNECONPRVTKN(&#45;1)*EXP( (&#45;0.2*(LOG(PAKNECONPRVTKN(&#45;1))&#45;LOG((PAKNYYWBTOTLCN(&#45;1)*(1&#45;PAKGGREVDRCTXN(&#45;1)/100))/PAKNECONPRVTXN(&#45;1)))+1*((LOG((PAKNYYWBTOTLCN*(1&#45;PAKGGREVDRCTXN/100))/PAKNECONPRVTXN))&#45;(LOG((PAKNYYWBTOTLCN(&#45;1)*(1&#45;PAKGGREVDRCTXN(&#45;1)/100))/PAKNECONPRVTXN(&#45;1))))+0.0303228629698929+0.0163839011059956*DURING_2010&#45;0.3*(PAKFMLBLPOLYXN/100&#45;((LOG(PAKNECONPRVTXN))&#45;(LOG(PAKNECONPRVTXN(&#45;1)))))) ) $">
<polygon fill="#63b8ff" stroke="black" points="1947,-131.6 1544,-131.6 1544,-95.6 1947,-95.6 1947,-131.6"/>
<text text-anchor="start" x="1550.5" y="-109.4" font-family="Times New Roman,serif" font-size="14.00" fill="blue">PAKNECONPRVTKN_FITTED:Fitted &#160;value:Household Consumption</text>
</a>
</g>
</g>
<!-- PAKSMAGRCRPSKN -->
<g id="node26" class="node">
<title>PAKSMAGRCRPSKN</title>
<g id="a_node26"><a xlink:title="PAKSMAGRCRPSKN&#10;FRML &#160;&lt;&gt; PAKSMAGRCRPSKN = ((1+2.09928590574241)*(0.144287620838506*PAKNECONPRVTKN+0*PAKNECONGOVTKN+0*PAKNEGDIFTOTKN+0.0572678299039023*PAKNEEXPGNFSKN+0.267381669083985*PAKNEGDISTKBKN)&#45;0.0736247088197363*PAKNEIMPGNFSKN&#45;0.0407034395686347*PAKNYTAXNINDKN&#45;906311)/(1+0.396041694659877) $">
<polygon fill="#63b8ff" stroke="black" points="1817.5,-833.6 1673.5,-833.6 1673.5,-797.6 1817.5,-797.6 1817.5,-833.6"/>
<text text-anchor="start" x="1679.5" y="-811.4" font-family="Times New Roman,serif" font-size="14.00" fill="blue">PAKSMAGRCRPSKN:</text>
</a>
</g>
</g>
<!-- PAKSMSRVHSNGKN -->
<g id="node27" class="node">
<title>PAKSMSRVHSNGKN</title>
<g id="a_node27"><a xlink:title="PAKSMSRVHSNGKN&#10;FRML &#160;&lt;&gt; PAKSMSRVHSNGKN = ((1+0.782809577554843)*(0.0647364660896117*PAKNECONPRVTKN+0*PAKNECONGOVTKN+0.00605333595533851*PAKNEGDIFTOTKN+0.03048358523237*PAKNEEXPGNFSKN+0*PAKNEGDISTKBKN)&#45;0.0244768173208691*PAKNEIMPGNFSKN&#45;0.0684093628903126*PAKNYTAXNINDKN&#45;0)/(1+0.150771193398883) $">
<polygon fill="#63b8ff" stroke="black" points="1818,-779.6 1673,-779.6 1673,-743.6 1818,-743.6 1818,-779.6"/>
<text text-anchor="start" x="1679.5" y="-757.4" font-family="Times New Roman,serif" font-size="14.00" fill="blue">PAKSMSRVHSNGKN:</text>
</a>
</g>
</g>
<!-- PAKNEIMPGNFSXN -->
<g id="node28" class="node">
<title>PAKNEIMPGNFSXN</title>
<g id="a_node28"><a xlink:title="Imports (G&amp;S)&#10;FRML &#160;&lt;&gt; PAKNEIMPGNFSXN = ((PAKNEIMPENGYSH**PAKCESENGYIMPT)*PAKNVENGNIMPXN**(1&#45;PAKCESENGYIMPT)+(PAKNEIMPOTHRSH**PAKCESENGYIMPT)*PAKNEIMPGSNEXN**(1&#45;PAKCESENGYIMPT))**(1/(1&#45;PAKCESENGYIMPT)) $">
<polygon fill="#63b8ff" stroke="black" points="516.5,-238.6 293.5,-238.6 293.5,-202.6 516.5,-202.6 516.5,-238.6"/>
<text text-anchor="start" x="300" y="-216.4" font-family="Times New Roman,serif" font-size="14.00" fill="blue">PAKNEIMPGNFSXN:Imports (G&amp;S)</text>
</a>
</g>
</g>
<!-- PAKNEIMPGNFSXN&#45;&gt;PAKNECONOTHRXN -->
<g id="edge21" class="edge">
<title>PAKNEIMPGNFSXN&#45;&gt;PAKNECONOTHRXN</title>
<g id="a_edge21"><a xlink:href="bogus" xlink:title=" PAKNEIMPGNFSXN &#45;&gt; PAKNECONOTHRXN Min. att. &#45;10% &#160;max: 114%">
<path fill="none" stroke="black" stroke-width="8" d="M516.64,-220.6C535.05,-220.6 554.43,-220.6 573.68,-220.6"/>
<polygon fill="black" stroke="black" stroke-width="8" points="573.72,-227.6 583.72,-220.6 573.72,-213.6 573.72,-227.6"/>
</a>
</g>
</g>
<!-- PAKNECONPRVTKN&#45;&gt;PAKSMINDOTHRTKN -->
<g id="edge33" class="edge">
<title>PAKNECONPRVTKN&#45;&gt;PAKSMINDOTHRTKN</title>
<g id="a_edge33"><a xlink:href="bogus" xlink:title=" PAKNECONPRVTKN &#45;&gt; PAKSMINDOTHRTKN Min. att. &#45;11779% &#160;max: 971%">
<path fill="none" stroke="black" stroke-width="8" d="M1383.14,-482.75C1409.34,-517.37 1471.8,-592.45 1544,-626.6 1579.55,-643.42 1622.36,-650.69 1659.28,-653.55"/>
<polygon fill="black" stroke="black" stroke-width="8" points="1659.07,-660.55 1669.52,-654.24 1660.02,-646.58 1659.07,-660.55"/>
</a>
</g>
</g>
<!-- PAKNECONPRVTKN&#45;&gt;PAKSMINDMNGSKN -->
<g id="edge12" class="edge">
<title>PAKNECONPRVTKN&#45;&gt;PAKSMINDMNGSKN</title>
<g id="a_edge12"><a xlink:href="bogus" xlink:title=" PAKNECONPRVTKN &#45;&gt; PAKSMINDMNGSKN Min. att. &#45;1229% &#160;max: 1716%">
<path fill="none" stroke="black" stroke-width="8" d="M1392.03,-482.61C1423.58,-507.36 1484.44,-551.22 1544,-572.6 1581.47,-586.05 1625.06,-592.89 1662.01,-596.32"/>
<polygon fill="black" stroke="black" stroke-width="8" points="1661.68,-603.32 1672.25,-597.21 1662.89,-589.37 1661.68,-603.32"/>
</a>
</g>
</g>
<!-- PAKNECONPRVTKN&#45;&gt;PAKNYGDPMKTPKN -->
<g id="edge10" class="edge">
<title>PAKNECONPRVTKN&#45;&gt;PAKNYGDPMKTPKN</title>
<g id="a_edge10"><a xlink:href="bogus" xlink:title=" PAKNECONPRVTKN &#45;&gt; PAKNYGDPMKTPKN Min. att. &#45;1557% &#160;max: 290%">
<path fill="none" stroke="black" stroke-width="8" d="M1372.23,-482.61C1380.92,-544.51 1418.52,-749.83 1544,-842.6 1547.76,-845.38 1551.66,-847.94 1555.69,-850.3"/>
<polygon fill="black" stroke="black" stroke-width="8" points="1552.58,-856.57 1564.71,-855.15 1559.22,-844.25 1552.58,-856.57"/>
</a>
</g>
</g>
<!-- PAKNECONPRVTKN&#45;&gt;PAKNECONENGYKN -->
<g id="edge29" class="edge">
<title>PAKNECONPRVTKN&#45;&gt;PAKNECONENGYKN</title>
<g id="a_edge29"><a xlink:href="bogus" xlink:title=" PAKNECONPRVTKN &#45;&gt; PAKNECONENGYKN Min. att. &#45;699% &#160;max: 3890%">
<path fill="none" stroke="black" stroke-width="8" d="M1420.41,-482.7C1454.83,-494.45 1501.69,-509.25 1544,-518.6 1563.38,-522.88 1583.97,-526.59 1604.3,-529.76"/>
<polygon fill="black" stroke="black" stroke-width="8" points="1603.31,-536.69 1614.25,-531.28 1605.42,-522.85 1603.31,-536.69"/>
</a>
</g>
</g>
<!-- PAKNECONPRVTKN&#45;&gt;PAKSMAGRFSNGKN -->
<g id="edge3" class="edge">
<title>PAKNECONPRVTKN&#45;&gt;PAKSMAGRFSNGKN</title>
<g id="a_edge3"><a xlink:href="bogus" xlink:title=" PAKNECONPRVTKN &#45;&gt; PAKSMAGRFSNGKN Min. att. &#45;29% &#160;max: 170%">
<path fill="none" stroke="black" stroke-width="8" d="M1508.12,-474.56C1560.16,-478.31 1617.64,-482.45 1662.89,-485.72"/>
<polygon fill="black" stroke="black" stroke-width="8" points="1662.46,-492.7 1672.94,-486.44 1663.47,-478.74 1662.46,-492.7"/>
</a>
</g>
</g>
<!-- PAKNECONPRVTKN&#45;&gt;PAKSMAGRFSTYKN -->
<g id="edge11" class="edge">
<title>PAKNECONPRVTKN&#45;&gt;PAKSMAGRFSTYKN</title>
<g id="a_edge11"><a xlink:href="bogus" xlink:title=" PAKNECONPRVTKN &#45;&gt; PAKSMAGRFSTYKN Min. att. 96% &#160;max: 371%">
<path fill="none" stroke="black" stroke-width="8" d="M1508.12,-454.64C1560.35,-450.88 1618.07,-446.72 1663.39,-443.45"/>
<polygon fill="black" stroke="black" stroke-width="8" points="1663.99,-450.42 1673.46,-442.72 1662.98,-436.46 1663.99,-450.42"/>
</a>
</g>
</g>
<!-- PAKNECONPRVTKN&#45;&gt;PAKSMENGTOTLKN -->
<g id="edge9" class="edge">
<title>PAKNECONPRVTKN&#45;&gt;PAKSMENGTOTLKN</title>
<g id="a_edge9"><a xlink:href="bogus" xlink:title=" PAKNECONPRVTKN &#45;&gt; PAKSMENGTOTLKN Min. att. &#45;14% &#160;max: 2186%">
<path fill="none" stroke="black" stroke-width="8" d="M1420.41,-446.5C1454.83,-434.75 1501.69,-419.95 1544,-410.6 1582.56,-402.08 1625.92,-395.84 1662.43,-391.52"/>
<polygon fill="black" stroke="black" stroke-width="8" points="1663.41,-398.45 1672.54,-390.35 1661.8,-384.54 1663.41,-398.45"/>
</a>
</g>
</g>
<!-- PAKNECONPRVTKN&#45;&gt;PAKNECONPRVTCN -->
<g id="edge25" class="edge">
<title>PAKNECONPRVTKN&#45;&gt;PAKNECONPRVTCN</title>
<g id="a_edge25"><a xlink:href="bogus" xlink:title=" PAKNECONPRVTKN &#45;&gt; PAKNECONPRVTCN Min. att. &#45;720% &#160;max: 6450%">
<path fill="none" stroke="black" stroke-width="8" d="M1392.03,-446.59C1423.58,-421.85 1484.44,-377.98 1544,-356.6 1565.38,-348.92 1588.76,-343.4 1611.75,-339.44"/>
<polygon fill="black" stroke="black" stroke-width="8" points="1613.19,-346.3 1621.93,-337.78 1610.93,-332.48 1613.19,-346.3"/>
</a>
</g>
</g>
<!-- PAKNECONPRVTKN&#45;&gt;PAKNEGDETTOTKN -->
<g id="edge27" class="edge">
<title>PAKNECONPRVTKN&#45;&gt;PAKNEGDETTOTKN</title>
<g id="a_edge27"><a xlink:href="bogus" xlink:title=" PAKNECONPRVTKN &#45;&gt; PAKNEGDETTOTKN Min. att. &#45;2284% &#160;max: 2484%">
<path fill="none" stroke="black" stroke-width="8" d="M1383.14,-446.45C1409.34,-411.83 1471.8,-336.75 1544,-302.6 1576.66,-287.16 1615.43,-279.76 1650.14,-276.45"/>
<polygon fill="black" stroke="black" stroke-width="8" points="1650.93,-283.4 1660.29,-275.58 1649.73,-269.46 1650.93,-283.4"/>
</a>
</g>
</g>
<!-- PAKNECONPRVTKN&#45;&gt;PAKNECONOTHRKN -->
<g id="edge8" class="edge">
<title>PAKNECONPRVTKN&#45;&gt;PAKNECONOTHRKN</title>
<g id="a_edge8"><a xlink:href="bogus" xlink:title=" PAKNECONPRVTKN &#45;&gt; PAKNECONOTHRKN Min. att. &#45;12063% &#160;max: 323%">
<path fill="none" stroke="black" stroke-width="8" d="M1378.49,-446.52C1399.62,-403.77 1459.05,-296.48 1544,-248.6 1563.72,-237.48 1586.23,-230.25 1608.86,-225.66"/>
<polygon fill="black" stroke="black" stroke-width="8" points="1610.36,-232.5 1618.91,-223.79 1607.79,-218.74 1610.36,-232.5"/>
</a>
</g>
</g>
<!-- PAKNECONPRVTKN&#45;&gt;PAKSMSRVFINSKN -->
<g id="edge4" class="edge">
<title>PAKNECONPRVTKN&#45;&gt;PAKSMSRVFINSKN</title>
<g id="a_edge4"><a xlink:href="bogus" xlink:title=" PAKNECONPRVTKN &#45;&gt; PAKSMSRVFINSKN Min. att. &#45;104% &#160;max: 125%">
<path fill="none" stroke="black" stroke-width="8" d="M1375.73,-446.25C1392.42,-396.17 1446.1,-256.81 1544,-194.6 1580.13,-171.64 1627.31,-164.42 1666.83,-163.16"/>
<polygon fill="black" stroke="black" stroke-width="8" points="1667.1,-170.16 1676.96,-162.96 1666.82,-156.16 1667.1,-170.16"/>
</a>
</g>
</g>
<!-- PAKNECONPRVTKN&#45;&gt;PAKNECONPRVTKN_FITTED -->
<g id="edge26" class="edge">
<title>PAKNECONPRVTKN&#45;&gt;PAKNECONPRVTKN_FITTED</title>
<g id="a_edge26"><a xlink:href="bogus" xlink:title=" PAKNECONPRVTKN &#45;&gt; PAKNECONPRVTKN_FITTED Min. att. &#45;786% &#160;max: 175%">
<path fill="none" stroke="black" stroke-width="8" d="M1373.7,-446.41C1386.21,-390.11 1432.48,-217.87 1544,-140.6 1545.94,-139.26 1547.91,-137.97 1549.91,-136.73"/>
<polygon fill="black" stroke="black" stroke-width="8" points="1553.67,-142.64 1558.9,-131.61 1546.75,-130.48 1553.67,-142.64"/>
</a>
</g>
</g>
<!-- PAKNECONPRVTKN&#45;&gt;PAKSMAGRCRPSKN -->
<g id="edge28" class="edge">
<title>PAKNECONPRVTKN&#45;&gt;PAKSMAGRCRPSKN</title>
<g id="a_edge28"><a xlink:href="bogus" xlink:title=" PAKNECONPRVTKN &#45;&gt; PAKSMAGRCRPSKN Min. att. &#45;25% &#160;max: 208%">
<path fill="none" stroke="black" stroke-width="8" d="M1373.7,-482.79C1386.21,-539.1 1432.48,-711.33 1544,-788.6 1578.32,-812.38 1624,-819.9 1663.09,-821.13"/>
<polygon fill="black" stroke="black" stroke-width="8" points="1663.27,-828.13 1673.4,-821.31 1663.53,-814.13 1663.27,-828.13"/>
</a>
</g>
</g>
<!-- PAKNECONPRVTKN&#45;&gt;PAKSMSRVHSNGKN -->
<g id="edge30" class="edge">
<title>PAKNECONPRVTKN&#45;&gt;PAKSMSRVHSNGKN</title>
<g id="a_edge30"><a xlink:href="bogus" xlink:title=" PAKNECONPRVTKN &#45;&gt; PAKSMSRVHSNGKN Min. att. 34% &#160;max: 147%">
<path fill="none" stroke="black" stroke-width="8" d="M1375.73,-482.96C1392.42,-533.03 1446.1,-672.39 1544,-734.6 1578.83,-756.74 1623.93,-764.24 1662.53,-765.88"/>
<polygon fill="black" stroke="black" stroke-width="8" points="1662.5,-772.88 1672.71,-766.19 1662.92,-758.89 1662.5,-772.88"/>
</a>
</g>
</g>
<!-- PAKSMSRVTRNSKN -->
<g id="node30" class="node">
<title>PAKSMSRVTRNSKN</title>
<g id="a_node30"><a xlink:title="PAKSMSRVTRNSKN&#10;FRML &#160;&lt;&gt; PAKSMSRVTRNSKN = ((1+0.301074862860981)*(0.204687752761289*PAKNECONPRVTKN+0*PAKNECONGOVTKN+0*PAKNEGDIFTOTKN+0.0551862611209703*PAKNEEXPGNFSKN+0*PAKNEGDISTKBKN)&#45;&#45;0.0392641863572605*PAKNEIMPGNFSKN&#45;0.0174996684619017*PAKNYTAXNINDKN&#45;0)/(1+1.11680986862739) $">
<polygon fill="#63b8ff" stroke="black" points="1816.5,-725.6 1674.5,-725.6 1674.5,-689.6 1816.5,-689.6 1816.5,-725.6"/>
<text text-anchor="start" x="1680.5" y="-703.4" font-family="Times New Roman,serif" font-size="14.00" fill="blue">PAKSMSRVTRNSKN:</text>
</a>
</g>
</g>
<!-- PAKNECONPRVTKN&#45;&gt;PAKSMSRVTRNSKN -->
<g id="edge7" class="edge">
<title>PAKNECONPRVTKN&#45;&gt;PAKSMSRVTRNSKN</title>
<g id="a_edge7"><a xlink:href="bogus" xlink:title=" PAKNECONPRVTKN &#45;&gt; PAKSMSRVTRNSKN Min. att. 87% &#160;max: 592%">
<path fill="none" stroke="black" stroke-width="8" d="M1378.49,-482.69C1399.62,-525.44 1459.05,-632.72 1544,-680.6 1580.09,-700.94 1625.49,-708.27 1663.96,-710.26"/>
<polygon fill="black" stroke="black" stroke-width="8" points="1663.82,-717.26 1674.1,-710.67 1664.39,-703.27 1663.82,-717.26"/>
</a>
</g>
</g>
</g>
</svg>
