<?xml version="1.0" encoding="UTF-8" standalone="no"?>
<!DOCTYPE svg PUBLIC "-//W3C//DTD SVG 1.1//EN"
 "http://www.w3.org/Graphics/SVG/1.1/DTD/svg11.dtd">
<!-- Generated by graphviz version 6.0.1 (0)
 -->
<!-- Title: TD Pages: 1 -->
<svg width="432pt" height="196pt"
 viewBox="0.00 0.00 432.00 195.87" xmlns="http://www.w3.org/2000/svg" xmlns:xlink="http://www.w3.org/1999/xlink">
<g id="graph0" class="graph" transform="scale(0.188564 0.188564) rotate(0) translate(4 1034.77)">
<title>TD</title>
<polygon fill="white" stroke="none" points="-4,4 -4,-1034.77 2287,-1034.77 2287,4 -4,4"/>
<text text-anchor="middle" x="1141.5" y="-7.8" font-family="Times New Roman,serif" font-size="14.00">PAKNECONPRVTKN</text>
<!-- PAKNYYWBTOTLCN -->
<g id="node1" class="node">
<title>PAKNYYWBTOTLCN</title>
<g id="a_node1"><a xlink:title="Economy&#45;wide wage bill&#10;FRML &#160;&lt;&gt; PAKNYYWBTOTLCN = PAKNYWRTTOTLCN*PAKLMEMPTOTLCN $">
<polygon fill="#63b8ff" stroke="black" points="932,-980.77 647,-980.77 647,-944.77 932,-944.77 932,-980.77"/>
<text text-anchor="start" x="653.5" y="-958.57" font-family="Times New Roman,serif" font-size="14.00" fill="blue">PAKNYYWBTOTLCN:Economy&#45;wide wage bill</text>
</a>
</g>
</g>
<!-- PAKNECONPRVTKN -->
<g id="node4" class="node">
<title>PAKNECONPRVTKN</title>
<g id="a_node4"><a xlink:title="Household Consumption&#10;FRML &lt;Z,EXO&gt; PAKNECONPRVTKN = (PAKNECONPRVTKN(&#45;1)*EXP(&#45;PAKNECONPRVTKN_A+ (&#45;0.2*(LOG(PAKNECONPRVTKN(&#45;1))&#45;LOG((PAKNYYWBTOTLCN(&#45;1)*(1&#45;PAKGGREVDRCTXN(&#45;1)/100))/PAKNECONPRVTXN(&#45;1)))+1*((LOG((PAKNYYWBTOTLCN*(1&#45;PAKGGREVDRCTXN/100))/PAKNECONPRVTXN))&#45;(LOG((PAKNYYWBTOTLCN(&#45;1)*(1&#45;PAKGGREVDRCTXN(&#45;1)/100))/PAKNECONPRVTXN(&#45;1))))+0.0303228629698929+0.0163839011059956*DURING_2010&#45;0.3*(PAKFMLBLPOLYXN/100&#45;((LOG(PAKNECONPRVTXN))&#45;(LOG(PAKNECONPRVTXN(&#45;1)))))) )) * (1&#45;PAKNECONPRVTKN_D)+ PAKNECONPRVTKN_X*PAKNECONPRVTKN_D &#160;$">
<polygon fill="red" stroke="black" points="1246,-483.77 968,-483.77 968,-447.77 1246,-447.77 1246,-483.77"/>
<text text-anchor="start" x="974" y="-461.57" font-family="Times New Roman,serif" font-size="14.00" fill="blue">PAKNECONPRVTKN:Household Consumption</text>
</a>
</g>
</g>
<!-- PAKNYYWBTOTLCN&#45;&gt;PAKNECONPRVTKN -->
<g id="edge27" class="edge">
<title>PAKNYYWBTOTLCN&#45;&gt;PAKNECONPRVTKN</title>
<g id="a_edge27"><a xlink:href="bogus" xlink:title=" PAKNYYWBTOTLCN &#45;&gt; PAKNECONPRVTKN Min. att. &#45;594% &#160;max: 5821%">
<path fill="none" stroke="black" stroke-width="8" d="M802.1,-944.49C849.99,-869.06 1032.36,-581.76 1089.07,-492.43"/>
<polygon fill="black" stroke="black" stroke-width="8" points="1095.01,-496.14 1094.46,-483.95 1083.19,-488.64 1095.01,-496.14"/>
</a>
</g>
</g>
<!-- PAKNECONPRVTCN -->
<g id="node2" class="node">
<title>PAKNECONPRVTCN</title>
<g id="a_node2"><a xlink:title="Household demand&#10;FRML &#160;&lt;&gt; PAKNECONPRVTCN = PAKNECONPRVTKN*PAKNECONPRVTXN $">
<polygon fill="#63b8ff" stroke="black" points="1607,-780.77 1360,-780.77 1360,-744.77 1607,-744.77 1607,-780.77"/>
<text text-anchor="start" x="1366.5" y="-758.57" font-family="Times New Roman,serif" font-size="14.00" fill="blue">PAKNECONPRVTCN:Household demand</text>
</a>
</g>
</g>
<!-- PAKNEGDETTOTKN -->
<g id="node3" class="node">
<title>PAKNEGDETTOTKN</title>
<g id="a_node3"><a xlink:title="GDE&#10;FRML &#160;&lt;&gt; PAKNEGDETTOTKN = (PAKNECONPRVTKN+PAKNECONGOVTKN+PAKNEGDIFTOTKN+PAKNEGDISTKBKN+PAKNYGDPDISCKN) $">
<polygon fill="#63b8ff" stroke="black" points="1568.5,-726.77 1398.5,-726.77 1398.5,-690.77 1568.5,-690.77 1568.5,-726.77"/>
<text text-anchor="start" x="1404.5" y="-704.57" font-family="Times New Roman,serif" font-size="14.00" fill="blue">PAKNEGDETTOTKN:GDE</text>
</a>
</g>
</g>
<!-- PAKNECONPRVTKN&#45;&gt;PAKNECONPRVTCN -->
<g id="edge14" class="edge">
<title>PAKNECONPRVTKN&#45;&gt;PAKNECONPRVTCN</title>
<g id="a_edge14"><a xlink:href="bogus" xlink:title=" PAKNECONPRVTKN &#45;&gt; PAKNECONPRVTCN Min. att. &#45;720% &#160;max: 6450%">
<path fill="none" stroke="black" stroke-width="8" d="M1113.73,-484.12C1130.42,-534.19 1184.1,-673.55 1282,-735.77 1302.26,-748.64 1325.99,-756.56 1349.89,-761.26"/>
<polygon fill="black" stroke="black" stroke-width="8" points="1348.7,-768.16 1359.77,-763.03 1351.16,-754.38 1348.7,-768.16"/>
</a>
</g>
</g>
<!-- PAKNECONPRVTKN&#45;&gt;PAKNEGDETTOTKN -->
<g id="edge22" class="edge">
<title>PAKNECONPRVTKN&#45;&gt;PAKNEGDETTOTKN</title>
<g id="a_edge22"><a xlink:href="bogus" xlink:title=" PAKNECONPRVTKN &#45;&gt; PAKNEGDETTOTKN Min. att. &#45;2284% &#160;max: 2484%">
<path fill="none" stroke="black" stroke-width="8" d="M1116.49,-483.85C1137.62,-526.6 1197.05,-633.88 1282,-681.77 1313.75,-699.66 1352.7,-707.48 1387.79,-710.46"/>
<polygon fill="black" stroke="black" stroke-width="8" points="1387.58,-717.46 1398.06,-711.21 1388.6,-703.5 1387.58,-717.46"/>
</a>
</g>
</g>
<!-- PAKSMAGRFSNGKN -->
<g id="node7" class="node">
<title>PAKSMAGRFSNGKN</title>
<g id="a_node7"><a xlink:title="PAKSMAGRFSNGKN&#10;FRML &#160;&lt;&gt; PAKSMAGRFSNGKN = ((1+1.92407325889309)*(0.00246195499563977*PAKNECONPRVTKN+0*PAKNECONGOVTKN+0*PAKNEGDIFTOTKN+0.00130433854799597*PAKNEEXPGNFSKN+0.00497657560072267*PAKNEGDISTKBKN)&#45;1.14989260682794E&#45;05*PAKNEIMPGNFSKN&#45;2.46467171367829E&#45;07*PAKNYTAXNINDKN&#45;26993)/(1+0.506095544048804) $">
<polygon fill="#63b8ff" stroke="black" points="1556,-672.77 1411,-672.77 1411,-636.77 1556,-636.77 1556,-672.77"/>
<text text-anchor="start" x="1417.5" y="-650.57" font-family="Times New Roman,serif" font-size="14.00" fill="blue">PAKSMAGRFSNGKN:</text>
</a>
</g>
</g>
<!-- PAKNECONPRVTKN&#45;&gt;PAKSMAGRFSNGKN -->
<g id="edge15" class="edge">
<title>PAKNECONPRVTKN&#45;&gt;PAKSMAGRFSNGKN</title>
<g id="a_edge15"><a xlink:href="bogus" xlink:title=" PAKNECONPRVTKN &#45;&gt; PAKSMAGRFSNGKN Min. att. &#45;29% &#160;max: 170%">
<path fill="none" stroke="black" stroke-width="8" d="M1121.14,-483.91C1147.34,-518.54 1209.8,-593.62 1282,-627.77 1318.57,-645.06 1362.81,-652.26 1400.43,-654.94"/>
<polygon fill="black" stroke="black" stroke-width="8" points="1400.44,-661.96 1410.85,-655.59 1401.3,-647.98 1400.44,-661.96"/>
</a>
</g>
</g>
<!-- PAKSMINDOTHRTKN -->
<g id="node8" class="node">
<title>PAKSMINDOTHRTKN</title>
<g id="a_node8"><a xlink:title="PAKSMINDOTHRTKN&#10;FRML &#160;&lt;&gt; PAKSMINDOTHRTKN = ((1+0.483473985412524)*(0.40172973397176*PAKNECONPRVTKN+0*PAKNECONGOVTKN+0.560459287907094*PAKNEGDIFTOTKN+0.719299486591763*PAKNEEXPGNFSKN+0.620970563578771*PAKNEGDISTKBKN)&#45;0.606734386430279*PAKNEIMPGNFSKN&#45;0.866045585295928*PAKNYTAXNINDKN&#45;2983275.63714814)/(1+2.46379868577176) $">
<polygon fill="#63b8ff" stroke="black" points="1559,-618.77 1408,-618.77 1408,-582.77 1559,-582.77 1559,-618.77"/>
<text text-anchor="start" x="1414.5" y="-596.57" font-family="Times New Roman,serif" font-size="14.00" fill="blue">PAKSMINDOTHRTKN:</text>
</a>
</g>
</g>
<!-- PAKNECONPRVTKN&#45;&gt;PAKSMINDOTHRTKN -->
<g id="edge12" class="edge">
<title>PAKNECONPRVTKN&#45;&gt;PAKSMINDOTHRTKN</title>
<g id="a_edge12"><a xlink:href="bogus" xlink:title=" PAKNECONPRVTKN &#45;&gt; PAKSMINDOTHRTKN Min. att. &#45;11779% &#160;max: 971%">
<path fill="none" stroke="black" stroke-width="8" d="M1130.03,-483.78C1161.58,-508.52 1222.44,-552.38 1282,-573.77 1318.71,-586.95 1361.31,-593.77 1397.77,-597.28"/>
<polygon fill="black" stroke="black" stroke-width="8" points="1397.3,-604.26 1407.88,-598.18 1398.54,-590.32 1397.3,-604.26"/>
</a>
</g>
</g>
<!-- PAKSMAGRFSTYKN -->
<g id="node10" class="node">
<title>PAKSMAGRFSTYKN</title>
<g id="a_node10"><a xlink:title="PAKSMAGRFSTYKN&#10;FRML &#160;&lt;&gt; PAKSMAGRFSTYKN = ((1+0.195965019358753)*(0.010131919293849*PAKNECONPRVTKN+0*PAKNECONGOVTKN+0*PAKNEGDIFTOTKN+0.000136733767007103*PAKNEEXPGNFSKN+0.0199955288980741*PAKNEGDISTKBKN)&#45;0.00076829563200478*PAKNEIMPGNFSKN&#45;0.00172030587371022*PAKNYTAXNINDKN&#45;65421)/(1+0.319587584852584) $">
<polygon fill="#63b8ff" stroke="black" points="1555.5,-564.77 1411.5,-564.77 1411.5,-528.77 1555.5,-528.77 1555.5,-564.77"/>
<text text-anchor="start" x="1417.5" y="-542.57" font-family="Times New Roman,serif" font-size="14.00" fill="blue">PAKSMAGRFSTYKN:</text>
</a>
</g>
</g>
<!-- PAKNECONPRVTKN&#45;&gt;PAKSMAGRFSTYKN -->
<g id="edge9" class="edge">
<title>PAKNECONPRVTKN&#45;&gt;PAKSMAGRFSTYKN</title>
<g id="a_edge9"><a xlink:href="bogus" xlink:title=" PAKNECONPRVTKN &#45;&gt; PAKSMAGRFSTYKN Min. att. 96% &#160;max: 371%">
<path fill="none" stroke="black" stroke-width="8" d="M1158.41,-483.86C1192.83,-495.61 1239.69,-510.42 1282,-519.77 1320.87,-528.35 1364.63,-534.63 1401.32,-538.96"/>
<polygon fill="black" stroke="black" stroke-width="8" points="1400.74,-545.93 1411.47,-540.12 1402.34,-532.03 1400.74,-545.93"/>
</a>
</g>
</g>
<!-- PAKSMENGTOTLKN -->
<g id="node12" class="node">
<title>PAKSMENGTOTLKN</title>
<g id="a_node12"><a xlink:title="PAKSMENGTOTLKN&#10;FRML &#160;&lt;&gt; PAKSMENGTOTLKN = ((1+1.65868473220397)*(0.0775261497897936*PAKNECONPRVTKN+0*PAKNECONGOVTKN+0*PAKNEGDIFTOTKN+0.0217448978257548*PAKNEEXPGNFSKN+0.0458991644104248*PAKNEGDISTKBKN)&#45;0.11894699850705*PAKNEIMPGNFSKN&#45;&#45;0.50579180838529*PAKNYTAXNINDKN&#45;0)/(1+5.65663938581514) $">
<polygon fill="#63b8ff" stroke="black" points="1556,-510.77 1411,-510.77 1411,-474.77 1556,-474.77 1556,-510.77"/>
<text text-anchor="start" x="1417.5" y="-488.57" font-family="Times New Roman,serif" font-size="14.00" fill="blue">PAKSMENGTOTLKN:</text>
</a>
</g>
</g>
<!-- PAKNECONPRVTKN&#45;&gt;PAKSMENGTOTLKN -->
<g id="edge10" class="edge">
<title>PAKNECONPRVTKN&#45;&gt;PAKSMENGTOTLKN</title>
<g id="a_edge10"><a xlink:href="bogus" xlink:title=" PAKNECONPRVTKN &#45;&gt; PAKSMENGTOTLKN Min. att. &#45;14% &#160;max: 2186%">
<path fill="none" stroke="black" stroke-width="8" d="M1246.12,-475.72C1298.16,-479.47 1355.64,-483.62 1400.89,-486.88"/>
<polygon fill="black" stroke="black" stroke-width="8" points="1400.46,-493.87 1410.94,-487.61 1401.47,-479.9 1400.46,-493.87"/>
</a>
</g>
</g>
<!-- PAKSMSRVHSNGKN -->
<g id="node13" class="node">
<title>PAKSMSRVHSNGKN</title>
<g id="a_node13"><a xlink:title="PAKSMSRVHSNGKN&#10;FRML &#160;&lt;&gt; PAKSMSRVHSNGKN = ((1+0.782809577554843)*(0.0647364660896117*PAKNECONPRVTKN+0*PAKNECONGOVTKN+0.00605333595533851*PAKNEGDIFTOTKN+0.03048358523237*PAKNEEXPGNFSKN+0*PAKNEGDISTKBKN)&#45;0.0244768173208691*PAKNEIMPGNFSKN&#45;0.0684093628903126*PAKNYTAXNINDKN&#45;0)/(1+0.150771193398883) $">
<polygon fill="#63b8ff" stroke="black" points="1556,-456.77 1411,-456.77 1411,-420.77 1556,-420.77 1556,-456.77"/>
<text text-anchor="start" x="1417.5" y="-434.57" font-family="Times New Roman,serif" font-size="14.00" fill="blue">PAKSMSRVHSNGKN:</text>
</a>
</g>
</g>
<!-- PAKNECONPRVTKN&#45;&gt;PAKSMSRVHSNGKN -->
<g id="edge23" class="edge">
<title>PAKNECONPRVTKN&#45;&gt;PAKSMSRVHSNGKN</title>
<g id="a_edge23"><a xlink:href="bogus" xlink:title=" PAKNECONPRVTKN &#45;&gt; PAKSMSRVHSNGKN Min. att. 34% &#160;max: 147%">
<path fill="none" stroke="black" stroke-width="8" d="M1246.12,-455.81C1298.16,-452.06 1355.64,-447.91 1400.89,-444.65"/>
<polygon fill="black" stroke="black" stroke-width="8" points="1401.47,-451.63 1410.94,-443.92 1400.46,-437.66 1401.47,-451.63"/>
</a>
</g>
</g>
<!-- PAKSMSRVFINSKN -->
<g id="node14" class="node">
<title>PAKSMSRVFINSKN</title>
<g id="a_node14"><a xlink:title="PAKSMSRVFINSKN&#10;FRML &#160;&lt;&gt; PAKSMSRVFINSKN = ((1+1.04148314760779)*(0.0520379651885469*PAKNECONPRVTKN+0*PAKNECONGOVTKN+0*PAKNEGDIFTOTKN+0.00879145012359898*PAKNEEXPGNFSKN+0*PAKNEGDISTKBKN)&#45;0.00594416979264236*PAKNEIMPGNFSKN&#45;0.000103762679145856*PAKNYTAXNINDKN&#45;0)/(1+0.24687745523084) $">
<polygon fill="#63b8ff" stroke="black" points="1552,-402.77 1415,-402.77 1415,-366.77 1552,-366.77 1552,-402.77"/>
<text text-anchor="start" x="1421.5" y="-380.57" font-family="Times New Roman,serif" font-size="14.00" fill="blue">PAKSMSRVFINSKN:</text>
</a>
</g>
</g>
<!-- PAKNECONPRVTKN&#45;&gt;PAKSMSRVFINSKN -->
<g id="edge28" class="edge">
<title>PAKNECONPRVTKN&#45;&gt;PAKSMSRVFINSKN</title>
<g id="a_edge28"><a xlink:href="bogus" xlink:title=" PAKNECONPRVTKN &#45;&gt; PAKSMSRVFINSKN Min. att. &#45;104% &#160;max: 125%">
<path fill="none" stroke="black" stroke-width="8" d="M1158.41,-447.67C1192.83,-435.92 1239.69,-421.11 1282,-411.77 1321.97,-402.94 1367.1,-396.55 1404.41,-392.21"/>
<polygon fill="black" stroke="black" stroke-width="8" points="1405.57,-399.13 1414.72,-391.04 1403.99,-385.22 1405.57,-399.13"/>
</a>
</g>
</g>
<!-- PAKSMAGRCRPSKN -->
<g id="node15" class="node">
<title>PAKSMAGRCRPSKN</title>
<g id="a_node15"><a xlink:title="PAKSMAGRCRPSKN&#10;FRML &#160;&lt;&gt; PAKSMAGRCRPSKN = ((1+2.09928590574241)*(0.144287620838506*PAKNECONPRVTKN+0*PAKNECONGOVTKN+0*PAKNEGDIFTOTKN+0.0572678299039023*PAKNEEXPGNFSKN+0.267381669083985*PAKNEGDISTKBKN)&#45;0.0736247088197363*PAKNEIMPGNFSKN&#45;0.0407034395686347*PAKNYTAXNINDKN&#45;906311)/(1+0.396041694659877) $">
<polygon fill="#63b8ff" stroke="black" points="1555.5,-348.77 1411.5,-348.77 1411.5,-312.77 1555.5,-312.77 1555.5,-348.77"/>
<text text-anchor="start" x="1417.5" y="-326.57" font-family="Times New Roman,serif" font-size="14.00" fill="blue">PAKSMAGRCRPSKN:</text>
</a>
</g>
</g>
<!-- PAKNECONPRVTKN&#45;&gt;PAKSMAGRCRPSKN -->
<g id="edge24" class="edge">
<title>PAKNECONPRVTKN&#45;&gt;PAKSMAGRCRPSKN</title>
<g id="a_edge24"><a xlink:href="bogus" xlink:title=" PAKNECONPRVTKN &#45;&gt; PAKSMAGRCRPSKN Min. att. &#45;25% &#160;max: 208%">
<path fill="none" stroke="black" stroke-width="8" d="M1130.03,-447.75C1161.58,-423.01 1222.44,-379.15 1282,-357.77 1319.77,-344.21 1363.77,-337.37 1400.9,-333.96"/>
<polygon fill="black" stroke="black" stroke-width="8" points="1401.82,-340.91 1411.19,-333.09 1400.63,-326.96 1401.82,-340.91"/>
</a>
</g>
</g>
<!-- PAKSMINDMNGSKN -->
<g id="node17" class="node">
<title>PAKSMINDMNGSKN</title>
<g id="a_node17"><a xlink:title="PAKSMINDMNGSKN&#10;FRML &#160;&lt;&gt; PAKSMINDMNGSKN = ((1+6.96158341862144)*(0.0132800565666619*PAKNECONPRVTKN+0*PAKNECONGOVTKN+0*PAKNEGDIFTOTKN+0.00704674623894759*PAKNEEXPGNFSKN+0.024122890632682*PAKNEGDISTKBKN)&#45;0.134221966110302*PAKNEIMPGNFSKN&#45;0.500981557895139*PAKNYTAXNINDKN&#45;123652.869264758)/(1+0.200800622280983) $">
<polygon fill="#63b8ff" stroke="black" points="1556.5,-294.77 1410.5,-294.77 1410.5,-258.77 1556.5,-258.77 1556.5,-294.77"/>
<text text-anchor="start" x="1416.5" y="-272.57" font-family="Times New Roman,serif" font-size="14.00" fill="blue">PAKSMINDMNGSKN:</text>
</a>
</g>
</g>
<!-- PAKNECONPRVTKN&#45;&gt;PAKSMINDMNGSKN -->
<g id="edge19" class="edge">
<title>PAKNECONPRVTKN&#45;&gt;PAKSMINDMNGSKN</title>
<g id="a_edge19"><a xlink:href="bogus" xlink:title=" PAKNECONPRVTKN &#45;&gt; PAKSMINDMNGSKN Min. att. &#45;1229% &#160;max: 1716%">
<path fill="none" stroke="black" stroke-width="8" d="M1121.14,-447.62C1147.34,-412.99 1209.8,-337.91 1282,-303.77 1318.42,-286.54 1362.46,-279.33 1399.98,-276.62"/>
<polygon fill="black" stroke="black" stroke-width="8" points="1400.83,-283.58 1410.38,-275.97 1399.96,-269.61 1400.83,-283.58"/>
</a>
</g>
</g>
<!-- PAKNYGDPMKTPKN -->
<g id="node20" class="node">
<title>PAKNYGDPMKTPKN</title>
<g id="a_node20"><a xlink:title="GDP Expenditure side at market prices&#10;FRML &#160;&lt;&gt; PAKNYGDPMKTPKN = PAKNECONPRVTKN+PAKNECONGOVTKN+PAKNEGDIFTOTKN+PAKNEGDISTKBKN+PAKNEEXPGNFSKN&#45;PAKNEIMPGNFSKN+PAKNYGDPDISCKN+PAKADAP*PAKDISPREPKN $">
<polygon fill="#63b8ff" stroke="black" points="1664,-834.77 1303,-834.77 1303,-798.77 1664,-798.77 1664,-834.77"/>
<text text-anchor="start" x="1309.5" y="-812.57" font-family="Times New Roman,serif" font-size="14.00" fill="blue">PAKNYGDPMKTPKN:GDP Expenditure side at market prices</text>
</a>
</g>
</g>
<!-- PAKNECONPRVTKN&#45;&gt;PAKNYGDPMKTPKN -->
<g id="edge6" class="edge">
<title>PAKNECONPRVTKN&#45;&gt;PAKNYGDPMKTPKN</title>
<g id="a_edge6"><a xlink:href="bogus" xlink:title=" PAKNECONPRVTKN &#45;&gt; PAKNYGDPMKTPKN Min. att. &#45;1557% &#160;max: 290%">
<path fill="none" stroke="black" stroke-width="8" d="M1111.7,-483.96C1124.21,-540.26 1170.48,-712.5 1282,-789.77 1285.76,-792.37 1289.65,-794.77 1293.65,-797"/>
<polygon fill="black" stroke="black" stroke-width="8" points="1290.49,-803.25 1302.59,-801.59 1296.89,-790.79 1290.49,-803.25"/>
</a>
</g>
</g>
<!-- PAKNECONPRVTKN_FITTED -->
<g id="node21" class="node">
<title>PAKNECONPRVTKN_FITTED</title>
<g id="a_node21"><a xlink:title="Fitted &#160;value:Household Consumption&#10;FRML &lt;FIT&gt; PAKNECONPRVTKN_FITTED = PAKNECONPRVTKN(&#45;1)*EXP( (&#45;0.2*(LOG(PAKNECONPRVTKN(&#45;1))&#45;LOG((PAKNYYWBTOTLCN(&#45;1)*(1&#45;PAKGGREVDRCTXN(&#45;1)/100))/PAKNECONPRVTXN(&#45;1)))+1*((LOG((PAKNYYWBTOTLCN*(1&#45;PAKGGREVDRCTXN/100))/PAKNECONPRVTXN))&#45;(LOG((PAKNYYWBTOTLCN(&#45;1)*(1&#45;PAKGGREVDRCTXN(&#45;1)/100))/PAKNECONPRVTXN(&#45;1))))+0.0303228629698929+0.0163839011059956*DURING_2010&#45;0.3*(PAKFMLBLPOLYXN/100&#45;((LOG(PAKNECONPRVTXN))&#45;(LOG(PAKNECONPRVTXN(&#45;1)))))) ) $">
<polygon fill="#63b8ff" stroke="black" points="1685,-240.77 1282,-240.77 1282,-204.77 1685,-204.77 1685,-240.77"/>
<text text-anchor="start" x="1288.5" y="-218.57" font-family="Times New Roman,serif" font-size="14.00" fill="blue">PAKNECONPRVTKN_FITTED:Fitted &#160;value:Household Consumption</text>
</a>
</g>
</g>
<!-- PAKNECONPRVTKN&#45;&gt;PAKNECONPRVTKN_FITTED -->
<g id="edge3" class="edge">
<title>PAKNECONPRVTKN&#45;&gt;PAKNECONPRVTKN_FITTED</title>
<g id="a_edge3"><a xlink:href="bogus" xlink:title=" PAKNECONPRVTKN &#45;&gt; PAKNECONPRVTKN_FITTED Min. att. &#45;786% &#160;max: 175%">
<path fill="none" stroke="black" stroke-width="8" d="M1116.49,-447.68C1137.62,-404.93 1197.05,-297.65 1282,-249.77 1284.91,-248.13 1287.87,-246.57 1290.89,-245.1"/>
<polygon fill="black" stroke="black" stroke-width="8" points="1293.89,-251.43 1300.1,-240.92 1288.1,-238.68 1293.89,-251.43"/>
</a>
</g>
</g>
<!-- PAKNECONENGYKN -->
<g id="node24" class="node">
<title>PAKNECONENGYKN</title>
<g id="a_node24"><a xlink:title="Energy Consumption&#10;FRML &#160;&lt;&gt; PAKNECONENGYKN = PAKNECONENGYSH**(PAKCESENGYCON)*(PAKNECONPRVTKN*(PAKNECONPRVTXN/PAKNECONENGYXN)**(PAKCESENGYCON)) $">
<polygon fill="#63b8ff" stroke="black" points="1614.5,-186.77 1352.5,-186.77 1352.5,-150.77 1614.5,-150.77 1614.5,-186.77"/>
<text text-anchor="start" x="1358.5" y="-164.57" font-family="Times New Roman,serif" font-size="14.00" fill="blue">PAKNECONENGYKN:Energy Consumption</text>
</a>
</g>
</g>
<!-- PAKNECONPRVTKN&#45;&gt;PAKNECONENGYKN -->
<g id="edge30" class="edge">
<title>PAKNECONPRVTKN&#45;&gt;PAKNECONENGYKN</title>
<g id="a_edge30"><a xlink:href="bogus" xlink:title=" PAKNECONPRVTKN &#45;&gt; PAKNECONENGYKN Min. att. &#45;699% &#160;max: 3890%">
<path fill="none" stroke="black" stroke-width="8" d="M1113.73,-447.41C1130.42,-397.34 1184.1,-257.98 1282,-195.77 1300.19,-184.21 1321.17,-176.64 1342.57,-171.81"/>
<polygon fill="black" stroke="black" stroke-width="8" points="1344.04,-178.66 1352.42,-169.78 1341.22,-164.94 1344.04,-178.66"/>
</a>
</g>
</g>
<!-- PAKSMSRVTRNSKN -->
<g id="node28" class="node">
<title>PAKSMSRVTRNSKN</title>
<g id="a_node28"><a xlink:title="PAKSMSRVTRNSKN&#10;FRML &#160;&lt;&gt; PAKSMSRVTRNSKN = ((1+0.301074862860981)*(0.204687752761289*PAKNECONPRVTKN+0*PAKNECONGOVTKN+0*PAKNEGDIFTOTKN+0.0551862611209703*PAKNEEXPGNFSKN+0*PAKNEGDISTKBKN)&#45;&#45;0.0392641863572605*PAKNEIMPGNFSKN&#45;0.0174996684619017*PAKNYTAXNINDKN&#45;0)/(1+1.11680986862739) $">
<polygon fill="#63b8ff" stroke="black" points="1554.5,-132.77 1412.5,-132.77 1412.5,-96.77 1554.5,-96.77 1554.5,-132.77"/>
<text text-anchor="start" x="1418.5" y="-110.57" font-family="Times New Roman,serif" font-size="14.00" fill="blue">PAKSMSRVTRNSKN:</text>
</a>
</g>
</g>
<!-- PAKNECONPRVTKN&#45;&gt;PAKSMSRVTRNSKN -->
<g id="edge20" class="edge">
<title>PAKNECONPRVTKN&#45;&gt;PAKSMSRVTRNSKN</title>
<g id="a_edge20"><a xlink:href="bogus" xlink:title=" PAKNECONPRVTKN &#45;&gt; PAKSMSRVTRNSKN Min. att. 87% &#160;max: 592%">
<path fill="none" stroke="black" stroke-width="8" d="M1111.7,-447.57C1124.21,-391.27 1170.48,-219.03 1282,-141.77 1316.66,-117.75 1362.9,-110.32 1402.25,-109.2"/>
<polygon fill="black" stroke="black" stroke-width="8" points="1402.46,-116.2 1412.35,-109.05 1402.24,-102.2 1402.46,-116.2"/>
</a>
</g>
</g>
<!-- PAKNECONOTHRKN -->
<g id="node30" class="node">
<title>PAKNECONOTHRKN</title>
<g id="a_node30"><a xlink:title="Other Consumption&#10;FRML &#160;&lt;&gt; PAKNECONOTHRKN = PAKNECONOTHRSH**(PAKCESENGYCON)*(PAKNECONPRVTKN*(PAKNECONPRVTXN/PAKNECONOTHRXN)**(PAKCESENGYCON)) $">
<polygon fill="#63b8ff" stroke="black" points="1610,-888.77 1357,-888.77 1357,-852.77 1610,-852.77 1610,-888.77"/>
<text text-anchor="start" x="1363.5" y="-866.57" font-family="Times New Roman,serif" font-size="14.00" fill="blue">PAKNECONOTHRKN:Other Consumption</text>
</a>
</g>
</g>
<!-- PAKNECONPRVTKN&#45;&gt;PAKNECONOTHRKN -->
<g id="edge7" class="edge">
<title>PAKNECONPRVTKN&#45;&gt;PAKNECONOTHRKN</title>
<g id="a_edge7"><a xlink:href="bogus" xlink:title=" PAKNECONPRVTKN &#45;&gt; PAKNECONOTHRKN Min. att. &#45;12063% &#160;max: 323%">
<path fill="none" stroke="black" stroke-width="8" d="M1110.23,-483.77C1118.92,-545.67 1156.52,-751 1282,-843.77 1300.91,-857.74 1323.63,-866.26 1346.89,-871.21"/>
<polygon fill="black" stroke="black" stroke-width="8" points="1345.74,-878.11 1356.88,-873.12 1348.37,-864.36 1345.74,-878.11"/>
</a>
</g>
</g>
<!-- PAKLMEMPTOTLCN -->
<g id="node5" class="node">
<title>PAKLMEMPTOTLCN</title>
<g id="a_node5"><a xlink:title="Employment&#10;FRML &lt;Z,EXO&gt; PAKLMEMPTOTLCN = (PAKLMEMPTOTLCN(&#45;1)*EXP(&#45;PAKLMEMPTOTLCN_A+ (&#45;0.345624644563667*(LOG(PAKLMEMPTOTLCN(&#45;1))&#45;LOG(PAKLMEMPSTRLCN(&#45;1)))&#45;0.1*(((LOG(PAKNYWRTTOTLCN/PAKNYGDPFCSTXN))&#45;(LOG(PAKNYWRTTOTLCN(&#45;1)/PAKNYGDPFCSTXN(&#45;1))))&#45;((LOG(PAKNYGDPPOTLKN/PAKLMEMPSTRLCN))&#45;(LOG(PAKNYGDPPOTLKN(&#45;1)/PAKLMEMPSTRLCN(&#45;1)))))&#45;0.0011790007645121+((LOG(PAKLMEMPSTRLCN))&#45;(LOG(PAKLMEMPSTRLCN(&#45;1))))+0.175412878170024*PAKNYGDPGAP_/100+0.0369790799942338*DURING_2010) )) * (1&#45;PAKLMEMPTOTLCN_D)+ PAKLMEMPTOTLCN_X*PAKLMEMPTOTLCN_D &#160;$">
<polygon fill="#63b8ff" stroke="black" points="2283,-946.77 2066,-946.77 2066,-910.77 2283,-910.77 2283,-946.77"/>
<text text-anchor="start" x="2072.5" y="-924.57" font-family="Times New Roman,serif" font-size="14.00" fill="blue">PAKLMEMPTOTLCN:Employment</text>
</a>
</g>
</g>
<!-- PAKLMEMPTOTLCN&#45;&gt;PAKNYYWBTOTLCN -->
<g id="edge29" class="edge">
<title>PAKLMEMPTOTLCN&#45;&gt;PAKNYYWBTOTLCN</title>
<g id="a_edge29"><a xlink:href="bogus" xlink:title=" PAKLMEMPTOTLCN &#45;&gt; PAKNYYWBTOTLCN Min. att. &#45;6% &#160;max: 84%">
<path fill="none" stroke="black" stroke-width="8" d="M2065.8,-938.38C2053.73,-939.27 2041.61,-940.1 2030,-940.77 1638.58,-963.36 1176.59,-964.94 942.66,-963.97"/>
<polygon fill="black" stroke="black" stroke-width="8" points="942.41,-956.97 932.38,-963.92 942.35,-970.97 942.41,-956.97"/>
</a>
</g>
</g>
<!-- PAKNECONENGYXN -->
<g id="node6" class="node">
<title>PAKNECONENGYXN</title>
<g id="a_node6"><a xlink:title="Energy Consumption&#10;FRML &lt;Z,EXO&gt; PAKNECONENGYXN = (PAKNECONENGYXN(&#45;1)*EXP(&#45;PAKNECONENGYXN_A+ (((LOG(PAKNECONENGYGN))&#45;(LOG(PAKNECONENGYGN(&#45;1))))+0.0550557534575806*DUMH) )) * (1&#45;PAKNECONENGYXN_D)+ PAKNECONENGYXN_X*PAKNECONENGYXN_D &#160;$">
<polygon fill="#63b8ff" stroke="black" points="597.5,-239.77 335.5,-239.77 335.5,-203.77 597.5,-203.77 597.5,-239.77"/>
<text text-anchor="start" x="341.5" y="-217.57" font-family="Times New Roman,serif" font-size="14.00" fill="blue">PAKNECONENGYXN:Energy Consumption</text>
</a>
</g>
</g>
<!-- PAKNECONPRVTXN -->
<g id="node19" class="node">
<title>PAKNECONPRVTXN</title>
<g id="a_node19"><a xlink:title="Household demand&#10;FRML &#160;&lt;&gt; PAKNECONPRVTXN = ((PAKNECONENGYSH**PAKCESENGYCON)*PAKNECONENGYXN**(1&#45;PAKCESENGYCON)+(PAKNECONOTHRSH**PAKCESENGYCON)*PAKNECONOTHRXN**(1&#45;PAKCESENGYCON))**(1/(1&#45;PAKCESENGYCON)) $">
<polygon fill="#63b8ff" stroke="black" points="913.5,-266.77 665.5,-266.77 665.5,-230.77 913.5,-230.77 913.5,-266.77"/>
<text text-anchor="start" x="671.5" y="-244.57" font-family="Times New Roman,serif" font-size="14.00" fill="blue">PAKNECONPRVTXN:Household demand</text>
</a>
</g>
</g>
<!-- PAKNECONENGYXN&#45;&gt;PAKNECONPRVTXN -->
<g id="edge21" class="edge">
<title>PAKNECONENGYXN&#45;&gt;PAKNECONPRVTXN</title>
<g id="a_edge21"><a xlink:href="bogus" xlink:title=" PAKNECONENGYXN &#45;&gt; PAKNECONPRVTXN Min. att. 1% &#160;max: 29%">
<path fill="none" stroke="black" stroke-width="2.91" d="M597.6,-232.71C616.6,-234.31 636.2,-235.95 655.26,-237.56"/>
<polygon fill="black" stroke="black" stroke-width="2.91" points="655.23,-241.07 665.48,-238.42 655.81,-234.09 655.23,-241.07"/>
</a>
</g>
</g>
<!-- PAKNECONENGYGN -->
<g id="node9" class="node">
<title>PAKNECONENGYGN</title>
<g id="a_node9"><a xlink:title="Net consumption deflator&#10;FRML &#160;&lt;&gt; PAKNECONENGYGN = (PAKNVCOLPRODSH**(PAKCESENGYPROD)*(PAKNVCOLPRODGN)**(1&#45;PAKCESENGYPROD)+PAKNVGASPRODSH**(PAKCESENGYPROD)*(PAKNVGASPRODGN)**(1&#45;PAKCESENGYPROD)+PAKNVOILPRODSH**(PAKCESENGYPROD)*(PAKNVOILPRODGN)**(1&#45;PAKCESENGYPROD)+PAKNVRENPRODSH**(PAKCESENGYPROD)*(PAKNVRENPRODXN)**(1&#45;PAKCESENGYPROD))**(1/(1&#45;PAKCESENGYPROD)) $">
<polygon fill="#63b8ff" stroke="black" points="286,-239.77 0,-239.77 0,-203.77 286,-203.77 286,-239.77"/>
<text text-anchor="start" x="6" y="-217.57" font-family="Times New Roman,serif" font-size="14.00" fill="blue">PAKNECONENGYGN:Net consumption deflator</text>
</a>
</g>
</g>
<!-- PAKNECONENGYGN&#45;&gt;PAKNECONENGYXN -->
<g id="edge5" class="edge">
<title>PAKNECONENGYGN&#45;&gt;PAKNECONENGYXN</title>
<g id="a_edge5"><a xlink:href="bogus" xlink:title=" PAKNECONENGYGN &#45;&gt; PAKNECONENGYXN Min. att. &#45;39% &#160;max: 100%">
<path fill="none" stroke="black" stroke-width="8" d="M286.42,-221.77C299.27,-221.77 312.29,-221.77 325.13,-221.77"/>
<polygon fill="black" stroke="black" stroke-width="8" points="325.38,-228.77 335.38,-221.77 325.38,-214.77 325.38,-228.77"/>
</a>
</g>
</g>
<!-- PAKNYGDPFCSTXN -->
<g id="node11" class="node">
<title>PAKNYGDPFCSTXN</title>
<g id="a_node11"><a xlink:title="GDP at factor cost&#10;FRML &lt;Z,EXO&gt; PAKNYGDPFCSTXN = (PAKNYGDPFCSTXN(&#45;1)*EXP(&#45;PAKNYGDPFCSTXN_A+ (0.6*((LOG(PAKNYGDPFCSTXN(&#45;1)))&#45;(LOG(PAKNYGDPFCSTXN(&#45;2))))+(1&#45;0.6)*(0.7*PAKINFLEXPT/100+(1&#45;0.7)*((LOG(PAKPSTAR(&#45;1)))&#45;(LOG(PAKPSTAR(&#45;2)))))+0.25*PAKNYGDPGAP_/100+0.262461811660072*DURING_2000&#45;0.205776950553378*DURING_2001) )) * (1&#45;PAKNYGDPFCSTXN_D)+ PAKNYGDPFCSTXN_X*PAKNYGDPFCSTXN_D &#160;$">
<polygon fill="#63b8ff" stroke="black" points="1996.5,-900.77 1754.5,-900.77 1754.5,-864.77 1996.5,-864.77 1996.5,-900.77"/>
<text text-anchor="start" x="1760.5" y="-878.57" font-family="Times New Roman,serif" font-size="14.00" fill="blue">PAKNYGDPFCSTXN:GDP at factor cost</text>
</a>
</g>
</g>
<!-- PAKNYGDPFCSTXN&#45;&gt;PAKLMEMPTOTLCN -->
<g id="edge11" class="edge">
<title>PAKNYGDPFCSTXN&#45;&gt;PAKLMEMPTOTLCN</title>
<g id="a_edge11"><a xlink:href="bogus" xlink:title=" PAKNYGDPFCSTXN &#45;&gt; PAKLMEMPTOTLCN Min. att. &#45;128% &#160;max: 59%">
<path fill="none" stroke="black" stroke-width="8" d="M1993.03,-900.81C2013.56,-903.99 2034.95,-907.31 2055.51,-910.49"/>
<polygon fill="black" stroke="black" stroke-width="8" points="2054.59,-917.43 2065.54,-912.04 2056.73,-903.6 2054.59,-917.43"/>
</a>
</g>
</g>
<!-- PAKNEIMPGNFSXN -->
<g id="node16" class="node">
<title>PAKNEIMPGNFSXN</title>
<g id="a_node16"><a xlink:title="Imports (G&amp;S)&#10;FRML &#160;&lt;&gt; PAKNEIMPGNFSXN = ((PAKNEIMPENGYSH**PAKCESENGYIMPT)*PAKNVENGNIMPXN**(1&#45;PAKCESENGYIMPT)+(PAKNEIMPOTHRSH**PAKCESENGYIMPT)*PAKNEIMPGSNEXN**(1&#45;PAKCESENGYIMPT))**(1/(1&#45;PAKCESENGYIMPT)) $">
<polygon fill="#63b8ff" stroke="black" points="254.5,-293.77 31.5,-293.77 31.5,-257.77 254.5,-257.77 254.5,-293.77"/>
<text text-anchor="start" x="38" y="-271.57" font-family="Times New Roman,serif" font-size="14.00" fill="blue">PAKNEIMPGNFSXN:Imports (G&amp;S)</text>
</a>
</g>
</g>
<!-- PAKNECONOTHRXN -->
<g id="node23" class="node">
<title>PAKNECONOTHRXN</title>
<g id="a_node23"><a xlink:title="Non&#45;Energy Consumption&#10;FRML &lt;Z,EXO&gt; PAKNECONOTHRXN = (PAKNECONOTHRXN(&#45;1)*EXP(&#45;PAKNECONOTHRXN_A+ (0.598859116610832*((LOG(PAKNYGDPFCSTXN))&#45;(LOG(PAKNYGDPFCSTXN(&#45;1))))+((PAKGGREVGNFSXN/100)&#45;(PAKGGREVGNFSXN(&#45;1)/100))+(1&#45;0.598859116610832)*((LOG(PAKNEIMPGNFSXN))&#45;(LOG(PAKNEIMPGNFSXN(&#45;1))))+0.2*PAKNYGDPGAP_/100) )) * (1&#45;PAKNECONOTHRXN_D)+ PAKNECONOTHRXN_X*PAKNECONOTHRXN_D &#160;$">
<polygon fill="#63b8ff" stroke="black" points="611,-293.77 322,-293.77 322,-257.77 611,-257.77 611,-293.77"/>
<text text-anchor="start" x="328.5" y="-271.57" font-family="Times New Roman,serif" font-size="14.00" fill="blue">PAKNECONOTHRXN:Non&#45;Energy Consumption</text>
</a>
</g>
</g>
<!-- PAKNEIMPGNFSXN&#45;&gt;PAKNECONOTHRXN -->
<g id="edge18" class="edge">
<title>PAKNEIMPGNFSXN&#45;&gt;PAKNECONOTHRXN</title>
<g id="a_edge18"><a xlink:href="bogus" xlink:title=" PAKNEIMPGNFSXN &#45;&gt; PAKNECONOTHRXN Min. att. &#45;10% &#160;max: 114%">
<path fill="none" stroke="black" stroke-width="8" d="M254.64,-275.77C273.05,-275.77 292.43,-275.77 311.68,-275.77"/>
<polygon fill="black" stroke="black" stroke-width="8" points="311.72,-282.77 321.72,-275.77 311.72,-268.77 311.72,-282.77"/>
</a>
</g>
</g>
<!-- PAKNYWRTFORMCN -->
<g id="node18" class="node">
<title>PAKNYWRTFORMCN</title>
<g id="a_node18"><a xlink:title="Formal wage&#10;FRML &lt;Z,EXO&gt; PAKNYWRTFORMCN = (PAKNYWRTFORMCN(&#45;1)*EXP(&#45;PAKNYWRTFORMCN_A+ (&#45;0.120164450250183&#45;0.3*(LOG(PAKNYWRTFORMCN(&#45;1))&#45;LOG(PAKNYGDPFCSTXN(&#45;1))&#45;LOG(PAKNYGDPPOTLKN(&#45;1)/PAKLMEMPSTRLCN(&#45;1)))+0.2*((LOG(PAKNYWRTFORMCN(&#45;1)))&#45;(LOG(PAKNYWRTFORMCN(&#45;2))))+(1&#45;0.2)*(0.5*((LOG(PAKNYGDPFCSTXN(&#45;1)))&#45;(LOG(PAKNYGDPFCSTXN(&#45;2))))+0.5*(PAKINFLEXPT/100)+((LOG(PAKNYGDPMKTPKN/PAKLMEMPSTRLCN))&#45;(LOG(PAKNYGDPMKTPKN(&#45;1)/PAKLMEMPSTRLCN(&#45;1)))))&#45;0.2*(PAKLMUNRTOTLCN&#45;PAKLMUNRSTRLCN)/100+0.15233813938029*DURING_2000&#45;0.183411483907703*DURING_2001) )) * (1&#45;PAKNYWRTFORMCN_D)+ PAKNYWRTFORMCN_X*PAKNYWRTFORMCN_D &#160;$">
<polygon fill="#63b8ff" stroke="black" points="254,-1030.77 32,-1030.77 32,-994.77 254,-994.77 254,-1030.77"/>
<text text-anchor="start" x="38" y="-1008.57" font-family="Times New Roman,serif" font-size="14.00" fill="blue">PAKNYWRTFORMCN:Formal wage</text>
</a>
</g>
</g>
<!-- PAKNYWRTTOTLCN -->
<g id="node27" class="node">
<title>PAKNYWRTTOTLCN</title>
<g id="a_node27"><a xlink:title="Wages&#10;FRML &#160;&lt;&gt; PAKNYWRTTOTLCN = (PAKNYWBINFMSH**PAKINFCES*(PAKNYWRTINFMCN)**(1&#45;PAKINFCES)+PAKNYWBFORMSH**PAKINFCES*(PAKNYWRTFORMCN*(1+PAKGGREVDRCTXN/100))**(1&#45;PAKINFCES))**(1/(1&#45;PAKINFCES)) $">
<polygon fill="#63b8ff" stroke="black" points="557,-1003.77 376,-1003.77 376,-967.77 557,-967.77 557,-1003.77"/>
<text text-anchor="start" x="382.5" y="-981.57" font-family="Times New Roman,serif" font-size="14.00" fill="blue">PAKNYWRTTOTLCN:Wages</text>
</a>
</g>
</g>
<!-- PAKNYWRTFORMCN&#45;&gt;PAKNYWRTTOTLCN -->
<g id="edge1" class="edge">
<title>PAKNYWRTFORMCN&#45;&gt;PAKNYWRTTOTLCN</title>
<g id="a_edge1"><a xlink:href="bogus" xlink:title=" PAKNYWRTFORMCN &#45;&gt; PAKNYWRTTOTLCN Min. att. 21% &#160;max: 21%">
<path fill="none" stroke="black" stroke-width="2.13" d="M254.19,-1003.51C290.34,-1000.48 330.29,-997.12 365.63,-994.15"/>
<polygon fill="black" stroke="black" stroke-width="2.13" points="366.28,-997.61 375.95,-993.29 365.69,-990.63 366.28,-997.61"/>
</a>
</g>
</g>
<!-- PAKNECONPRVTXN&#45;&gt;PAKNECONPRVTKN -->
<g id="edge25" class="edge">
<title>PAKNECONPRVTXN&#45;&gt;PAKNECONPRVTKN</title>
<g id="a_edge25"><a xlink:href="bogus" xlink:title=" PAKNECONPRVTXN &#45;&gt; PAKNECONPRVTKN Min. att. &#45;5706% &#160;max: 593%">
<path fill="none" stroke="black" stroke-width="8" d="M816.86,-266.89C873.58,-305.91 1007.23,-397.83 1070.98,-441.68"/>
<polygon fill="black" stroke="black" stroke-width="8" points="1067.29,-447.64 1079.5,-447.54 1075.22,-436.1 1067.29,-447.64"/>
</a>
</g>
</g>
<!-- PAKFMLBLPOLYXN -->
<g id="node29" class="node">
<title>PAKFMLBLPOLYXN</title>
<g id="a_node29"><a xlink:title="Policy Rate&#10;FRML &lt;Z,EXO&gt; PAKFMLBLPOLYXN = (&#45;100*PAKFMLBLPOLYXN_A+100* (0.905129162122953*PAKFMLBLPOLYXN(&#45;1)/100+(1&#45;0.905129162122953)*(PAKMPPOLNATRXN/100+1.2*(((LOG(PAKNECONPRVTXN))&#45;(LOG(PAKNECONPRVTXN(&#45;1))))&#45;PAKINFLEXPT/100)+0.5*PAKNYGDPGAP_/100)) ) * (1&#45;PAKFMLBLPOLYXN_D)+ PAKFMLBLPOLYXN_X*PAKFMLBLPOLYXN_D &#160;$">
<polygon fill="#63b8ff" stroke="black" points="2277,-86.77 2072,-86.77 2072,-50.77 2277,-50.77 2277,-86.77"/>
<text text-anchor="start" x="2078.5" y="-64.57" font-family="Times New Roman,serif" font-size="14.00" fill="blue">PAKFMLBLPOLYXN:Policy Rate</text>
</a>
</g>
</g>
<!-- PAKNECONPRVTXN&#45;&gt;PAKFMLBLPOLYXN -->
<g id="edge31" class="edge">
<title>PAKNECONPRVTXN&#45;&gt;PAKFMLBLPOLYXN</title>
<g id="a_edge31"><a xlink:href="bogus" xlink:title=" PAKNECONPRVTXN &#45;&gt; PAKFMLBLPOLYXN Min. att. &#45;94% &#160;max: 1462%">
<path fill="none" stroke="black" stroke-width="8" d="M823.13,-230.64C900.09,-189.06 1100.21,-87.67 1282,-52.77 1558.31,0.3 1891.65,-30.05 2061.76,-52.12"/>
<polygon fill="black" stroke="black" stroke-width="8" points="2060.9,-59.07 2071.73,-53.43 2062.72,-45.19 2060.9,-59.07"/>
</a>
</g>
</g>
<!-- PAKNYGDPGAP_ -->
<g id="node26" class="node">
<title>PAKNYGDPGAP_</title>
<g id="a_node26"><a xlink:title="Output Gap (% of Potential GDP)&#10;FRML &#160;&lt;&gt; PAKNYGDPGAP_ = ((PAKNYGDPMKTPKN/PAKNYGDPPOTLKN&#45;1)*100) $">
<polygon fill="#63b8ff" stroke="black" points="2030,-838.77 1721,-838.77 1721,-802.77 2030,-802.77 2030,-838.77"/>
<text text-anchor="start" x="1727.5" y="-816.57" font-family="Times New Roman,serif" font-size="14.00" fill="blue">PAKNYGDPGAP_:Output Gap (% of Potential GDP)</text>
</a>
</g>
</g>
<!-- PAKNYGDPMKTPKN&#45;&gt;PAKNYGDPGAP_ -->
<g id="edge17" class="edge">
<title>PAKNYGDPMKTPKN&#45;&gt;PAKNYGDPGAP_</title>
<g id="a_edge17"><a xlink:href="bogus" xlink:title=" PAKNYGDPMKTPKN &#45;&gt; PAKNYGDPGAP_ Min. att. &#45;78553% &#160;max: 128142%">
<path fill="none" stroke="black" stroke-width="8" d="M1664.09,-818.61C1679.67,-818.77 1695.38,-818.93 1710.82,-819.09"/>
<polygon fill="black" stroke="black" stroke-width="8" points="1710.86,-826.09 1720.93,-819.19 1711,-812.09 1710.86,-826.09"/>
</a>
</g>
</g>
<!-- PAKNYWRTINFMCN -->
<g id="node22" class="node">
<title>PAKNYWRTINFMCN</title>
<g id="a_node22"><a xlink:title="Informal wage&#10;FRML &lt;Z,EXO&gt; PAKNYWRTINFMCN = (PAKNYWRTINFMCN(&#45;1)*EXP(&#45;PAKNYWRTINFMCN_A+ (&#45;0.122614247140616&#45;0.3*(LOG(PAKNYWRTINFMCN(&#45;1))&#45;LOG(PAKNYGDPFCSTXN(&#45;1))&#45;LOG(PAKNYGDPPOTLKN(&#45;1)/PAKLMEMPSTRLCN(&#45;1)))+0.2*((LOG(PAKNYWRTINFMCN(&#45;1)))&#45;(LOG(PAKNYWRTINFMCN(&#45;2))))+(1&#45;0.2)*(0.5*((LOG(PAKNYGDPFCSTXN(&#45;1)))&#45;(LOG(PAKNYGDPFCSTXN(&#45;2))))+0.5*(PAKINFLEXPT/100)+((LOG(PAKNYGDPMKTPKN/PAKLMEMPSTRLCN))&#45;(LOG(PAKNYGDPMKTPKN(&#45;1)/PAKLMEMPSTRLCN(&#45;1)))))&#45;0.2*(PAKLMUNRTOTLCN&#45;PAKLMUNRSTRLCN)/100+0.15347529018182*DURING_2000&#45;0.183372342445734*DURING_2001) )) * (1&#45;PAKNYWRTINFMCN_D)+ PAKNYWRTINFMCN_X*PAKNYWRTINFMCN_D &#160;$">
<polygon fill="#63b8ff" stroke="black" points="256,-976.77 30,-976.77 30,-940.77 256,-940.77 256,-976.77"/>
<text text-anchor="start" x="36" y="-954.57" font-family="Times New Roman,serif" font-size="14.00" fill="blue">PAKNYWRTINFMCN:Informal wage</text>
</a>
</g>
</g>
<!-- PAKNYWRTINFMCN&#45;&gt;PAKNYWRTTOTLCN -->
<g id="edge4" class="edge">
<title>PAKNYWRTINFMCN&#45;&gt;PAKNYWRTTOTLCN</title>
<g id="a_edge4"><a xlink:href="bogus" xlink:title=" PAKNYWRTINFMCN &#45;&gt; PAKNYWRTTOTLCN Min. att. 79% &#160;max: 80%">
<path fill="none" stroke="black" stroke-width="7.95" d="M256.45,-968.21C292.04,-971.2 331.13,-974.48 365.77,-977.39"/>
<polygon fill="black" stroke="black" stroke-width="7.95" points="365.34,-984.34 375.89,-978.24 366.51,-970.47 365.34,-984.34"/>
</a>
</g>
</g>
<!-- PAKNECONOTHRXN&#45;&gt;PAKNECONPRVTXN -->
<g id="edge33" class="edge">
<title>PAKNECONOTHRXN&#45;&gt;PAKNECONPRVTXN</title>
<g id="a_edge33"><a xlink:href="bogus" xlink:title=" PAKNECONOTHRXN &#45;&gt; PAKNECONPRVTXN Min. att. 71% &#160;max: 99%">
<path fill="none" stroke="black" stroke-width="8" d="M611.1,-263.69C625.75,-262.45 640.59,-261.21 655.12,-259.98"/>
<polygon fill="black" stroke="black" stroke-width="8" points="655.75,-266.96 665.12,-259.14 654.57,-253.01 655.75,-266.96"/>
</a>
</g>
</g>
<!-- PAKNYGDPPOTLKN -->
<g id="node25" class="node">
<title>PAKNYGDPPOTLKN</title>
<g id="a_node25"><a xlink:title="Potential GDP&#10;FRML &#160;&lt;&gt; PAKNYGDPPOTLKN = PAKNYGDPTFP*(PAKLMEMPSTRLCN**PAKNYYWBTOTLCN_)*(PAKNEGDIKSTKKN(&#45;1)**(1&#45;PAKNYYWBTOTLCN_)) $">
<polygon fill="#63b8ff" stroke="black" points="1594,-942.77 1373,-942.77 1373,-906.77 1594,-906.77 1594,-942.77"/>
<text text-anchor="start" x="1379.5" y="-920.57" font-family="Times New Roman,serif" font-size="14.00" fill="blue">PAKNYGDPPOTLKN:Potential GDP</text>
</a>
</g>
</g>
<!-- PAKNYGDPPOTLKN&#45;&gt;PAKLMEMPTOTLCN -->
<g id="edge8" class="edge">
<title>PAKNYGDPPOTLKN&#45;&gt;PAKLMEMPTOTLCN</title>
<g id="a_edge8"><a xlink:href="bogus" xlink:title=" PAKNYGDPPOTLKN &#45;&gt; PAKLMEMPTOTLCN Min. att. &#45;92% &#160;max: 605%">
<path fill="none" stroke="black" stroke-width="8" d="M1594.05,-925.4C1720.02,-926.13 1926.04,-927.33 2055.47,-928.08"/>
<polygon fill="black" stroke="black" stroke-width="8" points="2055.77,-935.08 2065.81,-928.14 2055.86,-921.08 2055.77,-935.08"/>
</a>
</g>
</g>
<!-- PAKNYGDPPOTLKN&#45;&gt;PAKNYGDPGAP_ -->
<g id="edge26" class="edge">
<title>PAKNYGDPPOTLKN&#45;&gt;PAKNYGDPGAP_</title>
<g id="a_edge26"><a xlink:href="bogus" xlink:title=" PAKNYGDPPOTLKN &#45;&gt; PAKNYGDPGAP_ Min. att. &#45;129220% &#160;max: 79383%">
<path fill="none" stroke="black" stroke-width="8" d="M1594.09,-924.35C1624.94,-920.51 1657.54,-912.7 1685,-897.77 1706.6,-886.02 1699.95,-868.47 1721,-855.77 1729.69,-850.52 1739.09,-846.06 1748.8,-842.27"/>
<polygon fill="black" stroke="black" stroke-width="8" points="1751.22,-848.84 1758.21,-838.83 1746.41,-835.69 1751.22,-848.84"/>
</a>
</g>
</g>
<!-- PAKNYGDPGAP_&#45;&gt;PAKLMEMPTOTLCN -->
<g id="edge34" class="edge">
<title>PAKNYGDPGAP_&#45;&gt;PAKLMEMPTOTLCN</title>
<g id="a_edge34"><a xlink:href="bogus" xlink:title=" PAKNYGDPGAP_ &#45;&gt; PAKLMEMPTOTLCN Min. att. &#45;362% &#160;max: 147%">
<path fill="none" stroke="black" stroke-width="8" d="M1972.54,-838.83C1991.82,-843.52 2011.75,-849.16 2030,-855.77 2066.88,-869.12 2106.44,-889.76 2134.66,-905.7"/>
<polygon fill="black" stroke="black" stroke-width="8" points="2131.26,-911.81 2143.41,-910.69 2138.2,-899.65 2131.26,-911.81"/>
</a>
</g>
</g>
<!-- PAKNYGDPGAP_&#45;&gt;PAKFMLBLPOLYXN -->
<g id="edge2" class="edge">
<title>PAKNYGDPGAP_&#45;&gt;PAKFMLBLPOLYXN</title>
<g id="a_edge2"><a xlink:href="bogus" xlink:title=" PAKNYGDPGAP_ &#45;&gt; PAKFMLBLPOLYXN Min. att. &#45;15% &#160;max: 83%">
<path fill="none" stroke="black" stroke-width="8" d="M1883.69,-802.55C1923.29,-702.3 2114.59,-217.93 2162.57,-96.45"/>
<polygon fill="black" stroke="black" stroke-width="8" points="2169.1,-98.95 2166.27,-87.08 2156.08,-93.81 2169.1,-98.95"/>
</a>
</g>
</g>
<!-- PAKNYWRTTOTLCN&#45;&gt;PAKNYYWBTOTLCN -->
<g id="edge32" class="edge">
<title>PAKNYWRTTOTLCN&#45;&gt;PAKNYYWBTOTLCN</title>
<g id="a_edge32"><a xlink:href="bogus" xlink:title=" PAKNYWRTTOTLCN &#45;&gt; PAKNYYWBTOTLCN Min. att. 16% &#160;max: 106%">
<path fill="none" stroke="black" stroke-width="8" d="M557.34,-979.33C582.12,-977.55 609.71,-975.58 636.95,-973.62"/>
<polygon fill="black" stroke="black" stroke-width="8" points="637.49,-980.6 646.96,-972.91 636.49,-966.64 637.49,-980.6"/>
</a>
</g>
</g>
<!-- PAKNYWRTTOTLCN&#45;&gt;PAKLMEMPTOTLCN -->
<g id="edge13" class="edge">
<title>PAKNYWRTTOTLCN&#45;&gt;PAKLMEMPTOTLCN</title>
<g id="a_edge13"><a xlink:href="bogus" xlink:title=" PAKNYWRTTOTLCN &#45;&gt; PAKLMEMPTOTLCN Min. att. &#45;1554% &#160;max: 236%">
<path fill="none" stroke="black" stroke-width="8" d="M557.08,-991.03C680.57,-997.82 910.08,-1008.77 1106,-1008.77 1106,-1008.77 1106,-1008.77 1484.5,-1008.77 1727.88,-1008.77 1789.48,-998 2030,-960.77 2049.96,-957.68 2071.29,-953.44 2091.24,-949.06"/>
<polygon fill="black" stroke="black" stroke-width="8" points="2092.98,-955.84 2101.22,-946.83 2089.93,-942.18 2092.98,-955.84"/>
</a>
</g>
</g>
<!-- PAKFMLBLPOLYXN&#45;&gt;PAKNECONPRVTKN -->
<g id="edge16" class="edge">
<title>PAKFMLBLPOLYXN&#45;&gt;PAKNECONPRVTKN</title>
<g id="a_edge16"><a xlink:href="bogus" xlink:title=" PAKFMLBLPOLYXN &#45;&gt; PAKNECONPRVTKN Min. att. &#45;160% &#160;max: 20%">
<path fill="none" stroke="black" stroke-width="8" d="M2071.83,-64.95C1851.91,-57.54 1346.57,-45.43 1282,-87.77 1157.59,-169.34 1120.74,-364.27 1111.09,-437.4"/>
<polygon fill="black" stroke="black" stroke-width="8" points="1104.1,-436.88 1109.81,-447.67 1117.99,-438.61 1104.1,-436.88"/>
</a>
</g>
</g>
</g>
</svg>
